M48
; DRILL file {KiCad 7.0.9} date Friday, December 15, 2023 at 09:36:52 AM
; FORMAT={-:-/ absolute / inch / decimal}
; #@! TF.CreationDate,2023-12-15T09:36:52+01:00
; #@! TF.GenerationSoftware,Kicad,Pcbnew,7.0.9
; #@! TF.FileFunction,Plated,1,2,PTH
FMAT,2
INCH
; #@! TA.AperFunction,Plated,PTH,ComponentDrill
T1C0.0276
; #@! TA.AperFunction,Plated,PTH,ComponentDrill
T2C0.0315
; #@! TA.AperFunction,Plated,PTH,ComponentDrill
T3C0.0374
; #@! TA.AperFunction,Plated,PTH,ComponentDrill
T4C0.0394
%
G90
G05
T1
X3.0203Y-1.0643
X3.0203Y-1.3643
T2
X2.3753Y-1.0093
X2.3753Y-1.1093
X2.3753Y-1.2093
X2.3753Y-1.3093
X2.6753Y-1.0093
X2.6753Y-1.1093
X2.6753Y-1.2093
X2.6753Y-1.3093
X2.8153Y-1.1575
X2.8153Y-1.3543
X2.8703Y-0.9109
X2.8703Y-1.0093
T3
X2.1203Y-1.0393
X2.1203Y-1.1378
X2.1203Y-1.2362
T4
X2.421Y-0.71
X2.5195Y-0.71
X2.7349Y-0.7343
X2.9356Y-0.7343
T0
M30
