%TF.GenerationSoftware,KiCad,Pcbnew,(7.0.0-0)*%
%TF.CreationDate,2023-11-03T17:37:49+01:00*%
%TF.ProjectId,ExternalAdapter,45787465-726e-4616-9c41-646170746572,1.0*%
%TF.SameCoordinates,Original*%
%TF.FileFunction,Legend,Top*%
%TF.FilePolarity,Positive*%
%FSLAX46Y46*%
G04 Gerber Fmt 4.6, Leading zero omitted, Abs format (unit mm)*
G04 Created by KiCad (PCBNEW (7.0.0-0)) date 2023-11-03 17:37:49*
%MOMM*%
%LPD*%
G01*
G04 APERTURE LIST*
%ADD10C,0.170004*%
%ADD11C,0.100000*%
%ADD12C,0.150000*%
%ADD13C,0.300000*%
%ADD14C,0.120000*%
G04 APERTURE END LIST*
D10*
X37254414Y-29304673D02*
X37264018Y-29298600D01*
X35754232Y-39074068D02*
X35765009Y-39106690D01*
X36319881Y-31572817D02*
X36291600Y-31589210D01*
X37150345Y-29486206D02*
X37151260Y-29474355D01*
X36858470Y-34048639D02*
X36849881Y-34041301D01*
X36841660Y-33703500D02*
X36849881Y-33695771D01*
X37079396Y-38138968D02*
X37068165Y-38142114D01*
X37468382Y-30076240D02*
X37507971Y-30069489D01*
X36493308Y-35004195D02*
X36503514Y-34999039D01*
X36169507Y-32877128D02*
X36167730Y-32856237D01*
X36628646Y-38363051D02*
X36644300Y-38375578D01*
X36310950Y-33991616D02*
X36338103Y-34007072D01*
X36996843Y-38149161D02*
X36984825Y-38148259D01*
X36181688Y-32958652D02*
X36177881Y-32938577D01*
X36581924Y-34977222D02*
X36593942Y-34976320D01*
X35726727Y-38973880D02*
X35735092Y-39007663D01*
X37235081Y-37846654D02*
X37238271Y-37857729D01*
X37321641Y-32044837D02*
X37340660Y-32051873D01*
X37294621Y-29713281D02*
X37284136Y-29708606D01*
X36867413Y-34055569D02*
X36858470Y-34048639D01*
X37738685Y-33192398D02*
X37728230Y-33209066D01*
X37240915Y-37963081D02*
X37238271Y-37974372D01*
X37386611Y-34317870D02*
X37419671Y-34288705D01*
X37623446Y-29498215D02*
X37623138Y-29510223D01*
X37706198Y-33241482D02*
X37694620Y-33257227D01*
X37589169Y-29377197D02*
X37594870Y-29386971D01*
X36359055Y-34678901D02*
X36340433Y-34687714D01*
X36841062Y-32008294D02*
X36861512Y-32004889D01*
X37852334Y-32805990D02*
X37851546Y-32827372D01*
X36284224Y-33975593D02*
X36310950Y-33991616D01*
X37254414Y-29691756D02*
X37245133Y-29685247D01*
X38309861Y-32330866D02*
X38298455Y-32297929D01*
X37652404Y-35841389D02*
X36794979Y-36188035D01*
X37592536Y-32201458D02*
X37607078Y-32214270D01*
X37741836Y-32375983D02*
X37751733Y-32392637D01*
X36593942Y-35442542D02*
X36581924Y-35441640D01*
X37632701Y-31544657D02*
X37602882Y-31530015D01*
X36378030Y-34670713D02*
X36359055Y-34678901D01*
X36340433Y-34687714D02*
X36322178Y-34697139D01*
X36618297Y-34976320D02*
X36630315Y-34977222D01*
X37698318Y-32312656D02*
X37709786Y-32327998D01*
X37178613Y-29609458D02*
X37173385Y-29599394D01*
X37067712Y-37335343D02*
X37048317Y-37333777D01*
X37009022Y-38499587D02*
X37052079Y-38498065D01*
X37164404Y-29417973D02*
X37168644Y-29407374D01*
X35787738Y-33437048D02*
X35803428Y-33467082D01*
X36493308Y-35414666D02*
X36483396Y-35409045D01*
X36949877Y-38142114D02*
X36938646Y-38138968D01*
X37191662Y-34016995D02*
X37184221Y-34025465D01*
X36428252Y-39863389D02*
X36457756Y-39876844D01*
X35765009Y-39106690D02*
X35776593Y-39138927D01*
X36598691Y-38336484D02*
X36613438Y-38350015D01*
X36765259Y-35036666D02*
X36773481Y-35044395D01*
X36403692Y-35088413D02*
X36409850Y-35078942D01*
X36966053Y-31398216D02*
X36930918Y-31399421D01*
X35687000Y-37605658D02*
X35687000Y-38614557D01*
X36917004Y-35706017D02*
X36933131Y-35695814D01*
X36812752Y-33738048D02*
X36819352Y-33728896D01*
X37386741Y-29731629D02*
X37374564Y-29731326D01*
X37068165Y-33642472D02*
X37079396Y-33645618D01*
X37422780Y-29728939D02*
X37410937Y-29730424D01*
X37505721Y-39901735D02*
X37535814Y-39889647D01*
X37203997Y-32012153D02*
X37224019Y-32016465D01*
X37121832Y-38121286D02*
X37111626Y-38126441D01*
X37800167Y-38679569D02*
X37798563Y-38700435D01*
X36786684Y-37835809D02*
X36790923Y-37825210D01*
X37157491Y-29439893D02*
X37160682Y-29428818D01*
X35701275Y-38834853D02*
X35706439Y-38870195D01*
X36068246Y-39606818D02*
X36090688Y-39629356D01*
X37603049Y-33358748D02*
X37584882Y-33375136D01*
X37072761Y-33288351D02*
X37041111Y-33285844D01*
X37121832Y-37710815D02*
X37131744Y-37716436D01*
X37231358Y-33788295D02*
X37235081Y-33799139D01*
X36800893Y-33979780D02*
X36795665Y-33969715D01*
X36736570Y-34640126D02*
X36711187Y-34635069D01*
X35984172Y-39511101D02*
X36004309Y-39535866D01*
X38068483Y-33691411D02*
X38088798Y-33665824D01*
X37310150Y-39343062D02*
X37291520Y-39349529D01*
X37576410Y-29637855D02*
X37569382Y-29646673D01*
X37325220Y-30078634D02*
X37345541Y-30080359D01*
X36215186Y-33074829D02*
X36208334Y-33055975D01*
X36429035Y-32204527D02*
X36443871Y-32191685D01*
X37284136Y-29287823D02*
X37294621Y-29283148D01*
X38331042Y-29212654D02*
X37902959Y-29212654D01*
X36446980Y-35382196D02*
X36438758Y-35374466D01*
X36993884Y-35650163D02*
X37008074Y-35637596D01*
X38331042Y-29783775D02*
X38331042Y-29212654D01*
X36642493Y-39942288D02*
X36674318Y-39950477D01*
X36046347Y-39583725D02*
X36068246Y-39606818D01*
X37051857Y-39392610D02*
X37030542Y-39393290D01*
X37566261Y-33390955D02*
X37547179Y-33406199D01*
X37361358Y-37447103D02*
X37331152Y-37426397D01*
X37222378Y-38017229D02*
X37217149Y-38027293D01*
X37101141Y-37700984D02*
X37111626Y-37705659D01*
X37809479Y-32518044D02*
X37815839Y-32537031D01*
X36777127Y-33915567D02*
X36775045Y-33904075D01*
X37448969Y-32102122D02*
X37466045Y-32111739D01*
X37413981Y-32083952D02*
X37431615Y-32092859D01*
X37159572Y-34048639D02*
X37150629Y-34055569D01*
X35871391Y-31990725D02*
X35853440Y-32018442D01*
X36132510Y-31701087D02*
X36107758Y-31721969D01*
X36824217Y-35300271D02*
X36819476Y-35310610D01*
X37719371Y-31592336D02*
X37690946Y-31575817D01*
X37622224Y-29522074D02*
X37620718Y-29533753D01*
X37242998Y-33904075D02*
X37240915Y-33915567D01*
X38214189Y-32109586D02*
X38197912Y-32080073D01*
X38175810Y-39293034D02*
X38190458Y-39263293D01*
X36813306Y-35756237D02*
X36831354Y-35749232D01*
X37238271Y-37974372D02*
X37235081Y-37985447D01*
X36562416Y-34627458D02*
X36540882Y-34629393D01*
X37207929Y-30054624D02*
X37226867Y-30060195D01*
X37793987Y-38741460D02*
X37791018Y-38761621D01*
X36286230Y-33216005D02*
X36275946Y-33199491D01*
X37407431Y-28915027D02*
X37386741Y-28914677D01*
X37227601Y-29325449D02*
X37236191Y-29318112D01*
X37527417Y-28931275D02*
X37507971Y-28926940D01*
X36595383Y-34285771D02*
X36611677Y-34300902D01*
X35872429Y-33581671D02*
X35891237Y-33608934D01*
X37020026Y-29956189D02*
X37035348Y-29967742D01*
X37224019Y-32016465D02*
X37243877Y-32021232D01*
X37620699Y-28962080D02*
X37602607Y-28954740D01*
X37044432Y-31398225D02*
X37009021Y-31397814D01*
X37735045Y-33982076D02*
X37761776Y-33965415D01*
X37584882Y-33375136D02*
X37566261Y-33390955D01*
X36914419Y-34444653D02*
X36937667Y-34447872D01*
X36279047Y-32383042D02*
X36289480Y-32366502D01*
X37231358Y-37835809D02*
X37235081Y-37846654D01*
X36708724Y-35419822D02*
X36698240Y-35424498D01*
X37324230Y-38409977D02*
X37357655Y-38387584D01*
X37479168Y-31478067D02*
X37447406Y-31467022D01*
X37427942Y-30080359D02*
X37468382Y-30076240D01*
X37537292Y-29318112D02*
X37545882Y-29325449D01*
X37176383Y-38081086D02*
X37168161Y-38088815D01*
X36826380Y-38064508D02*
X36819352Y-38055690D01*
X36519578Y-34632078D02*
X36498517Y-34635499D01*
X37240915Y-33915567D02*
X37238271Y-33926858D01*
X37884545Y-39672490D02*
X37907960Y-39651246D01*
X36755642Y-39361147D02*
X36736882Y-39355558D01*
X36883712Y-35724896D02*
X36900527Y-35715715D01*
X37561942Y-29655143D02*
X37554103Y-29663250D01*
X37153868Y-39983231D02*
X37187419Y-39979722D01*
X37583011Y-29367726D02*
X37589169Y-29377197D01*
X36795665Y-33969715D02*
X36790923Y-33959377D01*
X36186570Y-32603293D02*
X36191538Y-32583533D01*
X36746874Y-38439328D02*
X36765286Y-38447929D01*
X37744065Y-38932647D02*
X37736564Y-38950452D01*
X36570080Y-34978706D02*
X36581924Y-34977222D01*
X36356123Y-33308065D02*
X36343504Y-33293560D01*
X36174582Y-32918297D02*
X36171791Y-32897814D01*
X35803157Y-32104849D02*
X35787584Y-32134738D01*
X36736882Y-39355558D02*
X36718383Y-39349529D01*
X36720792Y-34378261D02*
X36740701Y-34388748D01*
X38127646Y-33613032D02*
X38146180Y-33585831D01*
X37217149Y-37804807D02*
X37222378Y-37814871D01*
X37850233Y-32848543D02*
X37848394Y-32869504D01*
X36682924Y-32051873D02*
X36702167Y-32044837D01*
X37350448Y-31438784D02*
X37317569Y-31431004D01*
X36912752Y-29847625D02*
X36924565Y-29862658D01*
X37068165Y-38142114D02*
X37056714Y-38144721D01*
X37197814Y-37362805D02*
X37179905Y-37357183D01*
X36916900Y-34083603D02*
X36906416Y-34078928D01*
X37033216Y-38148259D02*
X37021198Y-38149161D01*
X35854244Y-33553855D02*
X35872429Y-33581671D01*
X36656684Y-37447103D02*
X36627889Y-37469576D01*
X37554103Y-29663250D02*
X37545882Y-29670980D01*
X36161027Y-39693088D02*
X36185479Y-39713037D01*
X36984825Y-38148259D02*
X36972982Y-38146774D01*
X36842211Y-38476071D02*
X36862195Y-38481476D01*
X37204101Y-29349756D02*
X37211541Y-29341286D01*
X36627889Y-37469576D02*
X36600587Y-37493734D01*
X36197032Y-32564024D02*
X36203053Y-32544768D01*
X37569382Y-29646673D02*
X37561942Y-29655143D01*
X35829674Y-39263294D02*
X35844446Y-39293035D01*
X36870523Y-29212654D02*
X35687000Y-29212654D01*
X37623138Y-29486206D02*
X37623446Y-29498215D01*
X37009021Y-39989470D02*
X37016575Y-39989470D01*
X37728230Y-33209066D02*
X37717401Y-33225428D01*
X36140260Y-35569377D02*
X36162554Y-35595777D01*
X37350702Y-29267490D02*
X37362546Y-29266005D01*
X36790923Y-38006890D02*
X36786684Y-37996292D01*
X36882117Y-32001939D02*
X36902876Y-31999442D01*
X36229723Y-38781548D02*
X36226450Y-38761621D01*
X36483396Y-35009817D02*
X36493308Y-35004195D01*
X37427942Y-28916070D02*
X37407431Y-28915027D01*
X36059763Y-31765633D02*
X36036518Y-31788411D01*
X37615992Y-29439893D02*
X37618636Y-29451184D01*
X36165706Y-32770351D02*
X36166486Y-32748603D01*
X36927649Y-33649289D02*
X36938646Y-33645618D01*
X37184221Y-33711608D02*
X37191662Y-33720078D01*
X36319427Y-33263542D02*
X36307972Y-33248031D01*
X38204508Y-39233003D02*
X38217962Y-39202165D01*
X35927308Y-39433475D02*
X35945670Y-39459905D01*
X36399255Y-39849282D02*
X36428252Y-39863389D01*
X36584166Y-34626287D02*
X36562416Y-34627458D01*
X37912317Y-33852793D02*
X37935770Y-33831910D01*
X36983588Y-34759983D02*
X36964035Y-34744676D01*
X35687000Y-31075007D02*
X36215809Y-31075007D01*
X37150629Y-38103083D02*
X37141349Y-38109592D01*
X37305100Y-28920189D02*
X37265512Y-28926940D01*
X36388022Y-35300271D02*
X36383782Y-35289672D01*
X37157491Y-29556536D02*
X37154848Y-29545245D01*
X37662056Y-31559924D02*
X37632701Y-31544657D01*
X37567092Y-39190225D02*
X37553464Y-39202373D01*
X37154848Y-29545245D02*
X37152765Y-29533753D01*
X37839155Y-33911818D02*
X37864010Y-33892746D01*
X37846194Y-32676949D02*
X37848497Y-32697939D01*
X36653813Y-34980760D02*
X36665263Y-34983367D01*
X37795247Y-32480820D02*
X37802614Y-32499307D01*
X37150629Y-37729018D02*
X37159572Y-37735948D01*
X37584222Y-28947978D02*
X37565554Y-28941805D01*
X36174821Y-32664078D02*
X36178213Y-32643567D01*
X35687000Y-35052000D02*
X36014610Y-35186586D01*
X37565554Y-39876844D02*
X37594809Y-39863389D01*
X37231358Y-33948778D02*
X37227119Y-33959377D01*
X37413535Y-39933320D02*
X37444581Y-39923571D01*
X36438758Y-35374466D02*
X36430920Y-35366359D01*
X37238271Y-33810214D02*
X37240915Y-33821505D01*
X38181016Y-32051113D02*
X38163499Y-32022706D01*
X37351393Y-34344554D02*
X37386611Y-34317870D01*
X37345541Y-28916070D02*
X37305100Y-28920189D01*
X37168161Y-38088815D02*
X37159572Y-38096152D01*
X37090393Y-38135297D02*
X37079396Y-38138968D01*
X37382174Y-39942288D02*
X37413535Y-39933320D01*
X36833821Y-38072978D02*
X36826380Y-38064508D01*
X36614147Y-33433859D02*
X36592222Y-33454247D01*
X36085705Y-33827097D02*
X36109040Y-33847627D01*
X37164624Y-33305405D02*
X37134562Y-33298175D01*
X36286895Y-38967927D02*
X36279238Y-38950452D01*
X36024542Y-35317783D02*
X36032280Y-35352522D01*
X37068165Y-34094600D02*
X37056714Y-34097207D01*
X35758212Y-32196153D02*
X35744413Y-32227679D01*
X37163463Y-32004889D02*
X37183811Y-32008294D01*
X36756670Y-35029328D02*
X36765259Y-35036666D01*
X37450432Y-34257200D02*
X37478752Y-34223493D01*
X36826380Y-34016995D02*
X36819352Y-34008176D01*
X36178213Y-32643567D02*
X36182129Y-32623305D01*
X36882453Y-38486203D02*
X36902972Y-38490238D01*
X37561942Y-29341286D02*
X37569382Y-29349756D01*
X38347075Y-32466251D02*
X38339034Y-32431858D01*
X36842516Y-35197423D02*
X36842824Y-35209431D01*
X36372143Y-35173893D02*
X36374226Y-35162400D01*
X36447996Y-33394377D02*
X36429004Y-33378830D01*
X36380060Y-35278827D02*
X36376869Y-35267752D01*
X36876693Y-33674994D02*
X36886297Y-33668922D01*
X37001467Y-31397814D02*
X36966053Y-31398216D01*
X37975164Y-39583725D02*
X37996405Y-39560074D01*
X36938646Y-33645618D02*
X36949877Y-33642472D01*
X36795665Y-37814871D02*
X36800893Y-37804807D01*
X35731418Y-33311385D02*
X35744413Y-33343601D01*
X36974188Y-39989080D02*
X37009021Y-39989470D01*
X36976493Y-29918725D02*
X36990587Y-29931669D01*
X37576410Y-29358574D02*
X37583011Y-29367726D01*
X37345541Y-30080359D02*
X37366052Y-30081402D01*
X38003969Y-33764917D02*
X38026069Y-33740959D01*
X36083135Y-35482763D02*
X36100482Y-35512802D01*
X36964035Y-34744676D02*
X36943825Y-34730177D01*
X37002459Y-34776072D02*
X36983588Y-34759983D01*
X38370797Y-32607490D02*
X38366134Y-32571629D01*
X37020624Y-34792919D02*
X37002459Y-34776072D01*
X36665263Y-34983367D02*
X36676494Y-34986513D01*
X36794979Y-36188035D02*
X36794979Y-35762672D01*
X36288327Y-39786354D02*
X36315301Y-39803061D01*
X37009021Y-33284999D02*
X36976704Y-33285853D01*
X36979506Y-39393290D02*
X36957816Y-39392610D01*
X37364501Y-39321212D02*
X37346691Y-39328859D01*
X36013778Y-31811819D02*
X35991639Y-31835763D01*
X37101141Y-33653469D02*
X37111626Y-33658145D01*
X38017045Y-39535865D02*
X38037084Y-39511100D01*
X36410460Y-33362721D02*
X36396299Y-33349562D01*
X36936396Y-39391479D02*
X36915245Y-39389897D01*
X36841602Y-35185572D02*
X36842516Y-35197423D01*
X38360625Y-33047737D02*
X38366134Y-33012382D01*
X36268985Y-32399885D02*
X36279047Y-32383042D01*
X36905438Y-39985960D02*
X36939661Y-39987910D01*
X37801837Y-31645659D02*
X37774817Y-31627256D01*
X36348669Y-31557073D02*
X36319881Y-31572817D01*
X37150345Y-29510223D02*
X37150037Y-29498215D01*
X35910667Y-33635645D02*
X35930719Y-33661805D01*
X36891469Y-34440554D02*
X36914419Y-34444653D01*
X36403692Y-35330448D02*
X36397991Y-35320674D01*
X37045060Y-33637812D02*
X37056714Y-33639865D01*
X36372914Y-39110266D02*
X36361845Y-39095777D01*
X36949877Y-33642472D02*
X36961327Y-33639865D01*
X36433880Y-39177733D02*
X36420940Y-39164903D01*
X37275053Y-34389926D02*
X37314160Y-34368619D01*
X37607078Y-32214270D02*
X37621284Y-32227371D01*
X37547214Y-32165151D02*
X37562603Y-32176898D01*
X36822851Y-33314436D02*
X36793934Y-33324709D01*
X36232428Y-32470282D02*
X36241016Y-32452228D01*
X37706341Y-29007052D02*
X37689893Y-28996993D01*
X36781831Y-34407497D02*
X36803016Y-34415723D01*
X35909540Y-39406491D02*
X35927308Y-39433475D01*
X36773539Y-37939910D02*
X36772625Y-37928059D01*
X37673093Y-28987455D02*
X37655953Y-28978449D01*
X36773539Y-33892396D02*
X36772625Y-33880544D01*
X37617261Y-33345182D02*
X37603049Y-33358748D01*
X37448263Y-28917795D02*
X37427942Y-28916070D01*
X36900527Y-35715715D02*
X36917004Y-35706017D01*
X36592222Y-33454247D02*
X36571369Y-33475704D01*
X37679665Y-39819118D02*
X37706979Y-39803061D01*
X38366134Y-33012382D02*
X38370797Y-32976652D01*
X37545882Y-29670980D02*
X37537292Y-29678317D01*
X36570080Y-35440155D02*
X36558426Y-35438102D01*
X36488787Y-39225637D02*
X36474610Y-39214178D01*
X36629814Y-39313216D02*
X36612954Y-39304873D01*
X37722425Y-29017621D02*
X37706341Y-29007052D01*
X37168644Y-29589055D02*
X37164404Y-29578456D01*
X37686457Y-32297639D02*
X37698318Y-32312656D01*
X36852444Y-33305623D02*
X36822851Y-33314436D01*
X37584222Y-30048451D02*
X37620699Y-30034349D01*
X36728843Y-35009817D02*
X36738447Y-35015889D01*
X37020026Y-29040241D02*
X36990587Y-29064760D01*
X37796989Y-29077704D02*
X37782896Y-29064760D01*
X37141349Y-37722509D02*
X37150629Y-37729018D01*
X37083590Y-28996993D02*
X37051058Y-29017621D01*
X37240915Y-37869020D02*
X37242998Y-37880512D01*
X36785177Y-37375660D02*
X36751217Y-37390596D01*
X35687000Y-29212654D02*
X35687000Y-31075007D01*
X36580126Y-39287143D02*
X36564157Y-39277757D01*
X36261859Y-39768998D02*
X36288327Y-39786354D01*
X37448853Y-39277757D02*
X37432615Y-39287143D01*
X37211449Y-37795033D02*
X37217149Y-37804807D01*
X36396179Y-39138248D02*
X36384359Y-39124423D01*
X36374226Y-35256461D02*
X36372143Y-35244969D01*
X36927649Y-37696803D02*
X36938646Y-37693133D01*
X37236191Y-29318112D02*
X37245133Y-29311182D01*
X36540882Y-34629393D02*
X36519578Y-34632078D01*
X36738856Y-39964514D02*
X36771572Y-39970363D01*
X37152765Y-29533753D02*
X37151260Y-29522074D01*
X38298455Y-33284718D02*
X38309861Y-33251986D01*
X37562603Y-32176898D02*
X37577711Y-32189000D01*
X37464772Y-39268025D02*
X37448853Y-39277757D01*
X37195276Y-39375265D02*
X37175407Y-39379084D01*
X36972982Y-34099261D02*
X36961327Y-34097207D01*
X37860731Y-29847625D02*
X37882873Y-29816421D01*
X37220659Y-39975432D02*
X37253588Y-39970363D01*
X36802389Y-35078942D02*
X36808547Y-35088413D01*
X37791018Y-38761621D02*
X37787597Y-38781548D01*
X36376869Y-35151109D02*
X36380060Y-35140034D01*
X36570630Y-38307986D02*
X36584417Y-38322470D01*
X36518039Y-39247522D02*
X36503263Y-39236752D01*
X37528350Y-29311182D02*
X37537292Y-29318112D01*
X38144721Y-39350865D02*
X38160564Y-39322225D01*
X38305954Y-38905145D02*
X38311831Y-38870194D01*
X35688584Y-38689565D02*
X35690564Y-38726476D01*
X37930885Y-39629355D02*
X37953321Y-39606818D01*
X35859820Y-39322226D02*
X35875795Y-39350866D01*
X36627413Y-31446404D02*
X36595123Y-31455640D01*
X36548782Y-39913043D02*
X36579726Y-39923571D01*
X37509465Y-29298600D02*
X37519069Y-29304673D01*
X35892369Y-39378955D02*
X35909540Y-39406491D01*
X36370638Y-35233290D02*
X36369723Y-35221439D01*
X35670878Y-33110411D02*
X35678885Y-33144819D01*
X36294934Y-38985069D02*
X36286895Y-38967927D01*
X38045308Y-31863951D02*
X38023418Y-31839450D01*
X37038056Y-34810499D02*
X37020624Y-34792919D01*
X36550783Y-37546797D02*
X36528440Y-37575542D01*
X37234214Y-34408337D02*
X37275053Y-34389926D01*
X36522463Y-32133173D02*
X36539074Y-32122611D01*
X36962833Y-29091089D02*
X36936857Y-29119134D01*
X36886297Y-33668922D02*
X36896210Y-33663300D01*
X37796502Y-38721065D02*
X37793987Y-38741460D01*
X36340835Y-39065805D02*
X36330896Y-39050321D01*
X35636638Y-32784398D02*
X35637062Y-32822070D01*
X37265512Y-28926940D02*
X37226867Y-28936234D01*
X35637062Y-32822070D02*
X35638335Y-32859381D01*
X36790923Y-37825210D02*
X36795665Y-37814871D01*
X35719250Y-32291881D02*
X35707911Y-32324571D01*
X37085707Y-34867391D02*
X37070623Y-34847760D01*
X37410937Y-29730424D02*
X37398919Y-29731326D01*
X35719250Y-33278803D02*
X35731418Y-33311385D01*
X37623138Y-29510223D02*
X37622224Y-29522074D01*
X36573201Y-32102632D02*
X36590720Y-32093215D01*
X36165700Y-32813846D02*
X36165446Y-32792344D01*
X37954043Y-31769314D02*
X37929861Y-31747125D01*
X36761551Y-34646239D02*
X36736570Y-34640126D01*
X36996843Y-37682940D02*
X37009021Y-37682636D01*
X37478752Y-34223493D02*
X37504488Y-34187722D01*
X36004309Y-39535866D02*
X36025034Y-39560074D01*
X36876693Y-34062078D02*
X36867413Y-34055569D01*
X37111626Y-37705659D02*
X37121832Y-37710815D01*
X38111239Y-39406490D02*
X38128280Y-39378954D01*
X37113350Y-34908529D02*
X37099958Y-34887655D01*
X37194067Y-33314121D02*
X37164624Y-33305405D01*
X36687491Y-34990184D02*
X36698240Y-34994364D01*
X35991639Y-31835763D02*
X35970101Y-31860243D01*
X36858470Y-37735948D02*
X36867413Y-37729018D01*
X35678885Y-33144819D02*
X35687727Y-33178863D01*
X36777127Y-33821505D02*
X36779771Y-33810214D01*
X38107216Y-31940818D02*
X38087206Y-31914636D01*
X37362546Y-29266005D02*
X37374564Y-29265103D01*
X38324766Y-38762993D02*
X38327511Y-38726475D01*
X36773481Y-35044395D02*
X36781319Y-35052502D01*
X38023418Y-31839450D02*
X38000898Y-31815512D01*
X37717401Y-33225428D02*
X37706198Y-33241482D01*
X36840096Y-35244969D02*
X36838014Y-35256461D01*
X35687000Y-34466724D02*
X35687000Y-35052000D01*
X38286209Y-33317077D02*
X38298455Y-33284718D01*
X37226867Y-30060195D02*
X37246066Y-30065154D01*
X37783724Y-38801242D02*
X37779401Y-38820705D01*
X36036518Y-31788411D02*
X36013778Y-31811819D01*
X37273930Y-29703450D02*
X37264018Y-29697829D01*
X36718930Y-35414666D02*
X36708724Y-35419822D01*
X38366134Y-32571629D02*
X38360625Y-32536136D01*
X36606119Y-34625894D02*
X36584166Y-34626287D01*
X36307972Y-33248031D02*
X36296906Y-33232185D01*
X36546976Y-35435495D02*
X36535744Y-35432349D01*
X37253588Y-39970363D02*
X37286204Y-39964514D01*
X37846030Y-32890254D02*
X37843141Y-32910792D01*
X37286204Y-39964514D02*
X37318508Y-39957885D01*
X36831354Y-35749232D02*
X36849113Y-35741665D01*
X36782962Y-37985447D02*
X36779771Y-37974372D01*
X37009021Y-37682636D02*
X37021198Y-37682940D01*
X37504488Y-34187722D02*
X37527498Y-34150028D01*
X36706439Y-39957885D02*
X36738856Y-39964514D01*
X37620718Y-29462676D02*
X37622224Y-29474355D01*
X36961327Y-33639865D02*
X36972982Y-33637812D01*
X38214386Y-33471684D02*
X38229957Y-33441819D01*
X36786684Y-33788295D02*
X36790923Y-33777696D01*
X36886297Y-37716436D02*
X36896210Y-37710815D01*
X37211541Y-29655143D02*
X37204101Y-29646673D01*
X37086925Y-37337518D02*
X37067712Y-37335343D01*
X37888398Y-33873071D02*
X37912317Y-33852793D01*
X36943825Y-34730177D02*
X36922985Y-34716511D01*
X37205291Y-37785562D02*
X37211449Y-37795033D01*
X36944862Y-31995810D02*
X36966091Y-31994676D01*
X37657634Y-33302606D02*
X37644553Y-33317110D01*
X36257925Y-33959004D02*
X36284224Y-33975593D01*
X37291520Y-39349529D02*
X37272685Y-39355558D01*
X36795665Y-33767357D02*
X36800893Y-33757293D01*
X37583011Y-29628703D02*
X37576410Y-29637855D01*
X36838014Y-35256461D02*
X36835370Y-35267752D01*
X36819476Y-35310610D02*
X36814248Y-35320674D01*
X37377876Y-32067202D02*
X37396068Y-32075400D01*
X37711868Y-39001880D02*
X37702907Y-39018358D01*
X36867413Y-37729018D02*
X36876693Y-37722509D01*
X36747727Y-35022398D02*
X36756670Y-35029328D01*
X37802234Y-38615550D02*
X37802004Y-38637128D01*
X36944741Y-38496183D02*
X36965965Y-38498065D01*
X37482840Y-32121711D02*
X37499355Y-32132039D01*
X37205291Y-33999025D02*
X37198690Y-34008176D01*
X37159572Y-38096152D02*
X37150629Y-38103083D01*
X37197073Y-29358574D02*
X37204101Y-29349756D01*
X36901538Y-34703702D02*
X36879511Y-34691775D01*
X36370638Y-35185572D02*
X36372143Y-35173893D01*
X36377962Y-31541978D02*
X36348669Y-31557073D01*
X37415366Y-31456793D02*
X37383046Y-31447380D01*
X36682168Y-39336157D02*
X36664421Y-39328859D01*
X38327511Y-38726475D02*
X38329472Y-38689563D01*
X36819352Y-33728896D02*
X36826380Y-33720078D01*
X36938646Y-37693133D02*
X36949877Y-37689986D01*
X36630315Y-34977222D02*
X36642158Y-34978706D01*
X37848394Y-32869504D02*
X37846030Y-32890254D01*
X36664421Y-39328859D02*
X36646969Y-39321212D01*
X37623415Y-34042708D02*
X37652029Y-34028451D01*
X35758230Y-33375308D02*
X35772671Y-33406456D01*
X38259314Y-32201429D02*
X38244889Y-32170265D01*
X36563124Y-31465680D02*
X36531417Y-31476522D01*
X37423855Y-33452283D02*
X37401988Y-33432148D01*
X37350498Y-39950477D02*
X37382174Y-39942288D01*
X37447413Y-38307986D02*
X37473473Y-38277662D01*
X37183811Y-32008294D02*
X37203997Y-32012153D01*
X36574858Y-37519501D02*
X36550783Y-37546797D01*
X35687396Y-38652258D02*
X35688584Y-38689565D01*
X35889938Y-31963549D02*
X35871391Y-31990725D01*
X36676494Y-34986513D02*
X36687491Y-34990184D01*
X36786684Y-37996292D02*
X36782962Y-37985447D01*
X37211449Y-38037068D02*
X37205291Y-38046539D01*
X37497426Y-38245617D02*
X37519165Y-38211955D01*
X36779771Y-37857729D02*
X36782962Y-37846654D01*
X37264018Y-29298600D02*
X37273930Y-29292979D01*
X36113632Y-39651247D02*
X36137078Y-39672491D01*
X37651865Y-39834525D02*
X37679665Y-39819118D01*
X37831323Y-32971137D02*
X37826333Y-32990826D01*
X36416451Y-35349071D02*
X36409850Y-35339919D01*
X37227119Y-38006890D02*
X37222378Y-38017229D01*
X37468113Y-29278967D02*
X37478862Y-29283148D01*
X37245418Y-37928059D02*
X37244503Y-37939910D01*
X36014358Y-35209432D02*
X36015512Y-35246170D01*
X36786684Y-33948778D02*
X36782962Y-33937933D01*
X37051058Y-29978808D02*
X37067142Y-29989377D01*
X36774666Y-39366295D02*
X36755642Y-39361147D01*
X36990587Y-29931669D02*
X37005101Y-29944160D01*
X37186549Y-35094462D02*
X37180935Y-35069610D01*
X37056386Y-34450231D02*
X37102730Y-34444798D01*
X37751733Y-32392637D02*
X37761236Y-32409622D01*
X37776772Y-33122668D02*
X37767809Y-33140557D01*
X36711124Y-38420339D02*
X36728815Y-38430127D01*
X37468382Y-28920189D02*
X37448263Y-28917795D01*
X37572601Y-31515997D02*
X37541858Y-31502603D01*
X35693339Y-38762995D02*
X35696909Y-38799120D01*
X37827046Y-32575757D02*
X37831891Y-32595495D01*
X36813503Y-39375265D02*
X36793952Y-39371001D01*
X35949162Y-31885262D02*
X35928823Y-31910818D01*
X37366052Y-30081402D02*
X37386741Y-30081752D01*
X36291600Y-31589210D02*
X36263824Y-31606250D01*
X36414490Y-32217746D02*
X36429035Y-32204527D01*
X36837902Y-39979722D02*
X36871519Y-39983231D01*
X37205291Y-38046539D02*
X37198690Y-38055690D01*
X37085838Y-39987910D02*
X37120008Y-39985960D01*
X37761236Y-32409622D02*
X37770344Y-32426941D01*
X35643421Y-32636128D02*
X35640455Y-32672639D01*
X35657375Y-32528845D02*
X35651882Y-32564229D01*
X36611677Y-34300902D02*
X36628541Y-34315424D01*
X36266172Y-36392895D02*
X35687000Y-36631027D01*
X36660389Y-38387584D02*
X36676898Y-38399054D01*
X36558426Y-34980760D02*
X36570080Y-34978706D01*
X36775045Y-37880512D02*
X36777127Y-37869020D01*
X36862195Y-38481476D02*
X36882453Y-38486203D01*
X37652647Y-39095777D02*
X37641507Y-39110266D01*
X37694620Y-33257227D02*
X37682667Y-33272664D01*
X38380980Y-32829961D02*
X38381405Y-32792344D01*
X36550109Y-34236901D02*
X36564581Y-34253752D01*
X37831891Y-32595495D02*
X37836229Y-32615483D01*
X37431615Y-32092859D02*
X37448969Y-32102122D01*
X35647230Y-32969142D02*
X35651882Y-33005004D01*
X36107758Y-31721969D02*
X36083509Y-31743485D01*
X35928823Y-31910818D02*
X35909081Y-31936914D01*
X37245418Y-37904042D02*
X37245726Y-37916051D01*
X36880304Y-29800273D02*
X36890610Y-29816421D01*
X37670338Y-33287790D02*
X37657634Y-33302606D01*
X37852340Y-32762408D02*
X37852596Y-32784398D01*
X36474421Y-32167141D02*
X36490138Y-32155438D01*
X36386454Y-32245076D02*
X36400281Y-32231260D01*
X36700145Y-39343062D02*
X36682168Y-39336157D01*
X36303354Y-39001880D02*
X36294934Y-38985069D01*
X37253642Y-39361147D02*
X37234393Y-39366295D01*
X37067142Y-29989377D02*
X37083590Y-29999436D01*
X37495642Y-39247522D02*
X37480369Y-39257947D01*
X36467437Y-33409360D02*
X36447996Y-33394377D01*
X36518129Y-39901735D02*
X36548782Y-39913043D01*
X37434435Y-29269543D02*
X37445885Y-29272150D01*
X37314160Y-34368619D02*
X37351393Y-34344554D01*
X36279238Y-38950452D02*
X36271964Y-38932647D01*
X36369415Y-35209431D02*
X36369723Y-35197423D01*
X35964625Y-39485781D02*
X35984172Y-39511101D01*
X36263824Y-31606250D02*
X36236553Y-31623935D01*
X36271964Y-38932647D02*
X36265109Y-38914561D01*
X37111626Y-38126441D02*
X37101141Y-38131117D01*
X37152784Y-28962080D02*
X37117529Y-28978449D01*
X36408373Y-39151741D02*
X36396179Y-39138248D01*
X37553464Y-39202373D02*
X37539503Y-39214178D01*
X35772671Y-33406456D02*
X35787738Y-33437048D01*
X36800622Y-32016465D02*
X36820766Y-32012153D01*
X37041111Y-33285844D02*
X37009021Y-33284999D01*
X36841660Y-37751015D02*
X36849881Y-37743285D01*
X38360625Y-32536136D02*
X38354272Y-32501010D01*
X36369723Y-35197423D02*
X36370638Y-35185572D01*
X36966091Y-31994676D02*
X36987477Y-31993995D01*
X38283633Y-39007662D02*
X38291855Y-38973879D01*
X36488872Y-38194550D02*
X36498878Y-38211955D01*
X37051058Y-29017621D02*
X37020026Y-29040241D01*
X36870523Y-29783775D02*
X36880304Y-29800273D01*
X37386741Y-30081752D02*
X37427942Y-30080359D01*
X36803120Y-38463278D02*
X36822515Y-38470001D01*
X38056523Y-39485780D02*
X38075361Y-39459904D01*
X36833319Y-39379084D02*
X36813503Y-39375265D01*
X37432615Y-39287143D02*
X37416059Y-39296182D01*
X37683893Y-39050321D02*
X37673840Y-39065805D01*
X38377584Y-32904061D02*
X38379706Y-32867200D01*
X37417455Y-37493734D02*
X37390153Y-37469576D01*
X37779058Y-32444594D02*
X37787376Y-32462584D01*
X37121832Y-34073772D02*
X37111626Y-34078928D01*
X37272685Y-39355558D02*
X37253642Y-39361147D01*
X36256552Y-33165462D02*
X36247445Y-33147949D01*
X36894362Y-39387865D02*
X36873748Y-39385385D01*
X37175833Y-38476071D02*
X37214924Y-38463278D01*
X37105945Y-37340292D02*
X37086925Y-37337518D01*
X36833816Y-34670666D02*
X36810199Y-34661534D01*
X36828457Y-35289672D02*
X36824217Y-35300271D01*
X37211449Y-33989554D02*
X37205291Y-33999025D01*
X36923740Y-38493569D02*
X36944741Y-38496183D01*
X36913484Y-33292555D02*
X36882670Y-33298315D01*
X36397991Y-35320674D02*
X36392763Y-35310610D01*
X37787597Y-38781548D02*
X37783724Y-38801242D01*
X37217149Y-33979780D02*
X37211449Y-33989554D01*
X36840096Y-35173893D02*
X36841602Y-35185572D01*
X36849881Y-38088815D02*
X36841660Y-38081086D01*
X35853440Y-32018442D02*
X35836085Y-32046702D01*
X36793934Y-33324709D02*
X36765738Y-33336400D01*
X37466130Y-33461237D02*
X37444658Y-33473469D01*
X36871519Y-39983231D02*
X36905438Y-39985960D01*
X37331152Y-37426397D02*
X37299614Y-37407535D01*
X37648525Y-32254521D02*
X37661560Y-32268573D01*
X36927649Y-38135297D02*
X36916900Y-38131117D01*
X36430920Y-35366359D02*
X36423479Y-35357889D01*
X36781319Y-35366359D02*
X36773481Y-35374466D01*
X36289480Y-32366502D02*
X36300287Y-32350264D01*
X36835370Y-35267752D02*
X36832179Y-35278827D01*
X36628541Y-34315424D02*
X36645959Y-34329318D01*
X36238732Y-33130103D02*
X36230413Y-33111924D01*
X36835370Y-35151109D02*
X36838014Y-35162400D01*
X37480369Y-39257947D02*
X37464772Y-39268025D01*
X37009021Y-37332513D02*
X36969725Y-37333777D01*
X37720863Y-32343665D02*
X37731546Y-32359660D01*
X36351151Y-39080957D02*
X36340835Y-39065805D01*
X37141349Y-34062078D02*
X37131744Y-34068150D01*
X36751217Y-37390596D02*
X36718428Y-37407535D01*
X36513999Y-35424498D02*
X36503514Y-35419822D01*
X36901430Y-29832209D02*
X36912752Y-29847625D01*
X37191662Y-38064508D02*
X37184221Y-38072978D01*
X36984825Y-37683841D02*
X36996843Y-37682940D01*
X37148123Y-34974555D02*
X37137458Y-34952004D01*
X37398919Y-29731326D02*
X37386741Y-29731629D01*
X36775045Y-37951589D02*
X36773539Y-37939910D01*
X36230413Y-33111924D02*
X36222546Y-33093478D01*
X35951393Y-33687414D02*
X35972687Y-33712473D01*
X36782962Y-33799139D02*
X36786684Y-33788295D01*
X37150037Y-29498215D02*
X37150345Y-29486206D01*
X37339048Y-29269543D02*
X37350702Y-29267490D01*
X37410937Y-29266005D02*
X37422780Y-29267490D01*
X36132797Y-33867597D02*
X36156975Y-33887004D01*
X36906416Y-38126441D02*
X36896210Y-38121286D01*
X36936857Y-29119134D02*
X36912752Y-29148804D01*
X37707843Y-33998136D02*
X37735045Y-33982076D01*
X36876693Y-37722509D02*
X36886297Y-37716436D01*
X36741099Y-32032126D02*
X36760789Y-32026452D01*
X36961327Y-37687379D02*
X36972982Y-37685326D01*
X37168644Y-29407374D02*
X37173385Y-29397035D01*
X37589169Y-29619232D02*
X37583011Y-29628703D01*
X36824217Y-35118591D02*
X36828457Y-35129190D01*
X37525211Y-39225637D02*
X37510590Y-39236752D01*
X37604840Y-29407374D02*
X37609079Y-29417973D01*
X37401988Y-33432148D02*
X37379100Y-33413107D01*
X37416059Y-39296182D02*
X37399186Y-39304873D01*
X37304761Y-33362985D02*
X37278239Y-33348757D01*
X36286820Y-34717770D02*
X35687000Y-34466724D01*
X36249970Y-32434478D02*
X36259293Y-32417030D01*
X36923791Y-31997399D02*
X36944862Y-31995810D01*
X37045060Y-37685326D02*
X37056714Y-37687379D01*
X36976704Y-33285853D02*
X36944843Y-33288386D01*
X36533113Y-39257947D02*
X36518039Y-39247522D01*
X37173385Y-29599394D02*
X37168644Y-29589055D01*
X36930918Y-31399421D02*
X36896062Y-31401428D01*
X38309861Y-33251986D02*
X38320427Y-33218881D01*
X37235081Y-37985447D02*
X37231358Y-37996292D01*
X36014464Y-35192321D02*
X36014390Y-35198008D01*
X38354272Y-32501010D02*
X38347075Y-32466251D01*
X36507664Y-33437620D02*
X36487326Y-33423775D01*
X36858470Y-38096152D02*
X36849881Y-38088815D01*
X36342779Y-39819118D02*
X36370764Y-39834526D01*
X37211541Y-29341286D02*
X37219380Y-29333179D01*
X37499355Y-32132039D02*
X37515589Y-32142721D01*
X37958755Y-33810423D02*
X37981273Y-33788330D01*
X37728697Y-38967927D02*
X37720465Y-38985069D01*
X36842516Y-35221439D02*
X36841602Y-35233290D01*
X36334951Y-32303368D02*
X36347259Y-32288341D01*
X37265512Y-30069489D02*
X37285194Y-30073188D01*
X38037084Y-39511100D02*
X38056523Y-39485780D01*
X37600098Y-29397035D02*
X37604840Y-29407374D01*
X35909081Y-31936914D02*
X35889938Y-31963549D01*
X35836085Y-32046702D02*
X35819324Y-32075503D01*
X36896210Y-37710815D02*
X36906416Y-37705659D01*
X36455569Y-35029328D02*
X36464511Y-35022398D01*
X36186002Y-32978524D02*
X36181688Y-32958652D01*
X37222378Y-33767357D02*
X37227119Y-33777696D01*
X36548486Y-39268025D02*
X36533113Y-39257947D01*
X37519165Y-38211955D02*
X37538585Y-38176779D01*
X37151260Y-29522074D02*
X37150345Y-29510223D01*
X37245418Y-33880544D02*
X37244503Y-33892396D01*
X36322178Y-34697139D02*
X36304302Y-34707162D01*
X36498838Y-34164301D02*
X36510627Y-34183194D01*
X38197912Y-32080073D02*
X38181016Y-32051113D01*
X36661035Y-33396461D02*
X36637099Y-33414582D01*
X37489602Y-37575542D02*
X37467260Y-37546797D01*
X36042077Y-35386458D02*
X36053864Y-35419522D01*
X35663708Y-33075639D02*
X35670878Y-33110411D01*
X36961327Y-38144721D02*
X36949877Y-38142114D01*
X37774628Y-38839936D02*
X37769407Y-38858936D01*
X36842824Y-35209431D02*
X36842516Y-35221439D01*
X37056714Y-34097207D02*
X37045060Y-34099261D01*
X36458999Y-32179223D02*
X36474421Y-32167141D01*
X37751067Y-38914561D02*
X37744065Y-38932647D01*
X37176383Y-37751015D02*
X37184221Y-37759122D01*
X37009021Y-34452073D02*
X37056386Y-34450231D01*
X36756670Y-35389533D02*
X36747727Y-35396464D01*
X37443184Y-37519501D02*
X37417455Y-37493734D01*
X38229957Y-33441819D02*
X38244937Y-33411427D01*
X36429004Y-33378830D02*
X36410460Y-33362721D01*
X37244503Y-37892191D02*
X37245418Y-37904042D01*
X37222378Y-37814871D02*
X37227119Y-37825210D01*
X37929861Y-31747125D02*
X37905204Y-31725569D01*
X37346691Y-39328859D02*
X37328572Y-39336157D01*
X36964282Y-35673934D02*
X36979283Y-35662280D01*
X37263569Y-32026452D02*
X37283095Y-32032126D01*
X36832179Y-35140034D02*
X36835370Y-35151109D01*
X37810650Y-29905340D02*
X37836625Y-29877295D01*
X37005101Y-29944160D02*
X37020026Y-29956189D01*
X37835788Y-32951234D02*
X37831323Y-32971137D01*
X37753457Y-29956189D02*
X37782896Y-29931669D01*
X38126600Y-31967557D02*
X38107216Y-31940818D01*
X37357655Y-38387584D02*
X37389398Y-38363051D01*
X37135050Y-39385385D02*
X37114562Y-39387865D01*
X37079396Y-33645618D02*
X37090393Y-33649289D01*
X36100482Y-35512802D02*
X36119547Y-35541697D01*
X36948894Y-35685116D02*
X36964282Y-35673934D01*
X37355237Y-33395204D02*
X37330442Y-33378482D01*
X37009021Y-33635121D02*
X37021198Y-33635425D01*
X37374564Y-29731326D02*
X37362546Y-29730424D01*
X37170875Y-30041689D02*
X37189261Y-30048451D01*
X37072965Y-39391479D02*
X37051857Y-39392610D01*
X36416982Y-34656270D02*
X36397343Y-34663165D01*
X36824591Y-34423160D02*
X36846537Y-34429790D01*
X37159572Y-37735948D02*
X37168161Y-37743285D01*
X36477714Y-34639643D02*
X36457181Y-34644495D01*
X36397991Y-35098188D02*
X36403692Y-35088413D01*
X37070623Y-34847760D02*
X37054731Y-34828788D01*
X37359407Y-32059360D02*
X37377876Y-32067202D01*
X36206602Y-33924132D02*
X36232051Y-33941850D01*
X36215810Y-38176779D02*
X36479458Y-38176779D01*
X36718930Y-35004195D02*
X36728843Y-35009817D01*
X36382521Y-33336067D02*
X36369130Y-33322234D01*
X35678885Y-32424976D02*
X35670878Y-32459216D01*
X37150629Y-33681503D02*
X37159572Y-33688434D01*
X37623580Y-39849282D02*
X37651865Y-39834525D01*
X37222378Y-33969715D02*
X37217149Y-33979780D01*
X36247255Y-38858936D02*
X36242203Y-38839936D01*
X37226867Y-28936234D02*
X37189261Y-28947978D01*
X37021840Y-35624588D02*
X37035170Y-35611151D01*
X36416451Y-35069791D02*
X36423479Y-35060972D01*
X38264848Y-39074067D02*
X38274631Y-39041058D01*
X36613438Y-38350015D02*
X36628646Y-38363051D01*
X36242203Y-38839936D02*
X36237598Y-38820705D01*
X35776593Y-39138927D02*
X35788984Y-39170779D01*
X36846537Y-34429790D02*
X36868835Y-34435594D01*
X36803016Y-34415723D02*
X36824591Y-34423160D01*
X36447156Y-39190225D02*
X36433880Y-39177733D01*
X37689893Y-29999436D02*
X37722425Y-29978808D01*
X36916900Y-38131117D02*
X36906416Y-38126441D01*
X36370764Y-39834526D02*
X36399255Y-39849282D01*
X37788038Y-33948152D02*
X37813831Y-33930286D01*
X37655953Y-28978449D02*
X37638485Y-28969987D01*
X37720465Y-38985069D02*
X37711868Y-39001880D01*
X37009021Y-39393517D02*
X37001467Y-39393517D01*
X37009021Y-38149465D02*
X36996843Y-38149161D01*
X36822515Y-38470001D02*
X36842211Y-38476071D01*
X36312155Y-39018358D02*
X36303354Y-39001880D01*
X36984986Y-34451601D02*
X37009021Y-34452073D01*
X36241016Y-32452228D02*
X36249970Y-32434478D01*
X36203053Y-32544768D02*
X36209603Y-32525765D01*
X37327597Y-29724279D02*
X37316366Y-29721132D01*
X37176383Y-33703500D02*
X37184221Y-33711608D01*
X36645114Y-32067260D02*
X36663863Y-32059375D01*
X37299614Y-37407535D02*
X37266824Y-37390596D01*
X36806594Y-33989554D02*
X36800893Y-33979780D01*
X36216026Y-38637128D02*
X36215810Y-38615550D01*
X38320427Y-32364166D02*
X38309861Y-32330866D01*
X37102730Y-34444798D02*
X37147911Y-34435911D01*
X37045060Y-34099261D02*
X37033216Y-34100746D01*
X37422780Y-29267490D02*
X37434435Y-29269543D01*
X37383046Y-31447380D02*
X37350448Y-31438784D01*
X37814777Y-33029566D02*
X37808211Y-33048615D01*
X36740701Y-34388748D02*
X36761053Y-34398499D01*
X37164404Y-29578456D02*
X37160682Y-29567611D01*
X36867413Y-38103083D02*
X36858470Y-38096152D01*
X37215470Y-37368967D02*
X37197814Y-37362805D01*
X37100389Y-30008974D02*
X37117529Y-30017980D01*
X37594870Y-29609458D02*
X37589169Y-29619232D01*
X36266053Y-33182643D02*
X36256552Y-33165462D01*
X36506152Y-32144115D02*
X36522463Y-32133173D01*
X36330896Y-39050321D02*
X36321336Y-39034506D01*
X36535744Y-35432349D02*
X36524747Y-35428678D01*
X36528451Y-33450892D02*
X36507664Y-33437620D01*
X36600587Y-37493734D02*
X36574858Y-37519501D01*
X38198223Y-33501019D02*
X38214386Y-33471684D01*
X37033216Y-33636327D02*
X37045060Y-33637812D01*
X36972982Y-38146774D02*
X36961327Y-38144721D01*
X37444581Y-39923571D02*
X37475309Y-39913043D01*
X36726015Y-31423515D02*
X36692860Y-31430342D01*
X36361845Y-39095777D02*
X36351151Y-39080957D01*
X37161754Y-37352110D02*
X37143370Y-37347598D01*
X36474610Y-39214178D02*
X36460733Y-39202373D01*
X37121832Y-33663300D02*
X37131744Y-33668922D01*
X36520618Y-38245617D02*
X36532324Y-38261848D01*
X37731546Y-32359660D02*
X37741836Y-32375983D01*
X38311831Y-38870194D02*
X38316925Y-38834852D01*
X37793504Y-33086070D02*
X37785362Y-33104475D01*
X37318508Y-39957885D02*
X37350498Y-39950477D01*
X35707911Y-33245855D02*
X35719250Y-33278803D01*
X37635100Y-32240787D02*
X37648525Y-32254521D01*
X37605917Y-39151741D02*
X37593332Y-39164903D01*
X37054731Y-34828788D02*
X37038056Y-34810499D01*
X36738306Y-33349464D02*
X36711682Y-33363858D01*
X38286209Y-32265355D02*
X38273125Y-32233142D01*
X36265109Y-38914561D02*
X36258707Y-38896248D01*
X37051360Y-39989080D02*
X37085838Y-39987910D01*
X36407762Y-31527536D02*
X36377962Y-31541978D01*
X36937667Y-34447872D02*
X36961196Y-34450194D01*
X36157765Y-31680840D02*
X36132510Y-31701087D01*
X36196153Y-33017657D02*
X36190824Y-32998192D01*
X36383782Y-35129190D02*
X36388022Y-35118591D01*
X36933131Y-35695814D02*
X36948894Y-35685116D01*
X37099958Y-34887655D02*
X37085707Y-34867391D01*
X37604840Y-29589055D02*
X37600098Y-29599394D01*
X38273125Y-32233142D02*
X38259314Y-32201429D01*
X37475309Y-39913043D02*
X37505721Y-39901735D01*
X37173385Y-29397035D02*
X37178613Y-29386971D01*
X36687491Y-35428678D02*
X36676494Y-35432349D01*
X37219380Y-29333179D02*
X37227601Y-29325449D01*
X37222847Y-33324281D02*
X37194067Y-33314121D01*
X35788984Y-39170779D02*
X35801942Y-39202166D01*
X37232864Y-37375660D02*
X37215470Y-37368967D01*
X36987477Y-31993995D02*
X37009022Y-31993768D01*
X37547179Y-33406199D02*
X37527631Y-33420858D01*
X36369130Y-33322234D02*
X36356123Y-33308065D01*
X37131744Y-33668922D02*
X37141349Y-33674994D01*
X37168161Y-34041301D02*
X37159572Y-34048639D01*
X37782896Y-29931669D02*
X37810650Y-29905340D01*
X36457756Y-39876844D02*
X36487767Y-39889647D01*
X36936857Y-29877295D02*
X36949617Y-29891527D01*
X36083509Y-31743485D02*
X36059763Y-31765633D01*
X38339034Y-33151548D02*
X38347075Y-33117319D01*
X36544570Y-38277662D02*
X36557344Y-38293046D01*
X37183252Y-31408064D02*
X37148970Y-31404375D01*
X36800893Y-38027293D02*
X36795665Y-38017229D01*
X37747328Y-31609482D02*
X37719371Y-31592336D01*
X37339048Y-29726886D02*
X37327597Y-29724279D01*
X35670878Y-32459216D02*
X35663708Y-32493840D01*
X36606119Y-35442846D02*
X36593942Y-35442542D01*
X37554103Y-29333179D02*
X37561942Y-29341286D01*
X36775045Y-33904075D02*
X36773539Y-33892396D01*
X37285194Y-30073188D02*
X37305100Y-30076240D01*
X37143370Y-37347598D02*
X37124764Y-37343655D01*
X37690946Y-31575817D02*
X37662056Y-31559924D01*
X36784039Y-38455917D02*
X36803120Y-38463278D01*
X36571369Y-33475704D02*
X36549686Y-33463587D01*
X37124764Y-37343655D02*
X37105945Y-37340292D01*
X37238271Y-33926858D02*
X37235081Y-33937933D01*
X37374564Y-29265103D02*
X37386741Y-29264799D01*
X37848918Y-29133772D02*
X37836625Y-29119134D01*
X36498878Y-38211955D02*
X36509465Y-38228982D01*
X37977747Y-31792136D02*
X37954043Y-31769314D01*
X36222546Y-33093478D02*
X36215186Y-33074829D01*
X36459028Y-34084254D02*
X36467843Y-34104901D01*
X36025034Y-39560074D02*
X36046347Y-39583725D01*
X37738134Y-29028688D02*
X37722425Y-29017621D01*
X36779771Y-33810214D02*
X36782962Y-33799139D01*
X37836625Y-29877295D02*
X37860731Y-29847625D01*
X37316366Y-29275297D02*
X37327597Y-29272150D01*
X37266824Y-37390596D02*
X37249986Y-37382873D01*
X37227601Y-29670980D02*
X37219380Y-29663250D01*
X35687000Y-37230953D02*
X38356224Y-36113542D01*
X36400281Y-32231260D02*
X36414490Y-32217746D01*
X37823865Y-29104902D02*
X37810650Y-29091089D01*
X36876693Y-38109592D02*
X36867413Y-38103083D01*
X37546615Y-30060195D02*
X37584222Y-30048451D01*
X38088798Y-33665824D02*
X38108519Y-33639697D01*
X37150629Y-34055569D02*
X37141349Y-34062078D01*
X36593942Y-34976320D02*
X36606119Y-34976016D01*
X36972982Y-33637812D02*
X36984825Y-33636327D01*
X36397343Y-34663165D02*
X36378030Y-34670713D01*
X36536280Y-34219512D02*
X36550109Y-34236901D01*
X37893179Y-29196156D02*
X37882873Y-29180008D01*
X37702907Y-39018358D02*
X37693582Y-39034506D01*
X37214924Y-38463278D02*
X37252758Y-38447929D01*
X37079561Y-31399455D02*
X37044432Y-31398225D01*
X36224290Y-32488521D02*
X36232428Y-32470282D01*
X36771572Y-39970363D02*
X36804587Y-39975432D01*
X35651882Y-32564229D02*
X35647230Y-32599990D01*
X37618142Y-39138248D02*
X37605917Y-39151741D01*
X38108519Y-33639697D02*
X38127646Y-33613032D01*
X37273930Y-29292979D02*
X37284136Y-29287823D01*
X35638335Y-32709522D02*
X35637062Y-32746776D01*
X38298455Y-32297929D02*
X38286209Y-32265355D01*
X37016576Y-31993768D02*
X37038029Y-31993995D01*
X37131744Y-38115664D02*
X37121832Y-38121286D01*
X37609079Y-29417973D02*
X37612801Y-29428818D01*
X37114407Y-31401505D02*
X37079561Y-31399455D01*
X36738447Y-35402972D02*
X36728843Y-35409045D01*
X36868835Y-34435594D02*
X36891469Y-34440554D01*
X38356224Y-36113542D02*
X38356224Y-35584137D01*
X36987396Y-38499205D02*
X37009022Y-38499587D01*
X37638485Y-28969987D02*
X37620699Y-28962080D01*
X37620718Y-29533753D02*
X37618636Y-29545245D01*
X36701345Y-34367056D02*
X36720792Y-34378261D01*
X36392763Y-35108252D02*
X36397991Y-35098188D01*
X37396068Y-32075400D02*
X37413981Y-32083952D01*
X36858470Y-33688434D02*
X36867413Y-33681503D01*
X37101456Y-31997399D02*
X37122285Y-31999442D01*
X35844446Y-39293035D02*
X35859820Y-39322226D01*
X36252756Y-38877707D02*
X36247255Y-38858936D01*
X36275946Y-33199491D02*
X36266053Y-33182643D01*
X37840059Y-32635722D02*
X37843381Y-32656210D01*
X36812752Y-33999025D02*
X36806594Y-33989554D01*
X37330442Y-33378482D02*
X37304761Y-33362985D01*
X36171791Y-32897814D02*
X36169507Y-32877128D01*
X37021198Y-33635425D02*
X37033216Y-33636327D01*
X36409850Y-35339919D02*
X36403692Y-35330448D01*
X37227119Y-33777696D02*
X37231358Y-33788295D01*
X37478862Y-29283148D02*
X37489346Y-29287823D01*
X36698240Y-34994364D02*
X36708724Y-34999039D01*
X36579726Y-39923571D02*
X36610963Y-39933320D01*
X37001467Y-39393517D02*
X36979506Y-39393290D01*
X36500002Y-31488167D02*
X36468882Y-31500616D01*
X37787376Y-32462584D02*
X37795247Y-32480820D01*
X37168161Y-33695771D02*
X37176383Y-33703500D01*
X36772625Y-37928059D02*
X36772317Y-37916051D01*
X36014390Y-35198008D02*
X36014358Y-35209432D01*
X36259293Y-32417030D02*
X36268985Y-32399885D01*
X37101141Y-38131117D02*
X37090393Y-38135297D01*
X37489346Y-29708606D02*
X37478862Y-29713281D01*
X36109040Y-33847627D02*
X36132797Y-33867597D01*
X37808211Y-33048615D02*
X37801120Y-33067450D01*
X37609079Y-29578456D02*
X37604840Y-29589055D01*
X37398919Y-29265103D02*
X37410937Y-29266005D01*
X37180935Y-35069610D02*
X37174260Y-35045169D01*
X35735092Y-39007663D02*
X35744260Y-39041059D01*
X37160682Y-29567611D02*
X37157491Y-29556536D01*
X36773481Y-35374466D02*
X36765259Y-35382196D01*
X36969725Y-37333777D02*
X36931117Y-37337518D01*
X35712402Y-38905146D02*
X35719164Y-38939708D01*
X36644300Y-38375578D02*
X36660389Y-38387584D01*
X36606119Y-34976016D02*
X36618297Y-34976320D01*
X37594870Y-29386971D02*
X37600098Y-29397035D01*
X38379706Y-32717290D02*
X38377584Y-32680320D01*
X38000898Y-31815512D02*
X37977747Y-31792136D01*
X37131744Y-37716436D02*
X37141349Y-37722509D01*
X37048051Y-35597297D02*
X37652404Y-35841389D01*
X36546976Y-34983367D02*
X36558426Y-34980760D01*
X37068165Y-37689986D02*
X37079396Y-37693133D01*
X36849881Y-34041301D02*
X36841660Y-34033572D01*
X35819324Y-32075503D02*
X35803157Y-32104849D01*
X36820228Y-37362805D02*
X36785177Y-37375660D01*
X37767809Y-33140557D02*
X37758474Y-33158142D01*
X36380060Y-35140034D02*
X36383782Y-35129190D01*
X36182129Y-32623305D02*
X36186570Y-32603293D01*
X37621284Y-32227371D02*
X37635100Y-32240787D01*
X37882873Y-29180008D02*
X37872053Y-29164220D01*
X37736564Y-38950452D02*
X37728697Y-38967927D01*
X37519069Y-29691756D02*
X37509465Y-29697829D01*
X36886297Y-34068150D02*
X36876693Y-34062078D01*
X36423479Y-35357889D02*
X36416451Y-35349071D01*
X37802004Y-38637128D02*
X37801314Y-38658467D01*
X36479458Y-38176779D02*
X36488872Y-38194550D01*
X36906416Y-33658145D02*
X36916900Y-33653469D01*
X36376869Y-35267752D02*
X36374226Y-35256461D01*
X37537292Y-29678317D02*
X37528350Y-29685247D01*
X37245133Y-29311182D02*
X37254414Y-29304673D01*
X36718383Y-39349529D02*
X36700145Y-39343062D01*
X36685424Y-34631092D02*
X36659309Y-34628221D01*
X36793183Y-31412271D02*
X36759456Y-31417491D01*
X36423479Y-35060972D02*
X36430920Y-35052502D01*
X35687727Y-32391120D02*
X35678885Y-32424976D01*
X37839727Y-32931119D02*
X37835788Y-32951234D01*
X36630315Y-35441640D02*
X36618297Y-35442542D01*
X37211449Y-33747518D02*
X37217149Y-33757293D01*
X37056714Y-38144721D02*
X37045060Y-38146774D01*
X36788760Y-35357889D02*
X36781319Y-35366359D01*
X37769407Y-38858936D02*
X37763740Y-38877707D01*
X36137078Y-39672491D02*
X36161027Y-39693088D01*
X36814248Y-35320674D02*
X36808547Y-35330448D01*
X36372143Y-35244969D02*
X36370638Y-35233290D01*
X36962833Y-29905340D02*
X36976493Y-29918725D01*
X37227119Y-33959377D02*
X37222378Y-33969715D01*
X36507912Y-37605658D02*
X35687000Y-37605658D01*
X37198690Y-33728896D02*
X37205291Y-33738048D01*
X36211611Y-35644456D02*
X36238238Y-35666599D01*
X36949877Y-37689986D02*
X36961327Y-37687379D01*
X37191662Y-37767592D02*
X37198690Y-37776410D01*
X37880071Y-31704645D02*
X37854466Y-31684352D01*
X36498517Y-34635499D02*
X36477714Y-34639643D01*
X36849113Y-35741665D02*
X36866569Y-35733550D01*
X38330649Y-38652257D02*
X38331041Y-38614556D01*
X37030542Y-39393290D02*
X37009021Y-39393517D01*
X37090393Y-37696803D02*
X37101141Y-37700984D01*
X37434435Y-29726886D02*
X37422780Y-29728939D01*
X38146180Y-33585831D02*
X38164120Y-33558093D01*
X37227119Y-37825210D02*
X37231358Y-37835809D01*
X37538585Y-38176779D02*
X37802234Y-38176779D01*
X37191662Y-33720078D02*
X37198690Y-33728896D01*
X36468882Y-31500616D02*
X36438068Y-31513748D01*
X37379100Y-33413107D02*
X37355237Y-33395204D01*
X37488289Y-28923241D02*
X37468382Y-28920189D01*
X36455569Y-35389533D02*
X36446980Y-35382196D01*
X37079396Y-34091454D02*
X37068165Y-34094600D01*
X38370797Y-32976652D02*
X38374614Y-32940545D01*
X37447406Y-31467022D02*
X37415366Y-31456793D01*
X37187419Y-39979722D02*
X37220659Y-39975432D01*
X35697403Y-32357652D02*
X35687727Y-32391120D01*
X36238238Y-35666599D02*
X36266172Y-35687187D01*
X36032280Y-35352522D02*
X36042077Y-35386458D01*
X36321336Y-39034506D02*
X36312155Y-39018358D01*
X36637099Y-33414582D02*
X36614147Y-33433859D01*
X36653813Y-35438102D02*
X36642158Y-35440155D01*
X36949877Y-34094600D02*
X36938646Y-34091454D01*
X37244503Y-33892396D02*
X37242998Y-33904075D01*
X37580386Y-39177733D02*
X37567092Y-39190225D01*
X37305369Y-29717462D02*
X37294621Y-29713281D01*
X37770344Y-32426941D02*
X37779058Y-32444594D01*
X36090688Y-39629356D02*
X36113632Y-39651247D01*
X36584417Y-38322470D02*
X36598691Y-38336484D01*
X36890610Y-29180008D02*
X36870523Y-29212654D01*
X37152784Y-30034349D02*
X37170875Y-30041689D01*
X37131744Y-34068150D02*
X37121832Y-34073772D01*
X36464511Y-35396464D02*
X36455569Y-35389533D01*
X36513999Y-34994364D02*
X36524747Y-34990184D01*
X36017138Y-33760944D02*
X36040294Y-33784357D01*
X36531417Y-31476522D02*
X36500002Y-31488167D01*
X38259326Y-33380508D02*
X38273125Y-33349063D01*
X37219380Y-29663250D02*
X37211541Y-29655143D01*
X37682667Y-33272664D02*
X37670338Y-33287790D01*
X38331042Y-37605658D02*
X37510130Y-37605658D01*
X37902959Y-29212654D02*
X37893179Y-29196156D01*
X37850289Y-32719178D02*
X37851570Y-32740668D01*
X36642158Y-35440155D02*
X36630315Y-35441640D01*
X37541858Y-31502603D02*
X37510652Y-31489927D01*
X37151260Y-29474355D02*
X37152765Y-29462676D01*
X38230820Y-39170779D02*
X38242942Y-39138926D01*
X35647230Y-32599990D02*
X35643421Y-32636128D01*
X37612801Y-29567611D02*
X37609079Y-29578456D01*
X37217253Y-31412572D02*
X37183252Y-31408064D01*
X36841660Y-34033572D02*
X36833821Y-34025465D01*
X37864010Y-33892746D02*
X37888398Y-33873071D01*
X36226450Y-38761621D02*
X36223618Y-38741460D01*
X36827193Y-31407854D02*
X36793183Y-31412271D01*
X37038029Y-31993995D02*
X37059327Y-31994676D01*
X36972982Y-37685326D02*
X36984825Y-37683841D01*
X36473792Y-35015889D02*
X36483396Y-35009817D01*
X36535744Y-34986513D02*
X36546976Y-34983367D01*
X36443871Y-32191685D02*
X36458999Y-32179223D01*
X35772602Y-32165173D02*
X35758212Y-32196153D01*
X37389398Y-38363051D02*
X37419353Y-38336484D01*
X36558426Y-35438102D02*
X36546976Y-35435495D01*
X36886297Y-38115664D02*
X36876693Y-38109592D01*
X36209603Y-32525765D02*
X36216681Y-32507016D01*
X38145361Y-31994853D02*
X38126600Y-31967557D01*
X36490138Y-32155438D02*
X36506152Y-32144115D01*
X37631095Y-33331303D02*
X37617261Y-33345182D01*
X37872053Y-29164220D02*
X37860731Y-29148804D01*
X37445885Y-29272150D02*
X37457116Y-29275297D01*
X36938646Y-38138968D02*
X36927649Y-38135297D01*
X36237598Y-38820705D02*
X36233438Y-38801242D01*
X36738447Y-35015889D02*
X36747727Y-35022398D01*
X37852596Y-32784398D02*
X37852334Y-32805990D01*
X38331041Y-38614556D02*
X38331042Y-37605658D01*
X37033216Y-37683841D02*
X37045060Y-37685326D01*
X36215810Y-38615550D02*
X36215810Y-38176779D01*
X37757626Y-38896248D02*
X37751067Y-38914561D01*
X36802389Y-35339919D02*
X36795788Y-35349071D01*
X36804587Y-39975432D02*
X36837902Y-39979722D01*
X37283095Y-32032126D02*
X37302452Y-32038255D01*
X37577711Y-32189000D02*
X37592536Y-32201458D01*
X36779771Y-37974372D02*
X36777127Y-37963081D01*
X38181467Y-33529822D02*
X38198223Y-33501019D01*
X37028750Y-37332831D02*
X37009021Y-37332513D01*
X36927649Y-34087783D02*
X36916900Y-34083603D01*
X37851546Y-32827372D02*
X37850233Y-32848543D01*
X35687000Y-38614557D02*
X35687396Y-38652258D01*
X37902959Y-29783775D02*
X38331042Y-29783775D01*
X36185479Y-39713037D02*
X36210435Y-39732339D01*
X37706979Y-39803061D02*
X37733807Y-39786354D01*
X37117529Y-28978449D02*
X37083590Y-28996993D01*
X37981273Y-33788330D02*
X38003969Y-33764917D01*
X37499552Y-29703450D02*
X37489346Y-29708606D01*
X37674204Y-32282945D02*
X37686457Y-32297639D01*
X37826333Y-32990826D02*
X37820817Y-33010303D01*
X36806594Y-33747518D02*
X36812752Y-33738048D01*
X37302452Y-32038255D02*
X37321641Y-32044837D01*
X37245418Y-33856528D02*
X37245726Y-33868536D01*
X36814248Y-35098188D02*
X36819476Y-35108252D01*
X36396299Y-33349562D02*
X36382521Y-33336067D01*
X37021198Y-38149161D02*
X37009021Y-38149465D01*
X38347075Y-33117319D02*
X38354272Y-33082716D01*
X37811371Y-39732339D02*
X37836250Y-39713037D01*
X36430920Y-35052502D02*
X36438758Y-35044395D01*
X36957816Y-39392610D02*
X36936396Y-39391479D01*
X37535814Y-39889647D02*
X37565554Y-39876844D01*
X37350702Y-29728939D02*
X37339048Y-29726886D01*
X38075361Y-39459904D02*
X38093600Y-39433474D01*
X36806594Y-37795033D02*
X36812752Y-37785562D01*
X37821695Y-32556269D02*
X37827046Y-32575757D01*
X36201990Y-33036918D02*
X36196153Y-33017657D01*
X36674318Y-39950477D02*
X36706439Y-39957885D01*
X36996843Y-34101647D02*
X36984825Y-34100746D01*
X35719164Y-38939708D02*
X35726727Y-38973880D01*
X37515589Y-32142721D02*
X37531542Y-32153758D01*
X37953321Y-39606818D02*
X37975164Y-39583725D01*
X38379706Y-32867200D02*
X38380980Y-32829961D01*
X37009022Y-31993768D02*
X37016576Y-31993768D01*
X36167730Y-32856237D02*
X36166461Y-32835143D01*
X37284411Y-31424042D02*
X37250972Y-31417898D01*
X37059327Y-31994676D02*
X37080470Y-31995810D01*
X36446980Y-35036666D02*
X36455569Y-35029328D01*
X36166461Y-32835143D02*
X36165700Y-32813846D01*
X37159572Y-33688434D02*
X37168161Y-33695771D01*
X36708724Y-34999039D02*
X36718930Y-35004195D01*
X37782896Y-29064760D02*
X37768381Y-29052269D01*
X36216681Y-32507016D02*
X36224290Y-32488521D01*
X36532324Y-38261848D02*
X36544570Y-38277662D01*
X37242998Y-37880512D02*
X37244503Y-37892191D01*
X35731418Y-32259583D02*
X35719250Y-32291881D01*
X36902876Y-31999442D02*
X36923791Y-31997399D01*
X36374226Y-35162400D02*
X36376869Y-35151109D01*
X37602882Y-31530015D02*
X37572601Y-31515997D01*
X36438068Y-31513748D02*
X36407762Y-31527536D01*
X36221226Y-38721065D02*
X36219272Y-38700435D01*
X37815839Y-32537031D02*
X37821695Y-32556269D01*
X37114562Y-39387865D02*
X37093867Y-39389897D01*
X36728815Y-38430127D02*
X36746874Y-38439328D01*
X38356224Y-35584137D02*
X37186549Y-35094462D01*
X38066571Y-31889014D02*
X38045308Y-31863951D01*
X36646969Y-39321212D02*
X36629814Y-39313216D01*
X37035170Y-35611151D02*
X37048051Y-35597296D01*
X37278239Y-33348757D02*
X37250919Y-33335841D01*
X36676898Y-38399054D02*
X36693814Y-38409977D01*
X36383782Y-35289672D02*
X36380060Y-35278827D01*
X37198690Y-34008176D02*
X37191662Y-34016995D01*
X37191786Y-34423711D02*
X37234214Y-34408337D01*
X36833821Y-34025465D02*
X36826380Y-34016995D01*
X36856288Y-37352110D02*
X36820228Y-37362805D01*
X36315301Y-39803061D02*
X36342779Y-39819118D01*
X36208334Y-33055975D02*
X36201990Y-33036918D01*
X37305369Y-29278967D02*
X37316366Y-29275297D01*
X38316925Y-38834852D02*
X38321237Y-38799119D01*
X36166486Y-32748603D02*
X36167787Y-32727101D01*
X36645959Y-34329318D02*
X36663911Y-34342567D01*
X36849881Y-33695771D02*
X36858470Y-33688434D01*
X37785362Y-33104475D02*
X37776772Y-33122668D01*
X37362546Y-29730424D02*
X37350702Y-29728939D01*
X36693814Y-38409977D02*
X36711124Y-38420339D01*
X37035348Y-29967742D02*
X37051058Y-29978808D01*
X38244889Y-32170265D02*
X38229847Y-32139651D01*
X36772625Y-33880544D02*
X36772317Y-33868536D01*
X36777127Y-37869020D02*
X36779771Y-37857729D01*
X37217149Y-33757293D02*
X37222378Y-33767357D01*
X37499552Y-29292979D02*
X37509465Y-29298600D01*
X37056714Y-33639865D02*
X37068165Y-33642472D01*
X37033216Y-34100746D02*
X37021198Y-34101647D01*
X37125859Y-34929986D02*
X37113350Y-34908529D01*
X36300287Y-32350264D02*
X36311466Y-32334330D01*
X36772625Y-37904042D02*
X36773539Y-37892191D01*
X37801120Y-33067450D02*
X37793504Y-33086070D01*
X37860731Y-29148804D02*
X37848918Y-29133772D01*
X37905204Y-31725569D02*
X37880071Y-31704645D01*
X36794979Y-35762672D02*
X36813306Y-35756237D01*
X35697403Y-33212541D02*
X35707911Y-33245855D01*
X36595123Y-31455640D02*
X36563124Y-31465680D01*
X36659992Y-31437971D02*
X36627413Y-31446404D01*
X36718428Y-37407535D02*
X36686890Y-37426397D01*
X37235081Y-33799139D02*
X37238271Y-33810214D01*
X36235895Y-39750993D02*
X36261859Y-39768998D01*
X36018930Y-35282310D02*
X36024542Y-35317783D01*
X35651882Y-33005004D02*
X35657375Y-33040503D01*
X37294621Y-29283148D02*
X37305369Y-29278967D01*
X37155332Y-39382458D02*
X37135050Y-39385385D01*
X36596392Y-39296182D02*
X36580126Y-39287143D01*
X36642158Y-34978706D02*
X36653813Y-34980760D01*
X37217149Y-38027293D02*
X37211449Y-38037068D01*
X36409850Y-35078942D02*
X36416451Y-35069791D01*
X36487766Y-34144942D02*
X36498838Y-34164301D01*
X37134998Y-30026442D02*
X37152784Y-30034349D01*
X38047574Y-33716456D02*
X38068483Y-33691411D01*
X37531542Y-32153758D02*
X37547214Y-32165151D01*
X37052079Y-38498065D02*
X37094304Y-38493569D01*
X37009021Y-31397814D02*
X37001467Y-31397814D01*
X37284136Y-29708606D02*
X37273930Y-29703450D01*
X37419671Y-34288705D02*
X37450432Y-34257200D01*
X37090393Y-33649289D02*
X37101141Y-33653469D01*
X36053864Y-35419522D02*
X36067572Y-35451647D01*
X37836625Y-29119134D02*
X37823865Y-29104902D01*
X35638335Y-32859381D02*
X35640455Y-32896330D01*
X36861486Y-31404239D02*
X36827193Y-31407854D01*
X36183524Y-31661232D02*
X36157765Y-31680840D01*
X36217755Y-38679569D02*
X36216673Y-38658467D01*
X38163499Y-32022706D02*
X38145361Y-31994853D01*
X37264018Y-29697829D02*
X37254414Y-29691756D01*
X37093867Y-39389897D02*
X37072965Y-39391479D01*
X37147911Y-34435911D02*
X37191786Y-34423711D01*
X37245726Y-33868536D02*
X37245418Y-33880544D01*
X37016575Y-39989470D02*
X37051360Y-39989080D01*
X37689893Y-28996993D02*
X37673093Y-28987455D01*
X35875795Y-39350866D02*
X35892369Y-39378955D01*
X36503263Y-39236752D02*
X36488787Y-39225637D01*
X37444658Y-33473469D02*
X37423855Y-33452283D01*
X36819476Y-35108252D02*
X36824217Y-35118591D01*
X36549686Y-33463587D02*
X36528451Y-33450892D01*
X36524747Y-35428678D02*
X36513999Y-35424498D01*
X37190472Y-29628703D02*
X37184314Y-29619232D01*
X37487112Y-33448386D02*
X37466130Y-33461237D01*
X37996405Y-39560074D02*
X38017045Y-39535865D01*
X36457181Y-34644495D02*
X36436932Y-34650042D01*
D11*
X33718500Y-42353962D02*
X31559500Y-42353962D01*
X31559500Y-42353962D02*
X31559500Y-61683362D01*
X31559500Y-61683362D02*
X33718500Y-61683362D01*
X33718500Y-61683362D02*
X33718500Y-42353962D01*
D10*
X38339034Y-32431858D02*
X38330151Y-32397829D01*
X36343504Y-33293560D02*
X36331272Y-33278719D01*
X38291855Y-38973879D02*
X38299295Y-38939706D01*
X36916900Y-37700984D02*
X36927649Y-37696803D01*
X36215809Y-29783775D02*
X36870523Y-29783775D01*
X37198690Y-38055690D02*
X37191662Y-38064508D01*
X37661560Y-32268573D02*
X37674204Y-32282945D01*
X37602607Y-28954740D02*
X37584222Y-28947978D01*
X37141349Y-38109592D02*
X37131744Y-38115664D01*
X37528350Y-29685247D02*
X37519069Y-29691756D01*
X36162554Y-35595777D02*
X36186361Y-35620825D01*
X36209786Y-31642263D02*
X36183524Y-31661232D01*
X37565554Y-28941805D02*
X37546615Y-28936234D01*
X35744260Y-39041059D02*
X35754232Y-39074068D01*
X36949617Y-29891527D02*
X36962833Y-29905340D01*
X36393694Y-34036280D02*
X36422133Y-34050032D01*
X36040294Y-33784357D02*
X36062790Y-33806007D01*
X37120008Y-39985960D02*
X37153868Y-39983231D01*
X37489346Y-29287823D02*
X37499552Y-29292979D01*
X37243877Y-32021232D02*
X37263569Y-32026452D01*
X37615992Y-29556536D02*
X37612801Y-29567611D01*
X36685911Y-33379538D02*
X36661035Y-33396461D01*
X36483396Y-35409045D02*
X36473792Y-35402972D01*
X35744413Y-33343601D02*
X35758230Y-33375308D01*
X36215809Y-31075007D02*
X36215809Y-29783775D01*
X37828387Y-31664690D02*
X37801837Y-31645659D01*
X36323021Y-32318697D02*
X36334951Y-32303368D01*
X36338103Y-34007072D02*
X36365684Y-34021960D01*
X35815505Y-39233004D02*
X35829674Y-39263294D01*
X37111626Y-33658145D02*
X37121832Y-33663300D01*
X37786004Y-39750992D02*
X37811371Y-39732339D01*
X37179905Y-37357183D02*
X37161754Y-37352110D01*
X35970101Y-31860243D02*
X35949162Y-31885262D01*
X37673840Y-39065805D02*
X37663425Y-39080957D01*
X37009021Y-34101951D02*
X36996843Y-34101647D01*
X36169609Y-32705846D02*
X36171954Y-32684838D01*
X37008074Y-35637596D02*
X37021840Y-35624588D01*
X36795788Y-35349071D02*
X36788760Y-35357889D01*
X36808547Y-35088413D02*
X36814248Y-35098188D01*
X36820766Y-32012153D02*
X36841062Y-32008294D01*
X35945670Y-39459905D02*
X35964625Y-39485781D01*
X36369723Y-35221439D02*
X36369415Y-35209431D01*
X36191538Y-32583533D02*
X36197032Y-32564024D01*
X37467260Y-37546797D02*
X37443184Y-37519501D01*
X36780630Y-32021232D02*
X36800622Y-32016465D01*
X36436932Y-34650042D02*
X36416982Y-34656270D01*
X36849881Y-37743285D02*
X36858470Y-37735948D01*
X36996843Y-33635425D02*
X37009021Y-33635121D01*
X37184221Y-38072978D02*
X37176383Y-38081086D01*
X36365684Y-34021960D02*
X36393694Y-34036280D01*
X37252758Y-38447929D02*
X37289229Y-38430127D01*
X37094304Y-38493569D02*
X37135591Y-38486203D01*
X37249986Y-37382873D02*
X37232864Y-37375660D01*
X37507971Y-28926940D02*
X37488289Y-28923241D01*
X37168161Y-37743285D02*
X37176383Y-37751015D01*
X35803428Y-33467082D02*
X35819743Y-33496562D01*
X37328572Y-39336157D02*
X37310150Y-39343062D01*
X37189261Y-28947978D02*
X37152784Y-28962080D01*
X37641507Y-39110266D02*
X37630005Y-39124423D01*
X36663863Y-32059375D02*
X36682924Y-32051873D01*
X37090393Y-34087783D02*
X37079396Y-34091454D01*
X37134562Y-33298175D02*
X37103926Y-33292476D01*
X37083590Y-29999436D02*
X37100389Y-30008974D01*
X36777127Y-37963081D02*
X36775045Y-37951589D01*
X36626675Y-32075529D02*
X36645114Y-32067260D01*
X37478862Y-29713281D02*
X37468113Y-29717462D01*
X37445885Y-29724279D02*
X37434435Y-29726886D01*
X37204101Y-29646673D02*
X37197073Y-29637855D01*
X37779401Y-38820705D02*
X37774628Y-38839936D01*
X36828457Y-35129190D02*
X36832179Y-35140034D01*
X36460733Y-39202373D02*
X36447156Y-39190225D01*
X37166549Y-35021163D02*
X37157829Y-34997616D01*
X36896210Y-34073772D02*
X36886297Y-34068150D01*
X37141349Y-33674994D02*
X37150629Y-33681503D01*
X35657375Y-33040503D02*
X35663708Y-33075639D01*
X36618297Y-35442542D02*
X36606119Y-35442846D01*
X36841660Y-38081086D02*
X36833821Y-38072978D01*
X35637062Y-32746776D02*
X35636638Y-32784398D01*
X36965965Y-38498065D02*
X36987396Y-38499205D01*
X38190458Y-39263293D02*
X38204508Y-39233003D01*
X36786102Y-34653384D02*
X36761551Y-34646239D01*
X37079396Y-37693133D02*
X37090393Y-37696803D01*
X37305100Y-30076240D02*
X37325220Y-30078634D01*
X37820817Y-33010303D02*
X37814777Y-33029566D01*
X36186361Y-35620825D02*
X36211611Y-35644456D01*
X36686890Y-37426397D02*
X36656684Y-37447103D01*
X37519069Y-29304673D02*
X37528350Y-29311182D01*
X38026069Y-33740959D02*
X38047574Y-33716456D01*
X37851570Y-32740668D02*
X37852340Y-32762408D01*
X37184314Y-29377197D02*
X37190472Y-29367726D01*
X35706439Y-38870195D02*
X35712402Y-38905146D01*
X37317569Y-31431004D02*
X37284411Y-31424042D01*
X37103926Y-33292476D02*
X37072761Y-33288351D01*
X38354272Y-33082716D02*
X38360625Y-33047737D01*
X37245133Y-29685247D02*
X37236191Y-29678317D01*
X37234393Y-39366295D02*
X37214938Y-39371001D01*
X37935770Y-33831910D02*
X37958755Y-33810423D01*
X36922985Y-34716511D02*
X36901538Y-34703702D01*
X37154848Y-29451184D02*
X37157491Y-29439893D01*
X36296906Y-33232185D02*
X36286230Y-33216005D01*
X37774817Y-31627256D02*
X37747328Y-31609482D01*
X36906416Y-34078928D02*
X36896210Y-34073772D01*
X37600098Y-29599394D02*
X37594870Y-29609458D01*
X36347259Y-32288341D02*
X36359944Y-32273617D01*
X37594809Y-39863389D02*
X37623580Y-39849282D01*
X37056714Y-37687379D02*
X37068165Y-37689986D01*
X37507611Y-33434923D02*
X37487112Y-33448386D01*
X36819352Y-37776410D02*
X36826380Y-37767592D01*
X37080470Y-31995810D02*
X37101456Y-31997399D01*
X36765259Y-35382196D02*
X36756670Y-35389533D01*
X36861512Y-32004889D02*
X36882117Y-32001939D01*
X37527498Y-34150028D02*
X37547641Y-34110548D01*
X35687000Y-36631027D02*
X35687000Y-37230953D01*
X37250972Y-31417898D02*
X37217253Y-31412572D01*
X36781319Y-35052502D02*
X36788760Y-35060972D01*
X36384359Y-39124423D02*
X36372914Y-39110266D01*
X37618636Y-29451184D02*
X37620718Y-29462676D01*
X37802234Y-38176779D02*
X37802234Y-38615550D01*
X35640455Y-32672639D02*
X35638335Y-32709522D01*
X37160682Y-29428818D02*
X37164404Y-29417973D01*
X36761053Y-34398499D02*
X36781831Y-34407497D01*
X36867413Y-33681503D02*
X36876693Y-33674994D01*
X37761776Y-33965415D02*
X37788038Y-33948152D01*
X36258707Y-38896248D02*
X36252756Y-38877707D01*
X36806594Y-38037068D02*
X36800893Y-38027293D01*
X37111626Y-34078928D02*
X37101141Y-34083603D01*
X37386741Y-28914677D02*
X37345541Y-28916070D01*
X38274631Y-39041058D02*
X38283633Y-39007662D01*
X36528440Y-37575542D02*
X36507912Y-37605658D01*
X38254285Y-39106690D02*
X38264848Y-39074067D01*
X36833821Y-33711608D02*
X36841660Y-33703500D01*
X37045060Y-38146774D02*
X37033216Y-38148259D01*
X38229847Y-32139651D02*
X38214189Y-32109586D01*
X37231358Y-37996292D02*
X37227119Y-38006890D01*
X37798563Y-38700435D02*
X37796502Y-38721065D01*
X37142954Y-32001939D02*
X37163463Y-32004889D01*
X36812752Y-38046539D02*
X36806594Y-38037068D01*
X37680171Y-34013594D02*
X37707843Y-33998136D01*
X37244503Y-33844677D02*
X37245418Y-33856528D01*
X35994603Y-33736983D02*
X36017138Y-33760944D01*
X37593332Y-39164903D02*
X37580386Y-39177733D01*
X37184314Y-29619232D02*
X37178613Y-29609458D01*
X36832179Y-35278827D02*
X36828457Y-35289672D01*
X37048051Y-35597296D02*
X37048051Y-35597297D01*
X36359944Y-32273617D02*
X36373009Y-32259195D01*
X36838014Y-35162400D02*
X36840096Y-35173893D01*
X36608544Y-32084181D02*
X36626675Y-32075529D01*
X37848497Y-32697939D02*
X37850289Y-32719178D01*
X36773539Y-33844677D02*
X36775045Y-33832998D01*
X36808547Y-35330448D02*
X36802389Y-35339919D01*
X36916900Y-33653469D02*
X36927649Y-33649289D01*
X36912752Y-29148804D02*
X36890610Y-29180008D01*
X36790923Y-33959377D02*
X36786684Y-33948778D01*
X37382000Y-39313216D02*
X37364501Y-39321212D01*
X37399186Y-39304873D02*
X37382000Y-39313216D01*
X36156975Y-33887004D02*
X36181577Y-33905850D01*
X37246066Y-30065154D02*
X37265512Y-30069489D01*
X37758474Y-33158142D02*
X37748766Y-33175423D01*
X36782962Y-37846654D02*
X36786684Y-37835809D01*
X36181577Y-33905850D02*
X36206602Y-33924132D01*
X37021198Y-37682940D02*
X37033216Y-37683841D01*
X36772317Y-33868536D02*
X36772625Y-33856528D01*
X37907960Y-39651246D02*
X37930885Y-39629355D01*
X36610963Y-39933320D02*
X36642493Y-39942288D01*
X35972687Y-33712473D02*
X35994603Y-33736983D01*
X36990587Y-29064760D02*
X36962833Y-29091089D01*
X36728843Y-35409045D02*
X36718930Y-35414666D01*
X36676494Y-35432349D02*
X36665263Y-35435495D01*
X37709786Y-32327998D02*
X37720863Y-32343665D01*
X36564581Y-34253752D02*
X36579678Y-34270048D01*
X37722425Y-29978808D02*
X37753457Y-29956189D01*
X37768381Y-29052269D02*
X37753457Y-29040241D01*
X36304302Y-34707162D02*
X36286820Y-34717770D01*
X36702167Y-32044837D02*
X36721558Y-32038255D01*
X37510130Y-37605658D02*
X37489602Y-37575542D01*
X37101141Y-34083603D02*
X37090393Y-34087783D01*
X37836250Y-39713037D02*
X37860642Y-39693087D01*
X36665263Y-35435495D02*
X36653813Y-35438102D01*
X37620699Y-30034349D02*
X37655953Y-30017980D01*
X37289229Y-38430127D02*
X37324230Y-38409977D01*
X36747727Y-35396464D02*
X36738447Y-35402972D01*
X37205291Y-33738048D02*
X37211449Y-33747518D01*
X37316366Y-29721132D02*
X37305369Y-29717462D01*
X38242942Y-39138926D02*
X38254285Y-39106690D01*
X36171954Y-32684838D02*
X36174821Y-32664078D01*
X37644553Y-33317110D02*
X37631095Y-33331303D01*
X37176383Y-34033572D02*
X37168161Y-34041301D01*
X36165446Y-32792344D02*
X36165706Y-32770351D01*
X38217962Y-39202165D02*
X38230820Y-39170779D01*
X36944843Y-33288386D02*
X36913484Y-33292555D01*
X36938646Y-34091454D02*
X36927649Y-34087783D01*
X36984825Y-33636327D02*
X36996843Y-33635425D01*
X36760789Y-32026452D02*
X36780630Y-32021232D01*
X36961196Y-34450194D02*
X36984986Y-34451601D01*
X36826380Y-37767592D02*
X36833821Y-37759122D01*
X38273125Y-33349063D02*
X38286209Y-33317077D01*
X37618636Y-29545245D02*
X37615992Y-29556536D01*
X36266172Y-35687187D02*
X36266172Y-36392895D01*
X37510590Y-39236752D02*
X37495642Y-39247522D01*
X37510652Y-31489927D02*
X37479168Y-31478067D01*
X36711682Y-33363858D02*
X36685911Y-33379538D01*
X36233438Y-38801242D02*
X36229723Y-38781548D01*
X36464511Y-35022398D02*
X36473792Y-35015889D01*
X37545882Y-29325449D02*
X37554103Y-29333179D01*
X37760149Y-39768998D02*
X37786004Y-39750992D01*
X37184221Y-34025465D02*
X37176383Y-34033572D01*
X37390153Y-37469576D02*
X37361358Y-37447103D01*
X38244937Y-33411427D02*
X38259326Y-33380508D01*
X36503514Y-35419822D02*
X36493308Y-35414666D01*
X37148970Y-31404375D02*
X37114407Y-31401505D01*
X37240915Y-33821505D02*
X37242998Y-33832998D01*
X38381405Y-32792344D02*
X38380980Y-32754632D01*
X37198690Y-37776410D02*
X37205291Y-37785562D01*
X36873748Y-39385385D02*
X36853400Y-39382458D01*
X36388022Y-35118591D02*
X36392763Y-35108252D01*
X36800893Y-37804807D02*
X36806594Y-37795033D01*
X36581924Y-35441640D02*
X36570080Y-35440155D01*
X38330151Y-33185401D02*
X38339034Y-33151548D01*
X37250919Y-33335841D02*
X37222847Y-33324281D01*
X35819743Y-33496562D02*
X35836682Y-33525486D01*
X37137458Y-34952004D02*
X37125859Y-34929986D01*
X35707911Y-32324571D02*
X35697403Y-32357652D01*
X36564157Y-39277757D02*
X36548486Y-39268025D01*
X37843381Y-32656210D02*
X37846194Y-32676949D01*
X36711187Y-34635069D02*
X36685424Y-34631092D01*
X37652029Y-34028451D02*
X37680171Y-34013594D01*
X36924565Y-29862658D02*
X36936857Y-29877295D01*
X36819352Y-34008176D02*
X36812752Y-33999025D01*
X37693582Y-39034506D02*
X37683893Y-39050321D01*
X36451002Y-34063214D02*
X36459028Y-34084254D01*
X36896062Y-31401428D02*
X36861486Y-31404239D01*
X36915245Y-39389897D02*
X36894362Y-39387865D01*
X36939661Y-39987910D02*
X36974188Y-39989080D01*
X36392763Y-35310610D02*
X36388022Y-35300271D01*
X36765738Y-33336400D02*
X36738306Y-33349464D01*
X36524747Y-34990184D02*
X36535744Y-34986513D01*
X36890610Y-29816421D02*
X36901430Y-29832209D01*
X36856928Y-34680755D02*
X36833816Y-34670666D01*
X36062790Y-33806007D02*
X36085705Y-33827097D01*
X36853400Y-39382458D02*
X36833319Y-39379084D01*
X36590720Y-32093215D02*
X36608544Y-32084181D01*
X37527631Y-33420858D02*
X37507611Y-33434923D01*
X36216673Y-38658467D02*
X36216026Y-38637128D01*
X37594330Y-34056365D02*
X37623415Y-34042708D01*
X38093600Y-39433474D02*
X38111239Y-39406490D01*
X36247445Y-33147949D02*
X36238732Y-33130103D01*
X36523114Y-34201604D02*
X36536280Y-34219512D01*
X38321237Y-38799119D02*
X38324766Y-38762993D01*
X36509465Y-38228982D02*
X36520618Y-38245617D01*
X36663911Y-34342567D02*
X36682379Y-34355152D01*
X37235081Y-33937933D02*
X37231358Y-33948778D01*
X37813831Y-33930286D02*
X37839155Y-33911818D01*
X36223618Y-38741460D02*
X36221226Y-38721065D01*
X36906416Y-37705659D02*
X36916900Y-37700984D01*
X36893278Y-37343655D02*
X36856288Y-37352110D01*
X36612954Y-39304873D02*
X36596392Y-39296182D01*
X35787584Y-32134738D02*
X35772602Y-32165173D01*
X37733807Y-39786354D02*
X37760149Y-39768998D01*
X36422133Y-34050032D02*
X36451002Y-34063214D01*
X37327597Y-29272150D02*
X37339048Y-29269543D01*
X36373009Y-32259195D02*
X36386454Y-32245076D01*
X36793952Y-39371001D02*
X36774666Y-39366295D01*
X36795788Y-35069791D02*
X36802389Y-35078942D01*
X36236553Y-31623935D02*
X36209786Y-31642263D01*
X36772317Y-37916051D02*
X36772625Y-37904042D01*
X37612801Y-29428818D02*
X37615992Y-29439893D01*
X37340660Y-32051873D02*
X37359407Y-32059360D01*
X36698240Y-35424498D02*
X36687491Y-35428678D01*
X36190824Y-32998192D02*
X36186002Y-32978524D01*
X37178613Y-29386971D02*
X37184314Y-29377197D01*
X37174260Y-35045169D02*
X37166549Y-35021163D01*
X36961327Y-34097207D02*
X36949877Y-34094600D01*
X36467843Y-34104901D02*
X36477428Y-34125136D01*
X37466045Y-32111739D02*
X37482840Y-32121711D01*
X36772625Y-33856528D02*
X36773539Y-33844677D01*
X37135591Y-38486203D02*
X37175833Y-38476071D01*
X36015512Y-35246170D02*
X36018930Y-35282310D01*
X37854466Y-31684352D02*
X37828387Y-31664690D01*
X38377584Y-32680320D02*
X38374614Y-32643721D01*
X37152765Y-29462676D02*
X37154848Y-29451184D01*
X37564774Y-34069422D02*
X37594330Y-34056365D01*
X37509465Y-29697829D02*
X37499552Y-29703450D01*
X37810650Y-29091089D02*
X37796989Y-29077704D01*
X37748766Y-33175423D02*
X37738685Y-33192398D01*
X37547641Y-34110548D02*
X37564774Y-34069422D01*
X38160564Y-39322225D02*
X38175810Y-39293034D01*
X37802614Y-32499307D02*
X37809479Y-32518044D01*
X37539503Y-39214178D02*
X37525211Y-39225637D01*
X36775045Y-33832998D02*
X36777127Y-33821505D01*
X37763740Y-38877707D02*
X37757626Y-38896248D01*
X35930719Y-33661805D02*
X35951393Y-33687414D01*
X37843141Y-32910792D02*
X37839727Y-32931119D01*
X36826380Y-33720078D02*
X36833821Y-33711608D01*
X37473473Y-38277662D02*
X37497426Y-38245617D01*
X36167787Y-32727101D02*
X36169609Y-32705846D01*
X36659309Y-34628221D02*
X36632865Y-34626480D01*
X37546615Y-28936234D02*
X37527417Y-28931275D01*
X37630005Y-39124423D02*
X37618142Y-39138248D01*
X37457116Y-29721132D02*
X37445885Y-29724279D01*
X37117529Y-30017980D02*
X37134998Y-30026442D01*
X37663425Y-39080957D02*
X37652647Y-39095777D01*
X35801942Y-39202166D02*
X35815505Y-39233004D01*
X37242998Y-33832998D02*
X37244503Y-33844677D01*
X37468113Y-29717462D02*
X37457116Y-29721132D01*
X36232051Y-33941850D02*
X36257925Y-33959004D01*
X37507971Y-30069489D02*
X37546615Y-30060195D01*
X36795665Y-38017229D02*
X36790923Y-38006890D01*
X36177881Y-32938577D02*
X36174582Y-32918297D01*
X36503514Y-34999039D02*
X36513999Y-34994364D01*
X37122285Y-31999442D02*
X37142954Y-32001939D01*
X37882873Y-29816421D02*
X37902959Y-29783775D01*
X36579678Y-34270048D02*
X36595383Y-34285771D01*
X38299295Y-38939706D02*
X38305954Y-38905145D01*
X36331272Y-33278719D02*
X36319427Y-33263542D01*
X36819352Y-38055690D02*
X36812752Y-38046539D01*
X37021198Y-34101647D02*
X37009021Y-34101951D01*
X35663708Y-32493840D02*
X35657375Y-32528845D01*
X36759456Y-31417491D02*
X36726015Y-31423515D01*
X36765286Y-38447929D02*
X36784039Y-38455917D01*
X36210435Y-39732339D02*
X36235895Y-39750993D01*
X37214938Y-39371001D02*
X37195276Y-39375265D01*
X37569382Y-29349756D02*
X37576410Y-29358574D01*
X37238271Y-37857729D02*
X37240915Y-37869020D01*
X36721558Y-32038255D02*
X36741099Y-32032126D01*
X37386741Y-29264799D02*
X37398919Y-29265103D01*
X35690564Y-38726476D02*
X35693339Y-38762995D01*
X36810199Y-34661534D02*
X36786102Y-34653384D01*
X36477428Y-34125136D02*
X36487766Y-34144942D01*
X36812752Y-37785562D02*
X36819352Y-37776410D01*
X36979283Y-35662280D02*
X36993884Y-35650163D01*
X38374614Y-32643721D02*
X38370797Y-32607490D01*
X36931117Y-37337518D02*
X36893278Y-37343655D01*
X36896210Y-38121286D02*
X36886297Y-38115664D01*
X36800893Y-33757293D02*
X36806594Y-33747518D01*
X35836682Y-33525486D02*
X35854244Y-33553855D01*
X37457116Y-29275297D02*
X37468113Y-29278967D01*
X36841602Y-35233290D02*
X36840096Y-35244969D01*
X37197073Y-29637855D02*
X37190472Y-29628703D01*
X36119547Y-35541697D02*
X36140260Y-35569377D01*
X36879511Y-34691775D02*
X36856928Y-34680755D01*
X35891237Y-33608934D02*
X35910667Y-33635645D01*
X37419353Y-38336484D02*
X37447413Y-38307986D01*
X37244503Y-37939910D02*
X37242998Y-37951589D01*
X37245726Y-37916051D02*
X37245418Y-37928059D01*
X36067572Y-35451647D02*
X36083135Y-35482763D01*
X35640455Y-32896330D02*
X35643421Y-32932917D01*
X36882670Y-33298315D02*
X36852444Y-33305623D01*
X38087206Y-31914636D02*
X38066571Y-31889014D01*
X36219272Y-38700435D02*
X36217755Y-38679569D01*
X36632865Y-34626480D02*
X36606119Y-34625894D01*
X37242998Y-37951589D02*
X37240915Y-37963081D01*
X36014610Y-35186586D02*
X36014464Y-35192321D01*
X36420940Y-39164903D02*
X36408373Y-39151741D01*
X37190472Y-29367726D02*
X37197073Y-29358574D01*
X38320427Y-33218881D02*
X38330151Y-33185401D01*
X36692860Y-31430342D02*
X36659992Y-31437971D01*
X36539074Y-32122611D02*
X36555987Y-32112431D01*
X38374614Y-32940545D02*
X38377584Y-32904061D01*
X36782962Y-33937933D02*
X36779771Y-33926858D01*
X37157829Y-34997616D02*
X37148123Y-34974555D01*
X38380980Y-32754632D02*
X38379706Y-32717290D01*
X37184221Y-37759122D02*
X37191662Y-37767592D01*
X36833821Y-37759122D02*
X36841660Y-37751015D01*
X37189261Y-30048451D02*
X37207929Y-30054624D01*
X35643421Y-32932917D02*
X35647230Y-32969142D01*
X38164120Y-33558093D02*
X38181467Y-33529822D01*
X36311466Y-32334330D02*
X36323021Y-32318697D01*
X37048317Y-37333777D02*
X37028750Y-37332831D01*
X36487326Y-33423775D02*
X36467437Y-33409360D01*
X37175407Y-39379084D02*
X37155332Y-39382458D01*
X37860642Y-39693087D02*
X37884545Y-39672490D01*
X36902972Y-38490238D02*
X36923740Y-38493569D01*
X38330151Y-32397829D02*
X38320427Y-32364166D01*
X36473792Y-35402972D02*
X36464511Y-35396464D01*
X38329472Y-38689563D02*
X38330649Y-38652257D01*
X36557344Y-38293046D02*
X36570630Y-38307986D01*
X36779771Y-33926858D02*
X36777127Y-33915567D01*
X37801314Y-38658467D02*
X37800167Y-38679569D01*
X38128280Y-39378954D02*
X38144721Y-39350865D01*
X35687727Y-33178863D02*
X35697403Y-33212541D01*
X36555987Y-32112431D02*
X36573201Y-32102632D01*
X36773539Y-37892191D02*
X36775045Y-37880512D01*
X36896210Y-33663300D02*
X36906416Y-33658145D01*
X37655953Y-30017980D02*
X37689893Y-29999436D01*
X35696909Y-38799120D02*
X35701275Y-38834853D01*
X36984825Y-34100746D02*
X36972982Y-34099261D01*
X36866569Y-35733550D02*
X36883712Y-35724896D01*
X35744413Y-32227679D02*
X35731418Y-32259583D01*
X36438758Y-35044395D02*
X36446980Y-35036666D01*
X36788760Y-35060972D02*
X36795788Y-35069791D01*
X37836229Y-32615483D02*
X37840059Y-32635722D01*
X36790923Y-33777696D02*
X36795665Y-33767357D01*
X36510627Y-34183194D02*
X36523114Y-34201604D01*
X37753457Y-29040241D02*
X37738134Y-29028688D01*
X36487767Y-39889647D02*
X36518129Y-39901735D01*
X37236191Y-29678317D02*
X37227601Y-29670980D01*
X36682379Y-34355152D02*
X36701345Y-34367056D01*
X37622224Y-29474355D02*
X37623138Y-29486206D01*
D12*
X33335843Y-29569708D02*
X34335843Y-29569708D01*
X34335843Y-29569708D02*
X34335843Y-29950660D01*
X34335843Y-29950660D02*
X34288224Y-30045898D01*
X34288224Y-30045898D02*
X34240604Y-30093517D01*
X34240604Y-30093517D02*
X34145366Y-30141136D01*
X34145366Y-30141136D02*
X34002509Y-30141136D01*
X34002509Y-30141136D02*
X33907271Y-30093517D01*
X33907271Y-30093517D02*
X33859652Y-30045898D01*
X33859652Y-30045898D02*
X33812033Y-29950660D01*
X33812033Y-29950660D02*
X33812033Y-29569708D01*
X33335843Y-30569708D02*
X34002509Y-30569708D01*
X33812033Y-30569708D02*
X33907271Y-30617327D01*
X33907271Y-30617327D02*
X33954890Y-30664946D01*
X33954890Y-30664946D02*
X34002509Y-30760184D01*
X34002509Y-30760184D02*
X34002509Y-30855422D01*
X33335843Y-31331613D02*
X33383462Y-31236375D01*
X33383462Y-31236375D02*
X33431081Y-31188756D01*
X33431081Y-31188756D02*
X33526319Y-31141137D01*
X33526319Y-31141137D02*
X33812033Y-31141137D01*
X33812033Y-31141137D02*
X33907271Y-31188756D01*
X33907271Y-31188756D02*
X33954890Y-31236375D01*
X33954890Y-31236375D02*
X34002509Y-31331613D01*
X34002509Y-31331613D02*
X34002509Y-31474470D01*
X34002509Y-31474470D02*
X33954890Y-31569708D01*
X33954890Y-31569708D02*
X33907271Y-31617327D01*
X33907271Y-31617327D02*
X33812033Y-31664946D01*
X33812033Y-31664946D02*
X33526319Y-31664946D01*
X33526319Y-31664946D02*
X33431081Y-31617327D01*
X33431081Y-31617327D02*
X33383462Y-31569708D01*
X33383462Y-31569708D02*
X33335843Y-31474470D01*
X33335843Y-31474470D02*
X33335843Y-31331613D01*
X34002509Y-32522089D02*
X33335843Y-32522089D01*
X34002509Y-32093518D02*
X33478700Y-32093518D01*
X33478700Y-32093518D02*
X33383462Y-32141137D01*
X33383462Y-32141137D02*
X33335843Y-32236375D01*
X33335843Y-32236375D02*
X33335843Y-32379232D01*
X33335843Y-32379232D02*
X33383462Y-32474470D01*
X33383462Y-32474470D02*
X33431081Y-32522089D01*
X33335843Y-33426851D02*
X34335843Y-33426851D01*
X33383462Y-33426851D02*
X33335843Y-33331613D01*
X33335843Y-33331613D02*
X33335843Y-33141137D01*
X33335843Y-33141137D02*
X33383462Y-33045899D01*
X33383462Y-33045899D02*
X33431081Y-32998280D01*
X33431081Y-32998280D02*
X33526319Y-32950661D01*
X33526319Y-32950661D02*
X33812033Y-32950661D01*
X33812033Y-32950661D02*
X33907271Y-32998280D01*
X33907271Y-32998280D02*
X33954890Y-33045899D01*
X33954890Y-33045899D02*
X34002509Y-33141137D01*
X34002509Y-33141137D02*
X34002509Y-33331613D01*
X34002509Y-33331613D02*
X33954890Y-33426851D01*
X33335843Y-34045899D02*
X33383462Y-33950661D01*
X33383462Y-33950661D02*
X33478700Y-33903042D01*
X33478700Y-33903042D02*
X34335843Y-33903042D01*
X34002509Y-34331614D02*
X33335843Y-34569709D01*
X34002509Y-34807804D02*
X33335843Y-34569709D01*
X33335843Y-34569709D02*
X33097747Y-34474471D01*
X33097747Y-34474471D02*
X33050128Y-34426852D01*
X33050128Y-34426852D02*
X33002509Y-34331614D01*
X33335843Y-35788757D02*
X34002509Y-35788757D01*
X33907271Y-35788757D02*
X33954890Y-35836376D01*
X33954890Y-35836376D02*
X34002509Y-35931614D01*
X34002509Y-35931614D02*
X34002509Y-36074471D01*
X34002509Y-36074471D02*
X33954890Y-36169709D01*
X33954890Y-36169709D02*
X33859652Y-36217328D01*
X33859652Y-36217328D02*
X33335843Y-36217328D01*
X33859652Y-36217328D02*
X33954890Y-36264947D01*
X33954890Y-36264947D02*
X34002509Y-36360185D01*
X34002509Y-36360185D02*
X34002509Y-36503042D01*
X34002509Y-36503042D02*
X33954890Y-36598281D01*
X33954890Y-36598281D02*
X33859652Y-36645900D01*
X33859652Y-36645900D02*
X33335843Y-36645900D01*
X33335843Y-37550661D02*
X33859652Y-37550661D01*
X33859652Y-37550661D02*
X33954890Y-37503042D01*
X33954890Y-37503042D02*
X34002509Y-37407804D01*
X34002509Y-37407804D02*
X34002509Y-37217328D01*
X34002509Y-37217328D02*
X33954890Y-37122090D01*
X33383462Y-37550661D02*
X33335843Y-37455423D01*
X33335843Y-37455423D02*
X33335843Y-37217328D01*
X33335843Y-37217328D02*
X33383462Y-37122090D01*
X33383462Y-37122090D02*
X33478700Y-37074471D01*
X33478700Y-37074471D02*
X33573938Y-37074471D01*
X33573938Y-37074471D02*
X33669176Y-37122090D01*
X33669176Y-37122090D02*
X33716795Y-37217328D01*
X33716795Y-37217328D02*
X33716795Y-37455423D01*
X33716795Y-37455423D02*
X33764414Y-37550661D01*
X33335843Y-38455423D02*
X34335843Y-38455423D01*
X33383462Y-38455423D02*
X33335843Y-38360185D01*
X33335843Y-38360185D02*
X33335843Y-38169709D01*
X33335843Y-38169709D02*
X33383462Y-38074471D01*
X33383462Y-38074471D02*
X33431081Y-38026852D01*
X33431081Y-38026852D02*
X33526319Y-37979233D01*
X33526319Y-37979233D02*
X33812033Y-37979233D01*
X33812033Y-37979233D02*
X33907271Y-38026852D01*
X33907271Y-38026852D02*
X33954890Y-38074471D01*
X33954890Y-38074471D02*
X34002509Y-38169709D01*
X34002509Y-38169709D02*
X34002509Y-38360185D01*
X34002509Y-38360185D02*
X33954890Y-38455423D01*
X33383462Y-39312566D02*
X33335843Y-39217328D01*
X33335843Y-39217328D02*
X33335843Y-39026852D01*
X33335843Y-39026852D02*
X33383462Y-38931614D01*
X33383462Y-38931614D02*
X33478700Y-38883995D01*
X33478700Y-38883995D02*
X33859652Y-38883995D01*
X33859652Y-38883995D02*
X33954890Y-38931614D01*
X33954890Y-38931614D02*
X34002509Y-39026852D01*
X34002509Y-39026852D02*
X34002509Y-39217328D01*
X34002509Y-39217328D02*
X33954890Y-39312566D01*
X33954890Y-39312566D02*
X33859652Y-39360185D01*
X33859652Y-39360185D02*
X33764414Y-39360185D01*
X33764414Y-39360185D02*
X33669176Y-38883995D01*
X31715843Y-31664946D02*
X31763462Y-31569708D01*
X31763462Y-31569708D02*
X31811081Y-31522089D01*
X31811081Y-31522089D02*
X31906319Y-31474470D01*
X31906319Y-31474470D02*
X32192033Y-31474470D01*
X32192033Y-31474470D02*
X32287271Y-31522089D01*
X32287271Y-31522089D02*
X32334890Y-31569708D01*
X32334890Y-31569708D02*
X32382509Y-31664946D01*
X32382509Y-31664946D02*
X32382509Y-31807803D01*
X32382509Y-31807803D02*
X32334890Y-31903041D01*
X32334890Y-31903041D02*
X32287271Y-31950660D01*
X32287271Y-31950660D02*
X32192033Y-31998279D01*
X32192033Y-31998279D02*
X31906319Y-31998279D01*
X31906319Y-31998279D02*
X31811081Y-31950660D01*
X31811081Y-31950660D02*
X31763462Y-31903041D01*
X31763462Y-31903041D02*
X31715843Y-31807803D01*
X31715843Y-31807803D02*
X31715843Y-31664946D01*
X32382509Y-32426851D02*
X31715843Y-32426851D01*
X32287271Y-32426851D02*
X32334890Y-32474470D01*
X32334890Y-32474470D02*
X32382509Y-32569708D01*
X32382509Y-32569708D02*
X32382509Y-32712565D01*
X32382509Y-32712565D02*
X32334890Y-32807803D01*
X32334890Y-32807803D02*
X32239652Y-32855422D01*
X32239652Y-32855422D02*
X31715843Y-32855422D01*
X32239652Y-33931613D02*
X32239652Y-34264946D01*
X31715843Y-34407803D02*
X31715843Y-33931613D01*
X31715843Y-33931613D02*
X32715843Y-33931613D01*
X32715843Y-33931613D02*
X32715843Y-34407803D01*
X31715843Y-35264946D02*
X32239652Y-35264946D01*
X32239652Y-35264946D02*
X32334890Y-35217327D01*
X32334890Y-35217327D02*
X32382509Y-35122089D01*
X32382509Y-35122089D02*
X32382509Y-34931613D01*
X32382509Y-34931613D02*
X32334890Y-34836375D01*
X31763462Y-35264946D02*
X31715843Y-35169708D01*
X31715843Y-35169708D02*
X31715843Y-34931613D01*
X31715843Y-34931613D02*
X31763462Y-34836375D01*
X31763462Y-34836375D02*
X31858700Y-34788756D01*
X31858700Y-34788756D02*
X31953938Y-34788756D01*
X31953938Y-34788756D02*
X32049176Y-34836375D01*
X32049176Y-34836375D02*
X32096795Y-34931613D01*
X32096795Y-34931613D02*
X32096795Y-35169708D01*
X32096795Y-35169708D02*
X32144414Y-35264946D01*
X31715843Y-35741137D02*
X32382509Y-35741137D01*
X32192033Y-35741137D02*
X32287271Y-35788756D01*
X32287271Y-35788756D02*
X32334890Y-35836375D01*
X32334890Y-35836375D02*
X32382509Y-35931613D01*
X32382509Y-35931613D02*
X32382509Y-36026851D01*
X32382509Y-36217328D02*
X32382509Y-36598280D01*
X32715843Y-36360185D02*
X31858700Y-36360185D01*
X31858700Y-36360185D02*
X31763462Y-36407804D01*
X31763462Y-36407804D02*
X31715843Y-36503042D01*
X31715843Y-36503042D02*
X31715843Y-36598280D01*
X31715843Y-36931614D02*
X32715843Y-36931614D01*
X31715843Y-37360185D02*
X32239652Y-37360185D01*
X32239652Y-37360185D02*
X32334890Y-37312566D01*
X32334890Y-37312566D02*
X32382509Y-37217328D01*
X32382509Y-37217328D02*
X32382509Y-37074471D01*
X32382509Y-37074471D02*
X32334890Y-36979233D01*
X32334890Y-36979233D02*
X32287271Y-36931614D01*
D13*
X66183857Y-55619076D02*
X66112428Y-55833362D01*
X66112428Y-55833362D02*
X66112428Y-56190504D01*
X66112428Y-56190504D02*
X66183857Y-56333362D01*
X66183857Y-56333362D02*
X66255285Y-56404790D01*
X66255285Y-56404790D02*
X66398142Y-56476219D01*
X66398142Y-56476219D02*
X66541000Y-56476219D01*
X66541000Y-56476219D02*
X66683857Y-56404790D01*
X66683857Y-56404790D02*
X66755285Y-56333362D01*
X66755285Y-56333362D02*
X66826714Y-56190504D01*
X66826714Y-56190504D02*
X66898142Y-55904790D01*
X66898142Y-55904790D02*
X66969571Y-55761933D01*
X66969571Y-55761933D02*
X67041000Y-55690504D01*
X67041000Y-55690504D02*
X67183857Y-55619076D01*
X67183857Y-55619076D02*
X67326714Y-55619076D01*
X67326714Y-55619076D02*
X67469571Y-55690504D01*
X67469571Y-55690504D02*
X67541000Y-55761933D01*
X67541000Y-55761933D02*
X67612428Y-55904790D01*
X67612428Y-55904790D02*
X67612428Y-56261933D01*
X67612428Y-56261933D02*
X67541000Y-56476219D01*
X66112428Y-57119075D02*
X67112428Y-57119075D01*
X67612428Y-57119075D02*
X67541000Y-57047647D01*
X67541000Y-57047647D02*
X67469571Y-57119075D01*
X67469571Y-57119075D02*
X67541000Y-57190504D01*
X67541000Y-57190504D02*
X67612428Y-57119075D01*
X67612428Y-57119075D02*
X67469571Y-57119075D01*
X67112428Y-58476219D02*
X65898142Y-58476219D01*
X65898142Y-58476219D02*
X65755285Y-58404790D01*
X65755285Y-58404790D02*
X65683857Y-58333361D01*
X65683857Y-58333361D02*
X65612428Y-58190504D01*
X65612428Y-58190504D02*
X65612428Y-57976219D01*
X65612428Y-57976219D02*
X65683857Y-57833361D01*
X66183857Y-58476219D02*
X66112428Y-58333361D01*
X66112428Y-58333361D02*
X66112428Y-58047647D01*
X66112428Y-58047647D02*
X66183857Y-57904790D01*
X66183857Y-57904790D02*
X66255285Y-57833361D01*
X66255285Y-57833361D02*
X66398142Y-57761933D01*
X66398142Y-57761933D02*
X66826714Y-57761933D01*
X66826714Y-57761933D02*
X66969571Y-57833361D01*
X66969571Y-57833361D02*
X67041000Y-57904790D01*
X67041000Y-57904790D02*
X67112428Y-58047647D01*
X67112428Y-58047647D02*
X67112428Y-58333361D01*
X67112428Y-58333361D02*
X67041000Y-58476219D01*
X67112428Y-59190504D02*
X66112428Y-59190504D01*
X66969571Y-59190504D02*
X67041000Y-59261933D01*
X67041000Y-59261933D02*
X67112428Y-59404790D01*
X67112428Y-59404790D02*
X67112428Y-59619076D01*
X67112428Y-59619076D02*
X67041000Y-59761933D01*
X67041000Y-59761933D02*
X66898142Y-59833362D01*
X66898142Y-59833362D02*
X66112428Y-59833362D01*
X66112428Y-61190505D02*
X66898142Y-61190505D01*
X66898142Y-61190505D02*
X67041000Y-61119076D01*
X67041000Y-61119076D02*
X67112428Y-60976219D01*
X67112428Y-60976219D02*
X67112428Y-60690505D01*
X67112428Y-60690505D02*
X67041000Y-60547647D01*
X66183857Y-61190505D02*
X66112428Y-61047647D01*
X66112428Y-61047647D02*
X66112428Y-60690505D01*
X66112428Y-60690505D02*
X66183857Y-60547647D01*
X66183857Y-60547647D02*
X66326714Y-60476219D01*
X66326714Y-60476219D02*
X66469571Y-60476219D01*
X66469571Y-60476219D02*
X66612428Y-60547647D01*
X66612428Y-60547647D02*
X66683857Y-60690505D01*
X66683857Y-60690505D02*
X66683857Y-61047647D01*
X66683857Y-61047647D02*
X66755285Y-61190505D01*
X66112428Y-62119076D02*
X66183857Y-61976219D01*
X66183857Y-61976219D02*
X66326714Y-61904790D01*
X66326714Y-61904790D02*
X67612428Y-61904790D01*
X44935000Y-73676647D02*
X45006428Y-73533790D01*
X45006428Y-73533790D02*
X45006428Y-73319504D01*
X45006428Y-73319504D02*
X44935000Y-73105218D01*
X44935000Y-73105218D02*
X44792142Y-72962361D01*
X44792142Y-72962361D02*
X44649285Y-72890932D01*
X44649285Y-72890932D02*
X44363571Y-72819504D01*
X44363571Y-72819504D02*
X44149285Y-72819504D01*
X44149285Y-72819504D02*
X43863571Y-72890932D01*
X43863571Y-72890932D02*
X43720714Y-72962361D01*
X43720714Y-72962361D02*
X43577857Y-73105218D01*
X43577857Y-73105218D02*
X43506428Y-73319504D01*
X43506428Y-73319504D02*
X43506428Y-73462361D01*
X43506428Y-73462361D02*
X43577857Y-73676647D01*
X43577857Y-73676647D02*
X43649285Y-73748075D01*
X43649285Y-73748075D02*
X44149285Y-73748075D01*
X44149285Y-73748075D02*
X44149285Y-73462361D01*
X43506428Y-74390932D02*
X45006428Y-74390932D01*
X45006428Y-74390932D02*
X43506428Y-75248075D01*
X43506428Y-75248075D02*
X45006428Y-75248075D01*
X43506428Y-75962361D02*
X45006428Y-75962361D01*
X45006428Y-75962361D02*
X45006428Y-76319504D01*
X45006428Y-76319504D02*
X44935000Y-76533790D01*
X44935000Y-76533790D02*
X44792142Y-76676647D01*
X44792142Y-76676647D02*
X44649285Y-76748076D01*
X44649285Y-76748076D02*
X44363571Y-76819504D01*
X44363571Y-76819504D02*
X44149285Y-76819504D01*
X44149285Y-76819504D02*
X43863571Y-76748076D01*
X43863571Y-76748076D02*
X43720714Y-76676647D01*
X43720714Y-76676647D02*
X43577857Y-76533790D01*
X43577857Y-76533790D02*
X43506428Y-76319504D01*
X43506428Y-76319504D02*
X43506428Y-75962361D01*
D12*
X32465833Y-43069456D02*
X32465833Y-43545646D01*
X32180119Y-42974218D02*
X33180119Y-43307551D01*
X33180119Y-43307551D02*
X32180119Y-43640884D01*
X32180119Y-44402789D02*
X33180119Y-44402789D01*
X32227738Y-44402789D02*
X32180119Y-44307551D01*
X32180119Y-44307551D02*
X32180119Y-44117075D01*
X32180119Y-44117075D02*
X32227738Y-44021837D01*
X32227738Y-44021837D02*
X32275357Y-43974218D01*
X32275357Y-43974218D02*
X32370595Y-43926599D01*
X32370595Y-43926599D02*
X32656309Y-43926599D01*
X32656309Y-43926599D02*
X32751547Y-43974218D01*
X32751547Y-43974218D02*
X32799166Y-44021837D01*
X32799166Y-44021837D02*
X32846785Y-44117075D01*
X32846785Y-44117075D02*
X32846785Y-44307551D01*
X32846785Y-44307551D02*
X32799166Y-44402789D01*
X32180119Y-45307551D02*
X32703928Y-45307551D01*
X32703928Y-45307551D02*
X32799166Y-45259932D01*
X32799166Y-45259932D02*
X32846785Y-45164694D01*
X32846785Y-45164694D02*
X32846785Y-44974218D01*
X32846785Y-44974218D02*
X32799166Y-44878980D01*
X32227738Y-45307551D02*
X32180119Y-45212313D01*
X32180119Y-45212313D02*
X32180119Y-44974218D01*
X32180119Y-44974218D02*
X32227738Y-44878980D01*
X32227738Y-44878980D02*
X32322976Y-44831361D01*
X32322976Y-44831361D02*
X32418214Y-44831361D01*
X32418214Y-44831361D02*
X32513452Y-44878980D01*
X32513452Y-44878980D02*
X32561071Y-44974218D01*
X32561071Y-44974218D02*
X32561071Y-45212313D01*
X32561071Y-45212313D02*
X32608690Y-45307551D01*
X32846785Y-45783742D02*
X31846785Y-45783742D01*
X32799166Y-45783742D02*
X32846785Y-45878980D01*
X32846785Y-45878980D02*
X32846785Y-46069456D01*
X32846785Y-46069456D02*
X32799166Y-46164694D01*
X32799166Y-46164694D02*
X32751547Y-46212313D01*
X32751547Y-46212313D02*
X32656309Y-46259932D01*
X32656309Y-46259932D02*
X32370595Y-46259932D01*
X32370595Y-46259932D02*
X32275357Y-46212313D01*
X32275357Y-46212313D02*
X32227738Y-46164694D01*
X32227738Y-46164694D02*
X32180119Y-46069456D01*
X32180119Y-46069456D02*
X32180119Y-45878980D01*
X32180119Y-45878980D02*
X32227738Y-45783742D01*
X32846785Y-46545647D02*
X32846785Y-46926599D01*
X33180119Y-46688504D02*
X32322976Y-46688504D01*
X32322976Y-46688504D02*
X32227738Y-46736123D01*
X32227738Y-46736123D02*
X32180119Y-46831361D01*
X32180119Y-46831361D02*
X32180119Y-46926599D01*
X32227738Y-47640885D02*
X32180119Y-47545647D01*
X32180119Y-47545647D02*
X32180119Y-47355171D01*
X32180119Y-47355171D02*
X32227738Y-47259933D01*
X32227738Y-47259933D02*
X32322976Y-47212314D01*
X32322976Y-47212314D02*
X32703928Y-47212314D01*
X32703928Y-47212314D02*
X32799166Y-47259933D01*
X32799166Y-47259933D02*
X32846785Y-47355171D01*
X32846785Y-47355171D02*
X32846785Y-47545647D01*
X32846785Y-47545647D02*
X32799166Y-47640885D01*
X32799166Y-47640885D02*
X32703928Y-47688504D01*
X32703928Y-47688504D02*
X32608690Y-47688504D01*
X32608690Y-47688504D02*
X32513452Y-47212314D01*
X32180119Y-48117076D02*
X32846785Y-48117076D01*
X32656309Y-48117076D02*
X32751547Y-48164695D01*
X32751547Y-48164695D02*
X32799166Y-48212314D01*
X32799166Y-48212314D02*
X32846785Y-48307552D01*
X32846785Y-48307552D02*
X32846785Y-48402790D01*
X32846785Y-49240886D02*
X32180119Y-49478981D01*
X32180119Y-49478981D02*
X32846785Y-49717076D01*
X32180119Y-50621838D02*
X32180119Y-50050410D01*
X32180119Y-50336124D02*
X33180119Y-50336124D01*
X33180119Y-50336124D02*
X33037261Y-50240886D01*
X33037261Y-50240886D02*
X32942023Y-50145648D01*
X32942023Y-50145648D02*
X32894404Y-50050410D01*
X32275357Y-51050410D02*
X32227738Y-51098029D01*
X32227738Y-51098029D02*
X32180119Y-51050410D01*
X32180119Y-51050410D02*
X32227738Y-51002791D01*
X32227738Y-51002791D02*
X32275357Y-51050410D01*
X32275357Y-51050410D02*
X32180119Y-51050410D01*
X33180119Y-51717076D02*
X33180119Y-51812314D01*
X33180119Y-51812314D02*
X33132500Y-51907552D01*
X33132500Y-51907552D02*
X33084880Y-51955171D01*
X33084880Y-51955171D02*
X32989642Y-52002790D01*
X32989642Y-52002790D02*
X32799166Y-52050409D01*
X32799166Y-52050409D02*
X32561071Y-52050409D01*
X32561071Y-52050409D02*
X32370595Y-52002790D01*
X32370595Y-52002790D02*
X32275357Y-51955171D01*
X32275357Y-51955171D02*
X32227738Y-51907552D01*
X32227738Y-51907552D02*
X32180119Y-51812314D01*
X32180119Y-51812314D02*
X32180119Y-51717076D01*
X32180119Y-51717076D02*
X32227738Y-51621838D01*
X32227738Y-51621838D02*
X32275357Y-51574219D01*
X32275357Y-51574219D02*
X32370595Y-51526600D01*
X32370595Y-51526600D02*
X32561071Y-51478981D01*
X32561071Y-51478981D02*
X32799166Y-51478981D01*
X32799166Y-51478981D02*
X32989642Y-51526600D01*
X32989642Y-51526600D02*
X33084880Y-51574219D01*
X33084880Y-51574219D02*
X33132500Y-51621838D01*
X33132500Y-51621838D02*
X33180119Y-51717076D01*
X31799166Y-53364695D02*
X31846785Y-53317076D01*
X31846785Y-53317076D02*
X31989642Y-53221838D01*
X31989642Y-53221838D02*
X32084880Y-53174219D01*
X32084880Y-53174219D02*
X32227738Y-53126600D01*
X32227738Y-53126600D02*
X32465833Y-53078981D01*
X32465833Y-53078981D02*
X32656309Y-53078981D01*
X32656309Y-53078981D02*
X32894404Y-53126600D01*
X32894404Y-53126600D02*
X33037261Y-53174219D01*
X33037261Y-53174219D02*
X33132500Y-53221838D01*
X33132500Y-53221838D02*
X33275357Y-53317076D01*
X33275357Y-53317076D02*
X33322976Y-53364695D01*
X32227738Y-54174219D02*
X32180119Y-54078981D01*
X32180119Y-54078981D02*
X32180119Y-53888505D01*
X32180119Y-53888505D02*
X32227738Y-53793267D01*
X32227738Y-53793267D02*
X32275357Y-53745648D01*
X32275357Y-53745648D02*
X32370595Y-53698029D01*
X32370595Y-53698029D02*
X32656309Y-53698029D01*
X32656309Y-53698029D02*
X32751547Y-53745648D01*
X32751547Y-53745648D02*
X32799166Y-53793267D01*
X32799166Y-53793267D02*
X32846785Y-53888505D01*
X32846785Y-53888505D02*
X32846785Y-54078981D01*
X32846785Y-54078981D02*
X32799166Y-54174219D01*
X31799166Y-54507553D02*
X31846785Y-54555172D01*
X31846785Y-54555172D02*
X31989642Y-54650410D01*
X31989642Y-54650410D02*
X32084880Y-54698029D01*
X32084880Y-54698029D02*
X32227738Y-54745648D01*
X32227738Y-54745648D02*
X32465833Y-54793267D01*
X32465833Y-54793267D02*
X32656309Y-54793267D01*
X32656309Y-54793267D02*
X32894404Y-54745648D01*
X32894404Y-54745648D02*
X33037261Y-54698029D01*
X33037261Y-54698029D02*
X33132500Y-54650410D01*
X33132500Y-54650410D02*
X33275357Y-54555172D01*
X33275357Y-54555172D02*
X33322976Y-54507553D01*
X32846785Y-55869458D02*
X32180119Y-55869458D01*
X32751547Y-55869458D02*
X32799166Y-55917077D01*
X32799166Y-55917077D02*
X32846785Y-56012315D01*
X32846785Y-56012315D02*
X32846785Y-56155172D01*
X32846785Y-56155172D02*
X32799166Y-56250410D01*
X32799166Y-56250410D02*
X32703928Y-56298029D01*
X32703928Y-56298029D02*
X32180119Y-56298029D01*
X32180119Y-56917077D02*
X32227738Y-56821839D01*
X32227738Y-56821839D02*
X32275357Y-56774220D01*
X32275357Y-56774220D02*
X32370595Y-56726601D01*
X32370595Y-56726601D02*
X32656309Y-56726601D01*
X32656309Y-56726601D02*
X32751547Y-56774220D01*
X32751547Y-56774220D02*
X32799166Y-56821839D01*
X32799166Y-56821839D02*
X32846785Y-56917077D01*
X32846785Y-56917077D02*
X32846785Y-57059934D01*
X32846785Y-57059934D02*
X32799166Y-57155172D01*
X32799166Y-57155172D02*
X32751547Y-57202791D01*
X32751547Y-57202791D02*
X32656309Y-57250410D01*
X32656309Y-57250410D02*
X32370595Y-57250410D01*
X32370595Y-57250410D02*
X32275357Y-57202791D01*
X32275357Y-57202791D02*
X32227738Y-57155172D01*
X32227738Y-57155172D02*
X32180119Y-57059934D01*
X32180119Y-57059934D02*
X32180119Y-56917077D01*
X32846785Y-57583744D02*
X32180119Y-57821839D01*
X32180119Y-57821839D02*
X32846785Y-58059934D01*
X32275357Y-58440887D02*
X32227738Y-58488506D01*
X32227738Y-58488506D02*
X32180119Y-58440887D01*
X32180119Y-58440887D02*
X32227738Y-58393268D01*
X32227738Y-58393268D02*
X32275357Y-58440887D01*
X32275357Y-58440887D02*
X32180119Y-58440887D01*
X33084880Y-59469458D02*
X33132500Y-59517077D01*
X33132500Y-59517077D02*
X33180119Y-59612315D01*
X33180119Y-59612315D02*
X33180119Y-59850410D01*
X33180119Y-59850410D02*
X33132500Y-59945648D01*
X33132500Y-59945648D02*
X33084880Y-59993267D01*
X33084880Y-59993267D02*
X32989642Y-60040886D01*
X32989642Y-60040886D02*
X32894404Y-60040886D01*
X32894404Y-60040886D02*
X32751547Y-59993267D01*
X32751547Y-59993267D02*
X32180119Y-59421839D01*
X32180119Y-59421839D02*
X32180119Y-60040886D01*
X33180119Y-60374220D02*
X33180119Y-60993267D01*
X33180119Y-60993267D02*
X32799166Y-60659934D01*
X32799166Y-60659934D02*
X32799166Y-60802791D01*
X32799166Y-60802791D02*
X32751547Y-60898029D01*
X32751547Y-60898029D02*
X32703928Y-60945648D01*
X32703928Y-60945648D02*
X32608690Y-60993267D01*
X32608690Y-60993267D02*
X32370595Y-60993267D01*
X32370595Y-60993267D02*
X32275357Y-60945648D01*
X32275357Y-60945648D02*
X32227738Y-60898029D01*
X32227738Y-60898029D02*
X32180119Y-60802791D01*
X32180119Y-60802791D02*
X32180119Y-60517077D01*
X32180119Y-60517077D02*
X32227738Y-60421839D01*
X32227738Y-60421839D02*
X32275357Y-60374220D01*
D13*
X87765857Y-71819504D02*
X87765857Y-72962362D01*
X87194428Y-72390933D02*
X88337285Y-72390933D01*
X88694428Y-73533790D02*
X88694428Y-74462362D01*
X88694428Y-74462362D02*
X88123000Y-73962362D01*
X88123000Y-73962362D02*
X88123000Y-74176647D01*
X88123000Y-74176647D02*
X88051571Y-74319505D01*
X88051571Y-74319505D02*
X87980142Y-74390933D01*
X87980142Y-74390933D02*
X87837285Y-74462362D01*
X87837285Y-74462362D02*
X87480142Y-74462362D01*
X87480142Y-74462362D02*
X87337285Y-74390933D01*
X87337285Y-74390933D02*
X87265857Y-74319505D01*
X87265857Y-74319505D02*
X87194428Y-74176647D01*
X87194428Y-74176647D02*
X87194428Y-73748076D01*
X87194428Y-73748076D02*
X87265857Y-73605219D01*
X87265857Y-73605219D02*
X87337285Y-73533790D01*
X87337285Y-75105218D02*
X87265857Y-75176647D01*
X87265857Y-75176647D02*
X87194428Y-75105218D01*
X87194428Y-75105218D02*
X87265857Y-75033790D01*
X87265857Y-75033790D02*
X87337285Y-75105218D01*
X87337285Y-75105218D02*
X87194428Y-75105218D01*
X88694428Y-75676647D02*
X88694428Y-76605219D01*
X88694428Y-76605219D02*
X88123000Y-76105219D01*
X88123000Y-76105219D02*
X88123000Y-76319504D01*
X88123000Y-76319504D02*
X88051571Y-76462362D01*
X88051571Y-76462362D02*
X87980142Y-76533790D01*
X87980142Y-76533790D02*
X87837285Y-76605219D01*
X87837285Y-76605219D02*
X87480142Y-76605219D01*
X87480142Y-76605219D02*
X87337285Y-76533790D01*
X87337285Y-76533790D02*
X87265857Y-76462362D01*
X87265857Y-76462362D02*
X87194428Y-76319504D01*
X87194428Y-76319504D02*
X87194428Y-75890933D01*
X87194428Y-75890933D02*
X87265857Y-75748076D01*
X87265857Y-75748076D02*
X87337285Y-75676647D01*
X88694428Y-77033790D02*
X87194428Y-77533790D01*
X87194428Y-77533790D02*
X88694428Y-78033790D01*
D12*
%TO.C,REF\u002A\u002A*%
X48061630Y-50101333D02*
X47585440Y-50434666D01*
X48061630Y-50672761D02*
X47061630Y-50672761D01*
X47061630Y-50672761D02*
X47061630Y-50291809D01*
X47061630Y-50291809D02*
X47109250Y-50196571D01*
X47109250Y-50196571D02*
X47156869Y-50148952D01*
X47156869Y-50148952D02*
X47252107Y-50101333D01*
X47252107Y-50101333D02*
X47394964Y-50101333D01*
X47394964Y-50101333D02*
X47490202Y-50148952D01*
X47490202Y-50148952D02*
X47537821Y-50196571D01*
X47537821Y-50196571D02*
X47585440Y-50291809D01*
X47585440Y-50291809D02*
X47585440Y-50672761D01*
X47537821Y-49672761D02*
X47537821Y-49339428D01*
X48061630Y-49196571D02*
X48061630Y-49672761D01*
X48061630Y-49672761D02*
X47061630Y-49672761D01*
X47061630Y-49672761D02*
X47061630Y-49196571D01*
X47537821Y-48434666D02*
X47537821Y-48767999D01*
X48061630Y-48767999D02*
X47061630Y-48767999D01*
X47061630Y-48767999D02*
X47061630Y-48291809D01*
X47061630Y-47767999D02*
X47299726Y-47767999D01*
X47204488Y-48006094D02*
X47299726Y-47767999D01*
X47299726Y-47767999D02*
X47204488Y-47529904D01*
X47490202Y-47910856D02*
X47299726Y-47767999D01*
X47299726Y-47767999D02*
X47490202Y-47625142D01*
X47061630Y-47006094D02*
X47299726Y-47006094D01*
X47204488Y-47244189D02*
X47299726Y-47006094D01*
X47299726Y-47006094D02*
X47204488Y-46767999D01*
X47490202Y-47148951D02*
X47299726Y-47006094D01*
X47299726Y-47006094D02*
X47490202Y-46863237D01*
X92061630Y-50101333D02*
X91585440Y-50434666D01*
X92061630Y-50672761D02*
X91061630Y-50672761D01*
X91061630Y-50672761D02*
X91061630Y-50291809D01*
X91061630Y-50291809D02*
X91109250Y-50196571D01*
X91109250Y-50196571D02*
X91156869Y-50148952D01*
X91156869Y-50148952D02*
X91252107Y-50101333D01*
X91252107Y-50101333D02*
X91394964Y-50101333D01*
X91394964Y-50101333D02*
X91490202Y-50148952D01*
X91490202Y-50148952D02*
X91537821Y-50196571D01*
X91537821Y-50196571D02*
X91585440Y-50291809D01*
X91585440Y-50291809D02*
X91585440Y-50672761D01*
X91537821Y-49672761D02*
X91537821Y-49339428D01*
X92061630Y-49196571D02*
X92061630Y-49672761D01*
X92061630Y-49672761D02*
X91061630Y-49672761D01*
X91061630Y-49672761D02*
X91061630Y-49196571D01*
X91537821Y-48434666D02*
X91537821Y-48767999D01*
X92061630Y-48767999D02*
X91061630Y-48767999D01*
X91061630Y-48767999D02*
X91061630Y-48291809D01*
X91061630Y-47767999D02*
X91299726Y-47767999D01*
X91204488Y-48006094D02*
X91299726Y-47767999D01*
X91299726Y-47767999D02*
X91204488Y-47529904D01*
X91490202Y-47910856D02*
X91299726Y-47767999D01*
X91299726Y-47767999D02*
X91490202Y-47625142D01*
X91061630Y-47006094D02*
X91299726Y-47006094D01*
X91204488Y-47244189D02*
X91299726Y-47006094D01*
X91299726Y-47006094D02*
X91204488Y-46767999D01*
X91490202Y-47148951D02*
X91299726Y-47006094D01*
X91299726Y-47006094D02*
X91490202Y-46863237D01*
X70306130Y-32575333D02*
X69829940Y-32908666D01*
X70306130Y-33146761D02*
X69306130Y-33146761D01*
X69306130Y-33146761D02*
X69306130Y-32765809D01*
X69306130Y-32765809D02*
X69353750Y-32670571D01*
X69353750Y-32670571D02*
X69401369Y-32622952D01*
X69401369Y-32622952D02*
X69496607Y-32575333D01*
X69496607Y-32575333D02*
X69639464Y-32575333D01*
X69639464Y-32575333D02*
X69734702Y-32622952D01*
X69734702Y-32622952D02*
X69782321Y-32670571D01*
X69782321Y-32670571D02*
X69829940Y-32765809D01*
X69829940Y-32765809D02*
X69829940Y-33146761D01*
X69782321Y-32146761D02*
X69782321Y-31813428D01*
X70306130Y-31670571D02*
X70306130Y-32146761D01*
X70306130Y-32146761D02*
X69306130Y-32146761D01*
X69306130Y-32146761D02*
X69306130Y-31670571D01*
X69782321Y-30908666D02*
X69782321Y-31241999D01*
X70306130Y-31241999D02*
X69306130Y-31241999D01*
X69306130Y-31241999D02*
X69306130Y-30765809D01*
X69306130Y-30241999D02*
X69544226Y-30241999D01*
X69448988Y-30480094D02*
X69544226Y-30241999D01*
X69544226Y-30241999D02*
X69448988Y-30003904D01*
X69734702Y-30384856D02*
X69544226Y-30241999D01*
X69544226Y-30241999D02*
X69734702Y-30099142D01*
X69306130Y-29480094D02*
X69544226Y-29480094D01*
X69448988Y-29718189D02*
X69544226Y-29480094D01*
X69544226Y-29480094D02*
X69448988Y-29241999D01*
X69734702Y-29622951D02*
X69544226Y-29480094D01*
X69544226Y-29480094D02*
X69734702Y-29337237D01*
D14*
%TO.C,J1*%
X61678750Y-68149750D02*
X63098750Y-68149750D01*
X61678750Y-79869750D02*
X61678750Y-68149750D01*
X63098750Y-68149750D02*
X63098750Y-72649750D01*
X63938750Y-70059750D02*
X64538750Y-70059750D01*
X63988750Y-73759750D02*
X63988750Y-79259750D01*
X63988750Y-79259750D02*
X64488750Y-79259750D01*
X64238750Y-70659750D02*
X63938750Y-70059750D01*
X64488750Y-73759750D02*
X63988750Y-73759750D01*
X64488750Y-79259750D02*
X64488750Y-73759750D01*
X64538750Y-70059750D02*
X64238750Y-70659750D01*
X66488750Y-73759750D02*
X66488750Y-79259750D01*
X66488750Y-79259750D02*
X66988750Y-79259750D01*
X66738750Y-79869750D02*
X61678750Y-79869750D01*
X66738750Y-79869750D02*
X71798750Y-79869750D01*
X66988750Y-73759750D02*
X66488750Y-73759750D01*
X66988750Y-79259750D02*
X66988750Y-73759750D01*
X68988750Y-73759750D02*
X68988750Y-79259750D01*
X68988750Y-79259750D02*
X69488750Y-79259750D01*
X69488750Y-73759750D02*
X68988750Y-73759750D01*
X69488750Y-79259750D02*
X69488750Y-73759750D01*
X70378750Y-68149750D02*
X70378750Y-72649750D01*
X71798750Y-68149750D02*
X70378750Y-68149750D01*
X71798750Y-79869750D02*
X71798750Y-68149750D01*
%TD*%
M02*
