%TF.GenerationSoftware,KiCad,Pcbnew,(7.0.0-0)*%
%TF.CreationDate,2023-11-03T17:36:42+01:00*%
%TF.ProjectId,ExternalAdapter,45787465-726e-4616-9c41-646170746572,1.0*%
%TF.SameCoordinates,Original*%
%TF.FileFunction,Drillmap*%
%TF.FilePolarity,Positive*%
%FSLAX45Y45*%
G04 Gerber Fmt 4.5, Leading zero omitted, Abs format (unit mm)*
G04 Created by KiCad (PCBNEW (7.0.0-0)) date 2023-11-03 17:36:42*
%MOMM*%
%LPD*%
G01*
G04 APERTURE LIST*
%ADD10C,0.200000*%
%ADD11C,0.320000*%
%ADD12C,1.200000*%
G04 APERTURE END LIST*
D10*
X10452100Y-1816100D02*
X3060700Y-1816100D01*
X3060700Y-1816100D02*
X3060700Y-8026400D01*
X3060700Y-8026400D02*
X10452100Y-8026400D01*
X10452100Y-8026400D02*
X10452100Y-1816100D01*
D11*
X3346075Y-2100600D02*
X3666075Y-2420600D01*
X3666075Y-2100600D02*
X3346075Y-2420600D01*
X3346075Y-7371100D02*
X3666075Y-7691100D01*
X3666075Y-7371100D02*
X3346075Y-7691100D01*
X9838825Y-2100600D02*
X10158825Y-2420600D01*
X10158825Y-2100600D02*
X9838825Y-2420600D01*
X9838825Y-7371100D02*
X10158825Y-7691100D01*
X10158825Y-7371100D02*
X9838825Y-7691100D01*
D12*
X5049425Y-4876800D02*
G75*
G03*
X5049425Y-4876800I-600000J0D01*
G01*
X7273875Y-3124200D02*
G75*
G03*
X7273875Y-3124200I-600000J0D01*
G01*
X9449425Y-4876800D02*
G75*
G03*
X9449425Y-4876800I-600000J0D01*
G01*
D10*
X3298319Y-8329876D02*
X3298319Y-8129876D01*
X3298319Y-8129876D02*
X3345938Y-8129876D01*
X3345938Y-8129876D02*
X3374509Y-8139400D01*
X3374509Y-8139400D02*
X3393557Y-8158448D01*
X3393557Y-8158448D02*
X3403081Y-8177495D01*
X3403081Y-8177495D02*
X3412605Y-8215590D01*
X3412605Y-8215590D02*
X3412605Y-8244162D01*
X3412605Y-8244162D02*
X3403081Y-8282257D01*
X3403081Y-8282257D02*
X3393557Y-8301305D01*
X3393557Y-8301305D02*
X3374509Y-8320352D01*
X3374509Y-8320352D02*
X3345938Y-8329876D01*
X3345938Y-8329876D02*
X3298319Y-8329876D01*
X3498319Y-8329876D02*
X3498319Y-8196543D01*
X3498319Y-8234638D02*
X3507843Y-8215590D01*
X3507843Y-8215590D02*
X3517367Y-8206067D01*
X3517367Y-8206067D02*
X3536414Y-8196543D01*
X3536414Y-8196543D02*
X3555462Y-8196543D01*
X3622128Y-8329876D02*
X3622128Y-8196543D01*
X3622128Y-8129876D02*
X3612605Y-8139400D01*
X3612605Y-8139400D02*
X3622128Y-8148924D01*
X3622128Y-8148924D02*
X3631652Y-8139400D01*
X3631652Y-8139400D02*
X3622128Y-8129876D01*
X3622128Y-8129876D02*
X3622128Y-8148924D01*
X3745938Y-8329876D02*
X3726890Y-8320352D01*
X3726890Y-8320352D02*
X3717367Y-8301305D01*
X3717367Y-8301305D02*
X3717367Y-8129876D01*
X3850700Y-8329876D02*
X3831652Y-8320352D01*
X3831652Y-8320352D02*
X3822128Y-8301305D01*
X3822128Y-8301305D02*
X3822128Y-8129876D01*
X4046890Y-8329876D02*
X4046890Y-8129876D01*
X4046890Y-8129876D02*
X4113557Y-8272733D01*
X4113557Y-8272733D02*
X4180224Y-8129876D01*
X4180224Y-8129876D02*
X4180224Y-8329876D01*
X4361176Y-8329876D02*
X4361176Y-8225114D01*
X4361176Y-8225114D02*
X4351652Y-8206067D01*
X4351652Y-8206067D02*
X4332605Y-8196543D01*
X4332605Y-8196543D02*
X4294509Y-8196543D01*
X4294509Y-8196543D02*
X4275462Y-8206067D01*
X4361176Y-8320352D02*
X4342129Y-8329876D01*
X4342129Y-8329876D02*
X4294509Y-8329876D01*
X4294509Y-8329876D02*
X4275462Y-8320352D01*
X4275462Y-8320352D02*
X4265938Y-8301305D01*
X4265938Y-8301305D02*
X4265938Y-8282257D01*
X4265938Y-8282257D02*
X4275462Y-8263209D01*
X4275462Y-8263209D02*
X4294509Y-8253686D01*
X4294509Y-8253686D02*
X4342129Y-8253686D01*
X4342129Y-8253686D02*
X4361176Y-8244162D01*
X4456414Y-8196543D02*
X4456414Y-8396543D01*
X4456414Y-8206067D02*
X4475462Y-8196543D01*
X4475462Y-8196543D02*
X4513557Y-8196543D01*
X4513557Y-8196543D02*
X4532605Y-8206067D01*
X4532605Y-8206067D02*
X4542129Y-8215590D01*
X4542129Y-8215590D02*
X4551652Y-8234638D01*
X4551652Y-8234638D02*
X4551652Y-8291781D01*
X4551652Y-8291781D02*
X4542129Y-8310828D01*
X4542129Y-8310828D02*
X4532605Y-8320352D01*
X4532605Y-8320352D02*
X4513557Y-8329876D01*
X4513557Y-8329876D02*
X4475462Y-8329876D01*
X4475462Y-8329876D02*
X4456414Y-8320352D01*
X4637367Y-8310828D02*
X4646890Y-8320352D01*
X4646890Y-8320352D02*
X4637367Y-8329876D01*
X4637367Y-8329876D02*
X4627843Y-8320352D01*
X4627843Y-8320352D02*
X4637367Y-8310828D01*
X4637367Y-8310828D02*
X4637367Y-8329876D01*
X4637367Y-8206067D02*
X4646890Y-8215590D01*
X4646890Y-8215590D02*
X4637367Y-8225114D01*
X4637367Y-8225114D02*
X4627843Y-8215590D01*
X4627843Y-8215590D02*
X4637367Y-8206067D01*
X4637367Y-8206067D02*
X4637367Y-8225114D01*
X2850700Y-8576400D02*
X3050700Y-8776400D01*
X3050700Y-8576400D02*
X2850700Y-8776400D01*
X3279271Y-8549876D02*
X3403081Y-8549876D01*
X3403081Y-8549876D02*
X3336414Y-8626067D01*
X3336414Y-8626067D02*
X3364986Y-8626067D01*
X3364986Y-8626067D02*
X3384033Y-8635590D01*
X3384033Y-8635590D02*
X3393557Y-8645114D01*
X3393557Y-8645114D02*
X3403081Y-8664162D01*
X3403081Y-8664162D02*
X3403081Y-8711781D01*
X3403081Y-8711781D02*
X3393557Y-8730829D01*
X3393557Y-8730829D02*
X3384033Y-8740352D01*
X3384033Y-8740352D02*
X3364986Y-8749876D01*
X3364986Y-8749876D02*
X3307843Y-8749876D01*
X3307843Y-8749876D02*
X3288795Y-8740352D01*
X3288795Y-8740352D02*
X3279271Y-8730829D01*
X3488795Y-8730829D02*
X3498319Y-8740352D01*
X3498319Y-8740352D02*
X3488795Y-8749876D01*
X3488795Y-8749876D02*
X3479271Y-8740352D01*
X3479271Y-8740352D02*
X3488795Y-8730829D01*
X3488795Y-8730829D02*
X3488795Y-8749876D01*
X3574509Y-8568924D02*
X3584033Y-8559400D01*
X3584033Y-8559400D02*
X3603081Y-8549876D01*
X3603081Y-8549876D02*
X3650700Y-8549876D01*
X3650700Y-8549876D02*
X3669748Y-8559400D01*
X3669748Y-8559400D02*
X3679271Y-8568924D01*
X3679271Y-8568924D02*
X3688795Y-8587971D01*
X3688795Y-8587971D02*
X3688795Y-8607019D01*
X3688795Y-8607019D02*
X3679271Y-8635590D01*
X3679271Y-8635590D02*
X3564986Y-8749876D01*
X3564986Y-8749876D02*
X3688795Y-8749876D01*
X3812605Y-8549876D02*
X3831652Y-8549876D01*
X3831652Y-8549876D02*
X3850700Y-8559400D01*
X3850700Y-8559400D02*
X3860224Y-8568924D01*
X3860224Y-8568924D02*
X3869748Y-8587971D01*
X3869748Y-8587971D02*
X3879271Y-8626067D01*
X3879271Y-8626067D02*
X3879271Y-8673686D01*
X3879271Y-8673686D02*
X3869748Y-8711781D01*
X3869748Y-8711781D02*
X3860224Y-8730829D01*
X3860224Y-8730829D02*
X3850700Y-8740352D01*
X3850700Y-8740352D02*
X3831652Y-8749876D01*
X3831652Y-8749876D02*
X3812605Y-8749876D01*
X3812605Y-8749876D02*
X3793557Y-8740352D01*
X3793557Y-8740352D02*
X3784033Y-8730829D01*
X3784033Y-8730829D02*
X3774509Y-8711781D01*
X3774509Y-8711781D02*
X3764986Y-8673686D01*
X3764986Y-8673686D02*
X3764986Y-8626067D01*
X3764986Y-8626067D02*
X3774509Y-8587971D01*
X3774509Y-8587971D02*
X3784033Y-8568924D01*
X3784033Y-8568924D02*
X3793557Y-8559400D01*
X3793557Y-8559400D02*
X3812605Y-8549876D01*
X4003081Y-8549876D02*
X4022129Y-8549876D01*
X4022129Y-8549876D02*
X4041176Y-8559400D01*
X4041176Y-8559400D02*
X4050700Y-8568924D01*
X4050700Y-8568924D02*
X4060224Y-8587971D01*
X4060224Y-8587971D02*
X4069748Y-8626067D01*
X4069748Y-8626067D02*
X4069748Y-8673686D01*
X4069748Y-8673686D02*
X4060224Y-8711781D01*
X4060224Y-8711781D02*
X4050700Y-8730829D01*
X4050700Y-8730829D02*
X4041176Y-8740352D01*
X4041176Y-8740352D02*
X4022129Y-8749876D01*
X4022129Y-8749876D02*
X4003081Y-8749876D01*
X4003081Y-8749876D02*
X3984033Y-8740352D01*
X3984033Y-8740352D02*
X3974509Y-8730829D01*
X3974509Y-8730829D02*
X3964986Y-8711781D01*
X3964986Y-8711781D02*
X3955462Y-8673686D01*
X3955462Y-8673686D02*
X3955462Y-8626067D01*
X3955462Y-8626067D02*
X3964986Y-8587971D01*
X3964986Y-8587971D02*
X3974509Y-8568924D01*
X3974509Y-8568924D02*
X3984033Y-8559400D01*
X3984033Y-8559400D02*
X4003081Y-8549876D01*
X4155462Y-8749876D02*
X4155462Y-8616543D01*
X4155462Y-8635590D02*
X4164986Y-8626067D01*
X4164986Y-8626067D02*
X4184033Y-8616543D01*
X4184033Y-8616543D02*
X4212605Y-8616543D01*
X4212605Y-8616543D02*
X4231652Y-8626067D01*
X4231652Y-8626067D02*
X4241176Y-8645114D01*
X4241176Y-8645114D02*
X4241176Y-8749876D01*
X4241176Y-8645114D02*
X4250700Y-8626067D01*
X4250700Y-8626067D02*
X4269748Y-8616543D01*
X4269748Y-8616543D02*
X4298319Y-8616543D01*
X4298319Y-8616543D02*
X4317367Y-8626067D01*
X4317367Y-8626067D02*
X4326891Y-8645114D01*
X4326891Y-8645114D02*
X4326891Y-8749876D01*
X4422129Y-8749876D02*
X4422129Y-8616543D01*
X4422129Y-8635590D02*
X4431652Y-8626067D01*
X4431652Y-8626067D02*
X4450700Y-8616543D01*
X4450700Y-8616543D02*
X4479272Y-8616543D01*
X4479272Y-8616543D02*
X4498319Y-8626067D01*
X4498319Y-8626067D02*
X4507843Y-8645114D01*
X4507843Y-8645114D02*
X4507843Y-8749876D01*
X4507843Y-8645114D02*
X4517367Y-8626067D01*
X4517367Y-8626067D02*
X4536414Y-8616543D01*
X4536414Y-8616543D02*
X4564986Y-8616543D01*
X4564986Y-8616543D02*
X4584033Y-8626067D01*
X4584033Y-8626067D02*
X4593557Y-8645114D01*
X4593557Y-8645114D02*
X4593557Y-8749876D01*
X4951652Y-8540352D02*
X4780224Y-8797495D01*
X5176414Y-8549876D02*
X5195462Y-8549876D01*
X5195462Y-8549876D02*
X5214510Y-8559400D01*
X5214510Y-8559400D02*
X5224033Y-8568924D01*
X5224033Y-8568924D02*
X5233557Y-8587971D01*
X5233557Y-8587971D02*
X5243081Y-8626067D01*
X5243081Y-8626067D02*
X5243081Y-8673686D01*
X5243081Y-8673686D02*
X5233557Y-8711781D01*
X5233557Y-8711781D02*
X5224033Y-8730829D01*
X5224033Y-8730829D02*
X5214510Y-8740352D01*
X5214510Y-8740352D02*
X5195462Y-8749876D01*
X5195462Y-8749876D02*
X5176414Y-8749876D01*
X5176414Y-8749876D02*
X5157367Y-8740352D01*
X5157367Y-8740352D02*
X5147843Y-8730829D01*
X5147843Y-8730829D02*
X5138319Y-8711781D01*
X5138319Y-8711781D02*
X5128795Y-8673686D01*
X5128795Y-8673686D02*
X5128795Y-8626067D01*
X5128795Y-8626067D02*
X5138319Y-8587971D01*
X5138319Y-8587971D02*
X5147843Y-8568924D01*
X5147843Y-8568924D02*
X5157367Y-8559400D01*
X5157367Y-8559400D02*
X5176414Y-8549876D01*
X5328795Y-8730829D02*
X5338319Y-8740352D01*
X5338319Y-8740352D02*
X5328795Y-8749876D01*
X5328795Y-8749876D02*
X5319272Y-8740352D01*
X5319272Y-8740352D02*
X5328795Y-8730829D01*
X5328795Y-8730829D02*
X5328795Y-8749876D01*
X5528795Y-8749876D02*
X5414510Y-8749876D01*
X5471652Y-8749876D02*
X5471652Y-8549876D01*
X5471652Y-8549876D02*
X5452605Y-8578448D01*
X5452605Y-8578448D02*
X5433557Y-8597495D01*
X5433557Y-8597495D02*
X5414510Y-8607019D01*
X5604986Y-8568924D02*
X5614510Y-8559400D01*
X5614510Y-8559400D02*
X5633557Y-8549876D01*
X5633557Y-8549876D02*
X5681176Y-8549876D01*
X5681176Y-8549876D02*
X5700224Y-8559400D01*
X5700224Y-8559400D02*
X5709748Y-8568924D01*
X5709748Y-8568924D02*
X5719271Y-8587971D01*
X5719271Y-8587971D02*
X5719271Y-8607019D01*
X5719271Y-8607019D02*
X5709748Y-8635590D01*
X5709748Y-8635590D02*
X5595462Y-8749876D01*
X5595462Y-8749876D02*
X5719271Y-8749876D01*
X5890700Y-8549876D02*
X5852605Y-8549876D01*
X5852605Y-8549876D02*
X5833557Y-8559400D01*
X5833557Y-8559400D02*
X5824033Y-8568924D01*
X5824033Y-8568924D02*
X5804986Y-8597495D01*
X5804986Y-8597495D02*
X5795462Y-8635590D01*
X5795462Y-8635590D02*
X5795462Y-8711781D01*
X5795462Y-8711781D02*
X5804986Y-8730829D01*
X5804986Y-8730829D02*
X5814510Y-8740352D01*
X5814510Y-8740352D02*
X5833557Y-8749876D01*
X5833557Y-8749876D02*
X5871652Y-8749876D01*
X5871652Y-8749876D02*
X5890700Y-8740352D01*
X5890700Y-8740352D02*
X5900224Y-8730829D01*
X5900224Y-8730829D02*
X5909748Y-8711781D01*
X5909748Y-8711781D02*
X5909748Y-8664162D01*
X5909748Y-8664162D02*
X5900224Y-8645114D01*
X5900224Y-8645114D02*
X5890700Y-8635590D01*
X5890700Y-8635590D02*
X5871652Y-8626067D01*
X5871652Y-8626067D02*
X5833557Y-8626067D01*
X5833557Y-8626067D02*
X5814510Y-8635590D01*
X5814510Y-8635590D02*
X5804986Y-8645114D01*
X5804986Y-8645114D02*
X5795462Y-8664162D01*
X6033557Y-8549876D02*
X6052605Y-8549876D01*
X6052605Y-8549876D02*
X6071652Y-8559400D01*
X6071652Y-8559400D02*
X6081176Y-8568924D01*
X6081176Y-8568924D02*
X6090700Y-8587971D01*
X6090700Y-8587971D02*
X6100224Y-8626067D01*
X6100224Y-8626067D02*
X6100224Y-8673686D01*
X6100224Y-8673686D02*
X6090700Y-8711781D01*
X6090700Y-8711781D02*
X6081176Y-8730829D01*
X6081176Y-8730829D02*
X6071652Y-8740352D01*
X6071652Y-8740352D02*
X6052605Y-8749876D01*
X6052605Y-8749876D02*
X6033557Y-8749876D01*
X6033557Y-8749876D02*
X6014510Y-8740352D01*
X6014510Y-8740352D02*
X6004986Y-8730829D01*
X6004986Y-8730829D02*
X5995462Y-8711781D01*
X5995462Y-8711781D02*
X5985938Y-8673686D01*
X5985938Y-8673686D02*
X5985938Y-8626067D01*
X5985938Y-8626067D02*
X5995462Y-8587971D01*
X5995462Y-8587971D02*
X6004986Y-8568924D01*
X6004986Y-8568924D02*
X6014510Y-8559400D01*
X6014510Y-8559400D02*
X6033557Y-8549876D01*
X6176414Y-8549876D02*
X6176414Y-8587971D01*
X6252605Y-8549876D02*
X6252605Y-8587971D01*
X6515462Y-8826067D02*
X6505938Y-8816543D01*
X6505938Y-8816543D02*
X6486891Y-8787971D01*
X6486891Y-8787971D02*
X6477367Y-8768924D01*
X6477367Y-8768924D02*
X6467843Y-8740352D01*
X6467843Y-8740352D02*
X6458319Y-8692733D01*
X6458319Y-8692733D02*
X6458319Y-8654638D01*
X6458319Y-8654638D02*
X6467843Y-8607019D01*
X6467843Y-8607019D02*
X6477367Y-8578448D01*
X6477367Y-8578448D02*
X6486891Y-8559400D01*
X6486891Y-8559400D02*
X6505938Y-8530829D01*
X6505938Y-8530829D02*
X6515462Y-8521305D01*
X6677367Y-8616543D02*
X6677367Y-8749876D01*
X6629748Y-8540352D02*
X6582129Y-8683210D01*
X6582129Y-8683210D02*
X6705938Y-8683210D01*
X6902129Y-8749876D02*
X6902129Y-8549876D01*
X6987843Y-8749876D02*
X6987843Y-8645114D01*
X6987843Y-8645114D02*
X6978319Y-8626067D01*
X6978319Y-8626067D02*
X6959272Y-8616543D01*
X6959272Y-8616543D02*
X6930700Y-8616543D01*
X6930700Y-8616543D02*
X6911652Y-8626067D01*
X6911652Y-8626067D02*
X6902129Y-8635590D01*
X7111652Y-8749876D02*
X7092605Y-8740352D01*
X7092605Y-8740352D02*
X7083081Y-8730829D01*
X7083081Y-8730829D02*
X7073557Y-8711781D01*
X7073557Y-8711781D02*
X7073557Y-8654638D01*
X7073557Y-8654638D02*
X7083081Y-8635590D01*
X7083081Y-8635590D02*
X7092605Y-8626067D01*
X7092605Y-8626067D02*
X7111652Y-8616543D01*
X7111652Y-8616543D02*
X7140224Y-8616543D01*
X7140224Y-8616543D02*
X7159272Y-8626067D01*
X7159272Y-8626067D02*
X7168795Y-8635590D01*
X7168795Y-8635590D02*
X7178319Y-8654638D01*
X7178319Y-8654638D02*
X7178319Y-8711781D01*
X7178319Y-8711781D02*
X7168795Y-8730829D01*
X7168795Y-8730829D02*
X7159272Y-8740352D01*
X7159272Y-8740352D02*
X7140224Y-8749876D01*
X7140224Y-8749876D02*
X7111652Y-8749876D01*
X7292605Y-8749876D02*
X7273557Y-8740352D01*
X7273557Y-8740352D02*
X7264033Y-8721305D01*
X7264033Y-8721305D02*
X7264033Y-8549876D01*
X7444986Y-8740352D02*
X7425938Y-8749876D01*
X7425938Y-8749876D02*
X7387843Y-8749876D01*
X7387843Y-8749876D02*
X7368795Y-8740352D01*
X7368795Y-8740352D02*
X7359272Y-8721305D01*
X7359272Y-8721305D02*
X7359272Y-8645114D01*
X7359272Y-8645114D02*
X7368795Y-8626067D01*
X7368795Y-8626067D02*
X7387843Y-8616543D01*
X7387843Y-8616543D02*
X7425938Y-8616543D01*
X7425938Y-8616543D02*
X7444986Y-8626067D01*
X7444986Y-8626067D02*
X7454510Y-8645114D01*
X7454510Y-8645114D02*
X7454510Y-8664162D01*
X7454510Y-8664162D02*
X7359272Y-8683210D01*
X7530700Y-8740352D02*
X7549748Y-8749876D01*
X7549748Y-8749876D02*
X7587843Y-8749876D01*
X7587843Y-8749876D02*
X7606891Y-8740352D01*
X7606891Y-8740352D02*
X7616414Y-8721305D01*
X7616414Y-8721305D02*
X7616414Y-8711781D01*
X7616414Y-8711781D02*
X7606891Y-8692733D01*
X7606891Y-8692733D02*
X7587843Y-8683210D01*
X7587843Y-8683210D02*
X7559272Y-8683210D01*
X7559272Y-8683210D02*
X7540224Y-8673686D01*
X7540224Y-8673686D02*
X7530700Y-8654638D01*
X7530700Y-8654638D02*
X7530700Y-8645114D01*
X7530700Y-8645114D02*
X7540224Y-8626067D01*
X7540224Y-8626067D02*
X7559272Y-8616543D01*
X7559272Y-8616543D02*
X7587843Y-8616543D01*
X7587843Y-8616543D02*
X7606891Y-8626067D01*
X7683081Y-8826067D02*
X7692605Y-8816543D01*
X7692605Y-8816543D02*
X7711653Y-8787971D01*
X7711653Y-8787971D02*
X7721176Y-8768924D01*
X7721176Y-8768924D02*
X7730700Y-8740352D01*
X7730700Y-8740352D02*
X7740224Y-8692733D01*
X7740224Y-8692733D02*
X7740224Y-8654638D01*
X7740224Y-8654638D02*
X7730700Y-8607019D01*
X7730700Y-8607019D02*
X7721176Y-8578448D01*
X7721176Y-8578448D02*
X7711653Y-8559400D01*
X7711653Y-8559400D02*
X7692605Y-8530829D01*
X7692605Y-8530829D02*
X7683081Y-8521305D01*
X8012605Y-8826067D02*
X8003081Y-8816543D01*
X8003081Y-8816543D02*
X7984033Y-8787971D01*
X7984033Y-8787971D02*
X7974510Y-8768924D01*
X7974510Y-8768924D02*
X7964986Y-8740352D01*
X7964986Y-8740352D02*
X7955462Y-8692733D01*
X7955462Y-8692733D02*
X7955462Y-8654638D01*
X7955462Y-8654638D02*
X7964986Y-8607019D01*
X7964986Y-8607019D02*
X7974510Y-8578448D01*
X7974510Y-8578448D02*
X7984033Y-8559400D01*
X7984033Y-8559400D02*
X8003081Y-8530829D01*
X8003081Y-8530829D02*
X8012605Y-8521305D01*
X8088795Y-8616543D02*
X8088795Y-8749876D01*
X8088795Y-8635590D02*
X8098319Y-8626067D01*
X8098319Y-8626067D02*
X8117367Y-8616543D01*
X8117367Y-8616543D02*
X8145938Y-8616543D01*
X8145938Y-8616543D02*
X8164986Y-8626067D01*
X8164986Y-8626067D02*
X8174510Y-8645114D01*
X8174510Y-8645114D02*
X8174510Y-8749876D01*
X8298319Y-8749876D02*
X8279272Y-8740352D01*
X8279272Y-8740352D02*
X8269748Y-8730829D01*
X8269748Y-8730829D02*
X8260224Y-8711781D01*
X8260224Y-8711781D02*
X8260224Y-8654638D01*
X8260224Y-8654638D02*
X8269748Y-8635590D01*
X8269748Y-8635590D02*
X8279272Y-8626067D01*
X8279272Y-8626067D02*
X8298319Y-8616543D01*
X8298319Y-8616543D02*
X8326891Y-8616543D01*
X8326891Y-8616543D02*
X8345938Y-8626067D01*
X8345938Y-8626067D02*
X8355462Y-8635590D01*
X8355462Y-8635590D02*
X8364986Y-8654638D01*
X8364986Y-8654638D02*
X8364986Y-8711781D01*
X8364986Y-8711781D02*
X8355462Y-8730829D01*
X8355462Y-8730829D02*
X8345938Y-8740352D01*
X8345938Y-8740352D02*
X8326891Y-8749876D01*
X8326891Y-8749876D02*
X8298319Y-8749876D01*
X8422129Y-8616543D02*
X8498319Y-8616543D01*
X8450700Y-8549876D02*
X8450700Y-8721305D01*
X8450700Y-8721305D02*
X8460224Y-8740352D01*
X8460224Y-8740352D02*
X8479272Y-8749876D01*
X8479272Y-8749876D02*
X8498319Y-8749876D01*
X8684986Y-8616543D02*
X8684986Y-8816543D01*
X8684986Y-8626067D02*
X8704034Y-8616543D01*
X8704034Y-8616543D02*
X8742129Y-8616543D01*
X8742129Y-8616543D02*
X8761176Y-8626067D01*
X8761176Y-8626067D02*
X8770700Y-8635590D01*
X8770700Y-8635590D02*
X8780224Y-8654638D01*
X8780224Y-8654638D02*
X8780224Y-8711781D01*
X8780224Y-8711781D02*
X8770700Y-8730829D01*
X8770700Y-8730829D02*
X8761176Y-8740352D01*
X8761176Y-8740352D02*
X8742129Y-8749876D01*
X8742129Y-8749876D02*
X8704034Y-8749876D01*
X8704034Y-8749876D02*
X8684986Y-8740352D01*
X8894510Y-8749876D02*
X8875462Y-8740352D01*
X8875462Y-8740352D02*
X8865938Y-8721305D01*
X8865938Y-8721305D02*
X8865938Y-8549876D01*
X9056415Y-8749876D02*
X9056415Y-8645114D01*
X9056415Y-8645114D02*
X9046891Y-8626067D01*
X9046891Y-8626067D02*
X9027843Y-8616543D01*
X9027843Y-8616543D02*
X8989748Y-8616543D01*
X8989748Y-8616543D02*
X8970700Y-8626067D01*
X9056415Y-8740352D02*
X9037367Y-8749876D01*
X9037367Y-8749876D02*
X8989748Y-8749876D01*
X8989748Y-8749876D02*
X8970700Y-8740352D01*
X8970700Y-8740352D02*
X8961176Y-8721305D01*
X8961176Y-8721305D02*
X8961176Y-8702257D01*
X8961176Y-8702257D02*
X8970700Y-8683210D01*
X8970700Y-8683210D02*
X8989748Y-8673686D01*
X8989748Y-8673686D02*
X9037367Y-8673686D01*
X9037367Y-8673686D02*
X9056415Y-8664162D01*
X9123081Y-8616543D02*
X9199272Y-8616543D01*
X9151653Y-8549876D02*
X9151653Y-8721305D01*
X9151653Y-8721305D02*
X9161176Y-8740352D01*
X9161176Y-8740352D02*
X9180224Y-8749876D01*
X9180224Y-8749876D02*
X9199272Y-8749876D01*
X9342129Y-8740352D02*
X9323081Y-8749876D01*
X9323081Y-8749876D02*
X9284986Y-8749876D01*
X9284986Y-8749876D02*
X9265938Y-8740352D01*
X9265938Y-8740352D02*
X9256415Y-8721305D01*
X9256415Y-8721305D02*
X9256415Y-8645114D01*
X9256415Y-8645114D02*
X9265938Y-8626067D01*
X9265938Y-8626067D02*
X9284986Y-8616543D01*
X9284986Y-8616543D02*
X9323081Y-8616543D01*
X9323081Y-8616543D02*
X9342129Y-8626067D01*
X9342129Y-8626067D02*
X9351653Y-8645114D01*
X9351653Y-8645114D02*
X9351653Y-8664162D01*
X9351653Y-8664162D02*
X9256415Y-8683210D01*
X9523081Y-8749876D02*
X9523081Y-8549876D01*
X9523081Y-8740352D02*
X9504034Y-8749876D01*
X9504034Y-8749876D02*
X9465938Y-8749876D01*
X9465938Y-8749876D02*
X9446891Y-8740352D01*
X9446891Y-8740352D02*
X9437367Y-8730829D01*
X9437367Y-8730829D02*
X9427843Y-8711781D01*
X9427843Y-8711781D02*
X9427843Y-8654638D01*
X9427843Y-8654638D02*
X9437367Y-8635590D01*
X9437367Y-8635590D02*
X9446891Y-8626067D01*
X9446891Y-8626067D02*
X9465938Y-8616543D01*
X9465938Y-8616543D02*
X9504034Y-8616543D01*
X9504034Y-8616543D02*
X9523081Y-8626067D01*
X9599272Y-8826067D02*
X9608796Y-8816543D01*
X9608796Y-8816543D02*
X9627843Y-8787971D01*
X9627843Y-8787971D02*
X9637367Y-8768924D01*
X9637367Y-8768924D02*
X9646891Y-8740352D01*
X9646891Y-8740352D02*
X9656415Y-8692733D01*
X9656415Y-8692733D02*
X9656415Y-8654638D01*
X9656415Y-8654638D02*
X9646891Y-8607019D01*
X9646891Y-8607019D02*
X9637367Y-8578448D01*
X9637367Y-8578448D02*
X9627843Y-8559400D01*
X9627843Y-8559400D02*
X9608796Y-8530829D01*
X9608796Y-8530829D02*
X9599272Y-8521305D01*
X3050700Y-8996400D02*
G75*
G03*
X3050700Y-8996400I-100000J0D01*
G01*
X3403081Y-9069876D02*
X3288795Y-9069876D01*
X3345938Y-9069876D02*
X3345938Y-8869876D01*
X3345938Y-8869876D02*
X3326890Y-8898448D01*
X3326890Y-8898448D02*
X3307843Y-8917495D01*
X3307843Y-8917495D02*
X3288795Y-8927019D01*
X3479271Y-8888924D02*
X3488795Y-8879400D01*
X3488795Y-8879400D02*
X3507843Y-8869876D01*
X3507843Y-8869876D02*
X3555462Y-8869876D01*
X3555462Y-8869876D02*
X3574509Y-8879400D01*
X3574509Y-8879400D02*
X3584033Y-8888924D01*
X3584033Y-8888924D02*
X3593557Y-8907971D01*
X3593557Y-8907971D02*
X3593557Y-8927019D01*
X3593557Y-8927019D02*
X3584033Y-8955590D01*
X3584033Y-8955590D02*
X3469748Y-9069876D01*
X3469748Y-9069876D02*
X3593557Y-9069876D01*
X3679271Y-9050829D02*
X3688795Y-9060352D01*
X3688795Y-9060352D02*
X3679271Y-9069876D01*
X3679271Y-9069876D02*
X3669748Y-9060352D01*
X3669748Y-9060352D02*
X3679271Y-9050829D01*
X3679271Y-9050829D02*
X3679271Y-9069876D01*
X3812605Y-8869876D02*
X3831652Y-8869876D01*
X3831652Y-8869876D02*
X3850700Y-8879400D01*
X3850700Y-8879400D02*
X3860224Y-8888924D01*
X3860224Y-8888924D02*
X3869748Y-8907971D01*
X3869748Y-8907971D02*
X3879271Y-8946067D01*
X3879271Y-8946067D02*
X3879271Y-8993686D01*
X3879271Y-8993686D02*
X3869748Y-9031781D01*
X3869748Y-9031781D02*
X3860224Y-9050829D01*
X3860224Y-9050829D02*
X3850700Y-9060352D01*
X3850700Y-9060352D02*
X3831652Y-9069876D01*
X3831652Y-9069876D02*
X3812605Y-9069876D01*
X3812605Y-9069876D02*
X3793557Y-9060352D01*
X3793557Y-9060352D02*
X3784033Y-9050829D01*
X3784033Y-9050829D02*
X3774509Y-9031781D01*
X3774509Y-9031781D02*
X3764986Y-8993686D01*
X3764986Y-8993686D02*
X3764986Y-8946067D01*
X3764986Y-8946067D02*
X3774509Y-8907971D01*
X3774509Y-8907971D02*
X3784033Y-8888924D01*
X3784033Y-8888924D02*
X3793557Y-8879400D01*
X3793557Y-8879400D02*
X3812605Y-8869876D01*
X4003081Y-8869876D02*
X4022129Y-8869876D01*
X4022129Y-8869876D02*
X4041176Y-8879400D01*
X4041176Y-8879400D02*
X4050700Y-8888924D01*
X4050700Y-8888924D02*
X4060224Y-8907971D01*
X4060224Y-8907971D02*
X4069748Y-8946067D01*
X4069748Y-8946067D02*
X4069748Y-8993686D01*
X4069748Y-8993686D02*
X4060224Y-9031781D01*
X4060224Y-9031781D02*
X4050700Y-9050829D01*
X4050700Y-9050829D02*
X4041176Y-9060352D01*
X4041176Y-9060352D02*
X4022129Y-9069876D01*
X4022129Y-9069876D02*
X4003081Y-9069876D01*
X4003081Y-9069876D02*
X3984033Y-9060352D01*
X3984033Y-9060352D02*
X3974509Y-9050829D01*
X3974509Y-9050829D02*
X3964986Y-9031781D01*
X3964986Y-9031781D02*
X3955462Y-8993686D01*
X3955462Y-8993686D02*
X3955462Y-8946067D01*
X3955462Y-8946067D02*
X3964986Y-8907971D01*
X3964986Y-8907971D02*
X3974509Y-8888924D01*
X3974509Y-8888924D02*
X3984033Y-8879400D01*
X3984033Y-8879400D02*
X4003081Y-8869876D01*
X4193557Y-8869876D02*
X4212605Y-8869876D01*
X4212605Y-8869876D02*
X4231652Y-8879400D01*
X4231652Y-8879400D02*
X4241176Y-8888924D01*
X4241176Y-8888924D02*
X4250700Y-8907971D01*
X4250700Y-8907971D02*
X4260224Y-8946067D01*
X4260224Y-8946067D02*
X4260224Y-8993686D01*
X4260224Y-8993686D02*
X4250700Y-9031781D01*
X4250700Y-9031781D02*
X4241176Y-9050829D01*
X4241176Y-9050829D02*
X4231652Y-9060352D01*
X4231652Y-9060352D02*
X4212605Y-9069876D01*
X4212605Y-9069876D02*
X4193557Y-9069876D01*
X4193557Y-9069876D02*
X4174509Y-9060352D01*
X4174509Y-9060352D02*
X4164986Y-9050829D01*
X4164986Y-9050829D02*
X4155462Y-9031781D01*
X4155462Y-9031781D02*
X4145938Y-8993686D01*
X4145938Y-8993686D02*
X4145938Y-8946067D01*
X4145938Y-8946067D02*
X4155462Y-8907971D01*
X4155462Y-8907971D02*
X4164986Y-8888924D01*
X4164986Y-8888924D02*
X4174509Y-8879400D01*
X4174509Y-8879400D02*
X4193557Y-8869876D01*
X4345938Y-9069876D02*
X4345938Y-8936543D01*
X4345938Y-8955590D02*
X4355462Y-8946067D01*
X4355462Y-8946067D02*
X4374510Y-8936543D01*
X4374510Y-8936543D02*
X4403081Y-8936543D01*
X4403081Y-8936543D02*
X4422129Y-8946067D01*
X4422129Y-8946067D02*
X4431652Y-8965114D01*
X4431652Y-8965114D02*
X4431652Y-9069876D01*
X4431652Y-8965114D02*
X4441176Y-8946067D01*
X4441176Y-8946067D02*
X4460224Y-8936543D01*
X4460224Y-8936543D02*
X4488795Y-8936543D01*
X4488795Y-8936543D02*
X4507843Y-8946067D01*
X4507843Y-8946067D02*
X4517367Y-8965114D01*
X4517367Y-8965114D02*
X4517367Y-9069876D01*
X4612605Y-9069876D02*
X4612605Y-8936543D01*
X4612605Y-8955590D02*
X4622129Y-8946067D01*
X4622129Y-8946067D02*
X4641176Y-8936543D01*
X4641176Y-8936543D02*
X4669748Y-8936543D01*
X4669748Y-8936543D02*
X4688795Y-8946067D01*
X4688795Y-8946067D02*
X4698319Y-8965114D01*
X4698319Y-8965114D02*
X4698319Y-9069876D01*
X4698319Y-8965114D02*
X4707843Y-8946067D01*
X4707843Y-8946067D02*
X4726891Y-8936543D01*
X4726891Y-8936543D02*
X4755462Y-8936543D01*
X4755462Y-8936543D02*
X4774510Y-8946067D01*
X4774510Y-8946067D02*
X4784033Y-8965114D01*
X4784033Y-8965114D02*
X4784033Y-9069876D01*
X5142129Y-8860352D02*
X4970700Y-9117495D01*
X5366891Y-8869876D02*
X5385938Y-8869876D01*
X5385938Y-8869876D02*
X5404986Y-8879400D01*
X5404986Y-8879400D02*
X5414510Y-8888924D01*
X5414510Y-8888924D02*
X5424033Y-8907971D01*
X5424033Y-8907971D02*
X5433557Y-8946067D01*
X5433557Y-8946067D02*
X5433557Y-8993686D01*
X5433557Y-8993686D02*
X5424033Y-9031781D01*
X5424033Y-9031781D02*
X5414510Y-9050829D01*
X5414510Y-9050829D02*
X5404986Y-9060352D01*
X5404986Y-9060352D02*
X5385938Y-9069876D01*
X5385938Y-9069876D02*
X5366891Y-9069876D01*
X5366891Y-9069876D02*
X5347843Y-9060352D01*
X5347843Y-9060352D02*
X5338319Y-9050829D01*
X5338319Y-9050829D02*
X5328795Y-9031781D01*
X5328795Y-9031781D02*
X5319272Y-8993686D01*
X5319272Y-8993686D02*
X5319272Y-8946067D01*
X5319272Y-8946067D02*
X5328795Y-8907971D01*
X5328795Y-8907971D02*
X5338319Y-8888924D01*
X5338319Y-8888924D02*
X5347843Y-8879400D01*
X5347843Y-8879400D02*
X5366891Y-8869876D01*
X5519272Y-9050829D02*
X5528795Y-9060352D01*
X5528795Y-9060352D02*
X5519272Y-9069876D01*
X5519272Y-9069876D02*
X5509748Y-9060352D01*
X5509748Y-9060352D02*
X5519272Y-9050829D01*
X5519272Y-9050829D02*
X5519272Y-9069876D01*
X5700224Y-8936543D02*
X5700224Y-9069876D01*
X5652605Y-8860352D02*
X5604986Y-9003210D01*
X5604986Y-9003210D02*
X5728795Y-9003210D01*
X5785938Y-8869876D02*
X5919271Y-8869876D01*
X5919271Y-8869876D02*
X5833557Y-9069876D01*
X5985938Y-8888924D02*
X5995462Y-8879400D01*
X5995462Y-8879400D02*
X6014510Y-8869876D01*
X6014510Y-8869876D02*
X6062129Y-8869876D01*
X6062129Y-8869876D02*
X6081176Y-8879400D01*
X6081176Y-8879400D02*
X6090700Y-8888924D01*
X6090700Y-8888924D02*
X6100224Y-8907971D01*
X6100224Y-8907971D02*
X6100224Y-8927019D01*
X6100224Y-8927019D02*
X6090700Y-8955590D01*
X6090700Y-8955590D02*
X5976414Y-9069876D01*
X5976414Y-9069876D02*
X6100224Y-9069876D01*
X6271652Y-8936543D02*
X6271652Y-9069876D01*
X6224033Y-8860352D02*
X6176414Y-9003210D01*
X6176414Y-9003210D02*
X6300224Y-9003210D01*
X6366891Y-8869876D02*
X6366891Y-8907971D01*
X6443081Y-8869876D02*
X6443081Y-8907971D01*
X6705938Y-9146067D02*
X6696414Y-9136543D01*
X6696414Y-9136543D02*
X6677367Y-9107971D01*
X6677367Y-9107971D02*
X6667843Y-9088924D01*
X6667843Y-9088924D02*
X6658319Y-9060352D01*
X6658319Y-9060352D02*
X6648795Y-9012733D01*
X6648795Y-9012733D02*
X6648795Y-8974638D01*
X6648795Y-8974638D02*
X6658319Y-8927019D01*
X6658319Y-8927019D02*
X6667843Y-8898448D01*
X6667843Y-8898448D02*
X6677367Y-8879400D01*
X6677367Y-8879400D02*
X6696414Y-8850829D01*
X6696414Y-8850829D02*
X6705938Y-8841305D01*
X6763081Y-8869876D02*
X6886891Y-8869876D01*
X6886891Y-8869876D02*
X6820224Y-8946067D01*
X6820224Y-8946067D02*
X6848795Y-8946067D01*
X6848795Y-8946067D02*
X6867843Y-8955590D01*
X6867843Y-8955590D02*
X6877367Y-8965114D01*
X6877367Y-8965114D02*
X6886891Y-8984162D01*
X6886891Y-8984162D02*
X6886891Y-9031781D01*
X6886891Y-9031781D02*
X6877367Y-9050829D01*
X6877367Y-9050829D02*
X6867843Y-9060352D01*
X6867843Y-9060352D02*
X6848795Y-9069876D01*
X6848795Y-9069876D02*
X6791652Y-9069876D01*
X6791652Y-9069876D02*
X6772605Y-9060352D01*
X6772605Y-9060352D02*
X6763081Y-9050829D01*
X7092605Y-9069876D02*
X7092605Y-8869876D01*
X7178319Y-9069876D02*
X7178319Y-8965114D01*
X7178319Y-8965114D02*
X7168795Y-8946067D01*
X7168795Y-8946067D02*
X7149748Y-8936543D01*
X7149748Y-8936543D02*
X7121176Y-8936543D01*
X7121176Y-8936543D02*
X7102129Y-8946067D01*
X7102129Y-8946067D02*
X7092605Y-8955590D01*
X7302129Y-9069876D02*
X7283081Y-9060352D01*
X7283081Y-9060352D02*
X7273557Y-9050829D01*
X7273557Y-9050829D02*
X7264033Y-9031781D01*
X7264033Y-9031781D02*
X7264033Y-8974638D01*
X7264033Y-8974638D02*
X7273557Y-8955590D01*
X7273557Y-8955590D02*
X7283081Y-8946067D01*
X7283081Y-8946067D02*
X7302129Y-8936543D01*
X7302129Y-8936543D02*
X7330700Y-8936543D01*
X7330700Y-8936543D02*
X7349748Y-8946067D01*
X7349748Y-8946067D02*
X7359272Y-8955590D01*
X7359272Y-8955590D02*
X7368795Y-8974638D01*
X7368795Y-8974638D02*
X7368795Y-9031781D01*
X7368795Y-9031781D02*
X7359272Y-9050829D01*
X7359272Y-9050829D02*
X7349748Y-9060352D01*
X7349748Y-9060352D02*
X7330700Y-9069876D01*
X7330700Y-9069876D02*
X7302129Y-9069876D01*
X7483081Y-9069876D02*
X7464033Y-9060352D01*
X7464033Y-9060352D02*
X7454510Y-9041305D01*
X7454510Y-9041305D02*
X7454510Y-8869876D01*
X7635462Y-9060352D02*
X7616414Y-9069876D01*
X7616414Y-9069876D02*
X7578319Y-9069876D01*
X7578319Y-9069876D02*
X7559272Y-9060352D01*
X7559272Y-9060352D02*
X7549748Y-9041305D01*
X7549748Y-9041305D02*
X7549748Y-8965114D01*
X7549748Y-8965114D02*
X7559272Y-8946067D01*
X7559272Y-8946067D02*
X7578319Y-8936543D01*
X7578319Y-8936543D02*
X7616414Y-8936543D01*
X7616414Y-8936543D02*
X7635462Y-8946067D01*
X7635462Y-8946067D02*
X7644986Y-8965114D01*
X7644986Y-8965114D02*
X7644986Y-8984162D01*
X7644986Y-8984162D02*
X7549748Y-9003210D01*
X7721176Y-9060352D02*
X7740224Y-9069876D01*
X7740224Y-9069876D02*
X7778319Y-9069876D01*
X7778319Y-9069876D02*
X7797367Y-9060352D01*
X7797367Y-9060352D02*
X7806891Y-9041305D01*
X7806891Y-9041305D02*
X7806891Y-9031781D01*
X7806891Y-9031781D02*
X7797367Y-9012733D01*
X7797367Y-9012733D02*
X7778319Y-9003210D01*
X7778319Y-9003210D02*
X7749748Y-9003210D01*
X7749748Y-9003210D02*
X7730700Y-8993686D01*
X7730700Y-8993686D02*
X7721176Y-8974638D01*
X7721176Y-8974638D02*
X7721176Y-8965114D01*
X7721176Y-8965114D02*
X7730700Y-8946067D01*
X7730700Y-8946067D02*
X7749748Y-8936543D01*
X7749748Y-8936543D02*
X7778319Y-8936543D01*
X7778319Y-8936543D02*
X7797367Y-8946067D01*
X7873557Y-9146067D02*
X7883081Y-9136543D01*
X7883081Y-9136543D02*
X7902129Y-9107971D01*
X7902129Y-9107971D02*
X7911653Y-9088924D01*
X7911653Y-9088924D02*
X7921176Y-9060352D01*
X7921176Y-9060352D02*
X7930700Y-9012733D01*
X7930700Y-9012733D02*
X7930700Y-8974638D01*
X7930700Y-8974638D02*
X7921176Y-8927019D01*
X7921176Y-8927019D02*
X7911653Y-8898448D01*
X7911653Y-8898448D02*
X7902129Y-8879400D01*
X7902129Y-8879400D02*
X7883081Y-8850829D01*
X7883081Y-8850829D02*
X7873557Y-8841305D01*
X8203081Y-9146067D02*
X8193557Y-9136543D01*
X8193557Y-9136543D02*
X8174510Y-9107971D01*
X8174510Y-9107971D02*
X8164986Y-9088924D01*
X8164986Y-9088924D02*
X8155462Y-9060352D01*
X8155462Y-9060352D02*
X8145938Y-9012733D01*
X8145938Y-9012733D02*
X8145938Y-8974638D01*
X8145938Y-8974638D02*
X8155462Y-8927019D01*
X8155462Y-8927019D02*
X8164986Y-8898448D01*
X8164986Y-8898448D02*
X8174510Y-8879400D01*
X8174510Y-8879400D02*
X8193557Y-8850829D01*
X8193557Y-8850829D02*
X8203081Y-8841305D01*
X8279272Y-8936543D02*
X8279272Y-9069876D01*
X8279272Y-8955590D02*
X8288795Y-8946067D01*
X8288795Y-8946067D02*
X8307843Y-8936543D01*
X8307843Y-8936543D02*
X8336414Y-8936543D01*
X8336414Y-8936543D02*
X8355462Y-8946067D01*
X8355462Y-8946067D02*
X8364986Y-8965114D01*
X8364986Y-8965114D02*
X8364986Y-9069876D01*
X8488795Y-9069876D02*
X8469748Y-9060352D01*
X8469748Y-9060352D02*
X8460224Y-9050829D01*
X8460224Y-9050829D02*
X8450700Y-9031781D01*
X8450700Y-9031781D02*
X8450700Y-8974638D01*
X8450700Y-8974638D02*
X8460224Y-8955590D01*
X8460224Y-8955590D02*
X8469748Y-8946067D01*
X8469748Y-8946067D02*
X8488795Y-8936543D01*
X8488795Y-8936543D02*
X8517367Y-8936543D01*
X8517367Y-8936543D02*
X8536415Y-8946067D01*
X8536415Y-8946067D02*
X8545938Y-8955590D01*
X8545938Y-8955590D02*
X8555462Y-8974638D01*
X8555462Y-8974638D02*
X8555462Y-9031781D01*
X8555462Y-9031781D02*
X8545938Y-9050829D01*
X8545938Y-9050829D02*
X8536415Y-9060352D01*
X8536415Y-9060352D02*
X8517367Y-9069876D01*
X8517367Y-9069876D02*
X8488795Y-9069876D01*
X8612605Y-8936543D02*
X8688795Y-8936543D01*
X8641176Y-8869876D02*
X8641176Y-9041305D01*
X8641176Y-9041305D02*
X8650700Y-9060352D01*
X8650700Y-9060352D02*
X8669748Y-9069876D01*
X8669748Y-9069876D02*
X8688795Y-9069876D01*
X8875462Y-8936543D02*
X8875462Y-9136543D01*
X8875462Y-8946067D02*
X8894510Y-8936543D01*
X8894510Y-8936543D02*
X8932605Y-8936543D01*
X8932605Y-8936543D02*
X8951653Y-8946067D01*
X8951653Y-8946067D02*
X8961176Y-8955590D01*
X8961176Y-8955590D02*
X8970700Y-8974638D01*
X8970700Y-8974638D02*
X8970700Y-9031781D01*
X8970700Y-9031781D02*
X8961176Y-9050829D01*
X8961176Y-9050829D02*
X8951653Y-9060352D01*
X8951653Y-9060352D02*
X8932605Y-9069876D01*
X8932605Y-9069876D02*
X8894510Y-9069876D01*
X8894510Y-9069876D02*
X8875462Y-9060352D01*
X9084986Y-9069876D02*
X9065938Y-9060352D01*
X9065938Y-9060352D02*
X9056415Y-9041305D01*
X9056415Y-9041305D02*
X9056415Y-8869876D01*
X9246891Y-9069876D02*
X9246891Y-8965114D01*
X9246891Y-8965114D02*
X9237367Y-8946067D01*
X9237367Y-8946067D02*
X9218319Y-8936543D01*
X9218319Y-8936543D02*
X9180224Y-8936543D01*
X9180224Y-8936543D02*
X9161176Y-8946067D01*
X9246891Y-9060352D02*
X9227843Y-9069876D01*
X9227843Y-9069876D02*
X9180224Y-9069876D01*
X9180224Y-9069876D02*
X9161176Y-9060352D01*
X9161176Y-9060352D02*
X9151653Y-9041305D01*
X9151653Y-9041305D02*
X9151653Y-9022257D01*
X9151653Y-9022257D02*
X9161176Y-9003210D01*
X9161176Y-9003210D02*
X9180224Y-8993686D01*
X9180224Y-8993686D02*
X9227843Y-8993686D01*
X9227843Y-8993686D02*
X9246891Y-8984162D01*
X9313557Y-8936543D02*
X9389748Y-8936543D01*
X9342129Y-8869876D02*
X9342129Y-9041305D01*
X9342129Y-9041305D02*
X9351653Y-9060352D01*
X9351653Y-9060352D02*
X9370700Y-9069876D01*
X9370700Y-9069876D02*
X9389748Y-9069876D01*
X9532605Y-9060352D02*
X9513557Y-9069876D01*
X9513557Y-9069876D02*
X9475462Y-9069876D01*
X9475462Y-9069876D02*
X9456415Y-9060352D01*
X9456415Y-9060352D02*
X9446891Y-9041305D01*
X9446891Y-9041305D02*
X9446891Y-8965114D01*
X9446891Y-8965114D02*
X9456415Y-8946067D01*
X9456415Y-8946067D02*
X9475462Y-8936543D01*
X9475462Y-8936543D02*
X9513557Y-8936543D01*
X9513557Y-8936543D02*
X9532605Y-8946067D01*
X9532605Y-8946067D02*
X9542129Y-8965114D01*
X9542129Y-8965114D02*
X9542129Y-8984162D01*
X9542129Y-8984162D02*
X9446891Y-9003210D01*
X9713557Y-9069876D02*
X9713557Y-8869876D01*
X9713557Y-9060352D02*
X9694510Y-9069876D01*
X9694510Y-9069876D02*
X9656415Y-9069876D01*
X9656415Y-9069876D02*
X9637367Y-9060352D01*
X9637367Y-9060352D02*
X9627843Y-9050829D01*
X9627843Y-9050829D02*
X9618319Y-9031781D01*
X9618319Y-9031781D02*
X9618319Y-8974638D01*
X9618319Y-8974638D02*
X9627843Y-8955590D01*
X9627843Y-8955590D02*
X9637367Y-8946067D01*
X9637367Y-8946067D02*
X9656415Y-8936543D01*
X9656415Y-8936543D02*
X9694510Y-8936543D01*
X9694510Y-8936543D02*
X9713557Y-8946067D01*
X9789748Y-9146067D02*
X9799272Y-9136543D01*
X9799272Y-9136543D02*
X9818319Y-9107971D01*
X9818319Y-9107971D02*
X9827843Y-9088924D01*
X9827843Y-9088924D02*
X9837367Y-9060352D01*
X9837367Y-9060352D02*
X9846891Y-9012733D01*
X9846891Y-9012733D02*
X9846891Y-8974638D01*
X9846891Y-8974638D02*
X9837367Y-8927019D01*
X9837367Y-8927019D02*
X9827843Y-8898448D01*
X9827843Y-8898448D02*
X9818319Y-8879400D01*
X9818319Y-8879400D02*
X9799272Y-8850829D01*
X9799272Y-8850829D02*
X9789748Y-8841305D01*
M02*
