%TF.GenerationSoftware,KiCad,Pcbnew,(7.0.0-0)*%
%TF.CreationDate,2023-11-03T17:36:42+01:00*%
%TF.ProjectId,ExternalAdapter,45787465-726e-4616-9c41-646170746572,1.0*%
%TF.SameCoordinates,Original*%
%TF.FileFunction,Drillmap*%
%TF.FilePolarity,Positive*%
%FSLAX45Y45*%
G04 Gerber Fmt 4.5, Leading zero omitted, Abs format (unit mm)*
G04 Created by KiCad (PCBNEW (7.0.0-0)) date 2023-11-03 17:36:42*
%MOMM*%
%LPD*%
G01*
G04 APERTURE LIST*
%ADD10C,0.200000*%
%ADD11C,0.095000*%
%ADD12C,0.210000*%
G04 APERTURE END LIST*
D10*
X10452100Y-1816100D02*
X3060700Y-1816100D01*
X3060700Y-1816100D02*
X3060700Y-8026400D01*
X3060700Y-8026400D02*
X10452100Y-8026400D01*
X10452100Y-8026400D02*
X10452100Y-1816100D01*
D11*
X6376375Y-7168475D02*
X6471375Y-7263475D01*
X6471375Y-7168475D02*
X6376375Y-7263475D01*
X6626375Y-7168475D02*
X6721375Y-7263475D01*
X6721375Y-7168475D02*
X6626375Y-7263475D01*
X6876375Y-7168475D02*
X6971375Y-7263475D01*
X6971375Y-7168475D02*
X6876375Y-7263475D01*
D12*
X4554425Y-6805400D02*
G75*
G03*
X4554425Y-6805400I-105000J0D01*
G01*
X6778875Y-5105400D02*
G75*
G03*
X6778875Y-5105400I-105000J0D01*
G01*
X8954425Y-6805400D02*
G75*
G03*
X8954425Y-6805400I-105000J0D01*
G01*
D10*
X3298319Y-8329876D02*
X3298319Y-8129876D01*
X3298319Y-8129876D02*
X3345938Y-8129876D01*
X3345938Y-8129876D02*
X3374509Y-8139400D01*
X3374509Y-8139400D02*
X3393557Y-8158448D01*
X3393557Y-8158448D02*
X3403081Y-8177495D01*
X3403081Y-8177495D02*
X3412605Y-8215590D01*
X3412605Y-8215590D02*
X3412605Y-8244162D01*
X3412605Y-8244162D02*
X3403081Y-8282257D01*
X3403081Y-8282257D02*
X3393557Y-8301305D01*
X3393557Y-8301305D02*
X3374509Y-8320352D01*
X3374509Y-8320352D02*
X3345938Y-8329876D01*
X3345938Y-8329876D02*
X3298319Y-8329876D01*
X3498319Y-8329876D02*
X3498319Y-8196543D01*
X3498319Y-8234638D02*
X3507843Y-8215590D01*
X3507843Y-8215590D02*
X3517367Y-8206067D01*
X3517367Y-8206067D02*
X3536414Y-8196543D01*
X3536414Y-8196543D02*
X3555462Y-8196543D01*
X3622128Y-8329876D02*
X3622128Y-8196543D01*
X3622128Y-8129876D02*
X3612605Y-8139400D01*
X3612605Y-8139400D02*
X3622128Y-8148924D01*
X3622128Y-8148924D02*
X3631652Y-8139400D01*
X3631652Y-8139400D02*
X3622128Y-8129876D01*
X3622128Y-8129876D02*
X3622128Y-8148924D01*
X3745938Y-8329876D02*
X3726890Y-8320352D01*
X3726890Y-8320352D02*
X3717367Y-8301305D01*
X3717367Y-8301305D02*
X3717367Y-8129876D01*
X3850700Y-8329876D02*
X3831652Y-8320352D01*
X3831652Y-8320352D02*
X3822128Y-8301305D01*
X3822128Y-8301305D02*
X3822128Y-8129876D01*
X4046890Y-8329876D02*
X4046890Y-8129876D01*
X4046890Y-8129876D02*
X4113557Y-8272733D01*
X4113557Y-8272733D02*
X4180224Y-8129876D01*
X4180224Y-8129876D02*
X4180224Y-8329876D01*
X4361176Y-8329876D02*
X4361176Y-8225114D01*
X4361176Y-8225114D02*
X4351652Y-8206067D01*
X4351652Y-8206067D02*
X4332605Y-8196543D01*
X4332605Y-8196543D02*
X4294509Y-8196543D01*
X4294509Y-8196543D02*
X4275462Y-8206067D01*
X4361176Y-8320352D02*
X4342129Y-8329876D01*
X4342129Y-8329876D02*
X4294509Y-8329876D01*
X4294509Y-8329876D02*
X4275462Y-8320352D01*
X4275462Y-8320352D02*
X4265938Y-8301305D01*
X4265938Y-8301305D02*
X4265938Y-8282257D01*
X4265938Y-8282257D02*
X4275462Y-8263209D01*
X4275462Y-8263209D02*
X4294509Y-8253686D01*
X4294509Y-8253686D02*
X4342129Y-8253686D01*
X4342129Y-8253686D02*
X4361176Y-8244162D01*
X4456414Y-8196543D02*
X4456414Y-8396543D01*
X4456414Y-8206067D02*
X4475462Y-8196543D01*
X4475462Y-8196543D02*
X4513557Y-8196543D01*
X4513557Y-8196543D02*
X4532605Y-8206067D01*
X4532605Y-8206067D02*
X4542129Y-8215590D01*
X4542129Y-8215590D02*
X4551652Y-8234638D01*
X4551652Y-8234638D02*
X4551652Y-8291781D01*
X4551652Y-8291781D02*
X4542129Y-8310828D01*
X4542129Y-8310828D02*
X4532605Y-8320352D01*
X4532605Y-8320352D02*
X4513557Y-8329876D01*
X4513557Y-8329876D02*
X4475462Y-8329876D01*
X4475462Y-8329876D02*
X4456414Y-8320352D01*
X4637367Y-8310828D02*
X4646890Y-8320352D01*
X4646890Y-8320352D02*
X4637367Y-8329876D01*
X4637367Y-8329876D02*
X4627843Y-8320352D01*
X4627843Y-8320352D02*
X4637367Y-8310828D01*
X4637367Y-8310828D02*
X4637367Y-8329876D01*
X4637367Y-8206067D02*
X4646890Y-8215590D01*
X4646890Y-8215590D02*
X4637367Y-8225114D01*
X4637367Y-8225114D02*
X4627843Y-8215590D01*
X4627843Y-8215590D02*
X4637367Y-8206067D01*
X4637367Y-8206067D02*
X4637367Y-8225114D01*
D11*
X2955700Y-8628900D02*
X3050700Y-8723900D01*
X3050700Y-8628900D02*
X2955700Y-8723900D01*
D10*
X3336414Y-8549876D02*
X3355462Y-8549876D01*
X3355462Y-8549876D02*
X3374509Y-8559400D01*
X3374509Y-8559400D02*
X3384033Y-8568924D01*
X3384033Y-8568924D02*
X3393557Y-8587971D01*
X3393557Y-8587971D02*
X3403081Y-8626067D01*
X3403081Y-8626067D02*
X3403081Y-8673686D01*
X3403081Y-8673686D02*
X3393557Y-8711781D01*
X3393557Y-8711781D02*
X3384033Y-8730829D01*
X3384033Y-8730829D02*
X3374509Y-8740352D01*
X3374509Y-8740352D02*
X3355462Y-8749876D01*
X3355462Y-8749876D02*
X3336414Y-8749876D01*
X3336414Y-8749876D02*
X3317367Y-8740352D01*
X3317367Y-8740352D02*
X3307843Y-8730829D01*
X3307843Y-8730829D02*
X3298319Y-8711781D01*
X3298319Y-8711781D02*
X3288795Y-8673686D01*
X3288795Y-8673686D02*
X3288795Y-8626067D01*
X3288795Y-8626067D02*
X3298319Y-8587971D01*
X3298319Y-8587971D02*
X3307843Y-8568924D01*
X3307843Y-8568924D02*
X3317367Y-8559400D01*
X3317367Y-8559400D02*
X3336414Y-8549876D01*
X3488795Y-8730829D02*
X3498319Y-8740352D01*
X3498319Y-8740352D02*
X3488795Y-8749876D01*
X3488795Y-8749876D02*
X3479271Y-8740352D01*
X3479271Y-8740352D02*
X3488795Y-8730829D01*
X3488795Y-8730829D02*
X3488795Y-8749876D01*
X3593557Y-8749876D02*
X3631652Y-8749876D01*
X3631652Y-8749876D02*
X3650700Y-8740352D01*
X3650700Y-8740352D02*
X3660224Y-8730829D01*
X3660224Y-8730829D02*
X3679271Y-8702257D01*
X3679271Y-8702257D02*
X3688795Y-8664162D01*
X3688795Y-8664162D02*
X3688795Y-8587971D01*
X3688795Y-8587971D02*
X3679271Y-8568924D01*
X3679271Y-8568924D02*
X3669748Y-8559400D01*
X3669748Y-8559400D02*
X3650700Y-8549876D01*
X3650700Y-8549876D02*
X3612605Y-8549876D01*
X3612605Y-8549876D02*
X3593557Y-8559400D01*
X3593557Y-8559400D02*
X3584033Y-8568924D01*
X3584033Y-8568924D02*
X3574509Y-8587971D01*
X3574509Y-8587971D02*
X3574509Y-8635590D01*
X3574509Y-8635590D02*
X3584033Y-8654638D01*
X3584033Y-8654638D02*
X3593557Y-8664162D01*
X3593557Y-8664162D02*
X3612605Y-8673686D01*
X3612605Y-8673686D02*
X3650700Y-8673686D01*
X3650700Y-8673686D02*
X3669748Y-8664162D01*
X3669748Y-8664162D02*
X3679271Y-8654638D01*
X3679271Y-8654638D02*
X3688795Y-8635590D01*
X3869748Y-8549876D02*
X3774509Y-8549876D01*
X3774509Y-8549876D02*
X3764986Y-8645114D01*
X3764986Y-8645114D02*
X3774509Y-8635590D01*
X3774509Y-8635590D02*
X3793557Y-8626067D01*
X3793557Y-8626067D02*
X3841176Y-8626067D01*
X3841176Y-8626067D02*
X3860224Y-8635590D01*
X3860224Y-8635590D02*
X3869748Y-8645114D01*
X3869748Y-8645114D02*
X3879271Y-8664162D01*
X3879271Y-8664162D02*
X3879271Y-8711781D01*
X3879271Y-8711781D02*
X3869748Y-8730829D01*
X3869748Y-8730829D02*
X3860224Y-8740352D01*
X3860224Y-8740352D02*
X3841176Y-8749876D01*
X3841176Y-8749876D02*
X3793557Y-8749876D01*
X3793557Y-8749876D02*
X3774509Y-8740352D01*
X3774509Y-8740352D02*
X3764986Y-8730829D01*
X4003081Y-8549876D02*
X4022129Y-8549876D01*
X4022129Y-8549876D02*
X4041176Y-8559400D01*
X4041176Y-8559400D02*
X4050700Y-8568924D01*
X4050700Y-8568924D02*
X4060224Y-8587971D01*
X4060224Y-8587971D02*
X4069748Y-8626067D01*
X4069748Y-8626067D02*
X4069748Y-8673686D01*
X4069748Y-8673686D02*
X4060224Y-8711781D01*
X4060224Y-8711781D02*
X4050700Y-8730829D01*
X4050700Y-8730829D02*
X4041176Y-8740352D01*
X4041176Y-8740352D02*
X4022129Y-8749876D01*
X4022129Y-8749876D02*
X4003081Y-8749876D01*
X4003081Y-8749876D02*
X3984033Y-8740352D01*
X3984033Y-8740352D02*
X3974509Y-8730829D01*
X3974509Y-8730829D02*
X3964986Y-8711781D01*
X3964986Y-8711781D02*
X3955462Y-8673686D01*
X3955462Y-8673686D02*
X3955462Y-8626067D01*
X3955462Y-8626067D02*
X3964986Y-8587971D01*
X3964986Y-8587971D02*
X3974509Y-8568924D01*
X3974509Y-8568924D02*
X3984033Y-8559400D01*
X3984033Y-8559400D02*
X4003081Y-8549876D01*
X4155462Y-8749876D02*
X4155462Y-8616543D01*
X4155462Y-8635590D02*
X4164986Y-8626067D01*
X4164986Y-8626067D02*
X4184033Y-8616543D01*
X4184033Y-8616543D02*
X4212605Y-8616543D01*
X4212605Y-8616543D02*
X4231652Y-8626067D01*
X4231652Y-8626067D02*
X4241176Y-8645114D01*
X4241176Y-8645114D02*
X4241176Y-8749876D01*
X4241176Y-8645114D02*
X4250700Y-8626067D01*
X4250700Y-8626067D02*
X4269748Y-8616543D01*
X4269748Y-8616543D02*
X4298319Y-8616543D01*
X4298319Y-8616543D02*
X4317367Y-8626067D01*
X4317367Y-8626067D02*
X4326891Y-8645114D01*
X4326891Y-8645114D02*
X4326891Y-8749876D01*
X4422129Y-8749876D02*
X4422129Y-8616543D01*
X4422129Y-8635590D02*
X4431652Y-8626067D01*
X4431652Y-8626067D02*
X4450700Y-8616543D01*
X4450700Y-8616543D02*
X4479272Y-8616543D01*
X4479272Y-8616543D02*
X4498319Y-8626067D01*
X4498319Y-8626067D02*
X4507843Y-8645114D01*
X4507843Y-8645114D02*
X4507843Y-8749876D01*
X4507843Y-8645114D02*
X4517367Y-8626067D01*
X4517367Y-8626067D02*
X4536414Y-8616543D01*
X4536414Y-8616543D02*
X4564986Y-8616543D01*
X4564986Y-8616543D02*
X4584033Y-8626067D01*
X4584033Y-8626067D02*
X4593557Y-8645114D01*
X4593557Y-8645114D02*
X4593557Y-8749876D01*
X4951652Y-8540352D02*
X4780224Y-8797495D01*
X5176414Y-8549876D02*
X5195462Y-8549876D01*
X5195462Y-8549876D02*
X5214510Y-8559400D01*
X5214510Y-8559400D02*
X5224033Y-8568924D01*
X5224033Y-8568924D02*
X5233557Y-8587971D01*
X5233557Y-8587971D02*
X5243081Y-8626067D01*
X5243081Y-8626067D02*
X5243081Y-8673686D01*
X5243081Y-8673686D02*
X5233557Y-8711781D01*
X5233557Y-8711781D02*
X5224033Y-8730829D01*
X5224033Y-8730829D02*
X5214510Y-8740352D01*
X5214510Y-8740352D02*
X5195462Y-8749876D01*
X5195462Y-8749876D02*
X5176414Y-8749876D01*
X5176414Y-8749876D02*
X5157367Y-8740352D01*
X5157367Y-8740352D02*
X5147843Y-8730829D01*
X5147843Y-8730829D02*
X5138319Y-8711781D01*
X5138319Y-8711781D02*
X5128795Y-8673686D01*
X5128795Y-8673686D02*
X5128795Y-8626067D01*
X5128795Y-8626067D02*
X5138319Y-8587971D01*
X5138319Y-8587971D02*
X5147843Y-8568924D01*
X5147843Y-8568924D02*
X5157367Y-8559400D01*
X5157367Y-8559400D02*
X5176414Y-8549876D01*
X5328795Y-8730829D02*
X5338319Y-8740352D01*
X5338319Y-8740352D02*
X5328795Y-8749876D01*
X5328795Y-8749876D02*
X5319272Y-8740352D01*
X5319272Y-8740352D02*
X5328795Y-8730829D01*
X5328795Y-8730829D02*
X5328795Y-8749876D01*
X5462129Y-8549876D02*
X5481176Y-8549876D01*
X5481176Y-8549876D02*
X5500224Y-8559400D01*
X5500224Y-8559400D02*
X5509748Y-8568924D01*
X5509748Y-8568924D02*
X5519272Y-8587971D01*
X5519272Y-8587971D02*
X5528795Y-8626067D01*
X5528795Y-8626067D02*
X5528795Y-8673686D01*
X5528795Y-8673686D02*
X5519272Y-8711781D01*
X5519272Y-8711781D02*
X5509748Y-8730829D01*
X5509748Y-8730829D02*
X5500224Y-8740352D01*
X5500224Y-8740352D02*
X5481176Y-8749876D01*
X5481176Y-8749876D02*
X5462129Y-8749876D01*
X5462129Y-8749876D02*
X5443081Y-8740352D01*
X5443081Y-8740352D02*
X5433557Y-8730829D01*
X5433557Y-8730829D02*
X5424033Y-8711781D01*
X5424033Y-8711781D02*
X5414510Y-8673686D01*
X5414510Y-8673686D02*
X5414510Y-8626067D01*
X5414510Y-8626067D02*
X5424033Y-8587971D01*
X5424033Y-8587971D02*
X5433557Y-8568924D01*
X5433557Y-8568924D02*
X5443081Y-8559400D01*
X5443081Y-8559400D02*
X5462129Y-8549876D01*
X5595462Y-8549876D02*
X5719271Y-8549876D01*
X5719271Y-8549876D02*
X5652605Y-8626067D01*
X5652605Y-8626067D02*
X5681176Y-8626067D01*
X5681176Y-8626067D02*
X5700224Y-8635590D01*
X5700224Y-8635590D02*
X5709748Y-8645114D01*
X5709748Y-8645114D02*
X5719271Y-8664162D01*
X5719271Y-8664162D02*
X5719271Y-8711781D01*
X5719271Y-8711781D02*
X5709748Y-8730829D01*
X5709748Y-8730829D02*
X5700224Y-8740352D01*
X5700224Y-8740352D02*
X5681176Y-8749876D01*
X5681176Y-8749876D02*
X5624033Y-8749876D01*
X5624033Y-8749876D02*
X5604986Y-8740352D01*
X5604986Y-8740352D02*
X5595462Y-8730829D01*
X5785938Y-8549876D02*
X5919271Y-8549876D01*
X5919271Y-8549876D02*
X5833557Y-8749876D01*
X6081176Y-8616543D02*
X6081176Y-8749876D01*
X6033557Y-8540352D02*
X5985938Y-8683210D01*
X5985938Y-8683210D02*
X6109748Y-8683210D01*
X6176414Y-8549876D02*
X6176414Y-8587971D01*
X6252605Y-8549876D02*
X6252605Y-8587971D01*
X6515462Y-8826067D02*
X6505938Y-8816543D01*
X6505938Y-8816543D02*
X6486891Y-8787971D01*
X6486891Y-8787971D02*
X6477367Y-8768924D01*
X6477367Y-8768924D02*
X6467843Y-8740352D01*
X6467843Y-8740352D02*
X6458319Y-8692733D01*
X6458319Y-8692733D02*
X6458319Y-8654638D01*
X6458319Y-8654638D02*
X6467843Y-8607019D01*
X6467843Y-8607019D02*
X6477367Y-8578448D01*
X6477367Y-8578448D02*
X6486891Y-8559400D01*
X6486891Y-8559400D02*
X6505938Y-8530829D01*
X6505938Y-8530829D02*
X6515462Y-8521305D01*
X6572605Y-8549876D02*
X6696414Y-8549876D01*
X6696414Y-8549876D02*
X6629748Y-8626067D01*
X6629748Y-8626067D02*
X6658319Y-8626067D01*
X6658319Y-8626067D02*
X6677367Y-8635590D01*
X6677367Y-8635590D02*
X6686891Y-8645114D01*
X6686891Y-8645114D02*
X6696414Y-8664162D01*
X6696414Y-8664162D02*
X6696414Y-8711781D01*
X6696414Y-8711781D02*
X6686891Y-8730829D01*
X6686891Y-8730829D02*
X6677367Y-8740352D01*
X6677367Y-8740352D02*
X6658319Y-8749876D01*
X6658319Y-8749876D02*
X6601176Y-8749876D01*
X6601176Y-8749876D02*
X6582129Y-8740352D01*
X6582129Y-8740352D02*
X6572605Y-8730829D01*
X6902129Y-8749876D02*
X6902129Y-8549876D01*
X6987843Y-8749876D02*
X6987843Y-8645114D01*
X6987843Y-8645114D02*
X6978319Y-8626067D01*
X6978319Y-8626067D02*
X6959272Y-8616543D01*
X6959272Y-8616543D02*
X6930700Y-8616543D01*
X6930700Y-8616543D02*
X6911652Y-8626067D01*
X6911652Y-8626067D02*
X6902129Y-8635590D01*
X7111652Y-8749876D02*
X7092605Y-8740352D01*
X7092605Y-8740352D02*
X7083081Y-8730829D01*
X7083081Y-8730829D02*
X7073557Y-8711781D01*
X7073557Y-8711781D02*
X7073557Y-8654638D01*
X7073557Y-8654638D02*
X7083081Y-8635590D01*
X7083081Y-8635590D02*
X7092605Y-8626067D01*
X7092605Y-8626067D02*
X7111652Y-8616543D01*
X7111652Y-8616543D02*
X7140224Y-8616543D01*
X7140224Y-8616543D02*
X7159272Y-8626067D01*
X7159272Y-8626067D02*
X7168795Y-8635590D01*
X7168795Y-8635590D02*
X7178319Y-8654638D01*
X7178319Y-8654638D02*
X7178319Y-8711781D01*
X7178319Y-8711781D02*
X7168795Y-8730829D01*
X7168795Y-8730829D02*
X7159272Y-8740352D01*
X7159272Y-8740352D02*
X7140224Y-8749876D01*
X7140224Y-8749876D02*
X7111652Y-8749876D01*
X7292605Y-8749876D02*
X7273557Y-8740352D01*
X7273557Y-8740352D02*
X7264033Y-8721305D01*
X7264033Y-8721305D02*
X7264033Y-8549876D01*
X7444986Y-8740352D02*
X7425938Y-8749876D01*
X7425938Y-8749876D02*
X7387843Y-8749876D01*
X7387843Y-8749876D02*
X7368795Y-8740352D01*
X7368795Y-8740352D02*
X7359272Y-8721305D01*
X7359272Y-8721305D02*
X7359272Y-8645114D01*
X7359272Y-8645114D02*
X7368795Y-8626067D01*
X7368795Y-8626067D02*
X7387843Y-8616543D01*
X7387843Y-8616543D02*
X7425938Y-8616543D01*
X7425938Y-8616543D02*
X7444986Y-8626067D01*
X7444986Y-8626067D02*
X7454510Y-8645114D01*
X7454510Y-8645114D02*
X7454510Y-8664162D01*
X7454510Y-8664162D02*
X7359272Y-8683210D01*
X7530700Y-8740352D02*
X7549748Y-8749876D01*
X7549748Y-8749876D02*
X7587843Y-8749876D01*
X7587843Y-8749876D02*
X7606891Y-8740352D01*
X7606891Y-8740352D02*
X7616414Y-8721305D01*
X7616414Y-8721305D02*
X7616414Y-8711781D01*
X7616414Y-8711781D02*
X7606891Y-8692733D01*
X7606891Y-8692733D02*
X7587843Y-8683210D01*
X7587843Y-8683210D02*
X7559272Y-8683210D01*
X7559272Y-8683210D02*
X7540224Y-8673686D01*
X7540224Y-8673686D02*
X7530700Y-8654638D01*
X7530700Y-8654638D02*
X7530700Y-8645114D01*
X7530700Y-8645114D02*
X7540224Y-8626067D01*
X7540224Y-8626067D02*
X7559272Y-8616543D01*
X7559272Y-8616543D02*
X7587843Y-8616543D01*
X7587843Y-8616543D02*
X7606891Y-8626067D01*
X7683081Y-8826067D02*
X7692605Y-8816543D01*
X7692605Y-8816543D02*
X7711653Y-8787971D01*
X7711653Y-8787971D02*
X7721176Y-8768924D01*
X7721176Y-8768924D02*
X7730700Y-8740352D01*
X7730700Y-8740352D02*
X7740224Y-8692733D01*
X7740224Y-8692733D02*
X7740224Y-8654638D01*
X7740224Y-8654638D02*
X7730700Y-8607019D01*
X7730700Y-8607019D02*
X7721176Y-8578448D01*
X7721176Y-8578448D02*
X7711653Y-8559400D01*
X7711653Y-8559400D02*
X7692605Y-8530829D01*
X7692605Y-8530829D02*
X7683081Y-8521305D01*
X3050700Y-8940400D02*
G75*
G03*
X3050700Y-8940400I-100000J0D01*
G01*
X3288795Y-8832924D02*
X3298319Y-8823400D01*
X3298319Y-8823400D02*
X3317367Y-8813876D01*
X3317367Y-8813876D02*
X3364986Y-8813876D01*
X3364986Y-8813876D02*
X3384033Y-8823400D01*
X3384033Y-8823400D02*
X3393557Y-8832924D01*
X3393557Y-8832924D02*
X3403081Y-8851971D01*
X3403081Y-8851971D02*
X3403081Y-8871019D01*
X3403081Y-8871019D02*
X3393557Y-8899590D01*
X3393557Y-8899590D02*
X3279271Y-9013876D01*
X3279271Y-9013876D02*
X3403081Y-9013876D01*
X3488795Y-8994829D02*
X3498319Y-9004352D01*
X3498319Y-9004352D02*
X3488795Y-9013876D01*
X3488795Y-9013876D02*
X3479271Y-9004352D01*
X3479271Y-9004352D02*
X3488795Y-8994829D01*
X3488795Y-8994829D02*
X3488795Y-9013876D01*
X3688795Y-9013876D02*
X3574509Y-9013876D01*
X3631652Y-9013876D02*
X3631652Y-8813876D01*
X3631652Y-8813876D02*
X3612605Y-8842448D01*
X3612605Y-8842448D02*
X3593557Y-8861495D01*
X3593557Y-8861495D02*
X3574509Y-8871019D01*
X3812605Y-8813876D02*
X3831652Y-8813876D01*
X3831652Y-8813876D02*
X3850700Y-8823400D01*
X3850700Y-8823400D02*
X3860224Y-8832924D01*
X3860224Y-8832924D02*
X3869748Y-8851971D01*
X3869748Y-8851971D02*
X3879271Y-8890067D01*
X3879271Y-8890067D02*
X3879271Y-8937686D01*
X3879271Y-8937686D02*
X3869748Y-8975781D01*
X3869748Y-8975781D02*
X3860224Y-8994829D01*
X3860224Y-8994829D02*
X3850700Y-9004352D01*
X3850700Y-9004352D02*
X3831652Y-9013876D01*
X3831652Y-9013876D02*
X3812605Y-9013876D01*
X3812605Y-9013876D02*
X3793557Y-9004352D01*
X3793557Y-9004352D02*
X3784033Y-8994829D01*
X3784033Y-8994829D02*
X3774509Y-8975781D01*
X3774509Y-8975781D02*
X3764986Y-8937686D01*
X3764986Y-8937686D02*
X3764986Y-8890067D01*
X3764986Y-8890067D02*
X3774509Y-8851971D01*
X3774509Y-8851971D02*
X3784033Y-8832924D01*
X3784033Y-8832924D02*
X3793557Y-8823400D01*
X3793557Y-8823400D02*
X3812605Y-8813876D01*
X4003081Y-8813876D02*
X4022129Y-8813876D01*
X4022129Y-8813876D02*
X4041176Y-8823400D01*
X4041176Y-8823400D02*
X4050700Y-8832924D01*
X4050700Y-8832924D02*
X4060224Y-8851971D01*
X4060224Y-8851971D02*
X4069748Y-8890067D01*
X4069748Y-8890067D02*
X4069748Y-8937686D01*
X4069748Y-8937686D02*
X4060224Y-8975781D01*
X4060224Y-8975781D02*
X4050700Y-8994829D01*
X4050700Y-8994829D02*
X4041176Y-9004352D01*
X4041176Y-9004352D02*
X4022129Y-9013876D01*
X4022129Y-9013876D02*
X4003081Y-9013876D01*
X4003081Y-9013876D02*
X3984033Y-9004352D01*
X3984033Y-9004352D02*
X3974509Y-8994829D01*
X3974509Y-8994829D02*
X3964986Y-8975781D01*
X3964986Y-8975781D02*
X3955462Y-8937686D01*
X3955462Y-8937686D02*
X3955462Y-8890067D01*
X3955462Y-8890067D02*
X3964986Y-8851971D01*
X3964986Y-8851971D02*
X3974509Y-8832924D01*
X3974509Y-8832924D02*
X3984033Y-8823400D01*
X3984033Y-8823400D02*
X4003081Y-8813876D01*
X4155462Y-9013876D02*
X4155462Y-8880543D01*
X4155462Y-8899590D02*
X4164986Y-8890067D01*
X4164986Y-8890067D02*
X4184033Y-8880543D01*
X4184033Y-8880543D02*
X4212605Y-8880543D01*
X4212605Y-8880543D02*
X4231652Y-8890067D01*
X4231652Y-8890067D02*
X4241176Y-8909114D01*
X4241176Y-8909114D02*
X4241176Y-9013876D01*
X4241176Y-8909114D02*
X4250700Y-8890067D01*
X4250700Y-8890067D02*
X4269748Y-8880543D01*
X4269748Y-8880543D02*
X4298319Y-8880543D01*
X4298319Y-8880543D02*
X4317367Y-8890067D01*
X4317367Y-8890067D02*
X4326891Y-8909114D01*
X4326891Y-8909114D02*
X4326891Y-9013876D01*
X4422129Y-9013876D02*
X4422129Y-8880543D01*
X4422129Y-8899590D02*
X4431652Y-8890067D01*
X4431652Y-8890067D02*
X4450700Y-8880543D01*
X4450700Y-8880543D02*
X4479272Y-8880543D01*
X4479272Y-8880543D02*
X4498319Y-8890067D01*
X4498319Y-8890067D02*
X4507843Y-8909114D01*
X4507843Y-8909114D02*
X4507843Y-9013876D01*
X4507843Y-8909114D02*
X4517367Y-8890067D01*
X4517367Y-8890067D02*
X4536414Y-8880543D01*
X4536414Y-8880543D02*
X4564986Y-8880543D01*
X4564986Y-8880543D02*
X4584033Y-8890067D01*
X4584033Y-8890067D02*
X4593557Y-8909114D01*
X4593557Y-8909114D02*
X4593557Y-9013876D01*
X4951652Y-8804352D02*
X4780224Y-9061495D01*
X5176414Y-8813876D02*
X5195462Y-8813876D01*
X5195462Y-8813876D02*
X5214510Y-8823400D01*
X5214510Y-8823400D02*
X5224033Y-8832924D01*
X5224033Y-8832924D02*
X5233557Y-8851971D01*
X5233557Y-8851971D02*
X5243081Y-8890067D01*
X5243081Y-8890067D02*
X5243081Y-8937686D01*
X5243081Y-8937686D02*
X5233557Y-8975781D01*
X5233557Y-8975781D02*
X5224033Y-8994829D01*
X5224033Y-8994829D02*
X5214510Y-9004352D01*
X5214510Y-9004352D02*
X5195462Y-9013876D01*
X5195462Y-9013876D02*
X5176414Y-9013876D01*
X5176414Y-9013876D02*
X5157367Y-9004352D01*
X5157367Y-9004352D02*
X5147843Y-8994829D01*
X5147843Y-8994829D02*
X5138319Y-8975781D01*
X5138319Y-8975781D02*
X5128795Y-8937686D01*
X5128795Y-8937686D02*
X5128795Y-8890067D01*
X5128795Y-8890067D02*
X5138319Y-8851971D01*
X5138319Y-8851971D02*
X5147843Y-8832924D01*
X5147843Y-8832924D02*
X5157367Y-8823400D01*
X5157367Y-8823400D02*
X5176414Y-8813876D01*
X5328795Y-8994829D02*
X5338319Y-9004352D01*
X5338319Y-9004352D02*
X5328795Y-9013876D01*
X5328795Y-9013876D02*
X5319272Y-9004352D01*
X5319272Y-9004352D02*
X5328795Y-8994829D01*
X5328795Y-8994829D02*
X5328795Y-9013876D01*
X5462129Y-8813876D02*
X5481176Y-8813876D01*
X5481176Y-8813876D02*
X5500224Y-8823400D01*
X5500224Y-8823400D02*
X5509748Y-8832924D01*
X5509748Y-8832924D02*
X5519272Y-8851971D01*
X5519272Y-8851971D02*
X5528795Y-8890067D01*
X5528795Y-8890067D02*
X5528795Y-8937686D01*
X5528795Y-8937686D02*
X5519272Y-8975781D01*
X5519272Y-8975781D02*
X5509748Y-8994829D01*
X5509748Y-8994829D02*
X5500224Y-9004352D01*
X5500224Y-9004352D02*
X5481176Y-9013876D01*
X5481176Y-9013876D02*
X5462129Y-9013876D01*
X5462129Y-9013876D02*
X5443081Y-9004352D01*
X5443081Y-9004352D02*
X5433557Y-8994829D01*
X5433557Y-8994829D02*
X5424033Y-8975781D01*
X5424033Y-8975781D02*
X5414510Y-8937686D01*
X5414510Y-8937686D02*
X5414510Y-8890067D01*
X5414510Y-8890067D02*
X5424033Y-8851971D01*
X5424033Y-8851971D02*
X5433557Y-8832924D01*
X5433557Y-8832924D02*
X5443081Y-8823400D01*
X5443081Y-8823400D02*
X5462129Y-8813876D01*
X5643081Y-8899590D02*
X5624033Y-8890067D01*
X5624033Y-8890067D02*
X5614510Y-8880543D01*
X5614510Y-8880543D02*
X5604986Y-8861495D01*
X5604986Y-8861495D02*
X5604986Y-8851971D01*
X5604986Y-8851971D02*
X5614510Y-8832924D01*
X5614510Y-8832924D02*
X5624033Y-8823400D01*
X5624033Y-8823400D02*
X5643081Y-8813876D01*
X5643081Y-8813876D02*
X5681176Y-8813876D01*
X5681176Y-8813876D02*
X5700224Y-8823400D01*
X5700224Y-8823400D02*
X5709748Y-8832924D01*
X5709748Y-8832924D02*
X5719271Y-8851971D01*
X5719271Y-8851971D02*
X5719271Y-8861495D01*
X5719271Y-8861495D02*
X5709748Y-8880543D01*
X5709748Y-8880543D02*
X5700224Y-8890067D01*
X5700224Y-8890067D02*
X5681176Y-8899590D01*
X5681176Y-8899590D02*
X5643081Y-8899590D01*
X5643081Y-8899590D02*
X5624033Y-8909114D01*
X5624033Y-8909114D02*
X5614510Y-8918638D01*
X5614510Y-8918638D02*
X5604986Y-8937686D01*
X5604986Y-8937686D02*
X5604986Y-8975781D01*
X5604986Y-8975781D02*
X5614510Y-8994829D01*
X5614510Y-8994829D02*
X5624033Y-9004352D01*
X5624033Y-9004352D02*
X5643081Y-9013876D01*
X5643081Y-9013876D02*
X5681176Y-9013876D01*
X5681176Y-9013876D02*
X5700224Y-9004352D01*
X5700224Y-9004352D02*
X5709748Y-8994829D01*
X5709748Y-8994829D02*
X5719271Y-8975781D01*
X5719271Y-8975781D02*
X5719271Y-8937686D01*
X5719271Y-8937686D02*
X5709748Y-8918638D01*
X5709748Y-8918638D02*
X5700224Y-8909114D01*
X5700224Y-8909114D02*
X5681176Y-8899590D01*
X5795462Y-8832924D02*
X5804986Y-8823400D01*
X5804986Y-8823400D02*
X5824033Y-8813876D01*
X5824033Y-8813876D02*
X5871652Y-8813876D01*
X5871652Y-8813876D02*
X5890700Y-8823400D01*
X5890700Y-8823400D02*
X5900224Y-8832924D01*
X5900224Y-8832924D02*
X5909748Y-8851971D01*
X5909748Y-8851971D02*
X5909748Y-8871019D01*
X5909748Y-8871019D02*
X5900224Y-8899590D01*
X5900224Y-8899590D02*
X5785938Y-9013876D01*
X5785938Y-9013876D02*
X5909748Y-9013876D01*
X5976414Y-8813876D02*
X6109748Y-8813876D01*
X6109748Y-8813876D02*
X6024033Y-9013876D01*
X6176414Y-8813876D02*
X6176414Y-8851971D01*
X6252605Y-8813876D02*
X6252605Y-8851971D01*
X6515462Y-9090067D02*
X6505938Y-9080543D01*
X6505938Y-9080543D02*
X6486891Y-9051971D01*
X6486891Y-9051971D02*
X6477367Y-9032924D01*
X6477367Y-9032924D02*
X6467843Y-9004352D01*
X6467843Y-9004352D02*
X6458319Y-8956733D01*
X6458319Y-8956733D02*
X6458319Y-8918638D01*
X6458319Y-8918638D02*
X6467843Y-8871019D01*
X6467843Y-8871019D02*
X6477367Y-8842448D01*
X6477367Y-8842448D02*
X6486891Y-8823400D01*
X6486891Y-8823400D02*
X6505938Y-8794829D01*
X6505938Y-8794829D02*
X6515462Y-8785305D01*
X6572605Y-8813876D02*
X6696414Y-8813876D01*
X6696414Y-8813876D02*
X6629748Y-8890067D01*
X6629748Y-8890067D02*
X6658319Y-8890067D01*
X6658319Y-8890067D02*
X6677367Y-8899590D01*
X6677367Y-8899590D02*
X6686891Y-8909114D01*
X6686891Y-8909114D02*
X6696414Y-8928162D01*
X6696414Y-8928162D02*
X6696414Y-8975781D01*
X6696414Y-8975781D02*
X6686891Y-8994829D01*
X6686891Y-8994829D02*
X6677367Y-9004352D01*
X6677367Y-9004352D02*
X6658319Y-9013876D01*
X6658319Y-9013876D02*
X6601176Y-9013876D01*
X6601176Y-9013876D02*
X6582129Y-9004352D01*
X6582129Y-9004352D02*
X6572605Y-8994829D01*
X6902129Y-9013876D02*
X6902129Y-8813876D01*
X6987843Y-9013876D02*
X6987843Y-8909114D01*
X6987843Y-8909114D02*
X6978319Y-8890067D01*
X6978319Y-8890067D02*
X6959272Y-8880543D01*
X6959272Y-8880543D02*
X6930700Y-8880543D01*
X6930700Y-8880543D02*
X6911652Y-8890067D01*
X6911652Y-8890067D02*
X6902129Y-8899590D01*
X7111652Y-9013876D02*
X7092605Y-9004352D01*
X7092605Y-9004352D02*
X7083081Y-8994829D01*
X7083081Y-8994829D02*
X7073557Y-8975781D01*
X7073557Y-8975781D02*
X7073557Y-8918638D01*
X7073557Y-8918638D02*
X7083081Y-8899590D01*
X7083081Y-8899590D02*
X7092605Y-8890067D01*
X7092605Y-8890067D02*
X7111652Y-8880543D01*
X7111652Y-8880543D02*
X7140224Y-8880543D01*
X7140224Y-8880543D02*
X7159272Y-8890067D01*
X7159272Y-8890067D02*
X7168795Y-8899590D01*
X7168795Y-8899590D02*
X7178319Y-8918638D01*
X7178319Y-8918638D02*
X7178319Y-8975781D01*
X7178319Y-8975781D02*
X7168795Y-8994829D01*
X7168795Y-8994829D02*
X7159272Y-9004352D01*
X7159272Y-9004352D02*
X7140224Y-9013876D01*
X7140224Y-9013876D02*
X7111652Y-9013876D01*
X7292605Y-9013876D02*
X7273557Y-9004352D01*
X7273557Y-9004352D02*
X7264033Y-8985305D01*
X7264033Y-8985305D02*
X7264033Y-8813876D01*
X7444986Y-9004352D02*
X7425938Y-9013876D01*
X7425938Y-9013876D02*
X7387843Y-9013876D01*
X7387843Y-9013876D02*
X7368795Y-9004352D01*
X7368795Y-9004352D02*
X7359272Y-8985305D01*
X7359272Y-8985305D02*
X7359272Y-8909114D01*
X7359272Y-8909114D02*
X7368795Y-8890067D01*
X7368795Y-8890067D02*
X7387843Y-8880543D01*
X7387843Y-8880543D02*
X7425938Y-8880543D01*
X7425938Y-8880543D02*
X7444986Y-8890067D01*
X7444986Y-8890067D02*
X7454510Y-8909114D01*
X7454510Y-8909114D02*
X7454510Y-8928162D01*
X7454510Y-8928162D02*
X7359272Y-8947210D01*
X7530700Y-9004352D02*
X7549748Y-9013876D01*
X7549748Y-9013876D02*
X7587843Y-9013876D01*
X7587843Y-9013876D02*
X7606891Y-9004352D01*
X7606891Y-9004352D02*
X7616414Y-8985305D01*
X7616414Y-8985305D02*
X7616414Y-8975781D01*
X7616414Y-8975781D02*
X7606891Y-8956733D01*
X7606891Y-8956733D02*
X7587843Y-8947210D01*
X7587843Y-8947210D02*
X7559272Y-8947210D01*
X7559272Y-8947210D02*
X7540224Y-8937686D01*
X7540224Y-8937686D02*
X7530700Y-8918638D01*
X7530700Y-8918638D02*
X7530700Y-8909114D01*
X7530700Y-8909114D02*
X7540224Y-8890067D01*
X7540224Y-8890067D02*
X7559272Y-8880543D01*
X7559272Y-8880543D02*
X7587843Y-8880543D01*
X7587843Y-8880543D02*
X7606891Y-8890067D01*
X7683081Y-9090067D02*
X7692605Y-9080543D01*
X7692605Y-9080543D02*
X7711653Y-9051971D01*
X7711653Y-9051971D02*
X7721176Y-9032924D01*
X7721176Y-9032924D02*
X7730700Y-9004352D01*
X7730700Y-9004352D02*
X7740224Y-8956733D01*
X7740224Y-8956733D02*
X7740224Y-8918638D01*
X7740224Y-8918638D02*
X7730700Y-8871019D01*
X7730700Y-8871019D02*
X7721176Y-8842448D01*
X7721176Y-8842448D02*
X7711653Y-8823400D01*
X7711653Y-8823400D02*
X7692605Y-8794829D01*
X7692605Y-8794829D02*
X7683081Y-8785305D01*
M02*
