%TF.GenerationSoftware,KiCad,Pcbnew,7.0.9*%
%TF.CreationDate,2023-11-12T11:40:10+01:00*%
%TF.ProjectId,CO2-PwrSupply,434f322d-5077-4725-9375-70706c792e6b,1.1*%
%TF.SameCoordinates,Original*%
%TF.FileFunction,Legend,Top*%
%TF.FilePolarity,Positive*%
%FSLAX46Y46*%
G04 Gerber Fmt 4.6, Leading zero omitted, Abs format (unit mm)*
G04 Created by KiCad (PCBNEW 7.0.9) date 2023-11-12 11:40:10*
%MOMM*%
%LPD*%
G01*
G04 APERTURE LIST*
%ADD10C,0.200004*%
%ADD11C,0.150000*%
%ADD12C,0.120000*%
G04 APERTURE END LIST*
D10*
X90457272Y-41082083D02*
X90452284Y-41094553D01*
X90870981Y-35692611D02*
X90878225Y-35703753D01*
X91226422Y-35475941D02*
X91211731Y-35454283D01*
X89785930Y-35712551D02*
X89754482Y-35732152D01*
X90803014Y-41323636D02*
X92195394Y-41323636D01*
X92157453Y-36539931D02*
X92143138Y-36501599D01*
X89662774Y-36948970D02*
X89667409Y-36925306D01*
X90469667Y-28652369D02*
X90430196Y-28656497D01*
X89346548Y-36115349D02*
X89324046Y-36146720D01*
X91956644Y-38087288D02*
X91978464Y-38055316D01*
X90356588Y-31711613D02*
X90376731Y-31720099D01*
X91372507Y-37756080D02*
X91356241Y-37772334D01*
X90690730Y-30399622D02*
X90665517Y-30398282D01*
X90460390Y-31747804D02*
X90482018Y-31753113D01*
X91002047Y-35259633D02*
X90979168Y-35246451D01*
X90433958Y-36030749D02*
X90425204Y-36020784D01*
X90374932Y-29378175D02*
X90397821Y-29372638D01*
X90426604Y-41141198D02*
X90418838Y-41151964D01*
X89137501Y-37732223D02*
X89152895Y-37770121D01*
X89878979Y-41599171D02*
X89899530Y-41609126D01*
X90990469Y-34944324D02*
X91020778Y-34949003D01*
X90519364Y-30836827D02*
X90531699Y-30831326D01*
X90285807Y-29405508D02*
X90307724Y-29397900D01*
X89766297Y-37582479D02*
X89755117Y-37562496D01*
X91671265Y-38396068D02*
X91700385Y-38371500D01*
X91777657Y-34060337D02*
X91763790Y-34021437D01*
X90152035Y-36335836D02*
X90177762Y-36359525D01*
X89325276Y-38082573D02*
X89348082Y-38114031D01*
X90846193Y-31268967D02*
X90836972Y-31278505D01*
X90482507Y-38042124D02*
X90458379Y-38038653D01*
X91126709Y-35355262D02*
X91107540Y-35337461D01*
X90919427Y-28667507D02*
X90880586Y-28661543D01*
X90291747Y-40307651D02*
X90268077Y-40304835D01*
X89084757Y-41323636D02*
X89588384Y-41323636D01*
X92194539Y-36657508D02*
X92183155Y-36617886D01*
X91214668Y-30696620D02*
X91200896Y-30677524D01*
X91862335Y-38208824D02*
X91886969Y-38179391D01*
X92010164Y-29464364D02*
X91992076Y-29430022D01*
X90210026Y-40713434D02*
X90224164Y-40714494D01*
X89950913Y-28793360D02*
X89917066Y-28809955D01*
X89528285Y-38315800D02*
X89556734Y-38341905D01*
X90468515Y-40932352D02*
X90470965Y-40945872D01*
X89951476Y-35625152D02*
X89917259Y-35641219D01*
X90863215Y-30920063D02*
X90870981Y-30930830D01*
X89925992Y-41056296D02*
X89922882Y-41043012D01*
X89612015Y-41362042D02*
X89624744Y-41380616D01*
X90909782Y-31152959D02*
X90906028Y-31165989D01*
X92128030Y-29760806D02*
X92116298Y-29721972D01*
X90589419Y-30399622D02*
X90539743Y-30404912D01*
X90795755Y-35618431D02*
X90806674Y-35626088D01*
X89723585Y-35752462D02*
X89693241Y-35773480D01*
X90461651Y-41069325D02*
X90457272Y-41082083D01*
X90229918Y-30529601D02*
X90192573Y-30558462D01*
X90933681Y-38729709D02*
X90973024Y-38722623D01*
X91423037Y-36522570D02*
X91437428Y-36540030D01*
X90445677Y-34461853D02*
X90454748Y-34490096D01*
X91429391Y-35683144D02*
X91396942Y-35665628D01*
X91490418Y-36613811D02*
X91502517Y-36633239D01*
X90540257Y-29350409D02*
X90564847Y-29348547D01*
X89666865Y-28970244D02*
X89638169Y-28993714D01*
X90801843Y-28652369D02*
X90761938Y-28649157D01*
X91383783Y-34199990D02*
X91386894Y-34213274D01*
X89549783Y-35889217D02*
X89522742Y-35914496D01*
X90590265Y-28645487D02*
X90549702Y-28646864D01*
X90181058Y-29450437D02*
X90201277Y-29440621D01*
X92019298Y-36249716D02*
X91998637Y-36216340D01*
X90859099Y-36498010D02*
X90893119Y-36485923D01*
X90015979Y-29557137D02*
X90032793Y-29543655D01*
X90074686Y-31484944D02*
X90100971Y-31518762D01*
X89920432Y-40945872D02*
X89922882Y-40932352D01*
X90018580Y-41199567D02*
X90008475Y-41190935D01*
X90852504Y-34174203D02*
X90857492Y-34161733D01*
X90340079Y-41222522D02*
X90328418Y-41229136D01*
X89634206Y-35817645D02*
X89605515Y-35840792D01*
X90039906Y-30736223D02*
X90017059Y-30777606D01*
X89767080Y-29909627D02*
X89775318Y-29888350D01*
X90611611Y-35572939D02*
X90625749Y-35571879D01*
X91240291Y-35498169D02*
X91226422Y-35475941D01*
X90544344Y-36104065D02*
X90531699Y-36099147D01*
X90957917Y-28674388D02*
X90919427Y-28667507D01*
X91564079Y-30113276D02*
X91566893Y-30137270D01*
X89188404Y-29645668D02*
X89175060Y-29683594D01*
X91477858Y-36594775D02*
X91490418Y-36613811D01*
X91810267Y-34268603D02*
X91808910Y-34225382D01*
X90882312Y-30440548D02*
X90859495Y-30432639D01*
X90896661Y-35739256D02*
X90901649Y-35751725D01*
X90409170Y-35999643D02*
X90401926Y-35988501D01*
X89385558Y-29268047D02*
X89364100Y-29299141D01*
X90224164Y-41260870D02*
X90210026Y-41261930D01*
X90409170Y-35692611D02*
X90416936Y-35681844D01*
X91570977Y-30186088D02*
X91572249Y-30210914D01*
X90544344Y-30826408D02*
X90557282Y-30822090D01*
X91277234Y-36386335D02*
X91300105Y-36403961D01*
X90627129Y-41526475D02*
X90661763Y-41497628D01*
X91071679Y-33997163D02*
X91085613Y-33995416D01*
X90457014Y-36508635D02*
X90492381Y-36517140D01*
X90878225Y-30941972D02*
X90884932Y-30953471D01*
X90806674Y-35626088D02*
X90817194Y-35634242D01*
X90315167Y-40311243D02*
X90291747Y-40307651D01*
X90878225Y-35703753D02*
X90884932Y-35715252D01*
X90476676Y-35178627D02*
X90425058Y-35192980D01*
X90788724Y-36516976D02*
X90824284Y-36508378D01*
X90030198Y-41654669D02*
X90053076Y-41659769D01*
X90378502Y-35940529D02*
X90374123Y-35927771D01*
X90433849Y-41130056D02*
X90426604Y-41141198D01*
X91289300Y-34933234D02*
X91313121Y-34926709D01*
X90709657Y-30818388D02*
X90722870Y-30822090D01*
X89097246Y-37615974D02*
X89109676Y-37655151D01*
X90640076Y-35159613D02*
X90584352Y-35161780D01*
X89123095Y-36532971D02*
X89109676Y-36571480D01*
X90594158Y-33812291D02*
X89883154Y-33525124D01*
X90836323Y-30425497D02*
X90812812Y-30419139D01*
X91328949Y-34093947D02*
X91337217Y-34104322D01*
X91192954Y-37900157D02*
X91173057Y-37912133D01*
X90678096Y-36531637D02*
X90715579Y-36528656D01*
X90076231Y-41664121D02*
X90099651Y-41667712D01*
X90401926Y-35703753D02*
X90409170Y-35692611D01*
X91365085Y-34149570D02*
X91370663Y-34161733D01*
X90482018Y-31753113D02*
X90503908Y-31757752D01*
X91057968Y-33999579D02*
X91071679Y-33997163D01*
X89726733Y-36745022D02*
X89736840Y-36723619D01*
X91114078Y-34955118D02*
X91139905Y-34954655D01*
X90462957Y-36058012D02*
X90452852Y-36049380D01*
X91798287Y-34141130D02*
X91789183Y-34100261D01*
X89033496Y-37287086D02*
X89037986Y-37329710D01*
X90729359Y-33696388D02*
X90710813Y-33708974D01*
X89085805Y-36649815D02*
X89075354Y-36689643D01*
X89793947Y-36621974D02*
X89806687Y-36602725D01*
X90050536Y-31449513D02*
X90074686Y-31484944D01*
X90049994Y-29530578D02*
X90067580Y-29517908D01*
X90557282Y-36108383D02*
X90544344Y-36104065D01*
X91044497Y-34002646D02*
X91057968Y-33999579D01*
X91608948Y-28970243D02*
X91579589Y-28947535D01*
X90841261Y-34323934D02*
X90838811Y-34310414D01*
X89084757Y-31449513D02*
X90050536Y-31449513D01*
X89963369Y-40340344D02*
X89920455Y-40356935D01*
X89393649Y-36054510D02*
X89369749Y-36084612D01*
X90640075Y-30397831D02*
X90589419Y-30399622D01*
X91001081Y-37991656D02*
X90978267Y-37999400D01*
X91023720Y-37983378D02*
X91001081Y-37991656D01*
X90854947Y-31259002D02*
X90846193Y-31268967D01*
X91130427Y-36333525D02*
X91154960Y-36308283D01*
X89764269Y-41526475D02*
X89782296Y-41540067D01*
X90017059Y-30777606D02*
X89706884Y-30777606D01*
X90779383Y-41362042D02*
X90803014Y-41323636D01*
X92195394Y-31449513D02*
X92195394Y-30262573D01*
X90316088Y-38722002D02*
X90355427Y-38729231D01*
X89858814Y-41588576D02*
X89878979Y-41599171D01*
X90351378Y-41215378D02*
X90340079Y-41222522D01*
X90640076Y-35571521D02*
X90654402Y-35571879D01*
X89800777Y-41553086D02*
X89819700Y-41565520D01*
X90795755Y-31312042D02*
X90784456Y-31319186D01*
X90452852Y-31287599D02*
X90443180Y-31278505D01*
X90774968Y-29352799D02*
X90799221Y-29355717D01*
X91523719Y-35739694D02*
X91492778Y-35720178D01*
X90053500Y-36356260D02*
X90077615Y-36340422D01*
X91234789Y-34516123D02*
X91222455Y-34521624D01*
X90361599Y-35846127D02*
X90361962Y-35832000D01*
X90654402Y-35571879D02*
X90668541Y-35572939D01*
X90918189Y-35832000D02*
X90918551Y-35846127D01*
X89175060Y-29683594D02*
X89162632Y-29721973D01*
X91492778Y-35720178D02*
X91461336Y-35701328D01*
X90715579Y-36528656D02*
X90752472Y-36523752D01*
X89037986Y-36895403D02*
X89033496Y-36937882D01*
X90907960Y-34453226D02*
X90899206Y-34443261D01*
X90417966Y-31735223D02*
X90439036Y-31741837D01*
X91018346Y-34010666D02*
X91031284Y-34006348D01*
X91810142Y-34288734D02*
X91810230Y-34282042D01*
X91426177Y-29731693D02*
X91437869Y-29749909D01*
X90938168Y-29384232D02*
X90960240Y-29390807D01*
X91361066Y-29646466D02*
X91374972Y-29662731D01*
X91164660Y-38673017D02*
X91201963Y-38660261D01*
X89957549Y-41130056D02*
X89950842Y-41118556D01*
X89043472Y-36853367D02*
X89037986Y-36895403D01*
X91580568Y-37425858D02*
X91572240Y-37447916D01*
X90032793Y-29543655D02*
X90049994Y-29530578D01*
X90960240Y-29390807D02*
X90982003Y-29397900D01*
X90367259Y-31139676D02*
X90364809Y-31126155D01*
X91344983Y-34422120D02*
X91337217Y-34432887D01*
X90531699Y-31337365D02*
X90519364Y-31331865D01*
X91356241Y-37772334D02*
X91339525Y-37788233D01*
X91382419Y-34902390D02*
X91404741Y-34892757D01*
X91304958Y-37818893D02*
X91287160Y-37833554D01*
X90351378Y-40759986D02*
X90362297Y-40767643D01*
X91010907Y-30503255D02*
X90990542Y-30491065D01*
X89839050Y-41577354D02*
X89858814Y-41588576D01*
X90433849Y-40845308D02*
X90440555Y-40856808D01*
X90329883Y-29390807D02*
X90352286Y-29384232D01*
X90721676Y-28646864D02*
X90681056Y-28645487D01*
X90157332Y-30589718D02*
X90124320Y-30623245D01*
X90741295Y-34848510D02*
X90766526Y-34863579D01*
X90392595Y-41181841D02*
X90382922Y-41190935D01*
X89918661Y-40959612D02*
X89920432Y-40945872D01*
X91139905Y-34954655D02*
X91165493Y-34953278D01*
X90428029Y-40340344D02*
X90406067Y-40333083D01*
X90884932Y-35715252D02*
X90891083Y-35727093D01*
X91152805Y-37923661D02*
X91132195Y-37934740D01*
X90328418Y-41229136D02*
X90316411Y-41235201D01*
X91670928Y-35847232D02*
X91642482Y-35824400D01*
X90605917Y-34737935D02*
X90626425Y-34758618D01*
X89908223Y-36478166D02*
X89924499Y-36461838D01*
X91891077Y-29268046D02*
X91868777Y-29237604D01*
X89764269Y-40448889D02*
X89729635Y-40477736D01*
X90570495Y-30818388D02*
X90583966Y-30815321D01*
X89929746Y-41069325D02*
X89925992Y-41056296D01*
X91464839Y-36576133D02*
X91477858Y-36594775D01*
X91253834Y-36369376D02*
X91277234Y-36386335D01*
X89950842Y-41118556D02*
X89944691Y-41106716D01*
X90918189Y-35860254D02*
X90917113Y-35874197D01*
X91998637Y-36216340D02*
X91977242Y-36183615D01*
X90062980Y-40746228D02*
X90074987Y-40740163D01*
X89758366Y-36681884D02*
X89769787Y-36661555D01*
X90053076Y-40315595D02*
X90007612Y-40326528D01*
X89980827Y-40813025D02*
X89989581Y-40803060D01*
X89707966Y-30210914D02*
X89709316Y-30186088D01*
X92195394Y-41323636D02*
X92195394Y-39132632D01*
X90171359Y-41673784D02*
X90195699Y-41674196D01*
X90401816Y-41172304D02*
X90392595Y-41181841D01*
X91122817Y-30589718D02*
X91105468Y-30573799D01*
X91607665Y-37334648D02*
X91601821Y-37357895D01*
X89882869Y-29696432D02*
X89895975Y-29679386D01*
X91642482Y-35824400D02*
X91613540Y-35802229D01*
X91977242Y-36183615D02*
X91955116Y-36151541D01*
X90602323Y-36531647D02*
X90640076Y-36532641D01*
X90007612Y-41648836D02*
X90030198Y-41654669D01*
X90462957Y-31296231D02*
X90452852Y-31287599D01*
X91253317Y-35520944D02*
X91240291Y-35498169D01*
X89903513Y-37761126D02*
X89887718Y-37744969D01*
X89202666Y-29608195D02*
X89188404Y-29645668D01*
X90465405Y-40919068D02*
X90468515Y-40932352D01*
X90993366Y-34021085D02*
X91005701Y-34015584D01*
X89645435Y-38415755D02*
X89676116Y-38438887D01*
X90395219Y-35977002D02*
X90389068Y-35965161D01*
X91310973Y-34462763D02*
X91301301Y-34471857D01*
X90264133Y-29413632D02*
X90285807Y-29405508D01*
X90375142Y-35211068D02*
X90327097Y-35232727D01*
X90709657Y-36112085D02*
X90696186Y-36115152D01*
X92252647Y-37033369D02*
X92250153Y-36989899D01*
X90918189Y-31098473D02*
X90917113Y-31112415D01*
X91183659Y-34534562D02*
X91170188Y-34537629D01*
X91217595Y-28748246D02*
X91181533Y-28734942D01*
X90298202Y-31682599D02*
X90336778Y-31702527D01*
X90641190Y-33764881D02*
X90624995Y-33780184D01*
X89065895Y-37495875D02*
X89075354Y-37536337D01*
X90410692Y-38030108D02*
X90387136Y-38025034D01*
X91337217Y-34432887D02*
X91328949Y-34443261D01*
X90055723Y-28748246D02*
X90020319Y-28762467D01*
X91003459Y-29405508D02*
X91024609Y-29413632D01*
X91085613Y-34541791D02*
X91071679Y-34540044D01*
X90926823Y-30458606D02*
X90904760Y-30449209D01*
X89706437Y-37456985D02*
X89698361Y-37434941D01*
X90915342Y-31042536D02*
X90917113Y-31056276D01*
X89084758Y-30262574D02*
X89084757Y-31449513D01*
X90506824Y-38045061D02*
X90482507Y-38042124D01*
X90835964Y-34254476D02*
X90837040Y-34240534D01*
X90304076Y-41240702D02*
X90291431Y-41245620D01*
X89324046Y-36146720D02*
X89302242Y-36178722D01*
X90899206Y-34443261D02*
X90890938Y-34432887D01*
X90859495Y-30432639D02*
X90836323Y-30425497D01*
X90195699Y-40713076D02*
X90210026Y-40713434D01*
X91662147Y-33845137D02*
X91635919Y-33814080D01*
X92193532Y-30174329D02*
X92191201Y-30130903D01*
X89850487Y-35675471D02*
X89817932Y-35693657D01*
X90906028Y-35927771D02*
X90901649Y-35940529D01*
X90126118Y-41253640D02*
X90112905Y-41249938D01*
X90696186Y-30815321D02*
X90709657Y-30818388D01*
X89681435Y-41450402D02*
X89696983Y-41466654D01*
X92103619Y-29683593D02*
X92089991Y-29645667D01*
X90443180Y-36040287D02*
X90433958Y-36030749D01*
X90051318Y-41222522D02*
X90040019Y-41215378D01*
X90533091Y-34647163D02*
X90549857Y-34671004D01*
X91240244Y-30736223D02*
X91227789Y-30716191D01*
X89847551Y-36547153D02*
X89862056Y-36529358D01*
X91627740Y-37012490D02*
X91629830Y-37037067D01*
X91019053Y-31660409D02*
X91054590Y-31636048D01*
X90401926Y-30941972D02*
X90409170Y-30930830D01*
X89169128Y-36420278D02*
X89152895Y-36457272D01*
X90397194Y-31727973D02*
X90417966Y-31735223D01*
X89857935Y-29731693D02*
X89870189Y-29713867D01*
X90528423Y-36523845D02*
X90565088Y-36528698D01*
X90367259Y-31029015D02*
X90370369Y-31015732D01*
X91447135Y-37669467D02*
X91433099Y-37687501D01*
X90472736Y-40959612D02*
X90473812Y-40973554D01*
X90382922Y-40784429D02*
X90392595Y-40793522D01*
X90141730Y-29471296D02*
X90161208Y-29460662D01*
X90841261Y-34213274D02*
X90844371Y-34199990D01*
X90007612Y-40326528D02*
X89963369Y-40340344D01*
X89169143Y-37807429D02*
X89186114Y-37844093D01*
X90374123Y-35927771D02*
X90370369Y-35914741D01*
X90383490Y-30977475D02*
X90389068Y-30965312D01*
X90716777Y-34832431D02*
X90741295Y-34848510D01*
X90908771Y-38019427D02*
X90885251Y-38025034D01*
X90087322Y-41240702D02*
X90074987Y-41235201D01*
X92127849Y-36463698D02*
X92111595Y-36426396D01*
X89837811Y-38543444D02*
X89871799Y-38562141D01*
X91105468Y-30573799D02*
X91087576Y-30558462D01*
X90122489Y-37924262D02*
X90102401Y-37912947D01*
X90665517Y-30398282D02*
X90640075Y-30397831D01*
X91269757Y-34040908D02*
X91280675Y-34048565D01*
X90690582Y-38050669D02*
X90665422Y-38051470D01*
X91108380Y-28711088D02*
X91071285Y-28700537D01*
X90378502Y-30989944D02*
X90383490Y-30977475D01*
X91708945Y-33911696D02*
X91686516Y-33877703D01*
X90224164Y-40714494D02*
X90238098Y-40716241D01*
X90715557Y-38049334D02*
X90690582Y-38050669D01*
X89962592Y-36426598D02*
X89984499Y-36407987D01*
X91602661Y-36870061D02*
X91608333Y-36893200D01*
X89588384Y-41323636D02*
X89599890Y-41343044D01*
X91170188Y-33999579D02*
X91183659Y-34002646D01*
X90640076Y-36532641D02*
X90678096Y-36531637D01*
X90907960Y-34083983D02*
X90917182Y-34074445D01*
X90709963Y-40524962D02*
X90694415Y-40508710D01*
X90748453Y-31337365D02*
X90735808Y-31342283D01*
X91252016Y-30756699D02*
X91240244Y-30736223D01*
X90678344Y-40492964D02*
X90661763Y-40477736D01*
X89980827Y-41162339D02*
X89972559Y-41151964D01*
X90760788Y-36093646D02*
X90748453Y-36099147D01*
X90869221Y-34137730D02*
X90875928Y-34126230D01*
X92165510Y-29920703D02*
X92157555Y-29880043D01*
X90353327Y-30458606D02*
X90310420Y-30479550D01*
X91322449Y-36422252D02*
X91344265Y-36441204D01*
X90389068Y-30965312D02*
X90395219Y-30953471D01*
X91451362Y-36557884D02*
X91464839Y-36576133D01*
X90006908Y-37850110D02*
X89988802Y-37836290D01*
X90740347Y-38047465D02*
X90715557Y-38049334D01*
X90668541Y-31357533D02*
X90654402Y-31358594D01*
X91144658Y-29471296D02*
X91163445Y-29482337D01*
X90748453Y-30831326D02*
X90760788Y-30836827D01*
X89203809Y-37880110D02*
X89222231Y-37915480D01*
X90884932Y-35977002D02*
X90878225Y-35988501D01*
X90040019Y-41215378D02*
X90029101Y-41207721D01*
X91033844Y-28690903D02*
X90996055Y-28682187D01*
X90740407Y-30404912D02*
X90715699Y-30401837D01*
X90434440Y-38034647D02*
X90410692Y-38030108D01*
X91209810Y-34526542D02*
X91196872Y-34530860D01*
X92183155Y-37623638D02*
X92194539Y-37584263D01*
X90269242Y-30503255D02*
X90229918Y-30529601D01*
X89443549Y-35996218D02*
X89418249Y-36025045D01*
X91099752Y-33994355D02*
X91114078Y-33993998D01*
X90764839Y-30408830D02*
X90740407Y-30404912D01*
X90909782Y-35914741D02*
X90906028Y-35927771D01*
X89870189Y-29713867D02*
X89882869Y-29696432D01*
X92044212Y-29534988D02*
X92027543Y-29499353D01*
X91142543Y-34541791D02*
X91128404Y-34542852D01*
X90473478Y-30864307D02*
X90484396Y-30856650D01*
X90057174Y-35470614D02*
X90030103Y-35514960D01*
X89075354Y-36689643D02*
X89065895Y-36729912D01*
X89939113Y-40880811D02*
X89944691Y-40868648D01*
X90085549Y-29505644D02*
X90103898Y-29493787D01*
X90006406Y-35561407D02*
X89986249Y-35609791D01*
X90583966Y-36115152D02*
X90570495Y-36112085D01*
X91533076Y-37533254D02*
X91522109Y-37553782D01*
X91886969Y-38179391D02*
X91910897Y-38149325D01*
X90681056Y-28645487D02*
X90640076Y-28645029D01*
X92094605Y-36389751D02*
X92076880Y-36353761D01*
X91229907Y-36353087D02*
X91253834Y-36369376D01*
X90401816Y-40803060D02*
X90410570Y-40813025D01*
X92183737Y-30045440D02*
X92178600Y-30003401D01*
X91810950Y-38265794D02*
X91836996Y-38237625D01*
X90340607Y-38013285D02*
X90317636Y-38006609D01*
X90817194Y-30872461D02*
X90827299Y-30881093D01*
X91789183Y-34100261D02*
X91777657Y-34060337D01*
X91601821Y-37357895D02*
X91595357Y-37380847D01*
X89454165Y-29178681D02*
X89430589Y-29207816D01*
X92075413Y-29608194D02*
X92060169Y-29571269D01*
X90237285Y-35286106D02*
X90195852Y-35317500D01*
X90531699Y-35593107D02*
X90544344Y-35588189D01*
X90647795Y-34778438D02*
X90669997Y-34797366D01*
X90470943Y-40356935D02*
X90449659Y-40348300D01*
X91346720Y-29630592D02*
X91361066Y-29646466D01*
X89096292Y-30045442D02*
X89092141Y-30087942D01*
X90416936Y-30920063D02*
X90425204Y-30909689D01*
X90475429Y-38745140D02*
X90516093Y-38748516D01*
X89662384Y-37296497D02*
X89658476Y-37272393D01*
X90854947Y-30909689D02*
X90863215Y-30920063D01*
X89529135Y-29095208D02*
X89503437Y-29122376D01*
X90931217Y-34931182D02*
X90960606Y-34938374D01*
X90848125Y-34350247D02*
X90844371Y-34337218D01*
X90294862Y-37999400D02*
X90272288Y-37991656D01*
X90640076Y-28645029D02*
X90631189Y-28645029D01*
X89720079Y-30089557D02*
X89724104Y-30066113D01*
X91024361Y-35273637D02*
X91002047Y-35259633D01*
X91328949Y-34443261D02*
X91320195Y-34453226D01*
X92178600Y-30003401D02*
X92172525Y-29961822D01*
X91573267Y-40651728D02*
X90803014Y-40651728D01*
X90735808Y-36104065D02*
X90722870Y-36108383D01*
X91641553Y-38419887D02*
X91671265Y-38396068D01*
X91217702Y-29517908D02*
X91235085Y-29530578D01*
X91050698Y-38705615D02*
X91089027Y-38695694D01*
X91374972Y-29662731D02*
X91388437Y-29679386D01*
X91269757Y-34496300D02*
X91258458Y-34503444D01*
X91162947Y-35392931D02*
X91145185Y-35373760D01*
X91810230Y-34282042D02*
X91810267Y-34268603D01*
X91046144Y-37974552D02*
X91023720Y-37983378D01*
X91459918Y-29787513D02*
X91470272Y-29806900D01*
X90509503Y-28649157D02*
X90469667Y-28652369D01*
X90099967Y-40729744D02*
X90112905Y-40725426D01*
X89899530Y-41609126D02*
X89920455Y-41618429D01*
X90873985Y-34913188D02*
X90902334Y-34922777D01*
X89963369Y-41635019D02*
X89985331Y-41642281D01*
X91542215Y-29997421D02*
X91547633Y-30020046D01*
X89790046Y-37621276D02*
X89777940Y-37602072D01*
X90690626Y-38752386D02*
X90731962Y-38750969D01*
X89782296Y-41540067D02*
X89800777Y-41553086D01*
X91330532Y-35632603D02*
X91296568Y-35617095D01*
X90767715Y-33672975D02*
X90748331Y-33684384D01*
X91099752Y-34542852D02*
X91085613Y-34541791D01*
X90363038Y-31112415D02*
X90361962Y-31098473D01*
X90875928Y-34126230D02*
X90883173Y-34115088D01*
X90936959Y-34056719D02*
X90947480Y-34048565D01*
X89819700Y-41565520D02*
X89839050Y-41577354D01*
X91728913Y-38346188D02*
X91756850Y-38320131D01*
X90220039Y-40301579D02*
X90195699Y-40301167D01*
X91358934Y-34137730D02*
X91365085Y-34149570D01*
X90654402Y-30810098D02*
X90668541Y-30811159D01*
X90958564Y-36456800D02*
X90989886Y-36439866D01*
X90476426Y-34544928D02*
X90488973Y-34571460D01*
X90884932Y-30953471D02*
X90891083Y-30965312D01*
X90841392Y-28656497D02*
X90801843Y-28652369D01*
X91179972Y-35412757D02*
X91162947Y-35392931D01*
X91433099Y-37687501D02*
X91418620Y-37705180D01*
X91087576Y-30558462D02*
X91069159Y-30543725D01*
X91156477Y-33997163D02*
X91170188Y-33999579D01*
X90077615Y-36340422D02*
X90102300Y-36325302D01*
X91086202Y-29440621D02*
X91106036Y-29450437D01*
X89724364Y-37500189D02*
X89715105Y-37478734D01*
X90544344Y-35588189D02*
X90557282Y-35583871D01*
X90539743Y-30404912D02*
X90491170Y-30413578D01*
X90467945Y-29359161D02*
X90491806Y-29355717D01*
X90627129Y-40448889D02*
X90609102Y-40435297D01*
X91171461Y-30640821D02*
X91155830Y-30623245D01*
X90932114Y-38013285D02*
X90908771Y-38019427D01*
X89707155Y-30236020D02*
X89707966Y-30210914D01*
X89823739Y-29787513D02*
X89834710Y-29768516D01*
X91693475Y-29042938D02*
X91665891Y-29017945D01*
X90433958Y-31268967D02*
X90425204Y-31259002D01*
X90444328Y-29363130D02*
X90467945Y-29359161D01*
X92195394Y-31890342D02*
X89055132Y-33204944D01*
X92254644Y-37121583D02*
X92254145Y-37077264D01*
X90901649Y-35751725D02*
X90906028Y-35764483D01*
X90969697Y-34503444D02*
X90958398Y-34496300D01*
X90103898Y-29493787D02*
X90122626Y-29482337D01*
X89964794Y-40834166D02*
X89972559Y-40823399D01*
X90383490Y-35952998D02*
X90378502Y-35940529D01*
X90210026Y-41261930D02*
X90195699Y-41262288D01*
X90857052Y-35193628D02*
X90831234Y-35185829D01*
X91275533Y-38631916D02*
X91311785Y-38616466D01*
X90827299Y-30881093D02*
X90836972Y-30890187D01*
X90838811Y-34226794D02*
X90841261Y-34213274D01*
X90870981Y-31237861D02*
X90863215Y-31248628D01*
X90668541Y-36119315D02*
X90654402Y-36120375D01*
X91190827Y-34951001D02*
X91215891Y-34947842D01*
X91310973Y-34074445D02*
X91320195Y-34083983D01*
X90884932Y-31215220D02*
X90878225Y-31226719D01*
X89984499Y-36407987D02*
X90006949Y-36390053D01*
X90722870Y-31346602D02*
X90709657Y-31350303D01*
X91569192Y-30161540D02*
X91570977Y-30186088D01*
X90709657Y-31350303D02*
X90696186Y-31353370D01*
X90503908Y-31757752D02*
X90526047Y-31761709D01*
X91344983Y-34115088D02*
X91352227Y-34126230D01*
X89577374Y-35864649D02*
X89549783Y-35889217D01*
X91461336Y-35701328D02*
X91429391Y-35683144D01*
X90909782Y-35777513D02*
X90912892Y-35790797D01*
X90410570Y-41162339D02*
X90401816Y-41172304D01*
X91050231Y-30529601D02*
X91030809Y-30516106D01*
X91617887Y-36940197D02*
X91621769Y-36964055D01*
X90401926Y-31226719D02*
X90395219Y-31215220D01*
X90969697Y-34033764D02*
X90981359Y-34027150D01*
X91833509Y-36000896D02*
X91806996Y-35972706D01*
X89026006Y-37067980D02*
X89025506Y-37112235D01*
X90040019Y-40759986D02*
X90051318Y-40752842D01*
X91288623Y-28777530D02*
X91253316Y-28762467D01*
X91250526Y-37861537D02*
X91231687Y-37874858D01*
X90167234Y-41260870D02*
X90153300Y-41259123D01*
X89677693Y-37367044D02*
X89671994Y-37343823D01*
X91547633Y-30020046D02*
X91552526Y-30042943D01*
X90519364Y-31331865D02*
X90507357Y-31325799D01*
X91186488Y-30658920D02*
X91171461Y-30640821D01*
X90431219Y-34403861D02*
X90437824Y-34433099D01*
X90291747Y-41667712D02*
X90338322Y-41659769D01*
X90661763Y-41497628D02*
X90694415Y-41466654D01*
X90917182Y-34074445D02*
X90926854Y-34065351D01*
X91635919Y-33814080D02*
X91607912Y-33784610D01*
X90291431Y-40729744D02*
X90304076Y-40734662D01*
X91756850Y-38320131D02*
X91784197Y-38293333D01*
X89203680Y-36348147D02*
X89186057Y-36383903D01*
X91426650Y-34882389D02*
X91448127Y-34871300D01*
X89097246Y-36610427D02*
X89085805Y-36649815D01*
X91416961Y-38565496D02*
X91450828Y-38546973D01*
X91822090Y-29178680D02*
X91797707Y-29150200D01*
X90880586Y-28661543D02*
X90841392Y-28656497D01*
X91263091Y-30777606D02*
X91252016Y-30756699D01*
X90903421Y-31720099D02*
X90943374Y-31702527D01*
X90979168Y-35246451D02*
X90955747Y-35234114D01*
X91806996Y-35972706D02*
X91779754Y-35945161D01*
X89101365Y-30003403D02*
X89096292Y-30045442D01*
X90507357Y-30842893D02*
X90519364Y-30836827D01*
X89130859Y-29839842D02*
X89122106Y-29880044D01*
X90674799Y-29346417D02*
X90700317Y-29347216D01*
X91107540Y-35337461D02*
X91087699Y-35320377D01*
X91449117Y-29768516D02*
X91459918Y-29787513D01*
X91510707Y-37573953D02*
X91498869Y-37593767D01*
X89929746Y-40906039D02*
X89934125Y-40893280D01*
X90195699Y-40301167D02*
X90147228Y-40302806D01*
X89983521Y-29585317D02*
X89999555Y-29571024D01*
X90731962Y-38750969D02*
X90772969Y-38748607D01*
X89917585Y-40973554D02*
X89918661Y-40959612D01*
X91515266Y-29909627D02*
X91522799Y-29931171D01*
X89917259Y-35641219D02*
X89883596Y-35657992D01*
X90640076Y-36120733D02*
X90625749Y-36120375D01*
X91380030Y-34186961D02*
X91383783Y-34199990D01*
X90989886Y-36439866D02*
X91020206Y-36421419D01*
X91804889Y-34182864D02*
X91798287Y-34141130D01*
X91301301Y-34065351D02*
X91310973Y-34074445D01*
X90556018Y-38049334D02*
X90531328Y-38047465D01*
X91543611Y-37512371D02*
X91533076Y-37533254D01*
X91114078Y-34543210D02*
X91099752Y-34542852D01*
X91071679Y-34540044D02*
X91057968Y-34537629D01*
X90584352Y-35161780D02*
X90529829Y-35168172D01*
X90748453Y-35593107D02*
X90760788Y-35598608D01*
X89733747Y-30020046D02*
X89739362Y-29997421D01*
X90813615Y-38038653D02*
X90789375Y-38042124D01*
X91030809Y-30516106D02*
X91010907Y-30503255D01*
X90694415Y-40508710D02*
X90678344Y-40492964D01*
X90409170Y-30930830D02*
X90416936Y-30920063D01*
X90817194Y-35634242D02*
X90827299Y-35642874D01*
X91253316Y-28762467D02*
X91217595Y-28748246D01*
X89699852Y-36810740D02*
X89708195Y-36788582D01*
X90492381Y-36517140D02*
X90528423Y-36523845D01*
X89114272Y-29920705D02*
X89107358Y-29961824D01*
X90836972Y-35651967D02*
X90846193Y-35661505D01*
X90446706Y-40868648D02*
X90452284Y-40880811D01*
X90661763Y-40477736D02*
X90644687Y-40463040D01*
X91498869Y-37593767D02*
X91486594Y-37613226D01*
X90625749Y-35571879D02*
X90640076Y-35571521D01*
X90495695Y-30849506D02*
X90507357Y-30842893D01*
X90722870Y-30822090D02*
X90735808Y-30826408D01*
X89612015Y-40613321D02*
X89588384Y-40651728D01*
X91352227Y-34126230D02*
X91358934Y-34137730D01*
X91686516Y-33877703D02*
X91662147Y-33845137D01*
X90694415Y-41466654D02*
X90724974Y-41433659D01*
X90388516Y-36486427D02*
X90422375Y-36498380D01*
X89585743Y-38367265D02*
X89615311Y-38391882D01*
X89638065Y-41398753D02*
X89651962Y-41416438D01*
X91549636Y-28925590D02*
X91519090Y-28904407D01*
X90597677Y-30812906D02*
X90611611Y-30811159D01*
X90682475Y-36117568D02*
X90668541Y-36119315D01*
X90225561Y-31636048D02*
X90261098Y-31660409D01*
X91005701Y-34015584D02*
X91018346Y-34010666D01*
X91087699Y-35320377D02*
X91067208Y-35304030D01*
X89303205Y-38050460D02*
X89325276Y-38082573D01*
X89469549Y-35968032D02*
X89443549Y-35996218D01*
X90484396Y-31312042D02*
X90473478Y-31304384D01*
X90204689Y-36381926D02*
X90232763Y-36402989D01*
X90364809Y-31126155D02*
X90363038Y-31112415D01*
X89777940Y-37602072D02*
X89766297Y-37582479D01*
X90819761Y-31747804D02*
X90862185Y-31735223D01*
X90440555Y-41118556D02*
X90433849Y-41130056D01*
X89222231Y-37915480D02*
X89241380Y-37950201D01*
X89755117Y-37562496D02*
X89744401Y-37542121D01*
X89711203Y-30161540D02*
X89713627Y-30137270D01*
X90102300Y-36325302D02*
X90127562Y-36310912D01*
X90124328Y-38671438D02*
X90162023Y-38683472D01*
X90890938Y-34432887D02*
X90883173Y-34422120D01*
X90515910Y-29352799D02*
X90540257Y-29350409D01*
X90912892Y-31139676D02*
X90909782Y-31152959D01*
X90693001Y-34815374D02*
X90716777Y-34832431D01*
X89713054Y-41482400D02*
X89729635Y-41497628D01*
X91720468Y-29068692D02*
X91693475Y-29042938D01*
X91375651Y-34363005D02*
X91370663Y-34375475D01*
X91181881Y-29493787D02*
X91199967Y-29505644D01*
X89610047Y-29017946D02*
X89582501Y-29042939D01*
X90008475Y-41190935D02*
X89998803Y-41181841D01*
X89784143Y-29867402D02*
X89793398Y-29846844D01*
X90644687Y-40463040D02*
X90627129Y-40448889D01*
X90901649Y-31178747D02*
X90896661Y-31191216D01*
X92242182Y-36904238D02*
X92236710Y-36862047D01*
X92230247Y-37422235D02*
X92236710Y-37380606D01*
X90495695Y-31319186D02*
X90484396Y-31312042D01*
X89833489Y-36565314D02*
X89847551Y-36547153D01*
X90383786Y-41648836D02*
X90428029Y-41635019D01*
X91231687Y-37874858D02*
X91212497Y-37887731D01*
X90926854Y-34471857D02*
X90917182Y-34462763D01*
X90443827Y-30425497D02*
X90397837Y-30440548D01*
X91106036Y-29450437D02*
X91125522Y-29460662D01*
X91514016Y-33706538D02*
X91514016Y-32876294D01*
X90443180Y-31278505D02*
X90433958Y-31268967D01*
X90082642Y-37901215D02*
X90063212Y-37889065D01*
X90401926Y-35988501D02*
X90395219Y-35977002D01*
X90425204Y-35671470D02*
X90433958Y-35661505D01*
X90338322Y-41659769D02*
X90383786Y-41648836D01*
X91487951Y-28883988D02*
X91456217Y-28864333D01*
X90616865Y-31770486D02*
X90640076Y-31770860D01*
X89918661Y-41015752D02*
X89917585Y-41001809D01*
X91932257Y-36120116D02*
X91908666Y-36089340D01*
X91573265Y-30261405D02*
X91573265Y-30777606D01*
X90433958Y-30899724D02*
X90443180Y-30890187D01*
X91049471Y-36401510D02*
X91077631Y-36380190D01*
X89999555Y-29571024D02*
X90015979Y-29557137D01*
X89599890Y-41343044D02*
X89612015Y-41362042D01*
X90473478Y-35626088D02*
X90484396Y-35618431D01*
X90139589Y-41256707D02*
X90126118Y-41253640D01*
X89950842Y-40856808D02*
X89957549Y-40845308D01*
X90139589Y-40718657D02*
X90153300Y-40716241D01*
X91729354Y-33947037D02*
X91708945Y-33911696D01*
X89057428Y-37454981D02*
X89065895Y-37495875D01*
X90191686Y-31609610D02*
X90225561Y-31636048D01*
X91165493Y-34953278D02*
X91190827Y-34951001D01*
X91582060Y-36802081D02*
X91589524Y-36824502D01*
X91301301Y-34471857D02*
X91291196Y-34480489D01*
X89676116Y-38438887D02*
X89707351Y-38461277D01*
X90440555Y-40856808D02*
X90446706Y-40868648D01*
X90955747Y-35234114D02*
X90931803Y-35222641D01*
X89085805Y-37576370D02*
X89097246Y-37615974D01*
X90696341Y-35161823D02*
X90668352Y-35160169D01*
X90086961Y-38658444D02*
X90124328Y-38671438D01*
X91145129Y-28722556D02*
X91108380Y-28711088D01*
X89655359Y-36997047D02*
X89658758Y-36972884D01*
X89747384Y-36702573D02*
X89758366Y-36681884D01*
X90715699Y-30401837D02*
X90690730Y-30399622D01*
X90372817Y-41199567D02*
X90362297Y-41207721D01*
X89953587Y-37807396D02*
X89936479Y-37792322D01*
X91365085Y-34387638D02*
X91358934Y-34399478D01*
X90918189Y-31070218D02*
X90918551Y-31084345D01*
X91301093Y-29585317D02*
X91316712Y-29600013D01*
X89588384Y-40651728D02*
X89084757Y-40651728D01*
X90912892Y-35790797D02*
X90915342Y-35804317D01*
X89924499Y-36461838D02*
X89941219Y-36445878D01*
X90854947Y-36020784D02*
X90846193Y-36030749D01*
X90724974Y-41433659D02*
X90753333Y-41398753D01*
X89281866Y-38017692D02*
X89303205Y-38050460D01*
X90495695Y-35611287D02*
X90507357Y-35604673D01*
X90625749Y-30810098D02*
X90640076Y-30809741D01*
X90787499Y-33662174D02*
X90767715Y-33672975D01*
X90316411Y-40740163D02*
X90328418Y-40746228D01*
X90861553Y-38030108D02*
X90837674Y-38034647D01*
X91085613Y-33995416D02*
X91099752Y-33994355D01*
X91128404Y-33994355D02*
X91142543Y-33995416D01*
X91363990Y-35648781D02*
X91330532Y-35632603D01*
X90474174Y-40987682D02*
X90473812Y-41001809D01*
X89713627Y-30137270D02*
X89716586Y-30113276D01*
X89998803Y-41181841D02*
X89989581Y-41172304D01*
X89650415Y-37046119D02*
X89652578Y-37021459D01*
X90531328Y-38047465D02*
X90506824Y-38045061D01*
X90389068Y-31203380D02*
X90383490Y-31191216D01*
X90668541Y-35572939D02*
X90682475Y-35574686D01*
X89883596Y-35657992D02*
X89850487Y-35675471D01*
X90126118Y-40721724D02*
X90139589Y-40718657D01*
X91031284Y-34006348D02*
X91044497Y-34002646D01*
X89666424Y-41433659D02*
X89681435Y-41450402D01*
X90654402Y-31358594D02*
X90640076Y-31358951D01*
X89303958Y-29396328D02*
X89285319Y-29430023D01*
X92058420Y-36318426D02*
X92039226Y-36283744D01*
X91486594Y-37613226D02*
X91473881Y-37632329D01*
X90885251Y-38025034D02*
X90861553Y-38030108D01*
X90363038Y-35874197D02*
X90361962Y-35860254D01*
X90863215Y-35681844D02*
X90870981Y-35692611D01*
X90819008Y-34890576D02*
X90846199Y-34902445D01*
X91955116Y-36151541D02*
X91932257Y-36120116D01*
X92252647Y-37209673D02*
X92254145Y-37165845D01*
X89503437Y-29122376D02*
X89478447Y-29150201D01*
X90512419Y-40376193D02*
X90491868Y-40366238D01*
X92157453Y-37701016D02*
X92170793Y-37662557D01*
X90470943Y-41618429D02*
X90512419Y-41599171D01*
X89638065Y-40576611D02*
X89612015Y-40613321D01*
X90640076Y-38752859D02*
X90648963Y-38752859D01*
X89917585Y-41001809D02*
X89917223Y-40987682D01*
X90806674Y-31304384D02*
X90795755Y-31312042D01*
X90870981Y-30930830D02*
X90878225Y-30941972D01*
X91280675Y-34488643D02*
X91269757Y-34496300D01*
X90878225Y-35988501D02*
X90870981Y-35999643D01*
X90383786Y-40326528D02*
X90361200Y-40320694D01*
X90029101Y-40767643D02*
X90040019Y-40759986D01*
X91456217Y-28864333D02*
X91423889Y-28845442D01*
X90915342Y-31126155D02*
X90912892Y-31139676D01*
X90364809Y-31042536D02*
X90367259Y-31029015D01*
X90772795Y-35604673D02*
X90784456Y-35611287D01*
X91199967Y-29505644D02*
X91217702Y-29517908D01*
X90304076Y-40734662D02*
X90316411Y-40740163D01*
X90389068Y-35965161D02*
X90383490Y-35952998D01*
X90631188Y-38051737D02*
X90605949Y-38051470D01*
X90120768Y-35388875D02*
X90087451Y-35428531D01*
X90827299Y-31287599D02*
X90817194Y-31296231D01*
X91418620Y-37705180D02*
X91403695Y-37722503D01*
X90184727Y-37955699D02*
X90163653Y-37945638D01*
X91560748Y-30089557D02*
X91564079Y-30113276D01*
X91588273Y-37403501D02*
X91580568Y-37425858D01*
X90846199Y-34902445D02*
X90873985Y-34913188D01*
X90827299Y-36049380D02*
X90817194Y-36058012D01*
X90227857Y-37974569D02*
X90206128Y-37965343D01*
X90251809Y-40718657D02*
X90265280Y-40721724D01*
X90281089Y-35257794D02*
X90237285Y-35286106D01*
X91005701Y-34521624D02*
X90993366Y-34516123D01*
X91973283Y-29396327D02*
X91953784Y-29363282D01*
X90772795Y-31325799D02*
X90760788Y-31331865D01*
X89692128Y-36833151D02*
X89699852Y-36810740D01*
X89892391Y-36494863D02*
X89908223Y-36478166D01*
X89260727Y-36244614D02*
X89241015Y-36278501D01*
X89057428Y-36770622D02*
X89049953Y-36811773D01*
X91200896Y-30677524D02*
X91186488Y-30658920D01*
X90265280Y-40721724D02*
X90278493Y-40725426D01*
X90122626Y-29482337D02*
X90141730Y-29471296D01*
X89877002Y-36511927D02*
X89892391Y-36494863D01*
X90292146Y-36440893D02*
X90323349Y-36457632D01*
X91611249Y-38442956D02*
X91641553Y-38419887D01*
X91358934Y-34399478D02*
X91352227Y-34410978D01*
X90162023Y-38683472D02*
X90200046Y-38694546D01*
X90909782Y-31015732D02*
X90912892Y-31029015D01*
X89771479Y-38503838D02*
X89804370Y-38524009D01*
X90507357Y-31325799D02*
X90495695Y-31319186D01*
X90857492Y-34161733D02*
X90863070Y-34149570D01*
X90491868Y-40366238D02*
X90470943Y-40356935D01*
X90372817Y-40775797D02*
X90382922Y-40784429D01*
X89819868Y-36583838D02*
X89833489Y-36565314D01*
X89972559Y-41151964D02*
X89964794Y-41141198D01*
X90244170Y-41672557D02*
X90291747Y-41667712D01*
X90361962Y-35832000D02*
X90363038Y-35818057D01*
X90249913Y-37983378D02*
X90227857Y-37974569D01*
X90397837Y-30440548D02*
X90353327Y-30458606D01*
X89650349Y-37198313D02*
X89648841Y-37173031D01*
X90374123Y-31002702D02*
X90378502Y-30989944D01*
X89123095Y-37693900D02*
X89137501Y-37732223D01*
X90955279Y-38006609D02*
X90932114Y-38013285D01*
X90418838Y-40823399D02*
X90426604Y-40834166D01*
X90361200Y-40320694D02*
X90338322Y-40315595D01*
X92039226Y-36283744D02*
X92019298Y-36249716D01*
X89648841Y-37173031D02*
X89647936Y-37147454D01*
X91252116Y-29543655D02*
X91268795Y-29557137D01*
X90593845Y-31769373D02*
X90616865Y-31770486D01*
X89759364Y-29931171D02*
X89767080Y-29909627D01*
X89672662Y-36901891D02*
X89678533Y-36878727D01*
X90336778Y-31702527D02*
X90356588Y-31711613D01*
X90362297Y-41207721D02*
X90351378Y-41215378D01*
X90044113Y-37876498D02*
X90025345Y-37863513D01*
X91024609Y-29413632D02*
X91045488Y-29422218D01*
X91388437Y-29679386D02*
X91401460Y-29696432D01*
X90947480Y-34048565D02*
X90958398Y-34040908D01*
X90565088Y-36528698D02*
X90602323Y-36531647D01*
X89026006Y-37156603D02*
X89027505Y-37200534D01*
X90195699Y-41674196D02*
X90244170Y-41672557D01*
X90891083Y-35727093D02*
X90896661Y-35739256D01*
X90835602Y-34268604D02*
X90835964Y-34254476D01*
D11*
X54229000Y-24257000D02*
X58420000Y-24257000D01*
X58420000Y-41402000D01*
X54229000Y-41402000D01*
X54229000Y-24257000D01*
D10*
X91584099Y-35780720D02*
X91554159Y-35759875D01*
X92143138Y-37739013D02*
X92157453Y-37701016D01*
X89446668Y-38233287D02*
X89473162Y-38261450D01*
X91784197Y-38293333D02*
X91810950Y-38265794D01*
X91375651Y-34174203D02*
X91380030Y-34186961D01*
X90609102Y-40435297D02*
X90590621Y-40422278D01*
X91507201Y-29888350D02*
X91515266Y-29909627D01*
X90580892Y-38050669D02*
X90556018Y-38049334D01*
X91763790Y-34021437D02*
X91747662Y-33983644D01*
X89678533Y-36878727D02*
X89685021Y-36855813D01*
X89107358Y-29961824D02*
X89101365Y-30003403D01*
X92020000Y-37989462D02*
X92039719Y-37955577D01*
X90181372Y-40713434D02*
X90195699Y-40713076D01*
X91120586Y-31581188D02*
X91150855Y-31550874D01*
X91629830Y-37037067D02*
X91631322Y-37061883D01*
X92187937Y-30087941D02*
X92183737Y-30045440D01*
X90795755Y-30856650D02*
X90806674Y-30864307D01*
X90739436Y-40558925D02*
X90724974Y-40541704D01*
X91514016Y-32876294D02*
X92195394Y-32596138D01*
X91125522Y-29460662D02*
X91144658Y-29471296D01*
X90766526Y-34863579D02*
X90792441Y-34877611D01*
X90452284Y-40880811D02*
X90457272Y-40893280D01*
X91498644Y-29867402D02*
X91507201Y-29888350D01*
X92111595Y-36426396D02*
X92094605Y-36389751D01*
X90006949Y-36390053D02*
X90029946Y-36372807D01*
X91978464Y-38055316D02*
X91999582Y-38022708D01*
X89707351Y-38461277D02*
X89739139Y-38482927D01*
X92148657Y-29839841D02*
X92138816Y-29800095D01*
X90557088Y-38750928D02*
X90598415Y-38752376D01*
X90682475Y-30812906D02*
X90696186Y-30815321D01*
X90917182Y-34462763D02*
X90907960Y-34453226D01*
X90784456Y-36080967D02*
X90772795Y-36087581D01*
X91389344Y-34226794D02*
X91391115Y-34240534D01*
X90883173Y-34422120D02*
X90875928Y-34410978D01*
X91265143Y-34938943D02*
X91289300Y-34933234D01*
X91522109Y-37553782D02*
X91510707Y-37573953D01*
X91836996Y-38237625D02*
X91862335Y-38208824D01*
X90363038Y-31056276D02*
X90364809Y-31042536D01*
X89025506Y-37112235D02*
X89026006Y-37156603D01*
X89348082Y-38114031D02*
X89371622Y-38144833D01*
X89671994Y-37343823D02*
X89666890Y-37320307D01*
X90844371Y-34337218D02*
X90841261Y-34323934D01*
X90846193Y-30899724D02*
X90854947Y-30909689D01*
X90846193Y-35661505D02*
X90854947Y-35671470D01*
X90863070Y-34149570D02*
X90869221Y-34137730D01*
X90904760Y-30449209D02*
X90882312Y-30440548D01*
X91589524Y-36824502D02*
X91596391Y-36847161D01*
X89698361Y-37434941D02*
X89690878Y-37412603D01*
X90918551Y-35846127D02*
X90918189Y-35860254D01*
X91460728Y-37651076D02*
X91447135Y-37669467D01*
X89323301Y-29363283D02*
X89303958Y-29396328D01*
X90936959Y-34480489D02*
X90926854Y-34471857D01*
X89709316Y-30186088D02*
X89711203Y-30161540D01*
X91012030Y-38714591D02*
X91050698Y-38705615D01*
X92058739Y-37921053D02*
X92077061Y-37885889D01*
X90844371Y-34199990D02*
X90848125Y-34186961D01*
X90395219Y-35715252D02*
X90401926Y-35703753D01*
X91572249Y-30210914D02*
X91573012Y-30236020D01*
X90291431Y-41245620D02*
X90278493Y-41249938D01*
X90792441Y-34877611D02*
X90819008Y-34890576D01*
X89922882Y-40932352D02*
X89925992Y-40919068D01*
X90807666Y-33651993D02*
X90787499Y-33662174D01*
X91631293Y-37163695D02*
X91629763Y-37188992D01*
X90392595Y-40793522D02*
X90401816Y-40803060D01*
X89944691Y-41106716D02*
X89939113Y-41094553D01*
X91556085Y-36736258D02*
X91565341Y-36757960D01*
X90854947Y-35671470D02*
X90863215Y-35681844D01*
X91280675Y-34048565D02*
X91291196Y-34056719D01*
X90640076Y-30809741D02*
X90654402Y-30810098D01*
X90912892Y-35901457D02*
X90909782Y-35914741D01*
X91578205Y-33756810D02*
X91546880Y-33730759D01*
X90051318Y-40752842D02*
X90062980Y-40746228D01*
X90195699Y-41262288D02*
X90181372Y-41261930D01*
X89909506Y-29662731D02*
X89923463Y-29646466D01*
X90594158Y-33812292D02*
X90594158Y-33812291D01*
X89934125Y-41082083D02*
X89929746Y-41069325D01*
X89086604Y-30174330D02*
X89085219Y-30218220D01*
X90512419Y-41599171D02*
X90552348Y-41577354D01*
X90648963Y-29346150D02*
X90674799Y-29346417D01*
X90570495Y-35580169D02*
X90583966Y-35577102D01*
X90261933Y-36422662D02*
X90292146Y-36440893D01*
X89818948Y-28864333D02*
X89787386Y-28883989D01*
X91470272Y-29806900D02*
X91480178Y-29826677D01*
X90853991Y-38741048D02*
X90894003Y-38735851D01*
X90902334Y-34922777D02*
X90931217Y-34931182D01*
X91726330Y-35894879D02*
X91698877Y-35870726D01*
X90548424Y-31764972D02*
X90571028Y-31767531D01*
X90147228Y-40302806D02*
X90099651Y-40307651D01*
X91525333Y-36673273D02*
X91536047Y-36693877D01*
X90760788Y-35598608D02*
X90772795Y-35604673D01*
X89648870Y-37071027D02*
X89650415Y-37046119D01*
X89241380Y-37950201D02*
X89261258Y-37984273D01*
X91238921Y-38646561D02*
X91275533Y-38631916D01*
X90772795Y-36087581D02*
X90760788Y-36093646D01*
X89033496Y-36937882D02*
X89030002Y-36980804D01*
X89371622Y-38144833D02*
X89395899Y-38174977D01*
X89500398Y-38288950D02*
X89528285Y-38315800D01*
X90795755Y-36073823D02*
X90784456Y-36080967D01*
X89075354Y-37536337D02*
X89085805Y-37576370D01*
X91322412Y-37803785D02*
X91304958Y-37818893D01*
X89186114Y-37844093D02*
X89203809Y-37880110D01*
X91700385Y-38371500D02*
X91728913Y-38346188D01*
X90625749Y-31358594D02*
X90611611Y-31357533D01*
X89986249Y-35609791D02*
X89951476Y-35625152D01*
X91020778Y-34949003D02*
X91051502Y-34952381D01*
X90112905Y-40725426D02*
X90126118Y-40721724D01*
X91229615Y-31449513D02*
X92195394Y-31449513D01*
X91265479Y-35544245D02*
X91253317Y-35520944D01*
X91066019Y-29431215D02*
X91086202Y-29440621D01*
X91173057Y-37912133D02*
X91152805Y-37923661D01*
X90803014Y-40651728D02*
X90791508Y-40632319D01*
X89920455Y-41618429D02*
X89941739Y-41627064D01*
X91196872Y-34006348D02*
X91209810Y-34010666D01*
X89556734Y-38341905D02*
X89585743Y-38367265D01*
X90838811Y-34310414D02*
X90837040Y-34296674D01*
X90328418Y-40746228D02*
X90340079Y-40752842D01*
X89696983Y-40508710D02*
X89666424Y-40541704D01*
X91227789Y-30716191D02*
X91214668Y-30696620D01*
X89647936Y-37147454D02*
X89647634Y-37121583D01*
X90395219Y-31215220D02*
X90389068Y-31203380D01*
X90472736Y-41015752D02*
X90470965Y-41029492D01*
X90391090Y-28661543D02*
X90352350Y-28667507D01*
X90982003Y-29397900D02*
X91003459Y-29405508D01*
X91579589Y-28947535D02*
X91549636Y-28925590D01*
X90156958Y-35351810D02*
X90120768Y-35388875D01*
X90848125Y-34186961D02*
X90852504Y-34174203D01*
X90462957Y-30872461D02*
X90473478Y-30864307D01*
X90142907Y-37935159D02*
X90122489Y-37924262D01*
X90917113Y-31056276D02*
X90918189Y-31070218D01*
X90789375Y-38042124D02*
X90764952Y-38045061D01*
X90268077Y-40304835D02*
X90244170Y-40302806D01*
X90996055Y-28682187D02*
X90957917Y-28674388D01*
X90462957Y-35634242D02*
X90473478Y-35626088D01*
X89862056Y-36529358D02*
X89877002Y-36511927D01*
X90452852Y-36049380D02*
X90443180Y-36040287D01*
X91196872Y-34530860D02*
X91183659Y-34534562D01*
X90943374Y-31702527D02*
X90981950Y-31682599D01*
X91291196Y-34480489D02*
X91280675Y-34488643D01*
X89925992Y-40919068D02*
X89929746Y-40906039D01*
X89693241Y-35773480D02*
X89663448Y-35795208D01*
X91423889Y-28845442D02*
X91390966Y-28827316D01*
X89952651Y-29615107D02*
X89967882Y-29600013D01*
X91617497Y-37287268D02*
X91612890Y-37311105D01*
X91612890Y-37311105D02*
X91607665Y-37334648D01*
X91546298Y-36714872D02*
X91556085Y-36736258D01*
X91268795Y-29557137D02*
X91285120Y-29571024D01*
X90960606Y-34938374D02*
X90990469Y-34944324D01*
X89478447Y-29150201D02*
X89454165Y-29178681D01*
X91183659Y-34002646D02*
X91196872Y-34006348D01*
X91933583Y-29330886D02*
X91912680Y-29299141D01*
X92246664Y-37296019D02*
X92250153Y-37253065D01*
X90446706Y-41106716D02*
X90440555Y-41118556D01*
X89667409Y-36925306D02*
X89672662Y-36901891D01*
X91573999Y-36779901D02*
X91582060Y-36802081D01*
X89846109Y-29749909D02*
X89857935Y-29731693D01*
X91163445Y-29482337D02*
X91181881Y-29493787D01*
X90473478Y-36066166D02*
X90462957Y-36058012D01*
X92027543Y-29499353D02*
X92010164Y-29464364D01*
X89746711Y-41512324D02*
X89764269Y-41526475D01*
X91536271Y-29975068D02*
X91542215Y-29997421D01*
X91020206Y-36421419D02*
X91049471Y-36401510D01*
X90238098Y-40716241D02*
X90251809Y-40718657D01*
X89651962Y-41416438D02*
X89666424Y-41433659D01*
X91212497Y-37887731D02*
X91192954Y-37900157D01*
X89781647Y-36641584D02*
X89793947Y-36621974D01*
X90099651Y-41667712D02*
X90123321Y-41670529D01*
X91258458Y-34033764D02*
X91269757Y-34040908D01*
X90495695Y-36080967D02*
X90484396Y-36073823D01*
X89985331Y-28777530D02*
X89950913Y-28793360D01*
X91489724Y-34847029D02*
X92195394Y-35142377D01*
X91637716Y-28993713D02*
X91608948Y-28970243D01*
X90682475Y-31355786D02*
X90668541Y-31357533D01*
X91391115Y-34296674D02*
X91389344Y-34310414D01*
X90896661Y-31191216D02*
X90891083Y-31203380D01*
X90416936Y-36010410D02*
X90409170Y-35999643D01*
X90053076Y-41659769D02*
X90076231Y-41664121D01*
X92116298Y-29721972D02*
X92103619Y-29683593D01*
X90049922Y-38644491D02*
X90086961Y-38658444D01*
X90784456Y-30849506D02*
X90795755Y-30856650D01*
X90958398Y-34040908D02*
X90969697Y-34033764D01*
X91114078Y-33993998D02*
X91128404Y-33994355D01*
X89917223Y-40987682D02*
X89917585Y-40973554D01*
X90896661Y-35952998D02*
X90891083Y-35965161D01*
X91390966Y-28827316D02*
X91357448Y-28809955D01*
X91573265Y-30777606D02*
X91263091Y-30777606D01*
X90544344Y-31342283D02*
X90531699Y-31337365D01*
X90917113Y-35874197D02*
X90915342Y-35887937D01*
X90917113Y-35818057D02*
X90918189Y-35832000D01*
X91779754Y-35945161D02*
X91753289Y-35919691D01*
X90425058Y-35192980D02*
X90375142Y-35211068D01*
X90891889Y-33617732D02*
X90870329Y-33625302D01*
X89872383Y-37728437D02*
X89857507Y-37711528D01*
X89647943Y-37096182D02*
X89648870Y-37071027D01*
X90863215Y-31248628D02*
X90854947Y-31259002D01*
X91150855Y-31550874D02*
X91179180Y-31518762D01*
X91595357Y-37380847D02*
X91588273Y-37403501D01*
X90846193Y-36030749D02*
X90836972Y-36040287D01*
X90428029Y-41635019D02*
X90470943Y-41618429D01*
X89049953Y-37413657D02*
X89057428Y-37454981D01*
X90465405Y-41056296D02*
X90461651Y-41069325D01*
X89887718Y-37744969D02*
X89872383Y-37728437D01*
X90722870Y-35583871D02*
X90735808Y-35588189D01*
X90799221Y-29355717D02*
X90823159Y-29359161D01*
X90893119Y-36485923D02*
X90926291Y-36472170D01*
X90159566Y-31581188D02*
X90191686Y-31609610D01*
X89407720Y-29237605D02*
X89385558Y-29268047D01*
X91234789Y-34021085D02*
X91246796Y-34027150D01*
X90340079Y-40752842D02*
X90351378Y-40759986D01*
X90526047Y-31761709D02*
X90548424Y-31764972D01*
X90609313Y-33795992D02*
X90594158Y-33812292D01*
X89140532Y-29800096D02*
X89130859Y-29839842D01*
X91608333Y-36893200D02*
X91613409Y-36916579D01*
X90473478Y-31304384D02*
X90462957Y-31296231D01*
X90669997Y-34797366D02*
X90693001Y-34815374D01*
X90461651Y-40906039D02*
X90465405Y-40919068D01*
X91132195Y-37934740D02*
X91111225Y-37945369D01*
X89989581Y-41172304D02*
X89980827Y-41162339D01*
X92143138Y-36501599D02*
X92127849Y-36463698D01*
X90891889Y-33117305D02*
X90891889Y-33617732D01*
X91077631Y-36380190D02*
X91104634Y-36357512D01*
X89745504Y-29975068D02*
X89752172Y-29952985D01*
X92250153Y-36989899D02*
X92246664Y-36946855D01*
X92191201Y-30130903D02*
X92187937Y-30087941D01*
X90640075Y-38051737D02*
X90631188Y-38051737D01*
X91621487Y-37263137D02*
X91617497Y-37287268D01*
X90238098Y-41259123D02*
X90224164Y-41260870D01*
X90648963Y-38752859D02*
X90690626Y-38752386D01*
X92254145Y-37165845D02*
X92254644Y-37121583D01*
X90828203Y-33642446D02*
X90807666Y-33651993D01*
X89624744Y-41380616D02*
X89638065Y-41398753D01*
X90836972Y-31278505D02*
X90827299Y-31287599D01*
X90899206Y-34093947D02*
X90907960Y-34083983D01*
X90327097Y-35232727D02*
X90281089Y-35257794D01*
X89775318Y-29888350D02*
X89784143Y-29867402D01*
X92194929Y-30218219D02*
X92193532Y-30174329D01*
X90370369Y-31015732D02*
X90374123Y-31002702D01*
X90443180Y-35651967D02*
X90452852Y-35642874D01*
X90675062Y-33735840D02*
X90657884Y-33750095D01*
X89706884Y-30777606D02*
X89706884Y-30261405D01*
X90862185Y-31735223D02*
X90903421Y-31720099D01*
X90597677Y-35574686D02*
X90611611Y-35572939D01*
X90363038Y-35818057D02*
X90364809Y-35804317D01*
X90030103Y-35514960D02*
X90006406Y-35561407D01*
X91934122Y-38118624D02*
X91956644Y-38087288D01*
X91313121Y-34926709D02*
X91336592Y-34919382D01*
X91391115Y-34240534D02*
X91392191Y-34254476D01*
X90589681Y-29347216D02*
X90614757Y-29346417D01*
X90772795Y-30842893D02*
X90784456Y-30849506D01*
X90837040Y-34296674D02*
X90835964Y-34282731D01*
X89055132Y-33827774D02*
X90431219Y-34403861D01*
X92111615Y-37813637D02*
X92127849Y-37776547D01*
X89690878Y-37412603D02*
X89683988Y-37389971D01*
X90278493Y-41249938D02*
X90265280Y-41253640D01*
X90420953Y-29367623D02*
X90444328Y-29363130D01*
X92214362Y-36738039D02*
X92204941Y-36697559D01*
X89971029Y-37822052D02*
X89953587Y-37807396D01*
X90552348Y-40398010D02*
X90532584Y-40386788D01*
X91344265Y-36441204D02*
X91360926Y-36456684D01*
X90640076Y-31358951D02*
X90625749Y-31358594D01*
X90614757Y-29346417D02*
X90640076Y-29346150D01*
X89037986Y-37329710D02*
X89043472Y-37371900D01*
X89829139Y-37676574D02*
X89815646Y-37658525D01*
X90631189Y-28645029D02*
X90590265Y-28645487D01*
X90439036Y-31741837D02*
X90460390Y-31747804D01*
X89744401Y-37542121D02*
X89734150Y-37521353D01*
X90087451Y-35428531D02*
X90057174Y-35470614D01*
X90364809Y-35804317D02*
X90367259Y-35790797D01*
X90557282Y-31346602D02*
X90544344Y-31342283D01*
X91553714Y-37491132D02*
X91543611Y-37512371D01*
X90590621Y-40422278D02*
X90571698Y-40409844D01*
X90091501Y-28734942D02*
X90055723Y-28748246D01*
X90181372Y-41261930D02*
X90167234Y-41260870D01*
X91554159Y-35759875D02*
X91523719Y-35739694D01*
X91516778Y-38507640D02*
X91548862Y-38486834D01*
X92194539Y-37584263D02*
X92204941Y-37544433D01*
X90750401Y-29350409D02*
X90774968Y-29352799D01*
X91469157Y-34859508D02*
X91489724Y-34847029D01*
X90102401Y-37912947D02*
X90082642Y-37901215D01*
X90969729Y-30479550D02*
X90948484Y-30468725D01*
X89162632Y-29721973D02*
X89151123Y-29760807D01*
X92127849Y-37776547D02*
X92143138Y-37739013D01*
X89522742Y-35914496D02*
X89496249Y-35940487D01*
X91142543Y-33995416D02*
X91156477Y-33997163D01*
X89261258Y-37984273D02*
X89281866Y-38017692D01*
X91380030Y-34350247D02*
X91375651Y-34363005D01*
X90901649Y-30989944D02*
X90906028Y-31002702D01*
X90378502Y-31178747D02*
X90374123Y-31165989D01*
X90502620Y-34597362D02*
X90517335Y-34622606D01*
X90163653Y-37945638D02*
X90142907Y-37935159D01*
X89582501Y-29042939D02*
X89555530Y-29068693D01*
X90099651Y-40307651D02*
X90053076Y-40315595D01*
X90519364Y-36093646D02*
X90507357Y-36087581D01*
X90878225Y-31226719D02*
X90870981Y-31237861D01*
X91580352Y-38465272D02*
X91611249Y-38442956D01*
X89716586Y-30113276D02*
X89720079Y-30089557D01*
X90654402Y-36120375D02*
X90640076Y-36120733D01*
X89734150Y-37521353D02*
X89724364Y-37500189D01*
X91548862Y-38486834D02*
X91580352Y-38465272D01*
X89834710Y-29768516D02*
X89846109Y-29749909D01*
X91607912Y-33784610D02*
X91578205Y-33756810D01*
X90722870Y-36108383D02*
X90709657Y-36112085D01*
X91522799Y-29931171D02*
X91529800Y-29952985D01*
X89658476Y-37272393D02*
X89655167Y-37247994D01*
X90896661Y-30977475D02*
X90901649Y-30989944D01*
X91111225Y-37945369D02*
X91089895Y-37955547D01*
X91276756Y-35568051D02*
X91265479Y-35544245D01*
X92170793Y-36578693D02*
X92157453Y-36539931D01*
X92222797Y-36778947D02*
X92214362Y-36738039D01*
X90835964Y-34282731D02*
X90835602Y-34268604D01*
X90863070Y-34387638D02*
X90857492Y-34375475D01*
X91323334Y-28793359D02*
X91288623Y-28777530D01*
X90531699Y-30831326D02*
X90544344Y-30826408D01*
X90177762Y-36359525D02*
X90204689Y-36381926D01*
X91859292Y-36029731D02*
X91833509Y-36000896D01*
X92183155Y-36617886D02*
X92170793Y-36578693D01*
X89729635Y-40477736D02*
X89696983Y-40508710D01*
X90443180Y-30890187D02*
X90452852Y-30881093D01*
X90784456Y-31319186D02*
X90772795Y-31325799D01*
X91057968Y-34537629D02*
X91044497Y-34534562D01*
X90435098Y-38740800D02*
X90475429Y-38745140D01*
X91320195Y-34083983D02*
X91328949Y-34093947D01*
X90863215Y-36010410D02*
X90854947Y-36020784D01*
X90458379Y-38038653D02*
X90434440Y-38034647D01*
X89647634Y-37121583D02*
X89647943Y-37096182D01*
X91437428Y-36540030D02*
X91451362Y-36557884D01*
X90433958Y-35661505D02*
X90443180Y-35651967D01*
X90397821Y-29372638D02*
X90420953Y-29367623D01*
X90692710Y-33722129D02*
X90675062Y-33735840D01*
X92195394Y-39132632D02*
X91573267Y-39132632D01*
X90805000Y-35179000D02*
X90778373Y-35173165D01*
X91573012Y-30236020D02*
X91573265Y-30261405D01*
X90567603Y-34694099D02*
X90586299Y-34716419D01*
X89725979Y-28925590D02*
X89696135Y-28947536D01*
X90099967Y-41245620D02*
X90087322Y-41240702D01*
X90363774Y-38019427D02*
X90340607Y-38013285D01*
X90882434Y-35202377D02*
X90857052Y-35193628D01*
X89883789Y-28827316D02*
X89851083Y-28845442D01*
X89186057Y-36383903D02*
X89169128Y-36420278D01*
X91414040Y-29713867D02*
X91426177Y-29731693D01*
X90857492Y-34375475D02*
X90852504Y-34363005D01*
X92094686Y-37850084D02*
X92111615Y-37813637D01*
X90611611Y-30811159D02*
X90625749Y-30810098D01*
X90668541Y-30811159D02*
X90682475Y-30812906D01*
X91320195Y-34453226D02*
X91310973Y-34462763D01*
X89065895Y-36729912D02*
X89057428Y-36770622D01*
X91246796Y-34027150D02*
X91258458Y-34033764D01*
X89883154Y-33525124D02*
X90891889Y-33117305D01*
X90470965Y-41029492D02*
X90468515Y-41043012D01*
X90590621Y-41553086D02*
X90627129Y-41526475D01*
X91519090Y-28904407D02*
X91487951Y-28883988D01*
X91347440Y-38600245D02*
X91382498Y-38583254D01*
X91908666Y-36089340D02*
X91884345Y-36059212D01*
X89920455Y-40356935D02*
X89878979Y-40376193D01*
X89250150Y-29499354D02*
X89233620Y-29534989D01*
X89736840Y-36723619D02*
X89747384Y-36702573D01*
X91408191Y-36505505D02*
X91423037Y-36522570D01*
X90709657Y-35580169D02*
X90722870Y-35583871D01*
X90361599Y-31084345D02*
X90361962Y-31070218D01*
X91565341Y-36757960D02*
X91573999Y-36779901D01*
X90277078Y-38713812D02*
X90316088Y-38722002D01*
X91632211Y-37138109D02*
X91631293Y-37163695D01*
X91170188Y-34537629D02*
X91156477Y-34540044D01*
X90981359Y-34027150D02*
X90993366Y-34021085D01*
X92170793Y-37662557D02*
X92183155Y-37623638D01*
X90918551Y-31084345D02*
X90918189Y-31098473D01*
X90901649Y-35940529D02*
X90896661Y-35952998D01*
X90112905Y-41249938D02*
X90099967Y-41245620D01*
X91246796Y-34510058D02*
X91234789Y-34516123D01*
X90947480Y-34488643D02*
X90936959Y-34480489D01*
X90470965Y-40945872D02*
X90472736Y-40959612D01*
X90624995Y-33780184D02*
X90609313Y-33795992D01*
X90473812Y-40973554D02*
X90474174Y-40987682D01*
X89420914Y-38204462D02*
X89446668Y-38233287D01*
X91529800Y-29952985D02*
X91536271Y-29975068D01*
X91316712Y-29600013D02*
X91331935Y-29615107D01*
X90221865Y-29431215D02*
X90242817Y-29422218D01*
X89151123Y-29760807D02*
X89140532Y-29800096D01*
X89972559Y-40823399D02*
X89980827Y-40813025D01*
X91287160Y-37833554D02*
X91269017Y-37847769D01*
X90696186Y-35577102D02*
X90709657Y-35580169D01*
X91392191Y-34282731D02*
X91391115Y-34296674D01*
X90430196Y-28656497D02*
X90391090Y-28661543D01*
X89615311Y-38391882D02*
X89645435Y-38415755D01*
X91360926Y-36456684D02*
X91377134Y-36472562D01*
X89715105Y-37478734D02*
X89706437Y-37456985D01*
X90891083Y-35965161D02*
X90884932Y-35977002D01*
X91291196Y-34056719D02*
X91301301Y-34065351D01*
X91632218Y-37086939D02*
X91632517Y-37112235D01*
X89843093Y-37694241D02*
X89829139Y-37676574D01*
X90383490Y-31191216D02*
X90378502Y-31178747D01*
X90682475Y-35574686D02*
X90696186Y-35577102D01*
X91573267Y-39132632D02*
X91573267Y-40651728D01*
X90788979Y-30413578D02*
X90764839Y-30408830D01*
X91031284Y-34530860D02*
X91018346Y-34526542D01*
X92172525Y-29961822D02*
X92165510Y-29920703D01*
X90029101Y-41207721D02*
X90018580Y-41199567D01*
X90200046Y-38694546D02*
X90238398Y-38704659D01*
X91450828Y-38546973D02*
X91484101Y-38527687D01*
X91536047Y-36693877D02*
X91546298Y-36714872D01*
X89923463Y-29646466D02*
X89937845Y-29630592D01*
X91392889Y-36488835D02*
X91408191Y-36505505D01*
X90013209Y-38629578D02*
X90049922Y-38644491D01*
X90751373Y-35168342D02*
X90724022Y-35164555D01*
X89666424Y-40541704D02*
X89638065Y-40576611D01*
X90883173Y-34115088D02*
X90890938Y-34104322D01*
X90993366Y-34516123D02*
X90981359Y-34510058D01*
X90906028Y-31165989D02*
X90901649Y-31178747D01*
X89666890Y-37320307D02*
X89662384Y-37296497D01*
X91386894Y-34323934D02*
X91383783Y-34337218D01*
X91287126Y-35592341D02*
X91276756Y-35568051D01*
X90846784Y-29363130D02*
X90870097Y-29367623D01*
X91624861Y-37238713D02*
X91621487Y-37263137D01*
X90374123Y-31165989D02*
X90370369Y-31152959D01*
X90517335Y-34622606D02*
X90533091Y-34647163D01*
X90760788Y-31331865D02*
X90748453Y-31337365D01*
X90948484Y-30468725D02*
X90926823Y-30458606D01*
X89652578Y-37021459D02*
X89655359Y-36997047D01*
X90779383Y-40613321D02*
X90766654Y-40594747D01*
X89756396Y-28904408D02*
X89725979Y-28925590D01*
X92236710Y-36862047D02*
X92230247Y-36820283D01*
X90931803Y-35222641D02*
X90907358Y-35212055D01*
X89977041Y-38613820D02*
X90013209Y-38629578D01*
X92204941Y-37544433D02*
X92214362Y-37504150D01*
X91046088Y-35288444D02*
X91024361Y-35273637D01*
X90473812Y-41001809D02*
X90472736Y-41015752D01*
X90870097Y-29367623D02*
X90893098Y-29372638D01*
X90409170Y-31237861D02*
X90401926Y-31226719D01*
X91269017Y-37847769D02*
X91250526Y-37861537D01*
X91296568Y-35617095D02*
X91287126Y-35592341D01*
X90507357Y-36087581D02*
X90495695Y-36080967D01*
X91772633Y-29122375D02*
X91746870Y-29095207D01*
X91546880Y-33730759D02*
X91514016Y-33706538D01*
X90067580Y-29517908D02*
X90085549Y-29505644D01*
X91392191Y-34254476D02*
X91392553Y-34268604D01*
X89696983Y-41466654D02*
X89713054Y-41482400D01*
X90735808Y-31342283D02*
X90722870Y-31346602D01*
X90583966Y-31353370D02*
X90570495Y-31350303D01*
X91629763Y-37188992D02*
X91627619Y-37213998D01*
X89936479Y-37792322D02*
X89919767Y-37776910D01*
X89030002Y-37244028D02*
X89033496Y-37287086D01*
X89800777Y-40422278D02*
X89764269Y-40448889D01*
X89839050Y-40398010D02*
X89800777Y-40422278D01*
X91156477Y-34540044D02*
X91142543Y-34541791D01*
X89267383Y-29464365D02*
X89250150Y-29499354D01*
X90201277Y-29440621D02*
X90221865Y-29431215D01*
X90093662Y-30658920D02*
X90065482Y-30696620D01*
X90778373Y-35173165D02*
X90751373Y-35168342D01*
X90686307Y-31769373D02*
X90731727Y-31764972D01*
X89092141Y-30087942D02*
X89088911Y-30130905D01*
X90355427Y-38729231D02*
X90395097Y-38735497D01*
X89803083Y-29826677D02*
X89813197Y-29806900D01*
X90766654Y-40594747D02*
X90753333Y-40576611D01*
X90452852Y-30881093D02*
X90462957Y-30872461D01*
X91235085Y-29530578D02*
X91252116Y-29543655D01*
X90752472Y-36523752D02*
X90788724Y-36516976D01*
X91336592Y-34919382D02*
X91359697Y-34911270D01*
X91051502Y-34952381D02*
X91082612Y-34954429D01*
X89728661Y-30042943D02*
X89733747Y-30020046D01*
X91089895Y-37955547D02*
X91068202Y-37965275D01*
X90570495Y-31350303D02*
X90557282Y-31346602D01*
X89985331Y-41642281D02*
X90007612Y-41648836D01*
X89027505Y-37024170D02*
X89026006Y-37067980D01*
X89152895Y-36457272D02*
X89137501Y-36494902D01*
X91069159Y-30543725D02*
X91050231Y-30529601D01*
X91992076Y-29430022D02*
X91973283Y-29396327D01*
X91331935Y-29615107D02*
X91346720Y-29630592D01*
X91139610Y-30606205D02*
X91122817Y-30589718D01*
X91502517Y-36633239D02*
X91514156Y-36653060D01*
X90870329Y-33625302D02*
X90849095Y-33633544D01*
X90837674Y-38034647D02*
X90813615Y-38038653D01*
X90468515Y-41043012D02*
X90465405Y-41056296D01*
X91045488Y-29422218D02*
X91066019Y-29431215D01*
X92077061Y-37885889D02*
X92094686Y-37850084D01*
X90696186Y-36115152D02*
X90682475Y-36117568D01*
X92246664Y-36946855D02*
X92242182Y-36904238D01*
X89806687Y-36602725D02*
X89819868Y-36583838D01*
X90926291Y-36472170D02*
X90958564Y-36456800D01*
X90395097Y-38735497D02*
X90435098Y-38740800D01*
X89989581Y-40803060D02*
X89998803Y-40793522D01*
X90278493Y-40725426D02*
X90291431Y-40729744D01*
X91404741Y-34892757D02*
X91426650Y-34882389D01*
X91104634Y-36357512D02*
X91130427Y-36333525D01*
X90251809Y-41256707D02*
X90238098Y-41259123D01*
X90074987Y-41235201D02*
X90062980Y-41229136D01*
X90735808Y-30826408D02*
X90748453Y-30831326D01*
X90161208Y-29460662D02*
X90181058Y-29450437D01*
X92214362Y-37504150D02*
X92222797Y-37463417D01*
X91215891Y-34947842D02*
X91240668Y-34943817D01*
X92157555Y-29880043D02*
X92148657Y-29839841D01*
X89957549Y-40845308D02*
X89964794Y-40834166D01*
X89122106Y-29880044D02*
X89114272Y-29920705D01*
X89802615Y-37640093D02*
X89790046Y-37621276D01*
X92195394Y-30262573D02*
X92194929Y-30218219D01*
X90557282Y-35583871D02*
X90570495Y-35580169D01*
X90640076Y-31770860D02*
X90686307Y-31769373D01*
X90452284Y-41094553D02*
X90446706Y-41106716D01*
X89418249Y-36025045D02*
X89393649Y-36054510D01*
X91514156Y-36653060D02*
X91525333Y-36673273D01*
X90465008Y-34517797D02*
X90476426Y-34544928D01*
X91484101Y-38527687D02*
X91516778Y-38507640D01*
X90831234Y-35185829D02*
X90805000Y-35179000D01*
X91018346Y-34526542D02*
X91005701Y-34521624D01*
X90406067Y-40333083D02*
X90383786Y-40326528D01*
X91753289Y-35919691D02*
X91726330Y-35894879D01*
X90611611Y-31357533D02*
X90597677Y-31355786D01*
X90317636Y-38006609D02*
X90294862Y-37999400D01*
X90244170Y-40302806D02*
X90220039Y-40301579D01*
X90981359Y-34510058D02*
X90969697Y-34503444D01*
X89369749Y-36084612D02*
X89346548Y-36115349D01*
X90837040Y-34240534D02*
X90838811Y-34226794D01*
X90852504Y-34363005D02*
X90848125Y-34350247D01*
X89815646Y-37658525D02*
X89802615Y-37640093D01*
X89638169Y-28993714D02*
X89610047Y-29017946D01*
X90836972Y-36040287D02*
X90827299Y-36049380D01*
X90760788Y-30836827D02*
X90772795Y-30842893D01*
X89937845Y-29630592D02*
X89952651Y-29615107D01*
X89027505Y-37200534D02*
X89030002Y-37244028D01*
X90484396Y-35618431D02*
X90495695Y-35611287D01*
X90532584Y-40386788D02*
X90512419Y-40376193D01*
X89281136Y-36211354D02*
X89260727Y-36244614D01*
X90018580Y-40775797D02*
X90029101Y-40767643D01*
X91698877Y-35870726D02*
X91670928Y-35847232D01*
X90791508Y-40632319D02*
X90779383Y-40613321D01*
X90426604Y-40834166D02*
X90433849Y-40845308D01*
X89055132Y-33204944D02*
X89055132Y-33827774D01*
X90836972Y-30890187D02*
X90846193Y-30899724D01*
X91808910Y-34225382D02*
X91804889Y-34182864D01*
X91179180Y-31518762D02*
X91205465Y-31484944D01*
X89222000Y-36313012D02*
X89203680Y-36348147D01*
X90484396Y-36073823D02*
X90473478Y-36066166D01*
X90261098Y-31660409D02*
X90298202Y-31682599D01*
X91054590Y-31636048D02*
X91088466Y-31609610D01*
X91155830Y-30623245D02*
X91139610Y-30606205D01*
X89941416Y-38597328D02*
X89977041Y-38613820D01*
X90065482Y-30696620D02*
X90039906Y-30736223D01*
X90275973Y-28682187D02*
X90238338Y-28690903D01*
X89813197Y-29806900D02*
X89823739Y-29787513D01*
X90978267Y-37999400D02*
X90955279Y-38006609D01*
X90452852Y-35642874D02*
X90462957Y-35634242D01*
X91388325Y-37739469D02*
X91372507Y-37756080D01*
X91240668Y-34943817D02*
X91265143Y-34938943D01*
X90387136Y-38025034D02*
X90363774Y-38019427D01*
X89655167Y-37247994D02*
X89652457Y-37223301D01*
X90484396Y-30856650D02*
X90495695Y-30849506D01*
X90425204Y-31259002D02*
X90416936Y-31248628D01*
X91211731Y-35454283D02*
X91196241Y-35433214D01*
X90724974Y-40541704D02*
X90709963Y-40524962D01*
X90586299Y-34716419D02*
X90605917Y-34737935D01*
X89939113Y-41094553D02*
X89934125Y-41082083D01*
X91180470Y-36322538D02*
X91205452Y-36337474D01*
X90020319Y-28762467D02*
X89985331Y-28777530D01*
X90361962Y-31070218D02*
X90363038Y-31056276D01*
X91089027Y-38695694D02*
X91127014Y-38684828D01*
X90029946Y-36372807D02*
X90053500Y-36356260D01*
X90915342Y-35804317D02*
X90917113Y-35818057D01*
X90570495Y-36112085D02*
X90557282Y-36108383D01*
X91613540Y-35802229D02*
X91584099Y-35780720D01*
X90564847Y-29348547D02*
X90589681Y-29347216D01*
X92254145Y-37077264D02*
X92252647Y-37033369D01*
X90917113Y-31112415D02*
X90915342Y-31126155D01*
X91357448Y-28809955D02*
X91323334Y-28793359D01*
X90827299Y-35642874D02*
X90836972Y-35651967D01*
X90355490Y-36472827D02*
X90388516Y-36486427D01*
X92195394Y-32596138D02*
X92195394Y-31890342D01*
X90232763Y-36402989D02*
X90261933Y-36422662D01*
X90124320Y-30623245D02*
X90093662Y-30658920D01*
X91552526Y-30042943D02*
X91556898Y-30066113D01*
X90025345Y-37863513D02*
X90006908Y-37850110D01*
X90724022Y-35164555D02*
X90696341Y-35161823D01*
X90849095Y-33633544D02*
X90828203Y-33642446D01*
X89967882Y-29600013D02*
X89983521Y-29585317D01*
X91205465Y-31484944D02*
X91229615Y-31449513D01*
X90364809Y-35887937D02*
X90363038Y-35874197D01*
X90784456Y-35611287D02*
X90795755Y-35618431D01*
X90100971Y-31518762D02*
X90129296Y-31550874D01*
X90640076Y-29346150D02*
X90648963Y-29346150D01*
X90772969Y-38748607D02*
X90813646Y-38745300D01*
X90383490Y-35739256D02*
X90389068Y-35727093D01*
X89605515Y-35840792D02*
X89577374Y-35864649D01*
X90776244Y-31757752D02*
X90819761Y-31747804D01*
X89739139Y-38482927D02*
X89771479Y-38503838D01*
X91845781Y-29207815D02*
X91822090Y-29178680D01*
X90824284Y-36508378D02*
X90859099Y-36498010D01*
X90519364Y-35598608D02*
X90531699Y-35593107D01*
X90127653Y-28722556D02*
X90091501Y-28734942D01*
X90668352Y-35160169D02*
X90640076Y-35159613D01*
X89364100Y-29299141D02*
X89343348Y-29330887D01*
X90395219Y-30953471D02*
X90401926Y-30941972D01*
X90981950Y-31682599D02*
X91019053Y-31660409D01*
X90367259Y-35790797D02*
X90370369Y-35777513D01*
X90516093Y-38748516D02*
X90557088Y-38750928D01*
X91746870Y-29095207D02*
X91720468Y-29068692D01*
X91352227Y-34410978D02*
X91344983Y-34422120D01*
X91797707Y-29150200D02*
X91772633Y-29122375D01*
X92195394Y-34453816D02*
X91809971Y-34295480D01*
X91196241Y-35433214D02*
X91179972Y-35412757D01*
X91127014Y-38684828D02*
X91164660Y-38673017D01*
X89652457Y-37223301D02*
X89650349Y-37198313D01*
X90123321Y-41670529D02*
X90147228Y-41672557D01*
X90915788Y-29378175D02*
X90938168Y-29384232D01*
X92060169Y-29571269D02*
X92044212Y-29534988D01*
X90195852Y-35317500D02*
X90156958Y-35351810D01*
X90583966Y-30815321D02*
X90597677Y-30812906D01*
X91392553Y-34268604D02*
X91392191Y-34282731D01*
X90625749Y-36120375D02*
X90611611Y-36119315D01*
X90008475Y-40784429D02*
X90018580Y-40775797D01*
X91572240Y-37447916D02*
X91563289Y-37469674D01*
X89088911Y-30130905D02*
X89086604Y-30174330D01*
X90352350Y-28667507D02*
X90313978Y-28674388D01*
X91222455Y-34521624D02*
X91209810Y-34526542D01*
X89496249Y-35940487D02*
X89469549Y-35968032D01*
X90164177Y-28711088D02*
X90127653Y-28722556D01*
X90753333Y-41398753D02*
X90779383Y-41362042D01*
X90147228Y-41672557D02*
X90171359Y-41673784D01*
X90710813Y-33708974D02*
X90692710Y-33722129D01*
X90242817Y-29422218D02*
X90264133Y-29413632D01*
X90891083Y-31203380D02*
X90884932Y-31215220D01*
X89906335Y-38580102D02*
X89941416Y-38597328D01*
X91370663Y-34161733D02*
X91375651Y-34174203D01*
X91627619Y-37213998D02*
X91624861Y-37238713D01*
X90725517Y-29348547D02*
X90750401Y-29350409D01*
X90529829Y-35168172D02*
X90476676Y-35178627D01*
X90597677Y-31355786D02*
X90583966Y-31353370D01*
X89683988Y-37389971D02*
X89677693Y-37367044D01*
X91396942Y-35665628D02*
X91363990Y-35648781D01*
X90894003Y-38735851D02*
X90933681Y-38729709D01*
X89857507Y-37711528D02*
X89843093Y-37694241D01*
X90912892Y-31029015D02*
X90915342Y-31042536D01*
X90370369Y-35914741D02*
X90367259Y-35901457D01*
X89030002Y-36980804D02*
X89027505Y-37024170D01*
X90307724Y-29397900D02*
X90329883Y-29390807D01*
X91556898Y-30066113D02*
X91560748Y-30089557D01*
X90958398Y-34496300D02*
X90947480Y-34488643D01*
X90454748Y-34490096D02*
X90465008Y-34517797D01*
X89998803Y-40793522D02*
X90008475Y-40784429D01*
X91145185Y-35373760D02*
X91126709Y-35355262D01*
X90626425Y-34758618D02*
X90647795Y-34778438D01*
X90192573Y-30558462D02*
X90157332Y-30589718D01*
X91747662Y-33983644D02*
X91729354Y-33947037D01*
X89787386Y-28883989D02*
X89756396Y-28904408D01*
X90748453Y-36099147D02*
X90735808Y-36104065D01*
X89217792Y-29571270D02*
X89202666Y-29608195D01*
X91884345Y-36059212D02*
X91859292Y-36029731D01*
X89084757Y-40651728D02*
X89084757Y-41323636D01*
X90127562Y-36310912D02*
X90152035Y-36335836D01*
X91222455Y-34015584D02*
X91234789Y-34021085D01*
X89919767Y-37776910D02*
X89903513Y-37761126D01*
X90906028Y-35764483D02*
X90909782Y-35777513D01*
X91285120Y-29571024D02*
X91301093Y-29585317D01*
X92039719Y-37955577D02*
X92058739Y-37921053D01*
X90418838Y-41151964D02*
X90410570Y-41162339D01*
X89724104Y-30066113D02*
X89728661Y-30042943D01*
X90437824Y-34433099D02*
X90445677Y-34461853D01*
X90817194Y-36058012D02*
X90806674Y-36066166D01*
X92230247Y-36820283D02*
X92222797Y-36778947D01*
X89696135Y-28947536D02*
X89666865Y-28970244D01*
X89871799Y-38562141D02*
X89906335Y-38580102D01*
X91067208Y-35304030D02*
X91046088Y-35288444D01*
X90915342Y-35887937D02*
X90912892Y-35901457D01*
X90748331Y-33684384D02*
X90729359Y-33696388D01*
X89241015Y-36278501D02*
X89222000Y-36313012D01*
X90457272Y-40893280D02*
X90461651Y-40906039D01*
X90367259Y-35901457D02*
X90364809Y-35887937D01*
X91128404Y-34542852D02*
X91114078Y-34543210D01*
X89302242Y-36178722D02*
X89281136Y-36211354D01*
X89895975Y-29679386D02*
X89909506Y-29662731D01*
X91489636Y-29846844D02*
X91498644Y-29867402D01*
X89941219Y-36445878D02*
X89962592Y-36426598D01*
X91953784Y-29363282D02*
X91933583Y-29330886D01*
X90597677Y-36117568D02*
X90583966Y-36115152D01*
X92076880Y-36353761D02*
X92058420Y-36318426D01*
X90272288Y-37991656D02*
X90249913Y-37983378D01*
X91386894Y-34213274D02*
X91389344Y-34226794D01*
X90361962Y-31098473D02*
X90361599Y-31084345D01*
X91631322Y-37061883D02*
X91632218Y-37086939D01*
X90425204Y-30909689D02*
X90433958Y-30899724D01*
X89754482Y-35732152D02*
X89723585Y-35752462D01*
X90491806Y-29355717D02*
X90515910Y-29352799D01*
X90611611Y-36119315D02*
X90597677Y-36117568D01*
X89555530Y-29068693D02*
X89529135Y-29095208D01*
X89233620Y-29534989D02*
X89217792Y-29571270D01*
X90890938Y-34104322D02*
X90899206Y-34093947D01*
X90926854Y-34065351D02*
X90936959Y-34056719D01*
X90507357Y-35604673D02*
X90519364Y-35598608D01*
X91809971Y-34295480D02*
X91810142Y-34288734D01*
X91403695Y-37722503D02*
X91388325Y-37739469D01*
X90422375Y-36498380D02*
X90457014Y-36508635D01*
X90416936Y-31248628D02*
X90409170Y-31237861D01*
X90990542Y-30491065D02*
X90969729Y-30479550D01*
X91596391Y-36847161D02*
X91602661Y-36870061D01*
X89934125Y-40893280D02*
X89939113Y-40880811D01*
X92242182Y-37338534D02*
X92246664Y-37296019D01*
X90167234Y-40714494D02*
X90181372Y-40713434D01*
X90313978Y-28674388D02*
X90275973Y-28682187D01*
X90823159Y-29359161D02*
X90846784Y-29363130D01*
X89663448Y-35795208D02*
X89634206Y-35817645D01*
X89922882Y-41043012D02*
X89920432Y-41029492D01*
X91300105Y-36403961D02*
X91322449Y-36422252D01*
X89708195Y-36788582D02*
X89717155Y-36766675D01*
X89804370Y-38524009D02*
X89837811Y-38543444D01*
X90087322Y-40734662D02*
X90099967Y-40729744D01*
X89473162Y-38261450D02*
X89500398Y-38288950D01*
X90806674Y-36066166D02*
X90795755Y-36073823D01*
X89706884Y-30261405D02*
X89707155Y-30236020D01*
X91082612Y-34954429D02*
X91114078Y-34955118D01*
X90598415Y-38752376D02*
X90640076Y-38752859D01*
X89752172Y-29952985D02*
X89759364Y-29931171D01*
X90425204Y-36020784D02*
X90416936Y-36010410D01*
X91258458Y-34503444D02*
X91246796Y-34510058D01*
X91910897Y-38149325D02*
X91934122Y-38118624D01*
X90063212Y-37889065D02*
X90044113Y-37876498D01*
X90571028Y-31767531D02*
X90593845Y-31769373D01*
X89964794Y-41141198D02*
X89957549Y-41130056D01*
X90657884Y-33750095D02*
X90641190Y-33764881D01*
X90153300Y-41259123D02*
X90139589Y-41256707D01*
X90973024Y-38722623D02*
X91012030Y-38714591D01*
X90549857Y-34671004D02*
X90567603Y-34694099D01*
X90488973Y-34571460D02*
X90502620Y-34597362D01*
X90370369Y-31152959D02*
X90367259Y-31139676D01*
X90753333Y-40576611D02*
X90739436Y-40558925D01*
X90549702Y-28646864D02*
X90509503Y-28649157D01*
X91181533Y-28734942D02*
X91145129Y-28722556D01*
X91480178Y-29826677D02*
X91489636Y-29846844D01*
X92089991Y-29645667D02*
X92075413Y-29608194D01*
X90376731Y-31720099D02*
X90397194Y-31727973D01*
X90552348Y-41577354D02*
X90590621Y-41553086D01*
X90817194Y-31296231D02*
X90806674Y-31304384D01*
X90352286Y-29384232D02*
X90374932Y-29378175D01*
X91401460Y-29696432D02*
X91414040Y-29713867D01*
X90870981Y-35999643D02*
X90863215Y-36010410D01*
X89152895Y-37770121D02*
X89169143Y-37807429D01*
X91311785Y-38616466D02*
X91347440Y-38600245D01*
X91382498Y-38583254D02*
X91416961Y-38565496D01*
X90813646Y-38745300D02*
X90853991Y-38741048D01*
X91912680Y-29299141D02*
X91891077Y-29268046D01*
X89739362Y-29997421D02*
X89745504Y-29975068D01*
X90731727Y-31764972D02*
X90776244Y-31757752D01*
X92222797Y-37463417D02*
X92230247Y-37422235D01*
X90062980Y-41229136D02*
X90051318Y-41222522D01*
X89658758Y-36972884D02*
X89662774Y-36948970D01*
X90583966Y-35577102D02*
X90597677Y-35574686D01*
X90153300Y-40716241D02*
X90167234Y-40714494D01*
X89769787Y-36661555D02*
X89781647Y-36641584D01*
X90491170Y-30413578D02*
X90443827Y-30425497D01*
X91632517Y-37112235D02*
X91632211Y-37138109D01*
X89878979Y-40376193D02*
X89839050Y-40398010D01*
X91625053Y-36988153D02*
X91627740Y-37012490D01*
X90875928Y-34410978D02*
X90869221Y-34399478D01*
X90323349Y-36457632D02*
X90355490Y-36472827D01*
X89343348Y-29330887D02*
X89323301Y-29363283D01*
X91999582Y-38022708D02*
X92020000Y-37989462D01*
X90869221Y-34399478D02*
X90863070Y-34387638D01*
X90665422Y-38051470D02*
X90640075Y-38051737D01*
X91201963Y-38660261D02*
X91238921Y-38646561D01*
X90605949Y-38051470D02*
X90580892Y-38050669D01*
X90129296Y-31550874D02*
X90159566Y-31581188D01*
X89137501Y-36494902D02*
X89123095Y-36532971D01*
X91389344Y-34310414D02*
X91386894Y-34323934D01*
X91339525Y-37788233D02*
X91322412Y-37803785D01*
X92250153Y-37253065D02*
X92252647Y-37209673D01*
X92204941Y-36697559D02*
X92194539Y-36657508D01*
X91665891Y-29017945D02*
X91637716Y-28993713D01*
X90735808Y-35588189D02*
X90748453Y-35593107D01*
X90338322Y-40315595D02*
X90315167Y-40311243D01*
X90389068Y-35727093D02*
X90395219Y-35715252D01*
X92195394Y-35142377D02*
X92195394Y-34453816D01*
X90531699Y-36099147D02*
X90519364Y-36093646D01*
X91448127Y-34871300D02*
X91469157Y-34859508D01*
X89109676Y-37655151D02*
X89123095Y-37693900D01*
X90382922Y-41190935D02*
X90372817Y-41199567D01*
X91154960Y-36308283D02*
X91180470Y-36322538D01*
X90370369Y-35777513D02*
X90374123Y-35764483D01*
X89430589Y-29207816D02*
X89407720Y-29237605D01*
X91621769Y-36964055D02*
X91625053Y-36988153D01*
X91370663Y-34375475D02*
X91365085Y-34387638D01*
X90907358Y-35212055D02*
X90882434Y-35202377D01*
X89917066Y-28809955D02*
X89883789Y-28827316D01*
X89793398Y-29846844D02*
X89803083Y-29826677D01*
X89988802Y-37836290D02*
X89971029Y-37822052D01*
X90410570Y-40813025D02*
X90418838Y-40823399D01*
X90206128Y-37965343D02*
X90184727Y-37955699D01*
X90906028Y-31002702D02*
X90909782Y-31015732D01*
X89049953Y-36811773D02*
X89043472Y-36853367D01*
X90893098Y-29372638D02*
X90915788Y-29378175D01*
X90378502Y-35751725D02*
X90383490Y-35739256D01*
X90700317Y-29347216D02*
X90725517Y-29348547D01*
X91205452Y-36337474D02*
X91229907Y-36353087D01*
X90812812Y-30419139D02*
X90788979Y-30413578D01*
X90310420Y-30479550D02*
X90269242Y-30503255D01*
X89729635Y-41497628D02*
X89746711Y-41512324D01*
X91437869Y-29749909D02*
X91449117Y-29768516D01*
X89941739Y-41627064D02*
X89963369Y-41635019D01*
X90449659Y-40348300D02*
X90428029Y-40340344D01*
X90696186Y-31353370D02*
X90682475Y-31355786D01*
X90764952Y-38045061D02*
X90740347Y-38047465D01*
X90891083Y-30965312D02*
X90896661Y-30977475D01*
X90316411Y-41235201D02*
X90304076Y-41240702D01*
X89395899Y-38174977D02*
X89420914Y-38204462D01*
X91613409Y-36916579D02*
X91617887Y-36940197D01*
X91068202Y-37965275D02*
X91046144Y-37974552D01*
X89944691Y-40868648D02*
X89950842Y-40856808D01*
X90571698Y-40409844D02*
X90552348Y-40398010D01*
X91359697Y-34911270D02*
X91382419Y-34902390D01*
X91071285Y-28700537D02*
X91033844Y-28690903D01*
X90201072Y-28700537D02*
X90164177Y-28711088D01*
X90362297Y-40767643D02*
X90372817Y-40775797D01*
X89851083Y-28845442D02*
X89818948Y-28864333D01*
X91377134Y-36472562D02*
X91392889Y-36488835D01*
X91473881Y-37632329D02*
X91460728Y-37651076D01*
X91868777Y-29237604D02*
X91845781Y-29207815D01*
X90265280Y-41253640D02*
X90251809Y-41256707D01*
X91209810Y-34010666D02*
X91222455Y-34015584D01*
X89920432Y-41029492D02*
X89918661Y-41015752D01*
X90761938Y-28649157D02*
X90721676Y-28646864D01*
X90806674Y-30864307D02*
X90817194Y-30872461D01*
X90238338Y-28690903D02*
X90201072Y-28700537D01*
X89109676Y-36571480D02*
X89097246Y-36610427D01*
X89817932Y-35693657D02*
X89785930Y-35712551D01*
X89285319Y-29430023D02*
X89267383Y-29464365D01*
X90374123Y-35764483D02*
X90378502Y-35751725D01*
X91337217Y-34104322D02*
X91344983Y-34115088D01*
X90557282Y-30822090D02*
X90570495Y-30818388D01*
X91044497Y-34534562D02*
X91031284Y-34530860D01*
X90416936Y-35681844D02*
X90425204Y-35671470D01*
X89085219Y-30218220D02*
X89084758Y-30262574D01*
X90074987Y-40740163D02*
X90087322Y-40734662D01*
X89685021Y-36855813D02*
X89692128Y-36833151D01*
X90361962Y-35860254D02*
X90361599Y-35846127D01*
X89717155Y-36766675D02*
X89726733Y-36745022D01*
X91566893Y-30137270D02*
X91569192Y-30161540D01*
X89043472Y-37371900D02*
X89049953Y-37413657D01*
X91563289Y-37469674D02*
X91553714Y-37491132D01*
X90238398Y-38704659D02*
X90277078Y-38713812D01*
X92138816Y-29800095D02*
X92128030Y-29760806D01*
X91383783Y-34337218D02*
X91380030Y-34350247D01*
X91088466Y-31609610D02*
X91120586Y-31581188D01*
X92236710Y-37380606D02*
X92242182Y-37338534D01*
D11*
X49349819Y-38829856D02*
X48349819Y-38829856D01*
X48349819Y-38829856D02*
X49064104Y-38496523D01*
X49064104Y-38496523D02*
X48349819Y-38163190D01*
X48349819Y-38163190D02*
X49349819Y-38163190D01*
X49349819Y-37686999D02*
X48683152Y-37686999D01*
X48349819Y-37686999D02*
X48397438Y-37734618D01*
X48397438Y-37734618D02*
X48445057Y-37686999D01*
X48445057Y-37686999D02*
X48397438Y-37639380D01*
X48397438Y-37639380D02*
X48349819Y-37686999D01*
X48349819Y-37686999D02*
X48445057Y-37686999D01*
X49302200Y-36782238D02*
X49349819Y-36877476D01*
X49349819Y-36877476D02*
X49349819Y-37067952D01*
X49349819Y-37067952D02*
X49302200Y-37163190D01*
X49302200Y-37163190D02*
X49254580Y-37210809D01*
X49254580Y-37210809D02*
X49159342Y-37258428D01*
X49159342Y-37258428D02*
X48873628Y-37258428D01*
X48873628Y-37258428D02*
X48778390Y-37210809D01*
X48778390Y-37210809D02*
X48730771Y-37163190D01*
X48730771Y-37163190D02*
X48683152Y-37067952D01*
X48683152Y-37067952D02*
X48683152Y-36877476D01*
X48683152Y-36877476D02*
X48730771Y-36782238D01*
X49349819Y-36353666D02*
X48683152Y-36353666D01*
X48873628Y-36353666D02*
X48778390Y-36306047D01*
X48778390Y-36306047D02*
X48730771Y-36258428D01*
X48730771Y-36258428D02*
X48683152Y-36163190D01*
X48683152Y-36163190D02*
X48683152Y-36067952D01*
X49349819Y-35591761D02*
X49302200Y-35686999D01*
X49302200Y-35686999D02*
X49254580Y-35734618D01*
X49254580Y-35734618D02*
X49159342Y-35782237D01*
X49159342Y-35782237D02*
X48873628Y-35782237D01*
X48873628Y-35782237D02*
X48778390Y-35734618D01*
X48778390Y-35734618D02*
X48730771Y-35686999D01*
X48730771Y-35686999D02*
X48683152Y-35591761D01*
X48683152Y-35591761D02*
X48683152Y-35448904D01*
X48683152Y-35448904D02*
X48730771Y-35353666D01*
X48730771Y-35353666D02*
X48778390Y-35306047D01*
X48778390Y-35306047D02*
X48873628Y-35258428D01*
X48873628Y-35258428D02*
X49159342Y-35258428D01*
X49159342Y-35258428D02*
X49254580Y-35306047D01*
X49254580Y-35306047D02*
X49302200Y-35353666D01*
X49302200Y-35353666D02*
X49349819Y-35448904D01*
X49349819Y-35448904D02*
X49349819Y-35591761D01*
X48349819Y-34829856D02*
X49159342Y-34829856D01*
X49159342Y-34829856D02*
X49254580Y-34782237D01*
X49254580Y-34782237D02*
X49302200Y-34734618D01*
X49302200Y-34734618D02*
X49349819Y-34639380D01*
X49349819Y-34639380D02*
X49349819Y-34448904D01*
X49349819Y-34448904D02*
X49302200Y-34353666D01*
X49302200Y-34353666D02*
X49254580Y-34306047D01*
X49254580Y-34306047D02*
X49159342Y-34258428D01*
X49159342Y-34258428D02*
X48349819Y-34258428D01*
X49302200Y-33829856D02*
X49349819Y-33734618D01*
X49349819Y-33734618D02*
X49349819Y-33544142D01*
X49349819Y-33544142D02*
X49302200Y-33448904D01*
X49302200Y-33448904D02*
X49206961Y-33401285D01*
X49206961Y-33401285D02*
X49159342Y-33401285D01*
X49159342Y-33401285D02*
X49064104Y-33448904D01*
X49064104Y-33448904D02*
X49016485Y-33544142D01*
X49016485Y-33544142D02*
X49016485Y-33686999D01*
X49016485Y-33686999D02*
X48968866Y-33782237D01*
X48968866Y-33782237D02*
X48873628Y-33829856D01*
X48873628Y-33829856D02*
X48826009Y-33829856D01*
X48826009Y-33829856D02*
X48730771Y-33782237D01*
X48730771Y-33782237D02*
X48683152Y-33686999D01*
X48683152Y-33686999D02*
X48683152Y-33544142D01*
X48683152Y-33544142D02*
X48730771Y-33448904D01*
X49349819Y-32972713D02*
X48349819Y-32972713D01*
X48730771Y-32972713D02*
X48683152Y-32877475D01*
X48683152Y-32877475D02*
X48683152Y-32686999D01*
X48683152Y-32686999D02*
X48730771Y-32591761D01*
X48730771Y-32591761D02*
X48778390Y-32544142D01*
X48778390Y-32544142D02*
X48873628Y-32496523D01*
X48873628Y-32496523D02*
X49159342Y-32496523D01*
X49159342Y-32496523D02*
X49254580Y-32544142D01*
X49254580Y-32544142D02*
X49302200Y-32591761D01*
X49302200Y-32591761D02*
X49349819Y-32686999D01*
X49349819Y-32686999D02*
X49349819Y-32877475D01*
X49349819Y-32877475D02*
X49302200Y-32972713D01*
X54917819Y-36599309D02*
X55727342Y-36599309D01*
X55727342Y-36599309D02*
X55822580Y-36551690D01*
X55822580Y-36551690D02*
X55870200Y-36504071D01*
X55870200Y-36504071D02*
X55917819Y-36408833D01*
X55917819Y-36408833D02*
X55917819Y-36218357D01*
X55917819Y-36218357D02*
X55870200Y-36123119D01*
X55870200Y-36123119D02*
X55822580Y-36075500D01*
X55822580Y-36075500D02*
X55727342Y-36027881D01*
X55727342Y-36027881D02*
X54917819Y-36027881D01*
X55394009Y-35218357D02*
X55441628Y-35075500D01*
X55441628Y-35075500D02*
X55489247Y-35027881D01*
X55489247Y-35027881D02*
X55584485Y-34980262D01*
X55584485Y-34980262D02*
X55727342Y-34980262D01*
X55727342Y-34980262D02*
X55822580Y-35027881D01*
X55822580Y-35027881D02*
X55870200Y-35075500D01*
X55870200Y-35075500D02*
X55917819Y-35170738D01*
X55917819Y-35170738D02*
X55917819Y-35551690D01*
X55917819Y-35551690D02*
X54917819Y-35551690D01*
X54917819Y-35551690D02*
X54917819Y-35218357D01*
X54917819Y-35218357D02*
X54965438Y-35123119D01*
X54965438Y-35123119D02*
X55013057Y-35075500D01*
X55013057Y-35075500D02*
X55108295Y-35027881D01*
X55108295Y-35027881D02*
X55203533Y-35027881D01*
X55203533Y-35027881D02*
X55298771Y-35075500D01*
X55298771Y-35075500D02*
X55346390Y-35123119D01*
X55346390Y-35123119D02*
X55394009Y-35218357D01*
X55394009Y-35218357D02*
X55394009Y-35551690D01*
X55917819Y-34551690D02*
X54917819Y-34551690D01*
X54917819Y-34551690D02*
X54917819Y-34170738D01*
X54917819Y-34170738D02*
X54965438Y-34075500D01*
X54965438Y-34075500D02*
X55013057Y-34027881D01*
X55013057Y-34027881D02*
X55108295Y-33980262D01*
X55108295Y-33980262D02*
X55251152Y-33980262D01*
X55251152Y-33980262D02*
X55346390Y-34027881D01*
X55346390Y-34027881D02*
X55394009Y-34075500D01*
X55394009Y-34075500D02*
X55441628Y-34170738D01*
X55441628Y-34170738D02*
X55441628Y-34551690D01*
X55394009Y-33551690D02*
X55394009Y-33218357D01*
X55917819Y-33075500D02*
X55917819Y-33551690D01*
X55917819Y-33551690D02*
X54917819Y-33551690D01*
X54917819Y-33551690D02*
X54917819Y-33075500D01*
X55013057Y-31932642D02*
X54965438Y-31885023D01*
X54965438Y-31885023D02*
X54917819Y-31789785D01*
X54917819Y-31789785D02*
X54917819Y-31551690D01*
X54917819Y-31551690D02*
X54965438Y-31456452D01*
X54965438Y-31456452D02*
X55013057Y-31408833D01*
X55013057Y-31408833D02*
X55108295Y-31361214D01*
X55108295Y-31361214D02*
X55203533Y-31361214D01*
X55203533Y-31361214D02*
X55346390Y-31408833D01*
X55346390Y-31408833D02*
X55917819Y-31980261D01*
X55917819Y-31980261D02*
X55917819Y-31361214D01*
X54917819Y-30742166D02*
X54917819Y-30646928D01*
X54917819Y-30646928D02*
X54965438Y-30551690D01*
X54965438Y-30551690D02*
X55013057Y-30504071D01*
X55013057Y-30504071D02*
X55108295Y-30456452D01*
X55108295Y-30456452D02*
X55298771Y-30408833D01*
X55298771Y-30408833D02*
X55536866Y-30408833D01*
X55536866Y-30408833D02*
X55727342Y-30456452D01*
X55727342Y-30456452D02*
X55822580Y-30504071D01*
X55822580Y-30504071D02*
X55870200Y-30551690D01*
X55870200Y-30551690D02*
X55917819Y-30646928D01*
X55917819Y-30646928D02*
X55917819Y-30742166D01*
X55917819Y-30742166D02*
X55870200Y-30837404D01*
X55870200Y-30837404D02*
X55822580Y-30885023D01*
X55822580Y-30885023D02*
X55727342Y-30932642D01*
X55727342Y-30932642D02*
X55536866Y-30980261D01*
X55536866Y-30980261D02*
X55298771Y-30980261D01*
X55298771Y-30980261D02*
X55108295Y-30932642D01*
X55108295Y-30932642D02*
X55013057Y-30885023D01*
X55013057Y-30885023D02*
X54965438Y-30837404D01*
X54965438Y-30837404D02*
X54917819Y-30742166D01*
X55013057Y-30027880D02*
X54965438Y-29980261D01*
X54965438Y-29980261D02*
X54917819Y-29885023D01*
X54917819Y-29885023D02*
X54917819Y-29646928D01*
X54917819Y-29646928D02*
X54965438Y-29551690D01*
X54965438Y-29551690D02*
X55013057Y-29504071D01*
X55013057Y-29504071D02*
X55108295Y-29456452D01*
X55108295Y-29456452D02*
X55203533Y-29456452D01*
X55203533Y-29456452D02*
X55346390Y-29504071D01*
X55346390Y-29504071D02*
X55917819Y-30075499D01*
X55917819Y-30075499D02*
X55917819Y-29456452D01*
X54917819Y-29123118D02*
X54917819Y-28504071D01*
X54917819Y-28504071D02*
X55298771Y-28837404D01*
X55298771Y-28837404D02*
X55298771Y-28694547D01*
X55298771Y-28694547D02*
X55346390Y-28599309D01*
X55346390Y-28599309D02*
X55394009Y-28551690D01*
X55394009Y-28551690D02*
X55489247Y-28504071D01*
X55489247Y-28504071D02*
X55727342Y-28504071D01*
X55727342Y-28504071D02*
X55822580Y-28551690D01*
X55822580Y-28551690D02*
X55870200Y-28599309D01*
X55870200Y-28599309D02*
X55917819Y-28694547D01*
X55917819Y-28694547D02*
X55917819Y-28980261D01*
X55917819Y-28980261D02*
X55870200Y-29075499D01*
X55870200Y-29075499D02*
X55822580Y-29123118D01*
X57432580Y-39908834D02*
X57480200Y-39956453D01*
X57480200Y-39956453D02*
X57527819Y-40099310D01*
X57527819Y-40099310D02*
X57527819Y-40194548D01*
X57527819Y-40194548D02*
X57480200Y-40337405D01*
X57480200Y-40337405D02*
X57384961Y-40432643D01*
X57384961Y-40432643D02*
X57289723Y-40480262D01*
X57289723Y-40480262D02*
X57099247Y-40527881D01*
X57099247Y-40527881D02*
X56956390Y-40527881D01*
X56956390Y-40527881D02*
X56765914Y-40480262D01*
X56765914Y-40480262D02*
X56670676Y-40432643D01*
X56670676Y-40432643D02*
X56575438Y-40337405D01*
X56575438Y-40337405D02*
X56527819Y-40194548D01*
X56527819Y-40194548D02*
X56527819Y-40099310D01*
X56527819Y-40099310D02*
X56575438Y-39956453D01*
X56575438Y-39956453D02*
X56623057Y-39908834D01*
X56527819Y-39289786D02*
X56527819Y-39099310D01*
X56527819Y-39099310D02*
X56575438Y-39004072D01*
X56575438Y-39004072D02*
X56670676Y-38908834D01*
X56670676Y-38908834D02*
X56861152Y-38861215D01*
X56861152Y-38861215D02*
X57194485Y-38861215D01*
X57194485Y-38861215D02*
X57384961Y-38908834D01*
X57384961Y-38908834D02*
X57480200Y-39004072D01*
X57480200Y-39004072D02*
X57527819Y-39099310D01*
X57527819Y-39099310D02*
X57527819Y-39289786D01*
X57527819Y-39289786D02*
X57480200Y-39385024D01*
X57480200Y-39385024D02*
X57384961Y-39480262D01*
X57384961Y-39480262D02*
X57194485Y-39527881D01*
X57194485Y-39527881D02*
X56861152Y-39527881D01*
X56861152Y-39527881D02*
X56670676Y-39480262D01*
X56670676Y-39480262D02*
X56575438Y-39385024D01*
X56575438Y-39385024D02*
X56527819Y-39289786D01*
X56623057Y-38480262D02*
X56575438Y-38432643D01*
X56575438Y-38432643D02*
X56527819Y-38337405D01*
X56527819Y-38337405D02*
X56527819Y-38099310D01*
X56527819Y-38099310D02*
X56575438Y-38004072D01*
X56575438Y-38004072D02*
X56623057Y-37956453D01*
X56623057Y-37956453D02*
X56718295Y-37908834D01*
X56718295Y-37908834D02*
X56813533Y-37908834D01*
X56813533Y-37908834D02*
X56956390Y-37956453D01*
X56956390Y-37956453D02*
X57527819Y-38527881D01*
X57527819Y-38527881D02*
X57527819Y-37908834D01*
X56861152Y-36718357D02*
X57861152Y-36718357D01*
X56908771Y-36718357D02*
X56861152Y-36623119D01*
X56861152Y-36623119D02*
X56861152Y-36432643D01*
X56861152Y-36432643D02*
X56908771Y-36337405D01*
X56908771Y-36337405D02*
X56956390Y-36289786D01*
X56956390Y-36289786D02*
X57051628Y-36242167D01*
X57051628Y-36242167D02*
X57337342Y-36242167D01*
X57337342Y-36242167D02*
X57432580Y-36289786D01*
X57432580Y-36289786D02*
X57480200Y-36337405D01*
X57480200Y-36337405D02*
X57527819Y-36432643D01*
X57527819Y-36432643D02*
X57527819Y-36623119D01*
X57527819Y-36623119D02*
X57480200Y-36718357D01*
X56861152Y-35908833D02*
X57527819Y-35718357D01*
X57527819Y-35718357D02*
X57051628Y-35527881D01*
X57051628Y-35527881D02*
X57527819Y-35337405D01*
X57527819Y-35337405D02*
X56861152Y-35146929D01*
X57527819Y-34765976D02*
X56861152Y-34765976D01*
X57051628Y-34765976D02*
X56956390Y-34718357D01*
X56956390Y-34718357D02*
X56908771Y-34670738D01*
X56908771Y-34670738D02*
X56861152Y-34575500D01*
X56861152Y-34575500D02*
X56861152Y-34480262D01*
X57480200Y-33432642D02*
X57527819Y-33337404D01*
X57527819Y-33337404D02*
X57527819Y-33146928D01*
X57527819Y-33146928D02*
X57480200Y-33051690D01*
X57480200Y-33051690D02*
X57384961Y-33004071D01*
X57384961Y-33004071D02*
X57337342Y-33004071D01*
X57337342Y-33004071D02*
X57242104Y-33051690D01*
X57242104Y-33051690D02*
X57194485Y-33146928D01*
X57194485Y-33146928D02*
X57194485Y-33289785D01*
X57194485Y-33289785D02*
X57146866Y-33385023D01*
X57146866Y-33385023D02*
X57051628Y-33432642D01*
X57051628Y-33432642D02*
X57004009Y-33432642D01*
X57004009Y-33432642D02*
X56908771Y-33385023D01*
X56908771Y-33385023D02*
X56861152Y-33289785D01*
X56861152Y-33289785D02*
X56861152Y-33146928D01*
X56861152Y-33146928D02*
X56908771Y-33051690D01*
X56861152Y-32146928D02*
X57527819Y-32146928D01*
X56861152Y-32575499D02*
X57384961Y-32575499D01*
X57384961Y-32575499D02*
X57480200Y-32527880D01*
X57480200Y-32527880D02*
X57527819Y-32432642D01*
X57527819Y-32432642D02*
X57527819Y-32289785D01*
X57527819Y-32289785D02*
X57480200Y-32194547D01*
X57480200Y-32194547D02*
X57432580Y-32146928D01*
X56861152Y-31670737D02*
X57861152Y-31670737D01*
X56908771Y-31670737D02*
X56861152Y-31575499D01*
X56861152Y-31575499D02*
X56861152Y-31385023D01*
X56861152Y-31385023D02*
X56908771Y-31289785D01*
X56908771Y-31289785D02*
X56956390Y-31242166D01*
X56956390Y-31242166D02*
X57051628Y-31194547D01*
X57051628Y-31194547D02*
X57337342Y-31194547D01*
X57337342Y-31194547D02*
X57432580Y-31242166D01*
X57432580Y-31242166D02*
X57480200Y-31289785D01*
X57480200Y-31289785D02*
X57527819Y-31385023D01*
X57527819Y-31385023D02*
X57527819Y-31575499D01*
X57527819Y-31575499D02*
X57480200Y-31670737D01*
X56861152Y-30765975D02*
X57861152Y-30765975D01*
X56908771Y-30765975D02*
X56861152Y-30670737D01*
X56861152Y-30670737D02*
X56861152Y-30480261D01*
X56861152Y-30480261D02*
X56908771Y-30385023D01*
X56908771Y-30385023D02*
X56956390Y-30337404D01*
X56956390Y-30337404D02*
X57051628Y-30289785D01*
X57051628Y-30289785D02*
X57337342Y-30289785D01*
X57337342Y-30289785D02*
X57432580Y-30337404D01*
X57432580Y-30337404D02*
X57480200Y-30385023D01*
X57480200Y-30385023D02*
X57527819Y-30480261D01*
X57527819Y-30480261D02*
X57527819Y-30670737D01*
X57527819Y-30670737D02*
X57480200Y-30765975D01*
X57527819Y-29718356D02*
X57480200Y-29813594D01*
X57480200Y-29813594D02*
X57384961Y-29861213D01*
X57384961Y-29861213D02*
X56527819Y-29861213D01*
X56861152Y-29432641D02*
X57527819Y-29194546D01*
X56861152Y-28956451D02*
X57527819Y-29194546D01*
X57527819Y-29194546D02*
X57765914Y-29289784D01*
X57765914Y-29289784D02*
X57813533Y-29337403D01*
X57813533Y-29337403D02*
X57861152Y-29432641D01*
X57480200Y-28527879D02*
X57527819Y-28527879D01*
X57527819Y-28527879D02*
X57623057Y-28575498D01*
X57623057Y-28575498D02*
X57670676Y-28623117D01*
X56861152Y-27432641D02*
X57527819Y-27194546D01*
X57527819Y-27194546D02*
X56861152Y-26956451D01*
X57527819Y-26051689D02*
X57527819Y-26623117D01*
X57527819Y-26337403D02*
X56527819Y-26337403D01*
X56527819Y-26337403D02*
X56670676Y-26432641D01*
X56670676Y-26432641D02*
X56765914Y-26527879D01*
X56765914Y-26527879D02*
X56813533Y-26623117D01*
X57432580Y-25623117D02*
X57480200Y-25575498D01*
X57480200Y-25575498D02*
X57527819Y-25623117D01*
X57527819Y-25623117D02*
X57480200Y-25670736D01*
X57480200Y-25670736D02*
X57432580Y-25623117D01*
X57432580Y-25623117D02*
X57527819Y-25623117D01*
X57527819Y-24623118D02*
X57527819Y-25194546D01*
X57527819Y-24908832D02*
X56527819Y-24908832D01*
X56527819Y-24908832D02*
X56670676Y-25004070D01*
X56670676Y-25004070D02*
X56765914Y-25099308D01*
X56765914Y-25099308D02*
X56813533Y-25194546D01*
X94230819Y-43623429D02*
X93230819Y-43623429D01*
X93230819Y-43623429D02*
X93230819Y-43242477D01*
X93230819Y-43242477D02*
X93278438Y-43147239D01*
X93278438Y-43147239D02*
X93326057Y-43099620D01*
X93326057Y-43099620D02*
X93421295Y-43052001D01*
X93421295Y-43052001D02*
X93564152Y-43052001D01*
X93564152Y-43052001D02*
X93659390Y-43099620D01*
X93659390Y-43099620D02*
X93707009Y-43147239D01*
X93707009Y-43147239D02*
X93754628Y-43242477D01*
X93754628Y-43242477D02*
X93754628Y-43623429D01*
X94230819Y-42623429D02*
X93564152Y-42623429D01*
X93754628Y-42623429D02*
X93659390Y-42575810D01*
X93659390Y-42575810D02*
X93611771Y-42528191D01*
X93611771Y-42528191D02*
X93564152Y-42432953D01*
X93564152Y-42432953D02*
X93564152Y-42337715D01*
X94230819Y-41861524D02*
X94183200Y-41956762D01*
X94183200Y-41956762D02*
X94135580Y-42004381D01*
X94135580Y-42004381D02*
X94040342Y-42052000D01*
X94040342Y-42052000D02*
X93754628Y-42052000D01*
X93754628Y-42052000D02*
X93659390Y-42004381D01*
X93659390Y-42004381D02*
X93611771Y-41956762D01*
X93611771Y-41956762D02*
X93564152Y-41861524D01*
X93564152Y-41861524D02*
X93564152Y-41718667D01*
X93564152Y-41718667D02*
X93611771Y-41623429D01*
X93611771Y-41623429D02*
X93659390Y-41575810D01*
X93659390Y-41575810D02*
X93754628Y-41528191D01*
X93754628Y-41528191D02*
X94040342Y-41528191D01*
X94040342Y-41528191D02*
X94135580Y-41575810D01*
X94135580Y-41575810D02*
X94183200Y-41623429D01*
X94183200Y-41623429D02*
X94230819Y-41718667D01*
X94230819Y-41718667D02*
X94230819Y-41861524D01*
X93564152Y-40671048D02*
X94230819Y-40671048D01*
X93564152Y-41099619D02*
X94087961Y-41099619D01*
X94087961Y-41099619D02*
X94183200Y-41052000D01*
X94183200Y-41052000D02*
X94230819Y-40956762D01*
X94230819Y-40956762D02*
X94230819Y-40813905D01*
X94230819Y-40813905D02*
X94183200Y-40718667D01*
X94183200Y-40718667D02*
X94135580Y-40671048D01*
X94230819Y-39766286D02*
X93230819Y-39766286D01*
X94183200Y-39766286D02*
X94230819Y-39861524D01*
X94230819Y-39861524D02*
X94230819Y-40052000D01*
X94230819Y-40052000D02*
X94183200Y-40147238D01*
X94183200Y-40147238D02*
X94135580Y-40194857D01*
X94135580Y-40194857D02*
X94040342Y-40242476D01*
X94040342Y-40242476D02*
X93754628Y-40242476D01*
X93754628Y-40242476D02*
X93659390Y-40194857D01*
X93659390Y-40194857D02*
X93611771Y-40147238D01*
X93611771Y-40147238D02*
X93564152Y-40052000D01*
X93564152Y-40052000D02*
X93564152Y-39861524D01*
X93564152Y-39861524D02*
X93611771Y-39766286D01*
X94230819Y-39147238D02*
X94183200Y-39242476D01*
X94183200Y-39242476D02*
X94087961Y-39290095D01*
X94087961Y-39290095D02*
X93230819Y-39290095D01*
X93564152Y-38861523D02*
X94230819Y-38623428D01*
X93564152Y-38385333D02*
X94230819Y-38623428D01*
X94230819Y-38623428D02*
X94468914Y-38718666D01*
X94468914Y-38718666D02*
X94516533Y-38766285D01*
X94516533Y-38766285D02*
X94564152Y-38861523D01*
X94230819Y-37242475D02*
X93564152Y-37242475D01*
X93659390Y-37242475D02*
X93611771Y-37194856D01*
X93611771Y-37194856D02*
X93564152Y-37099618D01*
X93564152Y-37099618D02*
X93564152Y-36956761D01*
X93564152Y-36956761D02*
X93611771Y-36861523D01*
X93611771Y-36861523D02*
X93707009Y-36813904D01*
X93707009Y-36813904D02*
X94230819Y-36813904D01*
X93707009Y-36813904D02*
X93611771Y-36766285D01*
X93611771Y-36766285D02*
X93564152Y-36671047D01*
X93564152Y-36671047D02*
X93564152Y-36528190D01*
X93564152Y-36528190D02*
X93611771Y-36432951D01*
X93611771Y-36432951D02*
X93707009Y-36385332D01*
X93707009Y-36385332D02*
X94230819Y-36385332D01*
X94230819Y-35480571D02*
X93707009Y-35480571D01*
X93707009Y-35480571D02*
X93611771Y-35528190D01*
X93611771Y-35528190D02*
X93564152Y-35623428D01*
X93564152Y-35623428D02*
X93564152Y-35813904D01*
X93564152Y-35813904D02*
X93611771Y-35909142D01*
X94183200Y-35480571D02*
X94230819Y-35575809D01*
X94230819Y-35575809D02*
X94230819Y-35813904D01*
X94230819Y-35813904D02*
X94183200Y-35909142D01*
X94183200Y-35909142D02*
X94087961Y-35956761D01*
X94087961Y-35956761D02*
X93992723Y-35956761D01*
X93992723Y-35956761D02*
X93897485Y-35909142D01*
X93897485Y-35909142D02*
X93849866Y-35813904D01*
X93849866Y-35813904D02*
X93849866Y-35575809D01*
X93849866Y-35575809D02*
X93802247Y-35480571D01*
X94230819Y-34575809D02*
X93230819Y-34575809D01*
X94183200Y-34575809D02*
X94230819Y-34671047D01*
X94230819Y-34671047D02*
X94230819Y-34861523D01*
X94230819Y-34861523D02*
X94183200Y-34956761D01*
X94183200Y-34956761D02*
X94135580Y-35004380D01*
X94135580Y-35004380D02*
X94040342Y-35051999D01*
X94040342Y-35051999D02*
X93754628Y-35051999D01*
X93754628Y-35051999D02*
X93659390Y-35004380D01*
X93659390Y-35004380D02*
X93611771Y-34956761D01*
X93611771Y-34956761D02*
X93564152Y-34861523D01*
X93564152Y-34861523D02*
X93564152Y-34671047D01*
X93564152Y-34671047D02*
X93611771Y-34575809D01*
X94183200Y-33718666D02*
X94230819Y-33813904D01*
X94230819Y-33813904D02*
X94230819Y-34004380D01*
X94230819Y-34004380D02*
X94183200Y-34099618D01*
X94183200Y-34099618D02*
X94087961Y-34147237D01*
X94087961Y-34147237D02*
X93707009Y-34147237D01*
X93707009Y-34147237D02*
X93611771Y-34099618D01*
X93611771Y-34099618D02*
X93564152Y-34004380D01*
X93564152Y-34004380D02*
X93564152Y-33813904D01*
X93564152Y-33813904D02*
X93611771Y-33718666D01*
X93611771Y-33718666D02*
X93707009Y-33671047D01*
X93707009Y-33671047D02*
X93802247Y-33671047D01*
X93802247Y-33671047D02*
X93897485Y-34147237D01*
X94230819Y-32337713D02*
X94183200Y-32432951D01*
X94183200Y-32432951D02*
X94135580Y-32480570D01*
X94135580Y-32480570D02*
X94040342Y-32528189D01*
X94040342Y-32528189D02*
X93754628Y-32528189D01*
X93754628Y-32528189D02*
X93659390Y-32480570D01*
X93659390Y-32480570D02*
X93611771Y-32432951D01*
X93611771Y-32432951D02*
X93564152Y-32337713D01*
X93564152Y-32337713D02*
X93564152Y-32194856D01*
X93564152Y-32194856D02*
X93611771Y-32099618D01*
X93611771Y-32099618D02*
X93659390Y-32051999D01*
X93659390Y-32051999D02*
X93754628Y-32004380D01*
X93754628Y-32004380D02*
X94040342Y-32004380D01*
X94040342Y-32004380D02*
X94135580Y-32051999D01*
X94135580Y-32051999D02*
X94183200Y-32099618D01*
X94183200Y-32099618D02*
X94230819Y-32194856D01*
X94230819Y-32194856D02*
X94230819Y-32337713D01*
X93564152Y-31575808D02*
X94230819Y-31575808D01*
X93659390Y-31575808D02*
X93611771Y-31528189D01*
X93611771Y-31528189D02*
X93564152Y-31432951D01*
X93564152Y-31432951D02*
X93564152Y-31290094D01*
X93564152Y-31290094D02*
X93611771Y-31194856D01*
X93611771Y-31194856D02*
X93707009Y-31147237D01*
X93707009Y-31147237D02*
X94230819Y-31147237D01*
X93707009Y-29909141D02*
X93707009Y-29575808D01*
X94230819Y-29432951D02*
X94230819Y-29909141D01*
X94230819Y-29909141D02*
X93230819Y-29909141D01*
X93230819Y-29909141D02*
X93230819Y-29432951D01*
X94230819Y-28575808D02*
X93707009Y-28575808D01*
X93707009Y-28575808D02*
X93611771Y-28623427D01*
X93611771Y-28623427D02*
X93564152Y-28718665D01*
X93564152Y-28718665D02*
X93564152Y-28909141D01*
X93564152Y-28909141D02*
X93611771Y-29004379D01*
X94183200Y-28575808D02*
X94230819Y-28671046D01*
X94230819Y-28671046D02*
X94230819Y-28909141D01*
X94230819Y-28909141D02*
X94183200Y-29004379D01*
X94183200Y-29004379D02*
X94087961Y-29051998D01*
X94087961Y-29051998D02*
X93992723Y-29051998D01*
X93992723Y-29051998D02*
X93897485Y-29004379D01*
X93897485Y-29004379D02*
X93849866Y-28909141D01*
X93849866Y-28909141D02*
X93849866Y-28671046D01*
X93849866Y-28671046D02*
X93802247Y-28575808D01*
X94230819Y-28099617D02*
X93564152Y-28099617D01*
X93754628Y-28099617D02*
X93659390Y-28051998D01*
X93659390Y-28051998D02*
X93611771Y-28004379D01*
X93611771Y-28004379D02*
X93564152Y-27909141D01*
X93564152Y-27909141D02*
X93564152Y-27813903D01*
X93564152Y-27623426D02*
X93564152Y-27242474D01*
X93230819Y-27480569D02*
X94087961Y-27480569D01*
X94087961Y-27480569D02*
X94183200Y-27432950D01*
X94183200Y-27432950D02*
X94230819Y-27337712D01*
X94230819Y-27337712D02*
X94230819Y-27242474D01*
X94230819Y-26909140D02*
X93230819Y-26909140D01*
X94230819Y-26480569D02*
X93707009Y-26480569D01*
X93707009Y-26480569D02*
X93611771Y-26528188D01*
X93611771Y-26528188D02*
X93564152Y-26623426D01*
X93564152Y-26623426D02*
X93564152Y-26766283D01*
X93564152Y-26766283D02*
X93611771Y-26861521D01*
X93611771Y-26861521D02*
X93659390Y-26909140D01*
X53445580Y-47680476D02*
X53493200Y-47728095D01*
X53493200Y-47728095D02*
X53540819Y-47870952D01*
X53540819Y-47870952D02*
X53540819Y-47966190D01*
X53540819Y-47966190D02*
X53493200Y-48109047D01*
X53493200Y-48109047D02*
X53397961Y-48204285D01*
X53397961Y-48204285D02*
X53302723Y-48251904D01*
X53302723Y-48251904D02*
X53112247Y-48299523D01*
X53112247Y-48299523D02*
X52969390Y-48299523D01*
X52969390Y-48299523D02*
X52778914Y-48251904D01*
X52778914Y-48251904D02*
X52683676Y-48204285D01*
X52683676Y-48204285D02*
X52588438Y-48109047D01*
X52588438Y-48109047D02*
X52540819Y-47966190D01*
X52540819Y-47966190D02*
X52540819Y-47870952D01*
X52540819Y-47870952D02*
X52588438Y-47728095D01*
X52588438Y-47728095D02*
X52636057Y-47680476D01*
X52540819Y-47061428D02*
X52540819Y-46870952D01*
X52540819Y-46870952D02*
X52588438Y-46775714D01*
X52588438Y-46775714D02*
X52683676Y-46680476D01*
X52683676Y-46680476D02*
X52874152Y-46632857D01*
X52874152Y-46632857D02*
X53207485Y-46632857D01*
X53207485Y-46632857D02*
X53397961Y-46680476D01*
X53397961Y-46680476D02*
X53493200Y-46775714D01*
X53493200Y-46775714D02*
X53540819Y-46870952D01*
X53540819Y-46870952D02*
X53540819Y-47061428D01*
X53540819Y-47061428D02*
X53493200Y-47156666D01*
X53493200Y-47156666D02*
X53397961Y-47251904D01*
X53397961Y-47251904D02*
X53207485Y-47299523D01*
X53207485Y-47299523D02*
X52874152Y-47299523D01*
X52874152Y-47299523D02*
X52683676Y-47251904D01*
X52683676Y-47251904D02*
X52588438Y-47156666D01*
X52588438Y-47156666D02*
X52540819Y-47061428D01*
X52636057Y-46251904D02*
X52588438Y-46204285D01*
X52588438Y-46204285D02*
X52540819Y-46109047D01*
X52540819Y-46109047D02*
X52540819Y-45870952D01*
X52540819Y-45870952D02*
X52588438Y-45775714D01*
X52588438Y-45775714D02*
X52636057Y-45728095D01*
X52636057Y-45728095D02*
X52731295Y-45680476D01*
X52731295Y-45680476D02*
X52826533Y-45680476D01*
X52826533Y-45680476D02*
X52969390Y-45728095D01*
X52969390Y-45728095D02*
X53540819Y-46299523D01*
X53540819Y-46299523D02*
X53540819Y-45680476D01*
X73987819Y-40616094D02*
X72987819Y-40616094D01*
X72987819Y-40616094D02*
X72987819Y-40377999D01*
X72987819Y-40377999D02*
X73035438Y-40235142D01*
X73035438Y-40235142D02*
X73130676Y-40139904D01*
X73130676Y-40139904D02*
X73225914Y-40092285D01*
X73225914Y-40092285D02*
X73416390Y-40044666D01*
X73416390Y-40044666D02*
X73559247Y-40044666D01*
X73559247Y-40044666D02*
X73749723Y-40092285D01*
X73749723Y-40092285D02*
X73844961Y-40139904D01*
X73844961Y-40139904D02*
X73940200Y-40235142D01*
X73940200Y-40235142D02*
X73987819Y-40377999D01*
X73987819Y-40377999D02*
X73987819Y-40616094D01*
X73083057Y-39663713D02*
X73035438Y-39616094D01*
X73035438Y-39616094D02*
X72987819Y-39520856D01*
X72987819Y-39520856D02*
X72987819Y-39282761D01*
X72987819Y-39282761D02*
X73035438Y-39187523D01*
X73035438Y-39187523D02*
X73083057Y-39139904D01*
X73083057Y-39139904D02*
X73178295Y-39092285D01*
X73178295Y-39092285D02*
X73273533Y-39092285D01*
X73273533Y-39092285D02*
X73416390Y-39139904D01*
X73416390Y-39139904D02*
X73987819Y-39711332D01*
X73987819Y-39711332D02*
X73987819Y-39092285D01*
X60698095Y-38232819D02*
X60698095Y-37232819D01*
X61269523Y-38232819D02*
X60840952Y-37661390D01*
X61269523Y-37232819D02*
X60698095Y-37804247D01*
X66748819Y-48767760D02*
X65748819Y-48767760D01*
X66748819Y-48196332D02*
X66177390Y-48624903D01*
X65748819Y-48196332D02*
X66320247Y-48767760D01*
X66748819Y-47767760D02*
X66082152Y-47767760D01*
X65748819Y-47767760D02*
X65796438Y-47815379D01*
X65796438Y-47815379D02*
X65844057Y-47767760D01*
X65844057Y-47767760D02*
X65796438Y-47720141D01*
X65796438Y-47720141D02*
X65748819Y-47767760D01*
X65748819Y-47767760D02*
X65844057Y-47767760D01*
X66748819Y-47291570D02*
X65748819Y-47291570D01*
X66367866Y-47196332D02*
X66748819Y-46910618D01*
X66082152Y-46910618D02*
X66463104Y-47291570D01*
X66748819Y-46482046D02*
X66082152Y-46482046D01*
X65748819Y-46482046D02*
X65796438Y-46529665D01*
X65796438Y-46529665D02*
X65844057Y-46482046D01*
X65844057Y-46482046D02*
X65796438Y-46434427D01*
X65796438Y-46434427D02*
X65748819Y-46482046D01*
X65748819Y-46482046D02*
X65844057Y-46482046D01*
X66082152Y-46101094D02*
X66748819Y-45910618D01*
X66748819Y-45910618D02*
X66272628Y-45720142D01*
X66272628Y-45720142D02*
X66748819Y-45529666D01*
X66748819Y-45529666D02*
X66082152Y-45339190D01*
X66748819Y-44958237D02*
X66082152Y-44958237D01*
X65748819Y-44958237D02*
X65796438Y-45005856D01*
X65796438Y-45005856D02*
X65844057Y-44958237D01*
X65844057Y-44958237D02*
X65796438Y-44910618D01*
X65796438Y-44910618D02*
X65748819Y-44958237D01*
X65748819Y-44958237D02*
X65844057Y-44958237D01*
X80480819Y-21716904D02*
X81290342Y-21716904D01*
X81290342Y-21716904D02*
X81385580Y-21669285D01*
X81385580Y-21669285D02*
X81433200Y-21621666D01*
X81433200Y-21621666D02*
X81480819Y-21526428D01*
X81480819Y-21526428D02*
X81480819Y-21335952D01*
X81480819Y-21335952D02*
X81433200Y-21240714D01*
X81433200Y-21240714D02*
X81385580Y-21193095D01*
X81385580Y-21193095D02*
X81290342Y-21145476D01*
X81290342Y-21145476D02*
X80480819Y-21145476D01*
X81480819Y-20145476D02*
X81480819Y-20716904D01*
X81480819Y-20431190D02*
X80480819Y-20431190D01*
X80480819Y-20431190D02*
X80623676Y-20526428D01*
X80623676Y-20526428D02*
X80718914Y-20621666D01*
X80718914Y-20621666D02*
X80766533Y-20716904D01*
X85195580Y-25820666D02*
X85243200Y-25868285D01*
X85243200Y-25868285D02*
X85290819Y-26011142D01*
X85290819Y-26011142D02*
X85290819Y-26106380D01*
X85290819Y-26106380D02*
X85243200Y-26249237D01*
X85243200Y-26249237D02*
X85147961Y-26344475D01*
X85147961Y-26344475D02*
X85052723Y-26392094D01*
X85052723Y-26392094D02*
X84862247Y-26439713D01*
X84862247Y-26439713D02*
X84719390Y-26439713D01*
X84719390Y-26439713D02*
X84528914Y-26392094D01*
X84528914Y-26392094D02*
X84433676Y-26344475D01*
X84433676Y-26344475D02*
X84338438Y-26249237D01*
X84338438Y-26249237D02*
X84290819Y-26106380D01*
X84290819Y-26106380D02*
X84290819Y-26011142D01*
X84290819Y-26011142D02*
X84338438Y-25868285D01*
X84338438Y-25868285D02*
X84386057Y-25820666D01*
X84386057Y-25439713D02*
X84338438Y-25392094D01*
X84338438Y-25392094D02*
X84290819Y-25296856D01*
X84290819Y-25296856D02*
X84290819Y-25058761D01*
X84290819Y-25058761D02*
X84338438Y-24963523D01*
X84338438Y-24963523D02*
X84386057Y-24915904D01*
X84386057Y-24915904D02*
X84481295Y-24868285D01*
X84481295Y-24868285D02*
X84576533Y-24868285D01*
X84576533Y-24868285D02*
X84719390Y-24915904D01*
X84719390Y-24915904D02*
X85290819Y-25487332D01*
X85290819Y-25487332D02*
X85290819Y-24868285D01*
X73860819Y-36044094D02*
X72860819Y-36044094D01*
X72860819Y-36044094D02*
X72860819Y-35805999D01*
X72860819Y-35805999D02*
X72908438Y-35663142D01*
X72908438Y-35663142D02*
X73003676Y-35567904D01*
X73003676Y-35567904D02*
X73098914Y-35520285D01*
X73098914Y-35520285D02*
X73289390Y-35472666D01*
X73289390Y-35472666D02*
X73432247Y-35472666D01*
X73432247Y-35472666D02*
X73622723Y-35520285D01*
X73622723Y-35520285D02*
X73717961Y-35567904D01*
X73717961Y-35567904D02*
X73813200Y-35663142D01*
X73813200Y-35663142D02*
X73860819Y-35805999D01*
X73860819Y-35805999D02*
X73860819Y-36044094D01*
X73860819Y-34520285D02*
X73860819Y-35091713D01*
X73860819Y-34805999D02*
X72860819Y-34805999D01*
X72860819Y-34805999D02*
X73003676Y-34901237D01*
X73003676Y-34901237D02*
X73098914Y-34996475D01*
X73098914Y-34996475D02*
X73146533Y-35091713D01*
X70731095Y-37860819D02*
X70731095Y-36860819D01*
X71302523Y-37860819D02*
X70873952Y-37289390D01*
X71302523Y-36860819D02*
X70731095Y-37432247D01*
X82470666Y-41237819D02*
X82470666Y-41952104D01*
X82470666Y-41952104D02*
X82423047Y-42094961D01*
X82423047Y-42094961D02*
X82327809Y-42190200D01*
X82327809Y-42190200D02*
X82184952Y-42237819D01*
X82184952Y-42237819D02*
X82089714Y-42237819D01*
X83375428Y-41571152D02*
X83375428Y-42237819D01*
X83137333Y-41190200D02*
X82899238Y-41904485D01*
X82899238Y-41904485D02*
X83518285Y-41904485D01*
X75496009Y-43068761D02*
X75496009Y-42735428D01*
X76019819Y-42592571D02*
X76019819Y-43068761D01*
X76019819Y-43068761D02*
X75019819Y-43068761D01*
X75019819Y-43068761D02*
X75019819Y-42592571D01*
X76019819Y-42259237D02*
X75353152Y-41735428D01*
X75353152Y-42259237D02*
X76019819Y-41735428D01*
X75353152Y-41497332D02*
X75353152Y-41116380D01*
X75019819Y-41354475D02*
X75876961Y-41354475D01*
X75876961Y-41354475D02*
X75972200Y-41306856D01*
X75972200Y-41306856D02*
X76019819Y-41211618D01*
X76019819Y-41211618D02*
X76019819Y-41116380D01*
X81004580Y-35472666D02*
X81052200Y-35520285D01*
X81052200Y-35520285D02*
X81099819Y-35663142D01*
X81099819Y-35663142D02*
X81099819Y-35758380D01*
X81099819Y-35758380D02*
X81052200Y-35901237D01*
X81052200Y-35901237D02*
X80956961Y-35996475D01*
X80956961Y-35996475D02*
X80861723Y-36044094D01*
X80861723Y-36044094D02*
X80671247Y-36091713D01*
X80671247Y-36091713D02*
X80528390Y-36091713D01*
X80528390Y-36091713D02*
X80337914Y-36044094D01*
X80337914Y-36044094D02*
X80242676Y-35996475D01*
X80242676Y-35996475D02*
X80147438Y-35901237D01*
X80147438Y-35901237D02*
X80099819Y-35758380D01*
X80099819Y-35758380D02*
X80099819Y-35663142D01*
X80099819Y-35663142D02*
X80147438Y-35520285D01*
X80147438Y-35520285D02*
X80195057Y-35472666D01*
X81099819Y-34520285D02*
X81099819Y-35091713D01*
X81099819Y-34805999D02*
X80099819Y-34805999D01*
X80099819Y-34805999D02*
X80242676Y-34901237D01*
X80242676Y-34901237D02*
X80337914Y-34996475D01*
X80337914Y-34996475D02*
X80385533Y-35091713D01*
D12*
%TO.C,J3*%
X53919000Y-43859000D02*
X53919000Y-45109000D01*
X54209000Y-44149000D02*
X54209000Y-50119000D01*
X54209000Y-50119000D02*
X64329000Y-50119000D01*
X54219000Y-44159000D02*
X54219000Y-44909000D01*
X54219000Y-44909000D02*
X56019000Y-44909000D01*
X54219000Y-46409000D02*
X54969000Y-46409000D01*
X54969000Y-46409000D02*
X54969000Y-49359000D01*
X54969000Y-49359000D02*
X59269000Y-49359000D01*
X55169000Y-43859000D02*
X53919000Y-43859000D01*
X56019000Y-44159000D02*
X54219000Y-44159000D01*
X56019000Y-44909000D02*
X56019000Y-44159000D01*
X57519000Y-44159000D02*
X57519000Y-44909000D01*
X57519000Y-44909000D02*
X61019000Y-44909000D01*
X61019000Y-44159000D02*
X57519000Y-44159000D01*
X61019000Y-44909000D02*
X61019000Y-44159000D01*
X62519000Y-44159000D02*
X62519000Y-44909000D01*
X62519000Y-44909000D02*
X64319000Y-44909000D01*
X63569000Y-46409000D02*
X63569000Y-49359000D01*
X63569000Y-49359000D02*
X59269000Y-49359000D01*
X64319000Y-44159000D02*
X62519000Y-44159000D01*
X64319000Y-44909000D02*
X64319000Y-44159000D01*
X64319000Y-46409000D02*
X63569000Y-46409000D01*
X64329000Y-44149000D02*
X54209000Y-44149000D01*
X64329000Y-50119000D02*
X64329000Y-44149000D01*
%TO.C,D2*%
X62300000Y-39878000D02*
X63320000Y-39878000D01*
X63320000Y-38408000D02*
X63320000Y-41348000D01*
X63320000Y-41348000D02*
X68760000Y-41348000D01*
X64100000Y-38408000D02*
X64100000Y-41348000D01*
X64220000Y-38408000D02*
X64220000Y-41348000D01*
X64340000Y-38408000D02*
X64340000Y-41348000D01*
X68760000Y-38408000D02*
X63320000Y-38408000D01*
X68760000Y-41348000D02*
X68760000Y-38408000D01*
X69780000Y-39878000D02*
X68760000Y-39878000D01*
%TO.C,J2*%
X67508000Y-43986000D02*
X67508000Y-45236000D01*
X67798000Y-44276000D02*
X67798000Y-50246000D01*
X67798000Y-50246000D02*
X75418000Y-50246000D01*
X67808000Y-44286000D02*
X67808000Y-45036000D01*
X67808000Y-45036000D02*
X69608000Y-45036000D01*
X67808000Y-46536000D02*
X68558000Y-46536000D01*
X68558000Y-46536000D02*
X68558000Y-49486000D01*
X68558000Y-49486000D02*
X71608000Y-49486000D01*
X68758000Y-43986000D02*
X67508000Y-43986000D01*
X69608000Y-44286000D02*
X67808000Y-44286000D01*
X69608000Y-45036000D02*
X69608000Y-44286000D01*
X71108000Y-44286000D02*
X71108000Y-45036000D01*
X71108000Y-45036000D02*
X72108000Y-45036000D01*
X72108000Y-44286000D02*
X71108000Y-44286000D01*
X72108000Y-45036000D02*
X72108000Y-44286000D01*
X73608000Y-44286000D02*
X73608000Y-45036000D01*
X73608000Y-45036000D02*
X75408000Y-45036000D01*
X74658000Y-46536000D02*
X74658000Y-49486000D01*
X74658000Y-49486000D02*
X71608000Y-49486000D01*
X75408000Y-44286000D02*
X73608000Y-44286000D01*
X75408000Y-45036000D02*
X75408000Y-44286000D01*
X75408000Y-46536000D02*
X74658000Y-46536000D01*
X75418000Y-44276000D02*
X67798000Y-44276000D01*
X75418000Y-50246000D02*
X75418000Y-44276000D01*
%TO.C,J5*%
X53034000Y-42144856D02*
X51704000Y-42144856D01*
X53034000Y-40814856D02*
X53034000Y-42144856D01*
X53034000Y-39544856D02*
X53034000Y-29324856D01*
X53034000Y-39544856D02*
X50374000Y-39544856D01*
X53034000Y-29324856D02*
X50374000Y-29324856D01*
X50374000Y-39544856D02*
X50374000Y-29324856D01*
%TO.C,U1*%
X59437000Y-30647000D02*
X75327000Y-30647000D01*
X59437000Y-30647000D02*
X59437000Y-20407000D01*
X75327000Y-30647000D02*
X75327000Y-20407000D01*
X75327000Y-28067000D02*
X77867000Y-28067000D01*
X75327000Y-25527000D02*
X77867000Y-25527000D01*
X75327000Y-22987000D02*
X77867000Y-22987000D01*
X59437000Y-20407000D02*
X75327000Y-20407000D01*
%TO.C,C2*%
X87956000Y-26987000D02*
X81716000Y-26987000D01*
X87956000Y-26987000D02*
X87956000Y-34227000D01*
X81716000Y-26987000D02*
X81716000Y-34227000D01*
X87956000Y-34227000D02*
X81716000Y-34227000D01*
%TO.C,D1*%
X69653000Y-35306000D02*
X68633000Y-35306000D01*
X68633000Y-36776000D02*
X68633000Y-33836000D01*
X68633000Y-33836000D02*
X63193000Y-33836000D01*
X67853000Y-36776000D02*
X67853000Y-33836000D01*
X67733000Y-36776000D02*
X67733000Y-33836000D01*
X67613000Y-36776000D02*
X67613000Y-33836000D01*
X63193000Y-36776000D02*
X68633000Y-36776000D01*
X63193000Y-33836000D02*
X63193000Y-36776000D01*
X62173000Y-35306000D02*
X63193000Y-35306000D01*
%TO.C,J4*%
X76789000Y-49753000D02*
X76789000Y-50493000D01*
X76789000Y-50493000D02*
X77289000Y-50493000D01*
X77029000Y-40332000D02*
X77029000Y-50253000D01*
X77029000Y-40332000D02*
X87309000Y-40332000D01*
X77029000Y-43292000D02*
X87309000Y-43292000D01*
X77029000Y-48193000D02*
X87309000Y-48193000D01*
X77029000Y-49693000D02*
X87309000Y-49693000D01*
X77029000Y-50253000D02*
X87309000Y-50253000D01*
X83482000Y-46616000D02*
X83435000Y-46662000D01*
X83675000Y-46832000D02*
X83640000Y-46867000D01*
X85779000Y-44318000D02*
X85744000Y-44354000D01*
X85984000Y-44524000D02*
X85937000Y-44570000D01*
X87309000Y-40332000D02*
X87309000Y-50253000D01*
X78094001Y-44909001D02*
G75*
G03*
X78093574Y-46276042I1534992J-684000D01*
G01*
X80312999Y-44058001D02*
G75*
G03*
X78945958Y-44057574I-684000J-1534992D01*
G01*
X78945000Y-47127999D02*
G75*
G03*
X79657805Y-47273252I683999J1535000D01*
G01*
X79629000Y-47272999D02*
G75*
G03*
X80312318Y-47127755I0J1679999D01*
G01*
X81164000Y-46277000D02*
G75*
G03*
X81164426Y-44909958I-1535000J684000D01*
G01*
X86389000Y-45593000D02*
G75*
G03*
X86389000Y-45593000I-1680000J0D01*
G01*
%TO.C,C1*%
X74202113Y-33831000D02*
X74702113Y-33831000D01*
X74452113Y-33581000D02*
X74452113Y-34081000D01*
X77006888Y-32726000D02*
X77006888Y-37886000D01*
X77046888Y-32726000D02*
X77046888Y-37886000D01*
X77086888Y-32727000D02*
X77086888Y-37885000D01*
X77126888Y-32728000D02*
X77126888Y-37884000D01*
X77166888Y-32730000D02*
X77166888Y-37882000D01*
X77206888Y-32733000D02*
X77206888Y-37879000D01*
X77246888Y-32737000D02*
X77246888Y-34266000D01*
X77246888Y-36346000D02*
X77246888Y-37875000D01*
X77286888Y-32741000D02*
X77286888Y-34266000D01*
X77286888Y-36346000D02*
X77286888Y-37871000D01*
X77326888Y-32745000D02*
X77326888Y-34266000D01*
X77326888Y-36346000D02*
X77326888Y-37867000D01*
X77366888Y-32750000D02*
X77366888Y-34266000D01*
X77366888Y-36346000D02*
X77366888Y-37862000D01*
X77406888Y-32756000D02*
X77406888Y-34266000D01*
X77406888Y-36346000D02*
X77406888Y-37856000D01*
X77446888Y-32763000D02*
X77446888Y-34266000D01*
X77446888Y-36346000D02*
X77446888Y-37849000D01*
X77486888Y-32770000D02*
X77486888Y-34266000D01*
X77486888Y-36346000D02*
X77486888Y-37842000D01*
X77526888Y-32778000D02*
X77526888Y-34266000D01*
X77526888Y-36346000D02*
X77526888Y-37834000D01*
X77566888Y-32786000D02*
X77566888Y-34266000D01*
X77566888Y-36346000D02*
X77566888Y-37826000D01*
X77606888Y-32795000D02*
X77606888Y-34266000D01*
X77606888Y-36346000D02*
X77606888Y-37817000D01*
X77646888Y-32805000D02*
X77646888Y-34266000D01*
X77646888Y-36346000D02*
X77646888Y-37807000D01*
X77686888Y-32815000D02*
X77686888Y-34266000D01*
X77686888Y-36346000D02*
X77686888Y-37797000D01*
X77727888Y-32826000D02*
X77727888Y-34266000D01*
X77727888Y-36346000D02*
X77727888Y-37786000D01*
X77767888Y-32838000D02*
X77767888Y-34266000D01*
X77767888Y-36346000D02*
X77767888Y-37774000D01*
X77807888Y-32851000D02*
X77807888Y-34266000D01*
X77807888Y-36346000D02*
X77807888Y-37761000D01*
X77847888Y-32864000D02*
X77847888Y-34266000D01*
X77847888Y-36346000D02*
X77847888Y-37748000D01*
X77887888Y-32878000D02*
X77887888Y-34266000D01*
X77887888Y-36346000D02*
X77887888Y-37734000D01*
X77927888Y-32892000D02*
X77927888Y-34266000D01*
X77927888Y-36346000D02*
X77927888Y-37720000D01*
X77967888Y-32908000D02*
X77967888Y-34266000D01*
X77967888Y-36346000D02*
X77967888Y-37704000D01*
X78007888Y-32924000D02*
X78007888Y-34266000D01*
X78007888Y-36346000D02*
X78007888Y-37688000D01*
X78047888Y-32941000D02*
X78047888Y-34266000D01*
X78047888Y-36346000D02*
X78047888Y-37671000D01*
X78087888Y-32958000D02*
X78087888Y-34266000D01*
X78087888Y-36346000D02*
X78087888Y-37654000D01*
X78127888Y-32977000D02*
X78127888Y-34266000D01*
X78127888Y-36346000D02*
X78127888Y-37635000D01*
X78167888Y-32996000D02*
X78167888Y-34266000D01*
X78167888Y-36346000D02*
X78167888Y-37616000D01*
X78207888Y-33016000D02*
X78207888Y-34266000D01*
X78207888Y-36346000D02*
X78207888Y-37596000D01*
X78247888Y-33038000D02*
X78247888Y-34266000D01*
X78247888Y-36346000D02*
X78247888Y-37574000D01*
X78287888Y-33059000D02*
X78287888Y-34266000D01*
X78287888Y-36346000D02*
X78287888Y-37553000D01*
X78327888Y-33082000D02*
X78327888Y-34266000D01*
X78327888Y-36346000D02*
X78327888Y-37530000D01*
X78367888Y-33106000D02*
X78367888Y-34266000D01*
X78367888Y-36346000D02*
X78367888Y-37506000D01*
X78407888Y-33131000D02*
X78407888Y-34266000D01*
X78407888Y-36346000D02*
X78407888Y-37481000D01*
X78447888Y-33157000D02*
X78447888Y-34266000D01*
X78447888Y-36346000D02*
X78447888Y-37455000D01*
X78487888Y-33184000D02*
X78487888Y-34266000D01*
X78487888Y-36346000D02*
X78487888Y-37428000D01*
X78527888Y-33211000D02*
X78527888Y-34266000D01*
X78527888Y-36346000D02*
X78527888Y-37401000D01*
X78567888Y-33241000D02*
X78567888Y-34266000D01*
X78567888Y-36346000D02*
X78567888Y-37371000D01*
X78607888Y-33271000D02*
X78607888Y-34266000D01*
X78607888Y-36346000D02*
X78607888Y-37341000D01*
X78647888Y-33302000D02*
X78647888Y-34266000D01*
X78647888Y-36346000D02*
X78647888Y-37310000D01*
X78687888Y-33335000D02*
X78687888Y-34266000D01*
X78687888Y-36346000D02*
X78687888Y-37277000D01*
X78727888Y-33369000D02*
X78727888Y-34266000D01*
X78727888Y-36346000D02*
X78727888Y-37243000D01*
X78767888Y-33405000D02*
X78767888Y-34266000D01*
X78767888Y-36346000D02*
X78767888Y-37207000D01*
X78807888Y-33442000D02*
X78807888Y-34266000D01*
X78807888Y-36346000D02*
X78807888Y-37170000D01*
X78847888Y-33480000D02*
X78847888Y-34266000D01*
X78847888Y-36346000D02*
X78847888Y-37132000D01*
X78887888Y-33521000D02*
X78887888Y-34266000D01*
X78887888Y-36346000D02*
X78887888Y-37091000D01*
X78927888Y-33563000D02*
X78927888Y-34266000D01*
X78927888Y-36346000D02*
X78927888Y-37049000D01*
X78967888Y-33607000D02*
X78967888Y-34266000D01*
X78967888Y-36346000D02*
X78967888Y-37005000D01*
X79007888Y-33653000D02*
X79007888Y-34266000D01*
X79007888Y-36346000D02*
X79007888Y-36959000D01*
X79047888Y-33701000D02*
X79047888Y-34266000D01*
X79047888Y-36346000D02*
X79047888Y-36911000D01*
X79087888Y-33752000D02*
X79087888Y-34266000D01*
X79087888Y-36346000D02*
X79087888Y-36860000D01*
X79127888Y-33806000D02*
X79127888Y-34266000D01*
X79127888Y-36346000D02*
X79127888Y-36806000D01*
X79167888Y-33863000D02*
X79167888Y-34266000D01*
X79167888Y-36346000D02*
X79167888Y-36749000D01*
X79207888Y-33923000D02*
X79207888Y-34266000D01*
X79207888Y-36346000D02*
X79207888Y-36689000D01*
X79247888Y-33987000D02*
X79247888Y-34266000D01*
X79247888Y-36346000D02*
X79247888Y-36625000D01*
X79287888Y-34055000D02*
X79287888Y-34266000D01*
X79287888Y-36346000D02*
X79287888Y-36557000D01*
X79327888Y-34128000D02*
X79327888Y-36484000D01*
X79367888Y-34208000D02*
X79367888Y-36404000D01*
X79407888Y-34295000D02*
X79407888Y-36317000D01*
X79447888Y-34391000D02*
X79447888Y-36221000D01*
X79487888Y-34501000D02*
X79487888Y-36111000D01*
X79527888Y-34629000D02*
X79527888Y-35983000D01*
X79567888Y-34788000D02*
X79567888Y-35824000D01*
X79607888Y-35022000D02*
X79607888Y-35590000D01*
X79626888Y-35306000D02*
G75*
G03*
X79626888Y-35306000I-2620000J0D01*
G01*
%TD*%
M02*
