%TF.GenerationSoftware,KiCad,Pcbnew,7.0.9*%
%TF.CreationDate,2023-11-12T11:40:15+01:00*%
%TF.ProjectId,CO2-PwrSupply,434f322d-5077-4725-9375-70706c792e6b,1.1*%
%TF.SameCoordinates,Original*%
%TF.FileFunction,Drillmap*%
%TF.FilePolarity,Positive*%
%FSLAX45Y45*%
G04 Gerber Fmt 4.5, Leading zero omitted, Abs format (unit mm)*
G04 Created by KiCad (PCBNEW 7.0.9) date 2023-11-12 11:40:15*
%MOMM*%
%LPD*%
G01*
G04 APERTURE LIST*
%ADD10C,0.150000*%
%ADD11C,0.200000*%
%ADD12C,0.320000*%
%ADD13C,0.350000*%
G04 APERTURE END LIST*
D10*
X4330700Y-1955800D02*
X9499600Y-1955800D01*
X9499600Y-5067300D01*
X4330700Y-5067300D01*
X4330700Y-1955800D01*
D11*
D12*
X4438900Y-2971500D02*
X4758900Y-3291500D01*
X4758900Y-2971500D02*
X4438900Y-3291500D01*
X4438900Y-3847800D02*
X4758900Y-4167800D01*
X4758900Y-3847800D02*
X4438900Y-4167800D01*
X4539000Y-2138700D02*
X4859000Y-2458700D01*
X4859000Y-2138700D02*
X4539000Y-2458700D01*
X4539000Y-4539000D02*
X4859000Y-4859000D01*
X4859000Y-4539000D02*
X4539000Y-4859000D01*
X8971300Y-2151400D02*
X9291300Y-2471400D01*
X9291300Y-2151400D02*
X8971300Y-2471400D01*
X8971300Y-4539000D02*
X9291300Y-4859000D01*
X9291300Y-4539000D02*
X8971300Y-4859000D01*
D13*
X6410700Y-2552700D02*
G75*
G03*
X6410700Y-2552700I-175000J0D01*
G01*
D11*
X4583977Y-5386284D02*
X4583977Y-5186284D01*
X4583977Y-5186284D02*
X4631596Y-5186284D01*
X4631596Y-5186284D02*
X4660167Y-5195808D01*
X4660167Y-5195808D02*
X4679215Y-5214855D01*
X4679215Y-5214855D02*
X4688739Y-5233903D01*
X4688739Y-5233903D02*
X4698263Y-5271998D01*
X4698263Y-5271998D02*
X4698263Y-5300570D01*
X4698263Y-5300570D02*
X4688739Y-5338665D01*
X4688739Y-5338665D02*
X4679215Y-5357712D01*
X4679215Y-5357712D02*
X4660167Y-5376760D01*
X4660167Y-5376760D02*
X4631596Y-5386284D01*
X4631596Y-5386284D02*
X4583977Y-5386284D01*
X4783977Y-5386284D02*
X4783977Y-5252950D01*
X4783977Y-5291046D02*
X4793501Y-5271998D01*
X4793501Y-5271998D02*
X4803024Y-5262474D01*
X4803024Y-5262474D02*
X4822072Y-5252950D01*
X4822072Y-5252950D02*
X4841120Y-5252950D01*
X4907786Y-5386284D02*
X4907786Y-5252950D01*
X4907786Y-5186284D02*
X4898263Y-5195808D01*
X4898263Y-5195808D02*
X4907786Y-5205331D01*
X4907786Y-5205331D02*
X4917310Y-5195808D01*
X4917310Y-5195808D02*
X4907786Y-5186284D01*
X4907786Y-5186284D02*
X4907786Y-5205331D01*
X5031596Y-5386284D02*
X5012548Y-5376760D01*
X5012548Y-5376760D02*
X5003024Y-5357712D01*
X5003024Y-5357712D02*
X5003024Y-5186284D01*
X5136358Y-5386284D02*
X5117310Y-5376760D01*
X5117310Y-5376760D02*
X5107786Y-5357712D01*
X5107786Y-5357712D02*
X5107786Y-5186284D01*
X5364929Y-5386284D02*
X5364929Y-5186284D01*
X5364929Y-5186284D02*
X5431596Y-5329141D01*
X5431596Y-5329141D02*
X5498263Y-5186284D01*
X5498263Y-5186284D02*
X5498263Y-5386284D01*
X5679215Y-5386284D02*
X5679215Y-5281522D01*
X5679215Y-5281522D02*
X5669691Y-5262474D01*
X5669691Y-5262474D02*
X5650643Y-5252950D01*
X5650643Y-5252950D02*
X5612548Y-5252950D01*
X5612548Y-5252950D02*
X5593501Y-5262474D01*
X5679215Y-5376760D02*
X5660167Y-5386284D01*
X5660167Y-5386284D02*
X5612548Y-5386284D01*
X5612548Y-5386284D02*
X5593501Y-5376760D01*
X5593501Y-5376760D02*
X5583977Y-5357712D01*
X5583977Y-5357712D02*
X5583977Y-5338665D01*
X5583977Y-5338665D02*
X5593501Y-5319617D01*
X5593501Y-5319617D02*
X5612548Y-5310093D01*
X5612548Y-5310093D02*
X5660167Y-5310093D01*
X5660167Y-5310093D02*
X5679215Y-5300570D01*
X5774453Y-5252950D02*
X5774453Y-5452950D01*
X5774453Y-5262474D02*
X5793501Y-5252950D01*
X5793501Y-5252950D02*
X5831596Y-5252950D01*
X5831596Y-5252950D02*
X5850643Y-5262474D01*
X5850643Y-5262474D02*
X5860167Y-5271998D01*
X5860167Y-5271998D02*
X5869691Y-5291046D01*
X5869691Y-5291046D02*
X5869691Y-5348189D01*
X5869691Y-5348189D02*
X5860167Y-5367236D01*
X5860167Y-5367236D02*
X5850643Y-5376760D01*
X5850643Y-5376760D02*
X5831596Y-5386284D01*
X5831596Y-5386284D02*
X5793501Y-5386284D01*
X5793501Y-5386284D02*
X5774453Y-5376760D01*
X5955405Y-5367236D02*
X5964929Y-5376760D01*
X5964929Y-5376760D02*
X5955405Y-5386284D01*
X5955405Y-5386284D02*
X5945882Y-5376760D01*
X5945882Y-5376760D02*
X5955405Y-5367236D01*
X5955405Y-5367236D02*
X5955405Y-5386284D01*
X5955405Y-5262474D02*
X5964929Y-5271998D01*
X5964929Y-5271998D02*
X5955405Y-5281522D01*
X5955405Y-5281522D02*
X5945882Y-5271998D01*
X5945882Y-5271998D02*
X5955405Y-5262474D01*
X5955405Y-5262474D02*
X5955405Y-5281522D01*
X4123200Y-5614800D02*
X4323200Y-5814800D01*
X4323200Y-5614800D02*
X4123200Y-5814800D01*
X4564929Y-5606284D02*
X4688739Y-5606284D01*
X4688739Y-5606284D02*
X4622072Y-5682474D01*
X4622072Y-5682474D02*
X4650644Y-5682474D01*
X4650644Y-5682474D02*
X4669691Y-5691998D01*
X4669691Y-5691998D02*
X4679215Y-5701522D01*
X4679215Y-5701522D02*
X4688739Y-5720569D01*
X4688739Y-5720569D02*
X4688739Y-5768188D01*
X4688739Y-5768188D02*
X4679215Y-5787236D01*
X4679215Y-5787236D02*
X4669691Y-5796760D01*
X4669691Y-5796760D02*
X4650644Y-5806284D01*
X4650644Y-5806284D02*
X4593501Y-5806284D01*
X4593501Y-5806284D02*
X4574453Y-5796760D01*
X4574453Y-5796760D02*
X4564929Y-5787236D01*
X4774453Y-5787236D02*
X4783977Y-5796760D01*
X4783977Y-5796760D02*
X4774453Y-5806284D01*
X4774453Y-5806284D02*
X4764929Y-5796760D01*
X4764929Y-5796760D02*
X4774453Y-5787236D01*
X4774453Y-5787236D02*
X4774453Y-5806284D01*
X4860167Y-5625331D02*
X4869691Y-5615808D01*
X4869691Y-5615808D02*
X4888739Y-5606284D01*
X4888739Y-5606284D02*
X4936358Y-5606284D01*
X4936358Y-5606284D02*
X4955405Y-5615808D01*
X4955405Y-5615808D02*
X4964929Y-5625331D01*
X4964929Y-5625331D02*
X4974453Y-5644379D01*
X4974453Y-5644379D02*
X4974453Y-5663427D01*
X4974453Y-5663427D02*
X4964929Y-5691998D01*
X4964929Y-5691998D02*
X4850644Y-5806284D01*
X4850644Y-5806284D02*
X4974453Y-5806284D01*
X5098263Y-5606284D02*
X5117310Y-5606284D01*
X5117310Y-5606284D02*
X5136358Y-5615808D01*
X5136358Y-5615808D02*
X5145882Y-5625331D01*
X5145882Y-5625331D02*
X5155405Y-5644379D01*
X5155405Y-5644379D02*
X5164929Y-5682474D01*
X5164929Y-5682474D02*
X5164929Y-5730093D01*
X5164929Y-5730093D02*
X5155405Y-5768188D01*
X5155405Y-5768188D02*
X5145882Y-5787236D01*
X5145882Y-5787236D02*
X5136358Y-5796760D01*
X5136358Y-5796760D02*
X5117310Y-5806284D01*
X5117310Y-5806284D02*
X5098263Y-5806284D01*
X5098263Y-5806284D02*
X5079215Y-5796760D01*
X5079215Y-5796760D02*
X5069691Y-5787236D01*
X5069691Y-5787236D02*
X5060167Y-5768188D01*
X5060167Y-5768188D02*
X5050644Y-5730093D01*
X5050644Y-5730093D02*
X5050644Y-5682474D01*
X5050644Y-5682474D02*
X5060167Y-5644379D01*
X5060167Y-5644379D02*
X5069691Y-5625331D01*
X5069691Y-5625331D02*
X5079215Y-5615808D01*
X5079215Y-5615808D02*
X5098263Y-5606284D01*
X5288739Y-5606284D02*
X5307786Y-5606284D01*
X5307786Y-5606284D02*
X5326834Y-5615808D01*
X5326834Y-5615808D02*
X5336358Y-5625331D01*
X5336358Y-5625331D02*
X5345882Y-5644379D01*
X5345882Y-5644379D02*
X5355405Y-5682474D01*
X5355405Y-5682474D02*
X5355405Y-5730093D01*
X5355405Y-5730093D02*
X5345882Y-5768188D01*
X5345882Y-5768188D02*
X5336358Y-5787236D01*
X5336358Y-5787236D02*
X5326834Y-5796760D01*
X5326834Y-5796760D02*
X5307786Y-5806284D01*
X5307786Y-5806284D02*
X5288739Y-5806284D01*
X5288739Y-5806284D02*
X5269691Y-5796760D01*
X5269691Y-5796760D02*
X5260167Y-5787236D01*
X5260167Y-5787236D02*
X5250644Y-5768188D01*
X5250644Y-5768188D02*
X5241120Y-5730093D01*
X5241120Y-5730093D02*
X5241120Y-5682474D01*
X5241120Y-5682474D02*
X5250644Y-5644379D01*
X5250644Y-5644379D02*
X5260167Y-5625331D01*
X5260167Y-5625331D02*
X5269691Y-5615808D01*
X5269691Y-5615808D02*
X5288739Y-5606284D01*
X5441120Y-5806284D02*
X5441120Y-5672950D01*
X5441120Y-5691998D02*
X5450644Y-5682474D01*
X5450644Y-5682474D02*
X5469691Y-5672950D01*
X5469691Y-5672950D02*
X5498263Y-5672950D01*
X5498263Y-5672950D02*
X5517310Y-5682474D01*
X5517310Y-5682474D02*
X5526834Y-5701522D01*
X5526834Y-5701522D02*
X5526834Y-5806284D01*
X5526834Y-5701522D02*
X5536358Y-5682474D01*
X5536358Y-5682474D02*
X5555405Y-5672950D01*
X5555405Y-5672950D02*
X5583977Y-5672950D01*
X5583977Y-5672950D02*
X5603024Y-5682474D01*
X5603024Y-5682474D02*
X5612548Y-5701522D01*
X5612548Y-5701522D02*
X5612548Y-5806284D01*
X5707786Y-5806284D02*
X5707786Y-5672950D01*
X5707786Y-5691998D02*
X5717310Y-5682474D01*
X5717310Y-5682474D02*
X5736358Y-5672950D01*
X5736358Y-5672950D02*
X5764929Y-5672950D01*
X5764929Y-5672950D02*
X5783977Y-5682474D01*
X5783977Y-5682474D02*
X5793501Y-5701522D01*
X5793501Y-5701522D02*
X5793501Y-5806284D01*
X5793501Y-5701522D02*
X5803024Y-5682474D01*
X5803024Y-5682474D02*
X5822072Y-5672950D01*
X5822072Y-5672950D02*
X5850643Y-5672950D01*
X5850643Y-5672950D02*
X5869691Y-5682474D01*
X5869691Y-5682474D02*
X5879215Y-5701522D01*
X5879215Y-5701522D02*
X5879215Y-5806284D01*
X6269691Y-5596760D02*
X6098263Y-5853903D01*
X6526834Y-5606284D02*
X6545882Y-5606284D01*
X6545882Y-5606284D02*
X6564929Y-5615808D01*
X6564929Y-5615808D02*
X6574453Y-5625331D01*
X6574453Y-5625331D02*
X6583977Y-5644379D01*
X6583977Y-5644379D02*
X6593501Y-5682474D01*
X6593501Y-5682474D02*
X6593501Y-5730093D01*
X6593501Y-5730093D02*
X6583977Y-5768188D01*
X6583977Y-5768188D02*
X6574453Y-5787236D01*
X6574453Y-5787236D02*
X6564929Y-5796760D01*
X6564929Y-5796760D02*
X6545882Y-5806284D01*
X6545882Y-5806284D02*
X6526834Y-5806284D01*
X6526834Y-5806284D02*
X6507786Y-5796760D01*
X6507786Y-5796760D02*
X6498263Y-5787236D01*
X6498263Y-5787236D02*
X6488739Y-5768188D01*
X6488739Y-5768188D02*
X6479215Y-5730093D01*
X6479215Y-5730093D02*
X6479215Y-5682474D01*
X6479215Y-5682474D02*
X6488739Y-5644379D01*
X6488739Y-5644379D02*
X6498263Y-5625331D01*
X6498263Y-5625331D02*
X6507786Y-5615808D01*
X6507786Y-5615808D02*
X6526834Y-5606284D01*
X6679215Y-5787236D02*
X6688739Y-5796760D01*
X6688739Y-5796760D02*
X6679215Y-5806284D01*
X6679215Y-5806284D02*
X6669691Y-5796760D01*
X6669691Y-5796760D02*
X6679215Y-5787236D01*
X6679215Y-5787236D02*
X6679215Y-5806284D01*
X6879215Y-5806284D02*
X6764929Y-5806284D01*
X6822072Y-5806284D02*
X6822072Y-5606284D01*
X6822072Y-5606284D02*
X6803025Y-5634855D01*
X6803025Y-5634855D02*
X6783977Y-5653903D01*
X6783977Y-5653903D02*
X6764929Y-5663427D01*
X6955406Y-5625331D02*
X6964929Y-5615808D01*
X6964929Y-5615808D02*
X6983977Y-5606284D01*
X6983977Y-5606284D02*
X7031596Y-5606284D01*
X7031596Y-5606284D02*
X7050644Y-5615808D01*
X7050644Y-5615808D02*
X7060167Y-5625331D01*
X7060167Y-5625331D02*
X7069691Y-5644379D01*
X7069691Y-5644379D02*
X7069691Y-5663427D01*
X7069691Y-5663427D02*
X7060167Y-5691998D01*
X7060167Y-5691998D02*
X6945882Y-5806284D01*
X6945882Y-5806284D02*
X7069691Y-5806284D01*
X7241120Y-5606284D02*
X7203025Y-5606284D01*
X7203025Y-5606284D02*
X7183977Y-5615808D01*
X7183977Y-5615808D02*
X7174453Y-5625331D01*
X7174453Y-5625331D02*
X7155406Y-5653903D01*
X7155406Y-5653903D02*
X7145882Y-5691998D01*
X7145882Y-5691998D02*
X7145882Y-5768188D01*
X7145882Y-5768188D02*
X7155406Y-5787236D01*
X7155406Y-5787236D02*
X7164929Y-5796760D01*
X7164929Y-5796760D02*
X7183977Y-5806284D01*
X7183977Y-5806284D02*
X7222072Y-5806284D01*
X7222072Y-5806284D02*
X7241120Y-5796760D01*
X7241120Y-5796760D02*
X7250644Y-5787236D01*
X7250644Y-5787236D02*
X7260167Y-5768188D01*
X7260167Y-5768188D02*
X7260167Y-5720569D01*
X7260167Y-5720569D02*
X7250644Y-5701522D01*
X7250644Y-5701522D02*
X7241120Y-5691998D01*
X7241120Y-5691998D02*
X7222072Y-5682474D01*
X7222072Y-5682474D02*
X7183977Y-5682474D01*
X7183977Y-5682474D02*
X7164929Y-5691998D01*
X7164929Y-5691998D02*
X7155406Y-5701522D01*
X7155406Y-5701522D02*
X7145882Y-5720569D01*
X7383977Y-5606284D02*
X7403025Y-5606284D01*
X7403025Y-5606284D02*
X7422072Y-5615808D01*
X7422072Y-5615808D02*
X7431596Y-5625331D01*
X7431596Y-5625331D02*
X7441120Y-5644379D01*
X7441120Y-5644379D02*
X7450644Y-5682474D01*
X7450644Y-5682474D02*
X7450644Y-5730093D01*
X7450644Y-5730093D02*
X7441120Y-5768188D01*
X7441120Y-5768188D02*
X7431596Y-5787236D01*
X7431596Y-5787236D02*
X7422072Y-5796760D01*
X7422072Y-5796760D02*
X7403025Y-5806284D01*
X7403025Y-5806284D02*
X7383977Y-5806284D01*
X7383977Y-5806284D02*
X7364929Y-5796760D01*
X7364929Y-5796760D02*
X7355406Y-5787236D01*
X7355406Y-5787236D02*
X7345882Y-5768188D01*
X7345882Y-5768188D02*
X7336358Y-5730093D01*
X7336358Y-5730093D02*
X7336358Y-5682474D01*
X7336358Y-5682474D02*
X7345882Y-5644379D01*
X7345882Y-5644379D02*
X7355406Y-5625331D01*
X7355406Y-5625331D02*
X7364929Y-5615808D01*
X7364929Y-5615808D02*
X7383977Y-5606284D01*
X7526834Y-5606284D02*
X7526834Y-5644379D01*
X7603025Y-5606284D02*
X7603025Y-5644379D01*
X7898263Y-5882474D02*
X7888739Y-5872950D01*
X7888739Y-5872950D02*
X7869691Y-5844379D01*
X7869691Y-5844379D02*
X7860168Y-5825331D01*
X7860168Y-5825331D02*
X7850644Y-5796760D01*
X7850644Y-5796760D02*
X7841120Y-5749141D01*
X7841120Y-5749141D02*
X7841120Y-5711046D01*
X7841120Y-5711046D02*
X7850644Y-5663427D01*
X7850644Y-5663427D02*
X7860168Y-5634855D01*
X7860168Y-5634855D02*
X7869691Y-5615808D01*
X7869691Y-5615808D02*
X7888739Y-5587236D01*
X7888739Y-5587236D02*
X7898263Y-5577712D01*
X8060168Y-5606284D02*
X8022072Y-5606284D01*
X8022072Y-5606284D02*
X8003025Y-5615808D01*
X8003025Y-5615808D02*
X7993501Y-5625331D01*
X7993501Y-5625331D02*
X7974453Y-5653903D01*
X7974453Y-5653903D02*
X7964929Y-5691998D01*
X7964929Y-5691998D02*
X7964929Y-5768188D01*
X7964929Y-5768188D02*
X7974453Y-5787236D01*
X7974453Y-5787236D02*
X7983977Y-5796760D01*
X7983977Y-5796760D02*
X8003025Y-5806284D01*
X8003025Y-5806284D02*
X8041120Y-5806284D01*
X8041120Y-5806284D02*
X8060168Y-5796760D01*
X8060168Y-5796760D02*
X8069691Y-5787236D01*
X8069691Y-5787236D02*
X8079215Y-5768188D01*
X8079215Y-5768188D02*
X8079215Y-5720569D01*
X8079215Y-5720569D02*
X8069691Y-5701522D01*
X8069691Y-5701522D02*
X8060168Y-5691998D01*
X8060168Y-5691998D02*
X8041120Y-5682474D01*
X8041120Y-5682474D02*
X8003025Y-5682474D01*
X8003025Y-5682474D02*
X7983977Y-5691998D01*
X7983977Y-5691998D02*
X7974453Y-5701522D01*
X7974453Y-5701522D02*
X7964929Y-5720569D01*
X8317310Y-5806284D02*
X8317310Y-5606284D01*
X8403025Y-5806284D02*
X8403025Y-5701522D01*
X8403025Y-5701522D02*
X8393501Y-5682474D01*
X8393501Y-5682474D02*
X8374453Y-5672950D01*
X8374453Y-5672950D02*
X8345882Y-5672950D01*
X8345882Y-5672950D02*
X8326834Y-5682474D01*
X8326834Y-5682474D02*
X8317310Y-5691998D01*
X8526834Y-5806284D02*
X8507787Y-5796760D01*
X8507787Y-5796760D02*
X8498263Y-5787236D01*
X8498263Y-5787236D02*
X8488739Y-5768188D01*
X8488739Y-5768188D02*
X8488739Y-5711046D01*
X8488739Y-5711046D02*
X8498263Y-5691998D01*
X8498263Y-5691998D02*
X8507787Y-5682474D01*
X8507787Y-5682474D02*
X8526834Y-5672950D01*
X8526834Y-5672950D02*
X8555406Y-5672950D01*
X8555406Y-5672950D02*
X8574453Y-5682474D01*
X8574453Y-5682474D02*
X8583977Y-5691998D01*
X8583977Y-5691998D02*
X8593501Y-5711046D01*
X8593501Y-5711046D02*
X8593501Y-5768188D01*
X8593501Y-5768188D02*
X8583977Y-5787236D01*
X8583977Y-5787236D02*
X8574453Y-5796760D01*
X8574453Y-5796760D02*
X8555406Y-5806284D01*
X8555406Y-5806284D02*
X8526834Y-5806284D01*
X8707787Y-5806284D02*
X8688739Y-5796760D01*
X8688739Y-5796760D02*
X8679215Y-5777712D01*
X8679215Y-5777712D02*
X8679215Y-5606284D01*
X8860168Y-5796760D02*
X8841120Y-5806284D01*
X8841120Y-5806284D02*
X8803025Y-5806284D01*
X8803025Y-5806284D02*
X8783977Y-5796760D01*
X8783977Y-5796760D02*
X8774453Y-5777712D01*
X8774453Y-5777712D02*
X8774453Y-5701522D01*
X8774453Y-5701522D02*
X8783977Y-5682474D01*
X8783977Y-5682474D02*
X8803025Y-5672950D01*
X8803025Y-5672950D02*
X8841120Y-5672950D01*
X8841120Y-5672950D02*
X8860168Y-5682474D01*
X8860168Y-5682474D02*
X8869692Y-5701522D01*
X8869692Y-5701522D02*
X8869692Y-5720569D01*
X8869692Y-5720569D02*
X8774453Y-5739617D01*
X8945882Y-5796760D02*
X8964930Y-5806284D01*
X8964930Y-5806284D02*
X9003025Y-5806284D01*
X9003025Y-5806284D02*
X9022073Y-5796760D01*
X9022073Y-5796760D02*
X9031596Y-5777712D01*
X9031596Y-5777712D02*
X9031596Y-5768188D01*
X9031596Y-5768188D02*
X9022073Y-5749141D01*
X9022073Y-5749141D02*
X9003025Y-5739617D01*
X9003025Y-5739617D02*
X8974453Y-5739617D01*
X8974453Y-5739617D02*
X8955406Y-5730093D01*
X8955406Y-5730093D02*
X8945882Y-5711046D01*
X8945882Y-5711046D02*
X8945882Y-5701522D01*
X8945882Y-5701522D02*
X8955406Y-5682474D01*
X8955406Y-5682474D02*
X8974453Y-5672950D01*
X8974453Y-5672950D02*
X9003025Y-5672950D01*
X9003025Y-5672950D02*
X9022073Y-5682474D01*
X9098263Y-5882474D02*
X9107787Y-5872950D01*
X9107787Y-5872950D02*
X9126834Y-5844379D01*
X9126834Y-5844379D02*
X9136358Y-5825331D01*
X9136358Y-5825331D02*
X9145882Y-5796760D01*
X9145882Y-5796760D02*
X9155406Y-5749141D01*
X9155406Y-5749141D02*
X9155406Y-5711046D01*
X9155406Y-5711046D02*
X9145882Y-5663427D01*
X9145882Y-5663427D02*
X9136358Y-5634855D01*
X9136358Y-5634855D02*
X9126834Y-5615808D01*
X9126834Y-5615808D02*
X9107787Y-5587236D01*
X9107787Y-5587236D02*
X9098263Y-5577712D01*
X9460168Y-5882474D02*
X9450644Y-5872950D01*
X9450644Y-5872950D02*
X9431596Y-5844379D01*
X9431596Y-5844379D02*
X9422073Y-5825331D01*
X9422073Y-5825331D02*
X9412549Y-5796760D01*
X9412549Y-5796760D02*
X9403025Y-5749141D01*
X9403025Y-5749141D02*
X9403025Y-5711046D01*
X9403025Y-5711046D02*
X9412549Y-5663427D01*
X9412549Y-5663427D02*
X9422073Y-5634855D01*
X9422073Y-5634855D02*
X9431596Y-5615808D01*
X9431596Y-5615808D02*
X9450644Y-5587236D01*
X9450644Y-5587236D02*
X9460168Y-5577712D01*
X9536358Y-5672950D02*
X9536358Y-5806284D01*
X9536358Y-5691998D02*
X9545882Y-5682474D01*
X9545882Y-5682474D02*
X9564930Y-5672950D01*
X9564930Y-5672950D02*
X9593501Y-5672950D01*
X9593501Y-5672950D02*
X9612549Y-5682474D01*
X9612549Y-5682474D02*
X9622073Y-5701522D01*
X9622073Y-5701522D02*
X9622073Y-5806284D01*
X9745882Y-5806284D02*
X9726834Y-5796760D01*
X9726834Y-5796760D02*
X9717311Y-5787236D01*
X9717311Y-5787236D02*
X9707787Y-5768188D01*
X9707787Y-5768188D02*
X9707787Y-5711046D01*
X9707787Y-5711046D02*
X9717311Y-5691998D01*
X9717311Y-5691998D02*
X9726834Y-5682474D01*
X9726834Y-5682474D02*
X9745882Y-5672950D01*
X9745882Y-5672950D02*
X9774454Y-5672950D01*
X9774454Y-5672950D02*
X9793501Y-5682474D01*
X9793501Y-5682474D02*
X9803025Y-5691998D01*
X9803025Y-5691998D02*
X9812549Y-5711046D01*
X9812549Y-5711046D02*
X9812549Y-5768188D01*
X9812549Y-5768188D02*
X9803025Y-5787236D01*
X9803025Y-5787236D02*
X9793501Y-5796760D01*
X9793501Y-5796760D02*
X9774454Y-5806284D01*
X9774454Y-5806284D02*
X9745882Y-5806284D01*
X9869692Y-5672950D02*
X9945882Y-5672950D01*
X9898263Y-5606284D02*
X9898263Y-5777712D01*
X9898263Y-5777712D02*
X9907787Y-5796760D01*
X9907787Y-5796760D02*
X9926834Y-5806284D01*
X9926834Y-5806284D02*
X9945882Y-5806284D01*
X10164930Y-5672950D02*
X10164930Y-5872950D01*
X10164930Y-5682474D02*
X10183977Y-5672950D01*
X10183977Y-5672950D02*
X10222073Y-5672950D01*
X10222073Y-5672950D02*
X10241120Y-5682474D01*
X10241120Y-5682474D02*
X10250644Y-5691998D01*
X10250644Y-5691998D02*
X10260168Y-5711046D01*
X10260168Y-5711046D02*
X10260168Y-5768188D01*
X10260168Y-5768188D02*
X10250644Y-5787236D01*
X10250644Y-5787236D02*
X10241120Y-5796760D01*
X10241120Y-5796760D02*
X10222073Y-5806284D01*
X10222073Y-5806284D02*
X10183977Y-5806284D01*
X10183977Y-5806284D02*
X10164930Y-5796760D01*
X10374454Y-5806284D02*
X10355406Y-5796760D01*
X10355406Y-5796760D02*
X10345882Y-5777712D01*
X10345882Y-5777712D02*
X10345882Y-5606284D01*
X10536358Y-5806284D02*
X10536358Y-5701522D01*
X10536358Y-5701522D02*
X10526835Y-5682474D01*
X10526835Y-5682474D02*
X10507787Y-5672950D01*
X10507787Y-5672950D02*
X10469692Y-5672950D01*
X10469692Y-5672950D02*
X10450644Y-5682474D01*
X10536358Y-5796760D02*
X10517311Y-5806284D01*
X10517311Y-5806284D02*
X10469692Y-5806284D01*
X10469692Y-5806284D02*
X10450644Y-5796760D01*
X10450644Y-5796760D02*
X10441120Y-5777712D01*
X10441120Y-5777712D02*
X10441120Y-5758665D01*
X10441120Y-5758665D02*
X10450644Y-5739617D01*
X10450644Y-5739617D02*
X10469692Y-5730093D01*
X10469692Y-5730093D02*
X10517311Y-5730093D01*
X10517311Y-5730093D02*
X10536358Y-5720569D01*
X10603025Y-5672950D02*
X10679215Y-5672950D01*
X10631596Y-5606284D02*
X10631596Y-5777712D01*
X10631596Y-5777712D02*
X10641120Y-5796760D01*
X10641120Y-5796760D02*
X10660168Y-5806284D01*
X10660168Y-5806284D02*
X10679215Y-5806284D01*
X10822073Y-5796760D02*
X10803025Y-5806284D01*
X10803025Y-5806284D02*
X10764930Y-5806284D01*
X10764930Y-5806284D02*
X10745882Y-5796760D01*
X10745882Y-5796760D02*
X10736358Y-5777712D01*
X10736358Y-5777712D02*
X10736358Y-5701522D01*
X10736358Y-5701522D02*
X10745882Y-5682474D01*
X10745882Y-5682474D02*
X10764930Y-5672950D01*
X10764930Y-5672950D02*
X10803025Y-5672950D01*
X10803025Y-5672950D02*
X10822073Y-5682474D01*
X10822073Y-5682474D02*
X10831596Y-5701522D01*
X10831596Y-5701522D02*
X10831596Y-5720569D01*
X10831596Y-5720569D02*
X10736358Y-5739617D01*
X11003025Y-5806284D02*
X11003025Y-5606284D01*
X11003025Y-5796760D02*
X10983977Y-5806284D01*
X10983977Y-5806284D02*
X10945882Y-5806284D01*
X10945882Y-5806284D02*
X10926835Y-5796760D01*
X10926835Y-5796760D02*
X10917311Y-5787236D01*
X10917311Y-5787236D02*
X10907787Y-5768188D01*
X10907787Y-5768188D02*
X10907787Y-5711046D01*
X10907787Y-5711046D02*
X10917311Y-5691998D01*
X10917311Y-5691998D02*
X10926835Y-5682474D01*
X10926835Y-5682474D02*
X10945882Y-5672950D01*
X10945882Y-5672950D02*
X10983977Y-5672950D01*
X10983977Y-5672950D02*
X11003025Y-5682474D01*
X11079216Y-5882474D02*
X11088739Y-5872950D01*
X11088739Y-5872950D02*
X11107787Y-5844379D01*
X11107787Y-5844379D02*
X11117311Y-5825331D01*
X11117311Y-5825331D02*
X11126835Y-5796760D01*
X11126835Y-5796760D02*
X11136358Y-5749141D01*
X11136358Y-5749141D02*
X11136358Y-5711046D01*
X11136358Y-5711046D02*
X11126835Y-5663427D01*
X11126835Y-5663427D02*
X11117311Y-5634855D01*
X11117311Y-5634855D02*
X11107787Y-5615808D01*
X11107787Y-5615808D02*
X11088739Y-5587236D01*
X11088739Y-5587236D02*
X11079216Y-5577712D01*
X4323200Y-6034800D02*
G75*
G03*
X4323200Y-6034800I-100000J0D01*
G01*
X4564929Y-5926284D02*
X4688739Y-5926284D01*
X4688739Y-5926284D02*
X4622072Y-6002474D01*
X4622072Y-6002474D02*
X4650644Y-6002474D01*
X4650644Y-6002474D02*
X4669691Y-6011998D01*
X4669691Y-6011998D02*
X4679215Y-6021522D01*
X4679215Y-6021522D02*
X4688739Y-6040569D01*
X4688739Y-6040569D02*
X4688739Y-6088188D01*
X4688739Y-6088188D02*
X4679215Y-6107236D01*
X4679215Y-6107236D02*
X4669691Y-6116760D01*
X4669691Y-6116760D02*
X4650644Y-6126284D01*
X4650644Y-6126284D02*
X4593501Y-6126284D01*
X4593501Y-6126284D02*
X4574453Y-6116760D01*
X4574453Y-6116760D02*
X4564929Y-6107236D01*
X4774453Y-6107236D02*
X4783977Y-6116760D01*
X4783977Y-6116760D02*
X4774453Y-6126284D01*
X4774453Y-6126284D02*
X4764929Y-6116760D01*
X4764929Y-6116760D02*
X4774453Y-6107236D01*
X4774453Y-6107236D02*
X4774453Y-6126284D01*
X4964929Y-5926284D02*
X4869691Y-5926284D01*
X4869691Y-5926284D02*
X4860167Y-6021522D01*
X4860167Y-6021522D02*
X4869691Y-6011998D01*
X4869691Y-6011998D02*
X4888739Y-6002474D01*
X4888739Y-6002474D02*
X4936358Y-6002474D01*
X4936358Y-6002474D02*
X4955405Y-6011998D01*
X4955405Y-6011998D02*
X4964929Y-6021522D01*
X4964929Y-6021522D02*
X4974453Y-6040569D01*
X4974453Y-6040569D02*
X4974453Y-6088188D01*
X4974453Y-6088188D02*
X4964929Y-6107236D01*
X4964929Y-6107236D02*
X4955405Y-6116760D01*
X4955405Y-6116760D02*
X4936358Y-6126284D01*
X4936358Y-6126284D02*
X4888739Y-6126284D01*
X4888739Y-6126284D02*
X4869691Y-6116760D01*
X4869691Y-6116760D02*
X4860167Y-6107236D01*
X5098263Y-5926284D02*
X5117310Y-5926284D01*
X5117310Y-5926284D02*
X5136358Y-5935808D01*
X5136358Y-5935808D02*
X5145882Y-5945331D01*
X5145882Y-5945331D02*
X5155405Y-5964379D01*
X5155405Y-5964379D02*
X5164929Y-6002474D01*
X5164929Y-6002474D02*
X5164929Y-6050093D01*
X5164929Y-6050093D02*
X5155405Y-6088188D01*
X5155405Y-6088188D02*
X5145882Y-6107236D01*
X5145882Y-6107236D02*
X5136358Y-6116760D01*
X5136358Y-6116760D02*
X5117310Y-6126284D01*
X5117310Y-6126284D02*
X5098263Y-6126284D01*
X5098263Y-6126284D02*
X5079215Y-6116760D01*
X5079215Y-6116760D02*
X5069691Y-6107236D01*
X5069691Y-6107236D02*
X5060167Y-6088188D01*
X5060167Y-6088188D02*
X5050644Y-6050093D01*
X5050644Y-6050093D02*
X5050644Y-6002474D01*
X5050644Y-6002474D02*
X5060167Y-5964379D01*
X5060167Y-5964379D02*
X5069691Y-5945331D01*
X5069691Y-5945331D02*
X5079215Y-5935808D01*
X5079215Y-5935808D02*
X5098263Y-5926284D01*
X5288739Y-5926284D02*
X5307786Y-5926284D01*
X5307786Y-5926284D02*
X5326834Y-5935808D01*
X5326834Y-5935808D02*
X5336358Y-5945331D01*
X5336358Y-5945331D02*
X5345882Y-5964379D01*
X5345882Y-5964379D02*
X5355405Y-6002474D01*
X5355405Y-6002474D02*
X5355405Y-6050093D01*
X5355405Y-6050093D02*
X5345882Y-6088188D01*
X5345882Y-6088188D02*
X5336358Y-6107236D01*
X5336358Y-6107236D02*
X5326834Y-6116760D01*
X5326834Y-6116760D02*
X5307786Y-6126284D01*
X5307786Y-6126284D02*
X5288739Y-6126284D01*
X5288739Y-6126284D02*
X5269691Y-6116760D01*
X5269691Y-6116760D02*
X5260167Y-6107236D01*
X5260167Y-6107236D02*
X5250644Y-6088188D01*
X5250644Y-6088188D02*
X5241120Y-6050093D01*
X5241120Y-6050093D02*
X5241120Y-6002474D01*
X5241120Y-6002474D02*
X5250644Y-5964379D01*
X5250644Y-5964379D02*
X5260167Y-5945331D01*
X5260167Y-5945331D02*
X5269691Y-5935808D01*
X5269691Y-5935808D02*
X5288739Y-5926284D01*
X5441120Y-6126284D02*
X5441120Y-5992950D01*
X5441120Y-6011998D02*
X5450644Y-6002474D01*
X5450644Y-6002474D02*
X5469691Y-5992950D01*
X5469691Y-5992950D02*
X5498263Y-5992950D01*
X5498263Y-5992950D02*
X5517310Y-6002474D01*
X5517310Y-6002474D02*
X5526834Y-6021522D01*
X5526834Y-6021522D02*
X5526834Y-6126284D01*
X5526834Y-6021522D02*
X5536358Y-6002474D01*
X5536358Y-6002474D02*
X5555405Y-5992950D01*
X5555405Y-5992950D02*
X5583977Y-5992950D01*
X5583977Y-5992950D02*
X5603024Y-6002474D01*
X5603024Y-6002474D02*
X5612548Y-6021522D01*
X5612548Y-6021522D02*
X5612548Y-6126284D01*
X5707786Y-6126284D02*
X5707786Y-5992950D01*
X5707786Y-6011998D02*
X5717310Y-6002474D01*
X5717310Y-6002474D02*
X5736358Y-5992950D01*
X5736358Y-5992950D02*
X5764929Y-5992950D01*
X5764929Y-5992950D02*
X5783977Y-6002474D01*
X5783977Y-6002474D02*
X5793501Y-6021522D01*
X5793501Y-6021522D02*
X5793501Y-6126284D01*
X5793501Y-6021522D02*
X5803024Y-6002474D01*
X5803024Y-6002474D02*
X5822072Y-5992950D01*
X5822072Y-5992950D02*
X5850643Y-5992950D01*
X5850643Y-5992950D02*
X5869691Y-6002474D01*
X5869691Y-6002474D02*
X5879215Y-6021522D01*
X5879215Y-6021522D02*
X5879215Y-6126284D01*
X6269691Y-5916760D02*
X6098263Y-6173903D01*
X6526834Y-5926284D02*
X6545882Y-5926284D01*
X6545882Y-5926284D02*
X6564929Y-5935808D01*
X6564929Y-5935808D02*
X6574453Y-5945331D01*
X6574453Y-5945331D02*
X6583977Y-5964379D01*
X6583977Y-5964379D02*
X6593501Y-6002474D01*
X6593501Y-6002474D02*
X6593501Y-6050093D01*
X6593501Y-6050093D02*
X6583977Y-6088188D01*
X6583977Y-6088188D02*
X6574453Y-6107236D01*
X6574453Y-6107236D02*
X6564929Y-6116760D01*
X6564929Y-6116760D02*
X6545882Y-6126284D01*
X6545882Y-6126284D02*
X6526834Y-6126284D01*
X6526834Y-6126284D02*
X6507786Y-6116760D01*
X6507786Y-6116760D02*
X6498263Y-6107236D01*
X6498263Y-6107236D02*
X6488739Y-6088188D01*
X6488739Y-6088188D02*
X6479215Y-6050093D01*
X6479215Y-6050093D02*
X6479215Y-6002474D01*
X6479215Y-6002474D02*
X6488739Y-5964379D01*
X6488739Y-5964379D02*
X6498263Y-5945331D01*
X6498263Y-5945331D02*
X6507786Y-5935808D01*
X6507786Y-5935808D02*
X6526834Y-5926284D01*
X6679215Y-6107236D02*
X6688739Y-6116760D01*
X6688739Y-6116760D02*
X6679215Y-6126284D01*
X6679215Y-6126284D02*
X6669691Y-6116760D01*
X6669691Y-6116760D02*
X6679215Y-6107236D01*
X6679215Y-6107236D02*
X6679215Y-6126284D01*
X6879215Y-6126284D02*
X6764929Y-6126284D01*
X6822072Y-6126284D02*
X6822072Y-5926284D01*
X6822072Y-5926284D02*
X6803025Y-5954855D01*
X6803025Y-5954855D02*
X6783977Y-5973903D01*
X6783977Y-5973903D02*
X6764929Y-5983427D01*
X6945882Y-5926284D02*
X7069691Y-5926284D01*
X7069691Y-5926284D02*
X7003025Y-6002474D01*
X7003025Y-6002474D02*
X7031596Y-6002474D01*
X7031596Y-6002474D02*
X7050644Y-6011998D01*
X7050644Y-6011998D02*
X7060167Y-6021522D01*
X7060167Y-6021522D02*
X7069691Y-6040569D01*
X7069691Y-6040569D02*
X7069691Y-6088188D01*
X7069691Y-6088188D02*
X7060167Y-6107236D01*
X7060167Y-6107236D02*
X7050644Y-6116760D01*
X7050644Y-6116760D02*
X7031596Y-6126284D01*
X7031596Y-6126284D02*
X6974453Y-6126284D01*
X6974453Y-6126284D02*
X6955406Y-6116760D01*
X6955406Y-6116760D02*
X6945882Y-6107236D01*
X7136358Y-5926284D02*
X7269691Y-5926284D01*
X7269691Y-5926284D02*
X7183977Y-6126284D01*
X7374453Y-6011998D02*
X7355406Y-6002474D01*
X7355406Y-6002474D02*
X7345882Y-5992950D01*
X7345882Y-5992950D02*
X7336358Y-5973903D01*
X7336358Y-5973903D02*
X7336358Y-5964379D01*
X7336358Y-5964379D02*
X7345882Y-5945331D01*
X7345882Y-5945331D02*
X7355406Y-5935808D01*
X7355406Y-5935808D02*
X7374453Y-5926284D01*
X7374453Y-5926284D02*
X7412548Y-5926284D01*
X7412548Y-5926284D02*
X7431596Y-5935808D01*
X7431596Y-5935808D02*
X7441120Y-5945331D01*
X7441120Y-5945331D02*
X7450644Y-5964379D01*
X7450644Y-5964379D02*
X7450644Y-5973903D01*
X7450644Y-5973903D02*
X7441120Y-5992950D01*
X7441120Y-5992950D02*
X7431596Y-6002474D01*
X7431596Y-6002474D02*
X7412548Y-6011998D01*
X7412548Y-6011998D02*
X7374453Y-6011998D01*
X7374453Y-6011998D02*
X7355406Y-6021522D01*
X7355406Y-6021522D02*
X7345882Y-6031046D01*
X7345882Y-6031046D02*
X7336358Y-6050093D01*
X7336358Y-6050093D02*
X7336358Y-6088188D01*
X7336358Y-6088188D02*
X7345882Y-6107236D01*
X7345882Y-6107236D02*
X7355406Y-6116760D01*
X7355406Y-6116760D02*
X7374453Y-6126284D01*
X7374453Y-6126284D02*
X7412548Y-6126284D01*
X7412548Y-6126284D02*
X7431596Y-6116760D01*
X7431596Y-6116760D02*
X7441120Y-6107236D01*
X7441120Y-6107236D02*
X7450644Y-6088188D01*
X7450644Y-6088188D02*
X7450644Y-6050093D01*
X7450644Y-6050093D02*
X7441120Y-6031046D01*
X7441120Y-6031046D02*
X7431596Y-6021522D01*
X7431596Y-6021522D02*
X7412548Y-6011998D01*
X7526834Y-5926284D02*
X7526834Y-5964379D01*
X7603025Y-5926284D02*
X7603025Y-5964379D01*
X7898263Y-6202474D02*
X7888739Y-6192950D01*
X7888739Y-6192950D02*
X7869691Y-6164379D01*
X7869691Y-6164379D02*
X7860168Y-6145331D01*
X7860168Y-6145331D02*
X7850644Y-6116760D01*
X7850644Y-6116760D02*
X7841120Y-6069141D01*
X7841120Y-6069141D02*
X7841120Y-6031046D01*
X7841120Y-6031046D02*
X7850644Y-5983427D01*
X7850644Y-5983427D02*
X7860168Y-5954855D01*
X7860168Y-5954855D02*
X7869691Y-5935808D01*
X7869691Y-5935808D02*
X7888739Y-5907236D01*
X7888739Y-5907236D02*
X7898263Y-5897712D01*
X8079215Y-6126284D02*
X7964929Y-6126284D01*
X8022072Y-6126284D02*
X8022072Y-5926284D01*
X8022072Y-5926284D02*
X8003025Y-5954855D01*
X8003025Y-5954855D02*
X7983977Y-5973903D01*
X7983977Y-5973903D02*
X7964929Y-5983427D01*
X8317310Y-6126284D02*
X8317310Y-5926284D01*
X8403025Y-6126284D02*
X8403025Y-6021522D01*
X8403025Y-6021522D02*
X8393501Y-6002474D01*
X8393501Y-6002474D02*
X8374453Y-5992950D01*
X8374453Y-5992950D02*
X8345882Y-5992950D01*
X8345882Y-5992950D02*
X8326834Y-6002474D01*
X8326834Y-6002474D02*
X8317310Y-6011998D01*
X8526834Y-6126284D02*
X8507787Y-6116760D01*
X8507787Y-6116760D02*
X8498263Y-6107236D01*
X8498263Y-6107236D02*
X8488739Y-6088188D01*
X8488739Y-6088188D02*
X8488739Y-6031046D01*
X8488739Y-6031046D02*
X8498263Y-6011998D01*
X8498263Y-6011998D02*
X8507787Y-6002474D01*
X8507787Y-6002474D02*
X8526834Y-5992950D01*
X8526834Y-5992950D02*
X8555406Y-5992950D01*
X8555406Y-5992950D02*
X8574453Y-6002474D01*
X8574453Y-6002474D02*
X8583977Y-6011998D01*
X8583977Y-6011998D02*
X8593501Y-6031046D01*
X8593501Y-6031046D02*
X8593501Y-6088188D01*
X8593501Y-6088188D02*
X8583977Y-6107236D01*
X8583977Y-6107236D02*
X8574453Y-6116760D01*
X8574453Y-6116760D02*
X8555406Y-6126284D01*
X8555406Y-6126284D02*
X8526834Y-6126284D01*
X8707787Y-6126284D02*
X8688739Y-6116760D01*
X8688739Y-6116760D02*
X8679215Y-6097712D01*
X8679215Y-6097712D02*
X8679215Y-5926284D01*
X8860168Y-6116760D02*
X8841120Y-6126284D01*
X8841120Y-6126284D02*
X8803025Y-6126284D01*
X8803025Y-6126284D02*
X8783977Y-6116760D01*
X8783977Y-6116760D02*
X8774453Y-6097712D01*
X8774453Y-6097712D02*
X8774453Y-6021522D01*
X8774453Y-6021522D02*
X8783977Y-6002474D01*
X8783977Y-6002474D02*
X8803025Y-5992950D01*
X8803025Y-5992950D02*
X8841120Y-5992950D01*
X8841120Y-5992950D02*
X8860168Y-6002474D01*
X8860168Y-6002474D02*
X8869692Y-6021522D01*
X8869692Y-6021522D02*
X8869692Y-6040569D01*
X8869692Y-6040569D02*
X8774453Y-6059617D01*
X8936358Y-6202474D02*
X8945882Y-6192950D01*
X8945882Y-6192950D02*
X8964930Y-6164379D01*
X8964930Y-6164379D02*
X8974453Y-6145331D01*
X8974453Y-6145331D02*
X8983977Y-6116760D01*
X8983977Y-6116760D02*
X8993501Y-6069141D01*
X8993501Y-6069141D02*
X8993501Y-6031046D01*
X8993501Y-6031046D02*
X8983977Y-5983427D01*
X8983977Y-5983427D02*
X8974453Y-5954855D01*
X8974453Y-5954855D02*
X8964930Y-5935808D01*
X8964930Y-5935808D02*
X8945882Y-5907236D01*
X8945882Y-5907236D02*
X8936358Y-5897712D01*
X9298263Y-6202474D02*
X9288739Y-6192950D01*
X9288739Y-6192950D02*
X9269692Y-6164379D01*
X9269692Y-6164379D02*
X9260168Y-6145331D01*
X9260168Y-6145331D02*
X9250644Y-6116760D01*
X9250644Y-6116760D02*
X9241120Y-6069141D01*
X9241120Y-6069141D02*
X9241120Y-6031046D01*
X9241120Y-6031046D02*
X9250644Y-5983427D01*
X9250644Y-5983427D02*
X9260168Y-5954855D01*
X9260168Y-5954855D02*
X9269692Y-5935808D01*
X9269692Y-5935808D02*
X9288739Y-5907236D01*
X9288739Y-5907236D02*
X9298263Y-5897712D01*
X9374453Y-5992950D02*
X9374453Y-6126284D01*
X9374453Y-6011998D02*
X9383977Y-6002474D01*
X9383977Y-6002474D02*
X9403025Y-5992950D01*
X9403025Y-5992950D02*
X9431596Y-5992950D01*
X9431596Y-5992950D02*
X9450644Y-6002474D01*
X9450644Y-6002474D02*
X9460168Y-6021522D01*
X9460168Y-6021522D02*
X9460168Y-6126284D01*
X9583977Y-6126284D02*
X9564930Y-6116760D01*
X9564930Y-6116760D02*
X9555406Y-6107236D01*
X9555406Y-6107236D02*
X9545882Y-6088188D01*
X9545882Y-6088188D02*
X9545882Y-6031046D01*
X9545882Y-6031046D02*
X9555406Y-6011998D01*
X9555406Y-6011998D02*
X9564930Y-6002474D01*
X9564930Y-6002474D02*
X9583977Y-5992950D01*
X9583977Y-5992950D02*
X9612549Y-5992950D01*
X9612549Y-5992950D02*
X9631596Y-6002474D01*
X9631596Y-6002474D02*
X9641120Y-6011998D01*
X9641120Y-6011998D02*
X9650644Y-6031046D01*
X9650644Y-6031046D02*
X9650644Y-6088188D01*
X9650644Y-6088188D02*
X9641120Y-6107236D01*
X9641120Y-6107236D02*
X9631596Y-6116760D01*
X9631596Y-6116760D02*
X9612549Y-6126284D01*
X9612549Y-6126284D02*
X9583977Y-6126284D01*
X9707787Y-5992950D02*
X9783977Y-5992950D01*
X9736358Y-5926284D02*
X9736358Y-6097712D01*
X9736358Y-6097712D02*
X9745882Y-6116760D01*
X9745882Y-6116760D02*
X9764930Y-6126284D01*
X9764930Y-6126284D02*
X9783977Y-6126284D01*
X10003025Y-5992950D02*
X10003025Y-6192950D01*
X10003025Y-6002474D02*
X10022073Y-5992950D01*
X10022073Y-5992950D02*
X10060168Y-5992950D01*
X10060168Y-5992950D02*
X10079215Y-6002474D01*
X10079215Y-6002474D02*
X10088739Y-6011998D01*
X10088739Y-6011998D02*
X10098263Y-6031046D01*
X10098263Y-6031046D02*
X10098263Y-6088188D01*
X10098263Y-6088188D02*
X10088739Y-6107236D01*
X10088739Y-6107236D02*
X10079215Y-6116760D01*
X10079215Y-6116760D02*
X10060168Y-6126284D01*
X10060168Y-6126284D02*
X10022073Y-6126284D01*
X10022073Y-6126284D02*
X10003025Y-6116760D01*
X10212549Y-6126284D02*
X10193501Y-6116760D01*
X10193501Y-6116760D02*
X10183977Y-6097712D01*
X10183977Y-6097712D02*
X10183977Y-5926284D01*
X10374454Y-6126284D02*
X10374454Y-6021522D01*
X10374454Y-6021522D02*
X10364930Y-6002474D01*
X10364930Y-6002474D02*
X10345882Y-5992950D01*
X10345882Y-5992950D02*
X10307787Y-5992950D01*
X10307787Y-5992950D02*
X10288739Y-6002474D01*
X10374454Y-6116760D02*
X10355406Y-6126284D01*
X10355406Y-6126284D02*
X10307787Y-6126284D01*
X10307787Y-6126284D02*
X10288739Y-6116760D01*
X10288739Y-6116760D02*
X10279215Y-6097712D01*
X10279215Y-6097712D02*
X10279215Y-6078665D01*
X10279215Y-6078665D02*
X10288739Y-6059617D01*
X10288739Y-6059617D02*
X10307787Y-6050093D01*
X10307787Y-6050093D02*
X10355406Y-6050093D01*
X10355406Y-6050093D02*
X10374454Y-6040569D01*
X10441120Y-5992950D02*
X10517311Y-5992950D01*
X10469692Y-5926284D02*
X10469692Y-6097712D01*
X10469692Y-6097712D02*
X10479215Y-6116760D01*
X10479215Y-6116760D02*
X10498263Y-6126284D01*
X10498263Y-6126284D02*
X10517311Y-6126284D01*
X10660168Y-6116760D02*
X10641120Y-6126284D01*
X10641120Y-6126284D02*
X10603025Y-6126284D01*
X10603025Y-6126284D02*
X10583977Y-6116760D01*
X10583977Y-6116760D02*
X10574454Y-6097712D01*
X10574454Y-6097712D02*
X10574454Y-6021522D01*
X10574454Y-6021522D02*
X10583977Y-6002474D01*
X10583977Y-6002474D02*
X10603025Y-5992950D01*
X10603025Y-5992950D02*
X10641120Y-5992950D01*
X10641120Y-5992950D02*
X10660168Y-6002474D01*
X10660168Y-6002474D02*
X10669692Y-6021522D01*
X10669692Y-6021522D02*
X10669692Y-6040569D01*
X10669692Y-6040569D02*
X10574454Y-6059617D01*
X10841120Y-6126284D02*
X10841120Y-5926284D01*
X10841120Y-6116760D02*
X10822073Y-6126284D01*
X10822073Y-6126284D02*
X10783977Y-6126284D01*
X10783977Y-6126284D02*
X10764930Y-6116760D01*
X10764930Y-6116760D02*
X10755406Y-6107236D01*
X10755406Y-6107236D02*
X10745882Y-6088188D01*
X10745882Y-6088188D02*
X10745882Y-6031046D01*
X10745882Y-6031046D02*
X10755406Y-6011998D01*
X10755406Y-6011998D02*
X10764930Y-6002474D01*
X10764930Y-6002474D02*
X10783977Y-5992950D01*
X10783977Y-5992950D02*
X10822073Y-5992950D01*
X10822073Y-5992950D02*
X10841120Y-6002474D01*
X10917311Y-6202474D02*
X10926835Y-6192950D01*
X10926835Y-6192950D02*
X10945882Y-6164379D01*
X10945882Y-6164379D02*
X10955406Y-6145331D01*
X10955406Y-6145331D02*
X10964930Y-6116760D01*
X10964930Y-6116760D02*
X10974454Y-6069141D01*
X10974454Y-6069141D02*
X10974454Y-6031046D01*
X10974454Y-6031046D02*
X10964930Y-5983427D01*
X10964930Y-5983427D02*
X10955406Y-5954855D01*
X10955406Y-5954855D02*
X10945882Y-5935808D01*
X10945882Y-5935808D02*
X10926835Y-5907236D01*
X10926835Y-5907236D02*
X10917311Y-5897712D01*
M02*
