%TF.GenerationSoftware,KiCad,Pcbnew,7.0.9*%
%TF.CreationDate,2023-11-11T09:59:11+01:00*%
%TF.ProjectId,CO2-PwrSupply,434f322d-5077-4725-9375-70706c792e6b,1.0*%
%TF.SameCoordinates,Original*%
%TF.FileFunction,Legend,Bot*%
%TF.FilePolarity,Positive*%
%FSLAX46Y46*%
G04 Gerber Fmt 4.6, Leading zero omitted, Abs format (unit mm)*
G04 Created by KiCad (PCBNEW 7.0.9) date 2023-11-11 09:59:11*
%MOMM*%
%LPD*%
G01*
G04 APERTURE LIST*
%ADD10C,0.200004*%
%ADD11C,0.150000*%
%ADD12C,0.120000*%
G04 APERTURE END LIST*
D10*
X78208056Y-33846833D02*
X78206829Y-33822702D01*
X71886082Y-33832432D02*
X71851772Y-33871326D01*
X65889989Y-34167280D02*
X65893433Y-34143419D01*
X67140477Y-34815084D02*
X67157517Y-34831304D01*
X74540881Y-34630753D02*
X74533672Y-34653741D01*
X70721233Y-34523599D02*
X70734262Y-34519845D01*
X74648303Y-33023556D02*
X74616845Y-33000750D01*
X76874616Y-33638843D02*
X76860800Y-33683086D01*
X67230892Y-34890142D02*
X67250463Y-34903263D01*
X72144063Y-33661723D02*
X72095679Y-33681880D01*
X68115460Y-33835040D02*
X68085146Y-33804770D01*
X73231831Y-35880415D02*
X73272311Y-35889836D01*
X70858206Y-34516735D02*
X70871490Y-34519845D01*
X71068834Y-34859133D02*
X71065132Y-34872346D01*
X77287114Y-34015553D02*
X77280500Y-34003892D01*
X65208660Y-34633391D02*
X65216459Y-34671529D01*
X73354555Y-35905721D02*
X73396319Y-35912184D01*
X72122461Y-34219818D02*
X72127379Y-34207173D01*
X74489819Y-34765369D02*
X74479641Y-34786699D01*
X70802876Y-34511076D02*
X70817003Y-34511438D01*
X74310819Y-35803323D02*
X74347909Y-35787089D01*
X67760991Y-34077400D02*
X67772133Y-34084644D01*
X72649424Y-34371660D02*
X72646357Y-34385131D01*
X67821871Y-34128326D02*
X67830503Y-34138431D01*
X70897277Y-35051125D02*
X70884519Y-35055504D01*
X71489390Y-34789552D02*
X71488701Y-34758086D01*
X74679105Y-33047096D02*
X74648303Y-33023556D01*
X74382041Y-34944491D02*
X74367826Y-34962634D01*
X74683597Y-35586371D02*
X74713663Y-35562443D01*
X73063630Y-33537530D02*
X73081425Y-33523025D01*
X70747546Y-34516735D02*
X70761066Y-34514285D01*
X77857908Y-35870868D02*
X77857908Y-34478488D01*
X72352329Y-34038512D02*
X72366272Y-34037436D01*
X67123990Y-33832806D02*
X67092734Y-33868047D01*
X72095679Y-33681880D02*
X72049232Y-33705577D01*
X77763408Y-33738454D02*
X77769473Y-33750461D01*
X72138945Y-34182831D02*
X72145559Y-34171169D01*
X73020699Y-34063990D02*
X73007099Y-34030964D01*
X72435729Y-34588366D02*
X72422209Y-34590816D01*
X66374114Y-32806333D02*
X66334368Y-32816006D01*
X77453340Y-33601466D02*
X77466624Y-33598356D01*
X73184087Y-32761279D02*
X73144699Y-32772720D01*
X77274435Y-33991885D02*
X77268934Y-33979550D01*
X72990956Y-35036400D02*
X72975476Y-35019739D01*
X77347297Y-34086044D02*
X77337332Y-34077290D01*
X73195827Y-33445261D02*
X73216156Y-33433840D01*
X73914878Y-35912184D02*
X73956507Y-35905721D01*
X67830503Y-34492668D02*
X67821871Y-34502773D01*
X71712899Y-34152150D02*
X71702444Y-34205303D01*
X66422622Y-33450792D02*
X66443899Y-33442554D01*
X65893433Y-34143419D02*
X65897402Y-34119802D01*
X71487550Y-34840967D02*
X71488927Y-34815379D01*
X76849867Y-34013796D02*
X76854966Y-34036674D01*
X74326594Y-33611953D02*
X74341668Y-33629061D01*
X72588782Y-33069123D02*
X72559317Y-33093723D01*
X66005568Y-34820132D02*
X65994934Y-34800996D01*
X72195777Y-34109432D02*
X72205742Y-34100678D01*
X78060747Y-33439743D02*
X78046596Y-33422185D01*
X77147593Y-34454857D02*
X77166591Y-34466982D01*
X70240810Y-35189490D02*
X70265031Y-35222354D01*
X70977533Y-35004423D02*
X70967159Y-35012691D01*
X67983785Y-34905089D02*
X68019216Y-34880939D01*
X67476244Y-34553699D02*
X67465102Y-34546455D01*
X72916198Y-33880163D02*
X72893797Y-33853236D01*
X73191780Y-35870013D02*
X73231831Y-35880415D01*
X72907079Y-33705420D02*
X72924325Y-33682423D01*
X65884681Y-34425875D02*
X65882819Y-34400991D01*
X77857908Y-32760231D02*
X77186000Y-32760231D01*
X72618884Y-33045223D02*
X72588782Y-33069123D01*
X73830291Y-35922138D02*
X73872806Y-35917656D01*
X77536081Y-34149286D02*
X77521954Y-34149648D01*
X65201779Y-34027824D02*
X65195815Y-34066564D01*
X74517650Y-34699194D02*
X74508824Y-34721618D01*
X69130410Y-35870868D02*
X69410566Y-35189490D01*
X74540881Y-33993110D02*
X74547557Y-34016081D01*
X70618255Y-34583434D02*
X70628219Y-34574680D01*
X73062970Y-34240562D02*
X73058117Y-34203897D01*
X77110883Y-34428807D02*
X77129019Y-34442128D01*
X74306606Y-35031715D02*
X74290352Y-35047981D01*
X74203739Y-35122609D02*
X74185348Y-35136202D01*
X74823222Y-33175872D02*
X74795722Y-33148636D01*
X76841923Y-33967221D02*
X76845515Y-33990641D01*
X65901895Y-34545571D02*
X65897402Y-34522258D01*
X65179759Y-34265739D02*
X65179301Y-34306663D01*
X72847284Y-32897474D02*
X72812773Y-32916489D01*
X71022915Y-34622954D02*
X71030572Y-34633872D01*
X70218656Y-34423805D02*
X70207247Y-34443189D01*
X72627918Y-34436262D02*
X72621853Y-34448269D01*
X75279572Y-34489120D02*
X75282879Y-34448443D01*
X70829752Y-35485445D02*
X70988088Y-35870868D01*
X77696611Y-33656301D02*
X77706576Y-33665055D01*
X66134285Y-34992186D02*
X66119589Y-34976567D01*
X77250513Y-33913572D02*
X77248766Y-33899638D01*
X74410770Y-33719587D02*
X74423337Y-33738686D01*
X76932282Y-33514524D02*
X76910465Y-33554453D01*
X66496094Y-35847999D02*
X66537673Y-35854074D01*
X72842555Y-34830434D02*
X72867797Y-34805901D01*
X72132880Y-34436262D02*
X72127379Y-34423927D01*
X72592284Y-34492668D02*
X72583652Y-34502773D01*
X72600438Y-34148952D02*
X72608095Y-34159870D01*
X73035871Y-35818612D02*
X73074203Y-35832927D01*
X65998636Y-35685638D02*
X66033625Y-35703017D01*
X74525928Y-33947762D02*
X74533672Y-33970336D01*
X74455325Y-35734213D02*
X74489849Y-35715193D01*
X67737652Y-34064542D02*
X67749492Y-34070693D01*
X72924325Y-33682423D02*
X72942259Y-33659973D01*
X69739216Y-32730606D02*
X68424614Y-35870868D01*
X70933750Y-35034408D02*
X70921910Y-35040559D01*
X75131600Y-33616890D02*
X75114374Y-33581809D01*
X73906172Y-32718946D02*
X73863982Y-32713460D01*
X77675470Y-34102078D02*
X77664328Y-34109323D01*
X73272311Y-35889836D02*
X73313219Y-35898271D01*
X65629479Y-35422344D02*
X65656647Y-35448107D01*
X71694441Y-34343826D02*
X71696095Y-34371815D01*
X75287131Y-34324437D02*
X75287131Y-34315550D01*
X73081425Y-33523025D02*
X73099586Y-33508963D01*
X72126613Y-34962600D02*
X72151367Y-34972042D01*
X73806665Y-33333950D02*
X73830769Y-33337858D01*
X73878095Y-33347468D02*
X73901316Y-33353167D01*
X67618617Y-34037073D02*
X67632745Y-34037436D01*
X66217866Y-32850534D02*
X66179940Y-32863878D01*
X72615239Y-34459930D02*
X72608095Y-34471229D01*
X72338589Y-34040283D02*
X72352329Y-34038512D01*
X65802319Y-33061032D02*
X65771877Y-33083194D01*
X70531435Y-34747153D02*
X70533851Y-34733442D01*
X73404333Y-35278135D02*
X73381433Y-35271865D01*
X71702614Y-34426847D02*
X71707437Y-34453847D01*
X77247706Y-33885500D02*
X77247348Y-33871173D01*
X71076063Y-34761087D02*
X71077124Y-34775226D01*
X77250513Y-33828774D02*
X77252929Y-33815063D01*
X72238025Y-34553699D02*
X72226883Y-34546455D01*
X67311878Y-35248739D02*
X66795677Y-35248739D01*
X70660502Y-35027701D02*
X70649360Y-35020457D01*
X65887071Y-34191384D02*
X65889989Y-34167280D01*
X67846314Y-34471229D02*
X67838656Y-34482148D01*
X74484473Y-32916854D02*
X74449752Y-32897705D01*
X67063873Y-34725705D02*
X67077997Y-34744633D01*
X66119589Y-34976567D02*
X66105296Y-34960594D01*
X75114374Y-33581809D02*
X75096413Y-33547273D01*
X72380399Y-34594025D02*
X72366272Y-34593663D01*
X72107211Y-34287085D02*
X72108958Y-34273151D01*
X72974138Y-34665360D02*
X72991072Y-34634038D01*
X77550024Y-33594135D02*
X77563764Y-33595906D01*
X66531693Y-33414836D02*
X66554318Y-33409221D01*
X72745626Y-32956610D02*
X72712994Y-32977716D01*
X72366272Y-34593663D02*
X72352329Y-34592587D01*
X78000926Y-34369889D02*
X78031900Y-34337237D01*
X66180738Y-33598937D02*
X66197003Y-33584980D01*
X72654647Y-34301223D02*
X72655005Y-34315550D01*
X66284181Y-33521583D02*
X66302788Y-33510184D01*
X73481127Y-35922138D02*
X73524171Y-35925627D01*
X67838656Y-34482148D02*
X67830503Y-34492668D01*
X72398921Y-33252848D02*
X72375064Y-33280989D01*
X74743096Y-35537809D02*
X74771897Y-35512470D01*
X74030147Y-32741369D02*
X73989253Y-32732902D01*
X74583606Y-34391031D02*
X74581737Y-34415821D01*
X73655855Y-33323108D02*
X73681726Y-33323410D01*
X66622213Y-35863411D02*
X66665175Y-35866675D01*
X74311182Y-33595241D02*
X74326594Y-33611953D01*
X69410566Y-35189490D02*
X70240810Y-35189490D01*
X70844686Y-34514285D02*
X70858206Y-34516735D01*
X65195815Y-34556060D02*
X65201779Y-34594901D01*
X73051412Y-34167855D02*
X73042907Y-34132488D01*
X72991904Y-33998823D02*
X72975165Y-33967620D01*
X73863982Y-32713460D02*
X73821358Y-32708970D01*
X68424614Y-35870868D02*
X69130410Y-35870868D01*
X67365598Y-34207173D02*
X67371099Y-34194838D01*
X66028059Y-33779372D02*
X66039916Y-33761023D01*
X72205742Y-34100678D02*
X72216116Y-34092410D01*
X67576808Y-34040283D02*
X67590548Y-34038512D01*
X72004886Y-33732648D02*
X71962803Y-33762925D01*
X77247348Y-33871173D02*
X77247706Y-33856846D01*
X67390922Y-34471229D02*
X67383778Y-34459930D01*
X75148092Y-33652515D02*
X75131600Y-33616890D01*
X66796846Y-32760232D02*
X66752492Y-32760693D01*
X65201779Y-34594901D02*
X65208660Y-34633391D01*
X70844686Y-35064818D02*
X70830946Y-35066589D01*
X76841923Y-33775125D02*
X76837078Y-33822702D01*
X71074316Y-34747153D02*
X71076063Y-34761087D01*
X72238025Y-34077400D02*
X72249524Y-34070693D01*
X65893433Y-34498633D02*
X65889989Y-34474695D01*
X77427552Y-34132746D02*
X77415083Y-34127758D01*
X67270495Y-33715380D02*
X67230892Y-33740956D01*
X72654647Y-34329876D02*
X72653587Y-34344015D01*
X74652896Y-35609596D02*
X74683597Y-35586371D01*
X73937773Y-35263747D02*
X73915119Y-35270831D01*
X70533851Y-34733442D02*
X70536918Y-34719971D01*
X78060747Y-34302603D02*
X78087358Y-34266095D01*
X77402920Y-33620165D02*
X77415083Y-33614587D01*
X70956392Y-35020457D02*
X70945250Y-35027701D01*
X66052180Y-34893176D02*
X66039916Y-34875441D01*
X73690875Y-32701480D02*
X73646507Y-32700980D01*
X74266495Y-32812975D02*
X74228172Y-32798569D01*
X70649360Y-34558647D02*
X70660502Y-34551402D01*
X75275320Y-34529465D02*
X75279572Y-34489120D01*
X67157517Y-34831304D02*
X67175093Y-34846935D01*
X73032652Y-34097849D02*
X73020699Y-34063990D01*
X72937261Y-33908237D02*
X72916198Y-33880163D01*
X65771877Y-33083194D02*
X65742088Y-33106063D01*
X71079200Y-34151900D02*
X71052069Y-34140482D01*
X66197003Y-33584980D02*
X66213658Y-33571449D01*
X73743945Y-35928121D02*
X73787337Y-35925627D01*
X66105541Y-35735643D02*
X66142466Y-35750887D01*
X74517650Y-33925387D02*
X74525928Y-33947762D01*
X73872806Y-35917656D02*
X73914878Y-35912184D01*
X67433996Y-34109432D02*
X67443961Y-34100678D01*
X65577210Y-35368949D02*
X65602964Y-35395942D01*
X67853458Y-34171169D02*
X67860071Y-34182831D01*
X73074203Y-35832927D02*
X73112965Y-35846267D01*
X66577215Y-33404135D02*
X66600385Y-33399578D01*
X77769473Y-33750461D02*
X77774974Y-33762796D01*
X72991544Y-32828369D02*
X72954550Y-32844602D01*
X70638594Y-35012691D02*
X70628219Y-35004423D01*
X73046199Y-33552476D02*
X73063630Y-33537530D01*
X73868920Y-35283139D02*
X73845377Y-35288364D01*
X72651840Y-34273151D02*
X72653587Y-34287085D01*
X72449013Y-34585256D02*
X72435729Y-34588366D01*
X75270123Y-34569477D02*
X75275320Y-34529465D01*
X66069261Y-32909094D02*
X66033626Y-32925624D01*
X67499584Y-34566557D02*
X67487743Y-34560406D01*
X73797409Y-35296961D02*
X73772985Y-35300335D01*
X77696611Y-34086044D02*
X77686236Y-34094312D01*
X72138945Y-34448269D02*
X72132880Y-34436262D01*
X72654388Y-35607731D02*
X72685813Y-35630590D01*
X71381301Y-35165198D02*
X71393780Y-35144631D01*
X67123990Y-34798291D02*
X67140477Y-34815084D01*
X67983785Y-35870868D02*
X67983785Y-34905089D01*
X76910465Y-34187893D02*
X76921060Y-34208058D01*
X70159574Y-34545803D02*
X70152004Y-34567363D01*
X65965487Y-33897339D02*
X65974893Y-33876751D01*
X74295398Y-33578987D02*
X74311182Y-33595241D01*
X67737652Y-34566557D02*
X67725488Y-34572135D01*
X74189423Y-32785150D02*
X74150246Y-32772720D01*
X70817003Y-35067665D02*
X70802876Y-35068027D01*
X72273966Y-35199193D02*
X72294147Y-35229633D01*
X66256245Y-32838106D02*
X66217866Y-32850534D01*
X73007099Y-34030964D02*
X72991904Y-33998823D01*
X75269769Y-34070571D02*
X75263503Y-34030901D01*
X65897555Y-32998775D02*
X65865159Y-33018822D01*
X74572925Y-34133853D02*
X74576396Y-34157981D01*
X70802875Y-35485741D02*
X70816314Y-35485704D01*
X71822716Y-34721562D02*
X71838302Y-34742682D01*
X72226883Y-34084644D02*
X72238025Y-34077400D01*
X72111374Y-34259440D02*
X72114441Y-34245969D01*
X73042907Y-34132488D02*
X73032652Y-34097849D01*
X70734262Y-34519845D02*
X70747546Y-34516735D01*
X70945250Y-35027701D02*
X70933750Y-35034408D01*
X70649360Y-35020457D02*
X70638594Y-35012691D01*
X70176718Y-34503677D02*
X70167816Y-34524569D01*
X66953411Y-34488286D02*
X66959769Y-34511797D01*
X67433996Y-34521667D02*
X67424459Y-34512446D01*
X71485273Y-34866301D02*
X71487550Y-34840967D01*
X74108225Y-35186181D02*
X74088054Y-35197583D01*
X75207289Y-34840134D02*
X75219100Y-34802488D01*
X72216116Y-34538689D02*
X72205742Y-34530421D01*
X67890058Y-34357949D02*
X67887642Y-34371660D01*
X74954159Y-35317027D02*
X74977228Y-35286723D01*
X65398605Y-35131691D02*
X65418260Y-35163425D01*
X68292024Y-34179382D02*
X68287385Y-34157492D01*
X74581737Y-34415821D02*
X74579333Y-34440426D01*
X72653587Y-34287085D02*
X72654647Y-34301223D01*
X70549856Y-34681175D02*
X70555357Y-34668840D01*
X66091409Y-33691453D02*
X66105296Y-33675029D01*
X77415083Y-34127758D02*
X77402920Y-34122180D01*
X66105296Y-33675029D02*
X66119589Y-33658995D01*
X75263981Y-34609155D02*
X75270123Y-34569477D01*
X67884575Y-34245969D02*
X67887642Y-34259440D01*
X65998637Y-32942857D02*
X65964295Y-32960793D01*
X73110405Y-35140313D02*
X73092156Y-35126836D01*
X75239887Y-34726172D02*
X75248863Y-34687504D01*
X67371099Y-34436262D02*
X67365598Y-34423927D01*
X70568036Y-34645171D02*
X70575180Y-34633872D01*
X72394526Y-34593663D02*
X72380399Y-34594025D01*
X68269495Y-34093440D02*
X68262245Y-34072668D01*
X72325069Y-34588366D02*
X72311785Y-34585256D01*
X67880874Y-34398344D02*
X67876555Y-34411282D01*
X72583652Y-34128326D02*
X72592284Y-34138431D01*
X73314173Y-35249473D02*
X73292232Y-35240815D01*
X65311802Y-34964097D02*
X65327631Y-34998808D01*
X67700261Y-34581502D02*
X67687231Y-34585256D01*
X72453963Y-35428763D02*
X72479433Y-35455228D01*
X78152701Y-34146417D02*
X78169291Y-34103503D01*
X77186000Y-32760231D02*
X77186000Y-33263858D01*
X71871733Y-34783014D02*
X71889534Y-34802183D01*
X70599623Y-34976775D02*
X70590991Y-34966670D01*
X74447219Y-33777875D02*
X74458534Y-33797963D01*
X66554318Y-35223107D02*
X66531693Y-35217689D01*
X73734806Y-32702979D02*
X73690875Y-32701480D01*
X77379580Y-33633023D02*
X77391080Y-33626316D01*
X72246823Y-33461404D02*
X72227929Y-33493406D01*
X70708475Y-34527978D02*
X70721233Y-34523599D01*
X77521954Y-34149648D02*
X77507826Y-34149286D01*
X72205742Y-34530421D02*
X72195777Y-34521667D01*
X65256828Y-34820603D02*
X65269214Y-34857007D01*
X67344370Y-34329876D02*
X67344013Y-34315550D01*
X74533672Y-34653741D02*
X74525928Y-34676555D01*
X70921910Y-35040559D02*
X70909747Y-35046137D01*
X71022915Y-34956149D02*
X71014761Y-34966670D01*
X75180833Y-34914395D02*
X75194533Y-34877437D01*
X72105793Y-34315550D02*
X72106151Y-34301223D01*
X68236799Y-34012252D02*
X68216871Y-33973676D01*
X68262245Y-34072668D02*
X68254371Y-34052205D01*
X71482114Y-34891365D02*
X71485273Y-34866301D01*
X75058281Y-33479844D02*
X75038110Y-33446953D01*
X67673948Y-34588366D02*
X67660427Y-34590816D01*
X74262709Y-33547857D02*
X74279241Y-33563192D01*
X78016672Y-33388528D02*
X78000926Y-33372457D01*
X72108958Y-34357949D02*
X72107211Y-34344015D01*
X77563764Y-33595906D02*
X77577284Y-33598356D01*
X73029135Y-33567865D02*
X73046199Y-33552476D01*
X70555709Y-35439264D02*
X70594609Y-35453131D01*
X74621560Y-35632118D02*
X74652896Y-35609596D01*
X73074302Y-35112902D02*
X73056842Y-35098511D01*
X66537673Y-35854074D02*
X66579712Y-35859211D01*
X72209743Y-33525961D02*
X72192264Y-33559070D01*
X70529688Y-34761087D02*
X70531435Y-34747153D01*
X73042650Y-34499758D02*
X73051248Y-34464198D01*
X66360949Y-35155652D02*
X66341172Y-35145746D01*
X65216459Y-34671529D02*
X65225175Y-34709318D01*
X66005568Y-33817204D02*
X66016609Y-33798100D01*
X68303645Y-34269319D02*
X68301803Y-34246502D01*
X75286658Y-34366100D02*
X75287131Y-34324437D01*
X78206829Y-33919644D02*
X78208468Y-33871173D01*
X70759654Y-35484384D02*
X70802875Y-35485741D01*
X65833413Y-33039574D02*
X65802319Y-33061032D01*
X70672002Y-35034408D02*
X70660502Y-35027701D01*
X67803239Y-34521667D02*
X67793274Y-34530421D01*
X74273741Y-35063799D02*
X74256775Y-35079169D01*
X74572925Y-34489089D02*
X74568919Y-34513148D01*
X72261365Y-34064542D02*
X72273528Y-34058964D01*
X70346563Y-34269632D02*
X70346564Y-34269632D01*
X74905772Y-35375859D02*
X74930340Y-35346739D01*
X78183108Y-33683086D02*
X78176553Y-33660805D01*
X66028059Y-34857355D02*
X66016609Y-34838919D01*
X73748270Y-35303093D02*
X73723264Y-35305237D01*
X73558442Y-32702979D02*
X73515076Y-32705476D01*
X77774974Y-33979550D02*
X77769473Y-33991885D01*
X77268934Y-33762796D02*
X77274435Y-33750461D01*
X78133443Y-33554453D02*
X78122848Y-33534288D01*
X70933750Y-34544695D02*
X70945250Y-34551402D01*
X76956550Y-33476251D02*
X76932282Y-33514524D01*
X74800066Y-35486424D02*
X74827605Y-35459671D01*
X73207545Y-35200807D02*
X73187332Y-35189630D01*
X72750612Y-35674111D02*
X72783988Y-35694772D01*
X78087358Y-33476251D02*
X78074339Y-33457770D01*
X74489971Y-33860201D02*
X74499615Y-33881602D01*
X73228149Y-35211521D02*
X73207545Y-35200807D01*
X65552218Y-33285521D02*
X65527986Y-33313643D01*
X73821358Y-32708970D02*
X73778300Y-32705476D01*
X73646507Y-35307991D02*
X73621211Y-35307692D01*
X73249144Y-35221772D02*
X73228149Y-35211521D01*
X71854649Y-34763173D02*
X71871733Y-34783014D01*
X66671542Y-35242367D02*
X66647548Y-35239553D01*
X66077927Y-34927590D02*
X66064850Y-34910559D01*
X67415365Y-34502773D02*
X67406733Y-34492668D01*
X72298755Y-34581502D02*
X72285997Y-34577123D01*
X72918175Y-32861531D02*
X72882419Y-32879154D01*
X75666904Y-35248741D02*
X75666904Y-35870868D01*
X68194681Y-33936572D02*
X68170320Y-33901035D01*
X65245360Y-33839651D02*
X65234809Y-33876546D01*
X74579333Y-34440426D02*
X74576396Y-34464849D01*
X66932554Y-34340991D02*
X66933894Y-34366204D01*
X71077124Y-34803878D02*
X71076063Y-34818017D01*
X70747546Y-35062368D02*
X70734262Y-35059257D01*
X75205710Y-33799802D02*
X75192716Y-33762435D01*
X65438679Y-35194564D02*
X65459862Y-35225110D01*
X65771876Y-35544251D02*
X65802318Y-35566551D01*
X72544682Y-34538689D02*
X72533915Y-34546455D01*
X71077124Y-34775226D02*
X71077482Y-34789552D01*
X73118110Y-33495342D02*
X73136997Y-33482161D01*
X72924023Y-35770079D02*
X72960668Y-35787069D01*
X66992878Y-34028801D02*
X66974820Y-34073311D01*
X74977228Y-35286723D02*
X74999544Y-35255826D01*
X73854579Y-33342364D02*
X73878095Y-33347468D01*
X66230704Y-35076934D02*
X66213658Y-35063911D01*
X66374113Y-35824131D02*
X66414315Y-35833029D01*
X77186000Y-33263858D02*
X77147593Y-33287489D01*
X66064850Y-34910559D02*
X66052180Y-34893176D01*
X71037716Y-34645171D02*
X71044330Y-34656833D01*
X72565021Y-34109432D02*
X72574559Y-34118654D01*
X72160360Y-34482148D02*
X72152703Y-34471229D01*
X70938133Y-34106693D02*
X70362046Y-32730606D01*
X75192716Y-33762435D02*
X75178763Y-33725396D01*
X70568036Y-34933932D02*
X70561422Y-34922270D01*
X70987498Y-34583434D02*
X70997035Y-34592656D01*
X71488701Y-34758086D02*
X71486653Y-34726976D01*
X71457049Y-34577808D02*
X71447460Y-34549459D01*
X70590991Y-34612433D02*
X70599623Y-34602328D01*
X74950027Y-33320909D02*
X74926154Y-33290785D01*
X75219100Y-34802488D02*
X75229966Y-34764501D01*
X74973159Y-33351590D02*
X74950027Y-33320909D01*
X72106151Y-34301223D02*
X72107211Y-34287085D01*
X72533915Y-34084644D02*
X72544682Y-34092410D01*
X72555056Y-34530421D02*
X72544682Y-34538689D01*
X73257891Y-33412314D02*
X73279294Y-33402207D01*
X72227929Y-33493406D02*
X72209743Y-33525961D01*
X74499547Y-34743676D02*
X74489819Y-34765369D01*
X65183429Y-34184977D02*
X65181136Y-34225176D01*
X70660502Y-34551402D02*
X70672002Y-34544695D01*
X77059234Y-34385437D02*
X77075976Y-34400448D01*
X66443899Y-35190740D02*
X66422622Y-35182675D01*
X66932103Y-34315549D02*
X66932554Y-34340991D01*
X65225175Y-34709318D02*
X65234809Y-34746759D01*
X78194041Y-34013796D02*
X78201984Y-33967221D01*
X71044330Y-34922270D02*
X71037716Y-34933932D01*
X74850072Y-33203759D02*
X74823222Y-33175872D01*
X67050378Y-34706283D02*
X67063873Y-34725705D01*
X72394526Y-34037436D02*
X72408469Y-34038512D01*
X70628219Y-34574680D02*
X70638594Y-34566412D01*
X66033626Y-32925624D02*
X65998637Y-32942857D01*
X71889534Y-34802183D02*
X71908032Y-34820659D01*
X67876555Y-34219818D02*
X67880874Y-34232756D01*
X77877316Y-33275364D02*
X77857908Y-33263858D01*
X71713272Y-34480474D02*
X71720101Y-34506708D01*
X77075976Y-33341898D02*
X77042982Y-33372457D01*
X75194533Y-34877437D02*
X75207289Y-34840134D01*
X66992878Y-34602297D02*
X67002997Y-34623958D01*
X67344013Y-34315550D02*
X67344370Y-34301223D01*
X72127379Y-34207173D02*
X72132880Y-34194838D01*
X70683842Y-35040559D02*
X70672002Y-35034408D01*
X65629480Y-33204609D02*
X65602965Y-33231004D01*
X72168514Y-34138431D02*
X72177146Y-34128326D01*
X72122461Y-34411282D02*
X72118143Y-34398344D01*
X75248863Y-34687504D02*
X75256895Y-34648498D01*
X66334367Y-35814290D02*
X66374113Y-35824131D01*
X73522425Y-35300527D02*
X73498327Y-35297243D01*
X67454335Y-34538689D02*
X67443961Y-34530421D01*
X65256828Y-33803127D02*
X65245360Y-33839651D01*
X77012008Y-33405109D02*
X76983161Y-33439743D01*
X71071901Y-34845662D02*
X71068834Y-34859133D01*
X66341172Y-33488671D02*
X66360949Y-33478557D01*
X65901895Y-34096427D02*
X65906910Y-34073295D01*
X67803239Y-34109432D02*
X67812777Y-34118654D01*
X72685813Y-35630590D02*
X72717887Y-35652716D01*
X74025404Y-35229188D02*
X74003946Y-35238763D01*
X76854966Y-34036674D02*
X76860800Y-34059260D01*
X70594609Y-35453131D02*
X70634533Y-35464657D01*
X71077482Y-34789552D02*
X71077124Y-34803878D01*
X67063873Y-33905392D02*
X67037527Y-33944716D01*
X72871746Y-34880926D02*
X72856810Y-34855944D01*
X66256244Y-35791772D02*
X66295078Y-35803504D01*
X70871490Y-35059257D02*
X70858206Y-35062368D01*
X77749650Y-33715493D02*
X77756794Y-33726792D01*
X77186000Y-35248741D02*
X75666904Y-35248741D01*
X68245885Y-34032062D02*
X68236799Y-34012252D01*
X66600385Y-33399578D02*
X66623829Y-33395553D01*
X73058024Y-34427946D02*
X73062928Y-34391053D01*
X72920607Y-34952708D02*
X72903648Y-34929308D01*
X72555056Y-34100678D02*
X72565021Y-34109432D01*
X73821540Y-35292971D02*
X73797409Y-35296961D01*
X71411883Y-34467915D02*
X71397851Y-34442000D01*
X72408469Y-34038512D02*
X72422209Y-34040283D01*
X73412999Y-33354007D02*
X73436163Y-33348136D01*
X65880422Y-34324437D02*
X65880422Y-34315550D01*
X67793274Y-34530421D02*
X67782900Y-34538689D01*
X70207247Y-34443189D02*
X70196446Y-34462973D01*
X68053034Y-34854654D02*
X68085146Y-34826329D01*
X71851772Y-33871326D02*
X71820378Y-33912759D01*
X74147498Y-35162068D02*
X74128039Y-35174343D01*
X77294258Y-34026852D02*
X77287114Y-34015553D01*
X73345012Y-33375326D02*
X73367423Y-33367602D01*
X77652828Y-33626316D02*
X77664328Y-33633023D01*
X72462043Y-34049597D02*
X72474801Y-34053976D01*
X74576396Y-34157981D02*
X74579333Y-34182298D01*
X77357671Y-34094312D02*
X77347297Y-34086044D01*
X65361588Y-35066440D02*
X65379714Y-35099363D01*
X74228513Y-33518567D02*
X74245800Y-33532981D01*
X71488927Y-34815379D02*
X71489390Y-34789552D01*
X66039916Y-33761023D02*
X66052180Y-33743054D01*
X72049232Y-33705577D02*
X72004886Y-33732648D01*
X75286648Y-34273889D02*
X75285200Y-34232562D01*
X65882819Y-34240321D02*
X65884681Y-34215731D01*
X75256274Y-33991562D02*
X75248084Y-33952552D01*
X77716113Y-33674277D02*
X77725207Y-33683949D01*
X70540620Y-34706758D02*
X70544938Y-34693820D01*
X70977533Y-34574680D02*
X70987498Y-34583434D01*
X66265965Y-35101651D02*
X66248139Y-35089514D01*
X74347909Y-35787089D02*
X74384356Y-35770160D01*
X72565021Y-34521667D02*
X72555056Y-34530421D01*
X66939184Y-34415881D02*
X66943102Y-34440313D01*
X70628219Y-35004423D02*
X70618255Y-34995669D01*
X73655855Y-35930118D02*
X73700117Y-35929619D01*
X73066913Y-34315550D02*
X73065919Y-34277797D01*
X66164864Y-33613319D02*
X66180738Y-33598937D01*
X70599623Y-34602328D02*
X70608717Y-34592656D01*
X75077716Y-33513285D02*
X75058281Y-33479844D01*
X70816314Y-35485704D02*
X70823006Y-35485616D01*
X70721233Y-35055504D02*
X70708475Y-35051125D01*
X76874616Y-34103503D02*
X76882572Y-34125133D01*
X70256401Y-34368184D02*
X70243246Y-34386287D01*
X70956392Y-34558647D02*
X70967159Y-34566412D01*
X73787337Y-35925627D02*
X73830291Y-35922138D01*
X72118143Y-34398344D02*
X72114441Y-34385131D01*
X73065919Y-34277797D02*
X73062970Y-34240562D01*
X72680992Y-32999520D02*
X72649621Y-33022022D01*
X67499584Y-34064542D02*
X67511747Y-34058964D01*
X67887642Y-34259440D02*
X67890058Y-34273151D01*
X78204801Y-33798795D02*
X78201984Y-33775125D01*
X71052069Y-34140482D02*
X71024368Y-34130222D01*
X67390922Y-34159870D02*
X67398579Y-34148952D01*
X74523734Y-35695474D02*
X74556980Y-35675056D01*
X66622214Y-32767615D02*
X66579714Y-32771766D01*
X72381504Y-35346402D02*
X72404998Y-35374351D01*
X67713019Y-34577123D02*
X67700261Y-34581502D01*
X72649424Y-34259440D02*
X72651840Y-34273151D01*
X72487270Y-34572135D02*
X72474801Y-34577123D01*
X65897402Y-34522258D02*
X65893433Y-34498633D01*
X67025337Y-34666016D02*
X67037527Y-34686381D01*
X77616355Y-33609599D02*
X77628825Y-33614587D01*
X77507826Y-33593059D02*
X77521954Y-33592697D01*
X67398579Y-34148952D02*
X67406733Y-34138431D01*
X77741993Y-33704575D02*
X77749650Y-33715493D01*
X70379409Y-35337621D02*
X70411975Y-35361990D01*
X77415083Y-33614587D02*
X77427552Y-33609599D01*
X66943102Y-34440313D02*
X66947850Y-34464453D01*
X73498327Y-35297243D02*
X73474469Y-35293361D01*
X66579712Y-35859211D02*
X66622213Y-35863411D01*
X74370562Y-33664276D02*
X74384382Y-33682382D01*
X67424459Y-34512446D02*
X67415365Y-34502773D01*
X65327632Y-33626387D02*
X65311802Y-33660805D01*
X73947929Y-32725427D02*
X73906172Y-32718946D01*
X74446405Y-34848531D02*
X74434429Y-34868428D01*
X68305132Y-34315550D02*
X68304758Y-34292339D01*
X72183053Y-35039464D02*
X72199900Y-35072416D01*
X78031900Y-34337237D02*
X78060747Y-34302603D01*
X72358672Y-35317956D02*
X72381504Y-35346402D01*
X67687231Y-34045843D02*
X67700261Y-34049597D01*
X77327794Y-33674277D02*
X77337332Y-33665055D01*
X66381116Y-35165110D02*
X66360949Y-35155652D01*
X72499433Y-34566557D02*
X72487270Y-34572135D01*
X72152703Y-34159870D02*
X72160360Y-34148952D01*
X71014761Y-34966670D02*
X71006129Y-34976775D01*
X73144699Y-32772720D02*
X73105752Y-32785150D01*
X72254450Y-35168252D02*
X72273966Y-35199193D01*
X72559317Y-33093723D02*
X72530490Y-33119023D01*
X65527985Y-35313190D02*
X65552217Y-35341365D01*
X71693885Y-34315550D02*
X71694441Y-34343826D01*
X74174365Y-33478089D02*
X74192797Y-33491120D01*
X72151367Y-34972042D02*
X72166875Y-35006006D01*
D11*
X59914000Y-39243000D02*
X78354400Y-39243000D01*
X78354400Y-44069000D01*
X59914000Y-44069000D01*
X59914000Y-39243000D01*
D10*
X65225175Y-33913812D02*
X65216459Y-33951447D01*
X73772985Y-35300335D02*
X73748270Y-35303093D01*
X71065132Y-34872346D02*
X71060814Y-34885284D01*
X71792066Y-33956563D02*
X71766999Y-34002571D01*
X70608717Y-34592656D02*
X70618255Y-34583434D01*
X66665177Y-32764385D02*
X66622214Y-32767615D01*
X70717136Y-35480363D02*
X70759654Y-35484384D01*
X71006129Y-34602328D02*
X71014761Y-34612433D01*
X70531435Y-34831951D02*
X70529688Y-34818017D01*
X72646357Y-34245969D02*
X72649424Y-34259440D01*
X77027236Y-34353818D02*
X77042982Y-34369889D01*
X70788748Y-34511438D02*
X70802876Y-34511076D01*
X72462043Y-34581502D02*
X72449013Y-34585256D01*
X65947904Y-34700083D02*
X65939780Y-34678933D01*
X70186265Y-34483140D02*
X70176718Y-34503677D01*
X77280500Y-34003892D02*
X77274435Y-33991885D01*
X66414315Y-35833029D02*
X66454975Y-35840984D01*
X71014761Y-34612433D02*
X71022915Y-34622954D01*
X66230704Y-33558343D02*
X66248139Y-33545663D01*
X65742087Y-35521255D02*
X65771876Y-35544251D01*
X71780723Y-34654642D02*
X71793905Y-34677521D01*
X72954550Y-32844602D02*
X72918175Y-32861531D01*
X73723264Y-35305237D02*
X73697967Y-35306767D01*
X72127379Y-34423927D02*
X72122461Y-34411282D01*
X77616355Y-34132746D02*
X77603597Y-34137125D01*
X67487743Y-34070693D02*
X67499584Y-34064542D01*
X73067243Y-32798569D02*
X73029174Y-32812975D01*
X78201984Y-33775125D02*
X78198393Y-33751705D01*
X78169291Y-34103503D02*
X78183108Y-34059260D01*
X72891784Y-34780108D02*
X72914462Y-34753105D01*
X77733839Y-34048291D02*
X77725207Y-34058396D01*
X72642655Y-34232756D02*
X72646357Y-34245969D01*
X65190769Y-34516866D02*
X65195815Y-34556060D01*
X65179759Y-34356530D02*
X65181136Y-34397150D01*
X65925079Y-34635714D02*
X65918504Y-34613642D01*
X73175856Y-33457121D02*
X73195827Y-33445261D01*
X65179301Y-34315550D02*
X65179759Y-34356530D01*
X77093197Y-34414910D02*
X77110883Y-34428807D01*
X72544682Y-34092410D02*
X72555056Y-34100678D01*
X66179940Y-32863878D02*
X66142467Y-32878140D01*
X66579714Y-32771766D02*
X66537675Y-32776839D01*
X72621853Y-34448269D02*
X72615239Y-34459930D01*
X70672002Y-34544695D02*
X70683842Y-34538544D01*
X74290352Y-35047981D02*
X74273741Y-35063799D01*
X77933025Y-33313539D02*
X77914888Y-33300218D01*
X74589588Y-35653938D02*
X74621560Y-35632118D01*
X70734262Y-35059257D02*
X70721233Y-35055504D01*
X77756794Y-33726792D02*
X77763408Y-33738454D01*
X66745186Y-35247723D02*
X66720360Y-35246451D01*
X67838656Y-34148952D02*
X67846314Y-34159870D01*
X74003946Y-35238763D02*
X73982188Y-35247714D01*
X74128039Y-35174343D02*
X74108225Y-35186181D01*
X74469012Y-34807669D02*
X74457933Y-34828279D01*
X65984709Y-33856532D02*
X65994934Y-33836682D01*
X67793274Y-34100678D02*
X67803239Y-34109432D01*
X70299153Y-34316664D02*
X70284367Y-34333358D01*
X74414382Y-32879283D02*
X74378365Y-32861588D01*
X77763408Y-34003892D02*
X77756794Y-34015553D01*
X67383778Y-34171169D02*
X67390922Y-34159870D01*
X72996110Y-33599973D02*
X73012438Y-33583697D01*
X75041912Y-35192252D02*
X75061959Y-35159575D01*
X70997035Y-34986447D02*
X70987498Y-34995669D01*
X74384356Y-35770160D02*
X74420161Y-35752535D01*
X74584732Y-32978679D02*
X74551964Y-32957340D01*
X74136344Y-33453414D02*
X74155548Y-33465520D01*
X68301803Y-34246502D02*
X68299244Y-34223898D01*
X73099586Y-33508963D02*
X73118110Y-33495342D01*
X72633419Y-34207173D02*
X72638337Y-34219818D01*
X71967486Y-34871715D02*
X71988555Y-34887205D01*
X77480144Y-33595906D02*
X77493884Y-33594135D01*
X77264016Y-33775441D02*
X77268934Y-33762796D01*
X77268934Y-33979550D02*
X77264016Y-33966905D01*
X72712994Y-32977716D02*
X72680992Y-32999520D01*
X67077997Y-34744633D02*
X67092734Y-34763050D01*
X67511747Y-34572135D02*
X67499584Y-34566557D01*
X77440311Y-34137125D02*
X77427552Y-34132746D01*
X71696095Y-34371815D02*
X71698827Y-34399496D01*
X78206829Y-33822702D02*
X78204801Y-33798795D01*
X77466624Y-33598356D02*
X77480144Y-33595906D01*
X70196446Y-34462973D02*
X70186265Y-34483140D01*
X70481309Y-35404828D02*
X70517916Y-35423136D01*
X72956524Y-34997923D02*
X72938233Y-34975579D01*
X72192264Y-33559070D02*
X72175491Y-33592733D01*
X67576808Y-34590816D02*
X67563287Y-34588366D01*
X66401674Y-33459617D02*
X66422622Y-33450792D01*
X73390085Y-33360495D02*
X73412999Y-33354007D01*
X65179301Y-34306663D02*
X65179301Y-34315550D01*
X77337332Y-34077290D02*
X77327794Y-34068069D01*
X66708602Y-32762078D02*
X66665177Y-32764385D01*
X77984674Y-33356909D02*
X77967931Y-33341898D01*
X75229966Y-34764501D02*
X75239887Y-34726172D01*
X70708475Y-35051125D02*
X70696005Y-35046137D01*
X66091409Y-34944269D02*
X66077927Y-34927590D01*
X67887642Y-34371660D02*
X67884575Y-34385131D01*
X70318882Y-35283386D02*
X70348352Y-35311393D01*
X72955691Y-34695680D02*
X72974138Y-34665360D01*
X76835851Y-33895513D02*
X76837078Y-33919644D01*
X68282076Y-34135864D02*
X68276109Y-34114510D01*
X66119589Y-33658995D02*
X66134285Y-33643356D01*
X77795142Y-33842708D02*
X77796202Y-33856846D01*
X74559306Y-34062610D02*
X74564380Y-34086166D01*
X66933894Y-34264893D02*
X66932103Y-34315549D01*
X71060814Y-34693820D02*
X71065132Y-34706758D01*
X66577215Y-35228000D02*
X66554318Y-35223107D01*
X65947904Y-33939607D02*
X65956490Y-33918291D01*
X66052180Y-33743054D02*
X66064850Y-33725468D01*
X74508841Y-33903331D02*
X74517650Y-33925387D01*
X65234809Y-34746759D02*
X65245360Y-34783854D01*
X65344227Y-33592540D02*
X65327632Y-33626387D01*
X72168514Y-34492668D02*
X72160360Y-34482148D01*
X67866137Y-34436262D02*
X67860071Y-34448269D01*
X72108958Y-34273151D02*
X72111374Y-34259440D01*
X67550004Y-34585256D02*
X67536974Y-34581502D01*
X72818016Y-35714700D02*
X72852698Y-35733894D01*
X67344370Y-34301223D02*
X67345431Y-34287085D01*
X66531693Y-35217689D02*
X66509340Y-35211745D01*
X77769473Y-33991885D02*
X77763408Y-34003892D01*
X72646357Y-34385131D02*
X72642655Y-34398344D01*
X65906910Y-34073295D02*
X65912447Y-34050406D01*
X71427029Y-35080215D02*
X71436662Y-35057893D01*
X75017199Y-33414613D02*
X74995549Y-33382825D01*
X76944116Y-34247172D02*
X76956550Y-34266095D01*
X67760991Y-34553699D02*
X67749492Y-34560406D01*
X72422209Y-34040283D02*
X72435729Y-34042733D01*
X67563287Y-34588366D02*
X67550004Y-34585256D01*
X72177146Y-34128326D02*
X72186239Y-34118654D01*
X65802318Y-35566551D02*
X65833413Y-35588154D01*
X74435487Y-33758116D02*
X74447219Y-33777875D01*
X74210846Y-33504613D02*
X74228513Y-33518567D01*
X65684473Y-33153921D02*
X65656648Y-33178911D01*
X70884519Y-35055504D02*
X70871490Y-35059257D01*
X67193192Y-34861962D02*
X67211796Y-34876370D01*
X72593484Y-35559819D02*
X72623612Y-35584140D01*
X66179939Y-35765465D02*
X66217865Y-35779093D01*
X67604490Y-34593663D02*
X67590548Y-34592587D01*
X74192797Y-33491120D02*
X74210846Y-33504613D01*
X74479910Y-33839127D02*
X74489971Y-33860201D01*
X72285997Y-34577123D02*
X72273528Y-34572135D01*
X78176553Y-33660805D02*
X78169291Y-33638843D01*
X66770292Y-35248486D02*
X66745186Y-35247723D01*
X78152701Y-33595929D02*
X78143398Y-33575004D01*
X71927203Y-34838421D02*
X71947029Y-34855446D01*
X66197003Y-35050446D02*
X66180738Y-35036540D01*
X73012438Y-33583697D02*
X73029135Y-33567865D01*
X67347178Y-34273151D02*
X67349593Y-34259440D01*
X71055896Y-34681175D02*
X71060814Y-34693820D01*
X74304393Y-32828369D02*
X74266495Y-32812975D01*
X73300947Y-33392629D02*
X73322854Y-33383669D01*
X72935782Y-34724945D02*
X72955691Y-34695680D01*
X66745186Y-33383440D02*
X66770292Y-33382629D01*
X65974893Y-34761676D02*
X65965487Y-34741493D01*
X77347297Y-33656301D02*
X77357671Y-33648033D01*
X72311785Y-34045843D02*
X72325069Y-34042733D01*
X72980150Y-33616693D02*
X72996110Y-33599973D01*
X72888033Y-35752354D02*
X72924023Y-35770079D01*
X66974820Y-34557786D02*
X66983481Y-34580234D01*
X72499433Y-34064542D02*
X72511274Y-34070693D01*
X72638337Y-34219818D02*
X72642655Y-34232756D01*
X66213658Y-35063911D02*
X66197003Y-35050446D01*
X67812777Y-34512446D02*
X67803239Y-34521667D01*
X75038110Y-33446953D02*
X75017199Y-33414613D01*
X71702444Y-34205303D02*
X71696052Y-34259826D01*
X66360949Y-33478557D02*
X66381116Y-33468872D01*
X65481808Y-33371609D02*
X65459862Y-33401453D01*
X65865158Y-35609057D02*
X65897554Y-35629258D01*
X74420161Y-35752535D02*
X74455325Y-35734213D01*
X77368438Y-34102078D02*
X77357671Y-34094312D01*
X67871637Y-34207173D02*
X67876555Y-34219818D01*
X67454335Y-34092410D02*
X67465102Y-34084644D01*
X66600385Y-35232372D02*
X66577215Y-35228000D01*
X68292024Y-34451718D02*
X68299244Y-34407201D01*
X78000926Y-33372457D02*
X77984674Y-33356909D01*
X74585742Y-34281423D02*
X74586009Y-34306662D01*
X74118535Y-35870013D02*
X74157910Y-35858629D01*
X65296739Y-34928790D02*
X65311802Y-34964097D01*
X68276109Y-34114510D02*
X68269495Y-34093440D01*
X74479641Y-34786699D02*
X74469012Y-34807669D01*
X67013822Y-34645203D02*
X67025337Y-34666016D01*
X73304894Y-32732902D02*
X73264184Y-32741369D01*
X71447460Y-34549459D02*
X71436717Y-34521673D01*
X70243246Y-34386287D02*
X70230660Y-34404833D01*
X67646687Y-34592587D02*
X67632745Y-34593663D01*
X70529688Y-34818017D02*
X70528627Y-34803878D01*
X67590548Y-34038512D02*
X67604490Y-34037436D01*
X71820378Y-33912759D02*
X71792066Y-33956563D01*
X71720101Y-34506708D02*
X71727900Y-34532526D01*
X67524216Y-34053976D02*
X67536974Y-34049597D01*
X67821871Y-34502773D02*
X67812777Y-34512446D01*
X66454975Y-35840984D02*
X66496094Y-35847999D01*
X70528270Y-34789552D02*
X70528627Y-34775226D01*
X74196829Y-35846267D02*
X74235288Y-35832927D01*
X70582837Y-34622954D02*
X70590991Y-34612433D01*
X72273528Y-34572135D02*
X72261365Y-34566557D01*
X66443899Y-33442554D02*
X66465443Y-33434838D01*
X66302788Y-35124591D02*
X66284181Y-35113343D01*
X67860071Y-34448269D02*
X67853458Y-34459930D01*
X72199900Y-35072416D02*
X72217416Y-35104865D01*
X71766999Y-34002571D02*
X71745340Y-34050616D01*
X75217744Y-33837497D02*
X75205710Y-33799802D01*
X72852698Y-35733894D02*
X72888033Y-35752354D01*
X74367826Y-34962634D02*
X74353165Y-34980432D01*
X77675470Y-33640268D02*
X77686236Y-33648033D01*
X67349593Y-34259440D02*
X67352660Y-34245969D01*
X73427472Y-35283807D02*
X73404333Y-35278135D01*
X77521954Y-33592697D02*
X77536081Y-33593059D01*
X77779892Y-33775441D02*
X77784210Y-33788379D01*
X67884575Y-34385131D02*
X67880874Y-34398344D01*
X68269495Y-34537659D02*
X68282076Y-34495235D01*
X67646687Y-34038512D02*
X67660427Y-34040283D01*
X77294258Y-33715493D02*
X77301915Y-33704575D01*
X67371099Y-34194838D02*
X67377165Y-34182831D01*
X73697967Y-35306767D02*
X73672381Y-35307685D01*
X72186239Y-34118654D02*
X72195777Y-34109432D01*
X75285241Y-34407436D02*
X75286658Y-34366100D01*
X72186239Y-34512446D02*
X72177146Y-34502773D01*
X71105732Y-34164447D02*
X71079200Y-34151900D01*
X73056842Y-35098511D02*
X73039777Y-35083665D01*
X71923147Y-33796242D02*
X71886082Y-33832432D01*
X65882819Y-34400991D02*
X65881488Y-34375791D01*
X72608095Y-34159870D02*
X72615239Y-34171169D01*
X70555357Y-34668840D02*
X70561422Y-34656833D01*
X71727252Y-34100532D02*
X71712899Y-34152150D01*
X77933025Y-34428807D02*
X77967931Y-34400448D01*
X70871490Y-34519845D02*
X70884519Y-34523599D01*
X72845184Y-33803036D02*
X72859574Y-33777774D01*
X70884519Y-34523599D02*
X70897277Y-34527978D01*
X71988555Y-34887205D02*
X72010213Y-34901896D01*
X70830946Y-34512514D02*
X70844686Y-34514285D01*
X76983161Y-33439743D02*
X76956550Y-33476251D01*
X67383778Y-34459930D02*
X67377165Y-34448269D01*
X77787912Y-33940754D02*
X77784210Y-33953967D01*
X72375064Y-33280989D02*
X72351917Y-33309680D01*
X74564380Y-34086166D02*
X74568919Y-34109914D01*
X65282518Y-34893069D02*
X65296739Y-34928790D01*
X74489849Y-35715193D02*
X74523734Y-35695474D01*
X72859574Y-33777774D02*
X72874694Y-33753089D01*
X67406733Y-34492668D02*
X67398579Y-34482148D01*
X77493884Y-33594135D02*
X77507826Y-33593059D01*
X66341172Y-35145746D02*
X66321785Y-35135392D01*
X70059396Y-33558628D02*
X70346563Y-34269632D01*
X66213658Y-33571449D02*
X66230704Y-33558343D01*
X67424459Y-34118654D02*
X67433996Y-34109432D01*
X65282518Y-33731197D02*
X65269214Y-33766975D01*
X67632745Y-34037436D02*
X67646687Y-34038512D01*
X74499615Y-33881602D02*
X74508841Y-33903331D01*
X72404998Y-35374351D02*
X72429151Y-35401804D01*
X72366272Y-34037436D02*
X72380399Y-34037073D01*
X74576396Y-34464849D02*
X74572925Y-34489089D01*
X66142466Y-35750887D02*
X66179939Y-35765465D01*
X77075976Y-34400448D02*
X77093197Y-34414910D01*
X65361588Y-33559263D02*
X65344227Y-33592540D01*
X66039916Y-34875441D02*
X66028059Y-34857355D01*
X77896314Y-34454857D02*
X77933025Y-34428807D01*
X65181136Y-34225176D02*
X65179759Y-34265739D01*
X72249524Y-34560406D02*
X72238025Y-34553699D01*
X66983481Y-34580234D02*
X66992878Y-34602297D01*
X74235288Y-35832927D02*
X74273285Y-35818612D01*
X74547557Y-34016081D02*
X74553699Y-34039248D01*
X66537675Y-32776839D02*
X66496096Y-32782832D01*
X66959769Y-34511797D02*
X66966911Y-34534969D01*
X72311785Y-34585256D02*
X72298755Y-34581502D01*
X70909747Y-35046137D02*
X70897277Y-35051125D01*
X71445542Y-35035171D02*
X71453654Y-35012066D01*
X73507156Y-33334232D02*
X73531319Y-33330833D01*
X65602964Y-35395942D02*
X65629479Y-35422344D01*
X66414316Y-32797580D02*
X66374114Y-32806333D01*
X77686236Y-33648033D02*
X77696611Y-33656301D01*
X67360680Y-34219818D02*
X67365598Y-34207173D01*
X71366703Y-34392251D02*
X71349646Y-34368475D01*
X70945250Y-34551402D02*
X70956392Y-34558647D01*
X76921060Y-34208058D02*
X76932282Y-34227822D01*
X65183429Y-34437412D02*
X65186641Y-34477317D01*
X72307752Y-33368715D02*
X72286734Y-33399059D01*
X74185348Y-35136202D02*
X74166601Y-35149355D01*
X77664328Y-34109323D02*
X77652828Y-34116029D01*
X73969213Y-33373835D02*
X73991257Y-33381911D01*
X72273528Y-34058964D02*
X72285997Y-34053976D01*
X72159424Y-33626950D02*
X72144063Y-33661723D01*
X65504515Y-35284422D02*
X65527985Y-35313190D01*
X74322505Y-35014999D02*
X74306606Y-35031715D01*
X72638337Y-34411282D02*
X72633419Y-34423927D01*
X73292232Y-35240815D02*
X73270530Y-35231559D01*
X78143398Y-33575004D02*
X78133443Y-33554453D01*
X70997035Y-34592656D02*
X71006129Y-34602328D01*
X66959769Y-34119301D02*
X66947850Y-34166644D01*
X71071901Y-34733442D02*
X71074316Y-34747153D01*
X72235600Y-35136810D02*
X72254450Y-35168252D01*
X67632745Y-34593663D02*
X67618617Y-34594025D01*
X73313219Y-35898271D02*
X73354555Y-35905721D01*
X67853458Y-34459930D02*
X67846314Y-34471229D01*
X73991257Y-33381911D02*
X74013006Y-33390579D01*
X65656648Y-33178911D02*
X65629480Y-33204609D01*
X70967159Y-35012691D02*
X70956392Y-35020457D01*
X77252929Y-33815063D02*
X77255996Y-33801592D01*
X72564003Y-35534766D02*
X72593484Y-35559819D01*
X65602965Y-33231004D02*
X65577211Y-33257975D01*
X71060814Y-34885284D02*
X71055896Y-34897929D01*
X78046596Y-33422185D02*
X78031900Y-33405109D01*
X74038422Y-35889836D02*
X74078705Y-35880415D01*
X73611536Y-35929619D02*
X73655855Y-35930118D01*
X71044330Y-34656833D02*
X71050395Y-34668840D01*
X72856810Y-34855944D02*
X72842555Y-34830434D01*
X66795677Y-35248739D02*
X66770292Y-35248486D01*
X72511274Y-34560406D02*
X72499433Y-34566557D01*
X73006442Y-34601765D02*
X73020195Y-34568593D01*
X70536918Y-34719971D02*
X70540620Y-34706758D01*
X73367423Y-33367602D02*
X73390085Y-33360495D01*
X73105752Y-32785150D02*
X73067243Y-32798569D01*
X65269214Y-33766975D02*
X65256828Y-33803127D01*
X74469431Y-33818381D02*
X74479910Y-33839127D01*
X72474801Y-34577123D02*
X72462043Y-34581502D01*
X73924243Y-33359462D02*
X73946875Y-33366352D01*
X76969569Y-34284576D02*
X76983161Y-34302603D01*
X73830769Y-33337858D02*
X73854579Y-33342364D01*
X73474469Y-35293361D02*
X73450851Y-35288883D01*
X73264184Y-32741369D02*
X73223915Y-32750828D01*
X70683842Y-34538544D02*
X70696005Y-34532966D01*
X71331638Y-34345471D02*
X71312710Y-34323269D01*
X72285997Y-34053976D02*
X72298755Y-34049597D01*
X67347178Y-34357949D02*
X67345431Y-34344015D01*
X75228818Y-33875520D02*
X75217744Y-33837497D01*
X67311878Y-33692533D02*
X67270495Y-33715380D01*
X68170320Y-34730064D02*
X68194681Y-34694527D01*
X68170320Y-33901035D02*
X68143882Y-33867160D01*
X77577284Y-33598356D02*
X77590568Y-33601466D01*
X65459862Y-35225110D02*
X65481807Y-35255063D01*
X75282788Y-34191567D02*
X75279412Y-34150903D01*
X70561422Y-34922270D02*
X70555357Y-34910263D01*
X67270495Y-34915718D02*
X67290971Y-34927490D01*
X70638594Y-34566412D02*
X70649360Y-34558647D01*
X65577211Y-33257975D02*
X65552218Y-33285521D01*
X73006834Y-35052608D02*
X72990956Y-35036400D01*
X70528627Y-34803878D02*
X70528270Y-34789552D01*
X67345431Y-34287085D02*
X67347178Y-34273151D01*
X67377165Y-34448269D02*
X67371099Y-34436262D01*
X70517916Y-35423136D02*
X70555709Y-35439264D01*
X77756794Y-34015553D02*
X77749650Y-34026852D01*
X77274435Y-33750461D02*
X77280500Y-33738454D01*
X77310069Y-34048291D02*
X77301915Y-34037771D01*
X77793395Y-33913572D02*
X77790979Y-33927283D01*
X74709249Y-33071373D02*
X74679105Y-33047096D01*
X67893223Y-34315550D02*
X67892866Y-34329876D01*
X72997970Y-35803323D02*
X73035871Y-35818612D01*
X74409130Y-34907161D02*
X74395809Y-34926000D01*
X65932172Y-34657477D02*
X65925079Y-34635714D01*
X66947850Y-34464453D02*
X66953411Y-34488286D01*
X76997312Y-34320161D02*
X77012008Y-34337237D01*
X65906910Y-34568572D02*
X65901895Y-34545571D01*
X70270112Y-34350536D02*
X70256401Y-34368184D01*
X68295981Y-34201521D02*
X68292024Y-34179382D01*
X72991072Y-34634038D02*
X73006442Y-34601765D01*
X75163850Y-33688683D02*
X75148092Y-33652515D01*
X72574559Y-34512446D02*
X72565021Y-34521667D01*
X70788748Y-35067665D02*
X70774806Y-35066589D01*
X74341668Y-33629061D02*
X74356324Y-33646503D01*
X66752491Y-35870403D02*
X66796845Y-35870868D01*
X71756913Y-34607277D02*
X71768386Y-34631221D01*
X74116751Y-33441771D02*
X74136344Y-33453414D01*
X65884681Y-34215731D02*
X65887071Y-34191384D01*
X67618617Y-34594025D02*
X67604490Y-34593663D01*
X65918504Y-34613642D02*
X65912447Y-34591262D01*
X74353165Y-34980432D02*
X74338057Y-34997886D01*
X72960668Y-35787069D02*
X72997970Y-35803323D01*
X74586009Y-34306662D02*
X74586009Y-34315549D01*
X72633419Y-34423927D02*
X72627918Y-34436262D01*
X71065132Y-34706758D02*
X71068834Y-34719971D01*
X77252929Y-33927283D02*
X77250513Y-33913572D01*
X72145559Y-34459930D02*
X72138945Y-34448269D01*
X70634533Y-35464657D02*
X70675402Y-35473761D01*
X66947850Y-34166644D02*
X66939184Y-34215217D01*
X73381433Y-35271865D02*
X73358774Y-35264998D01*
X65527986Y-33313643D02*
X65504516Y-33342339D01*
X71424848Y-34494482D02*
X71411883Y-34467915D01*
X67211796Y-34876370D02*
X67230892Y-34890142D01*
X65930599Y-35648757D02*
X65964294Y-35667550D01*
X70774806Y-34512514D02*
X70788748Y-34511438D01*
X67892866Y-34301223D02*
X67893223Y-34315550D01*
X67311878Y-33382358D02*
X67311878Y-33692533D01*
X73459578Y-33342883D02*
X73483242Y-33338248D01*
X74166601Y-35149355D02*
X74147498Y-35162068D01*
X72338589Y-34590816D02*
X72325069Y-34588366D01*
X74995549Y-33382825D02*
X74973159Y-33351590D01*
X74422003Y-34887971D02*
X74409130Y-34907161D01*
X67866137Y-34194838D02*
X67871637Y-34207173D01*
X67725488Y-34572135D02*
X67713019Y-34577123D01*
X72226883Y-34546455D02*
X72216116Y-34538689D01*
X75099768Y-35092435D02*
X75117526Y-35057972D01*
X72938233Y-34975579D02*
X72920607Y-34952708D01*
X67352660Y-34245969D02*
X67356362Y-34232756D01*
X76882572Y-34125133D02*
X76891207Y-34146417D01*
X76839107Y-33943551D02*
X76841923Y-33967221D01*
X77480144Y-34146439D02*
X77466624Y-34143989D01*
X74067526Y-35208550D02*
X74046643Y-35219085D01*
X72380399Y-34037073D02*
X72394526Y-34037436D01*
X73058117Y-34203897D02*
X73051412Y-34167855D01*
X66795677Y-33382358D02*
X67311878Y-33382358D01*
X65327631Y-34998808D02*
X65344227Y-35032922D01*
X72249524Y-34070693D02*
X72261365Y-34064542D01*
X72166875Y-35006006D02*
X72183053Y-35039464D01*
X71205276Y-34225331D02*
X71181435Y-34208565D01*
X72627918Y-34194838D02*
X72633419Y-34207173D01*
X71250691Y-34261773D02*
X71228371Y-34243077D01*
X66105542Y-32893266D02*
X66069261Y-32909094D01*
X77550024Y-34148210D02*
X77536081Y-34149286D01*
X77590568Y-34140879D02*
X77577284Y-34143989D01*
X72870108Y-33827509D02*
X72845184Y-33803036D01*
X70830946Y-35066589D02*
X70817003Y-35067665D01*
X73112965Y-35846267D02*
X73152158Y-35858629D01*
X75285200Y-34232562D02*
X75282788Y-34191567D01*
X77686236Y-34094312D02*
X77675470Y-34102078D01*
X71030572Y-34945231D02*
X71022915Y-34956149D01*
X70561422Y-34656833D02*
X70568036Y-34645171D01*
X73270530Y-35231559D02*
X73249144Y-35221772D01*
X67673948Y-34042733D02*
X67687231Y-34045843D01*
X67398579Y-34482148D02*
X67390922Y-34471229D01*
X73039777Y-35083665D02*
X73023107Y-35068363D01*
X65956490Y-33918291D02*
X65965487Y-33897339D01*
X77301915Y-33704575D02*
X77310069Y-33694054D01*
X66149379Y-33628125D02*
X66164864Y-33613319D01*
X70536918Y-34859133D02*
X70533851Y-34845662D01*
X75021106Y-35224336D02*
X75041912Y-35192252D01*
X73757573Y-33327931D02*
X73782266Y-33330641D01*
X65418261Y-33462860D02*
X65398605Y-33494422D01*
X77790979Y-33815063D02*
X77793395Y-33828774D01*
X72325069Y-34042733D02*
X72338589Y-34040283D01*
X70817003Y-34511438D02*
X70830946Y-34512514D01*
X73681726Y-33323410D02*
X73707303Y-33324315D01*
X70618255Y-34995669D02*
X70608717Y-34986447D01*
X67311878Y-34938565D02*
X67311878Y-35248739D01*
X77466624Y-34143989D02*
X77453340Y-34140879D01*
X71397851Y-34442000D02*
X71382782Y-34416769D01*
X76956550Y-34266095D02*
X76969569Y-34284576D01*
X66069260Y-35719686D02*
X66105541Y-35735643D01*
X73148083Y-35165892D02*
X73129047Y-35153332D01*
X75282879Y-34448443D02*
X75285241Y-34407436D01*
X66647548Y-33392060D02*
X66671542Y-33389101D01*
X70230660Y-34404833D02*
X70218656Y-34423805D01*
X70909747Y-34532966D02*
X70921910Y-34538544D01*
X77628825Y-34127758D02*
X77616355Y-34132746D01*
X74256775Y-35079169D02*
X74239452Y-35094094D01*
X78183108Y-34059260D02*
X78194041Y-34013796D01*
X71472646Y-34636080D02*
X71465454Y-34606691D01*
X70996125Y-34121151D02*
X70967371Y-34113298D01*
X72533915Y-34546455D02*
X72522773Y-34553699D01*
X66401674Y-35174118D02*
X66381116Y-35165110D01*
X74556980Y-35675056D02*
X74589588Y-35653938D01*
X71768386Y-34631221D02*
X71780723Y-34654642D01*
X71486653Y-34726976D02*
X71483275Y-34696252D01*
X67713019Y-34053976D02*
X67725488Y-34058964D01*
X72266424Y-33429956D02*
X72246823Y-33461404D01*
X74150246Y-32772720D02*
X74110642Y-32761279D01*
X74088054Y-35197583D02*
X74067526Y-35208550D01*
X73236845Y-33422858D02*
X73257891Y-33412314D01*
X71131634Y-34178094D02*
X71105732Y-34164447D01*
X75166188Y-34951007D02*
X75180833Y-34914395D01*
X71156878Y-34192809D02*
X71131634Y-34178094D01*
X72522773Y-34077400D02*
X72533915Y-34084644D01*
X66487257Y-33427646D02*
X66509340Y-33420978D01*
X71908032Y-34820659D02*
X71927203Y-34838421D01*
X73596155Y-35306796D02*
X73571339Y-35305304D01*
X73129047Y-35153332D02*
X73110405Y-35140313D01*
X72651840Y-34357949D02*
X72649424Y-34371660D01*
X71838302Y-34742682D02*
X71854649Y-34763173D01*
X67590548Y-34592587D02*
X67576808Y-34590816D01*
X73029174Y-32812975D02*
X72991544Y-32828369D01*
X77779892Y-33966905D02*
X77774974Y-33979550D01*
X66295078Y-35803504D02*
X66334367Y-35814290D01*
X78198393Y-33751705D02*
X78194041Y-33728550D01*
X68085146Y-34826329D02*
X68115460Y-34796060D01*
X77784210Y-33788379D02*
X77787912Y-33801592D01*
X67465102Y-34546455D02*
X67454335Y-34538689D01*
X75256895Y-34648498D02*
X75263981Y-34609155D01*
X67604490Y-34037436D02*
X67618617Y-34037073D01*
X73358774Y-35264998D02*
X73336353Y-35257534D01*
X72286734Y-33399059D02*
X72266424Y-33429956D01*
X74096768Y-33430591D02*
X74116751Y-33441771D01*
X74880460Y-35404387D02*
X74905772Y-35375859D01*
X77790979Y-33927283D02*
X77787912Y-33940754D01*
X70774806Y-35066589D02*
X70761066Y-35064818D01*
X70696005Y-34532966D02*
X70708475Y-34527978D01*
X74228172Y-32798569D02*
X74189423Y-32785150D01*
X72294147Y-35229633D02*
X72314992Y-35259573D01*
X67892866Y-34329876D02*
X67891805Y-34344015D01*
X77706576Y-33665055D02*
X77716113Y-33674277D01*
X67891805Y-34287085D02*
X67892866Y-34301223D01*
X67415365Y-34128326D02*
X67424459Y-34118654D01*
X77507826Y-34149286D02*
X77493884Y-34148210D01*
X72600438Y-34482148D02*
X72592284Y-34492668D01*
X73346045Y-32725427D02*
X73304894Y-32732902D01*
X65459862Y-33401453D02*
X65438680Y-33431870D01*
X73646507Y-32700980D02*
X73602252Y-32701480D01*
X68216871Y-33973676D02*
X68194681Y-33936572D01*
X72217416Y-35104865D02*
X72235600Y-35136810D01*
X74525928Y-34676555D02*
X74517650Y-34699194D01*
X74547557Y-34607588D02*
X74540881Y-34630753D01*
X65296739Y-33695793D02*
X65282518Y-33731197D01*
X77259698Y-33788379D02*
X77264016Y-33775441D01*
X66321785Y-35135392D02*
X66302788Y-35124591D01*
X72010213Y-34901896D02*
X72032441Y-34915765D01*
X65504516Y-33342339D02*
X65481808Y-33371609D01*
X72653587Y-34344015D02*
X72651840Y-34357949D01*
X67377165Y-34182831D02*
X67383778Y-34171169D01*
X72216116Y-34092410D02*
X72226883Y-34084644D01*
X65195815Y-34066564D02*
X65190769Y-34105670D01*
X68299244Y-34407201D02*
X68303645Y-34361781D01*
X70575180Y-34633872D02*
X70582837Y-34622954D01*
X65912447Y-34591262D02*
X65906910Y-34568572D01*
X73778300Y-32705476D02*
X73734806Y-32702979D01*
X74518545Y-32936732D02*
X74484473Y-32916854D01*
X71050395Y-34668840D02*
X71055896Y-34681175D01*
X73989253Y-32732902D02*
X73947929Y-32725427D01*
X69651577Y-34567363D02*
X70059396Y-33558628D01*
X73336353Y-35257534D02*
X73314173Y-35249473D01*
X67749492Y-34070693D02*
X67760991Y-34077400D01*
X77129019Y-34442128D02*
X77147593Y-34454857D01*
X73032282Y-34534573D02*
X73042650Y-34499758D01*
X66770292Y-33382629D02*
X66795677Y-33382358D01*
X72032441Y-34915765D02*
X72055216Y-34928791D01*
X70897277Y-34527978D02*
X70909747Y-34532966D01*
X67772133Y-34084644D02*
X67782900Y-34092410D01*
X72175491Y-33592733D02*
X72159424Y-33626950D01*
X65912447Y-34050406D02*
X65918504Y-34027760D01*
X70544938Y-34693820D02*
X70549856Y-34681175D01*
X70575180Y-34945231D02*
X70568036Y-34933932D01*
X73997689Y-35898271D02*
X74038422Y-35889836D01*
X65186641Y-34477317D02*
X65190769Y-34516866D01*
X77950710Y-33327436D02*
X77933025Y-33313539D01*
X71746327Y-34582832D02*
X71756913Y-34607277D01*
X65552217Y-35341365D02*
X65577210Y-35368949D01*
X71006129Y-34976775D02*
X70997035Y-34986447D01*
X71074316Y-34831951D02*
X71071901Y-34845662D01*
X77857908Y-33263858D02*
X77857908Y-32760231D01*
X75275072Y-34110572D02*
X75269769Y-34070571D01*
X67660427Y-34590816D02*
X67646687Y-34592587D01*
X66939184Y-34215217D02*
X66933894Y-34264893D01*
X71707437Y-34453847D02*
X71713272Y-34480474D01*
X73707303Y-33324315D02*
X73732585Y-33325823D01*
X70346564Y-34269632D02*
X70330264Y-34284787D01*
X78031900Y-33405109D02*
X78016672Y-33388528D01*
X66465443Y-33434838D02*
X66487257Y-33427646D01*
X74583606Y-34231492D02*
X74584941Y-34256366D01*
X67782900Y-34538689D02*
X67772133Y-34546455D01*
X65234809Y-33876546D02*
X65225175Y-33913812D01*
X71696052Y-34259826D02*
X71693885Y-34315550D01*
X71793905Y-34677521D02*
X71807909Y-34699835D01*
X70544938Y-34885284D02*
X70540620Y-34872346D01*
X66064850Y-33725468D02*
X66077927Y-33708267D01*
X72778886Y-32936201D02*
X72745626Y-32956610D01*
X72623612Y-35584140D02*
X72654388Y-35607731D01*
X67250463Y-34903263D02*
X67270495Y-34915718D01*
X72506978Y-35482470D02*
X72535168Y-35508983D01*
X72429151Y-35401804D02*
X72453963Y-35428763D01*
X66142467Y-32878140D02*
X66105542Y-32893266D01*
X73901316Y-33353167D02*
X73924243Y-33359462D01*
X71727900Y-34532526D02*
X71736649Y-34557908D01*
X65216459Y-33951447D02*
X65208660Y-33989452D01*
X76891207Y-34146417D02*
X76900510Y-34167342D01*
X77391080Y-33626316D02*
X77402920Y-33620165D01*
X78194041Y-33728550D02*
X78188941Y-33705672D01*
X75096413Y-33547273D02*
X75077716Y-33513285D01*
X72336501Y-35289014D02*
X72358672Y-35317956D01*
X67345431Y-34344015D02*
X67344370Y-34329876D01*
X73062928Y-34391053D02*
X73065909Y-34353570D01*
X74551964Y-32957340D02*
X74518545Y-32936732D01*
X78188941Y-33705672D02*
X78183108Y-33683086D01*
X71030572Y-34633872D02*
X71037716Y-34645171D01*
X70675402Y-35473761D02*
X70717136Y-35480363D01*
X70152004Y-34567363D02*
X69651577Y-34567363D01*
X66647548Y-35239553D02*
X66623829Y-35236222D01*
X73700117Y-35929619D02*
X73743945Y-35928121D01*
X67465102Y-34084644D02*
X67476244Y-34077400D01*
X74827605Y-35459671D02*
X74854403Y-35432324D01*
X72298755Y-34049597D02*
X72311785Y-34045843D01*
X68303645Y-34361781D02*
X68305132Y-34315550D01*
X74434429Y-34868428D02*
X74422003Y-34887971D01*
X70608717Y-34986447D02*
X70599623Y-34976775D01*
X78161336Y-33617213D02*
X78152701Y-33595929D01*
X76845515Y-33990641D02*
X76849867Y-34013796D01*
X73571339Y-35305304D02*
X73546762Y-35303214D01*
X65379714Y-35099363D02*
X65398605Y-35131691D01*
X77255996Y-33801592D02*
X77259698Y-33788379D01*
X77787912Y-33801592D02*
X77790979Y-33815063D01*
X73387639Y-32718946D02*
X73346045Y-32725427D01*
X72812773Y-32916489D02*
X72778886Y-32936201D01*
X77652828Y-34116029D02*
X77640988Y-34122180D01*
X74586009Y-34315549D02*
X74585742Y-34340896D01*
X72783988Y-35694772D02*
X72818016Y-35714700D01*
X77318701Y-33683949D02*
X77327794Y-33674277D01*
X77664328Y-33633023D02*
X77675470Y-33640268D01*
X74568919Y-34109914D02*
X74572925Y-34133853D01*
X67725488Y-34058964D02*
X67737652Y-34064542D01*
X77774974Y-33762796D02*
X77779892Y-33775441D01*
X72874694Y-33753089D02*
X72890532Y-33728974D01*
X72114441Y-34245969D02*
X72118143Y-34232756D01*
X70411975Y-35361990D02*
X70445968Y-35384419D01*
X72942259Y-33659973D02*
X72960870Y-33638066D01*
X72195777Y-34521667D02*
X72186239Y-34512446D01*
X77012008Y-34337237D02*
X77027236Y-34353818D01*
X74533672Y-33970336D02*
X74540881Y-33993110D01*
X76837078Y-33919644D02*
X76839107Y-33943551D01*
X71745340Y-34050616D02*
X71727252Y-34100532D01*
X71382782Y-34416769D02*
X71366703Y-34392251D01*
X77796560Y-33871173D02*
X77796202Y-33885500D01*
X73223915Y-32750828D02*
X73184087Y-32761279D01*
X77967931Y-34400448D02*
X78000926Y-34369889D01*
X72530490Y-33119023D02*
X72502304Y-33145023D01*
X78122848Y-33534288D02*
X78111626Y-33514524D01*
X65742088Y-33106063D02*
X65712953Y-33129639D01*
X74338057Y-34997886D02*
X74322505Y-35014999D01*
X77248766Y-33899638D02*
X77247706Y-33885500D01*
X71416661Y-35102124D02*
X71427029Y-35080215D01*
X71228371Y-34243077D02*
X71205276Y-34225331D01*
X75248084Y-33952552D02*
X75238931Y-33913872D01*
X74616845Y-33000750D02*
X74584732Y-32978679D01*
X74157910Y-35858629D02*
X74196829Y-35846267D01*
X71947029Y-34855446D02*
X71967486Y-34871715D01*
X72655005Y-34315550D02*
X72654647Y-34329876D01*
X72615239Y-34171169D02*
X72621853Y-34182831D01*
X71467506Y-34964774D02*
X71473215Y-34940617D01*
X77716113Y-34068069D02*
X77706576Y-34077290D01*
X72893797Y-33853236D02*
X72870108Y-33827509D01*
X74239452Y-35094094D02*
X74221773Y-35108573D01*
X72535168Y-35508983D02*
X72564003Y-35534766D01*
X68143882Y-34763940D02*
X68170320Y-34730064D01*
X70921910Y-34538544D02*
X70933750Y-34544695D01*
X66302788Y-33510184D02*
X66321785Y-33499213D01*
X71272207Y-34281391D02*
X71250691Y-34261773D01*
X70582837Y-34956149D02*
X70575180Y-34945231D01*
X77318701Y-34058396D02*
X77310069Y-34048291D01*
X77402920Y-34122180D02*
X77391080Y-34116029D01*
X74585742Y-34340896D02*
X74584941Y-34366056D01*
X66933894Y-34366204D02*
X66936109Y-34391173D01*
X73602252Y-32701480D02*
X73558442Y-32702979D01*
X68085146Y-33804770D02*
X68053034Y-33776445D01*
X65269214Y-34857007D02*
X65282518Y-34893069D01*
X73438510Y-35917656D02*
X73481127Y-35922138D01*
X73621211Y-35307692D02*
X73596155Y-35306796D01*
X71698827Y-34399496D02*
X71702614Y-34426847D01*
X74458534Y-33797963D02*
X74469431Y-33818381D01*
X74553699Y-34584245D02*
X74547557Y-34607588D01*
X71405572Y-35123601D02*
X71416661Y-35102124D01*
X74356324Y-33646503D02*
X74370562Y-33664276D01*
X66720360Y-33384790D02*
X66745186Y-33383440D01*
X74046643Y-35219085D02*
X74025404Y-35229188D01*
X77391080Y-34116029D02*
X77379580Y-34109323D01*
X75279412Y-34150903D02*
X75275072Y-34110572D01*
X66149379Y-35007409D02*
X66134285Y-34992186D01*
X70549856Y-34897929D02*
X70544938Y-34885284D01*
X65186641Y-34145141D02*
X65183429Y-34184977D01*
X78087358Y-34266095D02*
X78111626Y-34227822D01*
X66695812Y-35244666D02*
X66671542Y-35242367D01*
X74581737Y-34206802D02*
X74583606Y-34231492D01*
X66974820Y-34073311D02*
X66959769Y-34119301D01*
X72152703Y-34471229D02*
X72145559Y-34459930D01*
X66077927Y-33708267D02*
X66091409Y-33691453D01*
X76837078Y-33822702D02*
X76835439Y-33871173D01*
X72487270Y-34058964D02*
X72499433Y-34064542D01*
X77301915Y-34037771D02*
X77294258Y-34026852D01*
X65245360Y-34783854D02*
X65256828Y-34820603D01*
X72145559Y-34171169D02*
X72152703Y-34159870D01*
X65964295Y-32960793D02*
X65930600Y-32979432D01*
X67487743Y-34560406D02*
X67476244Y-34553699D01*
X75178763Y-33725396D02*
X75163850Y-33688683D01*
X73946875Y-33366352D02*
X73969213Y-33373835D01*
X68194681Y-34694527D02*
X68216871Y-34657424D01*
X72329480Y-33338922D02*
X72307752Y-33368715D01*
X71076063Y-34818017D02*
X71074316Y-34831951D01*
X73152158Y-35858629D02*
X73191780Y-35870013D01*
X67443961Y-34530421D02*
X67433996Y-34521667D01*
X70533851Y-34845662D02*
X70531435Y-34831951D01*
X68053034Y-33776445D02*
X68019216Y-33750160D01*
X67092734Y-33868047D02*
X67063873Y-33905392D01*
X67349593Y-34371660D02*
X67347178Y-34357949D01*
X72423489Y-33225257D02*
X72398921Y-33252848D01*
X67660427Y-34040283D02*
X67673948Y-34042733D01*
X65881488Y-34265155D02*
X65882819Y-34240321D01*
X74055625Y-33409624D02*
X74076393Y-33419875D01*
X72177146Y-34502773D02*
X72168514Y-34492668D01*
X66487257Y-35205274D02*
X66465443Y-35198273D01*
X66295079Y-32826597D02*
X66256245Y-32838106D01*
X70967371Y-34113298D02*
X70938133Y-34106693D01*
X67365598Y-34423927D02*
X67360680Y-34411282D01*
X72592284Y-34138431D02*
X72600438Y-34148952D01*
X73732585Y-33325823D02*
X73757573Y-33327931D01*
X66465443Y-35198273D02*
X66443899Y-35190740D01*
X66334368Y-32816006D02*
X66295079Y-32826597D01*
X67700261Y-34049597D02*
X67713019Y-34053976D01*
X77287114Y-33726792D02*
X77294258Y-33715493D01*
X77640988Y-33620165D02*
X77652828Y-33626316D01*
X65379714Y-33526557D02*
X65361588Y-33559263D01*
X75150738Y-34987259D02*
X75166188Y-34951007D01*
X71292890Y-34301899D02*
X71272207Y-34281391D01*
X76900510Y-34167342D02*
X76910465Y-34187893D01*
X74076393Y-33419875D02*
X74096768Y-33430591D01*
X73092156Y-35126836D02*
X73074302Y-35112902D01*
X66180738Y-35036540D02*
X66164864Y-35022194D01*
X70555357Y-34910263D02*
X70549856Y-34897929D01*
X71436717Y-34521673D02*
X71424848Y-34494482D01*
X77796202Y-33885500D02*
X77795142Y-33899638D01*
X66966911Y-34534969D02*
X66974820Y-34557786D01*
X74245800Y-33532981D02*
X74262709Y-33547857D01*
X66695812Y-33386677D02*
X66720360Y-33384790D01*
X70987498Y-34995669D02*
X70977533Y-35004423D01*
X77357671Y-33648033D02*
X77368438Y-33640268D01*
X66265965Y-33533409D02*
X66284181Y-33521583D01*
X70291082Y-35253679D02*
X70318882Y-35283386D01*
X66105296Y-34960594D02*
X66091409Y-34944269D01*
X68254371Y-34052205D02*
X68245885Y-34032062D01*
X65918504Y-34027760D02*
X65925079Y-34005357D01*
X67443961Y-34100678D02*
X67454335Y-34092410D01*
X76867355Y-34081541D02*
X76874616Y-34103503D01*
X68282076Y-34495235D02*
X68292024Y-34451718D01*
X77784210Y-33953967D02*
X77779892Y-33966905D01*
X74279241Y-33563192D02*
X74295398Y-33578987D01*
X66016609Y-33798100D02*
X66028059Y-33779372D01*
X74999544Y-35255826D02*
X75021106Y-35224336D01*
X77110883Y-33313539D02*
X77075976Y-33341898D01*
X76983161Y-34302603D02*
X76997312Y-34320161D01*
X77379580Y-34109323D02*
X77368438Y-34102078D01*
X77725207Y-34058396D02*
X77716113Y-34068069D01*
X65956490Y-34720962D02*
X65947904Y-34700083D01*
X65939780Y-34678933D02*
X65932172Y-34657477D01*
X67037527Y-33944716D02*
X67013822Y-33985894D01*
X67563287Y-34042733D02*
X67576808Y-34040283D01*
X72132880Y-34194838D02*
X72138945Y-34182831D01*
X74876177Y-33232208D02*
X74850072Y-33203759D01*
X74395809Y-34926000D02*
X74382041Y-34944491D01*
X77310069Y-33694054D02*
X77318701Y-33683949D01*
X66248139Y-33545663D02*
X66265965Y-33533409D01*
X65887071Y-34450442D02*
X65884681Y-34425875D01*
X66496096Y-32782832D02*
X66454977Y-32789746D01*
X67511747Y-34058964D02*
X67524216Y-34053976D01*
X75061959Y-35159575D02*
X75081245Y-35126302D01*
X73023107Y-35068363D02*
X73006834Y-35052608D01*
X67157517Y-33799794D02*
X67123990Y-33832806D01*
X65833413Y-35588154D02*
X65865158Y-35609057D01*
X77795142Y-33899638D02*
X77793395Y-33913572D01*
X74926154Y-33290785D02*
X74901537Y-33261217D01*
X67175093Y-34846935D02*
X67193192Y-34861962D01*
X68115460Y-34796060D02*
X68143882Y-34763940D01*
X73567641Y-35928121D02*
X73611536Y-35929619D01*
X77337332Y-33665055D02*
X77347297Y-33656301D01*
X67536974Y-34581502D02*
X67524216Y-34577123D01*
X78208468Y-33871173D02*
X78208056Y-33846833D01*
X72078517Y-34940953D02*
X72102323Y-34952230D01*
X65994934Y-33836682D02*
X66005568Y-33817204D01*
X77914888Y-33300218D02*
X77896314Y-33287489D01*
X71962803Y-33762925D02*
X71923147Y-33796242D01*
X71050395Y-34910263D02*
X71044330Y-34922270D01*
X76860800Y-33683086D02*
X76849867Y-33728550D01*
X71460981Y-34988595D02*
X71467506Y-34964774D01*
X67846314Y-34159870D02*
X67853458Y-34171169D01*
X78111626Y-33514524D02*
X78099792Y-33495174D01*
X70761066Y-34514285D02*
X70774806Y-34512514D01*
X73515076Y-32705476D02*
X73472154Y-32708970D01*
X67356362Y-34398344D02*
X67352660Y-34385131D01*
X65208660Y-33989452D02*
X65201779Y-34027824D01*
X65418260Y-35163425D02*
X65438679Y-35194564D01*
X66509340Y-35211745D02*
X66487257Y-35205274D01*
X67476244Y-34077400D02*
X67487743Y-34070693D01*
X77186000Y-34478488D02*
X77186000Y-35248741D01*
X68236799Y-34618848D02*
X68254371Y-34578895D01*
X65684472Y-35473181D02*
X65712952Y-35497564D01*
X77967931Y-33341898D02*
X77950710Y-33327436D01*
X74457933Y-34828279D02*
X74446405Y-34848531D01*
X70348352Y-35311393D02*
X70379409Y-35337621D01*
X74078705Y-35880415D02*
X74118535Y-35870013D01*
X73483242Y-33338248D02*
X73507156Y-33334232D01*
X72351917Y-33309680D02*
X72329480Y-33338922D01*
X67536974Y-34049597D02*
X67550004Y-34045843D01*
X68299244Y-34223898D02*
X68295981Y-34201521D01*
X76860800Y-34059260D02*
X76867355Y-34081541D01*
X71478089Y-34916142D02*
X71482114Y-34891365D01*
X71676649Y-35870868D02*
X71381301Y-35165198D01*
X67687231Y-34585256D02*
X67673948Y-34588366D01*
X66321785Y-33499213D02*
X66341172Y-33488671D01*
X77733839Y-33694054D02*
X77741993Y-33704575D01*
X66708601Y-35869006D02*
X66752491Y-35870403D01*
X65344227Y-35032922D02*
X65361588Y-35066440D01*
X75287131Y-34315550D02*
X75286648Y-34273889D01*
X70967159Y-34566412D02*
X70977533Y-34574680D01*
X65930600Y-32979432D02*
X65897555Y-32998775D01*
X65984709Y-34781510D02*
X65974893Y-34761676D01*
X73396319Y-35912184D02*
X73438510Y-35917656D01*
X74767559Y-33122142D02*
X74738734Y-33096388D01*
X73546762Y-35303214D02*
X73522425Y-35300527D01*
X66217865Y-35779093D02*
X66256244Y-35791772D01*
X73630454Y-33323417D02*
X73655855Y-33323108D01*
X76891207Y-33595929D02*
X76874616Y-33638843D01*
X77327794Y-34068069D02*
X77318701Y-34058396D01*
X67772133Y-34546455D02*
X67760991Y-34553699D01*
X66454977Y-32789746D02*
X66414316Y-32797580D01*
X70445968Y-35384419D02*
X70481309Y-35404828D01*
X73524171Y-35925627D02*
X73567641Y-35928121D01*
X70362046Y-32730606D02*
X69739216Y-32730606D01*
X67880874Y-34232756D02*
X67884575Y-34245969D01*
X71349646Y-34368475D02*
X71331638Y-34345471D01*
X77259698Y-33953967D02*
X77255996Y-33940754D01*
X67876555Y-34411282D02*
X67871637Y-34423927D01*
X66509340Y-33420978D02*
X66531693Y-33414836D01*
X74508824Y-34721618D02*
X74499547Y-34743676D01*
X73960130Y-35256042D02*
X73937773Y-35263747D01*
X66796845Y-35870868D02*
X67983785Y-35870868D01*
X77603597Y-34137125D02*
X77590568Y-34140879D01*
X75081245Y-35126302D02*
X75099768Y-35092435D01*
X72903648Y-34929308D02*
X72887359Y-34905381D01*
X65994934Y-34800996D02*
X65984709Y-34781510D01*
X70528627Y-34775226D02*
X70529688Y-34761087D01*
X67352660Y-34385131D02*
X67349593Y-34371660D01*
X74854403Y-35432324D02*
X74880460Y-35404387D01*
X65897554Y-35629258D02*
X65930599Y-35648757D01*
X67360680Y-34411282D02*
X67356362Y-34398344D01*
X70590991Y-34966670D02*
X70582837Y-34956149D01*
X77793395Y-33828774D02*
X77795142Y-33842708D01*
X71736649Y-34557908D02*
X71746327Y-34582832D01*
X67891805Y-34344015D02*
X67890058Y-34357949D01*
X71312710Y-34323269D02*
X71292890Y-34301899D01*
X73672381Y-35307685D02*
X73646507Y-35307991D01*
X78099792Y-33495174D02*
X78087358Y-33476251D01*
X77280500Y-33738454D02*
X77287114Y-33726792D01*
X65656647Y-35448107D02*
X65684472Y-35473181D01*
X74378365Y-32861588D02*
X74341701Y-32844617D01*
X65438680Y-33431870D02*
X65418261Y-33462860D01*
X73279294Y-33402207D02*
X73300947Y-33392629D01*
X71436662Y-35057893D02*
X71445542Y-35035171D01*
X73167511Y-35177991D02*
X73148083Y-35165892D01*
X74564380Y-34537027D02*
X74559306Y-34560725D01*
X65712952Y-35497564D02*
X65742087Y-35521255D01*
X74738734Y-33096388D02*
X74709249Y-33071373D01*
X74273285Y-35818612D02*
X74310819Y-35803323D01*
X65190769Y-34105670D02*
X65186641Y-34145141D01*
X72649621Y-33022022D02*
X72618884Y-33045223D01*
X78111626Y-34227822D02*
X78133443Y-34187893D01*
X77368438Y-33640268D02*
X77379580Y-33633023D01*
X71181435Y-34208565D02*
X71156878Y-34192809D01*
X70823006Y-35485616D02*
X70829752Y-35485445D01*
X77577284Y-34143989D02*
X77563764Y-34146439D01*
X65932172Y-33983198D02*
X65939780Y-33961281D01*
X68019216Y-33750160D02*
X67983785Y-33726010D01*
X74449752Y-32897705D02*
X74414382Y-32879283D01*
X72502304Y-33145023D02*
X72474759Y-33171723D01*
X76835439Y-33871173D02*
X76835851Y-33895513D01*
X72511274Y-34070693D02*
X72522773Y-34077400D01*
X71393780Y-35144631D02*
X71405572Y-35123601D01*
X66016609Y-34838919D02*
X66005568Y-34820132D01*
X66623829Y-35236222D02*
X66600385Y-35232372D01*
X77640988Y-34122180D02*
X77628825Y-34127758D01*
X67406733Y-34138431D02*
X67415365Y-34128326D01*
X74584941Y-34366056D02*
X74583606Y-34391031D01*
X75134517Y-35022914D02*
X75150738Y-34987259D01*
X77042982Y-34369889D02*
X77059234Y-34385437D01*
X65712953Y-33129639D02*
X65684473Y-33153921D01*
X73892167Y-35277295D02*
X73868920Y-35283139D01*
X66248139Y-35089514D02*
X66230704Y-35076934D01*
X65311802Y-33660805D02*
X65296739Y-33695793D01*
X74110642Y-32761279D02*
X74070609Y-32750828D01*
X67782900Y-34092410D02*
X67793274Y-34100678D01*
X70858206Y-35062368D02*
X70844686Y-35064818D01*
X68254371Y-34578895D02*
X68269495Y-34537659D01*
X67749492Y-34560406D02*
X67737652Y-34566557D01*
X65880422Y-34315550D02*
X65880689Y-34290231D01*
X73156246Y-33469421D02*
X73175856Y-33457121D01*
X72160360Y-34148952D02*
X72168514Y-34138431D01*
X74397785Y-33700819D02*
X74410770Y-33719587D01*
X73136997Y-33482161D02*
X73156246Y-33469421D01*
X67092734Y-34763050D02*
X67108071Y-34780942D01*
X74553699Y-34039248D02*
X74559306Y-34062610D01*
X67860071Y-34182831D02*
X67866137Y-34194838D01*
X72435729Y-34042733D02*
X72449013Y-34045843D01*
X74155548Y-33465520D02*
X74174365Y-33478089D01*
X67890058Y-34273151D02*
X67891805Y-34287085D01*
X66665175Y-35866675D02*
X66708601Y-35869006D01*
X73429675Y-32713460D02*
X73387639Y-32718946D01*
X70802876Y-35068027D02*
X70788748Y-35067665D01*
X66936109Y-34391173D02*
X66939184Y-34415881D01*
X65481807Y-35255063D02*
X65504515Y-35284422D01*
X74713663Y-35562443D02*
X74743096Y-35537809D01*
X71068834Y-34719971D02*
X71071901Y-34733442D01*
X75666904Y-35870868D02*
X77857908Y-35870868D01*
X65964294Y-35667550D02*
X65998636Y-35685638D01*
X67108071Y-34780942D02*
X67123990Y-34798291D01*
X75263503Y-34030901D02*
X75256274Y-33991562D01*
X72608095Y-34471229D02*
X72600438Y-34482148D01*
X65889989Y-34474695D02*
X65887071Y-34450442D01*
X71465454Y-34606691D02*
X71457049Y-34577808D01*
X78201984Y-33967221D02*
X78206829Y-33919644D01*
X73982188Y-35247714D02*
X73960130Y-35256042D01*
X73051248Y-34464198D02*
X73058024Y-34427946D01*
X72887359Y-34905381D02*
X72871746Y-34880926D01*
X71807909Y-34699835D02*
X71822716Y-34721562D01*
X65881488Y-34375791D02*
X65880689Y-34350273D01*
X74568919Y-34513148D02*
X74564380Y-34537027D01*
X77427552Y-33609599D02*
X77440311Y-33605220D01*
X67037527Y-34686381D02*
X67050378Y-34706283D01*
X65925079Y-34005357D02*
X65932172Y-33983198D01*
X77166591Y-34466982D02*
X77186000Y-34478488D01*
X72261365Y-34566557D02*
X72249524Y-34560406D01*
X67290971Y-34927490D02*
X67311878Y-34938565D01*
X65880689Y-34350273D02*
X65880422Y-34324437D01*
X71037716Y-34933932D02*
X71030572Y-34945231D01*
X77603597Y-33605220D02*
X77616355Y-33609599D01*
X72574559Y-34118654D02*
X72583652Y-34128326D01*
X71473215Y-34940617D02*
X71478089Y-34916142D01*
X72642655Y-34398344D02*
X72638337Y-34411282D01*
X72975165Y-33967620D02*
X72956934Y-33937407D01*
X68216871Y-34657424D02*
X68236799Y-34618848D01*
X72717887Y-35652716D02*
X72750612Y-35674111D01*
X77563764Y-34146439D02*
X77550024Y-34148210D01*
X76849867Y-33728550D02*
X76841923Y-33775125D01*
X67356362Y-34232756D02*
X67360680Y-34219818D01*
X77440311Y-33605220D02*
X77453340Y-33601466D01*
X74771897Y-35512470D02*
X74800066Y-35486424D01*
X70314456Y-34300469D02*
X70299153Y-34316664D01*
X65865159Y-33018822D02*
X65833413Y-33039574D01*
X73580391Y-33325889D02*
X73605299Y-33324344D01*
X66164864Y-35022194D02*
X66149379Y-35007409D01*
X67524216Y-34577123D02*
X67511747Y-34572135D01*
X65880689Y-34290231D02*
X65881488Y-34265155D01*
X70761066Y-35064818D02*
X70747546Y-35062368D01*
X77247706Y-33856846D02*
X77248766Y-33842708D01*
X73472154Y-32708970D02*
X73429675Y-32713460D01*
X68304758Y-34292339D02*
X68303645Y-34269319D01*
X72408469Y-34592587D02*
X72394526Y-34593663D01*
X73555731Y-33328052D02*
X73580391Y-33325889D01*
X67230892Y-33740956D02*
X67193192Y-33769136D01*
X74795722Y-33148636D02*
X74767559Y-33122142D01*
X66752492Y-32760693D02*
X66708602Y-32762078D01*
X72867797Y-34805901D02*
X72891784Y-34780108D01*
X66720360Y-35246451D02*
X66695812Y-35244666D01*
X77741993Y-34037771D02*
X77733839Y-34048291D01*
X72352329Y-34592587D02*
X72338589Y-34590816D01*
X77264016Y-33966905D02*
X77259698Y-33953967D01*
X74034461Y-33399838D02*
X74055625Y-33409624D01*
X73216156Y-33433840D02*
X73236845Y-33422858D01*
X73020195Y-34568593D02*
X73032282Y-34534573D01*
X74013006Y-33390579D02*
X74034461Y-33399838D01*
X78074339Y-33457770D02*
X78060747Y-33439743D01*
X68143882Y-33867160D02*
X68115460Y-33835040D01*
X72882419Y-32879154D02*
X72847284Y-32897474D01*
X72055216Y-34928791D02*
X72078517Y-34940953D01*
X77248766Y-33842708D02*
X77250513Y-33828774D01*
X72474801Y-34053976D02*
X72487270Y-34058964D01*
X77796202Y-33856846D02*
X77796560Y-33871173D01*
X77857908Y-34478488D02*
X77896314Y-34454857D01*
X77725207Y-33683949D02*
X77733839Y-33694054D01*
X71478596Y-34665943D02*
X71472646Y-34636080D01*
X76932282Y-34227822D02*
X76944116Y-34247172D01*
X73605299Y-33324344D02*
X73630454Y-33323417D01*
X77706576Y-34077290D02*
X77696611Y-34086044D01*
X72106151Y-34329876D02*
X72105793Y-34315550D01*
X74070609Y-32750828D02*
X74030147Y-32741369D01*
X73915119Y-35270831D02*
X73892167Y-35277295D01*
X71453654Y-35012066D02*
X71460981Y-34988595D01*
X77255996Y-33940754D02*
X77252929Y-33927283D01*
X72975476Y-35019739D02*
X72956524Y-34997923D01*
X73436163Y-33348136D02*
X73459578Y-33342883D01*
X65965487Y-34741493D02*
X65956490Y-34720962D01*
X72956934Y-33937407D02*
X72937261Y-33908237D01*
X65181136Y-34397150D02*
X65183429Y-34437412D01*
X72914462Y-34753105D02*
X72935782Y-34724945D01*
X74584941Y-34256366D02*
X74585742Y-34281423D01*
X70988088Y-35870868D02*
X71676649Y-35870868D01*
X67983785Y-33726010D02*
X67983785Y-32760231D01*
X72102323Y-34952230D02*
X72126613Y-34962600D01*
X77147593Y-33287489D02*
X77110883Y-33313539D01*
X77749650Y-34026852D02*
X77741993Y-34037771D01*
X67871637Y-34423927D02*
X67866137Y-34436262D01*
X67983785Y-32760231D02*
X66796846Y-32760232D01*
X67812777Y-34118654D02*
X67821871Y-34128326D01*
X72960870Y-33638066D02*
X72980150Y-33616693D01*
X73845377Y-35288364D02*
X73821540Y-35292971D01*
X71055896Y-34897929D02*
X71050395Y-34910263D01*
X77042982Y-33372457D02*
X77012008Y-33405109D01*
X72449013Y-34045843D02*
X72462043Y-34049597D01*
X74559306Y-34560725D02*
X74553699Y-34584245D01*
X70284367Y-34333358D02*
X70270112Y-34350536D01*
X76910465Y-33554453D02*
X76891207Y-33595929D01*
X66134285Y-33643356D02*
X66149379Y-33628125D01*
X67002997Y-34623958D02*
X67013822Y-34645203D01*
X74423337Y-33738686D02*
X74435487Y-33758116D01*
X72522773Y-34553699D02*
X72511274Y-34560406D01*
X73065909Y-34353570D02*
X73066913Y-34315550D01*
X71024368Y-34130222D02*
X70996125Y-34121151D01*
X67193192Y-33769136D02*
X67157517Y-33799794D01*
X77590568Y-33601466D02*
X77603597Y-33605220D01*
X70330264Y-34284787D02*
X70314456Y-34300469D01*
X68287385Y-34157492D02*
X68282076Y-34135864D01*
X67830503Y-34138431D02*
X67838656Y-34148952D01*
X72111374Y-34371660D02*
X72108958Y-34357949D01*
X70167816Y-34524569D02*
X70159574Y-34545803D01*
X73782266Y-33330641D02*
X73806665Y-33333950D01*
X72107211Y-34344015D02*
X72106151Y-34329876D01*
X73322854Y-33383669D02*
X73345012Y-33375326D01*
X74901537Y-33261217D02*
X74876177Y-33232208D01*
X72314992Y-35259573D02*
X72336501Y-35289014D01*
X66381116Y-33468872D02*
X66401674Y-33459617D01*
X77536081Y-33593059D02*
X77550024Y-33594135D01*
X78169291Y-33638843D02*
X78161336Y-33617213D01*
X72422209Y-34590816D02*
X72408469Y-34592587D01*
X72448768Y-33198216D02*
X72423489Y-33225257D01*
X72118143Y-34232756D02*
X72122461Y-34219818D01*
X68019216Y-34880939D02*
X68053034Y-34854654D01*
X72890532Y-33728974D02*
X72907079Y-33705420D01*
X73956507Y-35905721D02*
X73997689Y-35898271D01*
X72474759Y-33171723D02*
X72448768Y-33198216D01*
X66284181Y-35113343D02*
X66265965Y-35101651D01*
X71483275Y-34696252D02*
X71478596Y-34665943D01*
X77896314Y-33287489D02*
X77877316Y-33275364D01*
X72114441Y-34385131D02*
X72111374Y-34371660D01*
X73531319Y-33330833D02*
X73555731Y-33328052D01*
X74579333Y-34182298D02*
X74581737Y-34206802D01*
X66623829Y-33395553D02*
X66647548Y-33392060D01*
X65939780Y-33961281D02*
X65947904Y-33939607D01*
X66671542Y-33389101D02*
X66695812Y-33386677D01*
X74930340Y-35346739D02*
X74954159Y-35317027D01*
X77493884Y-34148210D02*
X77480144Y-34146439D01*
X72583652Y-34502773D02*
X72574559Y-34512446D01*
X74384382Y-33682382D02*
X74397785Y-33700819D01*
X66554318Y-33409221D02*
X66577215Y-33404135D01*
X74221773Y-35108573D02*
X74203739Y-35122609D01*
X77628825Y-33614587D02*
X77640988Y-33620165D01*
X66033625Y-35703017D02*
X66069260Y-35719686D01*
X75117526Y-35057972D02*
X75134517Y-35022914D01*
X70696005Y-35046137D02*
X70683842Y-35040559D01*
X72479433Y-35455228D02*
X72506978Y-35482470D01*
X65974893Y-33876751D02*
X65984709Y-33856532D01*
X78133443Y-34187893D02*
X78152701Y-34146417D01*
X70540620Y-34872346D02*
X70536918Y-34859133D01*
X67550004Y-34045843D02*
X67563287Y-34042733D01*
X74341701Y-32844617D02*
X74304393Y-32828369D01*
X65398605Y-33494422D02*
X65379714Y-33526557D01*
X67013822Y-33985894D02*
X66992878Y-34028801D01*
X73450851Y-35288883D02*
X73427472Y-35283807D01*
X65897402Y-34119802D02*
X65901895Y-34096427D01*
X73187332Y-35189630D02*
X73167511Y-35177991D01*
X70265031Y-35222354D02*
X70291082Y-35253679D01*
X66422622Y-35182675D02*
X66401674Y-35174118D01*
X75238931Y-33913872D02*
X75228818Y-33875520D01*
X77453340Y-34140879D02*
X77440311Y-34137125D01*
X72621853Y-34182831D02*
X72627918Y-34194838D01*
D11*
X77103220Y-40566819D02*
X77103220Y-41376342D01*
X77103220Y-41376342D02*
X77055601Y-41471580D01*
X77055601Y-41471580D02*
X77007982Y-41519200D01*
X77007982Y-41519200D02*
X76912744Y-41566819D01*
X76912744Y-41566819D02*
X76722268Y-41566819D01*
X76722268Y-41566819D02*
X76627030Y-41519200D01*
X76627030Y-41519200D02*
X76579411Y-41471580D01*
X76579411Y-41471580D02*
X76531792Y-41376342D01*
X76531792Y-41376342D02*
X76531792Y-40566819D01*
X75722268Y-41043009D02*
X75579411Y-41090628D01*
X75579411Y-41090628D02*
X75531792Y-41138247D01*
X75531792Y-41138247D02*
X75484173Y-41233485D01*
X75484173Y-41233485D02*
X75484173Y-41376342D01*
X75484173Y-41376342D02*
X75531792Y-41471580D01*
X75531792Y-41471580D02*
X75579411Y-41519200D01*
X75579411Y-41519200D02*
X75674649Y-41566819D01*
X75674649Y-41566819D02*
X76055601Y-41566819D01*
X76055601Y-41566819D02*
X76055601Y-40566819D01*
X76055601Y-40566819D02*
X75722268Y-40566819D01*
X75722268Y-40566819D02*
X75627030Y-40614438D01*
X75627030Y-40614438D02*
X75579411Y-40662057D01*
X75579411Y-40662057D02*
X75531792Y-40757295D01*
X75531792Y-40757295D02*
X75531792Y-40852533D01*
X75531792Y-40852533D02*
X75579411Y-40947771D01*
X75579411Y-40947771D02*
X75627030Y-40995390D01*
X75627030Y-40995390D02*
X75722268Y-41043009D01*
X75722268Y-41043009D02*
X76055601Y-41043009D01*
X75055601Y-41566819D02*
X75055601Y-40566819D01*
X75055601Y-40566819D02*
X74674649Y-40566819D01*
X74674649Y-40566819D02*
X74579411Y-40614438D01*
X74579411Y-40614438D02*
X74531792Y-40662057D01*
X74531792Y-40662057D02*
X74484173Y-40757295D01*
X74484173Y-40757295D02*
X74484173Y-40900152D01*
X74484173Y-40900152D02*
X74531792Y-40995390D01*
X74531792Y-40995390D02*
X74579411Y-41043009D01*
X74579411Y-41043009D02*
X74674649Y-41090628D01*
X74674649Y-41090628D02*
X75055601Y-41090628D01*
X74055601Y-41043009D02*
X73722268Y-41043009D01*
X73579411Y-41566819D02*
X74055601Y-41566819D01*
X74055601Y-41566819D02*
X74055601Y-40566819D01*
X74055601Y-40566819D02*
X73579411Y-40566819D01*
X72436553Y-40662057D02*
X72388934Y-40614438D01*
X72388934Y-40614438D02*
X72293696Y-40566819D01*
X72293696Y-40566819D02*
X72055601Y-40566819D01*
X72055601Y-40566819D02*
X71960363Y-40614438D01*
X71960363Y-40614438D02*
X71912744Y-40662057D01*
X71912744Y-40662057D02*
X71865125Y-40757295D01*
X71865125Y-40757295D02*
X71865125Y-40852533D01*
X71865125Y-40852533D02*
X71912744Y-40995390D01*
X71912744Y-40995390D02*
X72484172Y-41566819D01*
X72484172Y-41566819D02*
X71865125Y-41566819D01*
X71246077Y-40566819D02*
X71150839Y-40566819D01*
X71150839Y-40566819D02*
X71055601Y-40614438D01*
X71055601Y-40614438D02*
X71007982Y-40662057D01*
X71007982Y-40662057D02*
X70960363Y-40757295D01*
X70960363Y-40757295D02*
X70912744Y-40947771D01*
X70912744Y-40947771D02*
X70912744Y-41185866D01*
X70912744Y-41185866D02*
X70960363Y-41376342D01*
X70960363Y-41376342D02*
X71007982Y-41471580D01*
X71007982Y-41471580D02*
X71055601Y-41519200D01*
X71055601Y-41519200D02*
X71150839Y-41566819D01*
X71150839Y-41566819D02*
X71246077Y-41566819D01*
X71246077Y-41566819D02*
X71341315Y-41519200D01*
X71341315Y-41519200D02*
X71388934Y-41471580D01*
X71388934Y-41471580D02*
X71436553Y-41376342D01*
X71436553Y-41376342D02*
X71484172Y-41185866D01*
X71484172Y-41185866D02*
X71484172Y-40947771D01*
X71484172Y-40947771D02*
X71436553Y-40757295D01*
X71436553Y-40757295D02*
X71388934Y-40662057D01*
X71388934Y-40662057D02*
X71341315Y-40614438D01*
X71341315Y-40614438D02*
X71246077Y-40566819D01*
X70531791Y-40662057D02*
X70484172Y-40614438D01*
X70484172Y-40614438D02*
X70388934Y-40566819D01*
X70388934Y-40566819D02*
X70150839Y-40566819D01*
X70150839Y-40566819D02*
X70055601Y-40614438D01*
X70055601Y-40614438D02*
X70007982Y-40662057D01*
X70007982Y-40662057D02*
X69960363Y-40757295D01*
X69960363Y-40757295D02*
X69960363Y-40852533D01*
X69960363Y-40852533D02*
X70007982Y-40995390D01*
X70007982Y-40995390D02*
X70579410Y-41566819D01*
X70579410Y-41566819D02*
X69960363Y-41566819D01*
X69627029Y-40566819D02*
X69007982Y-40566819D01*
X69007982Y-40566819D02*
X69341315Y-40947771D01*
X69341315Y-40947771D02*
X69198458Y-40947771D01*
X69198458Y-40947771D02*
X69103220Y-40995390D01*
X69103220Y-40995390D02*
X69055601Y-41043009D01*
X69055601Y-41043009D02*
X69007982Y-41138247D01*
X69007982Y-41138247D02*
X69007982Y-41376342D01*
X69007982Y-41376342D02*
X69055601Y-41471580D01*
X69055601Y-41471580D02*
X69103220Y-41519200D01*
X69103220Y-41519200D02*
X69198458Y-41566819D01*
X69198458Y-41566819D02*
X69484172Y-41566819D01*
X69484172Y-41566819D02*
X69579410Y-41519200D01*
X69579410Y-41519200D02*
X69627029Y-41471580D01*
X76531792Y-43081580D02*
X76579411Y-43129200D01*
X76579411Y-43129200D02*
X76722268Y-43176819D01*
X76722268Y-43176819D02*
X76817506Y-43176819D01*
X76817506Y-43176819D02*
X76960363Y-43129200D01*
X76960363Y-43129200D02*
X77055601Y-43033961D01*
X77055601Y-43033961D02*
X77103220Y-42938723D01*
X77103220Y-42938723D02*
X77150839Y-42748247D01*
X77150839Y-42748247D02*
X77150839Y-42605390D01*
X77150839Y-42605390D02*
X77103220Y-42414914D01*
X77103220Y-42414914D02*
X77055601Y-42319676D01*
X77055601Y-42319676D02*
X76960363Y-42224438D01*
X76960363Y-42224438D02*
X76817506Y-42176819D01*
X76817506Y-42176819D02*
X76722268Y-42176819D01*
X76722268Y-42176819D02*
X76579411Y-42224438D01*
X76579411Y-42224438D02*
X76531792Y-42272057D01*
X75912744Y-42176819D02*
X75722268Y-42176819D01*
X75722268Y-42176819D02*
X75627030Y-42224438D01*
X75627030Y-42224438D02*
X75531792Y-42319676D01*
X75531792Y-42319676D02*
X75484173Y-42510152D01*
X75484173Y-42510152D02*
X75484173Y-42843485D01*
X75484173Y-42843485D02*
X75531792Y-43033961D01*
X75531792Y-43033961D02*
X75627030Y-43129200D01*
X75627030Y-43129200D02*
X75722268Y-43176819D01*
X75722268Y-43176819D02*
X75912744Y-43176819D01*
X75912744Y-43176819D02*
X76007982Y-43129200D01*
X76007982Y-43129200D02*
X76103220Y-43033961D01*
X76103220Y-43033961D02*
X76150839Y-42843485D01*
X76150839Y-42843485D02*
X76150839Y-42510152D01*
X76150839Y-42510152D02*
X76103220Y-42319676D01*
X76103220Y-42319676D02*
X76007982Y-42224438D01*
X76007982Y-42224438D02*
X75912744Y-42176819D01*
X75103220Y-42272057D02*
X75055601Y-42224438D01*
X75055601Y-42224438D02*
X74960363Y-42176819D01*
X74960363Y-42176819D02*
X74722268Y-42176819D01*
X74722268Y-42176819D02*
X74627030Y-42224438D01*
X74627030Y-42224438D02*
X74579411Y-42272057D01*
X74579411Y-42272057D02*
X74531792Y-42367295D01*
X74531792Y-42367295D02*
X74531792Y-42462533D01*
X74531792Y-42462533D02*
X74579411Y-42605390D01*
X74579411Y-42605390D02*
X75150839Y-43176819D01*
X75150839Y-43176819D02*
X74531792Y-43176819D01*
X73341315Y-43176819D02*
X73341315Y-42176819D01*
X73341315Y-42176819D02*
X72960363Y-42176819D01*
X72960363Y-42176819D02*
X72865125Y-42224438D01*
X72865125Y-42224438D02*
X72817506Y-42272057D01*
X72817506Y-42272057D02*
X72769887Y-42367295D01*
X72769887Y-42367295D02*
X72769887Y-42510152D01*
X72769887Y-42510152D02*
X72817506Y-42605390D01*
X72817506Y-42605390D02*
X72865125Y-42653009D01*
X72865125Y-42653009D02*
X72960363Y-42700628D01*
X72960363Y-42700628D02*
X73341315Y-42700628D01*
X72436553Y-42510152D02*
X72246077Y-43176819D01*
X72246077Y-43176819D02*
X72055601Y-42700628D01*
X72055601Y-42700628D02*
X71865125Y-43176819D01*
X71865125Y-43176819D02*
X71674649Y-42510152D01*
X71293696Y-43176819D02*
X71293696Y-42510152D01*
X71293696Y-42700628D02*
X71246077Y-42605390D01*
X71246077Y-42605390D02*
X71198458Y-42557771D01*
X71198458Y-42557771D02*
X71103220Y-42510152D01*
X71103220Y-42510152D02*
X71007982Y-42510152D01*
X69960362Y-43129200D02*
X69817505Y-43176819D01*
X69817505Y-43176819D02*
X69579410Y-43176819D01*
X69579410Y-43176819D02*
X69484172Y-43129200D01*
X69484172Y-43129200D02*
X69436553Y-43081580D01*
X69436553Y-43081580D02*
X69388934Y-42986342D01*
X69388934Y-42986342D02*
X69388934Y-42891104D01*
X69388934Y-42891104D02*
X69436553Y-42795866D01*
X69436553Y-42795866D02*
X69484172Y-42748247D01*
X69484172Y-42748247D02*
X69579410Y-42700628D01*
X69579410Y-42700628D02*
X69769886Y-42653009D01*
X69769886Y-42653009D02*
X69865124Y-42605390D01*
X69865124Y-42605390D02*
X69912743Y-42557771D01*
X69912743Y-42557771D02*
X69960362Y-42462533D01*
X69960362Y-42462533D02*
X69960362Y-42367295D01*
X69960362Y-42367295D02*
X69912743Y-42272057D01*
X69912743Y-42272057D02*
X69865124Y-42224438D01*
X69865124Y-42224438D02*
X69769886Y-42176819D01*
X69769886Y-42176819D02*
X69531791Y-42176819D01*
X69531791Y-42176819D02*
X69388934Y-42224438D01*
X68531791Y-42510152D02*
X68531791Y-43176819D01*
X68960362Y-42510152D02*
X68960362Y-43033961D01*
X68960362Y-43033961D02*
X68912743Y-43129200D01*
X68912743Y-43129200D02*
X68817505Y-43176819D01*
X68817505Y-43176819D02*
X68674648Y-43176819D01*
X68674648Y-43176819D02*
X68579410Y-43129200D01*
X68579410Y-43129200D02*
X68531791Y-43081580D01*
X68055600Y-42510152D02*
X68055600Y-43510152D01*
X68055600Y-42557771D02*
X67960362Y-42510152D01*
X67960362Y-42510152D02*
X67769886Y-42510152D01*
X67769886Y-42510152D02*
X67674648Y-42557771D01*
X67674648Y-42557771D02*
X67627029Y-42605390D01*
X67627029Y-42605390D02*
X67579410Y-42700628D01*
X67579410Y-42700628D02*
X67579410Y-42986342D01*
X67579410Y-42986342D02*
X67627029Y-43081580D01*
X67627029Y-43081580D02*
X67674648Y-43129200D01*
X67674648Y-43129200D02*
X67769886Y-43176819D01*
X67769886Y-43176819D02*
X67960362Y-43176819D01*
X67960362Y-43176819D02*
X68055600Y-43129200D01*
X67150838Y-42510152D02*
X67150838Y-43510152D01*
X67150838Y-42557771D02*
X67055600Y-42510152D01*
X67055600Y-42510152D02*
X66865124Y-42510152D01*
X66865124Y-42510152D02*
X66769886Y-42557771D01*
X66769886Y-42557771D02*
X66722267Y-42605390D01*
X66722267Y-42605390D02*
X66674648Y-42700628D01*
X66674648Y-42700628D02*
X66674648Y-42986342D01*
X66674648Y-42986342D02*
X66722267Y-43081580D01*
X66722267Y-43081580D02*
X66769886Y-43129200D01*
X66769886Y-43129200D02*
X66865124Y-43176819D01*
X66865124Y-43176819D02*
X67055600Y-43176819D01*
X67055600Y-43176819D02*
X67150838Y-43129200D01*
X66103219Y-43176819D02*
X66198457Y-43129200D01*
X66198457Y-43129200D02*
X66246076Y-43033961D01*
X66246076Y-43033961D02*
X66246076Y-42176819D01*
X65817504Y-42510152D02*
X65579409Y-43176819D01*
X65341314Y-42510152D02*
X65579409Y-43176819D01*
X65579409Y-43176819D02*
X65674647Y-43414914D01*
X65674647Y-43414914D02*
X65722266Y-43462533D01*
X65722266Y-43462533D02*
X65817504Y-43510152D01*
X64912742Y-43129200D02*
X64912742Y-43176819D01*
X64912742Y-43176819D02*
X64960361Y-43272057D01*
X64960361Y-43272057D02*
X65007980Y-43319676D01*
X63817504Y-42510152D02*
X63579409Y-43176819D01*
X63579409Y-43176819D02*
X63341314Y-42510152D01*
X62436552Y-43176819D02*
X63007980Y-43176819D01*
X62722266Y-43176819D02*
X62722266Y-42176819D01*
X62722266Y-42176819D02*
X62817504Y-42319676D01*
X62817504Y-42319676D02*
X62912742Y-42414914D01*
X62912742Y-42414914D02*
X63007980Y-42462533D01*
X62007980Y-43081580D02*
X61960361Y-43129200D01*
X61960361Y-43129200D02*
X62007980Y-43176819D01*
X62007980Y-43176819D02*
X62055599Y-43129200D01*
X62055599Y-43129200D02*
X62007980Y-43081580D01*
X62007980Y-43081580D02*
X62007980Y-43176819D01*
X61341314Y-42176819D02*
X61246076Y-42176819D01*
X61246076Y-42176819D02*
X61150838Y-42224438D01*
X61150838Y-42224438D02*
X61103219Y-42272057D01*
X61103219Y-42272057D02*
X61055600Y-42367295D01*
X61055600Y-42367295D02*
X61007981Y-42557771D01*
X61007981Y-42557771D02*
X61007981Y-42795866D01*
X61007981Y-42795866D02*
X61055600Y-42986342D01*
X61055600Y-42986342D02*
X61103219Y-43081580D01*
X61103219Y-43081580D02*
X61150838Y-43129200D01*
X61150838Y-43129200D02*
X61246076Y-43176819D01*
X61246076Y-43176819D02*
X61341314Y-43176819D01*
X61341314Y-43176819D02*
X61436552Y-43129200D01*
X61436552Y-43129200D02*
X61484171Y-43081580D01*
X61484171Y-43081580D02*
X61531790Y-42986342D01*
X61531790Y-42986342D02*
X61579409Y-42795866D01*
X61579409Y-42795866D02*
X61579409Y-42557771D01*
X61579409Y-42557771D02*
X61531790Y-42367295D01*
X61531790Y-42367295D02*
X61484171Y-42272057D01*
X61484171Y-42272057D02*
X61436552Y-42224438D01*
X61436552Y-42224438D02*
X61341314Y-42176819D01*
X77502429Y-38096819D02*
X77502429Y-37096819D01*
X77502429Y-37096819D02*
X77121477Y-37096819D01*
X77121477Y-37096819D02*
X77026239Y-37144438D01*
X77026239Y-37144438D02*
X76978620Y-37192057D01*
X76978620Y-37192057D02*
X76931001Y-37287295D01*
X76931001Y-37287295D02*
X76931001Y-37430152D01*
X76931001Y-37430152D02*
X76978620Y-37525390D01*
X76978620Y-37525390D02*
X77026239Y-37573009D01*
X77026239Y-37573009D02*
X77121477Y-37620628D01*
X77121477Y-37620628D02*
X77502429Y-37620628D01*
X76502429Y-38096819D02*
X76502429Y-37430152D01*
X76502429Y-37620628D02*
X76454810Y-37525390D01*
X76454810Y-37525390D02*
X76407191Y-37477771D01*
X76407191Y-37477771D02*
X76311953Y-37430152D01*
X76311953Y-37430152D02*
X76216715Y-37430152D01*
X75740524Y-38096819D02*
X75835762Y-38049200D01*
X75835762Y-38049200D02*
X75883381Y-38001580D01*
X75883381Y-38001580D02*
X75931000Y-37906342D01*
X75931000Y-37906342D02*
X75931000Y-37620628D01*
X75931000Y-37620628D02*
X75883381Y-37525390D01*
X75883381Y-37525390D02*
X75835762Y-37477771D01*
X75835762Y-37477771D02*
X75740524Y-37430152D01*
X75740524Y-37430152D02*
X75597667Y-37430152D01*
X75597667Y-37430152D02*
X75502429Y-37477771D01*
X75502429Y-37477771D02*
X75454810Y-37525390D01*
X75454810Y-37525390D02*
X75407191Y-37620628D01*
X75407191Y-37620628D02*
X75407191Y-37906342D01*
X75407191Y-37906342D02*
X75454810Y-38001580D01*
X75454810Y-38001580D02*
X75502429Y-38049200D01*
X75502429Y-38049200D02*
X75597667Y-38096819D01*
X75597667Y-38096819D02*
X75740524Y-38096819D01*
X74550048Y-37430152D02*
X74550048Y-38096819D01*
X74978619Y-37430152D02*
X74978619Y-37953961D01*
X74978619Y-37953961D02*
X74931000Y-38049200D01*
X74931000Y-38049200D02*
X74835762Y-38096819D01*
X74835762Y-38096819D02*
X74692905Y-38096819D01*
X74692905Y-38096819D02*
X74597667Y-38049200D01*
X74597667Y-38049200D02*
X74550048Y-38001580D01*
X73645286Y-38096819D02*
X73645286Y-37096819D01*
X73645286Y-38049200D02*
X73740524Y-38096819D01*
X73740524Y-38096819D02*
X73931000Y-38096819D01*
X73931000Y-38096819D02*
X74026238Y-38049200D01*
X74026238Y-38049200D02*
X74073857Y-38001580D01*
X74073857Y-38001580D02*
X74121476Y-37906342D01*
X74121476Y-37906342D02*
X74121476Y-37620628D01*
X74121476Y-37620628D02*
X74073857Y-37525390D01*
X74073857Y-37525390D02*
X74026238Y-37477771D01*
X74026238Y-37477771D02*
X73931000Y-37430152D01*
X73931000Y-37430152D02*
X73740524Y-37430152D01*
X73740524Y-37430152D02*
X73645286Y-37477771D01*
X73026238Y-38096819D02*
X73121476Y-38049200D01*
X73121476Y-38049200D02*
X73169095Y-37953961D01*
X73169095Y-37953961D02*
X73169095Y-37096819D01*
X72740523Y-37430152D02*
X72502428Y-38096819D01*
X72264333Y-37430152D02*
X72502428Y-38096819D01*
X72502428Y-38096819D02*
X72597666Y-38334914D01*
X72597666Y-38334914D02*
X72645285Y-38382533D01*
X72645285Y-38382533D02*
X72740523Y-38430152D01*
X71121475Y-38096819D02*
X71121475Y-37430152D01*
X71121475Y-37525390D02*
X71073856Y-37477771D01*
X71073856Y-37477771D02*
X70978618Y-37430152D01*
X70978618Y-37430152D02*
X70835761Y-37430152D01*
X70835761Y-37430152D02*
X70740523Y-37477771D01*
X70740523Y-37477771D02*
X70692904Y-37573009D01*
X70692904Y-37573009D02*
X70692904Y-38096819D01*
X70692904Y-37573009D02*
X70645285Y-37477771D01*
X70645285Y-37477771D02*
X70550047Y-37430152D01*
X70550047Y-37430152D02*
X70407190Y-37430152D01*
X70407190Y-37430152D02*
X70311951Y-37477771D01*
X70311951Y-37477771D02*
X70264332Y-37573009D01*
X70264332Y-37573009D02*
X70264332Y-38096819D01*
X69359571Y-38096819D02*
X69359571Y-37573009D01*
X69359571Y-37573009D02*
X69407190Y-37477771D01*
X69407190Y-37477771D02*
X69502428Y-37430152D01*
X69502428Y-37430152D02*
X69692904Y-37430152D01*
X69692904Y-37430152D02*
X69788142Y-37477771D01*
X69359571Y-38049200D02*
X69454809Y-38096819D01*
X69454809Y-38096819D02*
X69692904Y-38096819D01*
X69692904Y-38096819D02*
X69788142Y-38049200D01*
X69788142Y-38049200D02*
X69835761Y-37953961D01*
X69835761Y-37953961D02*
X69835761Y-37858723D01*
X69835761Y-37858723D02*
X69788142Y-37763485D01*
X69788142Y-37763485D02*
X69692904Y-37715866D01*
X69692904Y-37715866D02*
X69454809Y-37715866D01*
X69454809Y-37715866D02*
X69359571Y-37668247D01*
X68454809Y-38096819D02*
X68454809Y-37096819D01*
X68454809Y-38049200D02*
X68550047Y-38096819D01*
X68550047Y-38096819D02*
X68740523Y-38096819D01*
X68740523Y-38096819D02*
X68835761Y-38049200D01*
X68835761Y-38049200D02*
X68883380Y-38001580D01*
X68883380Y-38001580D02*
X68930999Y-37906342D01*
X68930999Y-37906342D02*
X68930999Y-37620628D01*
X68930999Y-37620628D02*
X68883380Y-37525390D01*
X68883380Y-37525390D02*
X68835761Y-37477771D01*
X68835761Y-37477771D02*
X68740523Y-37430152D01*
X68740523Y-37430152D02*
X68550047Y-37430152D01*
X68550047Y-37430152D02*
X68454809Y-37477771D01*
X67597666Y-38049200D02*
X67692904Y-38096819D01*
X67692904Y-38096819D02*
X67883380Y-38096819D01*
X67883380Y-38096819D02*
X67978618Y-38049200D01*
X67978618Y-38049200D02*
X68026237Y-37953961D01*
X68026237Y-37953961D02*
X68026237Y-37573009D01*
X68026237Y-37573009D02*
X67978618Y-37477771D01*
X67978618Y-37477771D02*
X67883380Y-37430152D01*
X67883380Y-37430152D02*
X67692904Y-37430152D01*
X67692904Y-37430152D02*
X67597666Y-37477771D01*
X67597666Y-37477771D02*
X67550047Y-37573009D01*
X67550047Y-37573009D02*
X67550047Y-37668247D01*
X67550047Y-37668247D02*
X68026237Y-37763485D01*
X66216713Y-38096819D02*
X66311951Y-38049200D01*
X66311951Y-38049200D02*
X66359570Y-38001580D01*
X66359570Y-38001580D02*
X66407189Y-37906342D01*
X66407189Y-37906342D02*
X66407189Y-37620628D01*
X66407189Y-37620628D02*
X66359570Y-37525390D01*
X66359570Y-37525390D02*
X66311951Y-37477771D01*
X66311951Y-37477771D02*
X66216713Y-37430152D01*
X66216713Y-37430152D02*
X66073856Y-37430152D01*
X66073856Y-37430152D02*
X65978618Y-37477771D01*
X65978618Y-37477771D02*
X65930999Y-37525390D01*
X65930999Y-37525390D02*
X65883380Y-37620628D01*
X65883380Y-37620628D02*
X65883380Y-37906342D01*
X65883380Y-37906342D02*
X65930999Y-38001580D01*
X65930999Y-38001580D02*
X65978618Y-38049200D01*
X65978618Y-38049200D02*
X66073856Y-38096819D01*
X66073856Y-38096819D02*
X66216713Y-38096819D01*
X65454808Y-37430152D02*
X65454808Y-38096819D01*
X65454808Y-37525390D02*
X65407189Y-37477771D01*
X65407189Y-37477771D02*
X65311951Y-37430152D01*
X65311951Y-37430152D02*
X65169094Y-37430152D01*
X65169094Y-37430152D02*
X65073856Y-37477771D01*
X65073856Y-37477771D02*
X65026237Y-37573009D01*
X65026237Y-37573009D02*
X65026237Y-38096819D01*
X63788141Y-37573009D02*
X63454808Y-37573009D01*
X63311951Y-38096819D02*
X63788141Y-38096819D01*
X63788141Y-38096819D02*
X63788141Y-37096819D01*
X63788141Y-37096819D02*
X63311951Y-37096819D01*
X62454808Y-38096819D02*
X62454808Y-37573009D01*
X62454808Y-37573009D02*
X62502427Y-37477771D01*
X62502427Y-37477771D02*
X62597665Y-37430152D01*
X62597665Y-37430152D02*
X62788141Y-37430152D01*
X62788141Y-37430152D02*
X62883379Y-37477771D01*
X62454808Y-38049200D02*
X62550046Y-38096819D01*
X62550046Y-38096819D02*
X62788141Y-38096819D01*
X62788141Y-38096819D02*
X62883379Y-38049200D01*
X62883379Y-38049200D02*
X62930998Y-37953961D01*
X62930998Y-37953961D02*
X62930998Y-37858723D01*
X62930998Y-37858723D02*
X62883379Y-37763485D01*
X62883379Y-37763485D02*
X62788141Y-37715866D01*
X62788141Y-37715866D02*
X62550046Y-37715866D01*
X62550046Y-37715866D02*
X62454808Y-37668247D01*
X61978617Y-38096819D02*
X61978617Y-37430152D01*
X61978617Y-37620628D02*
X61930998Y-37525390D01*
X61930998Y-37525390D02*
X61883379Y-37477771D01*
X61883379Y-37477771D02*
X61788141Y-37430152D01*
X61788141Y-37430152D02*
X61692903Y-37430152D01*
X61502426Y-37430152D02*
X61121474Y-37430152D01*
X61359569Y-37096819D02*
X61359569Y-37953961D01*
X61359569Y-37953961D02*
X61311950Y-38049200D01*
X61311950Y-38049200D02*
X61216712Y-38096819D01*
X61216712Y-38096819D02*
X61121474Y-38096819D01*
X60788140Y-38096819D02*
X60788140Y-37096819D01*
X60359569Y-38096819D02*
X60359569Y-37573009D01*
X60359569Y-37573009D02*
X60407188Y-37477771D01*
X60407188Y-37477771D02*
X60502426Y-37430152D01*
X60502426Y-37430152D02*
X60645283Y-37430152D01*
X60645283Y-37430152D02*
X60740521Y-37477771D01*
X60740521Y-37477771D02*
X60788140Y-37525390D01*
D12*
%TO.C,J1*%
X62708000Y-17403000D02*
X62708000Y-17663000D01*
X62708000Y-19943000D02*
X62708000Y-21713000D01*
X62708000Y-21713000D02*
X63088000Y-21713000D01*
X70328000Y-17663000D02*
X70328000Y-17403000D01*
X70328000Y-21713000D02*
X69948000Y-21713000D01*
X70328000Y-21713000D02*
X70328000Y-19943000D01*
%TD*%
M02*
