%TF.GenerationSoftware,KiCad,Pcbnew,7.0.9*%
%TF.CreationDate,2023-11-11T09:59:14+01:00*%
%TF.ProjectId,CO2-PwrSupply,434f322d-5077-4725-9375-70706c792e6b,1.0*%
%TF.SameCoordinates,Original*%
%TF.FileFunction,Drillmap*%
%TF.FilePolarity,Positive*%
%FSLAX45Y45*%
G04 Gerber Fmt 4.5, Leading zero omitted, Abs format (unit mm)*
G04 Created by KiCad (PCBNEW 7.0.9) date 2023-11-11 09:59:14*
%MOMM*%
%LPD*%
G01*
G04 APERTURE LIST*
%ADD10C,0.150000*%
%ADD11C,0.200000*%
%ADD12C,0.100000*%
%ADD13C,0.110000*%
%ADD14C,0.130000*%
G04 APERTURE END LIST*
D10*
X4937300Y-1714500D02*
X7934500Y-1714500D01*
X7934500Y-5130800D01*
X4937300Y-5130800D01*
X4937300Y-1714500D01*
D11*
D12*
X6044300Y-4011300D02*
X6124300Y-4091300D01*
X6124300Y-4011300D02*
X6044300Y-4091300D01*
X6544300Y-4011300D02*
X6624300Y-4091300D01*
X6624300Y-4011300D02*
X6544300Y-4091300D01*
X6999289Y-2614300D02*
X7079289Y-2694300D01*
X7079289Y-2614300D02*
X6999289Y-2694300D01*
X7249289Y-2614300D02*
X7329289Y-2694300D01*
X7329289Y-2614300D02*
X7249289Y-2694300D01*
X5429300Y-2019300D02*
G75*
G03*
X5429300Y-2019300I-47500J0D01*
G01*
X5429300Y-2269300D02*
G75*
G03*
X5429300Y-2269300I-47500J0D01*
G01*
X5429300Y-2519300D02*
G75*
G03*
X5429300Y-2519300I-47500J0D01*
G01*
X5381800Y-3239300D02*
X5381800Y-3339300D01*
X5331800Y-3289300D02*
X5431800Y-3289300D01*
X5381800Y-3489300D02*
X5381800Y-3589300D01*
X5331800Y-3539300D02*
X5431800Y-3539300D01*
D13*
X5928691Y-1931191D02*
X5928691Y-1853409D01*
X5850909Y-1853409D01*
X5850909Y-1931191D01*
X5928691Y-1931191D01*
X5928691Y-2947191D02*
X5928691Y-2869409D01*
X5850909Y-2869409D01*
X5850909Y-2947191D01*
X5928691Y-2947191D01*
X6373191Y-2566191D02*
X6373191Y-2488409D01*
X6295409Y-2488409D01*
X6295409Y-2566191D01*
X6373191Y-2566191D01*
X6373191Y-3582191D02*
X6373191Y-3504409D01*
X6295409Y-3504409D01*
X6295409Y-3582191D01*
X6373191Y-3582191D01*
X7071691Y-3137691D02*
X7071691Y-3059909D01*
X6993909Y-3059909D01*
X6993909Y-3137691D01*
X7071691Y-3137691D01*
X7325691Y-3137691D02*
X7325691Y-3059909D01*
X7247909Y-3059909D01*
X7247909Y-3137691D01*
X7325691Y-3137691D01*
X7579691Y-3137691D02*
X7579691Y-3059909D01*
X7501909Y-3059909D01*
X7501909Y-3137691D01*
X7579691Y-3137691D01*
D14*
X5381800Y-4370300D02*
X5446800Y-4305300D01*
X5381800Y-4240300D01*
X5316800Y-4305300D01*
X5381800Y-4370300D01*
X5381800Y-4878300D02*
X5446800Y-4813300D01*
X5381800Y-4748300D01*
X5316800Y-4813300D01*
X5381800Y-4878300D01*
D11*
X5190577Y-5449784D02*
X5190577Y-5249784D01*
X5190577Y-5249784D02*
X5238196Y-5249784D01*
X5238196Y-5249784D02*
X5266767Y-5259308D01*
X5266767Y-5259308D02*
X5285815Y-5278355D01*
X5285815Y-5278355D02*
X5295339Y-5297403D01*
X5295339Y-5297403D02*
X5304863Y-5335498D01*
X5304863Y-5335498D02*
X5304863Y-5364070D01*
X5304863Y-5364070D02*
X5295339Y-5402165D01*
X5295339Y-5402165D02*
X5285815Y-5421212D01*
X5285815Y-5421212D02*
X5266767Y-5440260D01*
X5266767Y-5440260D02*
X5238196Y-5449784D01*
X5238196Y-5449784D02*
X5190577Y-5449784D01*
X5390577Y-5449784D02*
X5390577Y-5316450D01*
X5390577Y-5354546D02*
X5400101Y-5335498D01*
X5400101Y-5335498D02*
X5409624Y-5325974D01*
X5409624Y-5325974D02*
X5428672Y-5316450D01*
X5428672Y-5316450D02*
X5447720Y-5316450D01*
X5514386Y-5449784D02*
X5514386Y-5316450D01*
X5514386Y-5249784D02*
X5504863Y-5259308D01*
X5504863Y-5259308D02*
X5514386Y-5268831D01*
X5514386Y-5268831D02*
X5523910Y-5259308D01*
X5523910Y-5259308D02*
X5514386Y-5249784D01*
X5514386Y-5249784D02*
X5514386Y-5268831D01*
X5638196Y-5449784D02*
X5619148Y-5440260D01*
X5619148Y-5440260D02*
X5609624Y-5421212D01*
X5609624Y-5421212D02*
X5609624Y-5249784D01*
X5742958Y-5449784D02*
X5723910Y-5440260D01*
X5723910Y-5440260D02*
X5714386Y-5421212D01*
X5714386Y-5421212D02*
X5714386Y-5249784D01*
X5971529Y-5449784D02*
X5971529Y-5249784D01*
X5971529Y-5249784D02*
X6038196Y-5392641D01*
X6038196Y-5392641D02*
X6104862Y-5249784D01*
X6104862Y-5249784D02*
X6104862Y-5449784D01*
X6285815Y-5449784D02*
X6285815Y-5345022D01*
X6285815Y-5345022D02*
X6276291Y-5325974D01*
X6276291Y-5325974D02*
X6257243Y-5316450D01*
X6257243Y-5316450D02*
X6219148Y-5316450D01*
X6219148Y-5316450D02*
X6200101Y-5325974D01*
X6285815Y-5440260D02*
X6266767Y-5449784D01*
X6266767Y-5449784D02*
X6219148Y-5449784D01*
X6219148Y-5449784D02*
X6200101Y-5440260D01*
X6200101Y-5440260D02*
X6190577Y-5421212D01*
X6190577Y-5421212D02*
X6190577Y-5402165D01*
X6190577Y-5402165D02*
X6200101Y-5383117D01*
X6200101Y-5383117D02*
X6219148Y-5373593D01*
X6219148Y-5373593D02*
X6266767Y-5373593D01*
X6266767Y-5373593D02*
X6285815Y-5364070D01*
X6381053Y-5316450D02*
X6381053Y-5516450D01*
X6381053Y-5325974D02*
X6400101Y-5316450D01*
X6400101Y-5316450D02*
X6438196Y-5316450D01*
X6438196Y-5316450D02*
X6457243Y-5325974D01*
X6457243Y-5325974D02*
X6466767Y-5335498D01*
X6466767Y-5335498D02*
X6476291Y-5354546D01*
X6476291Y-5354546D02*
X6476291Y-5411689D01*
X6476291Y-5411689D02*
X6466767Y-5430736D01*
X6466767Y-5430736D02*
X6457243Y-5440260D01*
X6457243Y-5440260D02*
X6438196Y-5449784D01*
X6438196Y-5449784D02*
X6400101Y-5449784D01*
X6400101Y-5449784D02*
X6381053Y-5440260D01*
X6562005Y-5430736D02*
X6571529Y-5440260D01*
X6571529Y-5440260D02*
X6562005Y-5449784D01*
X6562005Y-5449784D02*
X6552482Y-5440260D01*
X6552482Y-5440260D02*
X6562005Y-5430736D01*
X6562005Y-5430736D02*
X6562005Y-5449784D01*
X6562005Y-5325974D02*
X6571529Y-5335498D01*
X6571529Y-5335498D02*
X6562005Y-5345022D01*
X6562005Y-5345022D02*
X6552482Y-5335498D01*
X6552482Y-5335498D02*
X6562005Y-5325974D01*
X6562005Y-5325974D02*
X6562005Y-5345022D01*
D12*
X4849800Y-5738300D02*
X4929800Y-5818300D01*
X4929800Y-5738300D02*
X4849800Y-5818300D01*
D11*
X5228672Y-5669784D02*
X5247720Y-5669784D01*
X5247720Y-5669784D02*
X5266767Y-5679308D01*
X5266767Y-5679308D02*
X5276291Y-5688831D01*
X5276291Y-5688831D02*
X5285815Y-5707879D01*
X5285815Y-5707879D02*
X5295339Y-5745974D01*
X5295339Y-5745974D02*
X5295339Y-5793593D01*
X5295339Y-5793593D02*
X5285815Y-5831688D01*
X5285815Y-5831688D02*
X5276291Y-5850736D01*
X5276291Y-5850736D02*
X5266767Y-5860260D01*
X5266767Y-5860260D02*
X5247720Y-5869784D01*
X5247720Y-5869784D02*
X5228672Y-5869784D01*
X5228672Y-5869784D02*
X5209624Y-5860260D01*
X5209624Y-5860260D02*
X5200101Y-5850736D01*
X5200101Y-5850736D02*
X5190577Y-5831688D01*
X5190577Y-5831688D02*
X5181053Y-5793593D01*
X5181053Y-5793593D02*
X5181053Y-5745974D01*
X5181053Y-5745974D02*
X5190577Y-5707879D01*
X5190577Y-5707879D02*
X5200101Y-5688831D01*
X5200101Y-5688831D02*
X5209624Y-5679308D01*
X5209624Y-5679308D02*
X5228672Y-5669784D01*
X5381053Y-5850736D02*
X5390577Y-5860260D01*
X5390577Y-5860260D02*
X5381053Y-5869784D01*
X5381053Y-5869784D02*
X5371529Y-5860260D01*
X5371529Y-5860260D02*
X5381053Y-5850736D01*
X5381053Y-5850736D02*
X5381053Y-5869784D01*
X5504863Y-5755498D02*
X5485815Y-5745974D01*
X5485815Y-5745974D02*
X5476291Y-5736450D01*
X5476291Y-5736450D02*
X5466767Y-5717403D01*
X5466767Y-5717403D02*
X5466767Y-5707879D01*
X5466767Y-5707879D02*
X5476291Y-5688831D01*
X5476291Y-5688831D02*
X5485815Y-5679308D01*
X5485815Y-5679308D02*
X5504863Y-5669784D01*
X5504863Y-5669784D02*
X5542958Y-5669784D01*
X5542958Y-5669784D02*
X5562005Y-5679308D01*
X5562005Y-5679308D02*
X5571529Y-5688831D01*
X5571529Y-5688831D02*
X5581053Y-5707879D01*
X5581053Y-5707879D02*
X5581053Y-5717403D01*
X5581053Y-5717403D02*
X5571529Y-5736450D01*
X5571529Y-5736450D02*
X5562005Y-5745974D01*
X5562005Y-5745974D02*
X5542958Y-5755498D01*
X5542958Y-5755498D02*
X5504863Y-5755498D01*
X5504863Y-5755498D02*
X5485815Y-5765022D01*
X5485815Y-5765022D02*
X5476291Y-5774546D01*
X5476291Y-5774546D02*
X5466767Y-5793593D01*
X5466767Y-5793593D02*
X5466767Y-5831688D01*
X5466767Y-5831688D02*
X5476291Y-5850736D01*
X5476291Y-5850736D02*
X5485815Y-5860260D01*
X5485815Y-5860260D02*
X5504863Y-5869784D01*
X5504863Y-5869784D02*
X5542958Y-5869784D01*
X5542958Y-5869784D02*
X5562005Y-5860260D01*
X5562005Y-5860260D02*
X5571529Y-5850736D01*
X5571529Y-5850736D02*
X5581053Y-5831688D01*
X5581053Y-5831688D02*
X5581053Y-5793593D01*
X5581053Y-5793593D02*
X5571529Y-5774546D01*
X5571529Y-5774546D02*
X5562005Y-5765022D01*
X5562005Y-5765022D02*
X5542958Y-5755498D01*
X5704862Y-5669784D02*
X5723910Y-5669784D01*
X5723910Y-5669784D02*
X5742958Y-5679308D01*
X5742958Y-5679308D02*
X5752482Y-5688831D01*
X5752482Y-5688831D02*
X5762005Y-5707879D01*
X5762005Y-5707879D02*
X5771529Y-5745974D01*
X5771529Y-5745974D02*
X5771529Y-5793593D01*
X5771529Y-5793593D02*
X5762005Y-5831688D01*
X5762005Y-5831688D02*
X5752482Y-5850736D01*
X5752482Y-5850736D02*
X5742958Y-5860260D01*
X5742958Y-5860260D02*
X5723910Y-5869784D01*
X5723910Y-5869784D02*
X5704862Y-5869784D01*
X5704862Y-5869784D02*
X5685815Y-5860260D01*
X5685815Y-5860260D02*
X5676291Y-5850736D01*
X5676291Y-5850736D02*
X5666767Y-5831688D01*
X5666767Y-5831688D02*
X5657243Y-5793593D01*
X5657243Y-5793593D02*
X5657243Y-5745974D01*
X5657243Y-5745974D02*
X5666767Y-5707879D01*
X5666767Y-5707879D02*
X5676291Y-5688831D01*
X5676291Y-5688831D02*
X5685815Y-5679308D01*
X5685815Y-5679308D02*
X5704862Y-5669784D01*
X5895339Y-5669784D02*
X5914386Y-5669784D01*
X5914386Y-5669784D02*
X5933434Y-5679308D01*
X5933434Y-5679308D02*
X5942958Y-5688831D01*
X5942958Y-5688831D02*
X5952482Y-5707879D01*
X5952482Y-5707879D02*
X5962005Y-5745974D01*
X5962005Y-5745974D02*
X5962005Y-5793593D01*
X5962005Y-5793593D02*
X5952482Y-5831688D01*
X5952482Y-5831688D02*
X5942958Y-5850736D01*
X5942958Y-5850736D02*
X5933434Y-5860260D01*
X5933434Y-5860260D02*
X5914386Y-5869784D01*
X5914386Y-5869784D02*
X5895339Y-5869784D01*
X5895339Y-5869784D02*
X5876291Y-5860260D01*
X5876291Y-5860260D02*
X5866767Y-5850736D01*
X5866767Y-5850736D02*
X5857243Y-5831688D01*
X5857243Y-5831688D02*
X5847720Y-5793593D01*
X5847720Y-5793593D02*
X5847720Y-5745974D01*
X5847720Y-5745974D02*
X5857243Y-5707879D01*
X5857243Y-5707879D02*
X5866767Y-5688831D01*
X5866767Y-5688831D02*
X5876291Y-5679308D01*
X5876291Y-5679308D02*
X5895339Y-5669784D01*
X6047720Y-5869784D02*
X6047720Y-5736450D01*
X6047720Y-5755498D02*
X6057243Y-5745974D01*
X6057243Y-5745974D02*
X6076291Y-5736450D01*
X6076291Y-5736450D02*
X6104863Y-5736450D01*
X6104863Y-5736450D02*
X6123910Y-5745974D01*
X6123910Y-5745974D02*
X6133434Y-5765022D01*
X6133434Y-5765022D02*
X6133434Y-5869784D01*
X6133434Y-5765022D02*
X6142958Y-5745974D01*
X6142958Y-5745974D02*
X6162005Y-5736450D01*
X6162005Y-5736450D02*
X6190577Y-5736450D01*
X6190577Y-5736450D02*
X6209624Y-5745974D01*
X6209624Y-5745974D02*
X6219148Y-5765022D01*
X6219148Y-5765022D02*
X6219148Y-5869784D01*
X6314386Y-5869784D02*
X6314386Y-5736450D01*
X6314386Y-5755498D02*
X6323910Y-5745974D01*
X6323910Y-5745974D02*
X6342958Y-5736450D01*
X6342958Y-5736450D02*
X6371529Y-5736450D01*
X6371529Y-5736450D02*
X6390577Y-5745974D01*
X6390577Y-5745974D02*
X6400101Y-5765022D01*
X6400101Y-5765022D02*
X6400101Y-5869784D01*
X6400101Y-5765022D02*
X6409624Y-5745974D01*
X6409624Y-5745974D02*
X6428672Y-5736450D01*
X6428672Y-5736450D02*
X6457243Y-5736450D01*
X6457243Y-5736450D02*
X6476291Y-5745974D01*
X6476291Y-5745974D02*
X6485815Y-5765022D01*
X6485815Y-5765022D02*
X6485815Y-5869784D01*
X6876291Y-5660260D02*
X6704863Y-5917403D01*
X7133434Y-5669784D02*
X7152482Y-5669784D01*
X7152482Y-5669784D02*
X7171529Y-5679308D01*
X7171529Y-5679308D02*
X7181053Y-5688831D01*
X7181053Y-5688831D02*
X7190577Y-5707879D01*
X7190577Y-5707879D02*
X7200101Y-5745974D01*
X7200101Y-5745974D02*
X7200101Y-5793593D01*
X7200101Y-5793593D02*
X7190577Y-5831688D01*
X7190577Y-5831688D02*
X7181053Y-5850736D01*
X7181053Y-5850736D02*
X7171529Y-5860260D01*
X7171529Y-5860260D02*
X7152482Y-5869784D01*
X7152482Y-5869784D02*
X7133434Y-5869784D01*
X7133434Y-5869784D02*
X7114386Y-5860260D01*
X7114386Y-5860260D02*
X7104863Y-5850736D01*
X7104863Y-5850736D02*
X7095339Y-5831688D01*
X7095339Y-5831688D02*
X7085815Y-5793593D01*
X7085815Y-5793593D02*
X7085815Y-5745974D01*
X7085815Y-5745974D02*
X7095339Y-5707879D01*
X7095339Y-5707879D02*
X7104863Y-5688831D01*
X7104863Y-5688831D02*
X7114386Y-5679308D01*
X7114386Y-5679308D02*
X7133434Y-5669784D01*
X7285815Y-5850736D02*
X7295339Y-5860260D01*
X7295339Y-5860260D02*
X7285815Y-5869784D01*
X7285815Y-5869784D02*
X7276291Y-5860260D01*
X7276291Y-5860260D02*
X7285815Y-5850736D01*
X7285815Y-5850736D02*
X7285815Y-5869784D01*
X7419148Y-5669784D02*
X7438196Y-5669784D01*
X7438196Y-5669784D02*
X7457244Y-5679308D01*
X7457244Y-5679308D02*
X7466767Y-5688831D01*
X7466767Y-5688831D02*
X7476291Y-5707879D01*
X7476291Y-5707879D02*
X7485815Y-5745974D01*
X7485815Y-5745974D02*
X7485815Y-5793593D01*
X7485815Y-5793593D02*
X7476291Y-5831688D01*
X7476291Y-5831688D02*
X7466767Y-5850736D01*
X7466767Y-5850736D02*
X7457244Y-5860260D01*
X7457244Y-5860260D02*
X7438196Y-5869784D01*
X7438196Y-5869784D02*
X7419148Y-5869784D01*
X7419148Y-5869784D02*
X7400101Y-5860260D01*
X7400101Y-5860260D02*
X7390577Y-5850736D01*
X7390577Y-5850736D02*
X7381053Y-5831688D01*
X7381053Y-5831688D02*
X7371529Y-5793593D01*
X7371529Y-5793593D02*
X7371529Y-5745974D01*
X7371529Y-5745974D02*
X7381053Y-5707879D01*
X7381053Y-5707879D02*
X7390577Y-5688831D01*
X7390577Y-5688831D02*
X7400101Y-5679308D01*
X7400101Y-5679308D02*
X7419148Y-5669784D01*
X7552482Y-5669784D02*
X7676291Y-5669784D01*
X7676291Y-5669784D02*
X7609625Y-5745974D01*
X7609625Y-5745974D02*
X7638196Y-5745974D01*
X7638196Y-5745974D02*
X7657244Y-5755498D01*
X7657244Y-5755498D02*
X7666767Y-5765022D01*
X7666767Y-5765022D02*
X7676291Y-5784069D01*
X7676291Y-5784069D02*
X7676291Y-5831688D01*
X7676291Y-5831688D02*
X7666767Y-5850736D01*
X7666767Y-5850736D02*
X7657244Y-5860260D01*
X7657244Y-5860260D02*
X7638196Y-5869784D01*
X7638196Y-5869784D02*
X7581053Y-5869784D01*
X7581053Y-5869784D02*
X7562006Y-5860260D01*
X7562006Y-5860260D02*
X7552482Y-5850736D01*
X7866767Y-5869784D02*
X7752482Y-5869784D01*
X7809625Y-5869784D02*
X7809625Y-5669784D01*
X7809625Y-5669784D02*
X7790577Y-5698355D01*
X7790577Y-5698355D02*
X7771529Y-5717403D01*
X7771529Y-5717403D02*
X7752482Y-5726927D01*
X8047720Y-5669784D02*
X7952482Y-5669784D01*
X7952482Y-5669784D02*
X7942958Y-5765022D01*
X7942958Y-5765022D02*
X7952482Y-5755498D01*
X7952482Y-5755498D02*
X7971529Y-5745974D01*
X7971529Y-5745974D02*
X8019148Y-5745974D01*
X8019148Y-5745974D02*
X8038196Y-5755498D01*
X8038196Y-5755498D02*
X8047720Y-5765022D01*
X8047720Y-5765022D02*
X8057244Y-5784069D01*
X8057244Y-5784069D02*
X8057244Y-5831688D01*
X8057244Y-5831688D02*
X8047720Y-5850736D01*
X8047720Y-5850736D02*
X8038196Y-5860260D01*
X8038196Y-5860260D02*
X8019148Y-5869784D01*
X8019148Y-5869784D02*
X7971529Y-5869784D01*
X7971529Y-5869784D02*
X7952482Y-5860260D01*
X7952482Y-5860260D02*
X7942958Y-5850736D01*
X8133434Y-5669784D02*
X8133434Y-5707879D01*
X8209625Y-5669784D02*
X8209625Y-5707879D01*
X8504863Y-5945974D02*
X8495339Y-5936450D01*
X8495339Y-5936450D02*
X8476291Y-5907879D01*
X8476291Y-5907879D02*
X8466768Y-5888831D01*
X8466768Y-5888831D02*
X8457244Y-5860260D01*
X8457244Y-5860260D02*
X8447720Y-5812641D01*
X8447720Y-5812641D02*
X8447720Y-5774546D01*
X8447720Y-5774546D02*
X8457244Y-5726927D01*
X8457244Y-5726927D02*
X8466768Y-5698355D01*
X8466768Y-5698355D02*
X8476291Y-5679308D01*
X8476291Y-5679308D02*
X8495339Y-5650736D01*
X8495339Y-5650736D02*
X8504863Y-5641212D01*
X8666768Y-5736450D02*
X8666768Y-5869784D01*
X8619149Y-5660260D02*
X8571530Y-5803117D01*
X8571530Y-5803117D02*
X8695339Y-5803117D01*
X8923911Y-5869784D02*
X8923911Y-5669784D01*
X9009625Y-5869784D02*
X9009625Y-5765022D01*
X9009625Y-5765022D02*
X9000101Y-5745974D01*
X9000101Y-5745974D02*
X8981053Y-5736450D01*
X8981053Y-5736450D02*
X8952482Y-5736450D01*
X8952482Y-5736450D02*
X8933434Y-5745974D01*
X8933434Y-5745974D02*
X8923911Y-5755498D01*
X9133434Y-5869784D02*
X9114387Y-5860260D01*
X9114387Y-5860260D02*
X9104863Y-5850736D01*
X9104863Y-5850736D02*
X9095339Y-5831688D01*
X9095339Y-5831688D02*
X9095339Y-5774546D01*
X9095339Y-5774546D02*
X9104863Y-5755498D01*
X9104863Y-5755498D02*
X9114387Y-5745974D01*
X9114387Y-5745974D02*
X9133434Y-5736450D01*
X9133434Y-5736450D02*
X9162006Y-5736450D01*
X9162006Y-5736450D02*
X9181053Y-5745974D01*
X9181053Y-5745974D02*
X9190577Y-5755498D01*
X9190577Y-5755498D02*
X9200101Y-5774546D01*
X9200101Y-5774546D02*
X9200101Y-5831688D01*
X9200101Y-5831688D02*
X9190577Y-5850736D01*
X9190577Y-5850736D02*
X9181053Y-5860260D01*
X9181053Y-5860260D02*
X9162006Y-5869784D01*
X9162006Y-5869784D02*
X9133434Y-5869784D01*
X9314387Y-5869784D02*
X9295339Y-5860260D01*
X9295339Y-5860260D02*
X9285815Y-5841212D01*
X9285815Y-5841212D02*
X9285815Y-5669784D01*
X9466768Y-5860260D02*
X9447720Y-5869784D01*
X9447720Y-5869784D02*
X9409625Y-5869784D01*
X9409625Y-5869784D02*
X9390577Y-5860260D01*
X9390577Y-5860260D02*
X9381053Y-5841212D01*
X9381053Y-5841212D02*
X9381053Y-5765022D01*
X9381053Y-5765022D02*
X9390577Y-5745974D01*
X9390577Y-5745974D02*
X9409625Y-5736450D01*
X9409625Y-5736450D02*
X9447720Y-5736450D01*
X9447720Y-5736450D02*
X9466768Y-5745974D01*
X9466768Y-5745974D02*
X9476292Y-5765022D01*
X9476292Y-5765022D02*
X9476292Y-5784069D01*
X9476292Y-5784069D02*
X9381053Y-5803117D01*
X9552482Y-5860260D02*
X9571530Y-5869784D01*
X9571530Y-5869784D02*
X9609625Y-5869784D01*
X9609625Y-5869784D02*
X9628673Y-5860260D01*
X9628673Y-5860260D02*
X9638196Y-5841212D01*
X9638196Y-5841212D02*
X9638196Y-5831688D01*
X9638196Y-5831688D02*
X9628673Y-5812641D01*
X9628673Y-5812641D02*
X9609625Y-5803117D01*
X9609625Y-5803117D02*
X9581053Y-5803117D01*
X9581053Y-5803117D02*
X9562006Y-5793593D01*
X9562006Y-5793593D02*
X9552482Y-5774546D01*
X9552482Y-5774546D02*
X9552482Y-5765022D01*
X9552482Y-5765022D02*
X9562006Y-5745974D01*
X9562006Y-5745974D02*
X9581053Y-5736450D01*
X9581053Y-5736450D02*
X9609625Y-5736450D01*
X9609625Y-5736450D02*
X9628673Y-5745974D01*
X9704863Y-5945974D02*
X9714387Y-5936450D01*
X9714387Y-5936450D02*
X9733434Y-5907879D01*
X9733434Y-5907879D02*
X9742958Y-5888831D01*
X9742958Y-5888831D02*
X9752482Y-5860260D01*
X9752482Y-5860260D02*
X9762006Y-5812641D01*
X9762006Y-5812641D02*
X9762006Y-5774546D01*
X9762006Y-5774546D02*
X9752482Y-5726927D01*
X9752482Y-5726927D02*
X9742958Y-5698355D01*
X9742958Y-5698355D02*
X9733434Y-5679308D01*
X9733434Y-5679308D02*
X9714387Y-5650736D01*
X9714387Y-5650736D02*
X9704863Y-5641212D01*
D12*
X4929800Y-6042300D02*
G75*
G03*
X4929800Y-6042300I-47500J0D01*
G01*
D11*
X5228672Y-5933784D02*
X5247720Y-5933784D01*
X5247720Y-5933784D02*
X5266767Y-5943308D01*
X5266767Y-5943308D02*
X5276291Y-5952831D01*
X5276291Y-5952831D02*
X5285815Y-5971879D01*
X5285815Y-5971879D02*
X5295339Y-6009974D01*
X5295339Y-6009974D02*
X5295339Y-6057593D01*
X5295339Y-6057593D02*
X5285815Y-6095688D01*
X5285815Y-6095688D02*
X5276291Y-6114736D01*
X5276291Y-6114736D02*
X5266767Y-6124260D01*
X5266767Y-6124260D02*
X5247720Y-6133784D01*
X5247720Y-6133784D02*
X5228672Y-6133784D01*
X5228672Y-6133784D02*
X5209624Y-6124260D01*
X5209624Y-6124260D02*
X5200101Y-6114736D01*
X5200101Y-6114736D02*
X5190577Y-6095688D01*
X5190577Y-6095688D02*
X5181053Y-6057593D01*
X5181053Y-6057593D02*
X5181053Y-6009974D01*
X5181053Y-6009974D02*
X5190577Y-5971879D01*
X5190577Y-5971879D02*
X5200101Y-5952831D01*
X5200101Y-5952831D02*
X5209624Y-5943308D01*
X5209624Y-5943308D02*
X5228672Y-5933784D01*
X5381053Y-6114736D02*
X5390577Y-6124260D01*
X5390577Y-6124260D02*
X5381053Y-6133784D01*
X5381053Y-6133784D02*
X5371529Y-6124260D01*
X5371529Y-6124260D02*
X5381053Y-6114736D01*
X5381053Y-6114736D02*
X5381053Y-6133784D01*
X5485815Y-6133784D02*
X5523910Y-6133784D01*
X5523910Y-6133784D02*
X5542958Y-6124260D01*
X5542958Y-6124260D02*
X5552482Y-6114736D01*
X5552482Y-6114736D02*
X5571529Y-6086165D01*
X5571529Y-6086165D02*
X5581053Y-6048069D01*
X5581053Y-6048069D02*
X5581053Y-5971879D01*
X5581053Y-5971879D02*
X5571529Y-5952831D01*
X5571529Y-5952831D02*
X5562005Y-5943308D01*
X5562005Y-5943308D02*
X5542958Y-5933784D01*
X5542958Y-5933784D02*
X5504863Y-5933784D01*
X5504863Y-5933784D02*
X5485815Y-5943308D01*
X5485815Y-5943308D02*
X5476291Y-5952831D01*
X5476291Y-5952831D02*
X5466767Y-5971879D01*
X5466767Y-5971879D02*
X5466767Y-6019498D01*
X5466767Y-6019498D02*
X5476291Y-6038546D01*
X5476291Y-6038546D02*
X5485815Y-6048069D01*
X5485815Y-6048069D02*
X5504863Y-6057593D01*
X5504863Y-6057593D02*
X5542958Y-6057593D01*
X5542958Y-6057593D02*
X5562005Y-6048069D01*
X5562005Y-6048069D02*
X5571529Y-6038546D01*
X5571529Y-6038546D02*
X5581053Y-6019498D01*
X5762005Y-5933784D02*
X5666767Y-5933784D01*
X5666767Y-5933784D02*
X5657243Y-6029022D01*
X5657243Y-6029022D02*
X5666767Y-6019498D01*
X5666767Y-6019498D02*
X5685815Y-6009974D01*
X5685815Y-6009974D02*
X5733434Y-6009974D01*
X5733434Y-6009974D02*
X5752482Y-6019498D01*
X5752482Y-6019498D02*
X5762005Y-6029022D01*
X5762005Y-6029022D02*
X5771529Y-6048069D01*
X5771529Y-6048069D02*
X5771529Y-6095688D01*
X5771529Y-6095688D02*
X5762005Y-6114736D01*
X5762005Y-6114736D02*
X5752482Y-6124260D01*
X5752482Y-6124260D02*
X5733434Y-6133784D01*
X5733434Y-6133784D02*
X5685815Y-6133784D01*
X5685815Y-6133784D02*
X5666767Y-6124260D01*
X5666767Y-6124260D02*
X5657243Y-6114736D01*
X5895339Y-5933784D02*
X5914386Y-5933784D01*
X5914386Y-5933784D02*
X5933434Y-5943308D01*
X5933434Y-5943308D02*
X5942958Y-5952831D01*
X5942958Y-5952831D02*
X5952482Y-5971879D01*
X5952482Y-5971879D02*
X5962005Y-6009974D01*
X5962005Y-6009974D02*
X5962005Y-6057593D01*
X5962005Y-6057593D02*
X5952482Y-6095688D01*
X5952482Y-6095688D02*
X5942958Y-6114736D01*
X5942958Y-6114736D02*
X5933434Y-6124260D01*
X5933434Y-6124260D02*
X5914386Y-6133784D01*
X5914386Y-6133784D02*
X5895339Y-6133784D01*
X5895339Y-6133784D02*
X5876291Y-6124260D01*
X5876291Y-6124260D02*
X5866767Y-6114736D01*
X5866767Y-6114736D02*
X5857243Y-6095688D01*
X5857243Y-6095688D02*
X5847720Y-6057593D01*
X5847720Y-6057593D02*
X5847720Y-6009974D01*
X5847720Y-6009974D02*
X5857243Y-5971879D01*
X5857243Y-5971879D02*
X5866767Y-5952831D01*
X5866767Y-5952831D02*
X5876291Y-5943308D01*
X5876291Y-5943308D02*
X5895339Y-5933784D01*
X6047720Y-6133784D02*
X6047720Y-6000450D01*
X6047720Y-6019498D02*
X6057243Y-6009974D01*
X6057243Y-6009974D02*
X6076291Y-6000450D01*
X6076291Y-6000450D02*
X6104863Y-6000450D01*
X6104863Y-6000450D02*
X6123910Y-6009974D01*
X6123910Y-6009974D02*
X6133434Y-6029022D01*
X6133434Y-6029022D02*
X6133434Y-6133784D01*
X6133434Y-6029022D02*
X6142958Y-6009974D01*
X6142958Y-6009974D02*
X6162005Y-6000450D01*
X6162005Y-6000450D02*
X6190577Y-6000450D01*
X6190577Y-6000450D02*
X6209624Y-6009974D01*
X6209624Y-6009974D02*
X6219148Y-6029022D01*
X6219148Y-6029022D02*
X6219148Y-6133784D01*
X6314386Y-6133784D02*
X6314386Y-6000450D01*
X6314386Y-6019498D02*
X6323910Y-6009974D01*
X6323910Y-6009974D02*
X6342958Y-6000450D01*
X6342958Y-6000450D02*
X6371529Y-6000450D01*
X6371529Y-6000450D02*
X6390577Y-6009974D01*
X6390577Y-6009974D02*
X6400101Y-6029022D01*
X6400101Y-6029022D02*
X6400101Y-6133784D01*
X6400101Y-6029022D02*
X6409624Y-6009974D01*
X6409624Y-6009974D02*
X6428672Y-6000450D01*
X6428672Y-6000450D02*
X6457243Y-6000450D01*
X6457243Y-6000450D02*
X6476291Y-6009974D01*
X6476291Y-6009974D02*
X6485815Y-6029022D01*
X6485815Y-6029022D02*
X6485815Y-6133784D01*
X6876291Y-5924260D02*
X6704863Y-6181403D01*
X7133434Y-5933784D02*
X7152482Y-5933784D01*
X7152482Y-5933784D02*
X7171529Y-5943308D01*
X7171529Y-5943308D02*
X7181053Y-5952831D01*
X7181053Y-5952831D02*
X7190577Y-5971879D01*
X7190577Y-5971879D02*
X7200101Y-6009974D01*
X7200101Y-6009974D02*
X7200101Y-6057593D01*
X7200101Y-6057593D02*
X7190577Y-6095688D01*
X7190577Y-6095688D02*
X7181053Y-6114736D01*
X7181053Y-6114736D02*
X7171529Y-6124260D01*
X7171529Y-6124260D02*
X7152482Y-6133784D01*
X7152482Y-6133784D02*
X7133434Y-6133784D01*
X7133434Y-6133784D02*
X7114386Y-6124260D01*
X7114386Y-6124260D02*
X7104863Y-6114736D01*
X7104863Y-6114736D02*
X7095339Y-6095688D01*
X7095339Y-6095688D02*
X7085815Y-6057593D01*
X7085815Y-6057593D02*
X7085815Y-6009974D01*
X7085815Y-6009974D02*
X7095339Y-5971879D01*
X7095339Y-5971879D02*
X7104863Y-5952831D01*
X7104863Y-5952831D02*
X7114386Y-5943308D01*
X7114386Y-5943308D02*
X7133434Y-5933784D01*
X7285815Y-6114736D02*
X7295339Y-6124260D01*
X7295339Y-6124260D02*
X7285815Y-6133784D01*
X7285815Y-6133784D02*
X7276291Y-6124260D01*
X7276291Y-6124260D02*
X7285815Y-6114736D01*
X7285815Y-6114736D02*
X7285815Y-6133784D01*
X7419148Y-5933784D02*
X7438196Y-5933784D01*
X7438196Y-5933784D02*
X7457244Y-5943308D01*
X7457244Y-5943308D02*
X7466767Y-5952831D01*
X7466767Y-5952831D02*
X7476291Y-5971879D01*
X7476291Y-5971879D02*
X7485815Y-6009974D01*
X7485815Y-6009974D02*
X7485815Y-6057593D01*
X7485815Y-6057593D02*
X7476291Y-6095688D01*
X7476291Y-6095688D02*
X7466767Y-6114736D01*
X7466767Y-6114736D02*
X7457244Y-6124260D01*
X7457244Y-6124260D02*
X7438196Y-6133784D01*
X7438196Y-6133784D02*
X7419148Y-6133784D01*
X7419148Y-6133784D02*
X7400101Y-6124260D01*
X7400101Y-6124260D02*
X7390577Y-6114736D01*
X7390577Y-6114736D02*
X7381053Y-6095688D01*
X7381053Y-6095688D02*
X7371529Y-6057593D01*
X7371529Y-6057593D02*
X7371529Y-6009974D01*
X7371529Y-6009974D02*
X7381053Y-5971879D01*
X7381053Y-5971879D02*
X7390577Y-5952831D01*
X7390577Y-5952831D02*
X7400101Y-5943308D01*
X7400101Y-5943308D02*
X7419148Y-5933784D01*
X7552482Y-5933784D02*
X7676291Y-5933784D01*
X7676291Y-5933784D02*
X7609625Y-6009974D01*
X7609625Y-6009974D02*
X7638196Y-6009974D01*
X7638196Y-6009974D02*
X7657244Y-6019498D01*
X7657244Y-6019498D02*
X7666767Y-6029022D01*
X7666767Y-6029022D02*
X7676291Y-6048069D01*
X7676291Y-6048069D02*
X7676291Y-6095688D01*
X7676291Y-6095688D02*
X7666767Y-6114736D01*
X7666767Y-6114736D02*
X7657244Y-6124260D01*
X7657244Y-6124260D02*
X7638196Y-6133784D01*
X7638196Y-6133784D02*
X7581053Y-6133784D01*
X7581053Y-6133784D02*
X7562006Y-6124260D01*
X7562006Y-6124260D02*
X7552482Y-6114736D01*
X7742958Y-5933784D02*
X7876291Y-5933784D01*
X7876291Y-5933784D02*
X7790577Y-6133784D01*
X8038196Y-6000450D02*
X8038196Y-6133784D01*
X7990577Y-5924260D02*
X7942958Y-6067117D01*
X7942958Y-6067117D02*
X8066767Y-6067117D01*
X8133434Y-5933784D02*
X8133434Y-5971879D01*
X8209625Y-5933784D02*
X8209625Y-5971879D01*
X8504863Y-6209974D02*
X8495339Y-6200450D01*
X8495339Y-6200450D02*
X8476291Y-6171879D01*
X8476291Y-6171879D02*
X8466768Y-6152831D01*
X8466768Y-6152831D02*
X8457244Y-6124260D01*
X8457244Y-6124260D02*
X8447720Y-6076641D01*
X8447720Y-6076641D02*
X8447720Y-6038546D01*
X8447720Y-6038546D02*
X8457244Y-5990927D01*
X8457244Y-5990927D02*
X8466768Y-5962355D01*
X8466768Y-5962355D02*
X8476291Y-5943308D01*
X8476291Y-5943308D02*
X8495339Y-5914736D01*
X8495339Y-5914736D02*
X8504863Y-5905212D01*
X8562006Y-5933784D02*
X8685815Y-5933784D01*
X8685815Y-5933784D02*
X8619149Y-6009974D01*
X8619149Y-6009974D02*
X8647720Y-6009974D01*
X8647720Y-6009974D02*
X8666768Y-6019498D01*
X8666768Y-6019498D02*
X8676291Y-6029022D01*
X8676291Y-6029022D02*
X8685815Y-6048069D01*
X8685815Y-6048069D02*
X8685815Y-6095688D01*
X8685815Y-6095688D02*
X8676291Y-6114736D01*
X8676291Y-6114736D02*
X8666768Y-6124260D01*
X8666768Y-6124260D02*
X8647720Y-6133784D01*
X8647720Y-6133784D02*
X8590577Y-6133784D01*
X8590577Y-6133784D02*
X8571530Y-6124260D01*
X8571530Y-6124260D02*
X8562006Y-6114736D01*
X8923911Y-6133784D02*
X8923911Y-5933784D01*
X9009625Y-6133784D02*
X9009625Y-6029022D01*
X9009625Y-6029022D02*
X9000101Y-6009974D01*
X9000101Y-6009974D02*
X8981053Y-6000450D01*
X8981053Y-6000450D02*
X8952482Y-6000450D01*
X8952482Y-6000450D02*
X8933434Y-6009974D01*
X8933434Y-6009974D02*
X8923911Y-6019498D01*
X9133434Y-6133784D02*
X9114387Y-6124260D01*
X9114387Y-6124260D02*
X9104863Y-6114736D01*
X9104863Y-6114736D02*
X9095339Y-6095688D01*
X9095339Y-6095688D02*
X9095339Y-6038546D01*
X9095339Y-6038546D02*
X9104863Y-6019498D01*
X9104863Y-6019498D02*
X9114387Y-6009974D01*
X9114387Y-6009974D02*
X9133434Y-6000450D01*
X9133434Y-6000450D02*
X9162006Y-6000450D01*
X9162006Y-6000450D02*
X9181053Y-6009974D01*
X9181053Y-6009974D02*
X9190577Y-6019498D01*
X9190577Y-6019498D02*
X9200101Y-6038546D01*
X9200101Y-6038546D02*
X9200101Y-6095688D01*
X9200101Y-6095688D02*
X9190577Y-6114736D01*
X9190577Y-6114736D02*
X9181053Y-6124260D01*
X9181053Y-6124260D02*
X9162006Y-6133784D01*
X9162006Y-6133784D02*
X9133434Y-6133784D01*
X9314387Y-6133784D02*
X9295339Y-6124260D01*
X9295339Y-6124260D02*
X9285815Y-6105212D01*
X9285815Y-6105212D02*
X9285815Y-5933784D01*
X9466768Y-6124260D02*
X9447720Y-6133784D01*
X9447720Y-6133784D02*
X9409625Y-6133784D01*
X9409625Y-6133784D02*
X9390577Y-6124260D01*
X9390577Y-6124260D02*
X9381053Y-6105212D01*
X9381053Y-6105212D02*
X9381053Y-6029022D01*
X9381053Y-6029022D02*
X9390577Y-6009974D01*
X9390577Y-6009974D02*
X9409625Y-6000450D01*
X9409625Y-6000450D02*
X9447720Y-6000450D01*
X9447720Y-6000450D02*
X9466768Y-6009974D01*
X9466768Y-6009974D02*
X9476292Y-6029022D01*
X9476292Y-6029022D02*
X9476292Y-6048069D01*
X9476292Y-6048069D02*
X9381053Y-6067117D01*
X9552482Y-6124260D02*
X9571530Y-6133784D01*
X9571530Y-6133784D02*
X9609625Y-6133784D01*
X9609625Y-6133784D02*
X9628673Y-6124260D01*
X9628673Y-6124260D02*
X9638196Y-6105212D01*
X9638196Y-6105212D02*
X9638196Y-6095688D01*
X9638196Y-6095688D02*
X9628673Y-6076641D01*
X9628673Y-6076641D02*
X9609625Y-6067117D01*
X9609625Y-6067117D02*
X9581053Y-6067117D01*
X9581053Y-6067117D02*
X9562006Y-6057593D01*
X9562006Y-6057593D02*
X9552482Y-6038546D01*
X9552482Y-6038546D02*
X9552482Y-6029022D01*
X9552482Y-6029022D02*
X9562006Y-6009974D01*
X9562006Y-6009974D02*
X9581053Y-6000450D01*
X9581053Y-6000450D02*
X9609625Y-6000450D01*
X9609625Y-6000450D02*
X9628673Y-6009974D01*
X9704863Y-6209974D02*
X9714387Y-6200450D01*
X9714387Y-6200450D02*
X9733434Y-6171879D01*
X9733434Y-6171879D02*
X9742958Y-6152831D01*
X9742958Y-6152831D02*
X9752482Y-6124260D01*
X9752482Y-6124260D02*
X9762006Y-6076641D01*
X9762006Y-6076641D02*
X9762006Y-6038546D01*
X9762006Y-6038546D02*
X9752482Y-5990927D01*
X9752482Y-5990927D02*
X9742958Y-5962355D01*
X9742958Y-5962355D02*
X9733434Y-5943308D01*
X9733434Y-5943308D02*
X9714387Y-5914736D01*
X9714387Y-5914736D02*
X9704863Y-5905212D01*
D12*
X4879800Y-6256300D02*
X4879800Y-6356300D01*
X4829800Y-6306300D02*
X4929800Y-6306300D01*
D11*
X5295339Y-6397784D02*
X5181053Y-6397784D01*
X5238196Y-6397784D02*
X5238196Y-6197784D01*
X5238196Y-6197784D02*
X5219148Y-6226355D01*
X5219148Y-6226355D02*
X5200101Y-6245403D01*
X5200101Y-6245403D02*
X5181053Y-6254927D01*
X5381053Y-6378736D02*
X5390577Y-6388260D01*
X5390577Y-6388260D02*
X5381053Y-6397784D01*
X5381053Y-6397784D02*
X5371529Y-6388260D01*
X5371529Y-6388260D02*
X5381053Y-6378736D01*
X5381053Y-6378736D02*
X5381053Y-6397784D01*
X5514386Y-6197784D02*
X5533434Y-6197784D01*
X5533434Y-6197784D02*
X5552482Y-6207308D01*
X5552482Y-6207308D02*
X5562005Y-6216831D01*
X5562005Y-6216831D02*
X5571529Y-6235879D01*
X5571529Y-6235879D02*
X5581053Y-6273974D01*
X5581053Y-6273974D02*
X5581053Y-6321593D01*
X5581053Y-6321593D02*
X5571529Y-6359688D01*
X5571529Y-6359688D02*
X5562005Y-6378736D01*
X5562005Y-6378736D02*
X5552482Y-6388260D01*
X5552482Y-6388260D02*
X5533434Y-6397784D01*
X5533434Y-6397784D02*
X5514386Y-6397784D01*
X5514386Y-6397784D02*
X5495339Y-6388260D01*
X5495339Y-6388260D02*
X5485815Y-6378736D01*
X5485815Y-6378736D02*
X5476291Y-6359688D01*
X5476291Y-6359688D02*
X5466767Y-6321593D01*
X5466767Y-6321593D02*
X5466767Y-6273974D01*
X5466767Y-6273974D02*
X5476291Y-6235879D01*
X5476291Y-6235879D02*
X5485815Y-6216831D01*
X5485815Y-6216831D02*
X5495339Y-6207308D01*
X5495339Y-6207308D02*
X5514386Y-6197784D01*
X5704862Y-6197784D02*
X5723910Y-6197784D01*
X5723910Y-6197784D02*
X5742958Y-6207308D01*
X5742958Y-6207308D02*
X5752482Y-6216831D01*
X5752482Y-6216831D02*
X5762005Y-6235879D01*
X5762005Y-6235879D02*
X5771529Y-6273974D01*
X5771529Y-6273974D02*
X5771529Y-6321593D01*
X5771529Y-6321593D02*
X5762005Y-6359688D01*
X5762005Y-6359688D02*
X5752482Y-6378736D01*
X5752482Y-6378736D02*
X5742958Y-6388260D01*
X5742958Y-6388260D02*
X5723910Y-6397784D01*
X5723910Y-6397784D02*
X5704862Y-6397784D01*
X5704862Y-6397784D02*
X5685815Y-6388260D01*
X5685815Y-6388260D02*
X5676291Y-6378736D01*
X5676291Y-6378736D02*
X5666767Y-6359688D01*
X5666767Y-6359688D02*
X5657243Y-6321593D01*
X5657243Y-6321593D02*
X5657243Y-6273974D01*
X5657243Y-6273974D02*
X5666767Y-6235879D01*
X5666767Y-6235879D02*
X5676291Y-6216831D01*
X5676291Y-6216831D02*
X5685815Y-6207308D01*
X5685815Y-6207308D02*
X5704862Y-6197784D01*
X5895339Y-6197784D02*
X5914386Y-6197784D01*
X5914386Y-6197784D02*
X5933434Y-6207308D01*
X5933434Y-6207308D02*
X5942958Y-6216831D01*
X5942958Y-6216831D02*
X5952482Y-6235879D01*
X5952482Y-6235879D02*
X5962005Y-6273974D01*
X5962005Y-6273974D02*
X5962005Y-6321593D01*
X5962005Y-6321593D02*
X5952482Y-6359688D01*
X5952482Y-6359688D02*
X5942958Y-6378736D01*
X5942958Y-6378736D02*
X5933434Y-6388260D01*
X5933434Y-6388260D02*
X5914386Y-6397784D01*
X5914386Y-6397784D02*
X5895339Y-6397784D01*
X5895339Y-6397784D02*
X5876291Y-6388260D01*
X5876291Y-6388260D02*
X5866767Y-6378736D01*
X5866767Y-6378736D02*
X5857243Y-6359688D01*
X5857243Y-6359688D02*
X5847720Y-6321593D01*
X5847720Y-6321593D02*
X5847720Y-6273974D01*
X5847720Y-6273974D02*
X5857243Y-6235879D01*
X5857243Y-6235879D02*
X5866767Y-6216831D01*
X5866767Y-6216831D02*
X5876291Y-6207308D01*
X5876291Y-6207308D02*
X5895339Y-6197784D01*
X6047720Y-6397784D02*
X6047720Y-6264450D01*
X6047720Y-6283498D02*
X6057243Y-6273974D01*
X6057243Y-6273974D02*
X6076291Y-6264450D01*
X6076291Y-6264450D02*
X6104863Y-6264450D01*
X6104863Y-6264450D02*
X6123910Y-6273974D01*
X6123910Y-6273974D02*
X6133434Y-6293022D01*
X6133434Y-6293022D02*
X6133434Y-6397784D01*
X6133434Y-6293022D02*
X6142958Y-6273974D01*
X6142958Y-6273974D02*
X6162005Y-6264450D01*
X6162005Y-6264450D02*
X6190577Y-6264450D01*
X6190577Y-6264450D02*
X6209624Y-6273974D01*
X6209624Y-6273974D02*
X6219148Y-6293022D01*
X6219148Y-6293022D02*
X6219148Y-6397784D01*
X6314386Y-6397784D02*
X6314386Y-6264450D01*
X6314386Y-6283498D02*
X6323910Y-6273974D01*
X6323910Y-6273974D02*
X6342958Y-6264450D01*
X6342958Y-6264450D02*
X6371529Y-6264450D01*
X6371529Y-6264450D02*
X6390577Y-6273974D01*
X6390577Y-6273974D02*
X6400101Y-6293022D01*
X6400101Y-6293022D02*
X6400101Y-6397784D01*
X6400101Y-6293022D02*
X6409624Y-6273974D01*
X6409624Y-6273974D02*
X6428672Y-6264450D01*
X6428672Y-6264450D02*
X6457243Y-6264450D01*
X6457243Y-6264450D02*
X6476291Y-6273974D01*
X6476291Y-6273974D02*
X6485815Y-6293022D01*
X6485815Y-6293022D02*
X6485815Y-6397784D01*
X6876291Y-6188260D02*
X6704863Y-6445403D01*
X7133434Y-6197784D02*
X7152482Y-6197784D01*
X7152482Y-6197784D02*
X7171529Y-6207308D01*
X7171529Y-6207308D02*
X7181053Y-6216831D01*
X7181053Y-6216831D02*
X7190577Y-6235879D01*
X7190577Y-6235879D02*
X7200101Y-6273974D01*
X7200101Y-6273974D02*
X7200101Y-6321593D01*
X7200101Y-6321593D02*
X7190577Y-6359688D01*
X7190577Y-6359688D02*
X7181053Y-6378736D01*
X7181053Y-6378736D02*
X7171529Y-6388260D01*
X7171529Y-6388260D02*
X7152482Y-6397784D01*
X7152482Y-6397784D02*
X7133434Y-6397784D01*
X7133434Y-6397784D02*
X7114386Y-6388260D01*
X7114386Y-6388260D02*
X7104863Y-6378736D01*
X7104863Y-6378736D02*
X7095339Y-6359688D01*
X7095339Y-6359688D02*
X7085815Y-6321593D01*
X7085815Y-6321593D02*
X7085815Y-6273974D01*
X7085815Y-6273974D02*
X7095339Y-6235879D01*
X7095339Y-6235879D02*
X7104863Y-6216831D01*
X7104863Y-6216831D02*
X7114386Y-6207308D01*
X7114386Y-6207308D02*
X7133434Y-6197784D01*
X7285815Y-6378736D02*
X7295339Y-6388260D01*
X7295339Y-6388260D02*
X7285815Y-6397784D01*
X7285815Y-6397784D02*
X7276291Y-6388260D01*
X7276291Y-6388260D02*
X7285815Y-6378736D01*
X7285815Y-6378736D02*
X7285815Y-6397784D01*
X7419148Y-6197784D02*
X7438196Y-6197784D01*
X7438196Y-6197784D02*
X7457244Y-6207308D01*
X7457244Y-6207308D02*
X7466767Y-6216831D01*
X7466767Y-6216831D02*
X7476291Y-6235879D01*
X7476291Y-6235879D02*
X7485815Y-6273974D01*
X7485815Y-6273974D02*
X7485815Y-6321593D01*
X7485815Y-6321593D02*
X7476291Y-6359688D01*
X7476291Y-6359688D02*
X7466767Y-6378736D01*
X7466767Y-6378736D02*
X7457244Y-6388260D01*
X7457244Y-6388260D02*
X7438196Y-6397784D01*
X7438196Y-6397784D02*
X7419148Y-6397784D01*
X7419148Y-6397784D02*
X7400101Y-6388260D01*
X7400101Y-6388260D02*
X7390577Y-6378736D01*
X7390577Y-6378736D02*
X7381053Y-6359688D01*
X7381053Y-6359688D02*
X7371529Y-6321593D01*
X7371529Y-6321593D02*
X7371529Y-6273974D01*
X7371529Y-6273974D02*
X7381053Y-6235879D01*
X7381053Y-6235879D02*
X7390577Y-6216831D01*
X7390577Y-6216831D02*
X7400101Y-6207308D01*
X7400101Y-6207308D02*
X7419148Y-6197784D01*
X7552482Y-6197784D02*
X7676291Y-6197784D01*
X7676291Y-6197784D02*
X7609625Y-6273974D01*
X7609625Y-6273974D02*
X7638196Y-6273974D01*
X7638196Y-6273974D02*
X7657244Y-6283498D01*
X7657244Y-6283498D02*
X7666767Y-6293022D01*
X7666767Y-6293022D02*
X7676291Y-6312069D01*
X7676291Y-6312069D02*
X7676291Y-6359688D01*
X7676291Y-6359688D02*
X7666767Y-6378736D01*
X7666767Y-6378736D02*
X7657244Y-6388260D01*
X7657244Y-6388260D02*
X7638196Y-6397784D01*
X7638196Y-6397784D02*
X7581053Y-6397784D01*
X7581053Y-6397784D02*
X7562006Y-6388260D01*
X7562006Y-6388260D02*
X7552482Y-6378736D01*
X7771529Y-6397784D02*
X7809625Y-6397784D01*
X7809625Y-6397784D02*
X7828672Y-6388260D01*
X7828672Y-6388260D02*
X7838196Y-6378736D01*
X7838196Y-6378736D02*
X7857244Y-6350165D01*
X7857244Y-6350165D02*
X7866767Y-6312069D01*
X7866767Y-6312069D02*
X7866767Y-6235879D01*
X7866767Y-6235879D02*
X7857244Y-6216831D01*
X7857244Y-6216831D02*
X7847720Y-6207308D01*
X7847720Y-6207308D02*
X7828672Y-6197784D01*
X7828672Y-6197784D02*
X7790577Y-6197784D01*
X7790577Y-6197784D02*
X7771529Y-6207308D01*
X7771529Y-6207308D02*
X7762006Y-6216831D01*
X7762006Y-6216831D02*
X7752482Y-6235879D01*
X7752482Y-6235879D02*
X7752482Y-6283498D01*
X7752482Y-6283498D02*
X7762006Y-6302546D01*
X7762006Y-6302546D02*
X7771529Y-6312069D01*
X7771529Y-6312069D02*
X7790577Y-6321593D01*
X7790577Y-6321593D02*
X7828672Y-6321593D01*
X7828672Y-6321593D02*
X7847720Y-6312069D01*
X7847720Y-6312069D02*
X7857244Y-6302546D01*
X7857244Y-6302546D02*
X7866767Y-6283498D01*
X8038196Y-6264450D02*
X8038196Y-6397784D01*
X7990577Y-6188260D02*
X7942958Y-6331117D01*
X7942958Y-6331117D02*
X8066767Y-6331117D01*
X8133434Y-6197784D02*
X8133434Y-6235879D01*
X8209625Y-6197784D02*
X8209625Y-6235879D01*
X8504863Y-6473974D02*
X8495339Y-6464450D01*
X8495339Y-6464450D02*
X8476291Y-6435879D01*
X8476291Y-6435879D02*
X8466768Y-6416831D01*
X8466768Y-6416831D02*
X8457244Y-6388260D01*
X8457244Y-6388260D02*
X8447720Y-6340641D01*
X8447720Y-6340641D02*
X8447720Y-6302546D01*
X8447720Y-6302546D02*
X8457244Y-6254927D01*
X8457244Y-6254927D02*
X8466768Y-6226355D01*
X8466768Y-6226355D02*
X8476291Y-6207308D01*
X8476291Y-6207308D02*
X8495339Y-6178736D01*
X8495339Y-6178736D02*
X8504863Y-6169212D01*
X8571530Y-6216831D02*
X8581053Y-6207308D01*
X8581053Y-6207308D02*
X8600101Y-6197784D01*
X8600101Y-6197784D02*
X8647720Y-6197784D01*
X8647720Y-6197784D02*
X8666768Y-6207308D01*
X8666768Y-6207308D02*
X8676291Y-6216831D01*
X8676291Y-6216831D02*
X8685815Y-6235879D01*
X8685815Y-6235879D02*
X8685815Y-6254927D01*
X8685815Y-6254927D02*
X8676291Y-6283498D01*
X8676291Y-6283498D02*
X8562006Y-6397784D01*
X8562006Y-6397784D02*
X8685815Y-6397784D01*
X8923911Y-6397784D02*
X8923911Y-6197784D01*
X9009625Y-6397784D02*
X9009625Y-6293022D01*
X9009625Y-6293022D02*
X9000101Y-6273974D01*
X9000101Y-6273974D02*
X8981053Y-6264450D01*
X8981053Y-6264450D02*
X8952482Y-6264450D01*
X8952482Y-6264450D02*
X8933434Y-6273974D01*
X8933434Y-6273974D02*
X8923911Y-6283498D01*
X9133434Y-6397784D02*
X9114387Y-6388260D01*
X9114387Y-6388260D02*
X9104863Y-6378736D01*
X9104863Y-6378736D02*
X9095339Y-6359688D01*
X9095339Y-6359688D02*
X9095339Y-6302546D01*
X9095339Y-6302546D02*
X9104863Y-6283498D01*
X9104863Y-6283498D02*
X9114387Y-6273974D01*
X9114387Y-6273974D02*
X9133434Y-6264450D01*
X9133434Y-6264450D02*
X9162006Y-6264450D01*
X9162006Y-6264450D02*
X9181053Y-6273974D01*
X9181053Y-6273974D02*
X9190577Y-6283498D01*
X9190577Y-6283498D02*
X9200101Y-6302546D01*
X9200101Y-6302546D02*
X9200101Y-6359688D01*
X9200101Y-6359688D02*
X9190577Y-6378736D01*
X9190577Y-6378736D02*
X9181053Y-6388260D01*
X9181053Y-6388260D02*
X9162006Y-6397784D01*
X9162006Y-6397784D02*
X9133434Y-6397784D01*
X9314387Y-6397784D02*
X9295339Y-6388260D01*
X9295339Y-6388260D02*
X9285815Y-6369212D01*
X9285815Y-6369212D02*
X9285815Y-6197784D01*
X9466768Y-6388260D02*
X9447720Y-6397784D01*
X9447720Y-6397784D02*
X9409625Y-6397784D01*
X9409625Y-6397784D02*
X9390577Y-6388260D01*
X9390577Y-6388260D02*
X9381053Y-6369212D01*
X9381053Y-6369212D02*
X9381053Y-6293022D01*
X9381053Y-6293022D02*
X9390577Y-6273974D01*
X9390577Y-6273974D02*
X9409625Y-6264450D01*
X9409625Y-6264450D02*
X9447720Y-6264450D01*
X9447720Y-6264450D02*
X9466768Y-6273974D01*
X9466768Y-6273974D02*
X9476292Y-6293022D01*
X9476292Y-6293022D02*
X9476292Y-6312069D01*
X9476292Y-6312069D02*
X9381053Y-6331117D01*
X9552482Y-6388260D02*
X9571530Y-6397784D01*
X9571530Y-6397784D02*
X9609625Y-6397784D01*
X9609625Y-6397784D02*
X9628673Y-6388260D01*
X9628673Y-6388260D02*
X9638196Y-6369212D01*
X9638196Y-6369212D02*
X9638196Y-6359688D01*
X9638196Y-6359688D02*
X9628673Y-6340641D01*
X9628673Y-6340641D02*
X9609625Y-6331117D01*
X9609625Y-6331117D02*
X9581053Y-6331117D01*
X9581053Y-6331117D02*
X9562006Y-6321593D01*
X9562006Y-6321593D02*
X9552482Y-6302546D01*
X9552482Y-6302546D02*
X9552482Y-6293022D01*
X9552482Y-6293022D02*
X9562006Y-6273974D01*
X9562006Y-6273974D02*
X9581053Y-6264450D01*
X9581053Y-6264450D02*
X9609625Y-6264450D01*
X9609625Y-6264450D02*
X9628673Y-6273974D01*
X9704863Y-6473974D02*
X9714387Y-6464450D01*
X9714387Y-6464450D02*
X9733434Y-6435879D01*
X9733434Y-6435879D02*
X9742958Y-6416831D01*
X9742958Y-6416831D02*
X9752482Y-6388260D01*
X9752482Y-6388260D02*
X9762006Y-6340641D01*
X9762006Y-6340641D02*
X9762006Y-6302546D01*
X9762006Y-6302546D02*
X9752482Y-6254927D01*
X9752482Y-6254927D02*
X9742958Y-6226355D01*
X9742958Y-6226355D02*
X9733434Y-6207308D01*
X9733434Y-6207308D02*
X9714387Y-6178736D01*
X9714387Y-6178736D02*
X9704863Y-6169212D01*
D13*
X4913691Y-6609191D02*
X4913691Y-6531409D01*
X4835909Y-6531409D01*
X4835909Y-6609191D01*
X4913691Y-6609191D01*
D11*
X5295339Y-6661784D02*
X5181053Y-6661784D01*
X5238196Y-6661784D02*
X5238196Y-6461784D01*
X5238196Y-6461784D02*
X5219148Y-6490355D01*
X5219148Y-6490355D02*
X5200101Y-6509403D01*
X5200101Y-6509403D02*
X5181053Y-6518927D01*
X5381053Y-6642736D02*
X5390577Y-6652260D01*
X5390577Y-6652260D02*
X5381053Y-6661784D01*
X5381053Y-6661784D02*
X5371529Y-6652260D01*
X5371529Y-6652260D02*
X5381053Y-6642736D01*
X5381053Y-6642736D02*
X5381053Y-6661784D01*
X5581053Y-6661784D02*
X5466767Y-6661784D01*
X5523910Y-6661784D02*
X5523910Y-6461784D01*
X5523910Y-6461784D02*
X5504863Y-6490355D01*
X5504863Y-6490355D02*
X5485815Y-6509403D01*
X5485815Y-6509403D02*
X5466767Y-6518927D01*
X5704862Y-6461784D02*
X5723910Y-6461784D01*
X5723910Y-6461784D02*
X5742958Y-6471308D01*
X5742958Y-6471308D02*
X5752482Y-6480831D01*
X5752482Y-6480831D02*
X5762005Y-6499879D01*
X5762005Y-6499879D02*
X5771529Y-6537974D01*
X5771529Y-6537974D02*
X5771529Y-6585593D01*
X5771529Y-6585593D02*
X5762005Y-6623688D01*
X5762005Y-6623688D02*
X5752482Y-6642736D01*
X5752482Y-6642736D02*
X5742958Y-6652260D01*
X5742958Y-6652260D02*
X5723910Y-6661784D01*
X5723910Y-6661784D02*
X5704862Y-6661784D01*
X5704862Y-6661784D02*
X5685815Y-6652260D01*
X5685815Y-6652260D02*
X5676291Y-6642736D01*
X5676291Y-6642736D02*
X5666767Y-6623688D01*
X5666767Y-6623688D02*
X5657243Y-6585593D01*
X5657243Y-6585593D02*
X5657243Y-6537974D01*
X5657243Y-6537974D02*
X5666767Y-6499879D01*
X5666767Y-6499879D02*
X5676291Y-6480831D01*
X5676291Y-6480831D02*
X5685815Y-6471308D01*
X5685815Y-6471308D02*
X5704862Y-6461784D01*
X5895339Y-6461784D02*
X5914386Y-6461784D01*
X5914386Y-6461784D02*
X5933434Y-6471308D01*
X5933434Y-6471308D02*
X5942958Y-6480831D01*
X5942958Y-6480831D02*
X5952482Y-6499879D01*
X5952482Y-6499879D02*
X5962005Y-6537974D01*
X5962005Y-6537974D02*
X5962005Y-6585593D01*
X5962005Y-6585593D02*
X5952482Y-6623688D01*
X5952482Y-6623688D02*
X5942958Y-6642736D01*
X5942958Y-6642736D02*
X5933434Y-6652260D01*
X5933434Y-6652260D02*
X5914386Y-6661784D01*
X5914386Y-6661784D02*
X5895339Y-6661784D01*
X5895339Y-6661784D02*
X5876291Y-6652260D01*
X5876291Y-6652260D02*
X5866767Y-6642736D01*
X5866767Y-6642736D02*
X5857243Y-6623688D01*
X5857243Y-6623688D02*
X5847720Y-6585593D01*
X5847720Y-6585593D02*
X5847720Y-6537974D01*
X5847720Y-6537974D02*
X5857243Y-6499879D01*
X5857243Y-6499879D02*
X5866767Y-6480831D01*
X5866767Y-6480831D02*
X5876291Y-6471308D01*
X5876291Y-6471308D02*
X5895339Y-6461784D01*
X6047720Y-6661784D02*
X6047720Y-6528450D01*
X6047720Y-6547498D02*
X6057243Y-6537974D01*
X6057243Y-6537974D02*
X6076291Y-6528450D01*
X6076291Y-6528450D02*
X6104863Y-6528450D01*
X6104863Y-6528450D02*
X6123910Y-6537974D01*
X6123910Y-6537974D02*
X6133434Y-6557022D01*
X6133434Y-6557022D02*
X6133434Y-6661784D01*
X6133434Y-6557022D02*
X6142958Y-6537974D01*
X6142958Y-6537974D02*
X6162005Y-6528450D01*
X6162005Y-6528450D02*
X6190577Y-6528450D01*
X6190577Y-6528450D02*
X6209624Y-6537974D01*
X6209624Y-6537974D02*
X6219148Y-6557022D01*
X6219148Y-6557022D02*
X6219148Y-6661784D01*
X6314386Y-6661784D02*
X6314386Y-6528450D01*
X6314386Y-6547498D02*
X6323910Y-6537974D01*
X6323910Y-6537974D02*
X6342958Y-6528450D01*
X6342958Y-6528450D02*
X6371529Y-6528450D01*
X6371529Y-6528450D02*
X6390577Y-6537974D01*
X6390577Y-6537974D02*
X6400101Y-6557022D01*
X6400101Y-6557022D02*
X6400101Y-6661784D01*
X6400101Y-6557022D02*
X6409624Y-6537974D01*
X6409624Y-6537974D02*
X6428672Y-6528450D01*
X6428672Y-6528450D02*
X6457243Y-6528450D01*
X6457243Y-6528450D02*
X6476291Y-6537974D01*
X6476291Y-6537974D02*
X6485815Y-6557022D01*
X6485815Y-6557022D02*
X6485815Y-6661784D01*
X6876291Y-6452260D02*
X6704863Y-6709403D01*
X7133434Y-6461784D02*
X7152482Y-6461784D01*
X7152482Y-6461784D02*
X7171529Y-6471308D01*
X7171529Y-6471308D02*
X7181053Y-6480831D01*
X7181053Y-6480831D02*
X7190577Y-6499879D01*
X7190577Y-6499879D02*
X7200101Y-6537974D01*
X7200101Y-6537974D02*
X7200101Y-6585593D01*
X7200101Y-6585593D02*
X7190577Y-6623688D01*
X7190577Y-6623688D02*
X7181053Y-6642736D01*
X7181053Y-6642736D02*
X7171529Y-6652260D01*
X7171529Y-6652260D02*
X7152482Y-6661784D01*
X7152482Y-6661784D02*
X7133434Y-6661784D01*
X7133434Y-6661784D02*
X7114386Y-6652260D01*
X7114386Y-6652260D02*
X7104863Y-6642736D01*
X7104863Y-6642736D02*
X7095339Y-6623688D01*
X7095339Y-6623688D02*
X7085815Y-6585593D01*
X7085815Y-6585593D02*
X7085815Y-6537974D01*
X7085815Y-6537974D02*
X7095339Y-6499879D01*
X7095339Y-6499879D02*
X7104863Y-6480831D01*
X7104863Y-6480831D02*
X7114386Y-6471308D01*
X7114386Y-6471308D02*
X7133434Y-6461784D01*
X7285815Y-6642736D02*
X7295339Y-6652260D01*
X7295339Y-6652260D02*
X7285815Y-6661784D01*
X7285815Y-6661784D02*
X7276291Y-6652260D01*
X7276291Y-6652260D02*
X7285815Y-6642736D01*
X7285815Y-6642736D02*
X7285815Y-6661784D01*
X7419148Y-6461784D02*
X7438196Y-6461784D01*
X7438196Y-6461784D02*
X7457244Y-6471308D01*
X7457244Y-6471308D02*
X7466767Y-6480831D01*
X7466767Y-6480831D02*
X7476291Y-6499879D01*
X7476291Y-6499879D02*
X7485815Y-6537974D01*
X7485815Y-6537974D02*
X7485815Y-6585593D01*
X7485815Y-6585593D02*
X7476291Y-6623688D01*
X7476291Y-6623688D02*
X7466767Y-6642736D01*
X7466767Y-6642736D02*
X7457244Y-6652260D01*
X7457244Y-6652260D02*
X7438196Y-6661784D01*
X7438196Y-6661784D02*
X7419148Y-6661784D01*
X7419148Y-6661784D02*
X7400101Y-6652260D01*
X7400101Y-6652260D02*
X7390577Y-6642736D01*
X7390577Y-6642736D02*
X7381053Y-6623688D01*
X7381053Y-6623688D02*
X7371529Y-6585593D01*
X7371529Y-6585593D02*
X7371529Y-6537974D01*
X7371529Y-6537974D02*
X7381053Y-6499879D01*
X7381053Y-6499879D02*
X7390577Y-6480831D01*
X7390577Y-6480831D02*
X7400101Y-6471308D01*
X7400101Y-6471308D02*
X7419148Y-6461784D01*
X7657244Y-6528450D02*
X7657244Y-6661784D01*
X7609625Y-6452260D02*
X7562006Y-6595117D01*
X7562006Y-6595117D02*
X7685815Y-6595117D01*
X7742958Y-6461784D02*
X7866767Y-6461784D01*
X7866767Y-6461784D02*
X7800101Y-6537974D01*
X7800101Y-6537974D02*
X7828672Y-6537974D01*
X7828672Y-6537974D02*
X7847720Y-6547498D01*
X7847720Y-6547498D02*
X7857244Y-6557022D01*
X7857244Y-6557022D02*
X7866767Y-6576069D01*
X7866767Y-6576069D02*
X7866767Y-6623688D01*
X7866767Y-6623688D02*
X7857244Y-6642736D01*
X7857244Y-6642736D02*
X7847720Y-6652260D01*
X7847720Y-6652260D02*
X7828672Y-6661784D01*
X7828672Y-6661784D02*
X7771529Y-6661784D01*
X7771529Y-6661784D02*
X7752482Y-6652260D01*
X7752482Y-6652260D02*
X7742958Y-6642736D01*
X7933434Y-6461784D02*
X8057244Y-6461784D01*
X8057244Y-6461784D02*
X7990577Y-6537974D01*
X7990577Y-6537974D02*
X8019148Y-6537974D01*
X8019148Y-6537974D02*
X8038196Y-6547498D01*
X8038196Y-6547498D02*
X8047720Y-6557022D01*
X8047720Y-6557022D02*
X8057244Y-6576069D01*
X8057244Y-6576069D02*
X8057244Y-6623688D01*
X8057244Y-6623688D02*
X8047720Y-6642736D01*
X8047720Y-6642736D02*
X8038196Y-6652260D01*
X8038196Y-6652260D02*
X8019148Y-6661784D01*
X8019148Y-6661784D02*
X7962006Y-6661784D01*
X7962006Y-6661784D02*
X7942958Y-6652260D01*
X7942958Y-6652260D02*
X7933434Y-6642736D01*
X8133434Y-6461784D02*
X8133434Y-6499879D01*
X8209625Y-6461784D02*
X8209625Y-6499879D01*
X8504863Y-6737974D02*
X8495339Y-6728450D01*
X8495339Y-6728450D02*
X8476291Y-6699879D01*
X8476291Y-6699879D02*
X8466768Y-6680831D01*
X8466768Y-6680831D02*
X8457244Y-6652260D01*
X8457244Y-6652260D02*
X8447720Y-6604641D01*
X8447720Y-6604641D02*
X8447720Y-6566546D01*
X8447720Y-6566546D02*
X8457244Y-6518927D01*
X8457244Y-6518927D02*
X8466768Y-6490355D01*
X8466768Y-6490355D02*
X8476291Y-6471308D01*
X8476291Y-6471308D02*
X8495339Y-6442736D01*
X8495339Y-6442736D02*
X8504863Y-6433212D01*
X8562006Y-6461784D02*
X8695339Y-6461784D01*
X8695339Y-6461784D02*
X8609625Y-6661784D01*
X8923911Y-6661784D02*
X8923911Y-6461784D01*
X9009625Y-6661784D02*
X9009625Y-6557022D01*
X9009625Y-6557022D02*
X9000101Y-6537974D01*
X9000101Y-6537974D02*
X8981053Y-6528450D01*
X8981053Y-6528450D02*
X8952482Y-6528450D01*
X8952482Y-6528450D02*
X8933434Y-6537974D01*
X8933434Y-6537974D02*
X8923911Y-6547498D01*
X9133434Y-6661784D02*
X9114387Y-6652260D01*
X9114387Y-6652260D02*
X9104863Y-6642736D01*
X9104863Y-6642736D02*
X9095339Y-6623688D01*
X9095339Y-6623688D02*
X9095339Y-6566546D01*
X9095339Y-6566546D02*
X9104863Y-6547498D01*
X9104863Y-6547498D02*
X9114387Y-6537974D01*
X9114387Y-6537974D02*
X9133434Y-6528450D01*
X9133434Y-6528450D02*
X9162006Y-6528450D01*
X9162006Y-6528450D02*
X9181053Y-6537974D01*
X9181053Y-6537974D02*
X9190577Y-6547498D01*
X9190577Y-6547498D02*
X9200101Y-6566546D01*
X9200101Y-6566546D02*
X9200101Y-6623688D01*
X9200101Y-6623688D02*
X9190577Y-6642736D01*
X9190577Y-6642736D02*
X9181053Y-6652260D01*
X9181053Y-6652260D02*
X9162006Y-6661784D01*
X9162006Y-6661784D02*
X9133434Y-6661784D01*
X9314387Y-6661784D02*
X9295339Y-6652260D01*
X9295339Y-6652260D02*
X9285815Y-6633212D01*
X9285815Y-6633212D02*
X9285815Y-6461784D01*
X9466768Y-6652260D02*
X9447720Y-6661784D01*
X9447720Y-6661784D02*
X9409625Y-6661784D01*
X9409625Y-6661784D02*
X9390577Y-6652260D01*
X9390577Y-6652260D02*
X9381053Y-6633212D01*
X9381053Y-6633212D02*
X9381053Y-6557022D01*
X9381053Y-6557022D02*
X9390577Y-6537974D01*
X9390577Y-6537974D02*
X9409625Y-6528450D01*
X9409625Y-6528450D02*
X9447720Y-6528450D01*
X9447720Y-6528450D02*
X9466768Y-6537974D01*
X9466768Y-6537974D02*
X9476292Y-6557022D01*
X9476292Y-6557022D02*
X9476292Y-6576069D01*
X9476292Y-6576069D02*
X9381053Y-6595117D01*
X9552482Y-6652260D02*
X9571530Y-6661784D01*
X9571530Y-6661784D02*
X9609625Y-6661784D01*
X9609625Y-6661784D02*
X9628673Y-6652260D01*
X9628673Y-6652260D02*
X9638196Y-6633212D01*
X9638196Y-6633212D02*
X9638196Y-6623688D01*
X9638196Y-6623688D02*
X9628673Y-6604641D01*
X9628673Y-6604641D02*
X9609625Y-6595117D01*
X9609625Y-6595117D02*
X9581053Y-6595117D01*
X9581053Y-6595117D02*
X9562006Y-6585593D01*
X9562006Y-6585593D02*
X9552482Y-6566546D01*
X9552482Y-6566546D02*
X9552482Y-6557022D01*
X9552482Y-6557022D02*
X9562006Y-6537974D01*
X9562006Y-6537974D02*
X9581053Y-6528450D01*
X9581053Y-6528450D02*
X9609625Y-6528450D01*
X9609625Y-6528450D02*
X9628673Y-6537974D01*
X9704863Y-6737974D02*
X9714387Y-6728450D01*
X9714387Y-6728450D02*
X9733434Y-6699879D01*
X9733434Y-6699879D02*
X9742958Y-6680831D01*
X9742958Y-6680831D02*
X9752482Y-6652260D01*
X9752482Y-6652260D02*
X9762006Y-6604641D01*
X9762006Y-6604641D02*
X9762006Y-6566546D01*
X9762006Y-6566546D02*
X9752482Y-6518927D01*
X9752482Y-6518927D02*
X9742958Y-6490355D01*
X9742958Y-6490355D02*
X9733434Y-6471308D01*
X9733434Y-6471308D02*
X9714387Y-6442736D01*
X9714387Y-6442736D02*
X9704863Y-6433212D01*
D14*
X4864800Y-6899300D02*
X4929800Y-6834300D01*
X4864800Y-6769300D01*
X4799800Y-6834300D01*
X4864800Y-6899300D01*
D11*
X5295339Y-6925784D02*
X5181053Y-6925784D01*
X5238196Y-6925784D02*
X5238196Y-6725784D01*
X5238196Y-6725784D02*
X5219148Y-6754355D01*
X5219148Y-6754355D02*
X5200101Y-6773403D01*
X5200101Y-6773403D02*
X5181053Y-6782927D01*
X5381053Y-6906736D02*
X5390577Y-6916260D01*
X5390577Y-6916260D02*
X5381053Y-6925784D01*
X5381053Y-6925784D02*
X5371529Y-6916260D01*
X5371529Y-6916260D02*
X5381053Y-6906736D01*
X5381053Y-6906736D02*
X5381053Y-6925784D01*
X5457244Y-6725784D02*
X5581053Y-6725784D01*
X5581053Y-6725784D02*
X5514386Y-6801974D01*
X5514386Y-6801974D02*
X5542958Y-6801974D01*
X5542958Y-6801974D02*
X5562005Y-6811498D01*
X5562005Y-6811498D02*
X5571529Y-6821022D01*
X5571529Y-6821022D02*
X5581053Y-6840069D01*
X5581053Y-6840069D02*
X5581053Y-6887688D01*
X5581053Y-6887688D02*
X5571529Y-6906736D01*
X5571529Y-6906736D02*
X5562005Y-6916260D01*
X5562005Y-6916260D02*
X5542958Y-6925784D01*
X5542958Y-6925784D02*
X5485815Y-6925784D01*
X5485815Y-6925784D02*
X5466767Y-6916260D01*
X5466767Y-6916260D02*
X5457244Y-6906736D01*
X5704862Y-6725784D02*
X5723910Y-6725784D01*
X5723910Y-6725784D02*
X5742958Y-6735308D01*
X5742958Y-6735308D02*
X5752482Y-6744831D01*
X5752482Y-6744831D02*
X5762005Y-6763879D01*
X5762005Y-6763879D02*
X5771529Y-6801974D01*
X5771529Y-6801974D02*
X5771529Y-6849593D01*
X5771529Y-6849593D02*
X5762005Y-6887688D01*
X5762005Y-6887688D02*
X5752482Y-6906736D01*
X5752482Y-6906736D02*
X5742958Y-6916260D01*
X5742958Y-6916260D02*
X5723910Y-6925784D01*
X5723910Y-6925784D02*
X5704862Y-6925784D01*
X5704862Y-6925784D02*
X5685815Y-6916260D01*
X5685815Y-6916260D02*
X5676291Y-6906736D01*
X5676291Y-6906736D02*
X5666767Y-6887688D01*
X5666767Y-6887688D02*
X5657243Y-6849593D01*
X5657243Y-6849593D02*
X5657243Y-6801974D01*
X5657243Y-6801974D02*
X5666767Y-6763879D01*
X5666767Y-6763879D02*
X5676291Y-6744831D01*
X5676291Y-6744831D02*
X5685815Y-6735308D01*
X5685815Y-6735308D02*
X5704862Y-6725784D01*
X5895339Y-6725784D02*
X5914386Y-6725784D01*
X5914386Y-6725784D02*
X5933434Y-6735308D01*
X5933434Y-6735308D02*
X5942958Y-6744831D01*
X5942958Y-6744831D02*
X5952482Y-6763879D01*
X5952482Y-6763879D02*
X5962005Y-6801974D01*
X5962005Y-6801974D02*
X5962005Y-6849593D01*
X5962005Y-6849593D02*
X5952482Y-6887688D01*
X5952482Y-6887688D02*
X5942958Y-6906736D01*
X5942958Y-6906736D02*
X5933434Y-6916260D01*
X5933434Y-6916260D02*
X5914386Y-6925784D01*
X5914386Y-6925784D02*
X5895339Y-6925784D01*
X5895339Y-6925784D02*
X5876291Y-6916260D01*
X5876291Y-6916260D02*
X5866767Y-6906736D01*
X5866767Y-6906736D02*
X5857243Y-6887688D01*
X5857243Y-6887688D02*
X5847720Y-6849593D01*
X5847720Y-6849593D02*
X5847720Y-6801974D01*
X5847720Y-6801974D02*
X5857243Y-6763879D01*
X5857243Y-6763879D02*
X5866767Y-6744831D01*
X5866767Y-6744831D02*
X5876291Y-6735308D01*
X5876291Y-6735308D02*
X5895339Y-6725784D01*
X6047720Y-6925784D02*
X6047720Y-6792450D01*
X6047720Y-6811498D02*
X6057243Y-6801974D01*
X6057243Y-6801974D02*
X6076291Y-6792450D01*
X6076291Y-6792450D02*
X6104863Y-6792450D01*
X6104863Y-6792450D02*
X6123910Y-6801974D01*
X6123910Y-6801974D02*
X6133434Y-6821022D01*
X6133434Y-6821022D02*
X6133434Y-6925784D01*
X6133434Y-6821022D02*
X6142958Y-6801974D01*
X6142958Y-6801974D02*
X6162005Y-6792450D01*
X6162005Y-6792450D02*
X6190577Y-6792450D01*
X6190577Y-6792450D02*
X6209624Y-6801974D01*
X6209624Y-6801974D02*
X6219148Y-6821022D01*
X6219148Y-6821022D02*
X6219148Y-6925784D01*
X6314386Y-6925784D02*
X6314386Y-6792450D01*
X6314386Y-6811498D02*
X6323910Y-6801974D01*
X6323910Y-6801974D02*
X6342958Y-6792450D01*
X6342958Y-6792450D02*
X6371529Y-6792450D01*
X6371529Y-6792450D02*
X6390577Y-6801974D01*
X6390577Y-6801974D02*
X6400101Y-6821022D01*
X6400101Y-6821022D02*
X6400101Y-6925784D01*
X6400101Y-6821022D02*
X6409624Y-6801974D01*
X6409624Y-6801974D02*
X6428672Y-6792450D01*
X6428672Y-6792450D02*
X6457243Y-6792450D01*
X6457243Y-6792450D02*
X6476291Y-6801974D01*
X6476291Y-6801974D02*
X6485815Y-6821022D01*
X6485815Y-6821022D02*
X6485815Y-6925784D01*
X6876291Y-6716260D02*
X6704863Y-6973403D01*
X7133434Y-6725784D02*
X7152482Y-6725784D01*
X7152482Y-6725784D02*
X7171529Y-6735308D01*
X7171529Y-6735308D02*
X7181053Y-6744831D01*
X7181053Y-6744831D02*
X7190577Y-6763879D01*
X7190577Y-6763879D02*
X7200101Y-6801974D01*
X7200101Y-6801974D02*
X7200101Y-6849593D01*
X7200101Y-6849593D02*
X7190577Y-6887688D01*
X7190577Y-6887688D02*
X7181053Y-6906736D01*
X7181053Y-6906736D02*
X7171529Y-6916260D01*
X7171529Y-6916260D02*
X7152482Y-6925784D01*
X7152482Y-6925784D02*
X7133434Y-6925784D01*
X7133434Y-6925784D02*
X7114386Y-6916260D01*
X7114386Y-6916260D02*
X7104863Y-6906736D01*
X7104863Y-6906736D02*
X7095339Y-6887688D01*
X7095339Y-6887688D02*
X7085815Y-6849593D01*
X7085815Y-6849593D02*
X7085815Y-6801974D01*
X7085815Y-6801974D02*
X7095339Y-6763879D01*
X7095339Y-6763879D02*
X7104863Y-6744831D01*
X7104863Y-6744831D02*
X7114386Y-6735308D01*
X7114386Y-6735308D02*
X7133434Y-6725784D01*
X7285815Y-6906736D02*
X7295339Y-6916260D01*
X7295339Y-6916260D02*
X7285815Y-6925784D01*
X7285815Y-6925784D02*
X7276291Y-6916260D01*
X7276291Y-6916260D02*
X7285815Y-6906736D01*
X7285815Y-6906736D02*
X7285815Y-6925784D01*
X7419148Y-6725784D02*
X7438196Y-6725784D01*
X7438196Y-6725784D02*
X7457244Y-6735308D01*
X7457244Y-6735308D02*
X7466767Y-6744831D01*
X7466767Y-6744831D02*
X7476291Y-6763879D01*
X7476291Y-6763879D02*
X7485815Y-6801974D01*
X7485815Y-6801974D02*
X7485815Y-6849593D01*
X7485815Y-6849593D02*
X7476291Y-6887688D01*
X7476291Y-6887688D02*
X7466767Y-6906736D01*
X7466767Y-6906736D02*
X7457244Y-6916260D01*
X7457244Y-6916260D02*
X7438196Y-6925784D01*
X7438196Y-6925784D02*
X7419148Y-6925784D01*
X7419148Y-6925784D02*
X7400101Y-6916260D01*
X7400101Y-6916260D02*
X7390577Y-6906736D01*
X7390577Y-6906736D02*
X7381053Y-6887688D01*
X7381053Y-6887688D02*
X7371529Y-6849593D01*
X7371529Y-6849593D02*
X7371529Y-6801974D01*
X7371529Y-6801974D02*
X7381053Y-6763879D01*
X7381053Y-6763879D02*
X7390577Y-6744831D01*
X7390577Y-6744831D02*
X7400101Y-6735308D01*
X7400101Y-6735308D02*
X7419148Y-6725784D01*
X7666767Y-6725784D02*
X7571529Y-6725784D01*
X7571529Y-6725784D02*
X7562006Y-6821022D01*
X7562006Y-6821022D02*
X7571529Y-6811498D01*
X7571529Y-6811498D02*
X7590577Y-6801974D01*
X7590577Y-6801974D02*
X7638196Y-6801974D01*
X7638196Y-6801974D02*
X7657244Y-6811498D01*
X7657244Y-6811498D02*
X7666767Y-6821022D01*
X7666767Y-6821022D02*
X7676291Y-6840069D01*
X7676291Y-6840069D02*
X7676291Y-6887688D01*
X7676291Y-6887688D02*
X7666767Y-6906736D01*
X7666767Y-6906736D02*
X7657244Y-6916260D01*
X7657244Y-6916260D02*
X7638196Y-6925784D01*
X7638196Y-6925784D02*
X7590577Y-6925784D01*
X7590577Y-6925784D02*
X7571529Y-6916260D01*
X7571529Y-6916260D02*
X7562006Y-6906736D01*
X7866767Y-6925784D02*
X7752482Y-6925784D01*
X7809625Y-6925784D02*
X7809625Y-6725784D01*
X7809625Y-6725784D02*
X7790577Y-6754355D01*
X7790577Y-6754355D02*
X7771529Y-6773403D01*
X7771529Y-6773403D02*
X7752482Y-6782927D01*
X7942958Y-6744831D02*
X7952482Y-6735308D01*
X7952482Y-6735308D02*
X7971529Y-6725784D01*
X7971529Y-6725784D02*
X8019148Y-6725784D01*
X8019148Y-6725784D02*
X8038196Y-6735308D01*
X8038196Y-6735308D02*
X8047720Y-6744831D01*
X8047720Y-6744831D02*
X8057244Y-6763879D01*
X8057244Y-6763879D02*
X8057244Y-6782927D01*
X8057244Y-6782927D02*
X8047720Y-6811498D01*
X8047720Y-6811498D02*
X7933434Y-6925784D01*
X7933434Y-6925784D02*
X8057244Y-6925784D01*
X8133434Y-6725784D02*
X8133434Y-6763879D01*
X8209625Y-6725784D02*
X8209625Y-6763879D01*
X8504863Y-7001974D02*
X8495339Y-6992450D01*
X8495339Y-6992450D02*
X8476291Y-6963879D01*
X8476291Y-6963879D02*
X8466768Y-6944831D01*
X8466768Y-6944831D02*
X8457244Y-6916260D01*
X8457244Y-6916260D02*
X8447720Y-6868641D01*
X8447720Y-6868641D02*
X8447720Y-6830546D01*
X8447720Y-6830546D02*
X8457244Y-6782927D01*
X8457244Y-6782927D02*
X8466768Y-6754355D01*
X8466768Y-6754355D02*
X8476291Y-6735308D01*
X8476291Y-6735308D02*
X8495339Y-6706736D01*
X8495339Y-6706736D02*
X8504863Y-6697212D01*
X8571530Y-6744831D02*
X8581053Y-6735308D01*
X8581053Y-6735308D02*
X8600101Y-6725784D01*
X8600101Y-6725784D02*
X8647720Y-6725784D01*
X8647720Y-6725784D02*
X8666768Y-6735308D01*
X8666768Y-6735308D02*
X8676291Y-6744831D01*
X8676291Y-6744831D02*
X8685815Y-6763879D01*
X8685815Y-6763879D02*
X8685815Y-6782927D01*
X8685815Y-6782927D02*
X8676291Y-6811498D01*
X8676291Y-6811498D02*
X8562006Y-6925784D01*
X8562006Y-6925784D02*
X8685815Y-6925784D01*
X8923911Y-6925784D02*
X8923911Y-6725784D01*
X9009625Y-6925784D02*
X9009625Y-6821022D01*
X9009625Y-6821022D02*
X9000101Y-6801974D01*
X9000101Y-6801974D02*
X8981053Y-6792450D01*
X8981053Y-6792450D02*
X8952482Y-6792450D01*
X8952482Y-6792450D02*
X8933434Y-6801974D01*
X8933434Y-6801974D02*
X8923911Y-6811498D01*
X9133434Y-6925784D02*
X9114387Y-6916260D01*
X9114387Y-6916260D02*
X9104863Y-6906736D01*
X9104863Y-6906736D02*
X9095339Y-6887688D01*
X9095339Y-6887688D02*
X9095339Y-6830546D01*
X9095339Y-6830546D02*
X9104863Y-6811498D01*
X9104863Y-6811498D02*
X9114387Y-6801974D01*
X9114387Y-6801974D02*
X9133434Y-6792450D01*
X9133434Y-6792450D02*
X9162006Y-6792450D01*
X9162006Y-6792450D02*
X9181053Y-6801974D01*
X9181053Y-6801974D02*
X9190577Y-6811498D01*
X9190577Y-6811498D02*
X9200101Y-6830546D01*
X9200101Y-6830546D02*
X9200101Y-6887688D01*
X9200101Y-6887688D02*
X9190577Y-6906736D01*
X9190577Y-6906736D02*
X9181053Y-6916260D01*
X9181053Y-6916260D02*
X9162006Y-6925784D01*
X9162006Y-6925784D02*
X9133434Y-6925784D01*
X9314387Y-6925784D02*
X9295339Y-6916260D01*
X9295339Y-6916260D02*
X9285815Y-6897212D01*
X9285815Y-6897212D02*
X9285815Y-6725784D01*
X9466768Y-6916260D02*
X9447720Y-6925784D01*
X9447720Y-6925784D02*
X9409625Y-6925784D01*
X9409625Y-6925784D02*
X9390577Y-6916260D01*
X9390577Y-6916260D02*
X9381053Y-6897212D01*
X9381053Y-6897212D02*
X9381053Y-6821022D01*
X9381053Y-6821022D02*
X9390577Y-6801974D01*
X9390577Y-6801974D02*
X9409625Y-6792450D01*
X9409625Y-6792450D02*
X9447720Y-6792450D01*
X9447720Y-6792450D02*
X9466768Y-6801974D01*
X9466768Y-6801974D02*
X9476292Y-6821022D01*
X9476292Y-6821022D02*
X9476292Y-6840069D01*
X9476292Y-6840069D02*
X9381053Y-6859117D01*
X9552482Y-6916260D02*
X9571530Y-6925784D01*
X9571530Y-6925784D02*
X9609625Y-6925784D01*
X9609625Y-6925784D02*
X9628673Y-6916260D01*
X9628673Y-6916260D02*
X9638196Y-6897212D01*
X9638196Y-6897212D02*
X9638196Y-6887688D01*
X9638196Y-6887688D02*
X9628673Y-6868641D01*
X9628673Y-6868641D02*
X9609625Y-6859117D01*
X9609625Y-6859117D02*
X9581053Y-6859117D01*
X9581053Y-6859117D02*
X9562006Y-6849593D01*
X9562006Y-6849593D02*
X9552482Y-6830546D01*
X9552482Y-6830546D02*
X9552482Y-6821022D01*
X9552482Y-6821022D02*
X9562006Y-6801974D01*
X9562006Y-6801974D02*
X9581053Y-6792450D01*
X9581053Y-6792450D02*
X9609625Y-6792450D01*
X9609625Y-6792450D02*
X9628673Y-6801974D01*
X9704863Y-7001974D02*
X9714387Y-6992450D01*
X9714387Y-6992450D02*
X9733434Y-6963879D01*
X9733434Y-6963879D02*
X9742958Y-6944831D01*
X9742958Y-6944831D02*
X9752482Y-6916260D01*
X9752482Y-6916260D02*
X9762006Y-6868641D01*
X9762006Y-6868641D02*
X9762006Y-6830546D01*
X9762006Y-6830546D02*
X9752482Y-6782927D01*
X9752482Y-6782927D02*
X9742958Y-6754355D01*
X9742958Y-6754355D02*
X9733434Y-6735308D01*
X9733434Y-6735308D02*
X9714387Y-6706736D01*
X9714387Y-6706736D02*
X9704863Y-6697212D01*
M02*
