%TF.GenerationSoftware,KiCad,Pcbnew,7.0.9*%
%TF.CreationDate,2023-11-11T09:59:14+01:00*%
%TF.ProjectId,CO2-PwrSupply,434f322d-5077-4725-9375-70706c792e6b,1.0*%
%TF.SameCoordinates,Original*%
%TF.FileFunction,Drillmap*%
%TF.FilePolarity,Positive*%
%FSLAX45Y45*%
G04 Gerber Fmt 4.5, Leading zero omitted, Abs format (unit mm)*
G04 Created by KiCad (PCBNEW 7.0.9) date 2023-11-11 09:59:14*
%MOMM*%
%LPD*%
G01*
G04 APERTURE LIST*
%ADD10C,0.150000*%
%ADD11C,0.200000*%
%ADD12C,0.320000*%
%ADD13C,0.350000*%
G04 APERTURE END LIST*
D10*
X4937300Y-1714500D02*
X7934500Y-1714500D01*
X7934500Y-5130800D01*
X4937300Y-5130800D01*
X4937300Y-1714500D01*
D11*
D12*
X6174300Y-4589800D02*
X6494300Y-4909800D01*
X6494300Y-4589800D02*
X6174300Y-4909800D01*
X7380800Y-1922800D02*
X7700800Y-2242800D01*
X7700800Y-1922800D02*
X7380800Y-2242800D01*
D13*
X7461800Y-4764800D02*
G75*
G03*
X7461800Y-4764800I-175000J0D01*
G01*
D11*
X5190577Y-5449784D02*
X5190577Y-5249784D01*
X5190577Y-5249784D02*
X5238196Y-5249784D01*
X5238196Y-5249784D02*
X5266767Y-5259308D01*
X5266767Y-5259308D02*
X5285815Y-5278355D01*
X5285815Y-5278355D02*
X5295339Y-5297403D01*
X5295339Y-5297403D02*
X5304863Y-5335498D01*
X5304863Y-5335498D02*
X5304863Y-5364070D01*
X5304863Y-5364070D02*
X5295339Y-5402165D01*
X5295339Y-5402165D02*
X5285815Y-5421212D01*
X5285815Y-5421212D02*
X5266767Y-5440260D01*
X5266767Y-5440260D02*
X5238196Y-5449784D01*
X5238196Y-5449784D02*
X5190577Y-5449784D01*
X5390577Y-5449784D02*
X5390577Y-5316450D01*
X5390577Y-5354546D02*
X5400101Y-5335498D01*
X5400101Y-5335498D02*
X5409624Y-5325974D01*
X5409624Y-5325974D02*
X5428672Y-5316450D01*
X5428672Y-5316450D02*
X5447720Y-5316450D01*
X5514386Y-5449784D02*
X5514386Y-5316450D01*
X5514386Y-5249784D02*
X5504863Y-5259308D01*
X5504863Y-5259308D02*
X5514386Y-5268831D01*
X5514386Y-5268831D02*
X5523910Y-5259308D01*
X5523910Y-5259308D02*
X5514386Y-5249784D01*
X5514386Y-5249784D02*
X5514386Y-5268831D01*
X5638196Y-5449784D02*
X5619148Y-5440260D01*
X5619148Y-5440260D02*
X5609624Y-5421212D01*
X5609624Y-5421212D02*
X5609624Y-5249784D01*
X5742958Y-5449784D02*
X5723910Y-5440260D01*
X5723910Y-5440260D02*
X5714386Y-5421212D01*
X5714386Y-5421212D02*
X5714386Y-5249784D01*
X5971529Y-5449784D02*
X5971529Y-5249784D01*
X5971529Y-5249784D02*
X6038196Y-5392641D01*
X6038196Y-5392641D02*
X6104862Y-5249784D01*
X6104862Y-5249784D02*
X6104862Y-5449784D01*
X6285815Y-5449784D02*
X6285815Y-5345022D01*
X6285815Y-5345022D02*
X6276291Y-5325974D01*
X6276291Y-5325974D02*
X6257243Y-5316450D01*
X6257243Y-5316450D02*
X6219148Y-5316450D01*
X6219148Y-5316450D02*
X6200101Y-5325974D01*
X6285815Y-5440260D02*
X6266767Y-5449784D01*
X6266767Y-5449784D02*
X6219148Y-5449784D01*
X6219148Y-5449784D02*
X6200101Y-5440260D01*
X6200101Y-5440260D02*
X6190577Y-5421212D01*
X6190577Y-5421212D02*
X6190577Y-5402165D01*
X6190577Y-5402165D02*
X6200101Y-5383117D01*
X6200101Y-5383117D02*
X6219148Y-5373593D01*
X6219148Y-5373593D02*
X6266767Y-5373593D01*
X6266767Y-5373593D02*
X6285815Y-5364070D01*
X6381053Y-5316450D02*
X6381053Y-5516450D01*
X6381053Y-5325974D02*
X6400101Y-5316450D01*
X6400101Y-5316450D02*
X6438196Y-5316450D01*
X6438196Y-5316450D02*
X6457243Y-5325974D01*
X6457243Y-5325974D02*
X6466767Y-5335498D01*
X6466767Y-5335498D02*
X6476291Y-5354546D01*
X6476291Y-5354546D02*
X6476291Y-5411689D01*
X6476291Y-5411689D02*
X6466767Y-5430736D01*
X6466767Y-5430736D02*
X6457243Y-5440260D01*
X6457243Y-5440260D02*
X6438196Y-5449784D01*
X6438196Y-5449784D02*
X6400101Y-5449784D01*
X6400101Y-5449784D02*
X6381053Y-5440260D01*
X6562005Y-5430736D02*
X6571529Y-5440260D01*
X6571529Y-5440260D02*
X6562005Y-5449784D01*
X6562005Y-5449784D02*
X6552482Y-5440260D01*
X6552482Y-5440260D02*
X6562005Y-5430736D01*
X6562005Y-5430736D02*
X6562005Y-5449784D01*
X6562005Y-5325974D02*
X6571529Y-5335498D01*
X6571529Y-5335498D02*
X6562005Y-5345022D01*
X6562005Y-5345022D02*
X6552482Y-5335498D01*
X6552482Y-5335498D02*
X6562005Y-5325974D01*
X6562005Y-5325974D02*
X6562005Y-5345022D01*
X4729800Y-5678300D02*
X4929800Y-5878300D01*
X4929800Y-5678300D02*
X4729800Y-5878300D01*
X5171529Y-5669784D02*
X5295339Y-5669784D01*
X5295339Y-5669784D02*
X5228672Y-5745974D01*
X5228672Y-5745974D02*
X5257244Y-5745974D01*
X5257244Y-5745974D02*
X5276291Y-5755498D01*
X5276291Y-5755498D02*
X5285815Y-5765022D01*
X5285815Y-5765022D02*
X5295339Y-5784069D01*
X5295339Y-5784069D02*
X5295339Y-5831688D01*
X5295339Y-5831688D02*
X5285815Y-5850736D01*
X5285815Y-5850736D02*
X5276291Y-5860260D01*
X5276291Y-5860260D02*
X5257244Y-5869784D01*
X5257244Y-5869784D02*
X5200101Y-5869784D01*
X5200101Y-5869784D02*
X5181053Y-5860260D01*
X5181053Y-5860260D02*
X5171529Y-5850736D01*
X5381053Y-5850736D02*
X5390577Y-5860260D01*
X5390577Y-5860260D02*
X5381053Y-5869784D01*
X5381053Y-5869784D02*
X5371529Y-5860260D01*
X5371529Y-5860260D02*
X5381053Y-5850736D01*
X5381053Y-5850736D02*
X5381053Y-5869784D01*
X5466767Y-5688831D02*
X5476291Y-5679308D01*
X5476291Y-5679308D02*
X5495339Y-5669784D01*
X5495339Y-5669784D02*
X5542958Y-5669784D01*
X5542958Y-5669784D02*
X5562005Y-5679308D01*
X5562005Y-5679308D02*
X5571529Y-5688831D01*
X5571529Y-5688831D02*
X5581053Y-5707879D01*
X5581053Y-5707879D02*
X5581053Y-5726927D01*
X5581053Y-5726927D02*
X5571529Y-5755498D01*
X5571529Y-5755498D02*
X5457244Y-5869784D01*
X5457244Y-5869784D02*
X5581053Y-5869784D01*
X5704862Y-5669784D02*
X5723910Y-5669784D01*
X5723910Y-5669784D02*
X5742958Y-5679308D01*
X5742958Y-5679308D02*
X5752482Y-5688831D01*
X5752482Y-5688831D02*
X5762005Y-5707879D01*
X5762005Y-5707879D02*
X5771529Y-5745974D01*
X5771529Y-5745974D02*
X5771529Y-5793593D01*
X5771529Y-5793593D02*
X5762005Y-5831688D01*
X5762005Y-5831688D02*
X5752482Y-5850736D01*
X5752482Y-5850736D02*
X5742958Y-5860260D01*
X5742958Y-5860260D02*
X5723910Y-5869784D01*
X5723910Y-5869784D02*
X5704862Y-5869784D01*
X5704862Y-5869784D02*
X5685815Y-5860260D01*
X5685815Y-5860260D02*
X5676291Y-5850736D01*
X5676291Y-5850736D02*
X5666767Y-5831688D01*
X5666767Y-5831688D02*
X5657243Y-5793593D01*
X5657243Y-5793593D02*
X5657243Y-5745974D01*
X5657243Y-5745974D02*
X5666767Y-5707879D01*
X5666767Y-5707879D02*
X5676291Y-5688831D01*
X5676291Y-5688831D02*
X5685815Y-5679308D01*
X5685815Y-5679308D02*
X5704862Y-5669784D01*
X5895339Y-5669784D02*
X5914386Y-5669784D01*
X5914386Y-5669784D02*
X5933434Y-5679308D01*
X5933434Y-5679308D02*
X5942958Y-5688831D01*
X5942958Y-5688831D02*
X5952482Y-5707879D01*
X5952482Y-5707879D02*
X5962005Y-5745974D01*
X5962005Y-5745974D02*
X5962005Y-5793593D01*
X5962005Y-5793593D02*
X5952482Y-5831688D01*
X5952482Y-5831688D02*
X5942958Y-5850736D01*
X5942958Y-5850736D02*
X5933434Y-5860260D01*
X5933434Y-5860260D02*
X5914386Y-5869784D01*
X5914386Y-5869784D02*
X5895339Y-5869784D01*
X5895339Y-5869784D02*
X5876291Y-5860260D01*
X5876291Y-5860260D02*
X5866767Y-5850736D01*
X5866767Y-5850736D02*
X5857243Y-5831688D01*
X5857243Y-5831688D02*
X5847720Y-5793593D01*
X5847720Y-5793593D02*
X5847720Y-5745974D01*
X5847720Y-5745974D02*
X5857243Y-5707879D01*
X5857243Y-5707879D02*
X5866767Y-5688831D01*
X5866767Y-5688831D02*
X5876291Y-5679308D01*
X5876291Y-5679308D02*
X5895339Y-5669784D01*
X6047720Y-5869784D02*
X6047720Y-5736450D01*
X6047720Y-5755498D02*
X6057243Y-5745974D01*
X6057243Y-5745974D02*
X6076291Y-5736450D01*
X6076291Y-5736450D02*
X6104863Y-5736450D01*
X6104863Y-5736450D02*
X6123910Y-5745974D01*
X6123910Y-5745974D02*
X6133434Y-5765022D01*
X6133434Y-5765022D02*
X6133434Y-5869784D01*
X6133434Y-5765022D02*
X6142958Y-5745974D01*
X6142958Y-5745974D02*
X6162005Y-5736450D01*
X6162005Y-5736450D02*
X6190577Y-5736450D01*
X6190577Y-5736450D02*
X6209624Y-5745974D01*
X6209624Y-5745974D02*
X6219148Y-5765022D01*
X6219148Y-5765022D02*
X6219148Y-5869784D01*
X6314386Y-5869784D02*
X6314386Y-5736450D01*
X6314386Y-5755498D02*
X6323910Y-5745974D01*
X6323910Y-5745974D02*
X6342958Y-5736450D01*
X6342958Y-5736450D02*
X6371529Y-5736450D01*
X6371529Y-5736450D02*
X6390577Y-5745974D01*
X6390577Y-5745974D02*
X6400101Y-5765022D01*
X6400101Y-5765022D02*
X6400101Y-5869784D01*
X6400101Y-5765022D02*
X6409624Y-5745974D01*
X6409624Y-5745974D02*
X6428672Y-5736450D01*
X6428672Y-5736450D02*
X6457243Y-5736450D01*
X6457243Y-5736450D02*
X6476291Y-5745974D01*
X6476291Y-5745974D02*
X6485815Y-5765022D01*
X6485815Y-5765022D02*
X6485815Y-5869784D01*
X6876291Y-5660260D02*
X6704863Y-5917403D01*
X7133434Y-5669784D02*
X7152482Y-5669784D01*
X7152482Y-5669784D02*
X7171529Y-5679308D01*
X7171529Y-5679308D02*
X7181053Y-5688831D01*
X7181053Y-5688831D02*
X7190577Y-5707879D01*
X7190577Y-5707879D02*
X7200101Y-5745974D01*
X7200101Y-5745974D02*
X7200101Y-5793593D01*
X7200101Y-5793593D02*
X7190577Y-5831688D01*
X7190577Y-5831688D02*
X7181053Y-5850736D01*
X7181053Y-5850736D02*
X7171529Y-5860260D01*
X7171529Y-5860260D02*
X7152482Y-5869784D01*
X7152482Y-5869784D02*
X7133434Y-5869784D01*
X7133434Y-5869784D02*
X7114386Y-5860260D01*
X7114386Y-5860260D02*
X7104863Y-5850736D01*
X7104863Y-5850736D02*
X7095339Y-5831688D01*
X7095339Y-5831688D02*
X7085815Y-5793593D01*
X7085815Y-5793593D02*
X7085815Y-5745974D01*
X7085815Y-5745974D02*
X7095339Y-5707879D01*
X7095339Y-5707879D02*
X7104863Y-5688831D01*
X7104863Y-5688831D02*
X7114386Y-5679308D01*
X7114386Y-5679308D02*
X7133434Y-5669784D01*
X7285815Y-5850736D02*
X7295339Y-5860260D01*
X7295339Y-5860260D02*
X7285815Y-5869784D01*
X7285815Y-5869784D02*
X7276291Y-5860260D01*
X7276291Y-5860260D02*
X7285815Y-5850736D01*
X7285815Y-5850736D02*
X7285815Y-5869784D01*
X7485815Y-5869784D02*
X7371529Y-5869784D01*
X7428672Y-5869784D02*
X7428672Y-5669784D01*
X7428672Y-5669784D02*
X7409625Y-5698355D01*
X7409625Y-5698355D02*
X7390577Y-5717403D01*
X7390577Y-5717403D02*
X7371529Y-5726927D01*
X7562006Y-5688831D02*
X7571529Y-5679308D01*
X7571529Y-5679308D02*
X7590577Y-5669784D01*
X7590577Y-5669784D02*
X7638196Y-5669784D01*
X7638196Y-5669784D02*
X7657244Y-5679308D01*
X7657244Y-5679308D02*
X7666767Y-5688831D01*
X7666767Y-5688831D02*
X7676291Y-5707879D01*
X7676291Y-5707879D02*
X7676291Y-5726927D01*
X7676291Y-5726927D02*
X7666767Y-5755498D01*
X7666767Y-5755498D02*
X7552482Y-5869784D01*
X7552482Y-5869784D02*
X7676291Y-5869784D01*
X7847720Y-5669784D02*
X7809625Y-5669784D01*
X7809625Y-5669784D02*
X7790577Y-5679308D01*
X7790577Y-5679308D02*
X7781053Y-5688831D01*
X7781053Y-5688831D02*
X7762006Y-5717403D01*
X7762006Y-5717403D02*
X7752482Y-5755498D01*
X7752482Y-5755498D02*
X7752482Y-5831688D01*
X7752482Y-5831688D02*
X7762006Y-5850736D01*
X7762006Y-5850736D02*
X7771529Y-5860260D01*
X7771529Y-5860260D02*
X7790577Y-5869784D01*
X7790577Y-5869784D02*
X7828672Y-5869784D01*
X7828672Y-5869784D02*
X7847720Y-5860260D01*
X7847720Y-5860260D02*
X7857244Y-5850736D01*
X7857244Y-5850736D02*
X7866767Y-5831688D01*
X7866767Y-5831688D02*
X7866767Y-5784069D01*
X7866767Y-5784069D02*
X7857244Y-5765022D01*
X7857244Y-5765022D02*
X7847720Y-5755498D01*
X7847720Y-5755498D02*
X7828672Y-5745974D01*
X7828672Y-5745974D02*
X7790577Y-5745974D01*
X7790577Y-5745974D02*
X7771529Y-5755498D01*
X7771529Y-5755498D02*
X7762006Y-5765022D01*
X7762006Y-5765022D02*
X7752482Y-5784069D01*
X7990577Y-5669784D02*
X8009625Y-5669784D01*
X8009625Y-5669784D02*
X8028672Y-5679308D01*
X8028672Y-5679308D02*
X8038196Y-5688831D01*
X8038196Y-5688831D02*
X8047720Y-5707879D01*
X8047720Y-5707879D02*
X8057244Y-5745974D01*
X8057244Y-5745974D02*
X8057244Y-5793593D01*
X8057244Y-5793593D02*
X8047720Y-5831688D01*
X8047720Y-5831688D02*
X8038196Y-5850736D01*
X8038196Y-5850736D02*
X8028672Y-5860260D01*
X8028672Y-5860260D02*
X8009625Y-5869784D01*
X8009625Y-5869784D02*
X7990577Y-5869784D01*
X7990577Y-5869784D02*
X7971529Y-5860260D01*
X7971529Y-5860260D02*
X7962006Y-5850736D01*
X7962006Y-5850736D02*
X7952482Y-5831688D01*
X7952482Y-5831688D02*
X7942958Y-5793593D01*
X7942958Y-5793593D02*
X7942958Y-5745974D01*
X7942958Y-5745974D02*
X7952482Y-5707879D01*
X7952482Y-5707879D02*
X7962006Y-5688831D01*
X7962006Y-5688831D02*
X7971529Y-5679308D01*
X7971529Y-5679308D02*
X7990577Y-5669784D01*
X8133434Y-5669784D02*
X8133434Y-5707879D01*
X8209625Y-5669784D02*
X8209625Y-5707879D01*
X8504863Y-5945974D02*
X8495339Y-5936450D01*
X8495339Y-5936450D02*
X8476291Y-5907879D01*
X8476291Y-5907879D02*
X8466768Y-5888831D01*
X8466768Y-5888831D02*
X8457244Y-5860260D01*
X8457244Y-5860260D02*
X8447720Y-5812641D01*
X8447720Y-5812641D02*
X8447720Y-5774546D01*
X8447720Y-5774546D02*
X8457244Y-5726927D01*
X8457244Y-5726927D02*
X8466768Y-5698355D01*
X8466768Y-5698355D02*
X8476291Y-5679308D01*
X8476291Y-5679308D02*
X8495339Y-5650736D01*
X8495339Y-5650736D02*
X8504863Y-5641212D01*
X8571530Y-5688831D02*
X8581053Y-5679308D01*
X8581053Y-5679308D02*
X8600101Y-5669784D01*
X8600101Y-5669784D02*
X8647720Y-5669784D01*
X8647720Y-5669784D02*
X8666768Y-5679308D01*
X8666768Y-5679308D02*
X8676291Y-5688831D01*
X8676291Y-5688831D02*
X8685815Y-5707879D01*
X8685815Y-5707879D02*
X8685815Y-5726927D01*
X8685815Y-5726927D02*
X8676291Y-5755498D01*
X8676291Y-5755498D02*
X8562006Y-5869784D01*
X8562006Y-5869784D02*
X8685815Y-5869784D01*
X8923911Y-5869784D02*
X8923911Y-5669784D01*
X9009625Y-5869784D02*
X9009625Y-5765022D01*
X9009625Y-5765022D02*
X9000101Y-5745974D01*
X9000101Y-5745974D02*
X8981053Y-5736450D01*
X8981053Y-5736450D02*
X8952482Y-5736450D01*
X8952482Y-5736450D02*
X8933434Y-5745974D01*
X8933434Y-5745974D02*
X8923911Y-5755498D01*
X9133434Y-5869784D02*
X9114387Y-5860260D01*
X9114387Y-5860260D02*
X9104863Y-5850736D01*
X9104863Y-5850736D02*
X9095339Y-5831688D01*
X9095339Y-5831688D02*
X9095339Y-5774546D01*
X9095339Y-5774546D02*
X9104863Y-5755498D01*
X9104863Y-5755498D02*
X9114387Y-5745974D01*
X9114387Y-5745974D02*
X9133434Y-5736450D01*
X9133434Y-5736450D02*
X9162006Y-5736450D01*
X9162006Y-5736450D02*
X9181053Y-5745974D01*
X9181053Y-5745974D02*
X9190577Y-5755498D01*
X9190577Y-5755498D02*
X9200101Y-5774546D01*
X9200101Y-5774546D02*
X9200101Y-5831688D01*
X9200101Y-5831688D02*
X9190577Y-5850736D01*
X9190577Y-5850736D02*
X9181053Y-5860260D01*
X9181053Y-5860260D02*
X9162006Y-5869784D01*
X9162006Y-5869784D02*
X9133434Y-5869784D01*
X9314387Y-5869784D02*
X9295339Y-5860260D01*
X9295339Y-5860260D02*
X9285815Y-5841212D01*
X9285815Y-5841212D02*
X9285815Y-5669784D01*
X9466768Y-5860260D02*
X9447720Y-5869784D01*
X9447720Y-5869784D02*
X9409625Y-5869784D01*
X9409625Y-5869784D02*
X9390577Y-5860260D01*
X9390577Y-5860260D02*
X9381053Y-5841212D01*
X9381053Y-5841212D02*
X9381053Y-5765022D01*
X9381053Y-5765022D02*
X9390577Y-5745974D01*
X9390577Y-5745974D02*
X9409625Y-5736450D01*
X9409625Y-5736450D02*
X9447720Y-5736450D01*
X9447720Y-5736450D02*
X9466768Y-5745974D01*
X9466768Y-5745974D02*
X9476292Y-5765022D01*
X9476292Y-5765022D02*
X9476292Y-5784069D01*
X9476292Y-5784069D02*
X9381053Y-5803117D01*
X9552482Y-5860260D02*
X9571530Y-5869784D01*
X9571530Y-5869784D02*
X9609625Y-5869784D01*
X9609625Y-5869784D02*
X9628673Y-5860260D01*
X9628673Y-5860260D02*
X9638196Y-5841212D01*
X9638196Y-5841212D02*
X9638196Y-5831688D01*
X9638196Y-5831688D02*
X9628673Y-5812641D01*
X9628673Y-5812641D02*
X9609625Y-5803117D01*
X9609625Y-5803117D02*
X9581053Y-5803117D01*
X9581053Y-5803117D02*
X9562006Y-5793593D01*
X9562006Y-5793593D02*
X9552482Y-5774546D01*
X9552482Y-5774546D02*
X9552482Y-5765022D01*
X9552482Y-5765022D02*
X9562006Y-5745974D01*
X9562006Y-5745974D02*
X9581053Y-5736450D01*
X9581053Y-5736450D02*
X9609625Y-5736450D01*
X9609625Y-5736450D02*
X9628673Y-5745974D01*
X9704863Y-5945974D02*
X9714387Y-5936450D01*
X9714387Y-5936450D02*
X9733434Y-5907879D01*
X9733434Y-5907879D02*
X9742958Y-5888831D01*
X9742958Y-5888831D02*
X9752482Y-5860260D01*
X9752482Y-5860260D02*
X9762006Y-5812641D01*
X9762006Y-5812641D02*
X9762006Y-5774546D01*
X9762006Y-5774546D02*
X9752482Y-5726927D01*
X9752482Y-5726927D02*
X9742958Y-5698355D01*
X9742958Y-5698355D02*
X9733434Y-5679308D01*
X9733434Y-5679308D02*
X9714387Y-5650736D01*
X9714387Y-5650736D02*
X9704863Y-5641212D01*
X10066768Y-5945974D02*
X10057244Y-5936450D01*
X10057244Y-5936450D02*
X10038196Y-5907879D01*
X10038196Y-5907879D02*
X10028673Y-5888831D01*
X10028673Y-5888831D02*
X10019149Y-5860260D01*
X10019149Y-5860260D02*
X10009625Y-5812641D01*
X10009625Y-5812641D02*
X10009625Y-5774546D01*
X10009625Y-5774546D02*
X10019149Y-5726927D01*
X10019149Y-5726927D02*
X10028673Y-5698355D01*
X10028673Y-5698355D02*
X10038196Y-5679308D01*
X10038196Y-5679308D02*
X10057244Y-5650736D01*
X10057244Y-5650736D02*
X10066768Y-5641212D01*
X10142958Y-5736450D02*
X10142958Y-5869784D01*
X10142958Y-5755498D02*
X10152482Y-5745974D01*
X10152482Y-5745974D02*
X10171530Y-5736450D01*
X10171530Y-5736450D02*
X10200101Y-5736450D01*
X10200101Y-5736450D02*
X10219149Y-5745974D01*
X10219149Y-5745974D02*
X10228673Y-5765022D01*
X10228673Y-5765022D02*
X10228673Y-5869784D01*
X10352482Y-5869784D02*
X10333434Y-5860260D01*
X10333434Y-5860260D02*
X10323911Y-5850736D01*
X10323911Y-5850736D02*
X10314387Y-5831688D01*
X10314387Y-5831688D02*
X10314387Y-5774546D01*
X10314387Y-5774546D02*
X10323911Y-5755498D01*
X10323911Y-5755498D02*
X10333434Y-5745974D01*
X10333434Y-5745974D02*
X10352482Y-5736450D01*
X10352482Y-5736450D02*
X10381054Y-5736450D01*
X10381054Y-5736450D02*
X10400101Y-5745974D01*
X10400101Y-5745974D02*
X10409625Y-5755498D01*
X10409625Y-5755498D02*
X10419149Y-5774546D01*
X10419149Y-5774546D02*
X10419149Y-5831688D01*
X10419149Y-5831688D02*
X10409625Y-5850736D01*
X10409625Y-5850736D02*
X10400101Y-5860260D01*
X10400101Y-5860260D02*
X10381054Y-5869784D01*
X10381054Y-5869784D02*
X10352482Y-5869784D01*
X10476292Y-5736450D02*
X10552482Y-5736450D01*
X10504863Y-5669784D02*
X10504863Y-5841212D01*
X10504863Y-5841212D02*
X10514387Y-5860260D01*
X10514387Y-5860260D02*
X10533434Y-5869784D01*
X10533434Y-5869784D02*
X10552482Y-5869784D01*
X10771530Y-5736450D02*
X10771530Y-5936450D01*
X10771530Y-5745974D02*
X10790577Y-5736450D01*
X10790577Y-5736450D02*
X10828673Y-5736450D01*
X10828673Y-5736450D02*
X10847720Y-5745974D01*
X10847720Y-5745974D02*
X10857244Y-5755498D01*
X10857244Y-5755498D02*
X10866768Y-5774546D01*
X10866768Y-5774546D02*
X10866768Y-5831688D01*
X10866768Y-5831688D02*
X10857244Y-5850736D01*
X10857244Y-5850736D02*
X10847720Y-5860260D01*
X10847720Y-5860260D02*
X10828673Y-5869784D01*
X10828673Y-5869784D02*
X10790577Y-5869784D01*
X10790577Y-5869784D02*
X10771530Y-5860260D01*
X10981054Y-5869784D02*
X10962006Y-5860260D01*
X10962006Y-5860260D02*
X10952482Y-5841212D01*
X10952482Y-5841212D02*
X10952482Y-5669784D01*
X11142958Y-5869784D02*
X11142958Y-5765022D01*
X11142958Y-5765022D02*
X11133435Y-5745974D01*
X11133435Y-5745974D02*
X11114387Y-5736450D01*
X11114387Y-5736450D02*
X11076292Y-5736450D01*
X11076292Y-5736450D02*
X11057244Y-5745974D01*
X11142958Y-5860260D02*
X11123911Y-5869784D01*
X11123911Y-5869784D02*
X11076292Y-5869784D01*
X11076292Y-5869784D02*
X11057244Y-5860260D01*
X11057244Y-5860260D02*
X11047720Y-5841212D01*
X11047720Y-5841212D02*
X11047720Y-5822165D01*
X11047720Y-5822165D02*
X11057244Y-5803117D01*
X11057244Y-5803117D02*
X11076292Y-5793593D01*
X11076292Y-5793593D02*
X11123911Y-5793593D01*
X11123911Y-5793593D02*
X11142958Y-5784069D01*
X11209625Y-5736450D02*
X11285815Y-5736450D01*
X11238196Y-5669784D02*
X11238196Y-5841212D01*
X11238196Y-5841212D02*
X11247720Y-5860260D01*
X11247720Y-5860260D02*
X11266768Y-5869784D01*
X11266768Y-5869784D02*
X11285815Y-5869784D01*
X11428673Y-5860260D02*
X11409625Y-5869784D01*
X11409625Y-5869784D02*
X11371530Y-5869784D01*
X11371530Y-5869784D02*
X11352482Y-5860260D01*
X11352482Y-5860260D02*
X11342958Y-5841212D01*
X11342958Y-5841212D02*
X11342958Y-5765022D01*
X11342958Y-5765022D02*
X11352482Y-5745974D01*
X11352482Y-5745974D02*
X11371530Y-5736450D01*
X11371530Y-5736450D02*
X11409625Y-5736450D01*
X11409625Y-5736450D02*
X11428673Y-5745974D01*
X11428673Y-5745974D02*
X11438196Y-5765022D01*
X11438196Y-5765022D02*
X11438196Y-5784069D01*
X11438196Y-5784069D02*
X11342958Y-5803117D01*
X11609625Y-5869784D02*
X11609625Y-5669784D01*
X11609625Y-5860260D02*
X11590577Y-5869784D01*
X11590577Y-5869784D02*
X11552482Y-5869784D01*
X11552482Y-5869784D02*
X11533434Y-5860260D01*
X11533434Y-5860260D02*
X11523911Y-5850736D01*
X11523911Y-5850736D02*
X11514387Y-5831688D01*
X11514387Y-5831688D02*
X11514387Y-5774546D01*
X11514387Y-5774546D02*
X11523911Y-5755498D01*
X11523911Y-5755498D02*
X11533434Y-5745974D01*
X11533434Y-5745974D02*
X11552482Y-5736450D01*
X11552482Y-5736450D02*
X11590577Y-5736450D01*
X11590577Y-5736450D02*
X11609625Y-5745974D01*
X11685815Y-5945974D02*
X11695339Y-5936450D01*
X11695339Y-5936450D02*
X11714387Y-5907879D01*
X11714387Y-5907879D02*
X11723911Y-5888831D01*
X11723911Y-5888831D02*
X11733434Y-5860260D01*
X11733434Y-5860260D02*
X11742958Y-5812641D01*
X11742958Y-5812641D02*
X11742958Y-5774546D01*
X11742958Y-5774546D02*
X11733434Y-5726927D01*
X11733434Y-5726927D02*
X11723911Y-5698355D01*
X11723911Y-5698355D02*
X11714387Y-5679308D01*
X11714387Y-5679308D02*
X11695339Y-5650736D01*
X11695339Y-5650736D02*
X11685815Y-5641212D01*
X4929800Y-6098300D02*
G75*
G03*
X4929800Y-6098300I-100000J0D01*
G01*
X5171529Y-5989784D02*
X5295339Y-5989784D01*
X5295339Y-5989784D02*
X5228672Y-6065974D01*
X5228672Y-6065974D02*
X5257244Y-6065974D01*
X5257244Y-6065974D02*
X5276291Y-6075498D01*
X5276291Y-6075498D02*
X5285815Y-6085022D01*
X5285815Y-6085022D02*
X5295339Y-6104069D01*
X5295339Y-6104069D02*
X5295339Y-6151688D01*
X5295339Y-6151688D02*
X5285815Y-6170736D01*
X5285815Y-6170736D02*
X5276291Y-6180260D01*
X5276291Y-6180260D02*
X5257244Y-6189784D01*
X5257244Y-6189784D02*
X5200101Y-6189784D01*
X5200101Y-6189784D02*
X5181053Y-6180260D01*
X5181053Y-6180260D02*
X5171529Y-6170736D01*
X5381053Y-6170736D02*
X5390577Y-6180260D01*
X5390577Y-6180260D02*
X5381053Y-6189784D01*
X5381053Y-6189784D02*
X5371529Y-6180260D01*
X5371529Y-6180260D02*
X5381053Y-6170736D01*
X5381053Y-6170736D02*
X5381053Y-6189784D01*
X5571529Y-5989784D02*
X5476291Y-5989784D01*
X5476291Y-5989784D02*
X5466767Y-6085022D01*
X5466767Y-6085022D02*
X5476291Y-6075498D01*
X5476291Y-6075498D02*
X5495339Y-6065974D01*
X5495339Y-6065974D02*
X5542958Y-6065974D01*
X5542958Y-6065974D02*
X5562005Y-6075498D01*
X5562005Y-6075498D02*
X5571529Y-6085022D01*
X5571529Y-6085022D02*
X5581053Y-6104069D01*
X5581053Y-6104069D02*
X5581053Y-6151688D01*
X5581053Y-6151688D02*
X5571529Y-6170736D01*
X5571529Y-6170736D02*
X5562005Y-6180260D01*
X5562005Y-6180260D02*
X5542958Y-6189784D01*
X5542958Y-6189784D02*
X5495339Y-6189784D01*
X5495339Y-6189784D02*
X5476291Y-6180260D01*
X5476291Y-6180260D02*
X5466767Y-6170736D01*
X5704862Y-5989784D02*
X5723910Y-5989784D01*
X5723910Y-5989784D02*
X5742958Y-5999308D01*
X5742958Y-5999308D02*
X5752482Y-6008831D01*
X5752482Y-6008831D02*
X5762005Y-6027879D01*
X5762005Y-6027879D02*
X5771529Y-6065974D01*
X5771529Y-6065974D02*
X5771529Y-6113593D01*
X5771529Y-6113593D02*
X5762005Y-6151688D01*
X5762005Y-6151688D02*
X5752482Y-6170736D01*
X5752482Y-6170736D02*
X5742958Y-6180260D01*
X5742958Y-6180260D02*
X5723910Y-6189784D01*
X5723910Y-6189784D02*
X5704862Y-6189784D01*
X5704862Y-6189784D02*
X5685815Y-6180260D01*
X5685815Y-6180260D02*
X5676291Y-6170736D01*
X5676291Y-6170736D02*
X5666767Y-6151688D01*
X5666767Y-6151688D02*
X5657243Y-6113593D01*
X5657243Y-6113593D02*
X5657243Y-6065974D01*
X5657243Y-6065974D02*
X5666767Y-6027879D01*
X5666767Y-6027879D02*
X5676291Y-6008831D01*
X5676291Y-6008831D02*
X5685815Y-5999308D01*
X5685815Y-5999308D02*
X5704862Y-5989784D01*
X5895339Y-5989784D02*
X5914386Y-5989784D01*
X5914386Y-5989784D02*
X5933434Y-5999308D01*
X5933434Y-5999308D02*
X5942958Y-6008831D01*
X5942958Y-6008831D02*
X5952482Y-6027879D01*
X5952482Y-6027879D02*
X5962005Y-6065974D01*
X5962005Y-6065974D02*
X5962005Y-6113593D01*
X5962005Y-6113593D02*
X5952482Y-6151688D01*
X5952482Y-6151688D02*
X5942958Y-6170736D01*
X5942958Y-6170736D02*
X5933434Y-6180260D01*
X5933434Y-6180260D02*
X5914386Y-6189784D01*
X5914386Y-6189784D02*
X5895339Y-6189784D01*
X5895339Y-6189784D02*
X5876291Y-6180260D01*
X5876291Y-6180260D02*
X5866767Y-6170736D01*
X5866767Y-6170736D02*
X5857243Y-6151688D01*
X5857243Y-6151688D02*
X5847720Y-6113593D01*
X5847720Y-6113593D02*
X5847720Y-6065974D01*
X5847720Y-6065974D02*
X5857243Y-6027879D01*
X5857243Y-6027879D02*
X5866767Y-6008831D01*
X5866767Y-6008831D02*
X5876291Y-5999308D01*
X5876291Y-5999308D02*
X5895339Y-5989784D01*
X6047720Y-6189784D02*
X6047720Y-6056450D01*
X6047720Y-6075498D02*
X6057243Y-6065974D01*
X6057243Y-6065974D02*
X6076291Y-6056450D01*
X6076291Y-6056450D02*
X6104863Y-6056450D01*
X6104863Y-6056450D02*
X6123910Y-6065974D01*
X6123910Y-6065974D02*
X6133434Y-6085022D01*
X6133434Y-6085022D02*
X6133434Y-6189784D01*
X6133434Y-6085022D02*
X6142958Y-6065974D01*
X6142958Y-6065974D02*
X6162005Y-6056450D01*
X6162005Y-6056450D02*
X6190577Y-6056450D01*
X6190577Y-6056450D02*
X6209624Y-6065974D01*
X6209624Y-6065974D02*
X6219148Y-6085022D01*
X6219148Y-6085022D02*
X6219148Y-6189784D01*
X6314386Y-6189784D02*
X6314386Y-6056450D01*
X6314386Y-6075498D02*
X6323910Y-6065974D01*
X6323910Y-6065974D02*
X6342958Y-6056450D01*
X6342958Y-6056450D02*
X6371529Y-6056450D01*
X6371529Y-6056450D02*
X6390577Y-6065974D01*
X6390577Y-6065974D02*
X6400101Y-6085022D01*
X6400101Y-6085022D02*
X6400101Y-6189784D01*
X6400101Y-6085022D02*
X6409624Y-6065974D01*
X6409624Y-6065974D02*
X6428672Y-6056450D01*
X6428672Y-6056450D02*
X6457243Y-6056450D01*
X6457243Y-6056450D02*
X6476291Y-6065974D01*
X6476291Y-6065974D02*
X6485815Y-6085022D01*
X6485815Y-6085022D02*
X6485815Y-6189784D01*
X6876291Y-5980260D02*
X6704863Y-6237403D01*
X7133434Y-5989784D02*
X7152482Y-5989784D01*
X7152482Y-5989784D02*
X7171529Y-5999308D01*
X7171529Y-5999308D02*
X7181053Y-6008831D01*
X7181053Y-6008831D02*
X7190577Y-6027879D01*
X7190577Y-6027879D02*
X7200101Y-6065974D01*
X7200101Y-6065974D02*
X7200101Y-6113593D01*
X7200101Y-6113593D02*
X7190577Y-6151688D01*
X7190577Y-6151688D02*
X7181053Y-6170736D01*
X7181053Y-6170736D02*
X7171529Y-6180260D01*
X7171529Y-6180260D02*
X7152482Y-6189784D01*
X7152482Y-6189784D02*
X7133434Y-6189784D01*
X7133434Y-6189784D02*
X7114386Y-6180260D01*
X7114386Y-6180260D02*
X7104863Y-6170736D01*
X7104863Y-6170736D02*
X7095339Y-6151688D01*
X7095339Y-6151688D02*
X7085815Y-6113593D01*
X7085815Y-6113593D02*
X7085815Y-6065974D01*
X7085815Y-6065974D02*
X7095339Y-6027879D01*
X7095339Y-6027879D02*
X7104863Y-6008831D01*
X7104863Y-6008831D02*
X7114386Y-5999308D01*
X7114386Y-5999308D02*
X7133434Y-5989784D01*
X7285815Y-6170736D02*
X7295339Y-6180260D01*
X7295339Y-6180260D02*
X7285815Y-6189784D01*
X7285815Y-6189784D02*
X7276291Y-6180260D01*
X7276291Y-6180260D02*
X7285815Y-6170736D01*
X7285815Y-6170736D02*
X7285815Y-6189784D01*
X7485815Y-6189784D02*
X7371529Y-6189784D01*
X7428672Y-6189784D02*
X7428672Y-5989784D01*
X7428672Y-5989784D02*
X7409625Y-6018355D01*
X7409625Y-6018355D02*
X7390577Y-6037403D01*
X7390577Y-6037403D02*
X7371529Y-6046927D01*
X7552482Y-5989784D02*
X7676291Y-5989784D01*
X7676291Y-5989784D02*
X7609625Y-6065974D01*
X7609625Y-6065974D02*
X7638196Y-6065974D01*
X7638196Y-6065974D02*
X7657244Y-6075498D01*
X7657244Y-6075498D02*
X7666767Y-6085022D01*
X7666767Y-6085022D02*
X7676291Y-6104069D01*
X7676291Y-6104069D02*
X7676291Y-6151688D01*
X7676291Y-6151688D02*
X7666767Y-6170736D01*
X7666767Y-6170736D02*
X7657244Y-6180260D01*
X7657244Y-6180260D02*
X7638196Y-6189784D01*
X7638196Y-6189784D02*
X7581053Y-6189784D01*
X7581053Y-6189784D02*
X7562006Y-6180260D01*
X7562006Y-6180260D02*
X7552482Y-6170736D01*
X7742958Y-5989784D02*
X7876291Y-5989784D01*
X7876291Y-5989784D02*
X7790577Y-6189784D01*
X7981053Y-6075498D02*
X7962006Y-6065974D01*
X7962006Y-6065974D02*
X7952482Y-6056450D01*
X7952482Y-6056450D02*
X7942958Y-6037403D01*
X7942958Y-6037403D02*
X7942958Y-6027879D01*
X7942958Y-6027879D02*
X7952482Y-6008831D01*
X7952482Y-6008831D02*
X7962006Y-5999308D01*
X7962006Y-5999308D02*
X7981053Y-5989784D01*
X7981053Y-5989784D02*
X8019148Y-5989784D01*
X8019148Y-5989784D02*
X8038196Y-5999308D01*
X8038196Y-5999308D02*
X8047720Y-6008831D01*
X8047720Y-6008831D02*
X8057244Y-6027879D01*
X8057244Y-6027879D02*
X8057244Y-6037403D01*
X8057244Y-6037403D02*
X8047720Y-6056450D01*
X8047720Y-6056450D02*
X8038196Y-6065974D01*
X8038196Y-6065974D02*
X8019148Y-6075498D01*
X8019148Y-6075498D02*
X7981053Y-6075498D01*
X7981053Y-6075498D02*
X7962006Y-6085022D01*
X7962006Y-6085022D02*
X7952482Y-6094546D01*
X7952482Y-6094546D02*
X7942958Y-6113593D01*
X7942958Y-6113593D02*
X7942958Y-6151688D01*
X7942958Y-6151688D02*
X7952482Y-6170736D01*
X7952482Y-6170736D02*
X7962006Y-6180260D01*
X7962006Y-6180260D02*
X7981053Y-6189784D01*
X7981053Y-6189784D02*
X8019148Y-6189784D01*
X8019148Y-6189784D02*
X8038196Y-6180260D01*
X8038196Y-6180260D02*
X8047720Y-6170736D01*
X8047720Y-6170736D02*
X8057244Y-6151688D01*
X8057244Y-6151688D02*
X8057244Y-6113593D01*
X8057244Y-6113593D02*
X8047720Y-6094546D01*
X8047720Y-6094546D02*
X8038196Y-6085022D01*
X8038196Y-6085022D02*
X8019148Y-6075498D01*
X8133434Y-5989784D02*
X8133434Y-6027879D01*
X8209625Y-5989784D02*
X8209625Y-6027879D01*
X8504863Y-6265974D02*
X8495339Y-6256450D01*
X8495339Y-6256450D02*
X8476291Y-6227879D01*
X8476291Y-6227879D02*
X8466768Y-6208831D01*
X8466768Y-6208831D02*
X8457244Y-6180260D01*
X8457244Y-6180260D02*
X8447720Y-6132641D01*
X8447720Y-6132641D02*
X8447720Y-6094546D01*
X8447720Y-6094546D02*
X8457244Y-6046927D01*
X8457244Y-6046927D02*
X8466768Y-6018355D01*
X8466768Y-6018355D02*
X8476291Y-5999308D01*
X8476291Y-5999308D02*
X8495339Y-5970736D01*
X8495339Y-5970736D02*
X8504863Y-5961212D01*
X8685815Y-6189784D02*
X8571530Y-6189784D01*
X8628672Y-6189784D02*
X8628672Y-5989784D01*
X8628672Y-5989784D02*
X8609625Y-6018355D01*
X8609625Y-6018355D02*
X8590577Y-6037403D01*
X8590577Y-6037403D02*
X8571530Y-6046927D01*
X8923911Y-6189784D02*
X8923911Y-5989784D01*
X9009625Y-6189784D02*
X9009625Y-6085022D01*
X9009625Y-6085022D02*
X9000101Y-6065974D01*
X9000101Y-6065974D02*
X8981053Y-6056450D01*
X8981053Y-6056450D02*
X8952482Y-6056450D01*
X8952482Y-6056450D02*
X8933434Y-6065974D01*
X8933434Y-6065974D02*
X8923911Y-6075498D01*
X9133434Y-6189784D02*
X9114387Y-6180260D01*
X9114387Y-6180260D02*
X9104863Y-6170736D01*
X9104863Y-6170736D02*
X9095339Y-6151688D01*
X9095339Y-6151688D02*
X9095339Y-6094546D01*
X9095339Y-6094546D02*
X9104863Y-6075498D01*
X9104863Y-6075498D02*
X9114387Y-6065974D01*
X9114387Y-6065974D02*
X9133434Y-6056450D01*
X9133434Y-6056450D02*
X9162006Y-6056450D01*
X9162006Y-6056450D02*
X9181053Y-6065974D01*
X9181053Y-6065974D02*
X9190577Y-6075498D01*
X9190577Y-6075498D02*
X9200101Y-6094546D01*
X9200101Y-6094546D02*
X9200101Y-6151688D01*
X9200101Y-6151688D02*
X9190577Y-6170736D01*
X9190577Y-6170736D02*
X9181053Y-6180260D01*
X9181053Y-6180260D02*
X9162006Y-6189784D01*
X9162006Y-6189784D02*
X9133434Y-6189784D01*
X9314387Y-6189784D02*
X9295339Y-6180260D01*
X9295339Y-6180260D02*
X9285815Y-6161212D01*
X9285815Y-6161212D02*
X9285815Y-5989784D01*
X9466768Y-6180260D02*
X9447720Y-6189784D01*
X9447720Y-6189784D02*
X9409625Y-6189784D01*
X9409625Y-6189784D02*
X9390577Y-6180260D01*
X9390577Y-6180260D02*
X9381053Y-6161212D01*
X9381053Y-6161212D02*
X9381053Y-6085022D01*
X9381053Y-6085022D02*
X9390577Y-6065974D01*
X9390577Y-6065974D02*
X9409625Y-6056450D01*
X9409625Y-6056450D02*
X9447720Y-6056450D01*
X9447720Y-6056450D02*
X9466768Y-6065974D01*
X9466768Y-6065974D02*
X9476292Y-6085022D01*
X9476292Y-6085022D02*
X9476292Y-6104069D01*
X9476292Y-6104069D02*
X9381053Y-6123117D01*
X9542958Y-6265974D02*
X9552482Y-6256450D01*
X9552482Y-6256450D02*
X9571530Y-6227879D01*
X9571530Y-6227879D02*
X9581053Y-6208831D01*
X9581053Y-6208831D02*
X9590577Y-6180260D01*
X9590577Y-6180260D02*
X9600101Y-6132641D01*
X9600101Y-6132641D02*
X9600101Y-6094546D01*
X9600101Y-6094546D02*
X9590577Y-6046927D01*
X9590577Y-6046927D02*
X9581053Y-6018355D01*
X9581053Y-6018355D02*
X9571530Y-5999308D01*
X9571530Y-5999308D02*
X9552482Y-5970736D01*
X9552482Y-5970736D02*
X9542958Y-5961212D01*
X9904863Y-6265974D02*
X9895339Y-6256450D01*
X9895339Y-6256450D02*
X9876292Y-6227879D01*
X9876292Y-6227879D02*
X9866768Y-6208831D01*
X9866768Y-6208831D02*
X9857244Y-6180260D01*
X9857244Y-6180260D02*
X9847720Y-6132641D01*
X9847720Y-6132641D02*
X9847720Y-6094546D01*
X9847720Y-6094546D02*
X9857244Y-6046927D01*
X9857244Y-6046927D02*
X9866768Y-6018355D01*
X9866768Y-6018355D02*
X9876292Y-5999308D01*
X9876292Y-5999308D02*
X9895339Y-5970736D01*
X9895339Y-5970736D02*
X9904863Y-5961212D01*
X9981053Y-6056450D02*
X9981053Y-6189784D01*
X9981053Y-6075498D02*
X9990577Y-6065974D01*
X9990577Y-6065974D02*
X10009625Y-6056450D01*
X10009625Y-6056450D02*
X10038196Y-6056450D01*
X10038196Y-6056450D02*
X10057244Y-6065974D01*
X10057244Y-6065974D02*
X10066768Y-6085022D01*
X10066768Y-6085022D02*
X10066768Y-6189784D01*
X10190577Y-6189784D02*
X10171530Y-6180260D01*
X10171530Y-6180260D02*
X10162006Y-6170736D01*
X10162006Y-6170736D02*
X10152482Y-6151688D01*
X10152482Y-6151688D02*
X10152482Y-6094546D01*
X10152482Y-6094546D02*
X10162006Y-6075498D01*
X10162006Y-6075498D02*
X10171530Y-6065974D01*
X10171530Y-6065974D02*
X10190577Y-6056450D01*
X10190577Y-6056450D02*
X10219149Y-6056450D01*
X10219149Y-6056450D02*
X10238196Y-6065974D01*
X10238196Y-6065974D02*
X10247720Y-6075498D01*
X10247720Y-6075498D02*
X10257244Y-6094546D01*
X10257244Y-6094546D02*
X10257244Y-6151688D01*
X10257244Y-6151688D02*
X10247720Y-6170736D01*
X10247720Y-6170736D02*
X10238196Y-6180260D01*
X10238196Y-6180260D02*
X10219149Y-6189784D01*
X10219149Y-6189784D02*
X10190577Y-6189784D01*
X10314387Y-6056450D02*
X10390577Y-6056450D01*
X10342958Y-5989784D02*
X10342958Y-6161212D01*
X10342958Y-6161212D02*
X10352482Y-6180260D01*
X10352482Y-6180260D02*
X10371530Y-6189784D01*
X10371530Y-6189784D02*
X10390577Y-6189784D01*
X10609625Y-6056450D02*
X10609625Y-6256450D01*
X10609625Y-6065974D02*
X10628673Y-6056450D01*
X10628673Y-6056450D02*
X10666768Y-6056450D01*
X10666768Y-6056450D02*
X10685815Y-6065974D01*
X10685815Y-6065974D02*
X10695339Y-6075498D01*
X10695339Y-6075498D02*
X10704863Y-6094546D01*
X10704863Y-6094546D02*
X10704863Y-6151688D01*
X10704863Y-6151688D02*
X10695339Y-6170736D01*
X10695339Y-6170736D02*
X10685815Y-6180260D01*
X10685815Y-6180260D02*
X10666768Y-6189784D01*
X10666768Y-6189784D02*
X10628673Y-6189784D01*
X10628673Y-6189784D02*
X10609625Y-6180260D01*
X10819149Y-6189784D02*
X10800101Y-6180260D01*
X10800101Y-6180260D02*
X10790577Y-6161212D01*
X10790577Y-6161212D02*
X10790577Y-5989784D01*
X10981054Y-6189784D02*
X10981054Y-6085022D01*
X10981054Y-6085022D02*
X10971530Y-6065974D01*
X10971530Y-6065974D02*
X10952482Y-6056450D01*
X10952482Y-6056450D02*
X10914387Y-6056450D01*
X10914387Y-6056450D02*
X10895339Y-6065974D01*
X10981054Y-6180260D02*
X10962006Y-6189784D01*
X10962006Y-6189784D02*
X10914387Y-6189784D01*
X10914387Y-6189784D02*
X10895339Y-6180260D01*
X10895339Y-6180260D02*
X10885815Y-6161212D01*
X10885815Y-6161212D02*
X10885815Y-6142165D01*
X10885815Y-6142165D02*
X10895339Y-6123117D01*
X10895339Y-6123117D02*
X10914387Y-6113593D01*
X10914387Y-6113593D02*
X10962006Y-6113593D01*
X10962006Y-6113593D02*
X10981054Y-6104069D01*
X11047720Y-6056450D02*
X11123911Y-6056450D01*
X11076292Y-5989784D02*
X11076292Y-6161212D01*
X11076292Y-6161212D02*
X11085815Y-6180260D01*
X11085815Y-6180260D02*
X11104863Y-6189784D01*
X11104863Y-6189784D02*
X11123911Y-6189784D01*
X11266768Y-6180260D02*
X11247720Y-6189784D01*
X11247720Y-6189784D02*
X11209625Y-6189784D01*
X11209625Y-6189784D02*
X11190577Y-6180260D01*
X11190577Y-6180260D02*
X11181054Y-6161212D01*
X11181054Y-6161212D02*
X11181054Y-6085022D01*
X11181054Y-6085022D02*
X11190577Y-6065974D01*
X11190577Y-6065974D02*
X11209625Y-6056450D01*
X11209625Y-6056450D02*
X11247720Y-6056450D01*
X11247720Y-6056450D02*
X11266768Y-6065974D01*
X11266768Y-6065974D02*
X11276292Y-6085022D01*
X11276292Y-6085022D02*
X11276292Y-6104069D01*
X11276292Y-6104069D02*
X11181054Y-6123117D01*
X11447720Y-6189784D02*
X11447720Y-5989784D01*
X11447720Y-6180260D02*
X11428673Y-6189784D01*
X11428673Y-6189784D02*
X11390577Y-6189784D01*
X11390577Y-6189784D02*
X11371530Y-6180260D01*
X11371530Y-6180260D02*
X11362006Y-6170736D01*
X11362006Y-6170736D02*
X11352482Y-6151688D01*
X11352482Y-6151688D02*
X11352482Y-6094546D01*
X11352482Y-6094546D02*
X11362006Y-6075498D01*
X11362006Y-6075498D02*
X11371530Y-6065974D01*
X11371530Y-6065974D02*
X11390577Y-6056450D01*
X11390577Y-6056450D02*
X11428673Y-6056450D01*
X11428673Y-6056450D02*
X11447720Y-6065974D01*
X11523911Y-6265974D02*
X11533434Y-6256450D01*
X11533434Y-6256450D02*
X11552482Y-6227879D01*
X11552482Y-6227879D02*
X11562006Y-6208831D01*
X11562006Y-6208831D02*
X11571530Y-6180260D01*
X11571530Y-6180260D02*
X11581053Y-6132641D01*
X11581053Y-6132641D02*
X11581053Y-6094546D01*
X11581053Y-6094546D02*
X11571530Y-6046927D01*
X11571530Y-6046927D02*
X11562006Y-6018355D01*
X11562006Y-6018355D02*
X11552482Y-5999308D01*
X11552482Y-5999308D02*
X11533434Y-5970736D01*
X11533434Y-5970736D02*
X11523911Y-5961212D01*
M02*
