%TF.GenerationSoftware,KiCad,Pcbnew,7.0.9*%
%TF.CreationDate,2023-11-11T09:59:11+01:00*%
%TF.ProjectId,CO2-PwrSupply,434f322d-5077-4725-9375-70706c792e6b,1.0*%
%TF.SameCoordinates,Original*%
%TF.FileFunction,Copper,L2,Bot*%
%TF.FilePolarity,Positive*%
%FSLAX46Y46*%
G04 Gerber Fmt 4.6, Leading zero omitted, Abs format (unit mm)*
G04 Created by KiCad (PCBNEW 7.0.9) date 2023-11-11 09:59:11*
%MOMM*%
%LPD*%
G01*
G04 APERTURE LIST*
G04 Aperture macros list*
%AMRoundRect*
0 Rectangle with rounded corners*
0 $1 Rounding radius*
0 $2 $3 $4 $5 $6 $7 $8 $9 X,Y pos of 4 corners*
0 Add a 4 corners polygon primitive as box body*
4,1,4,$2,$3,$4,$5,$6,$7,$8,$9,$2,$3,0*
0 Add four circle primitives for the rounded corners*
1,1,$1+$1,$2,$3*
1,1,$1+$1,$4,$5*
1,1,$1+$1,$6,$7*
1,1,$1+$1,$8,$9*
0 Add four rect primitives between the rounded corners*
20,1,$1+$1,$2,$3,$4,$5,0*
20,1,$1+$1,$4,$5,$6,$7,0*
20,1,$1+$1,$6,$7,$8,$9,0*
20,1,$1+$1,$8,$9,$2,$3,0*%
G04 Aperture macros list end*
%TA.AperFunction,ComponentPad*%
%ADD10RoundRect,0.250000X-0.725000X0.600000X-0.725000X-0.600000X0.725000X-0.600000X0.725000X0.600000X0*%
%TD*%
%TA.AperFunction,ComponentPad*%
%ADD11O,1.950000X1.700000*%
%TD*%
%TA.AperFunction,ComponentPad*%
%ADD12R,2.200000X2.200000*%
%TD*%
%TA.AperFunction,ComponentPad*%
%ADD13O,2.200000X2.200000*%
%TD*%
%TA.AperFunction,ComponentPad*%
%ADD14RoundRect,0.250000X-0.750000X0.600000X-0.750000X-0.600000X0.750000X-0.600000X0.750000X0.600000X0*%
%TD*%
%TA.AperFunction,ComponentPad*%
%ADD15O,2.000000X1.700000*%
%TD*%
%TA.AperFunction,ComponentPad*%
%ADD16R,1.905000X2.000000*%
%TD*%
%TA.AperFunction,ComponentPad*%
%ADD17O,1.905000X2.000000*%
%TD*%
%TA.AperFunction,ComponentPad*%
%ADD18C,1.600000*%
%TD*%
%TA.AperFunction,ComponentPad*%
%ADD19R,2.600000X2.600000*%
%TD*%
%TA.AperFunction,ComponentPad*%
%ADD20C,2.600000*%
%TD*%
%TA.AperFunction,ComponentPad*%
%ADD21R,1.600000X1.600000*%
%TD*%
%TA.AperFunction,SMDPad,CuDef*%
%ADD22R,0.450000X1.380000*%
%TD*%
%TA.AperFunction,SMDPad,CuDef*%
%ADD23R,1.650000X1.300000*%
%TD*%
%TA.AperFunction,SMDPad,CuDef*%
%ADD24R,1.425000X1.550000*%
%TD*%
%TA.AperFunction,SMDPad,CuDef*%
%ADD25R,1.800000X1.900000*%
%TD*%
%TA.AperFunction,SMDPad,CuDef*%
%ADD26R,1.000000X1.900000*%
%TD*%
%TA.AperFunction,Conductor*%
%ADD27C,0.800000*%
%TD*%
%TA.AperFunction,Conductor*%
%ADD28C,0.400000*%
%TD*%
%TA.AperFunction,Conductor*%
%ADD29C,0.250000*%
%TD*%
G04 APERTURE END LIST*
D10*
%TO.P,J3,1,Pin_1*%
%TO.N,Net-(J2-Pin_1)*%
X53818000Y-20193000D03*
D11*
%TO.P,J3,2,Pin_2*%
%TO.N,Net-(D1-K)*%
X53818000Y-22693000D03*
%TO.P,J3,3,Pin_3*%
%TO.N,GND*%
X53818000Y-25193000D03*
%TD*%
D12*
%TO.P,D2,1,K*%
%TO.N,Net-(D1-K)*%
X63343000Y-25273000D03*
D13*
%TO.P,D2,2,A*%
%TO.N,Net-(D2-A)*%
X63343000Y-35433000D03*
%TD*%
D14*
%TO.P,J2,1,Pin_1*%
%TO.N,Net-(J2-Pin_1)*%
X53818000Y-32893000D03*
D15*
%TO.P,J2,2,Pin_2*%
%TO.N,GND*%
X53818000Y-35393000D03*
%TD*%
D16*
%TO.P,U1,1,IN*%
%TO.N,Net-(J4-Pin_1)*%
X75408000Y-30988000D03*
D17*
%TO.P,U1,2,GND*%
%TO.N,GND*%
X72868000Y-30988000D03*
%TO.P,U1,3,OUT*%
%TO.N,Net-(D2-A)*%
X70328000Y-30988000D03*
%TD*%
D18*
%TO.P,C2,1*%
%TO.N,Net-(J4-Pin_1)*%
X65843000Y-40513000D03*
%TO.P,C2,2*%
%TO.N,GND*%
X60843000Y-40513000D03*
%TD*%
D12*
%TO.P,D1,1,K*%
%TO.N,Net-(D1-K)*%
X58898000Y-29083000D03*
D13*
%TO.P,D1,2,A*%
%TO.N,Net-(D1-A)*%
X58898000Y-18923000D03*
%TD*%
D19*
%TO.P,J4,1,Pin_1*%
%TO.N,Net-(J4-Pin_1)*%
X53818000Y-43053000D03*
D20*
%TO.P,J4,2,Pin_2*%
%TO.N,GND*%
X53818000Y-48133000D03*
%TD*%
D21*
%TO.P,C1,1*%
%TO.N,Net-(D2-A)*%
X70392888Y-26543000D03*
D18*
%TO.P,C1,2*%
%TO.N,GND*%
X72892888Y-26543000D03*
%TD*%
D22*
%TO.P,J1,1,VBUS*%
%TO.N,Net-(D1-A)*%
X65218000Y-21463000D03*
%TO.P,J1,2,D-*%
%TO.N,unconnected-(J1-D--Pad2)*%
X65868000Y-21463000D03*
%TO.P,J1,3,D+*%
%TO.N,unconnected-(J1-D+-Pad3)*%
X66518000Y-21463000D03*
%TO.P,J1,4,ID*%
%TO.N,unconnected-(J1-ID-Pad4)*%
X67168000Y-21463000D03*
%TO.P,J1,5,GND*%
%TO.N,GND*%
X67818000Y-21463000D03*
D23*
%TO.P,J1,6,Shield*%
X63143000Y-18803000D03*
D24*
X64030500Y-21378000D03*
D25*
X65368000Y-18803000D03*
D26*
X68068000Y-18803000D03*
D24*
X69005500Y-21378000D03*
D23*
X69893000Y-18803000D03*
%TD*%
D27*
%TO.N,Net-(D2-A)*%
X70328000Y-26607888D02*
X70392888Y-26543000D01*
X70328000Y-30988000D02*
X70328000Y-26607888D01*
X63343000Y-35433000D02*
X65883000Y-35433000D01*
X65883000Y-35433000D02*
X70328000Y-30988000D01*
%TO.N,GND*%
X60803000Y-40513000D02*
X60843000Y-40513000D01*
X72892888Y-26543000D02*
X72868000Y-26543000D01*
%TO.N,Net-(J4-Pin_1)*%
X53818000Y-43053000D02*
X62668000Y-43053000D01*
X75408000Y-32893000D02*
X75408000Y-30988000D01*
X62668000Y-43053000D02*
X65208000Y-40513000D01*
X65208000Y-40513000D02*
X67788000Y-40513000D01*
X67788000Y-40513000D02*
X75408000Y-32893000D01*
%TO.N,Net-(D1-K)*%
X53818000Y-22693000D02*
X56318000Y-22693000D01*
X58898000Y-25273000D02*
X58898000Y-29083000D01*
X58898000Y-25273000D02*
X63343000Y-25273000D01*
X56318000Y-22693000D02*
X58898000Y-25273000D01*
D28*
%TO.N,Net-(D1-A)*%
X63343000Y-23368000D02*
X58898000Y-18923000D01*
X64613000Y-23368000D02*
X63343000Y-23368000D01*
X65218000Y-22763000D02*
X64613000Y-23368000D01*
X65218000Y-21373000D02*
X65218000Y-22763000D01*
D29*
%TO.N,Net-(J2-Pin_1)*%
X51278000Y-21463000D02*
X51278000Y-31623000D01*
X53818000Y-20193000D02*
X52548000Y-20193000D01*
X52548000Y-32893000D02*
X53818000Y-32893000D01*
X52548000Y-20193000D02*
X51278000Y-21463000D01*
X51278000Y-31623000D02*
X52548000Y-32893000D01*
%TD*%
%TA.AperFunction,Conductor*%
%TO.N,GND*%
G36*
X64313869Y-17165185D02*
G01*
X64359624Y-17217989D01*
X64369568Y-17287147D01*
X64340543Y-17350703D01*
X64290163Y-17385682D01*
X64225913Y-17409645D01*
X64225906Y-17409649D01*
X64110813Y-17495809D01*
X64030337Y-17603311D01*
X63974403Y-17645182D01*
X63931070Y-17653000D01*
X63393000Y-17653000D01*
X63393000Y-18553000D01*
X66768000Y-18553000D01*
X66768000Y-17805172D01*
X66767999Y-17805155D01*
X66761598Y-17745627D01*
X66761596Y-17745620D01*
X66711354Y-17610913D01*
X66711350Y-17610906D01*
X66625190Y-17495812D01*
X66625187Y-17495809D01*
X66510093Y-17409649D01*
X66510086Y-17409645D01*
X66445837Y-17385682D01*
X66389903Y-17343811D01*
X66365486Y-17278346D01*
X66380338Y-17210073D01*
X66429743Y-17160668D01*
X66489170Y-17145500D01*
X67346830Y-17145500D01*
X67413869Y-17165185D01*
X67459624Y-17217989D01*
X67469568Y-17287147D01*
X67440543Y-17350703D01*
X67390163Y-17385682D01*
X67325913Y-17409645D01*
X67325906Y-17409649D01*
X67210812Y-17495809D01*
X67210809Y-17495812D01*
X67124649Y-17610906D01*
X67124645Y-17610913D01*
X67074403Y-17745620D01*
X67074401Y-17745627D01*
X67068000Y-17805155D01*
X67068000Y-18553000D01*
X69643000Y-18553000D01*
X69643000Y-17653000D01*
X70143000Y-17653000D01*
X70143000Y-18553000D01*
X71218000Y-18553000D01*
X71218000Y-18105172D01*
X71217999Y-18105155D01*
X71211598Y-18045627D01*
X71211596Y-18045620D01*
X71161354Y-17910913D01*
X71161350Y-17910906D01*
X71075190Y-17795812D01*
X71075187Y-17795809D01*
X70960093Y-17709649D01*
X70960086Y-17709645D01*
X70825379Y-17659403D01*
X70825372Y-17659401D01*
X70765844Y-17653000D01*
X70143000Y-17653000D01*
X69643000Y-17653000D01*
X69104930Y-17653000D01*
X69037891Y-17633315D01*
X69005663Y-17603311D01*
X68925186Y-17495809D01*
X68810093Y-17409649D01*
X68810086Y-17409645D01*
X68745837Y-17385682D01*
X68689903Y-17343811D01*
X68665486Y-17278346D01*
X68680338Y-17210073D01*
X68729743Y-17160668D01*
X68789170Y-17145500D01*
X79220500Y-17145500D01*
X79287539Y-17165185D01*
X79333294Y-17217989D01*
X79344500Y-17269500D01*
X79344500Y-51183500D01*
X79324815Y-51250539D01*
X79272011Y-51296294D01*
X79220500Y-51307500D01*
X49497500Y-51307500D01*
X49430461Y-51287815D01*
X49384706Y-51235011D01*
X49373500Y-51183500D01*
X49373500Y-48133004D01*
X52012953Y-48133004D01*
X52033113Y-48402026D01*
X52033113Y-48402028D01*
X52093142Y-48665033D01*
X52093148Y-48665052D01*
X52191709Y-48916181D01*
X52191708Y-48916181D01*
X52326602Y-49149822D01*
X52380294Y-49217151D01*
X52380295Y-49217151D01*
X53215452Y-48381993D01*
X53225188Y-48411956D01*
X53313186Y-48550619D01*
X53432903Y-48663040D01*
X53567510Y-48737041D01*
X52732848Y-49571702D01*
X52915483Y-49696220D01*
X52915485Y-49696221D01*
X53158539Y-49813269D01*
X53158537Y-49813269D01*
X53416337Y-49892790D01*
X53416343Y-49892792D01*
X53683101Y-49932999D01*
X53683110Y-49933000D01*
X53952890Y-49933000D01*
X53952898Y-49932999D01*
X54219656Y-49892792D01*
X54219662Y-49892790D01*
X54477461Y-49813269D01*
X54720521Y-49696218D01*
X54903150Y-49571702D01*
X54065534Y-48734086D01*
X54133629Y-48707126D01*
X54266492Y-48610595D01*
X54371175Y-48484055D01*
X54419631Y-48381079D01*
X55255703Y-49217151D01*
X55255704Y-49217150D01*
X55309393Y-49149828D01*
X55309400Y-49149817D01*
X55444290Y-48916181D01*
X55542851Y-48665052D01*
X55542857Y-48665033D01*
X55602886Y-48402028D01*
X55602886Y-48402026D01*
X55623047Y-48133004D01*
X55623047Y-48132995D01*
X55602886Y-47863973D01*
X55602886Y-47863971D01*
X55542857Y-47600966D01*
X55542851Y-47600947D01*
X55529042Y-47565763D01*
X61488787Y-47565763D01*
X61518413Y-47835013D01*
X61518415Y-47835024D01*
X61586926Y-48097082D01*
X61586928Y-48097088D01*
X61692870Y-48346390D01*
X61816567Y-48549075D01*
X61833979Y-48577605D01*
X61833986Y-48577615D01*
X62007253Y-48785819D01*
X62007259Y-48785824D01*
X62102525Y-48871182D01*
X62208998Y-48966582D01*
X62434910Y-49116044D01*
X62680176Y-49231020D01*
X62680183Y-49231022D01*
X62680185Y-49231023D01*
X62939557Y-49309057D01*
X62939564Y-49309058D01*
X62939569Y-49309060D01*
X63207561Y-49348500D01*
X63207566Y-49348500D01*
X63410636Y-49348500D01*
X63462133Y-49344730D01*
X63613156Y-49333677D01*
X63725758Y-49308593D01*
X63877546Y-49274782D01*
X63877548Y-49274781D01*
X63877553Y-49274780D01*
X64130558Y-49178014D01*
X64366777Y-49045441D01*
X64581177Y-48879888D01*
X64769186Y-48684881D01*
X64926799Y-48464579D01*
X65007168Y-48308260D01*
X65050649Y-48223690D01*
X65050651Y-48223684D01*
X65050656Y-48223675D01*
X65138118Y-47967305D01*
X65187319Y-47700933D01*
X65189254Y-47648000D01*
X70812709Y-47648000D01*
X70814835Y-47679078D01*
X70819943Y-47753762D01*
X70823752Y-47862849D01*
X70823754Y-47862869D01*
X70829147Y-47893458D01*
X70829944Y-47899991D01*
X70831851Y-47927862D01*
X70831852Y-47927867D01*
X70854052Y-48034696D01*
X70873550Y-48145271D01*
X70873549Y-48145271D01*
X70882157Y-48171765D01*
X70883896Y-48178313D01*
X70888922Y-48202503D01*
X70888926Y-48202516D01*
X70926508Y-48308260D01*
X70956974Y-48402026D01*
X70962167Y-48418006D01*
X70972969Y-48440153D01*
X70975662Y-48446565D01*
X70982864Y-48466830D01*
X70982865Y-48466833D01*
X70982866Y-48466834D01*
X71035939Y-48569261D01*
X71087876Y-48675749D01*
X71087883Y-48675759D01*
X71099852Y-48693505D01*
X71103504Y-48699656D01*
X71111919Y-48715896D01*
X71180236Y-48812679D01*
X71248234Y-48913491D01*
X71248235Y-48913492D01*
X71248238Y-48913496D01*
X71260428Y-48927035D01*
X71264996Y-48932756D01*
X71273688Y-48945069D01*
X71346845Y-49023402D01*
X71356658Y-49033909D01*
X71367041Y-49045441D01*
X71440125Y-49126608D01*
X71450595Y-49135393D01*
X71451600Y-49136237D01*
X71457063Y-49141417D01*
X71465154Y-49150079D01*
X71465154Y-49150080D01*
X71561877Y-49228770D01*
X71659795Y-49310934D01*
X71659798Y-49310936D01*
X71659803Y-49310940D01*
X71669784Y-49317177D01*
X71676053Y-49321659D01*
X71678740Y-49323846D01*
X71682747Y-49327106D01*
X71682748Y-49327106D01*
X71682754Y-49327111D01*
X71791938Y-49393507D01*
X71902998Y-49462905D01*
X71903001Y-49462906D01*
X71903004Y-49462908D01*
X71910808Y-49466383D01*
X71917810Y-49470052D01*
X71922429Y-49472860D01*
X71922436Y-49472864D01*
X72042442Y-49524989D01*
X72164962Y-49579540D01*
X72164970Y-49579543D01*
X72164975Y-49579545D01*
X72170102Y-49581015D01*
X72177708Y-49583744D01*
X72179725Y-49584620D01*
X72308727Y-49620765D01*
X72440636Y-49658589D01*
X72441595Y-49658723D01*
X72445569Y-49659415D01*
X72449830Y-49660300D01*
X72449839Y-49660303D01*
X72585739Y-49678982D01*
X72724613Y-49698500D01*
X72724615Y-49698500D01*
X73008257Y-49698500D01*
X73008258Y-49698500D01*
X73077337Y-49689004D01*
X73081387Y-49688585D01*
X73154071Y-49683503D01*
X73219045Y-49669692D01*
X73223468Y-49668920D01*
X73226907Y-49668447D01*
X73286161Y-49660303D01*
X73356376Y-49640629D01*
X73360178Y-49639693D01*
X73434575Y-49623880D01*
X73493981Y-49602257D01*
X73498428Y-49600827D01*
X73556275Y-49584620D01*
X73626125Y-49554279D01*
X73629537Y-49552918D01*
X73704050Y-49525799D01*
X73757035Y-49497625D01*
X73761407Y-49495517D01*
X73813568Y-49472862D01*
X73881382Y-49431622D01*
X73884409Y-49429900D01*
X73957253Y-49391169D01*
X74003193Y-49357790D01*
X74007404Y-49354987D01*
X74053246Y-49327111D01*
X74117266Y-49275025D01*
X74119952Y-49272960D01*
X74189254Y-49222610D01*
X74227799Y-49185385D01*
X74231719Y-49181911D01*
X74270845Y-49150081D01*
X74329389Y-49087394D01*
X74331603Y-49085144D01*
X74395539Y-49023403D01*
X74426557Y-48983699D01*
X74430080Y-48979579D01*
X74462312Y-48945069D01*
X74513601Y-48872408D01*
X74515385Y-48870007D01*
X74572093Y-48797425D01*
X74595673Y-48756580D01*
X74598696Y-48751857D01*
X74624081Y-48715896D01*
X74666489Y-48634049D01*
X74667815Y-48631626D01*
X74715477Y-48549075D01*
X74731938Y-48508329D01*
X74734361Y-48503062D01*
X74753136Y-48466830D01*
X74785511Y-48375733D01*
X74822903Y-48283187D01*
X74832752Y-48243684D01*
X74834492Y-48237915D01*
X74847073Y-48202516D01*
X74847075Y-48202511D01*
X74867378Y-48104804D01*
X74892279Y-48004935D01*
X74896198Y-47967639D01*
X74897153Y-47961519D01*
X74904148Y-47927862D01*
X74911170Y-47825197D01*
X74922255Y-47719736D01*
X74921058Y-47685477D01*
X74921165Y-47679078D01*
X74922784Y-47655405D01*
X74923291Y-47648000D01*
X74916056Y-47542237D01*
X74912247Y-47433141D01*
X74906851Y-47402544D01*
X74906054Y-47396005D01*
X74905865Y-47393251D01*
X74904148Y-47368138D01*
X74881947Y-47261303D01*
X74862450Y-47150728D01*
X74853840Y-47124233D01*
X74852105Y-47117699D01*
X74847075Y-47093489D01*
X74809491Y-46987739D01*
X74773833Y-46877994D01*
X74763033Y-46855852D01*
X74760335Y-46849428D01*
X74753137Y-46829173D01*
X74753136Y-46829170D01*
X74700060Y-46726738D01*
X74648121Y-46620247D01*
X74636147Y-46602495D01*
X74632495Y-46596343D01*
X74624080Y-46580103D01*
X74616795Y-46569783D01*
X74555763Y-46483320D01*
X74487762Y-46382504D01*
X74475579Y-46368973D01*
X74470999Y-46363237D01*
X74462319Y-46350941D01*
X74462317Y-46350938D01*
X74462312Y-46350931D01*
X74379341Y-46262090D01*
X74332601Y-46210180D01*
X74295879Y-46169396D01*
X74295874Y-46169391D01*
X74294192Y-46167979D01*
X74284384Y-46159749D01*
X74278940Y-46154587D01*
X74270845Y-46145919D01*
X74270839Y-46145914D01*
X74270837Y-46145912D01*
X74174122Y-46067229D01*
X74076197Y-45985060D01*
X74076189Y-45985055D01*
X74066217Y-45978822D01*
X74059946Y-45974339D01*
X74053251Y-45968893D01*
X74053250Y-45968892D01*
X74053246Y-45968889D01*
X73944061Y-45902492D01*
X73833005Y-45833096D01*
X73830433Y-45831951D01*
X73825181Y-45829612D01*
X73818191Y-45825949D01*
X73813568Y-45823138D01*
X73813566Y-45823137D01*
X73693557Y-45771010D01*
X73571029Y-45716456D01*
X73571023Y-45716454D01*
X73565894Y-45714983D01*
X73558284Y-45712252D01*
X73556275Y-45711380D01*
X73556273Y-45711379D01*
X73556274Y-45711379D01*
X73427272Y-45675234D01*
X73295364Y-45637411D01*
X73295359Y-45637410D01*
X73294418Y-45637278D01*
X73290447Y-45636587D01*
X73286161Y-45635696D01*
X73150260Y-45617017D01*
X73011388Y-45597500D01*
X73011385Y-45597500D01*
X73008258Y-45597500D01*
X72727742Y-45597500D01*
X72727737Y-45597500D01*
X72658696Y-45606989D01*
X72654579Y-45607415D01*
X72581929Y-45612496D01*
X72516974Y-45626302D01*
X72512527Y-45627079D01*
X72453299Y-45635221D01*
X72449847Y-45635696D01*
X72449832Y-45635698D01*
X72379641Y-45655364D01*
X72375806Y-45656308D01*
X72301425Y-45672120D01*
X72242038Y-45693734D01*
X72237562Y-45695173D01*
X72195879Y-45706853D01*
X72179725Y-45711380D01*
X72179722Y-45711380D01*
X72179719Y-45711382D01*
X72109914Y-45741702D01*
X72106420Y-45743095D01*
X72031954Y-45770198D01*
X71978977Y-45798366D01*
X71974571Y-45800490D01*
X71922430Y-45823138D01*
X71922429Y-45823139D01*
X71854656Y-45864352D01*
X71851550Y-45866120D01*
X71778745Y-45904832D01*
X71778738Y-45904836D01*
X71732813Y-45938202D01*
X71728585Y-45941017D01*
X71682760Y-45968884D01*
X71682741Y-45968897D01*
X71618724Y-46020979D01*
X71616040Y-46023043D01*
X71546750Y-46073386D01*
X71546738Y-46073396D01*
X71508212Y-46110600D01*
X71504272Y-46114094D01*
X71465151Y-46145922D01*
X71465146Y-46145927D01*
X71406629Y-46208583D01*
X71404387Y-46210862D01*
X71340461Y-46272596D01*
X71309454Y-46312282D01*
X71305909Y-46316429D01*
X71273694Y-46350923D01*
X71273681Y-46350938D01*
X71222399Y-46423587D01*
X71220605Y-46426003D01*
X71163912Y-46498568D01*
X71163906Y-46498576D01*
X71140336Y-46539398D01*
X71137296Y-46544151D01*
X71111916Y-46580108D01*
X71069524Y-46661921D01*
X71068169Y-46664396D01*
X71020523Y-46746923D01*
X71020522Y-46746925D01*
X71004069Y-46787647D01*
X71001633Y-46792945D01*
X70982862Y-46829173D01*
X70950488Y-46920266D01*
X70913097Y-47012812D01*
X70913096Y-47012814D01*
X70903246Y-47052318D01*
X70901507Y-47058082D01*
X70888927Y-47093480D01*
X70888922Y-47093498D01*
X70868621Y-47191195D01*
X70843720Y-47291067D01*
X70843719Y-47291071D01*
X70839801Y-47328349D01*
X70838844Y-47334482D01*
X70831852Y-47368136D01*
X70831851Y-47368138D01*
X70824829Y-47470802D01*
X70813744Y-47576271D01*
X70813744Y-47576273D01*
X70814941Y-47610520D01*
X70814834Y-47616918D01*
X70812709Y-47647998D01*
X70812709Y-47648000D01*
X65189254Y-47648000D01*
X65197212Y-47430235D01*
X65167586Y-47160982D01*
X65099072Y-46898912D01*
X64993130Y-46649610D01*
X64852018Y-46418390D01*
X64810893Y-46368973D01*
X64678746Y-46210180D01*
X64678740Y-46210175D01*
X64477002Y-46029418D01*
X64251092Y-45879957D01*
X64219779Y-45865278D01*
X64005824Y-45764980D01*
X64005819Y-45764978D01*
X64005814Y-45764976D01*
X63746442Y-45686942D01*
X63746428Y-45686939D01*
X63630791Y-45669921D01*
X63478439Y-45647500D01*
X63275369Y-45647500D01*
X63275364Y-45647500D01*
X63072844Y-45662323D01*
X63072831Y-45662325D01*
X62808453Y-45721217D01*
X62808446Y-45721220D01*
X62555439Y-45817987D01*
X62319226Y-45950557D01*
X62319224Y-45950558D01*
X62319223Y-45950559D01*
X62288427Y-45974339D01*
X62104822Y-46116112D01*
X61916822Y-46311109D01*
X61916816Y-46311116D01*
X61759202Y-46531419D01*
X61759199Y-46531424D01*
X61635350Y-46772309D01*
X61635343Y-46772327D01*
X61547884Y-47028685D01*
X61547881Y-47028699D01*
X61525341Y-47150730D01*
X61504918Y-47261303D01*
X61498681Y-47295068D01*
X61498680Y-47295075D01*
X61488787Y-47565763D01*
X55529042Y-47565763D01*
X55444290Y-47349818D01*
X55444291Y-47349818D01*
X55309397Y-47116177D01*
X55255704Y-47048847D01*
X54420546Y-47884004D01*
X54410812Y-47854044D01*
X54322814Y-47715381D01*
X54203097Y-47602960D01*
X54068489Y-47528958D01*
X54903150Y-46694296D01*
X54720517Y-46569779D01*
X54720516Y-46569778D01*
X54477460Y-46452730D01*
X54477462Y-46452730D01*
X54219662Y-46373209D01*
X54219656Y-46373207D01*
X53952898Y-46333000D01*
X53683101Y-46333000D01*
X53416343Y-46373207D01*
X53416337Y-46373209D01*
X53158538Y-46452730D01*
X52915485Y-46569778D01*
X52915476Y-46569783D01*
X52732848Y-46694296D01*
X53570465Y-47531913D01*
X53502371Y-47558874D01*
X53369508Y-47655405D01*
X53264825Y-47781945D01*
X53216368Y-47884921D01*
X52380295Y-47048848D01*
X52326600Y-47116180D01*
X52191709Y-47349818D01*
X52093148Y-47600947D01*
X52093142Y-47600966D01*
X52033113Y-47863971D01*
X52033113Y-47863973D01*
X52012953Y-48132995D01*
X52012953Y-48133004D01*
X49373500Y-48133004D01*
X49373500Y-44397856D01*
X52217500Y-44397856D01*
X52217502Y-44397882D01*
X52220413Y-44422987D01*
X52220415Y-44422991D01*
X52265793Y-44525764D01*
X52265794Y-44525765D01*
X52345235Y-44605206D01*
X52448009Y-44650585D01*
X52473135Y-44653500D01*
X55162864Y-44653499D01*
X55162879Y-44653497D01*
X55162882Y-44653497D01*
X55187987Y-44650586D01*
X55187988Y-44650585D01*
X55187991Y-44650585D01*
X55290765Y-44605206D01*
X55370206Y-44525765D01*
X55415585Y-44422991D01*
X55418500Y-44397865D01*
X55418500Y-43877500D01*
X55438185Y-43810461D01*
X55490989Y-43764706D01*
X55542500Y-43753500D01*
X62644952Y-43753500D01*
X62648697Y-43753613D01*
X62656042Y-43754057D01*
X62710606Y-43757358D01*
X62748314Y-43750447D01*
X62771621Y-43746177D01*
X62775325Y-43745613D01*
X62793170Y-43743446D01*
X62836872Y-43738140D01*
X62846335Y-43734550D01*
X62867961Y-43728522D01*
X62868893Y-43728351D01*
X62877932Y-43726695D01*
X62934512Y-43701229D01*
X62937942Y-43699809D01*
X62995930Y-43677818D01*
X63004266Y-43672062D01*
X63023821Y-43661034D01*
X63033057Y-43656878D01*
X63081896Y-43618613D01*
X63084876Y-43616421D01*
X63135929Y-43581183D01*
X63177065Y-43534748D01*
X63179599Y-43532056D01*
X65193797Y-41517858D01*
X65255118Y-41484375D01*
X65324810Y-41489359D01*
X65346750Y-41500112D01*
X65350355Y-41502344D01*
X65350363Y-41502348D01*
X65540544Y-41576024D01*
X65741024Y-41613500D01*
X65741026Y-41613500D01*
X65944974Y-41613500D01*
X65944976Y-41613500D01*
X66145456Y-41576024D01*
X66335637Y-41502348D01*
X66509041Y-41394981D01*
X66659764Y-41257579D01*
X66659765Y-41257578D01*
X66663063Y-41253961D01*
X66722774Y-41217680D01*
X66754699Y-41213500D01*
X67764952Y-41213500D01*
X67768697Y-41213613D01*
X67776042Y-41214057D01*
X67830606Y-41217358D01*
X67868314Y-41210447D01*
X67891621Y-41206177D01*
X67895325Y-41205613D01*
X67913170Y-41203446D01*
X67956872Y-41198140D01*
X67966335Y-41194550D01*
X67987961Y-41188522D01*
X67988893Y-41188351D01*
X67997932Y-41186695D01*
X68054512Y-41161229D01*
X68057942Y-41159809D01*
X68115930Y-41137818D01*
X68124266Y-41132062D01*
X68143821Y-41121034D01*
X68153057Y-41116878D01*
X68201896Y-41078613D01*
X68204876Y-41076421D01*
X68255929Y-41041183D01*
X68297065Y-40994748D01*
X68299599Y-40992056D01*
X75887056Y-33404599D01*
X75889748Y-33402065D01*
X75936183Y-33360929D01*
X75971427Y-33309866D01*
X75973617Y-33306890D01*
X76011877Y-33258057D01*
X76016029Y-33248828D01*
X76027062Y-33229268D01*
X76027419Y-33228750D01*
X76032818Y-33220930D01*
X76054812Y-33162933D01*
X76056231Y-33159505D01*
X76081694Y-33102932D01*
X76083520Y-33092965D01*
X76089548Y-33071340D01*
X76093140Y-33061872D01*
X76100615Y-33000309D01*
X76101179Y-32996605D01*
X76105456Y-32973258D01*
X76112357Y-32935606D01*
X76108613Y-32873707D01*
X76108500Y-32869963D01*
X76108500Y-32412499D01*
X76128185Y-32345460D01*
X76180989Y-32299705D01*
X76232500Y-32288499D01*
X76405356Y-32288499D01*
X76405364Y-32288499D01*
X76405379Y-32288497D01*
X76405382Y-32288497D01*
X76430487Y-32285586D01*
X76430488Y-32285585D01*
X76430491Y-32285585D01*
X76533265Y-32240206D01*
X76612706Y-32160765D01*
X76658085Y-32057991D01*
X76661000Y-32032865D01*
X76660999Y-29943136D01*
X76660437Y-29938287D01*
X76658086Y-29918012D01*
X76658085Y-29918010D01*
X76658085Y-29918009D01*
X76612706Y-29815235D01*
X76533265Y-29735794D01*
X76498274Y-29720344D01*
X76430492Y-29690415D01*
X76405365Y-29687500D01*
X74410643Y-29687500D01*
X74410617Y-29687502D01*
X74385512Y-29690413D01*
X74385508Y-29690415D01*
X74282735Y-29735793D01*
X74203294Y-29815234D01*
X74154147Y-29926542D01*
X74152694Y-29925900D01*
X74121604Y-29976459D01*
X74058637Y-30006739D01*
X73989294Y-29998171D01*
X73947328Y-29968359D01*
X73855126Y-29868202D01*
X73855116Y-29868193D01*
X73665168Y-29720350D01*
X73665159Y-29720344D01*
X73453468Y-29605784D01*
X73453454Y-29605778D01*
X73225791Y-29527619D01*
X73118000Y-29509633D01*
X73118000Y-30496316D01*
X73089181Y-30478791D01*
X72943596Y-30438000D01*
X72830378Y-30438000D01*
X72718217Y-30453416D01*
X72618000Y-30496946D01*
X72618000Y-29509633D01*
X72617999Y-29509633D01*
X72510208Y-29527619D01*
X72282545Y-29605778D01*
X72282531Y-29605784D01*
X72070840Y-29720344D01*
X72070831Y-29720350D01*
X71880883Y-29868193D01*
X71880873Y-29868202D01*
X71717851Y-30045289D01*
X71717843Y-30045300D01*
X71583545Y-30250858D01*
X71530399Y-30296215D01*
X71461168Y-30305638D01*
X71397832Y-30276136D01*
X71379419Y-30255921D01*
X71275418Y-30112775D01*
X71275411Y-30112767D01*
X71112393Y-29956906D01*
X71084187Y-29938287D01*
X71039083Y-29884926D01*
X71028500Y-29834801D01*
X71028500Y-27767499D01*
X71048185Y-27700460D01*
X71100989Y-27654705D01*
X71152500Y-27643499D01*
X71237744Y-27643499D01*
X71237752Y-27643499D01*
X71237767Y-27643497D01*
X71237770Y-27643497D01*
X71262875Y-27640586D01*
X71262876Y-27640585D01*
X71262879Y-27640585D01*
X71365653Y-27595206D01*
X71445094Y-27515765D01*
X71490473Y-27412991D01*
X71493388Y-27387865D01*
X71493387Y-27177150D01*
X71513071Y-27110113D01*
X71565875Y-27064358D01*
X71635033Y-27054414D01*
X71698589Y-27083439D01*
X71729769Y-27124747D01*
X71762753Y-27195481D01*
X71762754Y-27195483D01*
X71813861Y-27268471D01*
X71813862Y-27268472D01*
X72494934Y-26587399D01*
X72507723Y-26668148D01*
X72565247Y-26781045D01*
X72654843Y-26870641D01*
X72767740Y-26928165D01*
X72848487Y-26940953D01*
X72167414Y-27622025D01*
X72167414Y-27622026D01*
X72240400Y-27673131D01*
X72240404Y-27673133D01*
X72446561Y-27769265D01*
X72446570Y-27769269D01*
X72666277Y-27828139D01*
X72666288Y-27828141D01*
X72892886Y-27847966D01*
X72892890Y-27847966D01*
X73119487Y-27828141D01*
X73119498Y-27828139D01*
X73339205Y-27769269D01*
X73339219Y-27769264D01*
X73545366Y-27673136D01*
X73618360Y-27622025D01*
X72937289Y-26940953D01*
X73018036Y-26928165D01*
X73130933Y-26870641D01*
X73220529Y-26781045D01*
X73278053Y-26668148D01*
X73290841Y-26587400D01*
X73971913Y-27268472D01*
X74023024Y-27195478D01*
X74119152Y-26989331D01*
X74119157Y-26989317D01*
X74178027Y-26769610D01*
X74178029Y-26769599D01*
X74197854Y-26543002D01*
X74197854Y-26542997D01*
X74178029Y-26316400D01*
X74178027Y-26316389D01*
X74119157Y-26096682D01*
X74119153Y-26096673D01*
X74023021Y-25890516D01*
X74023019Y-25890512D01*
X73971914Y-25817526D01*
X73971913Y-25817526D01*
X73290841Y-26498598D01*
X73278053Y-26417852D01*
X73220529Y-26304955D01*
X73130933Y-26215359D01*
X73018036Y-26157835D01*
X72937288Y-26145046D01*
X73618360Y-25463974D01*
X73618359Y-25463973D01*
X73545371Y-25412866D01*
X73545369Y-25412865D01*
X73339214Y-25316734D01*
X73339205Y-25316730D01*
X73119498Y-25257860D01*
X73119487Y-25257858D01*
X72892890Y-25238034D01*
X72892886Y-25238034D01*
X72666288Y-25257858D01*
X72666277Y-25257860D01*
X72446570Y-25316730D01*
X72446561Y-25316734D01*
X72240401Y-25412868D01*
X72167415Y-25463972D01*
X72167414Y-25463973D01*
X72848488Y-26145046D01*
X72767740Y-26157835D01*
X72654843Y-26215359D01*
X72565247Y-26304955D01*
X72507723Y-26417852D01*
X72494934Y-26498599D01*
X71813861Y-25817526D01*
X71813860Y-25817527D01*
X71762755Y-25890513D01*
X71729769Y-25961253D01*
X71683596Y-26013692D01*
X71616403Y-26032844D01*
X71549521Y-26012628D01*
X71504187Y-25959462D01*
X71493387Y-25908848D01*
X71493387Y-25698143D01*
X71493387Y-25698136D01*
X71493385Y-25698117D01*
X71490474Y-25673012D01*
X71490473Y-25673010D01*
X71490473Y-25673009D01*
X71445094Y-25570235D01*
X71365653Y-25490794D01*
X71365651Y-25490793D01*
X71262880Y-25445415D01*
X71237753Y-25442500D01*
X69548031Y-25442500D01*
X69548005Y-25442502D01*
X69522900Y-25445413D01*
X69522896Y-25445415D01*
X69420123Y-25490793D01*
X69340682Y-25570234D01*
X69295303Y-25673006D01*
X69295303Y-25673008D01*
X69292388Y-25698131D01*
X69292388Y-27387856D01*
X69292390Y-27387882D01*
X69295301Y-27412987D01*
X69295303Y-27412991D01*
X69340681Y-27515764D01*
X69340682Y-27515765D01*
X69420123Y-27595206D01*
X69480865Y-27622026D01*
X69522894Y-27640584D01*
X69522895Y-27640584D01*
X69522897Y-27640585D01*
X69522898Y-27640585D01*
X69531895Y-27643033D01*
X69531177Y-27645671D01*
X69582105Y-27667264D01*
X69621476Y-27724985D01*
X69627500Y-27763166D01*
X69627500Y-29836766D01*
X69607815Y-29903805D01*
X69580813Y-29933713D01*
X69458598Y-30031176D01*
X69310209Y-30201021D01*
X69310208Y-30201021D01*
X69194523Y-30394646D01*
X69115271Y-30605808D01*
X69115271Y-30605809D01*
X69075000Y-30827725D01*
X69075000Y-31091772D01*
X69082893Y-31179472D01*
X69069297Y-31248006D01*
X69047073Y-31278268D01*
X65629162Y-34696181D01*
X65567839Y-34729666D01*
X65541481Y-34732500D01*
X64625351Y-34732500D01*
X64558312Y-34712815D01*
X64521542Y-34676321D01*
X64451983Y-34569852D01*
X64451980Y-34569849D01*
X64451979Y-34569847D01*
X64294784Y-34399087D01*
X64294779Y-34399083D01*
X64294777Y-34399081D01*
X64111634Y-34256535D01*
X64111628Y-34256531D01*
X63907504Y-34146064D01*
X63907495Y-34146061D01*
X63687984Y-34070702D01*
X63516282Y-34042050D01*
X63459049Y-34032500D01*
X63226951Y-34032500D01*
X63181164Y-34040140D01*
X62998015Y-34070702D01*
X62778504Y-34146061D01*
X62778495Y-34146064D01*
X62574371Y-34256531D01*
X62574365Y-34256535D01*
X62391222Y-34399081D01*
X62391219Y-34399084D01*
X62234016Y-34569852D01*
X62107075Y-34764151D01*
X62013842Y-34976699D01*
X61956866Y-35201691D01*
X61956864Y-35201702D01*
X61937700Y-35432993D01*
X61937700Y-35433006D01*
X61956864Y-35664297D01*
X61956866Y-35664308D01*
X62013842Y-35889300D01*
X62107075Y-36101848D01*
X62234016Y-36296147D01*
X62234019Y-36296151D01*
X62234021Y-36296153D01*
X62391216Y-36466913D01*
X62391219Y-36466915D01*
X62391222Y-36466918D01*
X62574365Y-36609464D01*
X62574371Y-36609468D01*
X62574374Y-36609470D01*
X62778497Y-36719936D01*
X62892487Y-36759068D01*
X62998015Y-36795297D01*
X62998017Y-36795297D01*
X62998019Y-36795298D01*
X63226951Y-36833500D01*
X63226952Y-36833500D01*
X63459048Y-36833500D01*
X63459049Y-36833500D01*
X63687981Y-36795298D01*
X63907503Y-36719936D01*
X64111626Y-36609470D01*
X64294784Y-36466913D01*
X64451979Y-36296153D01*
X64521542Y-36189679D01*
X64574688Y-36144322D01*
X64625351Y-36133500D01*
X65859952Y-36133500D01*
X65863697Y-36133613D01*
X65871042Y-36134057D01*
X65925606Y-36137358D01*
X65963314Y-36130447D01*
X65986621Y-36126177D01*
X65990325Y-36125613D01*
X66008170Y-36123446D01*
X66051872Y-36118140D01*
X66061335Y-36114550D01*
X66082961Y-36108522D01*
X66083893Y-36108351D01*
X66092932Y-36106695D01*
X66149512Y-36081229D01*
X66152942Y-36079809D01*
X66210930Y-36057818D01*
X66219266Y-36052062D01*
X66238821Y-36041034D01*
X66248057Y-36036878D01*
X66296896Y-35998613D01*
X66299876Y-35996421D01*
X66350929Y-35961183D01*
X66392065Y-35914748D01*
X66394599Y-35912056D01*
X70001041Y-32305614D01*
X70062362Y-32272131D01*
X70116312Y-32272406D01*
X70159126Y-32282179D01*
X70384443Y-32292298D01*
X70607946Y-32262023D01*
X70822451Y-32192326D01*
X71021064Y-32085447D01*
X71197402Y-31944823D01*
X71345796Y-31774972D01*
X71373163Y-31729167D01*
X71424443Y-31681715D01*
X71493240Y-31669520D01*
X71557709Y-31696454D01*
X71583417Y-31724946D01*
X71717843Y-31930699D01*
X71717851Y-31930710D01*
X71880873Y-32107797D01*
X71880883Y-32107806D01*
X72070831Y-32255649D01*
X72070840Y-32255655D01*
X72282531Y-32370215D01*
X72282545Y-32370221D01*
X72510207Y-32448379D01*
X72618000Y-32466366D01*
X72618000Y-31479683D01*
X72646819Y-31497209D01*
X72792404Y-31538000D01*
X72905622Y-31538000D01*
X73017783Y-31522584D01*
X73118000Y-31479053D01*
X73118000Y-32466365D01*
X73225792Y-32448379D01*
X73453454Y-32370221D01*
X73453468Y-32370215D01*
X73665159Y-32255655D01*
X73665168Y-32255649D01*
X73855116Y-32107806D01*
X73855125Y-32107798D01*
X73947327Y-32007640D01*
X74007214Y-31971649D01*
X74077052Y-31973749D01*
X74134668Y-32013272D01*
X74153431Y-32049773D01*
X74154147Y-32049458D01*
X74203293Y-32160764D01*
X74203294Y-32160765D01*
X74282735Y-32240206D01*
X74385509Y-32285585D01*
X74410635Y-32288500D01*
X74583500Y-32288499D01*
X74650539Y-32308183D01*
X74696294Y-32360987D01*
X74707500Y-32412499D01*
X74707500Y-32551481D01*
X74687815Y-32618520D01*
X74671181Y-32639162D01*
X67534162Y-39776181D01*
X67472839Y-39809666D01*
X67446481Y-39812500D01*
X66754699Y-39812500D01*
X66687660Y-39792815D01*
X66663063Y-39772039D01*
X66659765Y-39768421D01*
X66509041Y-39631019D01*
X66509039Y-39631017D01*
X66335642Y-39523655D01*
X66335635Y-39523651D01*
X66240546Y-39486814D01*
X66145456Y-39449976D01*
X65944976Y-39412500D01*
X65741024Y-39412500D01*
X65540544Y-39449976D01*
X65540541Y-39449976D01*
X65540541Y-39449977D01*
X65350364Y-39523651D01*
X65350357Y-39523655D01*
X65176960Y-39631017D01*
X65176958Y-39631019D01*
X65026238Y-39768417D01*
X64979709Y-39830031D01*
X64924730Y-39871243D01*
X64880069Y-39888182D01*
X64871724Y-39893942D01*
X64852183Y-39904964D01*
X64842944Y-39909122D01*
X64842939Y-39909125D01*
X64794121Y-39947370D01*
X64791106Y-39949589D01*
X64740072Y-39984816D01*
X64740065Y-39984822D01*
X64698942Y-40031240D01*
X64696375Y-40033966D01*
X62414162Y-42316181D01*
X62352839Y-42349666D01*
X62326481Y-42352500D01*
X55542499Y-42352500D01*
X55475460Y-42332815D01*
X55429705Y-42280011D01*
X55418499Y-42228500D01*
X55418499Y-41708143D01*
X55418499Y-41708136D01*
X55418497Y-41708117D01*
X55415586Y-41683012D01*
X55415585Y-41683010D01*
X55415585Y-41683009D01*
X55370206Y-41580235D01*
X55290765Y-41500794D01*
X55264867Y-41489359D01*
X55187992Y-41455415D01*
X55162865Y-41452500D01*
X52473143Y-41452500D01*
X52473117Y-41452502D01*
X52448012Y-41455413D01*
X52448008Y-41455415D01*
X52345235Y-41500793D01*
X52265794Y-41580234D01*
X52220415Y-41683006D01*
X52220415Y-41683008D01*
X52217500Y-41708131D01*
X52217500Y-44397856D01*
X49373500Y-44397856D01*
X49373500Y-40513002D01*
X59538034Y-40513002D01*
X59557858Y-40739599D01*
X59557860Y-40739610D01*
X59616730Y-40959317D01*
X59616734Y-40959326D01*
X59712865Y-41165481D01*
X59712866Y-41165483D01*
X59763973Y-41238471D01*
X59763974Y-41238472D01*
X60445046Y-40557399D01*
X60457835Y-40638148D01*
X60515359Y-40751045D01*
X60604955Y-40840641D01*
X60717852Y-40898165D01*
X60798599Y-40910953D01*
X60117526Y-41592025D01*
X60117526Y-41592026D01*
X60190512Y-41643131D01*
X60190516Y-41643133D01*
X60396673Y-41739265D01*
X60396682Y-41739269D01*
X60616389Y-41798139D01*
X60616400Y-41798141D01*
X60842998Y-41817966D01*
X60843002Y-41817966D01*
X61069599Y-41798141D01*
X61069610Y-41798139D01*
X61289317Y-41739269D01*
X61289331Y-41739264D01*
X61495478Y-41643136D01*
X61568472Y-41592025D01*
X60887401Y-40910953D01*
X60968148Y-40898165D01*
X61081045Y-40840641D01*
X61170641Y-40751045D01*
X61228165Y-40638148D01*
X61240953Y-40557400D01*
X61922025Y-41238472D01*
X61973136Y-41165478D01*
X62069264Y-40959331D01*
X62069269Y-40959317D01*
X62128139Y-40739610D01*
X62128141Y-40739599D01*
X62147966Y-40513002D01*
X62147966Y-40512997D01*
X62128141Y-40286400D01*
X62128139Y-40286389D01*
X62069269Y-40066682D01*
X62069265Y-40066673D01*
X61973133Y-39860516D01*
X61973131Y-39860512D01*
X61922026Y-39787526D01*
X61922025Y-39787526D01*
X61240953Y-40468598D01*
X61228165Y-40387852D01*
X61170641Y-40274955D01*
X61081045Y-40185359D01*
X60968148Y-40127835D01*
X60887400Y-40115046D01*
X61568472Y-39433974D01*
X61568471Y-39433973D01*
X61495483Y-39382866D01*
X61495481Y-39382865D01*
X61289326Y-39286734D01*
X61289317Y-39286730D01*
X61069610Y-39227860D01*
X61069599Y-39227858D01*
X60843002Y-39208034D01*
X60842998Y-39208034D01*
X60616400Y-39227858D01*
X60616389Y-39227860D01*
X60396682Y-39286730D01*
X60396673Y-39286734D01*
X60190513Y-39382868D01*
X60117527Y-39433972D01*
X60117526Y-39433973D01*
X60798600Y-40115046D01*
X60717852Y-40127835D01*
X60604955Y-40185359D01*
X60515359Y-40274955D01*
X60457835Y-40387852D01*
X60445046Y-40468599D01*
X59763973Y-39787526D01*
X59763972Y-39787527D01*
X59712868Y-39860513D01*
X59616734Y-40066673D01*
X59616730Y-40066682D01*
X59557860Y-40286389D01*
X59557858Y-40286400D01*
X59538034Y-40512997D01*
X59538034Y-40513002D01*
X49373500Y-40513002D01*
X49373500Y-31690394D01*
X50852500Y-31690394D01*
X50859962Y-31713358D01*
X50864503Y-31732273D01*
X50866123Y-31742500D01*
X50868281Y-31756127D01*
X50879243Y-31777641D01*
X50886688Y-31795615D01*
X50894150Y-31818580D01*
X50908340Y-31838110D01*
X50918508Y-31854703D01*
X50929470Y-31876218D01*
X50929472Y-31876220D01*
X50953446Y-31900194D01*
X52199472Y-33146220D01*
X52294780Y-33241528D01*
X52316300Y-33252493D01*
X52332875Y-33262649D01*
X52352419Y-33276849D01*
X52375381Y-33284309D01*
X52393354Y-33291753D01*
X52414874Y-33302719D01*
X52414875Y-33302719D01*
X52414877Y-33302720D01*
X52424156Y-33305735D01*
X52423590Y-33307475D01*
X52476028Y-33332331D01*
X52512962Y-33391641D01*
X52517500Y-33424879D01*
X52517500Y-33536102D01*
X52523126Y-33582954D01*
X52528122Y-33624561D01*
X52583639Y-33765343D01*
X52675077Y-33885922D01*
X52795658Y-33977361D01*
X52795660Y-33977362D01*
X52926793Y-34029075D01*
X52981937Y-34071980D01*
X53005130Y-34137888D01*
X52989009Y-34205873D01*
X52952427Y-34246004D01*
X52796922Y-34354890D01*
X52796920Y-34354891D01*
X52629894Y-34521917D01*
X52494399Y-34715421D01*
X52394570Y-34929507D01*
X52394567Y-34929513D01*
X52337364Y-35142999D01*
X52337364Y-35143000D01*
X53384314Y-35143000D01*
X53358507Y-35183156D01*
X53318000Y-35321111D01*
X53318000Y-35464889D01*
X53358507Y-35602844D01*
X53384314Y-35643000D01*
X52337364Y-35643000D01*
X52394567Y-35856486D01*
X52394570Y-35856492D01*
X52494399Y-36070577D01*
X52494400Y-36070579D01*
X52629886Y-36264073D01*
X52629891Y-36264079D01*
X52796920Y-36431108D01*
X52796926Y-36431113D01*
X52990420Y-36566599D01*
X52990422Y-36566600D01*
X53204507Y-36666429D01*
X53204516Y-36666433D01*
X53432673Y-36727567D01*
X53432684Y-36727569D01*
X53567999Y-36739407D01*
X53568000Y-36739407D01*
X53568000Y-35828501D01*
X53675685Y-35877680D01*
X53782237Y-35893000D01*
X53853763Y-35893000D01*
X53960315Y-35877680D01*
X54068000Y-35828501D01*
X54068000Y-36739407D01*
X54203315Y-36727569D01*
X54203326Y-36727567D01*
X54431483Y-36666433D01*
X54431492Y-36666429D01*
X54645577Y-36566600D01*
X54645579Y-36566599D01*
X54839073Y-36431113D01*
X54839079Y-36431108D01*
X55006105Y-36264082D01*
X55141600Y-36070578D01*
X55241429Y-35856492D01*
X55241432Y-35856486D01*
X55298636Y-35643000D01*
X54251686Y-35643000D01*
X54277493Y-35602844D01*
X54318000Y-35464889D01*
X54318000Y-35321111D01*
X54277493Y-35183156D01*
X54251686Y-35143000D01*
X55298636Y-35143000D01*
X55298635Y-35142999D01*
X55241432Y-34929513D01*
X55241429Y-34929507D01*
X55141600Y-34715422D01*
X55141599Y-34715420D01*
X55006113Y-34521926D01*
X55006108Y-34521920D01*
X54839079Y-34354891D01*
X54839073Y-34354886D01*
X54683573Y-34246004D01*
X54639948Y-34191427D01*
X54632754Y-34121929D01*
X54664277Y-34059574D01*
X54709203Y-34029075D01*
X54840342Y-33977361D01*
X54960922Y-33885922D01*
X55052361Y-33765342D01*
X55107877Y-33624564D01*
X55118500Y-33536102D01*
X55118500Y-32249898D01*
X55107877Y-32161436D01*
X55052361Y-32020658D01*
X55052360Y-32020657D01*
X55052360Y-32020656D01*
X54960922Y-31900077D01*
X54840343Y-31808639D01*
X54744192Y-31770722D01*
X54699564Y-31753123D01*
X54699563Y-31753122D01*
X54699561Y-31753122D01*
X54653926Y-31747642D01*
X54611102Y-31742500D01*
X53024898Y-31742500D01*
X52985853Y-31747188D01*
X52936438Y-31753122D01*
X52795656Y-31808639D01*
X52675077Y-31900077D01*
X52583638Y-32020658D01*
X52566384Y-32064411D01*
X52523478Y-32119555D01*
X52457570Y-32142747D01*
X52389585Y-32126626D01*
X52363349Y-32106601D01*
X51739819Y-31483071D01*
X51706334Y-31421748D01*
X51703500Y-31395390D01*
X51703500Y-21690610D01*
X51723185Y-21623571D01*
X51739819Y-21602929D01*
X52052363Y-21290385D01*
X52381280Y-20961467D01*
X52442601Y-20927984D01*
X52512292Y-20932968D01*
X52568226Y-20974839D01*
X52584313Y-21003659D01*
X52608638Y-21065341D01*
X52700077Y-21185922D01*
X52820656Y-21277360D01*
X52820657Y-21277360D01*
X52820658Y-21277361D01*
X52961436Y-21332877D01*
X53049898Y-21343500D01*
X53049903Y-21343500D01*
X53342998Y-21343500D01*
X53410037Y-21363185D01*
X53455792Y-21415989D01*
X53465736Y-21485147D01*
X53436711Y-21548703D01*
X53377933Y-21586477D01*
X53376933Y-21586766D01*
X53275607Y-21615596D01*
X53275605Y-21615596D01*
X53084746Y-21710632D01*
X52914593Y-21839127D01*
X52770947Y-21996699D01*
X52658702Y-22177980D01*
X52658701Y-22177982D01*
X52595296Y-22341652D01*
X52581679Y-22376802D01*
X52542500Y-22586390D01*
X52542500Y-22799610D01*
X52581679Y-23009198D01*
X52658702Y-23208019D01*
X52770948Y-23389302D01*
X52914593Y-23546872D01*
X53084745Y-23675366D01*
X53177733Y-23721668D01*
X53228968Y-23769169D01*
X53246390Y-23836832D01*
X53224465Y-23903172D01*
X53174865Y-23945049D01*
X53015422Y-24019399D01*
X53015420Y-24019400D01*
X52821926Y-24154886D01*
X52821920Y-24154891D01*
X52654894Y-24321917D01*
X52519399Y-24515421D01*
X52419570Y-24729507D01*
X52419567Y-24729513D01*
X52362364Y-24942999D01*
X52362364Y-24943000D01*
X53414031Y-24943000D01*
X53381481Y-24993649D01*
X53343000Y-25124705D01*
X53343000Y-25261295D01*
X53381481Y-25392351D01*
X53414031Y-25443000D01*
X52362364Y-25443000D01*
X52419567Y-25656486D01*
X52419570Y-25656492D01*
X52519399Y-25870577D01*
X52519400Y-25870579D01*
X52654886Y-26064073D01*
X52654891Y-26064079D01*
X52821920Y-26231108D01*
X52821926Y-26231113D01*
X53015420Y-26366599D01*
X53015422Y-26366600D01*
X53229507Y-26466429D01*
X53229516Y-26466433D01*
X53457678Y-26527568D01*
X53568000Y-26537219D01*
X53568000Y-25601018D01*
X53682801Y-25653446D01*
X53784025Y-25668000D01*
X53851975Y-25668000D01*
X53953199Y-25653446D01*
X54068000Y-25601018D01*
X54068000Y-26537219D01*
X54178320Y-26527568D01*
X54178323Y-26527568D01*
X54406483Y-26466433D01*
X54406492Y-26466429D01*
X54620577Y-26366600D01*
X54620579Y-26366599D01*
X54814073Y-26231113D01*
X54814079Y-26231108D01*
X54981105Y-26064082D01*
X55116600Y-25870578D01*
X55216429Y-25656492D01*
X55216432Y-25656486D01*
X55273636Y-25443000D01*
X54221969Y-25443000D01*
X54254519Y-25392351D01*
X54293000Y-25261295D01*
X54293000Y-25124705D01*
X54254519Y-24993649D01*
X54221969Y-24943000D01*
X55273636Y-24943000D01*
X55273635Y-24942999D01*
X55216432Y-24729513D01*
X55216429Y-24729507D01*
X55116600Y-24515422D01*
X55116599Y-24515420D01*
X54981113Y-24321926D01*
X54981108Y-24321920D01*
X54814079Y-24154891D01*
X54814073Y-24154886D01*
X54620579Y-24019400D01*
X54620577Y-24019399D01*
X54461134Y-23945049D01*
X54408695Y-23898876D01*
X54389543Y-23831683D01*
X54409759Y-23764802D01*
X54458266Y-23721668D01*
X54551255Y-23675366D01*
X54721407Y-23546872D01*
X54824340Y-23433961D01*
X54884052Y-23397680D01*
X54915977Y-23393500D01*
X55976481Y-23393500D01*
X56043520Y-23413185D01*
X56064162Y-23429819D01*
X58161181Y-25526838D01*
X58194666Y-25588161D01*
X58197500Y-25614519D01*
X58197500Y-27558500D01*
X58177815Y-27625539D01*
X58125011Y-27671294D01*
X58073500Y-27682500D01*
X57753143Y-27682500D01*
X57753117Y-27682502D01*
X57728012Y-27685413D01*
X57728008Y-27685415D01*
X57625235Y-27730793D01*
X57545794Y-27810234D01*
X57500415Y-27913006D01*
X57500415Y-27913008D01*
X57497500Y-27938131D01*
X57497500Y-30227856D01*
X57497502Y-30227882D01*
X57500413Y-30252987D01*
X57500415Y-30252991D01*
X57545793Y-30355764D01*
X57545794Y-30355765D01*
X57625235Y-30435206D01*
X57728009Y-30480585D01*
X57753135Y-30483500D01*
X60042864Y-30483499D01*
X60042879Y-30483497D01*
X60042882Y-30483497D01*
X60067987Y-30480586D01*
X60067988Y-30480585D01*
X60067991Y-30480585D01*
X60170765Y-30435206D01*
X60250206Y-30355765D01*
X60295585Y-30252991D01*
X60298500Y-30227865D01*
X60298499Y-27938136D01*
X60298497Y-27938117D01*
X60295586Y-27913012D01*
X60295585Y-27913010D01*
X60295585Y-27913009D01*
X60250206Y-27810235D01*
X60170765Y-27730794D01*
X60102065Y-27700460D01*
X60067992Y-27685415D01*
X60042868Y-27682500D01*
X60042865Y-27682500D01*
X59722500Y-27682500D01*
X59655461Y-27662815D01*
X59609706Y-27610011D01*
X59598500Y-27558500D01*
X59598500Y-26097500D01*
X59618185Y-26030461D01*
X59670989Y-25984706D01*
X59722500Y-25973500D01*
X61818501Y-25973500D01*
X61885540Y-25993185D01*
X61931295Y-26045989D01*
X61942501Y-26097500D01*
X61942501Y-26417856D01*
X61942502Y-26417882D01*
X61945413Y-26442987D01*
X61945415Y-26442991D01*
X61990793Y-26545764D01*
X61990794Y-26545765D01*
X62070235Y-26625206D01*
X62173009Y-26670585D01*
X62198135Y-26673500D01*
X64487864Y-26673499D01*
X64487879Y-26673497D01*
X64487882Y-26673497D01*
X64512987Y-26670586D01*
X64512988Y-26670585D01*
X64512991Y-26670585D01*
X64615765Y-26625206D01*
X64695206Y-26545765D01*
X64740585Y-26442991D01*
X64743500Y-26417865D01*
X64743499Y-24128136D01*
X64743497Y-24128117D01*
X64740586Y-24103012D01*
X64740585Y-24103011D01*
X64740585Y-24103009D01*
X64700733Y-24012753D01*
X64691662Y-23943479D01*
X64721485Y-23880294D01*
X64762653Y-23849878D01*
X64802650Y-23831611D01*
X64806728Y-23829922D01*
X64835638Y-23819140D01*
X64855329Y-23811797D01*
X64855329Y-23811796D01*
X64855331Y-23811796D01*
X64859189Y-23808907D01*
X64881995Y-23795375D01*
X64886373Y-23793377D01*
X64925564Y-23759416D01*
X64929014Y-23756637D01*
X64931930Y-23754453D01*
X64941593Y-23747221D01*
X64952720Y-23736092D01*
X64955925Y-23733109D01*
X64995143Y-23699128D01*
X64997751Y-23695068D01*
X65014381Y-23674431D01*
X65524431Y-23164381D01*
X65545068Y-23147751D01*
X65549128Y-23145143D01*
X65583109Y-23105925D01*
X65586092Y-23102720D01*
X65597221Y-23091593D01*
X65606637Y-23079014D01*
X65609417Y-23075564D01*
X65643377Y-23036373D01*
X65645375Y-23031995D01*
X65658907Y-23009189D01*
X65661796Y-23005331D01*
X65679922Y-22956728D01*
X65681614Y-22952645D01*
X65703165Y-22905457D01*
X65703850Y-22900685D01*
X65710409Y-22874992D01*
X65712091Y-22870483D01*
X65715791Y-22818740D01*
X65716265Y-22814340D01*
X65718500Y-22798799D01*
X65718500Y-22783094D01*
X65718658Y-22778669D01*
X65722359Y-22726927D01*
X65721332Y-22722206D01*
X65718500Y-22695858D01*
X65718500Y-22577499D01*
X65738185Y-22510460D01*
X65790989Y-22464705D01*
X65842500Y-22453499D01*
X66137856Y-22453499D01*
X66137864Y-22453499D01*
X66137879Y-22453497D01*
X66137882Y-22453497D01*
X66172258Y-22449511D01*
X66172463Y-22451281D01*
X66213540Y-22451281D01*
X66213745Y-22449510D01*
X66223007Y-22450584D01*
X66223009Y-22450585D01*
X66248135Y-22453500D01*
X66787864Y-22453499D01*
X66787879Y-22453497D01*
X66787882Y-22453497D01*
X66822258Y-22449511D01*
X66822463Y-22451281D01*
X66863540Y-22451281D01*
X66863745Y-22449510D01*
X66873007Y-22450584D01*
X66873009Y-22450585D01*
X66898135Y-22453500D01*
X67131303Y-22453499D01*
X67198342Y-22473183D01*
X67230567Y-22503185D01*
X67235807Y-22510185D01*
X67235813Y-22510190D01*
X67350911Y-22596352D01*
X67350913Y-22596354D01*
X67485620Y-22646596D01*
X67485627Y-22646598D01*
X67545155Y-22652999D01*
X67545172Y-22653000D01*
X67593000Y-22653000D01*
X68043000Y-22653000D01*
X68090828Y-22653000D01*
X68090841Y-22652999D01*
X68154743Y-22646128D01*
X68181257Y-22646128D01*
X68245158Y-22652999D01*
X68245172Y-22653000D01*
X68755500Y-22653000D01*
X68755500Y-21628000D01*
X69255500Y-21628000D01*
X69255500Y-22653000D01*
X69765828Y-22653000D01*
X69765844Y-22652999D01*
X69825372Y-22646598D01*
X69825379Y-22646596D01*
X69960086Y-22596354D01*
X69960093Y-22596350D01*
X70075187Y-22510190D01*
X70075190Y-22510187D01*
X70161350Y-22395093D01*
X70161354Y-22395086D01*
X70211596Y-22260379D01*
X70211598Y-22260372D01*
X70217999Y-22200844D01*
X70218000Y-22200827D01*
X70218000Y-21628000D01*
X69255500Y-21628000D01*
X68755500Y-21628000D01*
X68583000Y-21628000D01*
X68559319Y-21651681D01*
X68497996Y-21685166D01*
X68471638Y-21688000D01*
X68043000Y-21688000D01*
X68043000Y-22653000D01*
X67593000Y-22653000D01*
X67593000Y-22429333D01*
X67612685Y-22362294D01*
X67629319Y-22341652D01*
X67645206Y-22325765D01*
X67690585Y-22222991D01*
X67693500Y-22197865D01*
X67693499Y-21348860D01*
X67713183Y-21281823D01*
X67729818Y-21261180D01*
X67758820Y-21232178D01*
X67772685Y-21184961D01*
X67825489Y-21139206D01*
X67877000Y-21128000D01*
X70218000Y-21128000D01*
X70218000Y-20895763D01*
X73553787Y-20895763D01*
X73583413Y-21165013D01*
X73583415Y-21165024D01*
X73649026Y-21415989D01*
X73651928Y-21427088D01*
X73757870Y-21676390D01*
X73857188Y-21839128D01*
X73898979Y-21907605D01*
X73898986Y-21907615D01*
X74072253Y-22115819D01*
X74072259Y-22115824D01*
X74233585Y-22260372D01*
X74273998Y-22296582D01*
X74499910Y-22446044D01*
X74745176Y-22561020D01*
X74745183Y-22561022D01*
X74745185Y-22561023D01*
X75004557Y-22639057D01*
X75004564Y-22639058D01*
X75004569Y-22639060D01*
X75272561Y-22678500D01*
X75272566Y-22678500D01*
X75475636Y-22678500D01*
X75527133Y-22674730D01*
X75678156Y-22663677D01*
X75790758Y-22638593D01*
X75942546Y-22604782D01*
X75942548Y-22604781D01*
X75942553Y-22604780D01*
X76195558Y-22508014D01*
X76431777Y-22375441D01*
X76646177Y-22209888D01*
X76834186Y-22014881D01*
X76991799Y-21794579D01*
X77079720Y-21623571D01*
X77115649Y-21553690D01*
X77115651Y-21553684D01*
X77115656Y-21553675D01*
X77203118Y-21297305D01*
X77252319Y-21030933D01*
X77262212Y-20760235D01*
X77232586Y-20490982D01*
X77164072Y-20228912D01*
X77058130Y-19979610D01*
X76917018Y-19748390D01*
X76827747Y-19641119D01*
X76743746Y-19540180D01*
X76743740Y-19540175D01*
X76542002Y-19359418D01*
X76316092Y-19209957D01*
X76295016Y-19200077D01*
X76070824Y-19094980D01*
X76070819Y-19094978D01*
X76070814Y-19094976D01*
X75811442Y-19016942D01*
X75811428Y-19016939D01*
X75695791Y-18999921D01*
X75543439Y-18977500D01*
X75340369Y-18977500D01*
X75340364Y-18977500D01*
X75137844Y-18992323D01*
X75137831Y-18992325D01*
X74873453Y-19051217D01*
X74873446Y-19051220D01*
X74620439Y-19147987D01*
X74384226Y-19280557D01*
X74169822Y-19446112D01*
X73981822Y-19641109D01*
X73981816Y-19641116D01*
X73824202Y-19861419D01*
X73824199Y-19861424D01*
X73700350Y-20102309D01*
X73700343Y-20102327D01*
X73612884Y-20358685D01*
X73612881Y-20358699D01*
X73563681Y-20625068D01*
X73563680Y-20625075D01*
X73553787Y-20895763D01*
X70218000Y-20895763D01*
X70218000Y-20555172D01*
X70217999Y-20555155D01*
X70211598Y-20495627D01*
X70211596Y-20495620D01*
X70161354Y-20360913D01*
X70161350Y-20360906D01*
X70075190Y-20245812D01*
X70075187Y-20245809D01*
X69982290Y-20176266D01*
X69940419Y-20120332D01*
X69935435Y-20050641D01*
X69968921Y-19989318D01*
X70030244Y-19955834D01*
X70056601Y-19953000D01*
X70765828Y-19953000D01*
X70765844Y-19952999D01*
X70825372Y-19946598D01*
X70825379Y-19946596D01*
X70960086Y-19896354D01*
X70960093Y-19896350D01*
X71075187Y-19810190D01*
X71075190Y-19810187D01*
X71161350Y-19695093D01*
X71161354Y-19695086D01*
X71211596Y-19560379D01*
X71211598Y-19560372D01*
X71217999Y-19500844D01*
X71218000Y-19500827D01*
X71218000Y-19053000D01*
X67068000Y-19053000D01*
X67068000Y-19800844D01*
X67074401Y-19860372D01*
X67074403Y-19860379D01*
X67124645Y-19995086D01*
X67124649Y-19995093D01*
X67210809Y-20110187D01*
X67210812Y-20110190D01*
X67294836Y-20173091D01*
X67336707Y-20229025D01*
X67341691Y-20298716D01*
X67308205Y-20360039D01*
X67294838Y-20371623D01*
X67235808Y-20415813D01*
X67235804Y-20415817D01*
X67230567Y-20422814D01*
X67174632Y-20464683D01*
X67131304Y-20472500D01*
X66898143Y-20472500D01*
X66898117Y-20472502D01*
X66863742Y-20476489D01*
X66863537Y-20474727D01*
X66822459Y-20474725D01*
X66822255Y-20476490D01*
X66812991Y-20475415D01*
X66807044Y-20474725D01*
X66787868Y-20472500D01*
X66456994Y-20472500D01*
X66389955Y-20452815D01*
X66344200Y-20400011D01*
X66334256Y-20330853D01*
X66363281Y-20267297D01*
X66413662Y-20232318D01*
X66510084Y-20196355D01*
X66510093Y-20196350D01*
X66625187Y-20110190D01*
X66625190Y-20110187D01*
X66711350Y-19995093D01*
X66711354Y-19995086D01*
X66761596Y-19860379D01*
X66761598Y-19860372D01*
X66767999Y-19800844D01*
X66768000Y-19800827D01*
X66768000Y-19053000D01*
X61818000Y-19053000D01*
X61818000Y-19500844D01*
X61824401Y-19560372D01*
X61824403Y-19560379D01*
X61874645Y-19695086D01*
X61874649Y-19695093D01*
X61960809Y-19810187D01*
X61960812Y-19810190D01*
X62075906Y-19896350D01*
X62075913Y-19896354D01*
X62210620Y-19946596D01*
X62210627Y-19946598D01*
X62270155Y-19952999D01*
X62270172Y-19953000D01*
X62979399Y-19953000D01*
X63046438Y-19972685D01*
X63092193Y-20025489D01*
X63102137Y-20094647D01*
X63073112Y-20158203D01*
X63053710Y-20176266D01*
X62960812Y-20245809D01*
X62960809Y-20245812D01*
X62874649Y-20360906D01*
X62874645Y-20360913D01*
X62824403Y-20495620D01*
X62824401Y-20495627D01*
X62818000Y-20555155D01*
X62818000Y-21128000D01*
X64156500Y-21128000D01*
X64223539Y-21147685D01*
X64269294Y-21200489D01*
X64280500Y-21252000D01*
X64280500Y-21504000D01*
X64260815Y-21571039D01*
X64208011Y-21616794D01*
X64156500Y-21628000D01*
X62818000Y-21628000D01*
X62818000Y-21835824D01*
X62798315Y-21902863D01*
X62745511Y-21948618D01*
X62676353Y-21958562D01*
X62612797Y-21929537D01*
X62606319Y-21923505D01*
X60236742Y-19553928D01*
X60203257Y-19492605D01*
X60208241Y-19422913D01*
X60210867Y-19416436D01*
X60227157Y-19379300D01*
X60284134Y-19154305D01*
X60292518Y-19053122D01*
X60303300Y-18923006D01*
X60303300Y-18922993D01*
X60284135Y-18691702D01*
X60284133Y-18691691D01*
X60249011Y-18553000D01*
X61818000Y-18553000D01*
X62893000Y-18553000D01*
X62893000Y-17653000D01*
X62270155Y-17653000D01*
X62210627Y-17659401D01*
X62210620Y-17659403D01*
X62075913Y-17709645D01*
X62075906Y-17709649D01*
X61960812Y-17795809D01*
X61960809Y-17795812D01*
X61874649Y-17910906D01*
X61874645Y-17910913D01*
X61824403Y-18045620D01*
X61824401Y-18045627D01*
X61818000Y-18105155D01*
X61818000Y-18553000D01*
X60249011Y-18553000D01*
X60227157Y-18466699D01*
X60133924Y-18254151D01*
X60006983Y-18059852D01*
X60006980Y-18059849D01*
X60006979Y-18059847D01*
X59849784Y-17889087D01*
X59849779Y-17889083D01*
X59849777Y-17889081D01*
X59666634Y-17746535D01*
X59666628Y-17746531D01*
X59462504Y-17636064D01*
X59462495Y-17636061D01*
X59242984Y-17560702D01*
X59071282Y-17532050D01*
X59014049Y-17522500D01*
X58781951Y-17522500D01*
X58736164Y-17530140D01*
X58553015Y-17560702D01*
X58333504Y-17636061D01*
X58333495Y-17636064D01*
X58129371Y-17746531D01*
X58129365Y-17746535D01*
X57946222Y-17889081D01*
X57946219Y-17889084D01*
X57789016Y-18059852D01*
X57662075Y-18254151D01*
X57568842Y-18466699D01*
X57511866Y-18691691D01*
X57511864Y-18691702D01*
X57492700Y-18922993D01*
X57492700Y-18923006D01*
X57511864Y-19154297D01*
X57511866Y-19154308D01*
X57568842Y-19379300D01*
X57662075Y-19591848D01*
X57789016Y-19786147D01*
X57789019Y-19786151D01*
X57789021Y-19786153D01*
X57946216Y-19956913D01*
X57946219Y-19956915D01*
X57946222Y-19956918D01*
X58129365Y-20099464D01*
X58129371Y-20099468D01*
X58129374Y-20099470D01*
X58271280Y-20176266D01*
X58308401Y-20196355D01*
X58333497Y-20209936D01*
X58438000Y-20245812D01*
X58553015Y-20285297D01*
X58553017Y-20285297D01*
X58553019Y-20285298D01*
X58781951Y-20323500D01*
X58781952Y-20323500D01*
X59014048Y-20323500D01*
X59014049Y-20323500D01*
X59242981Y-20285298D01*
X59400175Y-20231332D01*
X59469973Y-20228183D01*
X59528119Y-20260933D01*
X62928006Y-23660819D01*
X62961491Y-23722142D01*
X62956507Y-23791834D01*
X62914635Y-23847767D01*
X62849171Y-23872184D01*
X62840325Y-23872500D01*
X62198143Y-23872500D01*
X62198117Y-23872502D01*
X62173012Y-23875413D01*
X62173008Y-23875415D01*
X62070235Y-23920793D01*
X61990794Y-24000234D01*
X61945415Y-24103006D01*
X61945415Y-24103008D01*
X61942500Y-24128131D01*
X61942500Y-24448500D01*
X61922815Y-24515539D01*
X61870011Y-24561294D01*
X61818500Y-24572500D01*
X59239519Y-24572500D01*
X59172480Y-24552815D01*
X59151838Y-24536181D01*
X58004957Y-23389300D01*
X56829598Y-22213941D01*
X56827064Y-22211250D01*
X56785929Y-22164817D01*
X56785928Y-22164816D01*
X56785924Y-22164812D01*
X56734896Y-22129591D01*
X56731887Y-22127377D01*
X56683060Y-22089124D01*
X56683055Y-22089120D01*
X56673813Y-22084961D01*
X56654266Y-22073936D01*
X56645931Y-22068183D01*
X56645932Y-22068183D01*
X56645930Y-22068182D01*
X56587941Y-22046189D01*
X56584490Y-22044759D01*
X56527930Y-22019304D01*
X56517946Y-22017474D01*
X56496343Y-22011451D01*
X56486874Y-22007860D01*
X56486870Y-22007859D01*
X56425313Y-22000384D01*
X56421612Y-21999821D01*
X56360608Y-21988642D01*
X56360603Y-21988642D01*
X56298697Y-21992387D01*
X56294952Y-21992500D01*
X54915977Y-21992500D01*
X54848938Y-21972815D01*
X54824340Y-21952039D01*
X54721406Y-21839127D01*
X54551253Y-21710632D01*
X54360393Y-21615596D01*
X54259067Y-21586766D01*
X54199974Y-21549486D01*
X54170417Y-21486177D01*
X54179779Y-21416937D01*
X54225089Y-21363751D01*
X54291961Y-21343504D01*
X54293002Y-21343500D01*
X54586097Y-21343500D01*
X54586102Y-21343500D01*
X54674564Y-21332877D01*
X54815342Y-21277361D01*
X54935922Y-21185922D01*
X55027361Y-21065342D01*
X55082877Y-20924564D01*
X55093500Y-20836102D01*
X55093500Y-19549898D01*
X55082877Y-19461436D01*
X55027361Y-19320658D01*
X55027360Y-19320657D01*
X55027360Y-19320656D01*
X54935922Y-19200077D01*
X54815343Y-19108639D01*
X54674561Y-19053122D01*
X54628926Y-19047642D01*
X54586102Y-19042500D01*
X53049898Y-19042500D01*
X53010853Y-19047188D01*
X52961438Y-19053122D01*
X52820656Y-19108639D01*
X52700077Y-19200077D01*
X52608639Y-19320656D01*
X52553122Y-19461438D01*
X52549380Y-19492605D01*
X52542500Y-19549898D01*
X52542500Y-19549903D01*
X52542500Y-19657161D01*
X52522815Y-19724200D01*
X52470011Y-19769955D01*
X52437900Y-19779633D01*
X52426090Y-19781504D01*
X52414871Y-19783281D01*
X52393358Y-19794243D01*
X52375386Y-19801688D01*
X52352418Y-19809151D01*
X52352416Y-19809152D01*
X52332884Y-19823343D01*
X52316299Y-19833506D01*
X52294782Y-19844469D01*
X52294780Y-19844471D01*
X51024780Y-21114472D01*
X50929471Y-21209780D01*
X50918510Y-21231293D01*
X50908346Y-21247878D01*
X50894152Y-21267414D01*
X50894151Y-21267417D01*
X50886688Y-21290385D01*
X50879243Y-21308358D01*
X50868280Y-21329873D01*
X50864503Y-21353722D01*
X50859962Y-21372639D01*
X50852500Y-21395604D01*
X50852500Y-31690394D01*
X49373500Y-31690394D01*
X49373500Y-17269500D01*
X49393185Y-17202461D01*
X49445989Y-17156706D01*
X49497500Y-17145500D01*
X64246830Y-17145500D01*
X64313869Y-17165185D01*
G37*
%TD.AperFunction*%
%TD*%
M02*
