M48
; DRILL file {KiCad 7.0.9} date Monday, December 11, 2023 at 03:48:04 PM
; FORMAT={-:-/ absolute / inch / decimal}
; #@! TF.CreationDate,2023-12-11T15:48:04+01:00
; #@! TF.GenerationSoftware,Kicad,Pcbnew,7.0.9
; #@! TF.FileFunction,Plated,1,2,PTH
FMAT,2
INCH
; #@! TA.AperFunction,Plated,PTH,ComponentDrill
T1C0.0295
; #@! TA.AperFunction,Plated,PTH,ComponentDrill
T2C0.0315
; #@! TA.AperFunction,Plated,PTH,ComponentDrill
T3C0.0354
; #@! TA.AperFunction,Plated,PTH,ComponentDrill
T4C0.0374
; #@! TA.AperFunction,Plated,PTH,ComponentDrill
T5C0.0394
%
G90
G05
T1
X2.965Y-1.405
X3.015Y-1.355
X3.065Y-1.405
T2
X1.6616Y-1.775
X1.8584Y-1.775
X1.935Y-2.035
X1.935Y-2.205
X2.335Y-2.035
X2.335Y-2.205
X2.67Y-1.0516
X2.67Y-1.15
X2.705Y-1.68
X2.705Y-1.8769
X2.83Y-2.02
X2.83Y-2.32
X2.875Y-1.025
X2.875Y-1.2219
X2.8916Y-1.69
X2.93Y-2.02
X2.93Y-2.32
X2.99Y-1.69
X3.015Y-1.045
X3.03Y-2.02
X3.03Y-2.32
X3.13Y-2.02
X3.13Y-2.32
X3.14Y-1.72
X3.14Y-1.9169
X3.185Y-1.555
X3.2119Y-1.045
X3.245Y-1.38
X3.3434Y-1.38
X3.3819Y-1.555
X3.5Y-1.7166
X3.5Y-1.815
T3
X2.0058Y-1.8199
X2.1058Y-1.8199
X2.2058Y-1.8199
X2.3058Y-1.8199
X2.4058Y-1.8199
X2.5058Y-1.8199
T4
X1.73Y-2.05
X1.73Y-2.1484
X1.73Y-2.2469
T5
X2.555Y-1.995
X2.555Y-2.095
X3.1Y-1.19
X3.3Y-1.19
X3.31Y-1.875
X3.31Y-2.075
T0
M30
