%TF.GenerationSoftware,KiCad,Pcbnew,7.0.9*%
%TF.CreationDate,2023-12-11T15:48:04+01:00*%
%TF.ProjectId,MPX5100DP-THT-board,4d505835-3130-4304-9450-2d5448542d62,1.2*%
%TF.SameCoordinates,Original*%
%TF.FileFunction,Drillmap*%
%TF.FilePolarity,Positive*%
%FSLAX45Y45*%
G04 Gerber Fmt 4.5, Leading zero omitted, Abs format (unit mm)*
G04 Created by KiCad (PCBNEW 7.0.9) date 2023-12-11 15:48:04*
%MOMM*%
%LPD*%
G01*
G04 APERTURE LIST*
%ADD10C,0.100000*%
%ADD11C,0.200000*%
%ADD12C,0.320000*%
%ADD13C,0.400000*%
G04 APERTURE END LIST*
D10*
X3962400Y-2425700D02*
X9271000Y-2425700D01*
X9271000Y-6146800D01*
X3962400Y-6146800D01*
X3962400Y-2425700D01*
D11*
D12*
X4170700Y-2621300D02*
X4490700Y-2941300D01*
X4490700Y-2621300D02*
X4170700Y-2941300D01*
X8755400Y-2621300D02*
X9075400Y-2941300D01*
X9075400Y-2621300D02*
X8755400Y-2941300D01*
X8755400Y-5631200D02*
X9075400Y-5951200D01*
X9075400Y-5631200D02*
X8755400Y-5951200D01*
D13*
X4774785Y-3644900D02*
G75*
G03*
X4774785Y-3644900I-200000J0D01*
G01*
X7084785Y-3644900D02*
G75*
G03*
X7084785Y-3644900I-200000J0D01*
G01*
D11*
X4218177Y-6463284D02*
X4218177Y-6263284D01*
X4218177Y-6263284D02*
X4265796Y-6263284D01*
X4265796Y-6263284D02*
X4294367Y-6272808D01*
X4294367Y-6272808D02*
X4313415Y-6291855D01*
X4313415Y-6291855D02*
X4322939Y-6310903D01*
X4322939Y-6310903D02*
X4332463Y-6348998D01*
X4332463Y-6348998D02*
X4332463Y-6377569D01*
X4332463Y-6377569D02*
X4322939Y-6415665D01*
X4322939Y-6415665D02*
X4313415Y-6434712D01*
X4313415Y-6434712D02*
X4294367Y-6453760D01*
X4294367Y-6453760D02*
X4265796Y-6463284D01*
X4265796Y-6463284D02*
X4218177Y-6463284D01*
X4418177Y-6463284D02*
X4418177Y-6329950D01*
X4418177Y-6368046D02*
X4427701Y-6348998D01*
X4427701Y-6348998D02*
X4437224Y-6339474D01*
X4437224Y-6339474D02*
X4456272Y-6329950D01*
X4456272Y-6329950D02*
X4475320Y-6329950D01*
X4541986Y-6463284D02*
X4541986Y-6329950D01*
X4541986Y-6263284D02*
X4532463Y-6272808D01*
X4532463Y-6272808D02*
X4541986Y-6282331D01*
X4541986Y-6282331D02*
X4551510Y-6272808D01*
X4551510Y-6272808D02*
X4541986Y-6263284D01*
X4541986Y-6263284D02*
X4541986Y-6282331D01*
X4665796Y-6463284D02*
X4646748Y-6453760D01*
X4646748Y-6453760D02*
X4637224Y-6434712D01*
X4637224Y-6434712D02*
X4637224Y-6263284D01*
X4770558Y-6463284D02*
X4751510Y-6453760D01*
X4751510Y-6453760D02*
X4741986Y-6434712D01*
X4741986Y-6434712D02*
X4741986Y-6263284D01*
X4999129Y-6463284D02*
X4999129Y-6263284D01*
X4999129Y-6263284D02*
X5065796Y-6406141D01*
X5065796Y-6406141D02*
X5132463Y-6263284D01*
X5132463Y-6263284D02*
X5132463Y-6463284D01*
X5313415Y-6463284D02*
X5313415Y-6358522D01*
X5313415Y-6358522D02*
X5303891Y-6339474D01*
X5303891Y-6339474D02*
X5284844Y-6329950D01*
X5284844Y-6329950D02*
X5246748Y-6329950D01*
X5246748Y-6329950D02*
X5227701Y-6339474D01*
X5313415Y-6453760D02*
X5294367Y-6463284D01*
X5294367Y-6463284D02*
X5246748Y-6463284D01*
X5246748Y-6463284D02*
X5227701Y-6453760D01*
X5227701Y-6453760D02*
X5218177Y-6434712D01*
X5218177Y-6434712D02*
X5218177Y-6415665D01*
X5218177Y-6415665D02*
X5227701Y-6396617D01*
X5227701Y-6396617D02*
X5246748Y-6387093D01*
X5246748Y-6387093D02*
X5294367Y-6387093D01*
X5294367Y-6387093D02*
X5313415Y-6377569D01*
X5408653Y-6329950D02*
X5408653Y-6529950D01*
X5408653Y-6339474D02*
X5427701Y-6329950D01*
X5427701Y-6329950D02*
X5465796Y-6329950D01*
X5465796Y-6329950D02*
X5484844Y-6339474D01*
X5484844Y-6339474D02*
X5494367Y-6348998D01*
X5494367Y-6348998D02*
X5503891Y-6368046D01*
X5503891Y-6368046D02*
X5503891Y-6425188D01*
X5503891Y-6425188D02*
X5494367Y-6444236D01*
X5494367Y-6444236D02*
X5484844Y-6453760D01*
X5484844Y-6453760D02*
X5465796Y-6463284D01*
X5465796Y-6463284D02*
X5427701Y-6463284D01*
X5427701Y-6463284D02*
X5408653Y-6453760D01*
X5589605Y-6444236D02*
X5599129Y-6453760D01*
X5599129Y-6453760D02*
X5589605Y-6463284D01*
X5589605Y-6463284D02*
X5580082Y-6453760D01*
X5580082Y-6453760D02*
X5589605Y-6444236D01*
X5589605Y-6444236D02*
X5589605Y-6463284D01*
X5589605Y-6339474D02*
X5599129Y-6348998D01*
X5599129Y-6348998D02*
X5589605Y-6358522D01*
X5589605Y-6358522D02*
X5580082Y-6348998D01*
X5580082Y-6348998D02*
X5589605Y-6339474D01*
X5589605Y-6339474D02*
X5589605Y-6358522D01*
X3757400Y-6691800D02*
X3957400Y-6891800D01*
X3957400Y-6691800D02*
X3757400Y-6891800D01*
X4199129Y-6683284D02*
X4322939Y-6683284D01*
X4322939Y-6683284D02*
X4256272Y-6759474D01*
X4256272Y-6759474D02*
X4284844Y-6759474D01*
X4284844Y-6759474D02*
X4303891Y-6768998D01*
X4303891Y-6768998D02*
X4313415Y-6778522D01*
X4313415Y-6778522D02*
X4322939Y-6797569D01*
X4322939Y-6797569D02*
X4322939Y-6845188D01*
X4322939Y-6845188D02*
X4313415Y-6864236D01*
X4313415Y-6864236D02*
X4303891Y-6873760D01*
X4303891Y-6873760D02*
X4284844Y-6883284D01*
X4284844Y-6883284D02*
X4227701Y-6883284D01*
X4227701Y-6883284D02*
X4208653Y-6873760D01*
X4208653Y-6873760D02*
X4199129Y-6864236D01*
X4408653Y-6864236D02*
X4418177Y-6873760D01*
X4418177Y-6873760D02*
X4408653Y-6883284D01*
X4408653Y-6883284D02*
X4399129Y-6873760D01*
X4399129Y-6873760D02*
X4408653Y-6864236D01*
X4408653Y-6864236D02*
X4408653Y-6883284D01*
X4494367Y-6702331D02*
X4503891Y-6692808D01*
X4503891Y-6692808D02*
X4522939Y-6683284D01*
X4522939Y-6683284D02*
X4570558Y-6683284D01*
X4570558Y-6683284D02*
X4589605Y-6692808D01*
X4589605Y-6692808D02*
X4599129Y-6702331D01*
X4599129Y-6702331D02*
X4608653Y-6721379D01*
X4608653Y-6721379D02*
X4608653Y-6740427D01*
X4608653Y-6740427D02*
X4599129Y-6768998D01*
X4599129Y-6768998D02*
X4484844Y-6883284D01*
X4484844Y-6883284D02*
X4608653Y-6883284D01*
X4732463Y-6683284D02*
X4751510Y-6683284D01*
X4751510Y-6683284D02*
X4770558Y-6692808D01*
X4770558Y-6692808D02*
X4780082Y-6702331D01*
X4780082Y-6702331D02*
X4789605Y-6721379D01*
X4789605Y-6721379D02*
X4799129Y-6759474D01*
X4799129Y-6759474D02*
X4799129Y-6807093D01*
X4799129Y-6807093D02*
X4789605Y-6845188D01*
X4789605Y-6845188D02*
X4780082Y-6864236D01*
X4780082Y-6864236D02*
X4770558Y-6873760D01*
X4770558Y-6873760D02*
X4751510Y-6883284D01*
X4751510Y-6883284D02*
X4732463Y-6883284D01*
X4732463Y-6883284D02*
X4713415Y-6873760D01*
X4713415Y-6873760D02*
X4703891Y-6864236D01*
X4703891Y-6864236D02*
X4694367Y-6845188D01*
X4694367Y-6845188D02*
X4684844Y-6807093D01*
X4684844Y-6807093D02*
X4684844Y-6759474D01*
X4684844Y-6759474D02*
X4694367Y-6721379D01*
X4694367Y-6721379D02*
X4703891Y-6702331D01*
X4703891Y-6702331D02*
X4713415Y-6692808D01*
X4713415Y-6692808D02*
X4732463Y-6683284D01*
X4922939Y-6683284D02*
X4941986Y-6683284D01*
X4941986Y-6683284D02*
X4961034Y-6692808D01*
X4961034Y-6692808D02*
X4970558Y-6702331D01*
X4970558Y-6702331D02*
X4980082Y-6721379D01*
X4980082Y-6721379D02*
X4989605Y-6759474D01*
X4989605Y-6759474D02*
X4989605Y-6807093D01*
X4989605Y-6807093D02*
X4980082Y-6845188D01*
X4980082Y-6845188D02*
X4970558Y-6864236D01*
X4970558Y-6864236D02*
X4961034Y-6873760D01*
X4961034Y-6873760D02*
X4941986Y-6883284D01*
X4941986Y-6883284D02*
X4922939Y-6883284D01*
X4922939Y-6883284D02*
X4903891Y-6873760D01*
X4903891Y-6873760D02*
X4894367Y-6864236D01*
X4894367Y-6864236D02*
X4884844Y-6845188D01*
X4884844Y-6845188D02*
X4875320Y-6807093D01*
X4875320Y-6807093D02*
X4875320Y-6759474D01*
X4875320Y-6759474D02*
X4884844Y-6721379D01*
X4884844Y-6721379D02*
X4894367Y-6702331D01*
X4894367Y-6702331D02*
X4903891Y-6692808D01*
X4903891Y-6692808D02*
X4922939Y-6683284D01*
X5075320Y-6883284D02*
X5075320Y-6749950D01*
X5075320Y-6768998D02*
X5084844Y-6759474D01*
X5084844Y-6759474D02*
X5103891Y-6749950D01*
X5103891Y-6749950D02*
X5132463Y-6749950D01*
X5132463Y-6749950D02*
X5151510Y-6759474D01*
X5151510Y-6759474D02*
X5161034Y-6778522D01*
X5161034Y-6778522D02*
X5161034Y-6883284D01*
X5161034Y-6778522D02*
X5170558Y-6759474D01*
X5170558Y-6759474D02*
X5189605Y-6749950D01*
X5189605Y-6749950D02*
X5218177Y-6749950D01*
X5218177Y-6749950D02*
X5237225Y-6759474D01*
X5237225Y-6759474D02*
X5246748Y-6778522D01*
X5246748Y-6778522D02*
X5246748Y-6883284D01*
X5341986Y-6883284D02*
X5341986Y-6749950D01*
X5341986Y-6768998D02*
X5351510Y-6759474D01*
X5351510Y-6759474D02*
X5370558Y-6749950D01*
X5370558Y-6749950D02*
X5399129Y-6749950D01*
X5399129Y-6749950D02*
X5418177Y-6759474D01*
X5418177Y-6759474D02*
X5427701Y-6778522D01*
X5427701Y-6778522D02*
X5427701Y-6883284D01*
X5427701Y-6778522D02*
X5437225Y-6759474D01*
X5437225Y-6759474D02*
X5456272Y-6749950D01*
X5456272Y-6749950D02*
X5484844Y-6749950D01*
X5484844Y-6749950D02*
X5503891Y-6759474D01*
X5503891Y-6759474D02*
X5513415Y-6778522D01*
X5513415Y-6778522D02*
X5513415Y-6883284D01*
X5903891Y-6673760D02*
X5732463Y-6930903D01*
X6161034Y-6683284D02*
X6180082Y-6683284D01*
X6180082Y-6683284D02*
X6199129Y-6692808D01*
X6199129Y-6692808D02*
X6208653Y-6702331D01*
X6208653Y-6702331D02*
X6218177Y-6721379D01*
X6218177Y-6721379D02*
X6227701Y-6759474D01*
X6227701Y-6759474D02*
X6227701Y-6807093D01*
X6227701Y-6807093D02*
X6218177Y-6845188D01*
X6218177Y-6845188D02*
X6208653Y-6864236D01*
X6208653Y-6864236D02*
X6199129Y-6873760D01*
X6199129Y-6873760D02*
X6180082Y-6883284D01*
X6180082Y-6883284D02*
X6161034Y-6883284D01*
X6161034Y-6883284D02*
X6141986Y-6873760D01*
X6141986Y-6873760D02*
X6132463Y-6864236D01*
X6132463Y-6864236D02*
X6122939Y-6845188D01*
X6122939Y-6845188D02*
X6113415Y-6807093D01*
X6113415Y-6807093D02*
X6113415Y-6759474D01*
X6113415Y-6759474D02*
X6122939Y-6721379D01*
X6122939Y-6721379D02*
X6132463Y-6702331D01*
X6132463Y-6702331D02*
X6141986Y-6692808D01*
X6141986Y-6692808D02*
X6161034Y-6683284D01*
X6313415Y-6864236D02*
X6322939Y-6873760D01*
X6322939Y-6873760D02*
X6313415Y-6883284D01*
X6313415Y-6883284D02*
X6303891Y-6873760D01*
X6303891Y-6873760D02*
X6313415Y-6864236D01*
X6313415Y-6864236D02*
X6313415Y-6883284D01*
X6513415Y-6883284D02*
X6399129Y-6883284D01*
X6456272Y-6883284D02*
X6456272Y-6683284D01*
X6456272Y-6683284D02*
X6437225Y-6711855D01*
X6437225Y-6711855D02*
X6418177Y-6730903D01*
X6418177Y-6730903D02*
X6399129Y-6740427D01*
X6589606Y-6702331D02*
X6599129Y-6692808D01*
X6599129Y-6692808D02*
X6618177Y-6683284D01*
X6618177Y-6683284D02*
X6665796Y-6683284D01*
X6665796Y-6683284D02*
X6684844Y-6692808D01*
X6684844Y-6692808D02*
X6694367Y-6702331D01*
X6694367Y-6702331D02*
X6703891Y-6721379D01*
X6703891Y-6721379D02*
X6703891Y-6740427D01*
X6703891Y-6740427D02*
X6694367Y-6768998D01*
X6694367Y-6768998D02*
X6580082Y-6883284D01*
X6580082Y-6883284D02*
X6703891Y-6883284D01*
X6875320Y-6683284D02*
X6837225Y-6683284D01*
X6837225Y-6683284D02*
X6818177Y-6692808D01*
X6818177Y-6692808D02*
X6808653Y-6702331D01*
X6808653Y-6702331D02*
X6789606Y-6730903D01*
X6789606Y-6730903D02*
X6780082Y-6768998D01*
X6780082Y-6768998D02*
X6780082Y-6845188D01*
X6780082Y-6845188D02*
X6789606Y-6864236D01*
X6789606Y-6864236D02*
X6799129Y-6873760D01*
X6799129Y-6873760D02*
X6818177Y-6883284D01*
X6818177Y-6883284D02*
X6856272Y-6883284D01*
X6856272Y-6883284D02*
X6875320Y-6873760D01*
X6875320Y-6873760D02*
X6884844Y-6864236D01*
X6884844Y-6864236D02*
X6894367Y-6845188D01*
X6894367Y-6845188D02*
X6894367Y-6797569D01*
X6894367Y-6797569D02*
X6884844Y-6778522D01*
X6884844Y-6778522D02*
X6875320Y-6768998D01*
X6875320Y-6768998D02*
X6856272Y-6759474D01*
X6856272Y-6759474D02*
X6818177Y-6759474D01*
X6818177Y-6759474D02*
X6799129Y-6768998D01*
X6799129Y-6768998D02*
X6789606Y-6778522D01*
X6789606Y-6778522D02*
X6780082Y-6797569D01*
X7018177Y-6683284D02*
X7037225Y-6683284D01*
X7037225Y-6683284D02*
X7056272Y-6692808D01*
X7056272Y-6692808D02*
X7065796Y-6702331D01*
X7065796Y-6702331D02*
X7075320Y-6721379D01*
X7075320Y-6721379D02*
X7084844Y-6759474D01*
X7084844Y-6759474D02*
X7084844Y-6807093D01*
X7084844Y-6807093D02*
X7075320Y-6845188D01*
X7075320Y-6845188D02*
X7065796Y-6864236D01*
X7065796Y-6864236D02*
X7056272Y-6873760D01*
X7056272Y-6873760D02*
X7037225Y-6883284D01*
X7037225Y-6883284D02*
X7018177Y-6883284D01*
X7018177Y-6883284D02*
X6999129Y-6873760D01*
X6999129Y-6873760D02*
X6989606Y-6864236D01*
X6989606Y-6864236D02*
X6980082Y-6845188D01*
X6980082Y-6845188D02*
X6970558Y-6807093D01*
X6970558Y-6807093D02*
X6970558Y-6759474D01*
X6970558Y-6759474D02*
X6980082Y-6721379D01*
X6980082Y-6721379D02*
X6989606Y-6702331D01*
X6989606Y-6702331D02*
X6999129Y-6692808D01*
X6999129Y-6692808D02*
X7018177Y-6683284D01*
X7161034Y-6683284D02*
X7161034Y-6721379D01*
X7237225Y-6683284D02*
X7237225Y-6721379D01*
X7532463Y-6959474D02*
X7522939Y-6949950D01*
X7522939Y-6949950D02*
X7503891Y-6921379D01*
X7503891Y-6921379D02*
X7494368Y-6902331D01*
X7494368Y-6902331D02*
X7484844Y-6873760D01*
X7484844Y-6873760D02*
X7475320Y-6826141D01*
X7475320Y-6826141D02*
X7475320Y-6788046D01*
X7475320Y-6788046D02*
X7484844Y-6740427D01*
X7484844Y-6740427D02*
X7494368Y-6711855D01*
X7494368Y-6711855D02*
X7503891Y-6692808D01*
X7503891Y-6692808D02*
X7522939Y-6664236D01*
X7522939Y-6664236D02*
X7532463Y-6654712D01*
X7589606Y-6683284D02*
X7713415Y-6683284D01*
X7713415Y-6683284D02*
X7646748Y-6759474D01*
X7646748Y-6759474D02*
X7675320Y-6759474D01*
X7675320Y-6759474D02*
X7694368Y-6768998D01*
X7694368Y-6768998D02*
X7703891Y-6778522D01*
X7703891Y-6778522D02*
X7713415Y-6797569D01*
X7713415Y-6797569D02*
X7713415Y-6845188D01*
X7713415Y-6845188D02*
X7703891Y-6864236D01*
X7703891Y-6864236D02*
X7694368Y-6873760D01*
X7694368Y-6873760D02*
X7675320Y-6883284D01*
X7675320Y-6883284D02*
X7618177Y-6883284D01*
X7618177Y-6883284D02*
X7599129Y-6873760D01*
X7599129Y-6873760D02*
X7589606Y-6864236D01*
X7951510Y-6883284D02*
X7951510Y-6683284D01*
X8037225Y-6883284D02*
X8037225Y-6778522D01*
X8037225Y-6778522D02*
X8027701Y-6759474D01*
X8027701Y-6759474D02*
X8008653Y-6749950D01*
X8008653Y-6749950D02*
X7980082Y-6749950D01*
X7980082Y-6749950D02*
X7961034Y-6759474D01*
X7961034Y-6759474D02*
X7951510Y-6768998D01*
X8161034Y-6883284D02*
X8141987Y-6873760D01*
X8141987Y-6873760D02*
X8132463Y-6864236D01*
X8132463Y-6864236D02*
X8122939Y-6845188D01*
X8122939Y-6845188D02*
X8122939Y-6788046D01*
X8122939Y-6788046D02*
X8132463Y-6768998D01*
X8132463Y-6768998D02*
X8141987Y-6759474D01*
X8141987Y-6759474D02*
X8161034Y-6749950D01*
X8161034Y-6749950D02*
X8189606Y-6749950D01*
X8189606Y-6749950D02*
X8208653Y-6759474D01*
X8208653Y-6759474D02*
X8218177Y-6768998D01*
X8218177Y-6768998D02*
X8227701Y-6788046D01*
X8227701Y-6788046D02*
X8227701Y-6845188D01*
X8227701Y-6845188D02*
X8218177Y-6864236D01*
X8218177Y-6864236D02*
X8208653Y-6873760D01*
X8208653Y-6873760D02*
X8189606Y-6883284D01*
X8189606Y-6883284D02*
X8161034Y-6883284D01*
X8341987Y-6883284D02*
X8322939Y-6873760D01*
X8322939Y-6873760D02*
X8313415Y-6854712D01*
X8313415Y-6854712D02*
X8313415Y-6683284D01*
X8494368Y-6873760D02*
X8475320Y-6883284D01*
X8475320Y-6883284D02*
X8437225Y-6883284D01*
X8437225Y-6883284D02*
X8418177Y-6873760D01*
X8418177Y-6873760D02*
X8408653Y-6854712D01*
X8408653Y-6854712D02*
X8408653Y-6778522D01*
X8408653Y-6778522D02*
X8418177Y-6759474D01*
X8418177Y-6759474D02*
X8437225Y-6749950D01*
X8437225Y-6749950D02*
X8475320Y-6749950D01*
X8475320Y-6749950D02*
X8494368Y-6759474D01*
X8494368Y-6759474D02*
X8503892Y-6778522D01*
X8503892Y-6778522D02*
X8503892Y-6797569D01*
X8503892Y-6797569D02*
X8408653Y-6816617D01*
X8580082Y-6873760D02*
X8599130Y-6883284D01*
X8599130Y-6883284D02*
X8637225Y-6883284D01*
X8637225Y-6883284D02*
X8656273Y-6873760D01*
X8656273Y-6873760D02*
X8665796Y-6854712D01*
X8665796Y-6854712D02*
X8665796Y-6845188D01*
X8665796Y-6845188D02*
X8656273Y-6826141D01*
X8656273Y-6826141D02*
X8637225Y-6816617D01*
X8637225Y-6816617D02*
X8608653Y-6816617D01*
X8608653Y-6816617D02*
X8589606Y-6807093D01*
X8589606Y-6807093D02*
X8580082Y-6788046D01*
X8580082Y-6788046D02*
X8580082Y-6778522D01*
X8580082Y-6778522D02*
X8589606Y-6759474D01*
X8589606Y-6759474D02*
X8608653Y-6749950D01*
X8608653Y-6749950D02*
X8637225Y-6749950D01*
X8637225Y-6749950D02*
X8656273Y-6759474D01*
X8732463Y-6959474D02*
X8741987Y-6949950D01*
X8741987Y-6949950D02*
X8761034Y-6921379D01*
X8761034Y-6921379D02*
X8770558Y-6902331D01*
X8770558Y-6902331D02*
X8780082Y-6873760D01*
X8780082Y-6873760D02*
X8789606Y-6826141D01*
X8789606Y-6826141D02*
X8789606Y-6788046D01*
X8789606Y-6788046D02*
X8780082Y-6740427D01*
X8780082Y-6740427D02*
X8770558Y-6711855D01*
X8770558Y-6711855D02*
X8761034Y-6692808D01*
X8761034Y-6692808D02*
X8741987Y-6664236D01*
X8741987Y-6664236D02*
X8732463Y-6654712D01*
X9094368Y-6959474D02*
X9084844Y-6949950D01*
X9084844Y-6949950D02*
X9065796Y-6921379D01*
X9065796Y-6921379D02*
X9056273Y-6902331D01*
X9056273Y-6902331D02*
X9046749Y-6873760D01*
X9046749Y-6873760D02*
X9037225Y-6826141D01*
X9037225Y-6826141D02*
X9037225Y-6788046D01*
X9037225Y-6788046D02*
X9046749Y-6740427D01*
X9046749Y-6740427D02*
X9056273Y-6711855D01*
X9056273Y-6711855D02*
X9065796Y-6692808D01*
X9065796Y-6692808D02*
X9084844Y-6664236D01*
X9084844Y-6664236D02*
X9094368Y-6654712D01*
X9170558Y-6749950D02*
X9170558Y-6883284D01*
X9170558Y-6768998D02*
X9180082Y-6759474D01*
X9180082Y-6759474D02*
X9199130Y-6749950D01*
X9199130Y-6749950D02*
X9227701Y-6749950D01*
X9227701Y-6749950D02*
X9246749Y-6759474D01*
X9246749Y-6759474D02*
X9256273Y-6778522D01*
X9256273Y-6778522D02*
X9256273Y-6883284D01*
X9380082Y-6883284D02*
X9361034Y-6873760D01*
X9361034Y-6873760D02*
X9351511Y-6864236D01*
X9351511Y-6864236D02*
X9341987Y-6845188D01*
X9341987Y-6845188D02*
X9341987Y-6788046D01*
X9341987Y-6788046D02*
X9351511Y-6768998D01*
X9351511Y-6768998D02*
X9361034Y-6759474D01*
X9361034Y-6759474D02*
X9380082Y-6749950D01*
X9380082Y-6749950D02*
X9408654Y-6749950D01*
X9408654Y-6749950D02*
X9427701Y-6759474D01*
X9427701Y-6759474D02*
X9437225Y-6768998D01*
X9437225Y-6768998D02*
X9446749Y-6788046D01*
X9446749Y-6788046D02*
X9446749Y-6845188D01*
X9446749Y-6845188D02*
X9437225Y-6864236D01*
X9437225Y-6864236D02*
X9427701Y-6873760D01*
X9427701Y-6873760D02*
X9408654Y-6883284D01*
X9408654Y-6883284D02*
X9380082Y-6883284D01*
X9503892Y-6749950D02*
X9580082Y-6749950D01*
X9532463Y-6683284D02*
X9532463Y-6854712D01*
X9532463Y-6854712D02*
X9541987Y-6873760D01*
X9541987Y-6873760D02*
X9561034Y-6883284D01*
X9561034Y-6883284D02*
X9580082Y-6883284D01*
X9799130Y-6749950D02*
X9799130Y-6949950D01*
X9799130Y-6759474D02*
X9818177Y-6749950D01*
X9818177Y-6749950D02*
X9856273Y-6749950D01*
X9856273Y-6749950D02*
X9875320Y-6759474D01*
X9875320Y-6759474D02*
X9884844Y-6768998D01*
X9884844Y-6768998D02*
X9894368Y-6788046D01*
X9894368Y-6788046D02*
X9894368Y-6845188D01*
X9894368Y-6845188D02*
X9884844Y-6864236D01*
X9884844Y-6864236D02*
X9875320Y-6873760D01*
X9875320Y-6873760D02*
X9856273Y-6883284D01*
X9856273Y-6883284D02*
X9818177Y-6883284D01*
X9818177Y-6883284D02*
X9799130Y-6873760D01*
X10008654Y-6883284D02*
X9989606Y-6873760D01*
X9989606Y-6873760D02*
X9980082Y-6854712D01*
X9980082Y-6854712D02*
X9980082Y-6683284D01*
X10170558Y-6883284D02*
X10170558Y-6778522D01*
X10170558Y-6778522D02*
X10161035Y-6759474D01*
X10161035Y-6759474D02*
X10141987Y-6749950D01*
X10141987Y-6749950D02*
X10103892Y-6749950D01*
X10103892Y-6749950D02*
X10084844Y-6759474D01*
X10170558Y-6873760D02*
X10151511Y-6883284D01*
X10151511Y-6883284D02*
X10103892Y-6883284D01*
X10103892Y-6883284D02*
X10084844Y-6873760D01*
X10084844Y-6873760D02*
X10075320Y-6854712D01*
X10075320Y-6854712D02*
X10075320Y-6835665D01*
X10075320Y-6835665D02*
X10084844Y-6816617D01*
X10084844Y-6816617D02*
X10103892Y-6807093D01*
X10103892Y-6807093D02*
X10151511Y-6807093D01*
X10151511Y-6807093D02*
X10170558Y-6797569D01*
X10237225Y-6749950D02*
X10313415Y-6749950D01*
X10265796Y-6683284D02*
X10265796Y-6854712D01*
X10265796Y-6854712D02*
X10275320Y-6873760D01*
X10275320Y-6873760D02*
X10294368Y-6883284D01*
X10294368Y-6883284D02*
X10313415Y-6883284D01*
X10456273Y-6873760D02*
X10437225Y-6883284D01*
X10437225Y-6883284D02*
X10399130Y-6883284D01*
X10399130Y-6883284D02*
X10380082Y-6873760D01*
X10380082Y-6873760D02*
X10370558Y-6854712D01*
X10370558Y-6854712D02*
X10370558Y-6778522D01*
X10370558Y-6778522D02*
X10380082Y-6759474D01*
X10380082Y-6759474D02*
X10399130Y-6749950D01*
X10399130Y-6749950D02*
X10437225Y-6749950D01*
X10437225Y-6749950D02*
X10456273Y-6759474D01*
X10456273Y-6759474D02*
X10465796Y-6778522D01*
X10465796Y-6778522D02*
X10465796Y-6797569D01*
X10465796Y-6797569D02*
X10370558Y-6816617D01*
X10637225Y-6883284D02*
X10637225Y-6683284D01*
X10637225Y-6873760D02*
X10618177Y-6883284D01*
X10618177Y-6883284D02*
X10580082Y-6883284D01*
X10580082Y-6883284D02*
X10561035Y-6873760D01*
X10561035Y-6873760D02*
X10551511Y-6864236D01*
X10551511Y-6864236D02*
X10541987Y-6845188D01*
X10541987Y-6845188D02*
X10541987Y-6788046D01*
X10541987Y-6788046D02*
X10551511Y-6768998D01*
X10551511Y-6768998D02*
X10561035Y-6759474D01*
X10561035Y-6759474D02*
X10580082Y-6749950D01*
X10580082Y-6749950D02*
X10618177Y-6749950D01*
X10618177Y-6749950D02*
X10637225Y-6759474D01*
X10713416Y-6959474D02*
X10722939Y-6949950D01*
X10722939Y-6949950D02*
X10741987Y-6921379D01*
X10741987Y-6921379D02*
X10751511Y-6902331D01*
X10751511Y-6902331D02*
X10761035Y-6873760D01*
X10761035Y-6873760D02*
X10770558Y-6826141D01*
X10770558Y-6826141D02*
X10770558Y-6788046D01*
X10770558Y-6788046D02*
X10761035Y-6740427D01*
X10761035Y-6740427D02*
X10751511Y-6711855D01*
X10751511Y-6711855D02*
X10741987Y-6692808D01*
X10741987Y-6692808D02*
X10722939Y-6664236D01*
X10722939Y-6664236D02*
X10713416Y-6654712D01*
X3957400Y-7111800D02*
G75*
G03*
X3957400Y-7111800I-100000J0D01*
G01*
X4303891Y-7069950D02*
X4303891Y-7203284D01*
X4256272Y-6993760D02*
X4208653Y-7136617D01*
X4208653Y-7136617D02*
X4332463Y-7136617D01*
X4408653Y-7184236D02*
X4418177Y-7193760D01*
X4418177Y-7193760D02*
X4408653Y-7203284D01*
X4408653Y-7203284D02*
X4399129Y-7193760D01*
X4399129Y-7193760D02*
X4408653Y-7184236D01*
X4408653Y-7184236D02*
X4408653Y-7203284D01*
X4541986Y-7003284D02*
X4561034Y-7003284D01*
X4561034Y-7003284D02*
X4580082Y-7012808D01*
X4580082Y-7012808D02*
X4589605Y-7022331D01*
X4589605Y-7022331D02*
X4599129Y-7041379D01*
X4599129Y-7041379D02*
X4608653Y-7079474D01*
X4608653Y-7079474D02*
X4608653Y-7127093D01*
X4608653Y-7127093D02*
X4599129Y-7165188D01*
X4599129Y-7165188D02*
X4589605Y-7184236D01*
X4589605Y-7184236D02*
X4580082Y-7193760D01*
X4580082Y-7193760D02*
X4561034Y-7203284D01*
X4561034Y-7203284D02*
X4541986Y-7203284D01*
X4541986Y-7203284D02*
X4522939Y-7193760D01*
X4522939Y-7193760D02*
X4513415Y-7184236D01*
X4513415Y-7184236D02*
X4503891Y-7165188D01*
X4503891Y-7165188D02*
X4494367Y-7127093D01*
X4494367Y-7127093D02*
X4494367Y-7079474D01*
X4494367Y-7079474D02*
X4503891Y-7041379D01*
X4503891Y-7041379D02*
X4513415Y-7022331D01*
X4513415Y-7022331D02*
X4522939Y-7012808D01*
X4522939Y-7012808D02*
X4541986Y-7003284D01*
X4732463Y-7003284D02*
X4751510Y-7003284D01*
X4751510Y-7003284D02*
X4770558Y-7012808D01*
X4770558Y-7012808D02*
X4780082Y-7022331D01*
X4780082Y-7022331D02*
X4789605Y-7041379D01*
X4789605Y-7041379D02*
X4799129Y-7079474D01*
X4799129Y-7079474D02*
X4799129Y-7127093D01*
X4799129Y-7127093D02*
X4789605Y-7165188D01*
X4789605Y-7165188D02*
X4780082Y-7184236D01*
X4780082Y-7184236D02*
X4770558Y-7193760D01*
X4770558Y-7193760D02*
X4751510Y-7203284D01*
X4751510Y-7203284D02*
X4732463Y-7203284D01*
X4732463Y-7203284D02*
X4713415Y-7193760D01*
X4713415Y-7193760D02*
X4703891Y-7184236D01*
X4703891Y-7184236D02*
X4694367Y-7165188D01*
X4694367Y-7165188D02*
X4684844Y-7127093D01*
X4684844Y-7127093D02*
X4684844Y-7079474D01*
X4684844Y-7079474D02*
X4694367Y-7041379D01*
X4694367Y-7041379D02*
X4703891Y-7022331D01*
X4703891Y-7022331D02*
X4713415Y-7012808D01*
X4713415Y-7012808D02*
X4732463Y-7003284D01*
X4922939Y-7003284D02*
X4941986Y-7003284D01*
X4941986Y-7003284D02*
X4961034Y-7012808D01*
X4961034Y-7012808D02*
X4970558Y-7022331D01*
X4970558Y-7022331D02*
X4980082Y-7041379D01*
X4980082Y-7041379D02*
X4989605Y-7079474D01*
X4989605Y-7079474D02*
X4989605Y-7127093D01*
X4989605Y-7127093D02*
X4980082Y-7165188D01*
X4980082Y-7165188D02*
X4970558Y-7184236D01*
X4970558Y-7184236D02*
X4961034Y-7193760D01*
X4961034Y-7193760D02*
X4941986Y-7203284D01*
X4941986Y-7203284D02*
X4922939Y-7203284D01*
X4922939Y-7203284D02*
X4903891Y-7193760D01*
X4903891Y-7193760D02*
X4894367Y-7184236D01*
X4894367Y-7184236D02*
X4884844Y-7165188D01*
X4884844Y-7165188D02*
X4875320Y-7127093D01*
X4875320Y-7127093D02*
X4875320Y-7079474D01*
X4875320Y-7079474D02*
X4884844Y-7041379D01*
X4884844Y-7041379D02*
X4894367Y-7022331D01*
X4894367Y-7022331D02*
X4903891Y-7012808D01*
X4903891Y-7012808D02*
X4922939Y-7003284D01*
X5075320Y-7203284D02*
X5075320Y-7069950D01*
X5075320Y-7088998D02*
X5084844Y-7079474D01*
X5084844Y-7079474D02*
X5103891Y-7069950D01*
X5103891Y-7069950D02*
X5132463Y-7069950D01*
X5132463Y-7069950D02*
X5151510Y-7079474D01*
X5151510Y-7079474D02*
X5161034Y-7098522D01*
X5161034Y-7098522D02*
X5161034Y-7203284D01*
X5161034Y-7098522D02*
X5170558Y-7079474D01*
X5170558Y-7079474D02*
X5189605Y-7069950D01*
X5189605Y-7069950D02*
X5218177Y-7069950D01*
X5218177Y-7069950D02*
X5237225Y-7079474D01*
X5237225Y-7079474D02*
X5246748Y-7098522D01*
X5246748Y-7098522D02*
X5246748Y-7203284D01*
X5341986Y-7203284D02*
X5341986Y-7069950D01*
X5341986Y-7088998D02*
X5351510Y-7079474D01*
X5351510Y-7079474D02*
X5370558Y-7069950D01*
X5370558Y-7069950D02*
X5399129Y-7069950D01*
X5399129Y-7069950D02*
X5418177Y-7079474D01*
X5418177Y-7079474D02*
X5427701Y-7098522D01*
X5427701Y-7098522D02*
X5427701Y-7203284D01*
X5427701Y-7098522D02*
X5437225Y-7079474D01*
X5437225Y-7079474D02*
X5456272Y-7069950D01*
X5456272Y-7069950D02*
X5484844Y-7069950D01*
X5484844Y-7069950D02*
X5503891Y-7079474D01*
X5503891Y-7079474D02*
X5513415Y-7098522D01*
X5513415Y-7098522D02*
X5513415Y-7203284D01*
X5903891Y-6993760D02*
X5732463Y-7250903D01*
X6161034Y-7003284D02*
X6180082Y-7003284D01*
X6180082Y-7003284D02*
X6199129Y-7012808D01*
X6199129Y-7012808D02*
X6208653Y-7022331D01*
X6208653Y-7022331D02*
X6218177Y-7041379D01*
X6218177Y-7041379D02*
X6227701Y-7079474D01*
X6227701Y-7079474D02*
X6227701Y-7127093D01*
X6227701Y-7127093D02*
X6218177Y-7165188D01*
X6218177Y-7165188D02*
X6208653Y-7184236D01*
X6208653Y-7184236D02*
X6199129Y-7193760D01*
X6199129Y-7193760D02*
X6180082Y-7203284D01*
X6180082Y-7203284D02*
X6161034Y-7203284D01*
X6161034Y-7203284D02*
X6141986Y-7193760D01*
X6141986Y-7193760D02*
X6132463Y-7184236D01*
X6132463Y-7184236D02*
X6122939Y-7165188D01*
X6122939Y-7165188D02*
X6113415Y-7127093D01*
X6113415Y-7127093D02*
X6113415Y-7079474D01*
X6113415Y-7079474D02*
X6122939Y-7041379D01*
X6122939Y-7041379D02*
X6132463Y-7022331D01*
X6132463Y-7022331D02*
X6141986Y-7012808D01*
X6141986Y-7012808D02*
X6161034Y-7003284D01*
X6313415Y-7184236D02*
X6322939Y-7193760D01*
X6322939Y-7193760D02*
X6313415Y-7203284D01*
X6313415Y-7203284D02*
X6303891Y-7193760D01*
X6303891Y-7193760D02*
X6313415Y-7184236D01*
X6313415Y-7184236D02*
X6313415Y-7203284D01*
X6513415Y-7203284D02*
X6399129Y-7203284D01*
X6456272Y-7203284D02*
X6456272Y-7003284D01*
X6456272Y-7003284D02*
X6437225Y-7031855D01*
X6437225Y-7031855D02*
X6418177Y-7050903D01*
X6418177Y-7050903D02*
X6399129Y-7060427D01*
X6694367Y-7003284D02*
X6599129Y-7003284D01*
X6599129Y-7003284D02*
X6589606Y-7098522D01*
X6589606Y-7098522D02*
X6599129Y-7088998D01*
X6599129Y-7088998D02*
X6618177Y-7079474D01*
X6618177Y-7079474D02*
X6665796Y-7079474D01*
X6665796Y-7079474D02*
X6684844Y-7088998D01*
X6684844Y-7088998D02*
X6694367Y-7098522D01*
X6694367Y-7098522D02*
X6703891Y-7117569D01*
X6703891Y-7117569D02*
X6703891Y-7165188D01*
X6703891Y-7165188D02*
X6694367Y-7184236D01*
X6694367Y-7184236D02*
X6684844Y-7193760D01*
X6684844Y-7193760D02*
X6665796Y-7203284D01*
X6665796Y-7203284D02*
X6618177Y-7203284D01*
X6618177Y-7203284D02*
X6599129Y-7193760D01*
X6599129Y-7193760D02*
X6589606Y-7184236D01*
X6770558Y-7003284D02*
X6903891Y-7003284D01*
X6903891Y-7003284D02*
X6818177Y-7203284D01*
X7075320Y-7003284D02*
X6980082Y-7003284D01*
X6980082Y-7003284D02*
X6970558Y-7098522D01*
X6970558Y-7098522D02*
X6980082Y-7088998D01*
X6980082Y-7088998D02*
X6999129Y-7079474D01*
X6999129Y-7079474D02*
X7046748Y-7079474D01*
X7046748Y-7079474D02*
X7065796Y-7088998D01*
X7065796Y-7088998D02*
X7075320Y-7098522D01*
X7075320Y-7098522D02*
X7084844Y-7117569D01*
X7084844Y-7117569D02*
X7084844Y-7165188D01*
X7084844Y-7165188D02*
X7075320Y-7184236D01*
X7075320Y-7184236D02*
X7065796Y-7193760D01*
X7065796Y-7193760D02*
X7046748Y-7203284D01*
X7046748Y-7203284D02*
X6999129Y-7203284D01*
X6999129Y-7203284D02*
X6980082Y-7193760D01*
X6980082Y-7193760D02*
X6970558Y-7184236D01*
X7161034Y-7003284D02*
X7161034Y-7041379D01*
X7237225Y-7003284D02*
X7237225Y-7041379D01*
X7532463Y-7279474D02*
X7522939Y-7269950D01*
X7522939Y-7269950D02*
X7503891Y-7241379D01*
X7503891Y-7241379D02*
X7494368Y-7222331D01*
X7494368Y-7222331D02*
X7484844Y-7193760D01*
X7484844Y-7193760D02*
X7475320Y-7146141D01*
X7475320Y-7146141D02*
X7475320Y-7108046D01*
X7475320Y-7108046D02*
X7484844Y-7060427D01*
X7484844Y-7060427D02*
X7494368Y-7031855D01*
X7494368Y-7031855D02*
X7503891Y-7012808D01*
X7503891Y-7012808D02*
X7522939Y-6984236D01*
X7522939Y-6984236D02*
X7532463Y-6974712D01*
X7599129Y-7022331D02*
X7608653Y-7012808D01*
X7608653Y-7012808D02*
X7627701Y-7003284D01*
X7627701Y-7003284D02*
X7675320Y-7003284D01*
X7675320Y-7003284D02*
X7694368Y-7012808D01*
X7694368Y-7012808D02*
X7703891Y-7022331D01*
X7703891Y-7022331D02*
X7713415Y-7041379D01*
X7713415Y-7041379D02*
X7713415Y-7060427D01*
X7713415Y-7060427D02*
X7703891Y-7088998D01*
X7703891Y-7088998D02*
X7589606Y-7203284D01*
X7589606Y-7203284D02*
X7713415Y-7203284D01*
X7951510Y-7203284D02*
X7951510Y-7003284D01*
X8037225Y-7203284D02*
X8037225Y-7098522D01*
X8037225Y-7098522D02*
X8027701Y-7079474D01*
X8027701Y-7079474D02*
X8008653Y-7069950D01*
X8008653Y-7069950D02*
X7980082Y-7069950D01*
X7980082Y-7069950D02*
X7961034Y-7079474D01*
X7961034Y-7079474D02*
X7951510Y-7088998D01*
X8161034Y-7203284D02*
X8141987Y-7193760D01*
X8141987Y-7193760D02*
X8132463Y-7184236D01*
X8132463Y-7184236D02*
X8122939Y-7165188D01*
X8122939Y-7165188D02*
X8122939Y-7108046D01*
X8122939Y-7108046D02*
X8132463Y-7088998D01*
X8132463Y-7088998D02*
X8141987Y-7079474D01*
X8141987Y-7079474D02*
X8161034Y-7069950D01*
X8161034Y-7069950D02*
X8189606Y-7069950D01*
X8189606Y-7069950D02*
X8208653Y-7079474D01*
X8208653Y-7079474D02*
X8218177Y-7088998D01*
X8218177Y-7088998D02*
X8227701Y-7108046D01*
X8227701Y-7108046D02*
X8227701Y-7165188D01*
X8227701Y-7165188D02*
X8218177Y-7184236D01*
X8218177Y-7184236D02*
X8208653Y-7193760D01*
X8208653Y-7193760D02*
X8189606Y-7203284D01*
X8189606Y-7203284D02*
X8161034Y-7203284D01*
X8341987Y-7203284D02*
X8322939Y-7193760D01*
X8322939Y-7193760D02*
X8313415Y-7174712D01*
X8313415Y-7174712D02*
X8313415Y-7003284D01*
X8494368Y-7193760D02*
X8475320Y-7203284D01*
X8475320Y-7203284D02*
X8437225Y-7203284D01*
X8437225Y-7203284D02*
X8418177Y-7193760D01*
X8418177Y-7193760D02*
X8408653Y-7174712D01*
X8408653Y-7174712D02*
X8408653Y-7098522D01*
X8408653Y-7098522D02*
X8418177Y-7079474D01*
X8418177Y-7079474D02*
X8437225Y-7069950D01*
X8437225Y-7069950D02*
X8475320Y-7069950D01*
X8475320Y-7069950D02*
X8494368Y-7079474D01*
X8494368Y-7079474D02*
X8503892Y-7098522D01*
X8503892Y-7098522D02*
X8503892Y-7117569D01*
X8503892Y-7117569D02*
X8408653Y-7136617D01*
X8580082Y-7193760D02*
X8599130Y-7203284D01*
X8599130Y-7203284D02*
X8637225Y-7203284D01*
X8637225Y-7203284D02*
X8656273Y-7193760D01*
X8656273Y-7193760D02*
X8665796Y-7174712D01*
X8665796Y-7174712D02*
X8665796Y-7165188D01*
X8665796Y-7165188D02*
X8656273Y-7146141D01*
X8656273Y-7146141D02*
X8637225Y-7136617D01*
X8637225Y-7136617D02*
X8608653Y-7136617D01*
X8608653Y-7136617D02*
X8589606Y-7127093D01*
X8589606Y-7127093D02*
X8580082Y-7108046D01*
X8580082Y-7108046D02*
X8580082Y-7098522D01*
X8580082Y-7098522D02*
X8589606Y-7079474D01*
X8589606Y-7079474D02*
X8608653Y-7069950D01*
X8608653Y-7069950D02*
X8637225Y-7069950D01*
X8637225Y-7069950D02*
X8656273Y-7079474D01*
X8732463Y-7279474D02*
X8741987Y-7269950D01*
X8741987Y-7269950D02*
X8761034Y-7241379D01*
X8761034Y-7241379D02*
X8770558Y-7222331D01*
X8770558Y-7222331D02*
X8780082Y-7193760D01*
X8780082Y-7193760D02*
X8789606Y-7146141D01*
X8789606Y-7146141D02*
X8789606Y-7108046D01*
X8789606Y-7108046D02*
X8780082Y-7060427D01*
X8780082Y-7060427D02*
X8770558Y-7031855D01*
X8770558Y-7031855D02*
X8761034Y-7012808D01*
X8761034Y-7012808D02*
X8741987Y-6984236D01*
X8741987Y-6984236D02*
X8732463Y-6974712D01*
X9094368Y-7279474D02*
X9084844Y-7269950D01*
X9084844Y-7269950D02*
X9065796Y-7241379D01*
X9065796Y-7241379D02*
X9056273Y-7222331D01*
X9056273Y-7222331D02*
X9046749Y-7193760D01*
X9046749Y-7193760D02*
X9037225Y-7146141D01*
X9037225Y-7146141D02*
X9037225Y-7108046D01*
X9037225Y-7108046D02*
X9046749Y-7060427D01*
X9046749Y-7060427D02*
X9056273Y-7031855D01*
X9056273Y-7031855D02*
X9065796Y-7012808D01*
X9065796Y-7012808D02*
X9084844Y-6984236D01*
X9084844Y-6984236D02*
X9094368Y-6974712D01*
X9170558Y-7069950D02*
X9170558Y-7203284D01*
X9170558Y-7088998D02*
X9180082Y-7079474D01*
X9180082Y-7079474D02*
X9199130Y-7069950D01*
X9199130Y-7069950D02*
X9227701Y-7069950D01*
X9227701Y-7069950D02*
X9246749Y-7079474D01*
X9246749Y-7079474D02*
X9256273Y-7098522D01*
X9256273Y-7098522D02*
X9256273Y-7203284D01*
X9380082Y-7203284D02*
X9361034Y-7193760D01*
X9361034Y-7193760D02*
X9351511Y-7184236D01*
X9351511Y-7184236D02*
X9341987Y-7165188D01*
X9341987Y-7165188D02*
X9341987Y-7108046D01*
X9341987Y-7108046D02*
X9351511Y-7088998D01*
X9351511Y-7088998D02*
X9361034Y-7079474D01*
X9361034Y-7079474D02*
X9380082Y-7069950D01*
X9380082Y-7069950D02*
X9408654Y-7069950D01*
X9408654Y-7069950D02*
X9427701Y-7079474D01*
X9427701Y-7079474D02*
X9437225Y-7088998D01*
X9437225Y-7088998D02*
X9446749Y-7108046D01*
X9446749Y-7108046D02*
X9446749Y-7165188D01*
X9446749Y-7165188D02*
X9437225Y-7184236D01*
X9437225Y-7184236D02*
X9427701Y-7193760D01*
X9427701Y-7193760D02*
X9408654Y-7203284D01*
X9408654Y-7203284D02*
X9380082Y-7203284D01*
X9503892Y-7069950D02*
X9580082Y-7069950D01*
X9532463Y-7003284D02*
X9532463Y-7174712D01*
X9532463Y-7174712D02*
X9541987Y-7193760D01*
X9541987Y-7193760D02*
X9561034Y-7203284D01*
X9561034Y-7203284D02*
X9580082Y-7203284D01*
X9799130Y-7069950D02*
X9799130Y-7269950D01*
X9799130Y-7079474D02*
X9818177Y-7069950D01*
X9818177Y-7069950D02*
X9856273Y-7069950D01*
X9856273Y-7069950D02*
X9875320Y-7079474D01*
X9875320Y-7079474D02*
X9884844Y-7088998D01*
X9884844Y-7088998D02*
X9894368Y-7108046D01*
X9894368Y-7108046D02*
X9894368Y-7165188D01*
X9894368Y-7165188D02*
X9884844Y-7184236D01*
X9884844Y-7184236D02*
X9875320Y-7193760D01*
X9875320Y-7193760D02*
X9856273Y-7203284D01*
X9856273Y-7203284D02*
X9818177Y-7203284D01*
X9818177Y-7203284D02*
X9799130Y-7193760D01*
X10008654Y-7203284D02*
X9989606Y-7193760D01*
X9989606Y-7193760D02*
X9980082Y-7174712D01*
X9980082Y-7174712D02*
X9980082Y-7003284D01*
X10170558Y-7203284D02*
X10170558Y-7098522D01*
X10170558Y-7098522D02*
X10161035Y-7079474D01*
X10161035Y-7079474D02*
X10141987Y-7069950D01*
X10141987Y-7069950D02*
X10103892Y-7069950D01*
X10103892Y-7069950D02*
X10084844Y-7079474D01*
X10170558Y-7193760D02*
X10151511Y-7203284D01*
X10151511Y-7203284D02*
X10103892Y-7203284D01*
X10103892Y-7203284D02*
X10084844Y-7193760D01*
X10084844Y-7193760D02*
X10075320Y-7174712D01*
X10075320Y-7174712D02*
X10075320Y-7155665D01*
X10075320Y-7155665D02*
X10084844Y-7136617D01*
X10084844Y-7136617D02*
X10103892Y-7127093D01*
X10103892Y-7127093D02*
X10151511Y-7127093D01*
X10151511Y-7127093D02*
X10170558Y-7117569D01*
X10237225Y-7069950D02*
X10313415Y-7069950D01*
X10265796Y-7003284D02*
X10265796Y-7174712D01*
X10265796Y-7174712D02*
X10275320Y-7193760D01*
X10275320Y-7193760D02*
X10294368Y-7203284D01*
X10294368Y-7203284D02*
X10313415Y-7203284D01*
X10456273Y-7193760D02*
X10437225Y-7203284D01*
X10437225Y-7203284D02*
X10399130Y-7203284D01*
X10399130Y-7203284D02*
X10380082Y-7193760D01*
X10380082Y-7193760D02*
X10370558Y-7174712D01*
X10370558Y-7174712D02*
X10370558Y-7098522D01*
X10370558Y-7098522D02*
X10380082Y-7079474D01*
X10380082Y-7079474D02*
X10399130Y-7069950D01*
X10399130Y-7069950D02*
X10437225Y-7069950D01*
X10437225Y-7069950D02*
X10456273Y-7079474D01*
X10456273Y-7079474D02*
X10465796Y-7098522D01*
X10465796Y-7098522D02*
X10465796Y-7117569D01*
X10465796Y-7117569D02*
X10370558Y-7136617D01*
X10637225Y-7203284D02*
X10637225Y-7003284D01*
X10637225Y-7193760D02*
X10618177Y-7203284D01*
X10618177Y-7203284D02*
X10580082Y-7203284D01*
X10580082Y-7203284D02*
X10561035Y-7193760D01*
X10561035Y-7193760D02*
X10551511Y-7184236D01*
X10551511Y-7184236D02*
X10541987Y-7165188D01*
X10541987Y-7165188D02*
X10541987Y-7108046D01*
X10541987Y-7108046D02*
X10551511Y-7088998D01*
X10551511Y-7088998D02*
X10561035Y-7079474D01*
X10561035Y-7079474D02*
X10580082Y-7069950D01*
X10580082Y-7069950D02*
X10618177Y-7069950D01*
X10618177Y-7069950D02*
X10637225Y-7079474D01*
X10713416Y-7279474D02*
X10722939Y-7269950D01*
X10722939Y-7269950D02*
X10741987Y-7241379D01*
X10741987Y-7241379D02*
X10751511Y-7222331D01*
X10751511Y-7222331D02*
X10761035Y-7193760D01*
X10761035Y-7193760D02*
X10770558Y-7146141D01*
X10770558Y-7146141D02*
X10770558Y-7108046D01*
X10770558Y-7108046D02*
X10761035Y-7060427D01*
X10761035Y-7060427D02*
X10751511Y-7031855D01*
X10751511Y-7031855D02*
X10741987Y-7012808D01*
X10741987Y-7012808D02*
X10722939Y-6984236D01*
X10722939Y-6984236D02*
X10713416Y-6974712D01*
M02*
