%TF.GenerationSoftware,KiCad,Pcbnew,7.0.9*%
%TF.CreationDate,2023-12-11T15:29:27+01:00*%
%TF.ProjectId,MPX5100DP-THT-board,4d505835-3130-4304-9450-2d5448542d62,1.2*%
%TF.SameCoordinates,Original*%
%TF.FileFunction,Copper,L1,Top*%
%TF.FilePolarity,Positive*%
%FSLAX46Y46*%
G04 Gerber Fmt 4.6, Leading zero omitted, Abs format (unit mm)*
G04 Created by KiCad (PCBNEW 7.0.9) date 2023-12-11 15:29:27*
%MOMM*%
%LPD*%
G01*
G04 APERTURE LIST*
G04 Aperture macros list*
%AMRoundRect*
0 Rectangle with rounded corners*
0 $1 Rounding radius*
0 $2 $3 $4 $5 $6 $7 $8 $9 X,Y pos of 4 corners*
0 Add a 4 corners polygon primitive as box body*
4,1,4,$2,$3,$4,$5,$6,$7,$8,$9,$2,$3,0*
0 Add four circle primitives for the rounded corners*
1,1,$1+$1,$2,$3*
1,1,$1+$1,$4,$5*
1,1,$1+$1,$6,$7*
1,1,$1+$1,$8,$9*
0 Add four rect primitives between the rounded corners*
20,1,$1+$1,$2,$3,$4,$5,0*
20,1,$1+$1,$4,$5,$6,$7,0*
20,1,$1+$1,$6,$7,$8,$9,0*
20,1,$1+$1,$8,$9,$2,$3,0*%
G04 Aperture macros list end*
%TA.AperFunction,ComponentPad*%
%ADD10C,1.600000*%
%TD*%
%TA.AperFunction,ComponentPad*%
%ADD11O,1.400000X2.000000*%
%TD*%
%TA.AperFunction,ComponentPad*%
%ADD12R,1.600000X1.600000*%
%TD*%
%TA.AperFunction,ComponentPad*%
%ADD13RoundRect,0.250000X-0.725000X0.600000X-0.725000X-0.600000X0.725000X-0.600000X0.725000X0.600000X0*%
%TD*%
%TA.AperFunction,ComponentPad*%
%ADD14O,1.950000X1.700000*%
%TD*%
%TA.AperFunction,ComponentPad*%
%ADD15R,2.000000X2.000000*%
%TD*%
%TA.AperFunction,ComponentPad*%
%ADD16O,2.000000X2.000000*%
%TD*%
%TA.AperFunction,ComponentPad*%
%ADD17R,1.700000X1.700000*%
%TD*%
%TA.AperFunction,ComponentPad*%
%ADD18O,1.700000X1.700000*%
%TD*%
%TA.AperFunction,ComponentPad*%
%ADD19R,1.100000X1.800000*%
%TD*%
%TA.AperFunction,ComponentPad*%
%ADD20RoundRect,0.275000X-0.275000X-0.625000X0.275000X-0.625000X0.275000X0.625000X-0.275000X0.625000X0*%
%TD*%
%TA.AperFunction,ComponentPad*%
%ADD21O,1.600000X1.600000*%
%TD*%
G04 APERTURE END LIST*
D10*
%TO.P,C9,1*%
%TO.N,Net-(J2-Pin_2)*%
X79756000Y-43688000D03*
%TO.P,C9,2*%
%TO.N,GND*%
X79756000Y-48688000D03*
%TD*%
D11*
%TO.P,U3,1,Vout*%
%TO.N,Net-(U3-Vout)*%
X50947848Y-46226000D03*
%TO.P,U3,2,GND*%
%TO.N,GND*%
X53487848Y-46226000D03*
%TO.P,U3,3,Vs*%
%TO.N,Net-(J2-Pin_2)*%
X56027848Y-46226000D03*
%TO.P,U3,4,DNC*%
%TO.N,unconnected-(U3-DNC-Pad4)*%
X58567848Y-46226000D03*
%TO.P,U3,5,DNC*%
%TO.N,unconnected-(U3-DNC-Pad5)*%
X61107848Y-46226000D03*
%TO.P,U3,6,DNC*%
%TO.N,unconnected-(U3-DNC-Pad6)*%
X63647848Y-46226000D03*
%TD*%
D10*
%TO.P,C8,1*%
%TO.N,Net-(J2-Pin_2)*%
X80899000Y-39497000D03*
%TO.P,C8,2*%
%TO.N,GND*%
X85899000Y-39497000D03*
%TD*%
D12*
%TO.P,C1,1*%
%TO.N,Net-(D1-K)*%
X88900000Y-43601000D03*
D10*
%TO.P,C1,2*%
%TO.N,Net-(U1-CAP+)*%
X88900000Y-46101000D03*
%TD*%
%TO.P,C6,1*%
%TO.N,Net-(J2-Pin_1)*%
X68707000Y-42672000D03*
%TO.P,C6,2*%
%TO.N,GND*%
X68707000Y-47672000D03*
%TD*%
D13*
%TO.P,J1,1,GND*%
%TO.N,GND*%
X43942000Y-52070000D03*
D14*
%TO.P,J1,2,Signal*%
%TO.N,Net-(J1-Signal)*%
X43942000Y-54570000D03*
%TO.P,J1,3,3.3V*%
%TO.N,+3.3V*%
X43942000Y-57070000D03*
%TD*%
D10*
%TO.P,C3,1*%
%TO.N,Net-(D2-K)*%
X76581000Y-26543000D03*
%TO.P,C3,2*%
%TO.N,GND*%
X81581000Y-26543000D03*
%TD*%
D12*
%TO.P,C7,1*%
%TO.N,Net-(J2-Pin_2)*%
X75946000Y-42926000D03*
D10*
%TO.P,C7,2*%
%TO.N,GND*%
X73446000Y-42926000D03*
%TD*%
D12*
%TO.P,C2,1*%
%TO.N,Net-(D2-K)*%
X82423000Y-35052000D03*
D10*
%TO.P,C2,2*%
%TO.N,GND*%
X84923000Y-35052000D03*
%TD*%
D15*
%TO.P,D2,1,K*%
%TO.N,Net-(D2-K)*%
X78740000Y-30226000D03*
D16*
%TO.P,D2,2,A*%
%TO.N,Net-(D1-K)*%
X83820000Y-30226000D03*
%TD*%
D17*
%TO.P,J2,1,Pin_1*%
%TO.N,Net-(J2-Pin_1)*%
X64897000Y-50673000D03*
D18*
%TO.P,J2,2,Pin_2*%
%TO.N,Net-(J2-Pin_2)*%
X64897000Y-53213000D03*
%TD*%
D19*
%TO.P,U4,1,GND*%
%TO.N,GND*%
X75311000Y-36087000D03*
D20*
%TO.P,U4,2,VI*%
%TO.N,Net-(D2-K)*%
X76581000Y-34017000D03*
%TO.P,U4,3,VO*%
%TO.N,Net-(J2-Pin_1)*%
X77851000Y-36087000D03*
%TD*%
D10*
%TO.P,R1,1*%
%TO.N,Net-(U3-Vout)*%
X59309000Y-51689000D03*
D21*
%TO.P,R1,2*%
%TO.N,Net-(J1-Signal)*%
X49149000Y-51689000D03*
%TD*%
D12*
%TO.P,U1,1,NC*%
%TO.N,unconnected-(U1-NC-Pad1)*%
X71882000Y-58928000D03*
D21*
%TO.P,U1,2,CAP+*%
%TO.N,Net-(U1-CAP+)*%
X74422000Y-58928000D03*
%TO.P,U1,3,GND*%
%TO.N,GND*%
X76962000Y-58928000D03*
%TO.P,U1,4,CAP-*%
%TO.N,unconnected-(U1-CAP--Pad4)*%
X79502000Y-58928000D03*
%TO.P,U1,5,VOUT*%
%TO.N,GND*%
X79502000Y-51308000D03*
%TO.P,U1,6,LV*%
X76962000Y-51308000D03*
%TO.P,U1,7,OSC*%
%TO.N,unconnected-(U1-OSC-Pad7)*%
X74422000Y-51308000D03*
%TO.P,U1,8,V+*%
%TO.N,+3.3V*%
X71882000Y-51308000D03*
%TD*%
D10*
%TO.P,C10,1*%
%TO.N,Net-(U3-Vout)*%
X47204000Y-45085000D03*
%TO.P,C10,2*%
%TO.N,GND*%
X42204000Y-45085000D03*
%TD*%
%TO.P,R2,1*%
%TO.N,GND*%
X59309000Y-56007000D03*
D21*
%TO.P,R2,2*%
%TO.N,Net-(J1-Signal)*%
X49149000Y-56007000D03*
%TD*%
D15*
%TO.P,D1,1,K*%
%TO.N,Net-(D1-K)*%
X84074000Y-47625000D03*
D16*
%TO.P,D1,2,A*%
%TO.N,+3.3V*%
X84074000Y-52705000D03*
%TD*%
D12*
%TO.P,C4,1*%
%TO.N,Net-(J2-Pin_1)*%
X67818000Y-29210000D03*
D10*
%TO.P,C4,2*%
%TO.N,GND*%
X67818000Y-26710000D03*
%TD*%
%TO.P,C5,1*%
%TO.N,Net-(J2-Pin_1)*%
X73025000Y-31035000D03*
%TO.P,C5,2*%
%TO.N,GND*%
X73025000Y-26035000D03*
%TD*%
M02*
