%TF.GenerationSoftware,KiCad,Pcbnew,7.0.9*%
%TF.CreationDate,2023-12-11T15:48:04+01:00*%
%TF.ProjectId,MPX5100DP-THT-board,4d505835-3130-4304-9450-2d5448542d62,1.2*%
%TF.SameCoordinates,Original*%
%TF.FileFunction,Drillmap*%
%TF.FilePolarity,Positive*%
%FSLAX45Y45*%
G04 Gerber Fmt 4.5, Leading zero omitted, Abs format (unit mm)*
G04 Created by KiCad (PCBNEW 7.0.9) date 2023-12-11 15:48:04*
%MOMM*%
%LPD*%
G01*
G04 APERTURE LIST*
%ADD10C,0.100000*%
%ADD11C,0.200000*%
G04 APERTURE END LIST*
D10*
X3962400Y-2425700D02*
X9271000Y-2425700D01*
X9271000Y-6146800D01*
X3962400Y-6146800D01*
X3962400Y-2425700D01*
D11*
D10*
X7493600Y-3531200D02*
X7568600Y-3606200D01*
X7568600Y-3531200D02*
X7493600Y-3606200D01*
X7620600Y-3404200D02*
X7695600Y-3479200D01*
X7695600Y-3404200D02*
X7620600Y-3479200D01*
X7747600Y-3531200D02*
X7822600Y-3606200D01*
X7822600Y-3531200D02*
X7747600Y-3606200D01*
X4260400Y-4508500D02*
G75*
G03*
X4260400Y-4508500I-40000J0D01*
G01*
X4760400Y-4508500D02*
G75*
G03*
X4760400Y-4508500I-40000J0D01*
G01*
X4954900Y-5168900D02*
G75*
G03*
X4954900Y-5168900I-40000J0D01*
G01*
X4954900Y-5600700D02*
G75*
G03*
X4954900Y-5600700I-40000J0D01*
G01*
X5970900Y-5168900D02*
G75*
G03*
X5970900Y-5168900I-40000J0D01*
G01*
X5970900Y-5600700D02*
G75*
G03*
X5970900Y-5600700I-40000J0D01*
G01*
X6821800Y-2671000D02*
G75*
G03*
X6821800Y-2671000I-40000J0D01*
G01*
X6821800Y-2921000D02*
G75*
G03*
X6821800Y-2921000I-40000J0D01*
G01*
X6910700Y-4267200D02*
G75*
G03*
X6910700Y-4267200I-40000J0D01*
G01*
X6910700Y-4767200D02*
G75*
G03*
X6910700Y-4767200I-40000J0D01*
G01*
X7228200Y-5130800D02*
G75*
G03*
X7228200Y-5130800I-40000J0D01*
G01*
X7228200Y-5892800D02*
G75*
G03*
X7228200Y-5892800I-40000J0D01*
G01*
X7342500Y-2603500D02*
G75*
G03*
X7342500Y-2603500I-40000J0D01*
G01*
X7342500Y-3103500D02*
G75*
G03*
X7342500Y-3103500I-40000J0D01*
G01*
X7384600Y-4292600D02*
G75*
G03*
X7384600Y-4292600I-40000J0D01*
G01*
X7482200Y-5130800D02*
G75*
G03*
X7482200Y-5130800I-40000J0D01*
G01*
X7482200Y-5892800D02*
G75*
G03*
X7482200Y-5892800I-40000J0D01*
G01*
X7634600Y-4292600D02*
G75*
G03*
X7634600Y-4292600I-40000J0D01*
G01*
X7698100Y-2654300D02*
G75*
G03*
X7698100Y-2654300I-40000J0D01*
G01*
X7736200Y-5130800D02*
G75*
G03*
X7736200Y-5130800I-40000J0D01*
G01*
X7736200Y-5892800D02*
G75*
G03*
X7736200Y-5892800I-40000J0D01*
G01*
X7990200Y-5130800D02*
G75*
G03*
X7990200Y-5130800I-40000J0D01*
G01*
X7990200Y-5892800D02*
G75*
G03*
X7990200Y-5892800I-40000J0D01*
G01*
X8015600Y-4368800D02*
G75*
G03*
X8015600Y-4368800I-40000J0D01*
G01*
X8015600Y-4868800D02*
G75*
G03*
X8015600Y-4868800I-40000J0D01*
G01*
X8129900Y-3949700D02*
G75*
G03*
X8129900Y-3949700I-40000J0D01*
G01*
X8198100Y-2654300D02*
G75*
G03*
X8198100Y-2654300I-40000J0D01*
G01*
X8282300Y-3505200D02*
G75*
G03*
X8282300Y-3505200I-40000J0D01*
G01*
X8532300Y-3505200D02*
G75*
G03*
X8532300Y-3505200I-40000J0D01*
G01*
X8629900Y-3949700D02*
G75*
G03*
X8629900Y-3949700I-40000J0D01*
G01*
X8930000Y-4360100D02*
G75*
G03*
X8930000Y-4360100I-40000J0D01*
G01*
X8930000Y-4610100D02*
G75*
G03*
X8930000Y-4610100I-40000J0D01*
G01*
X5094785Y-4577600D02*
X5094785Y-4667600D01*
X5049785Y-4622600D02*
X5139785Y-4622600D01*
X5348785Y-4577600D02*
X5348785Y-4667600D01*
X5303785Y-4622600D02*
X5393785Y-4622600D01*
X5602785Y-4577600D02*
X5602785Y-4667600D01*
X5557785Y-4622600D02*
X5647785Y-4622600D01*
X5856785Y-4577600D02*
X5856785Y-4667600D01*
X5811785Y-4622600D02*
X5901785Y-4622600D01*
X6110785Y-4577600D02*
X6110785Y-4667600D01*
X6065785Y-4622600D02*
X6155785Y-4622600D01*
X6364785Y-4577600D02*
X6364785Y-4667600D01*
X6319785Y-4622600D02*
X6409785Y-4622600D01*
X4427788Y-5240588D02*
X4427788Y-5173412D01*
X4360612Y-5173412D01*
X4360612Y-5240588D01*
X4427788Y-5240588D01*
X4427788Y-5490588D02*
X4427788Y-5423412D01*
X4360612Y-5423412D01*
X4360612Y-5490588D01*
X4427788Y-5490588D01*
X4427788Y-5740588D02*
X4427788Y-5673412D01*
X4360612Y-5673412D01*
X4360612Y-5740588D01*
X4427788Y-5740588D01*
X6489700Y-5117300D02*
X6539700Y-5067300D01*
X6489700Y-5017300D01*
X6439700Y-5067300D01*
X6489700Y-5117300D01*
X6489700Y-5371300D02*
X6539700Y-5321300D01*
X6489700Y-5271300D01*
X6439700Y-5321300D01*
X6489700Y-5371300D01*
X7874000Y-3072600D02*
X7924000Y-3022600D01*
X7874000Y-2972600D01*
X7824000Y-3022600D01*
X7874000Y-3072600D01*
X8382000Y-3072600D02*
X8432000Y-3022600D01*
X8382000Y-2972600D01*
X8332000Y-3022600D01*
X8382000Y-3072600D01*
X8407400Y-4812500D02*
X8457400Y-4762500D01*
X8407400Y-4712500D01*
X8357400Y-4762500D01*
X8407400Y-4812500D01*
X8407400Y-5320500D02*
X8457400Y-5270500D01*
X8407400Y-5220500D01*
X8357400Y-5270500D01*
X8407400Y-5320500D01*
D11*
X4218177Y-6463284D02*
X4218177Y-6263284D01*
X4218177Y-6263284D02*
X4265796Y-6263284D01*
X4265796Y-6263284D02*
X4294367Y-6272808D01*
X4294367Y-6272808D02*
X4313415Y-6291855D01*
X4313415Y-6291855D02*
X4322939Y-6310903D01*
X4322939Y-6310903D02*
X4332463Y-6348998D01*
X4332463Y-6348998D02*
X4332463Y-6377569D01*
X4332463Y-6377569D02*
X4322939Y-6415665D01*
X4322939Y-6415665D02*
X4313415Y-6434712D01*
X4313415Y-6434712D02*
X4294367Y-6453760D01*
X4294367Y-6453760D02*
X4265796Y-6463284D01*
X4265796Y-6463284D02*
X4218177Y-6463284D01*
X4418177Y-6463284D02*
X4418177Y-6329950D01*
X4418177Y-6368046D02*
X4427701Y-6348998D01*
X4427701Y-6348998D02*
X4437224Y-6339474D01*
X4437224Y-6339474D02*
X4456272Y-6329950D01*
X4456272Y-6329950D02*
X4475320Y-6329950D01*
X4541986Y-6463284D02*
X4541986Y-6329950D01*
X4541986Y-6263284D02*
X4532463Y-6272808D01*
X4532463Y-6272808D02*
X4541986Y-6282331D01*
X4541986Y-6282331D02*
X4551510Y-6272808D01*
X4551510Y-6272808D02*
X4541986Y-6263284D01*
X4541986Y-6263284D02*
X4541986Y-6282331D01*
X4665796Y-6463284D02*
X4646748Y-6453760D01*
X4646748Y-6453760D02*
X4637224Y-6434712D01*
X4637224Y-6434712D02*
X4637224Y-6263284D01*
X4770558Y-6463284D02*
X4751510Y-6453760D01*
X4751510Y-6453760D02*
X4741986Y-6434712D01*
X4741986Y-6434712D02*
X4741986Y-6263284D01*
X4999129Y-6463284D02*
X4999129Y-6263284D01*
X4999129Y-6263284D02*
X5065796Y-6406141D01*
X5065796Y-6406141D02*
X5132463Y-6263284D01*
X5132463Y-6263284D02*
X5132463Y-6463284D01*
X5313415Y-6463284D02*
X5313415Y-6358522D01*
X5313415Y-6358522D02*
X5303891Y-6339474D01*
X5303891Y-6339474D02*
X5284844Y-6329950D01*
X5284844Y-6329950D02*
X5246748Y-6329950D01*
X5246748Y-6329950D02*
X5227701Y-6339474D01*
X5313415Y-6453760D02*
X5294367Y-6463284D01*
X5294367Y-6463284D02*
X5246748Y-6463284D01*
X5246748Y-6463284D02*
X5227701Y-6453760D01*
X5227701Y-6453760D02*
X5218177Y-6434712D01*
X5218177Y-6434712D02*
X5218177Y-6415665D01*
X5218177Y-6415665D02*
X5227701Y-6396617D01*
X5227701Y-6396617D02*
X5246748Y-6387093D01*
X5246748Y-6387093D02*
X5294367Y-6387093D01*
X5294367Y-6387093D02*
X5313415Y-6377569D01*
X5408653Y-6329950D02*
X5408653Y-6529950D01*
X5408653Y-6339474D02*
X5427701Y-6329950D01*
X5427701Y-6329950D02*
X5465796Y-6329950D01*
X5465796Y-6329950D02*
X5484844Y-6339474D01*
X5484844Y-6339474D02*
X5494367Y-6348998D01*
X5494367Y-6348998D02*
X5503891Y-6368046D01*
X5503891Y-6368046D02*
X5503891Y-6425188D01*
X5503891Y-6425188D02*
X5494367Y-6444236D01*
X5494367Y-6444236D02*
X5484844Y-6453760D01*
X5484844Y-6453760D02*
X5465796Y-6463284D01*
X5465796Y-6463284D02*
X5427701Y-6463284D01*
X5427701Y-6463284D02*
X5408653Y-6453760D01*
X5589605Y-6444236D02*
X5599129Y-6453760D01*
X5599129Y-6453760D02*
X5589605Y-6463284D01*
X5589605Y-6463284D02*
X5580082Y-6453760D01*
X5580082Y-6453760D02*
X5589605Y-6444236D01*
X5589605Y-6444236D02*
X5589605Y-6463284D01*
X5589605Y-6339474D02*
X5599129Y-6348998D01*
X5599129Y-6348998D02*
X5589605Y-6358522D01*
X5589605Y-6358522D02*
X5580082Y-6348998D01*
X5580082Y-6348998D02*
X5589605Y-6339474D01*
X5589605Y-6339474D02*
X5589605Y-6358522D01*
D10*
X3882400Y-6754300D02*
X3957400Y-6829300D01*
X3957400Y-6754300D02*
X3882400Y-6829300D01*
D11*
X4256272Y-6683284D02*
X4275320Y-6683284D01*
X4275320Y-6683284D02*
X4294367Y-6692808D01*
X4294367Y-6692808D02*
X4303891Y-6702331D01*
X4303891Y-6702331D02*
X4313415Y-6721379D01*
X4313415Y-6721379D02*
X4322939Y-6759474D01*
X4322939Y-6759474D02*
X4322939Y-6807093D01*
X4322939Y-6807093D02*
X4313415Y-6845188D01*
X4313415Y-6845188D02*
X4303891Y-6864236D01*
X4303891Y-6864236D02*
X4294367Y-6873760D01*
X4294367Y-6873760D02*
X4275320Y-6883284D01*
X4275320Y-6883284D02*
X4256272Y-6883284D01*
X4256272Y-6883284D02*
X4237224Y-6873760D01*
X4237224Y-6873760D02*
X4227701Y-6864236D01*
X4227701Y-6864236D02*
X4218177Y-6845188D01*
X4218177Y-6845188D02*
X4208653Y-6807093D01*
X4208653Y-6807093D02*
X4208653Y-6759474D01*
X4208653Y-6759474D02*
X4218177Y-6721379D01*
X4218177Y-6721379D02*
X4227701Y-6702331D01*
X4227701Y-6702331D02*
X4237224Y-6692808D01*
X4237224Y-6692808D02*
X4256272Y-6683284D01*
X4408653Y-6864236D02*
X4418177Y-6873760D01*
X4418177Y-6873760D02*
X4408653Y-6883284D01*
X4408653Y-6883284D02*
X4399129Y-6873760D01*
X4399129Y-6873760D02*
X4408653Y-6864236D01*
X4408653Y-6864236D02*
X4408653Y-6883284D01*
X4484844Y-6683284D02*
X4618177Y-6683284D01*
X4618177Y-6683284D02*
X4532463Y-6883284D01*
X4789605Y-6683284D02*
X4694367Y-6683284D01*
X4694367Y-6683284D02*
X4684844Y-6778522D01*
X4684844Y-6778522D02*
X4694367Y-6768998D01*
X4694367Y-6768998D02*
X4713415Y-6759474D01*
X4713415Y-6759474D02*
X4761034Y-6759474D01*
X4761034Y-6759474D02*
X4780082Y-6768998D01*
X4780082Y-6768998D02*
X4789605Y-6778522D01*
X4789605Y-6778522D02*
X4799129Y-6797569D01*
X4799129Y-6797569D02*
X4799129Y-6845188D01*
X4799129Y-6845188D02*
X4789605Y-6864236D01*
X4789605Y-6864236D02*
X4780082Y-6873760D01*
X4780082Y-6873760D02*
X4761034Y-6883284D01*
X4761034Y-6883284D02*
X4713415Y-6883284D01*
X4713415Y-6883284D02*
X4694367Y-6873760D01*
X4694367Y-6873760D02*
X4684844Y-6864236D01*
X4922939Y-6683284D02*
X4941986Y-6683284D01*
X4941986Y-6683284D02*
X4961034Y-6692808D01*
X4961034Y-6692808D02*
X4970558Y-6702331D01*
X4970558Y-6702331D02*
X4980082Y-6721379D01*
X4980082Y-6721379D02*
X4989605Y-6759474D01*
X4989605Y-6759474D02*
X4989605Y-6807093D01*
X4989605Y-6807093D02*
X4980082Y-6845188D01*
X4980082Y-6845188D02*
X4970558Y-6864236D01*
X4970558Y-6864236D02*
X4961034Y-6873760D01*
X4961034Y-6873760D02*
X4941986Y-6883284D01*
X4941986Y-6883284D02*
X4922939Y-6883284D01*
X4922939Y-6883284D02*
X4903891Y-6873760D01*
X4903891Y-6873760D02*
X4894367Y-6864236D01*
X4894367Y-6864236D02*
X4884844Y-6845188D01*
X4884844Y-6845188D02*
X4875320Y-6807093D01*
X4875320Y-6807093D02*
X4875320Y-6759474D01*
X4875320Y-6759474D02*
X4884844Y-6721379D01*
X4884844Y-6721379D02*
X4894367Y-6702331D01*
X4894367Y-6702331D02*
X4903891Y-6692808D01*
X4903891Y-6692808D02*
X4922939Y-6683284D01*
X5075320Y-6883284D02*
X5075320Y-6749950D01*
X5075320Y-6768998D02*
X5084844Y-6759474D01*
X5084844Y-6759474D02*
X5103891Y-6749950D01*
X5103891Y-6749950D02*
X5132463Y-6749950D01*
X5132463Y-6749950D02*
X5151510Y-6759474D01*
X5151510Y-6759474D02*
X5161034Y-6778522D01*
X5161034Y-6778522D02*
X5161034Y-6883284D01*
X5161034Y-6778522D02*
X5170558Y-6759474D01*
X5170558Y-6759474D02*
X5189605Y-6749950D01*
X5189605Y-6749950D02*
X5218177Y-6749950D01*
X5218177Y-6749950D02*
X5237225Y-6759474D01*
X5237225Y-6759474D02*
X5246748Y-6778522D01*
X5246748Y-6778522D02*
X5246748Y-6883284D01*
X5341986Y-6883284D02*
X5341986Y-6749950D01*
X5341986Y-6768998D02*
X5351510Y-6759474D01*
X5351510Y-6759474D02*
X5370558Y-6749950D01*
X5370558Y-6749950D02*
X5399129Y-6749950D01*
X5399129Y-6749950D02*
X5418177Y-6759474D01*
X5418177Y-6759474D02*
X5427701Y-6778522D01*
X5427701Y-6778522D02*
X5427701Y-6883284D01*
X5427701Y-6778522D02*
X5437225Y-6759474D01*
X5437225Y-6759474D02*
X5456272Y-6749950D01*
X5456272Y-6749950D02*
X5484844Y-6749950D01*
X5484844Y-6749950D02*
X5503891Y-6759474D01*
X5503891Y-6759474D02*
X5513415Y-6778522D01*
X5513415Y-6778522D02*
X5513415Y-6883284D01*
X5903891Y-6673760D02*
X5732463Y-6930903D01*
X6161034Y-6683284D02*
X6180082Y-6683284D01*
X6180082Y-6683284D02*
X6199129Y-6692808D01*
X6199129Y-6692808D02*
X6208653Y-6702331D01*
X6208653Y-6702331D02*
X6218177Y-6721379D01*
X6218177Y-6721379D02*
X6227701Y-6759474D01*
X6227701Y-6759474D02*
X6227701Y-6807093D01*
X6227701Y-6807093D02*
X6218177Y-6845188D01*
X6218177Y-6845188D02*
X6208653Y-6864236D01*
X6208653Y-6864236D02*
X6199129Y-6873760D01*
X6199129Y-6873760D02*
X6180082Y-6883284D01*
X6180082Y-6883284D02*
X6161034Y-6883284D01*
X6161034Y-6883284D02*
X6141986Y-6873760D01*
X6141986Y-6873760D02*
X6132463Y-6864236D01*
X6132463Y-6864236D02*
X6122939Y-6845188D01*
X6122939Y-6845188D02*
X6113415Y-6807093D01*
X6113415Y-6807093D02*
X6113415Y-6759474D01*
X6113415Y-6759474D02*
X6122939Y-6721379D01*
X6122939Y-6721379D02*
X6132463Y-6702331D01*
X6132463Y-6702331D02*
X6141986Y-6692808D01*
X6141986Y-6692808D02*
X6161034Y-6683284D01*
X6313415Y-6864236D02*
X6322939Y-6873760D01*
X6322939Y-6873760D02*
X6313415Y-6883284D01*
X6313415Y-6883284D02*
X6303891Y-6873760D01*
X6303891Y-6873760D02*
X6313415Y-6864236D01*
X6313415Y-6864236D02*
X6313415Y-6883284D01*
X6446748Y-6683284D02*
X6465796Y-6683284D01*
X6465796Y-6683284D02*
X6484844Y-6692808D01*
X6484844Y-6692808D02*
X6494367Y-6702331D01*
X6494367Y-6702331D02*
X6503891Y-6721379D01*
X6503891Y-6721379D02*
X6513415Y-6759474D01*
X6513415Y-6759474D02*
X6513415Y-6807093D01*
X6513415Y-6807093D02*
X6503891Y-6845188D01*
X6503891Y-6845188D02*
X6494367Y-6864236D01*
X6494367Y-6864236D02*
X6484844Y-6873760D01*
X6484844Y-6873760D02*
X6465796Y-6883284D01*
X6465796Y-6883284D02*
X6446748Y-6883284D01*
X6446748Y-6883284D02*
X6427701Y-6873760D01*
X6427701Y-6873760D02*
X6418177Y-6864236D01*
X6418177Y-6864236D02*
X6408653Y-6845188D01*
X6408653Y-6845188D02*
X6399129Y-6807093D01*
X6399129Y-6807093D02*
X6399129Y-6759474D01*
X6399129Y-6759474D02*
X6408653Y-6721379D01*
X6408653Y-6721379D02*
X6418177Y-6702331D01*
X6418177Y-6702331D02*
X6427701Y-6692808D01*
X6427701Y-6692808D02*
X6446748Y-6683284D01*
X6589606Y-6702331D02*
X6599129Y-6692808D01*
X6599129Y-6692808D02*
X6618177Y-6683284D01*
X6618177Y-6683284D02*
X6665796Y-6683284D01*
X6665796Y-6683284D02*
X6684844Y-6692808D01*
X6684844Y-6692808D02*
X6694367Y-6702331D01*
X6694367Y-6702331D02*
X6703891Y-6721379D01*
X6703891Y-6721379D02*
X6703891Y-6740427D01*
X6703891Y-6740427D02*
X6694367Y-6768998D01*
X6694367Y-6768998D02*
X6580082Y-6883284D01*
X6580082Y-6883284D02*
X6703891Y-6883284D01*
X6799129Y-6883284D02*
X6837225Y-6883284D01*
X6837225Y-6883284D02*
X6856272Y-6873760D01*
X6856272Y-6873760D02*
X6865796Y-6864236D01*
X6865796Y-6864236D02*
X6884844Y-6835665D01*
X6884844Y-6835665D02*
X6894367Y-6797569D01*
X6894367Y-6797569D02*
X6894367Y-6721379D01*
X6894367Y-6721379D02*
X6884844Y-6702331D01*
X6884844Y-6702331D02*
X6875320Y-6692808D01*
X6875320Y-6692808D02*
X6856272Y-6683284D01*
X6856272Y-6683284D02*
X6818177Y-6683284D01*
X6818177Y-6683284D02*
X6799129Y-6692808D01*
X6799129Y-6692808D02*
X6789606Y-6702331D01*
X6789606Y-6702331D02*
X6780082Y-6721379D01*
X6780082Y-6721379D02*
X6780082Y-6768998D01*
X6780082Y-6768998D02*
X6789606Y-6788046D01*
X6789606Y-6788046D02*
X6799129Y-6797569D01*
X6799129Y-6797569D02*
X6818177Y-6807093D01*
X6818177Y-6807093D02*
X6856272Y-6807093D01*
X6856272Y-6807093D02*
X6875320Y-6797569D01*
X6875320Y-6797569D02*
X6884844Y-6788046D01*
X6884844Y-6788046D02*
X6894367Y-6768998D01*
X7075320Y-6683284D02*
X6980082Y-6683284D01*
X6980082Y-6683284D02*
X6970558Y-6778522D01*
X6970558Y-6778522D02*
X6980082Y-6768998D01*
X6980082Y-6768998D02*
X6999129Y-6759474D01*
X6999129Y-6759474D02*
X7046748Y-6759474D01*
X7046748Y-6759474D02*
X7065796Y-6768998D01*
X7065796Y-6768998D02*
X7075320Y-6778522D01*
X7075320Y-6778522D02*
X7084844Y-6797569D01*
X7084844Y-6797569D02*
X7084844Y-6845188D01*
X7084844Y-6845188D02*
X7075320Y-6864236D01*
X7075320Y-6864236D02*
X7065796Y-6873760D01*
X7065796Y-6873760D02*
X7046748Y-6883284D01*
X7046748Y-6883284D02*
X6999129Y-6883284D01*
X6999129Y-6883284D02*
X6980082Y-6873760D01*
X6980082Y-6873760D02*
X6970558Y-6864236D01*
X7161034Y-6683284D02*
X7161034Y-6721379D01*
X7237225Y-6683284D02*
X7237225Y-6721379D01*
X7532463Y-6959474D02*
X7522939Y-6949950D01*
X7522939Y-6949950D02*
X7503891Y-6921379D01*
X7503891Y-6921379D02*
X7494368Y-6902331D01*
X7494368Y-6902331D02*
X7484844Y-6873760D01*
X7484844Y-6873760D02*
X7475320Y-6826141D01*
X7475320Y-6826141D02*
X7475320Y-6788046D01*
X7475320Y-6788046D02*
X7484844Y-6740427D01*
X7484844Y-6740427D02*
X7494368Y-6711855D01*
X7494368Y-6711855D02*
X7503891Y-6692808D01*
X7503891Y-6692808D02*
X7522939Y-6664236D01*
X7522939Y-6664236D02*
X7532463Y-6654712D01*
X7589606Y-6683284D02*
X7713415Y-6683284D01*
X7713415Y-6683284D02*
X7646748Y-6759474D01*
X7646748Y-6759474D02*
X7675320Y-6759474D01*
X7675320Y-6759474D02*
X7694368Y-6768998D01*
X7694368Y-6768998D02*
X7703891Y-6778522D01*
X7703891Y-6778522D02*
X7713415Y-6797569D01*
X7713415Y-6797569D02*
X7713415Y-6845188D01*
X7713415Y-6845188D02*
X7703891Y-6864236D01*
X7703891Y-6864236D02*
X7694368Y-6873760D01*
X7694368Y-6873760D02*
X7675320Y-6883284D01*
X7675320Y-6883284D02*
X7618177Y-6883284D01*
X7618177Y-6883284D02*
X7599129Y-6873760D01*
X7599129Y-6873760D02*
X7589606Y-6864236D01*
X7951510Y-6883284D02*
X7951510Y-6683284D01*
X8037225Y-6883284D02*
X8037225Y-6778522D01*
X8037225Y-6778522D02*
X8027701Y-6759474D01*
X8027701Y-6759474D02*
X8008653Y-6749950D01*
X8008653Y-6749950D02*
X7980082Y-6749950D01*
X7980082Y-6749950D02*
X7961034Y-6759474D01*
X7961034Y-6759474D02*
X7951510Y-6768998D01*
X8161034Y-6883284D02*
X8141987Y-6873760D01*
X8141987Y-6873760D02*
X8132463Y-6864236D01*
X8132463Y-6864236D02*
X8122939Y-6845188D01*
X8122939Y-6845188D02*
X8122939Y-6788046D01*
X8122939Y-6788046D02*
X8132463Y-6768998D01*
X8132463Y-6768998D02*
X8141987Y-6759474D01*
X8141987Y-6759474D02*
X8161034Y-6749950D01*
X8161034Y-6749950D02*
X8189606Y-6749950D01*
X8189606Y-6749950D02*
X8208653Y-6759474D01*
X8208653Y-6759474D02*
X8218177Y-6768998D01*
X8218177Y-6768998D02*
X8227701Y-6788046D01*
X8227701Y-6788046D02*
X8227701Y-6845188D01*
X8227701Y-6845188D02*
X8218177Y-6864236D01*
X8218177Y-6864236D02*
X8208653Y-6873760D01*
X8208653Y-6873760D02*
X8189606Y-6883284D01*
X8189606Y-6883284D02*
X8161034Y-6883284D01*
X8341987Y-6883284D02*
X8322939Y-6873760D01*
X8322939Y-6873760D02*
X8313415Y-6854712D01*
X8313415Y-6854712D02*
X8313415Y-6683284D01*
X8494368Y-6873760D02*
X8475320Y-6883284D01*
X8475320Y-6883284D02*
X8437225Y-6883284D01*
X8437225Y-6883284D02*
X8418177Y-6873760D01*
X8418177Y-6873760D02*
X8408653Y-6854712D01*
X8408653Y-6854712D02*
X8408653Y-6778522D01*
X8408653Y-6778522D02*
X8418177Y-6759474D01*
X8418177Y-6759474D02*
X8437225Y-6749950D01*
X8437225Y-6749950D02*
X8475320Y-6749950D01*
X8475320Y-6749950D02*
X8494368Y-6759474D01*
X8494368Y-6759474D02*
X8503892Y-6778522D01*
X8503892Y-6778522D02*
X8503892Y-6797569D01*
X8503892Y-6797569D02*
X8408653Y-6816617D01*
X8580082Y-6873760D02*
X8599130Y-6883284D01*
X8599130Y-6883284D02*
X8637225Y-6883284D01*
X8637225Y-6883284D02*
X8656273Y-6873760D01*
X8656273Y-6873760D02*
X8665796Y-6854712D01*
X8665796Y-6854712D02*
X8665796Y-6845188D01*
X8665796Y-6845188D02*
X8656273Y-6826141D01*
X8656273Y-6826141D02*
X8637225Y-6816617D01*
X8637225Y-6816617D02*
X8608653Y-6816617D01*
X8608653Y-6816617D02*
X8589606Y-6807093D01*
X8589606Y-6807093D02*
X8580082Y-6788046D01*
X8580082Y-6788046D02*
X8580082Y-6778522D01*
X8580082Y-6778522D02*
X8589606Y-6759474D01*
X8589606Y-6759474D02*
X8608653Y-6749950D01*
X8608653Y-6749950D02*
X8637225Y-6749950D01*
X8637225Y-6749950D02*
X8656273Y-6759474D01*
X8732463Y-6959474D02*
X8741987Y-6949950D01*
X8741987Y-6949950D02*
X8761034Y-6921379D01*
X8761034Y-6921379D02*
X8770558Y-6902331D01*
X8770558Y-6902331D02*
X8780082Y-6873760D01*
X8780082Y-6873760D02*
X8789606Y-6826141D01*
X8789606Y-6826141D02*
X8789606Y-6788046D01*
X8789606Y-6788046D02*
X8780082Y-6740427D01*
X8780082Y-6740427D02*
X8770558Y-6711855D01*
X8770558Y-6711855D02*
X8761034Y-6692808D01*
X8761034Y-6692808D02*
X8741987Y-6664236D01*
X8741987Y-6664236D02*
X8732463Y-6654712D01*
D10*
X3957400Y-7055800D02*
G75*
G03*
X3957400Y-7055800I-40000J0D01*
G01*
D11*
X4256272Y-6947284D02*
X4275320Y-6947284D01*
X4275320Y-6947284D02*
X4294367Y-6956808D01*
X4294367Y-6956808D02*
X4303891Y-6966331D01*
X4303891Y-6966331D02*
X4313415Y-6985379D01*
X4313415Y-6985379D02*
X4322939Y-7023474D01*
X4322939Y-7023474D02*
X4322939Y-7071093D01*
X4322939Y-7071093D02*
X4313415Y-7109188D01*
X4313415Y-7109188D02*
X4303891Y-7128236D01*
X4303891Y-7128236D02*
X4294367Y-7137760D01*
X4294367Y-7137760D02*
X4275320Y-7147284D01*
X4275320Y-7147284D02*
X4256272Y-7147284D01*
X4256272Y-7147284D02*
X4237224Y-7137760D01*
X4237224Y-7137760D02*
X4227701Y-7128236D01*
X4227701Y-7128236D02*
X4218177Y-7109188D01*
X4218177Y-7109188D02*
X4208653Y-7071093D01*
X4208653Y-7071093D02*
X4208653Y-7023474D01*
X4208653Y-7023474D02*
X4218177Y-6985379D01*
X4218177Y-6985379D02*
X4227701Y-6966331D01*
X4227701Y-6966331D02*
X4237224Y-6956808D01*
X4237224Y-6956808D02*
X4256272Y-6947284D01*
X4408653Y-7128236D02*
X4418177Y-7137760D01*
X4418177Y-7137760D02*
X4408653Y-7147284D01*
X4408653Y-7147284D02*
X4399129Y-7137760D01*
X4399129Y-7137760D02*
X4408653Y-7128236D01*
X4408653Y-7128236D02*
X4408653Y-7147284D01*
X4532463Y-7032998D02*
X4513415Y-7023474D01*
X4513415Y-7023474D02*
X4503891Y-7013950D01*
X4503891Y-7013950D02*
X4494367Y-6994903D01*
X4494367Y-6994903D02*
X4494367Y-6985379D01*
X4494367Y-6985379D02*
X4503891Y-6966331D01*
X4503891Y-6966331D02*
X4513415Y-6956808D01*
X4513415Y-6956808D02*
X4532463Y-6947284D01*
X4532463Y-6947284D02*
X4570558Y-6947284D01*
X4570558Y-6947284D02*
X4589605Y-6956808D01*
X4589605Y-6956808D02*
X4599129Y-6966331D01*
X4599129Y-6966331D02*
X4608653Y-6985379D01*
X4608653Y-6985379D02*
X4608653Y-6994903D01*
X4608653Y-6994903D02*
X4599129Y-7013950D01*
X4599129Y-7013950D02*
X4589605Y-7023474D01*
X4589605Y-7023474D02*
X4570558Y-7032998D01*
X4570558Y-7032998D02*
X4532463Y-7032998D01*
X4532463Y-7032998D02*
X4513415Y-7042522D01*
X4513415Y-7042522D02*
X4503891Y-7052046D01*
X4503891Y-7052046D02*
X4494367Y-7071093D01*
X4494367Y-7071093D02*
X4494367Y-7109188D01*
X4494367Y-7109188D02*
X4503891Y-7128236D01*
X4503891Y-7128236D02*
X4513415Y-7137760D01*
X4513415Y-7137760D02*
X4532463Y-7147284D01*
X4532463Y-7147284D02*
X4570558Y-7147284D01*
X4570558Y-7147284D02*
X4589605Y-7137760D01*
X4589605Y-7137760D02*
X4599129Y-7128236D01*
X4599129Y-7128236D02*
X4608653Y-7109188D01*
X4608653Y-7109188D02*
X4608653Y-7071093D01*
X4608653Y-7071093D02*
X4599129Y-7052046D01*
X4599129Y-7052046D02*
X4589605Y-7042522D01*
X4589605Y-7042522D02*
X4570558Y-7032998D01*
X4732463Y-6947284D02*
X4751510Y-6947284D01*
X4751510Y-6947284D02*
X4770558Y-6956808D01*
X4770558Y-6956808D02*
X4780082Y-6966331D01*
X4780082Y-6966331D02*
X4789605Y-6985379D01*
X4789605Y-6985379D02*
X4799129Y-7023474D01*
X4799129Y-7023474D02*
X4799129Y-7071093D01*
X4799129Y-7071093D02*
X4789605Y-7109188D01*
X4789605Y-7109188D02*
X4780082Y-7128236D01*
X4780082Y-7128236D02*
X4770558Y-7137760D01*
X4770558Y-7137760D02*
X4751510Y-7147284D01*
X4751510Y-7147284D02*
X4732463Y-7147284D01*
X4732463Y-7147284D02*
X4713415Y-7137760D01*
X4713415Y-7137760D02*
X4703891Y-7128236D01*
X4703891Y-7128236D02*
X4694367Y-7109188D01*
X4694367Y-7109188D02*
X4684844Y-7071093D01*
X4684844Y-7071093D02*
X4684844Y-7023474D01*
X4684844Y-7023474D02*
X4694367Y-6985379D01*
X4694367Y-6985379D02*
X4703891Y-6966331D01*
X4703891Y-6966331D02*
X4713415Y-6956808D01*
X4713415Y-6956808D02*
X4732463Y-6947284D01*
X4922939Y-6947284D02*
X4941986Y-6947284D01*
X4941986Y-6947284D02*
X4961034Y-6956808D01*
X4961034Y-6956808D02*
X4970558Y-6966331D01*
X4970558Y-6966331D02*
X4980082Y-6985379D01*
X4980082Y-6985379D02*
X4989605Y-7023474D01*
X4989605Y-7023474D02*
X4989605Y-7071093D01*
X4989605Y-7071093D02*
X4980082Y-7109188D01*
X4980082Y-7109188D02*
X4970558Y-7128236D01*
X4970558Y-7128236D02*
X4961034Y-7137760D01*
X4961034Y-7137760D02*
X4941986Y-7147284D01*
X4941986Y-7147284D02*
X4922939Y-7147284D01*
X4922939Y-7147284D02*
X4903891Y-7137760D01*
X4903891Y-7137760D02*
X4894367Y-7128236D01*
X4894367Y-7128236D02*
X4884844Y-7109188D01*
X4884844Y-7109188D02*
X4875320Y-7071093D01*
X4875320Y-7071093D02*
X4875320Y-7023474D01*
X4875320Y-7023474D02*
X4884844Y-6985379D01*
X4884844Y-6985379D02*
X4894367Y-6966331D01*
X4894367Y-6966331D02*
X4903891Y-6956808D01*
X4903891Y-6956808D02*
X4922939Y-6947284D01*
X5075320Y-7147284D02*
X5075320Y-7013950D01*
X5075320Y-7032998D02*
X5084844Y-7023474D01*
X5084844Y-7023474D02*
X5103891Y-7013950D01*
X5103891Y-7013950D02*
X5132463Y-7013950D01*
X5132463Y-7013950D02*
X5151510Y-7023474D01*
X5151510Y-7023474D02*
X5161034Y-7042522D01*
X5161034Y-7042522D02*
X5161034Y-7147284D01*
X5161034Y-7042522D02*
X5170558Y-7023474D01*
X5170558Y-7023474D02*
X5189605Y-7013950D01*
X5189605Y-7013950D02*
X5218177Y-7013950D01*
X5218177Y-7013950D02*
X5237225Y-7023474D01*
X5237225Y-7023474D02*
X5246748Y-7042522D01*
X5246748Y-7042522D02*
X5246748Y-7147284D01*
X5341986Y-7147284D02*
X5341986Y-7013950D01*
X5341986Y-7032998D02*
X5351510Y-7023474D01*
X5351510Y-7023474D02*
X5370558Y-7013950D01*
X5370558Y-7013950D02*
X5399129Y-7013950D01*
X5399129Y-7013950D02*
X5418177Y-7023474D01*
X5418177Y-7023474D02*
X5427701Y-7042522D01*
X5427701Y-7042522D02*
X5427701Y-7147284D01*
X5427701Y-7042522D02*
X5437225Y-7023474D01*
X5437225Y-7023474D02*
X5456272Y-7013950D01*
X5456272Y-7013950D02*
X5484844Y-7013950D01*
X5484844Y-7013950D02*
X5503891Y-7023474D01*
X5503891Y-7023474D02*
X5513415Y-7042522D01*
X5513415Y-7042522D02*
X5513415Y-7147284D01*
X5903891Y-6937760D02*
X5732463Y-7194903D01*
X6161034Y-6947284D02*
X6180082Y-6947284D01*
X6180082Y-6947284D02*
X6199129Y-6956808D01*
X6199129Y-6956808D02*
X6208653Y-6966331D01*
X6208653Y-6966331D02*
X6218177Y-6985379D01*
X6218177Y-6985379D02*
X6227701Y-7023474D01*
X6227701Y-7023474D02*
X6227701Y-7071093D01*
X6227701Y-7071093D02*
X6218177Y-7109188D01*
X6218177Y-7109188D02*
X6208653Y-7128236D01*
X6208653Y-7128236D02*
X6199129Y-7137760D01*
X6199129Y-7137760D02*
X6180082Y-7147284D01*
X6180082Y-7147284D02*
X6161034Y-7147284D01*
X6161034Y-7147284D02*
X6141986Y-7137760D01*
X6141986Y-7137760D02*
X6132463Y-7128236D01*
X6132463Y-7128236D02*
X6122939Y-7109188D01*
X6122939Y-7109188D02*
X6113415Y-7071093D01*
X6113415Y-7071093D02*
X6113415Y-7023474D01*
X6113415Y-7023474D02*
X6122939Y-6985379D01*
X6122939Y-6985379D02*
X6132463Y-6966331D01*
X6132463Y-6966331D02*
X6141986Y-6956808D01*
X6141986Y-6956808D02*
X6161034Y-6947284D01*
X6313415Y-7128236D02*
X6322939Y-7137760D01*
X6322939Y-7137760D02*
X6313415Y-7147284D01*
X6313415Y-7147284D02*
X6303891Y-7137760D01*
X6303891Y-7137760D02*
X6313415Y-7128236D01*
X6313415Y-7128236D02*
X6313415Y-7147284D01*
X6446748Y-6947284D02*
X6465796Y-6947284D01*
X6465796Y-6947284D02*
X6484844Y-6956808D01*
X6484844Y-6956808D02*
X6494367Y-6966331D01*
X6494367Y-6966331D02*
X6503891Y-6985379D01*
X6503891Y-6985379D02*
X6513415Y-7023474D01*
X6513415Y-7023474D02*
X6513415Y-7071093D01*
X6513415Y-7071093D02*
X6503891Y-7109188D01*
X6503891Y-7109188D02*
X6494367Y-7128236D01*
X6494367Y-7128236D02*
X6484844Y-7137760D01*
X6484844Y-7137760D02*
X6465796Y-7147284D01*
X6465796Y-7147284D02*
X6446748Y-7147284D01*
X6446748Y-7147284D02*
X6427701Y-7137760D01*
X6427701Y-7137760D02*
X6418177Y-7128236D01*
X6418177Y-7128236D02*
X6408653Y-7109188D01*
X6408653Y-7109188D02*
X6399129Y-7071093D01*
X6399129Y-7071093D02*
X6399129Y-7023474D01*
X6399129Y-7023474D02*
X6408653Y-6985379D01*
X6408653Y-6985379D02*
X6418177Y-6966331D01*
X6418177Y-6966331D02*
X6427701Y-6956808D01*
X6427701Y-6956808D02*
X6446748Y-6947284D01*
X6580082Y-6947284D02*
X6703891Y-6947284D01*
X6703891Y-6947284D02*
X6637225Y-7023474D01*
X6637225Y-7023474D02*
X6665796Y-7023474D01*
X6665796Y-7023474D02*
X6684844Y-7032998D01*
X6684844Y-7032998D02*
X6694367Y-7042522D01*
X6694367Y-7042522D02*
X6703891Y-7061569D01*
X6703891Y-7061569D02*
X6703891Y-7109188D01*
X6703891Y-7109188D02*
X6694367Y-7128236D01*
X6694367Y-7128236D02*
X6684844Y-7137760D01*
X6684844Y-7137760D02*
X6665796Y-7147284D01*
X6665796Y-7147284D02*
X6608653Y-7147284D01*
X6608653Y-7147284D02*
X6589606Y-7137760D01*
X6589606Y-7137760D02*
X6580082Y-7128236D01*
X6894367Y-7147284D02*
X6780082Y-7147284D01*
X6837225Y-7147284D02*
X6837225Y-6947284D01*
X6837225Y-6947284D02*
X6818177Y-6975855D01*
X6818177Y-6975855D02*
X6799129Y-6994903D01*
X6799129Y-6994903D02*
X6780082Y-7004427D01*
X7075320Y-6947284D02*
X6980082Y-6947284D01*
X6980082Y-6947284D02*
X6970558Y-7042522D01*
X6970558Y-7042522D02*
X6980082Y-7032998D01*
X6980082Y-7032998D02*
X6999129Y-7023474D01*
X6999129Y-7023474D02*
X7046748Y-7023474D01*
X7046748Y-7023474D02*
X7065796Y-7032998D01*
X7065796Y-7032998D02*
X7075320Y-7042522D01*
X7075320Y-7042522D02*
X7084844Y-7061569D01*
X7084844Y-7061569D02*
X7084844Y-7109188D01*
X7084844Y-7109188D02*
X7075320Y-7128236D01*
X7075320Y-7128236D02*
X7065796Y-7137760D01*
X7065796Y-7137760D02*
X7046748Y-7147284D01*
X7046748Y-7147284D02*
X6999129Y-7147284D01*
X6999129Y-7147284D02*
X6980082Y-7137760D01*
X6980082Y-7137760D02*
X6970558Y-7128236D01*
X7161034Y-6947284D02*
X7161034Y-6985379D01*
X7237225Y-6947284D02*
X7237225Y-6985379D01*
X7532463Y-7223474D02*
X7522939Y-7213950D01*
X7522939Y-7213950D02*
X7503891Y-7185379D01*
X7503891Y-7185379D02*
X7494368Y-7166331D01*
X7494368Y-7166331D02*
X7484844Y-7137760D01*
X7484844Y-7137760D02*
X7475320Y-7090141D01*
X7475320Y-7090141D02*
X7475320Y-7052046D01*
X7475320Y-7052046D02*
X7484844Y-7004427D01*
X7484844Y-7004427D02*
X7494368Y-6975855D01*
X7494368Y-6975855D02*
X7503891Y-6956808D01*
X7503891Y-6956808D02*
X7522939Y-6928236D01*
X7522939Y-6928236D02*
X7532463Y-6918712D01*
X7589606Y-6947284D02*
X7713415Y-6947284D01*
X7713415Y-6947284D02*
X7646748Y-7023474D01*
X7646748Y-7023474D02*
X7675320Y-7023474D01*
X7675320Y-7023474D02*
X7694368Y-7032998D01*
X7694368Y-7032998D02*
X7703891Y-7042522D01*
X7703891Y-7042522D02*
X7713415Y-7061569D01*
X7713415Y-7061569D02*
X7713415Y-7109188D01*
X7713415Y-7109188D02*
X7703891Y-7128236D01*
X7703891Y-7128236D02*
X7694368Y-7137760D01*
X7694368Y-7137760D02*
X7675320Y-7147284D01*
X7675320Y-7147284D02*
X7618177Y-7147284D01*
X7618177Y-7147284D02*
X7599129Y-7137760D01*
X7599129Y-7137760D02*
X7589606Y-7128236D01*
X7789606Y-6966331D02*
X7799129Y-6956808D01*
X7799129Y-6956808D02*
X7818177Y-6947284D01*
X7818177Y-6947284D02*
X7865796Y-6947284D01*
X7865796Y-6947284D02*
X7884844Y-6956808D01*
X7884844Y-6956808D02*
X7894368Y-6966331D01*
X7894368Y-6966331D02*
X7903891Y-6985379D01*
X7903891Y-6985379D02*
X7903891Y-7004427D01*
X7903891Y-7004427D02*
X7894368Y-7032998D01*
X7894368Y-7032998D02*
X7780082Y-7147284D01*
X7780082Y-7147284D02*
X7903891Y-7147284D01*
X8141987Y-7147284D02*
X8141987Y-6947284D01*
X8227701Y-7147284D02*
X8227701Y-7042522D01*
X8227701Y-7042522D02*
X8218177Y-7023474D01*
X8218177Y-7023474D02*
X8199130Y-7013950D01*
X8199130Y-7013950D02*
X8170558Y-7013950D01*
X8170558Y-7013950D02*
X8151510Y-7023474D01*
X8151510Y-7023474D02*
X8141987Y-7032998D01*
X8351510Y-7147284D02*
X8332463Y-7137760D01*
X8332463Y-7137760D02*
X8322939Y-7128236D01*
X8322939Y-7128236D02*
X8313415Y-7109188D01*
X8313415Y-7109188D02*
X8313415Y-7052046D01*
X8313415Y-7052046D02*
X8322939Y-7032998D01*
X8322939Y-7032998D02*
X8332463Y-7023474D01*
X8332463Y-7023474D02*
X8351510Y-7013950D01*
X8351510Y-7013950D02*
X8380082Y-7013950D01*
X8380082Y-7013950D02*
X8399130Y-7023474D01*
X8399130Y-7023474D02*
X8408653Y-7032998D01*
X8408653Y-7032998D02*
X8418177Y-7052046D01*
X8418177Y-7052046D02*
X8418177Y-7109188D01*
X8418177Y-7109188D02*
X8408653Y-7128236D01*
X8408653Y-7128236D02*
X8399130Y-7137760D01*
X8399130Y-7137760D02*
X8380082Y-7147284D01*
X8380082Y-7147284D02*
X8351510Y-7147284D01*
X8532463Y-7147284D02*
X8513415Y-7137760D01*
X8513415Y-7137760D02*
X8503892Y-7118712D01*
X8503892Y-7118712D02*
X8503892Y-6947284D01*
X8684844Y-7137760D02*
X8665796Y-7147284D01*
X8665796Y-7147284D02*
X8627701Y-7147284D01*
X8627701Y-7147284D02*
X8608653Y-7137760D01*
X8608653Y-7137760D02*
X8599130Y-7118712D01*
X8599130Y-7118712D02*
X8599130Y-7042522D01*
X8599130Y-7042522D02*
X8608653Y-7023474D01*
X8608653Y-7023474D02*
X8627701Y-7013950D01*
X8627701Y-7013950D02*
X8665796Y-7013950D01*
X8665796Y-7013950D02*
X8684844Y-7023474D01*
X8684844Y-7023474D02*
X8694368Y-7042522D01*
X8694368Y-7042522D02*
X8694368Y-7061569D01*
X8694368Y-7061569D02*
X8599130Y-7080617D01*
X8770558Y-7137760D02*
X8789606Y-7147284D01*
X8789606Y-7147284D02*
X8827701Y-7147284D01*
X8827701Y-7147284D02*
X8846749Y-7137760D01*
X8846749Y-7137760D02*
X8856273Y-7118712D01*
X8856273Y-7118712D02*
X8856273Y-7109188D01*
X8856273Y-7109188D02*
X8846749Y-7090141D01*
X8846749Y-7090141D02*
X8827701Y-7080617D01*
X8827701Y-7080617D02*
X8799130Y-7080617D01*
X8799130Y-7080617D02*
X8780082Y-7071093D01*
X8780082Y-7071093D02*
X8770558Y-7052046D01*
X8770558Y-7052046D02*
X8770558Y-7042522D01*
X8770558Y-7042522D02*
X8780082Y-7023474D01*
X8780082Y-7023474D02*
X8799130Y-7013950D01*
X8799130Y-7013950D02*
X8827701Y-7013950D01*
X8827701Y-7013950D02*
X8846749Y-7023474D01*
X8922939Y-7223474D02*
X8932463Y-7213950D01*
X8932463Y-7213950D02*
X8951511Y-7185379D01*
X8951511Y-7185379D02*
X8961034Y-7166331D01*
X8961034Y-7166331D02*
X8970558Y-7137760D01*
X8970558Y-7137760D02*
X8980082Y-7090141D01*
X8980082Y-7090141D02*
X8980082Y-7052046D01*
X8980082Y-7052046D02*
X8970558Y-7004427D01*
X8970558Y-7004427D02*
X8961034Y-6975855D01*
X8961034Y-6975855D02*
X8951511Y-6956808D01*
X8951511Y-6956808D02*
X8932463Y-6928236D01*
X8932463Y-6928236D02*
X8922939Y-6918712D01*
D10*
X3912400Y-7274800D02*
X3912400Y-7364800D01*
X3867400Y-7319800D02*
X3957400Y-7319800D01*
D11*
X4256272Y-7211284D02*
X4275320Y-7211284D01*
X4275320Y-7211284D02*
X4294367Y-7220808D01*
X4294367Y-7220808D02*
X4303891Y-7230331D01*
X4303891Y-7230331D02*
X4313415Y-7249379D01*
X4313415Y-7249379D02*
X4322939Y-7287474D01*
X4322939Y-7287474D02*
X4322939Y-7335093D01*
X4322939Y-7335093D02*
X4313415Y-7373188D01*
X4313415Y-7373188D02*
X4303891Y-7392236D01*
X4303891Y-7392236D02*
X4294367Y-7401760D01*
X4294367Y-7401760D02*
X4275320Y-7411284D01*
X4275320Y-7411284D02*
X4256272Y-7411284D01*
X4256272Y-7411284D02*
X4237224Y-7401760D01*
X4237224Y-7401760D02*
X4227701Y-7392236D01*
X4227701Y-7392236D02*
X4218177Y-7373188D01*
X4218177Y-7373188D02*
X4208653Y-7335093D01*
X4208653Y-7335093D02*
X4208653Y-7287474D01*
X4208653Y-7287474D02*
X4218177Y-7249379D01*
X4218177Y-7249379D02*
X4227701Y-7230331D01*
X4227701Y-7230331D02*
X4237224Y-7220808D01*
X4237224Y-7220808D02*
X4256272Y-7211284D01*
X4408653Y-7392236D02*
X4418177Y-7401760D01*
X4418177Y-7401760D02*
X4408653Y-7411284D01*
X4408653Y-7411284D02*
X4399129Y-7401760D01*
X4399129Y-7401760D02*
X4408653Y-7392236D01*
X4408653Y-7392236D02*
X4408653Y-7411284D01*
X4513415Y-7411284D02*
X4551510Y-7411284D01*
X4551510Y-7411284D02*
X4570558Y-7401760D01*
X4570558Y-7401760D02*
X4580082Y-7392236D01*
X4580082Y-7392236D02*
X4599129Y-7363665D01*
X4599129Y-7363665D02*
X4608653Y-7325569D01*
X4608653Y-7325569D02*
X4608653Y-7249379D01*
X4608653Y-7249379D02*
X4599129Y-7230331D01*
X4599129Y-7230331D02*
X4589605Y-7220808D01*
X4589605Y-7220808D02*
X4570558Y-7211284D01*
X4570558Y-7211284D02*
X4532463Y-7211284D01*
X4532463Y-7211284D02*
X4513415Y-7220808D01*
X4513415Y-7220808D02*
X4503891Y-7230331D01*
X4503891Y-7230331D02*
X4494367Y-7249379D01*
X4494367Y-7249379D02*
X4494367Y-7296998D01*
X4494367Y-7296998D02*
X4503891Y-7316046D01*
X4503891Y-7316046D02*
X4513415Y-7325569D01*
X4513415Y-7325569D02*
X4532463Y-7335093D01*
X4532463Y-7335093D02*
X4570558Y-7335093D01*
X4570558Y-7335093D02*
X4589605Y-7325569D01*
X4589605Y-7325569D02*
X4599129Y-7316046D01*
X4599129Y-7316046D02*
X4608653Y-7296998D01*
X4732463Y-7211284D02*
X4751510Y-7211284D01*
X4751510Y-7211284D02*
X4770558Y-7220808D01*
X4770558Y-7220808D02*
X4780082Y-7230331D01*
X4780082Y-7230331D02*
X4789605Y-7249379D01*
X4789605Y-7249379D02*
X4799129Y-7287474D01*
X4799129Y-7287474D02*
X4799129Y-7335093D01*
X4799129Y-7335093D02*
X4789605Y-7373188D01*
X4789605Y-7373188D02*
X4780082Y-7392236D01*
X4780082Y-7392236D02*
X4770558Y-7401760D01*
X4770558Y-7401760D02*
X4751510Y-7411284D01*
X4751510Y-7411284D02*
X4732463Y-7411284D01*
X4732463Y-7411284D02*
X4713415Y-7401760D01*
X4713415Y-7401760D02*
X4703891Y-7392236D01*
X4703891Y-7392236D02*
X4694367Y-7373188D01*
X4694367Y-7373188D02*
X4684844Y-7335093D01*
X4684844Y-7335093D02*
X4684844Y-7287474D01*
X4684844Y-7287474D02*
X4694367Y-7249379D01*
X4694367Y-7249379D02*
X4703891Y-7230331D01*
X4703891Y-7230331D02*
X4713415Y-7220808D01*
X4713415Y-7220808D02*
X4732463Y-7211284D01*
X4922939Y-7211284D02*
X4941986Y-7211284D01*
X4941986Y-7211284D02*
X4961034Y-7220808D01*
X4961034Y-7220808D02*
X4970558Y-7230331D01*
X4970558Y-7230331D02*
X4980082Y-7249379D01*
X4980082Y-7249379D02*
X4989605Y-7287474D01*
X4989605Y-7287474D02*
X4989605Y-7335093D01*
X4989605Y-7335093D02*
X4980082Y-7373188D01*
X4980082Y-7373188D02*
X4970558Y-7392236D01*
X4970558Y-7392236D02*
X4961034Y-7401760D01*
X4961034Y-7401760D02*
X4941986Y-7411284D01*
X4941986Y-7411284D02*
X4922939Y-7411284D01*
X4922939Y-7411284D02*
X4903891Y-7401760D01*
X4903891Y-7401760D02*
X4894367Y-7392236D01*
X4894367Y-7392236D02*
X4884844Y-7373188D01*
X4884844Y-7373188D02*
X4875320Y-7335093D01*
X4875320Y-7335093D02*
X4875320Y-7287474D01*
X4875320Y-7287474D02*
X4884844Y-7249379D01*
X4884844Y-7249379D02*
X4894367Y-7230331D01*
X4894367Y-7230331D02*
X4903891Y-7220808D01*
X4903891Y-7220808D02*
X4922939Y-7211284D01*
X5075320Y-7411284D02*
X5075320Y-7277950D01*
X5075320Y-7296998D02*
X5084844Y-7287474D01*
X5084844Y-7287474D02*
X5103891Y-7277950D01*
X5103891Y-7277950D02*
X5132463Y-7277950D01*
X5132463Y-7277950D02*
X5151510Y-7287474D01*
X5151510Y-7287474D02*
X5161034Y-7306522D01*
X5161034Y-7306522D02*
X5161034Y-7411284D01*
X5161034Y-7306522D02*
X5170558Y-7287474D01*
X5170558Y-7287474D02*
X5189605Y-7277950D01*
X5189605Y-7277950D02*
X5218177Y-7277950D01*
X5218177Y-7277950D02*
X5237225Y-7287474D01*
X5237225Y-7287474D02*
X5246748Y-7306522D01*
X5246748Y-7306522D02*
X5246748Y-7411284D01*
X5341986Y-7411284D02*
X5341986Y-7277950D01*
X5341986Y-7296998D02*
X5351510Y-7287474D01*
X5351510Y-7287474D02*
X5370558Y-7277950D01*
X5370558Y-7277950D02*
X5399129Y-7277950D01*
X5399129Y-7277950D02*
X5418177Y-7287474D01*
X5418177Y-7287474D02*
X5427701Y-7306522D01*
X5427701Y-7306522D02*
X5427701Y-7411284D01*
X5427701Y-7306522D02*
X5437225Y-7287474D01*
X5437225Y-7287474D02*
X5456272Y-7277950D01*
X5456272Y-7277950D02*
X5484844Y-7277950D01*
X5484844Y-7277950D02*
X5503891Y-7287474D01*
X5503891Y-7287474D02*
X5513415Y-7306522D01*
X5513415Y-7306522D02*
X5513415Y-7411284D01*
X5903891Y-7201760D02*
X5732463Y-7458903D01*
X6161034Y-7211284D02*
X6180082Y-7211284D01*
X6180082Y-7211284D02*
X6199129Y-7220808D01*
X6199129Y-7220808D02*
X6208653Y-7230331D01*
X6208653Y-7230331D02*
X6218177Y-7249379D01*
X6218177Y-7249379D02*
X6227701Y-7287474D01*
X6227701Y-7287474D02*
X6227701Y-7335093D01*
X6227701Y-7335093D02*
X6218177Y-7373188D01*
X6218177Y-7373188D02*
X6208653Y-7392236D01*
X6208653Y-7392236D02*
X6199129Y-7401760D01*
X6199129Y-7401760D02*
X6180082Y-7411284D01*
X6180082Y-7411284D02*
X6161034Y-7411284D01*
X6161034Y-7411284D02*
X6141986Y-7401760D01*
X6141986Y-7401760D02*
X6132463Y-7392236D01*
X6132463Y-7392236D02*
X6122939Y-7373188D01*
X6122939Y-7373188D02*
X6113415Y-7335093D01*
X6113415Y-7335093D02*
X6113415Y-7287474D01*
X6113415Y-7287474D02*
X6122939Y-7249379D01*
X6122939Y-7249379D02*
X6132463Y-7230331D01*
X6132463Y-7230331D02*
X6141986Y-7220808D01*
X6141986Y-7220808D02*
X6161034Y-7211284D01*
X6313415Y-7392236D02*
X6322939Y-7401760D01*
X6322939Y-7401760D02*
X6313415Y-7411284D01*
X6313415Y-7411284D02*
X6303891Y-7401760D01*
X6303891Y-7401760D02*
X6313415Y-7392236D01*
X6313415Y-7392236D02*
X6313415Y-7411284D01*
X6446748Y-7211284D02*
X6465796Y-7211284D01*
X6465796Y-7211284D02*
X6484844Y-7220808D01*
X6484844Y-7220808D02*
X6494367Y-7230331D01*
X6494367Y-7230331D02*
X6503891Y-7249379D01*
X6503891Y-7249379D02*
X6513415Y-7287474D01*
X6513415Y-7287474D02*
X6513415Y-7335093D01*
X6513415Y-7335093D02*
X6503891Y-7373188D01*
X6503891Y-7373188D02*
X6494367Y-7392236D01*
X6494367Y-7392236D02*
X6484844Y-7401760D01*
X6484844Y-7401760D02*
X6465796Y-7411284D01*
X6465796Y-7411284D02*
X6446748Y-7411284D01*
X6446748Y-7411284D02*
X6427701Y-7401760D01*
X6427701Y-7401760D02*
X6418177Y-7392236D01*
X6418177Y-7392236D02*
X6408653Y-7373188D01*
X6408653Y-7373188D02*
X6399129Y-7335093D01*
X6399129Y-7335093D02*
X6399129Y-7287474D01*
X6399129Y-7287474D02*
X6408653Y-7249379D01*
X6408653Y-7249379D02*
X6418177Y-7230331D01*
X6418177Y-7230331D02*
X6427701Y-7220808D01*
X6427701Y-7220808D02*
X6446748Y-7211284D01*
X6580082Y-7211284D02*
X6703891Y-7211284D01*
X6703891Y-7211284D02*
X6637225Y-7287474D01*
X6637225Y-7287474D02*
X6665796Y-7287474D01*
X6665796Y-7287474D02*
X6684844Y-7296998D01*
X6684844Y-7296998D02*
X6694367Y-7306522D01*
X6694367Y-7306522D02*
X6703891Y-7325569D01*
X6703891Y-7325569D02*
X6703891Y-7373188D01*
X6703891Y-7373188D02*
X6694367Y-7392236D01*
X6694367Y-7392236D02*
X6684844Y-7401760D01*
X6684844Y-7401760D02*
X6665796Y-7411284D01*
X6665796Y-7411284D02*
X6608653Y-7411284D01*
X6608653Y-7411284D02*
X6589606Y-7401760D01*
X6589606Y-7401760D02*
X6580082Y-7392236D01*
X6884844Y-7211284D02*
X6789606Y-7211284D01*
X6789606Y-7211284D02*
X6780082Y-7306522D01*
X6780082Y-7306522D02*
X6789606Y-7296998D01*
X6789606Y-7296998D02*
X6808653Y-7287474D01*
X6808653Y-7287474D02*
X6856272Y-7287474D01*
X6856272Y-7287474D02*
X6875320Y-7296998D01*
X6875320Y-7296998D02*
X6884844Y-7306522D01*
X6884844Y-7306522D02*
X6894367Y-7325569D01*
X6894367Y-7325569D02*
X6894367Y-7373188D01*
X6894367Y-7373188D02*
X6884844Y-7392236D01*
X6884844Y-7392236D02*
X6875320Y-7401760D01*
X6875320Y-7401760D02*
X6856272Y-7411284D01*
X6856272Y-7411284D02*
X6808653Y-7411284D01*
X6808653Y-7411284D02*
X6789606Y-7401760D01*
X6789606Y-7401760D02*
X6780082Y-7392236D01*
X7065796Y-7277950D02*
X7065796Y-7411284D01*
X7018177Y-7201760D02*
X6970558Y-7344617D01*
X6970558Y-7344617D02*
X7094367Y-7344617D01*
X7161034Y-7211284D02*
X7161034Y-7249379D01*
X7237225Y-7211284D02*
X7237225Y-7249379D01*
X7532463Y-7487474D02*
X7522939Y-7477950D01*
X7522939Y-7477950D02*
X7503891Y-7449379D01*
X7503891Y-7449379D02*
X7494368Y-7430331D01*
X7494368Y-7430331D02*
X7484844Y-7401760D01*
X7484844Y-7401760D02*
X7475320Y-7354141D01*
X7475320Y-7354141D02*
X7475320Y-7316046D01*
X7475320Y-7316046D02*
X7484844Y-7268427D01*
X7484844Y-7268427D02*
X7494368Y-7239855D01*
X7494368Y-7239855D02*
X7503891Y-7220808D01*
X7503891Y-7220808D02*
X7522939Y-7192236D01*
X7522939Y-7192236D02*
X7532463Y-7182712D01*
X7694368Y-7211284D02*
X7656272Y-7211284D01*
X7656272Y-7211284D02*
X7637225Y-7220808D01*
X7637225Y-7220808D02*
X7627701Y-7230331D01*
X7627701Y-7230331D02*
X7608653Y-7258903D01*
X7608653Y-7258903D02*
X7599129Y-7296998D01*
X7599129Y-7296998D02*
X7599129Y-7373188D01*
X7599129Y-7373188D02*
X7608653Y-7392236D01*
X7608653Y-7392236D02*
X7618177Y-7401760D01*
X7618177Y-7401760D02*
X7637225Y-7411284D01*
X7637225Y-7411284D02*
X7675320Y-7411284D01*
X7675320Y-7411284D02*
X7694368Y-7401760D01*
X7694368Y-7401760D02*
X7703891Y-7392236D01*
X7703891Y-7392236D02*
X7713415Y-7373188D01*
X7713415Y-7373188D02*
X7713415Y-7325569D01*
X7713415Y-7325569D02*
X7703891Y-7306522D01*
X7703891Y-7306522D02*
X7694368Y-7296998D01*
X7694368Y-7296998D02*
X7675320Y-7287474D01*
X7675320Y-7287474D02*
X7637225Y-7287474D01*
X7637225Y-7287474D02*
X7618177Y-7296998D01*
X7618177Y-7296998D02*
X7608653Y-7306522D01*
X7608653Y-7306522D02*
X7599129Y-7325569D01*
X7951510Y-7411284D02*
X7951510Y-7211284D01*
X8037225Y-7411284D02*
X8037225Y-7306522D01*
X8037225Y-7306522D02*
X8027701Y-7287474D01*
X8027701Y-7287474D02*
X8008653Y-7277950D01*
X8008653Y-7277950D02*
X7980082Y-7277950D01*
X7980082Y-7277950D02*
X7961034Y-7287474D01*
X7961034Y-7287474D02*
X7951510Y-7296998D01*
X8161034Y-7411284D02*
X8141987Y-7401760D01*
X8141987Y-7401760D02*
X8132463Y-7392236D01*
X8132463Y-7392236D02*
X8122939Y-7373188D01*
X8122939Y-7373188D02*
X8122939Y-7316046D01*
X8122939Y-7316046D02*
X8132463Y-7296998D01*
X8132463Y-7296998D02*
X8141987Y-7287474D01*
X8141987Y-7287474D02*
X8161034Y-7277950D01*
X8161034Y-7277950D02*
X8189606Y-7277950D01*
X8189606Y-7277950D02*
X8208653Y-7287474D01*
X8208653Y-7287474D02*
X8218177Y-7296998D01*
X8218177Y-7296998D02*
X8227701Y-7316046D01*
X8227701Y-7316046D02*
X8227701Y-7373188D01*
X8227701Y-7373188D02*
X8218177Y-7392236D01*
X8218177Y-7392236D02*
X8208653Y-7401760D01*
X8208653Y-7401760D02*
X8189606Y-7411284D01*
X8189606Y-7411284D02*
X8161034Y-7411284D01*
X8341987Y-7411284D02*
X8322939Y-7401760D01*
X8322939Y-7401760D02*
X8313415Y-7382712D01*
X8313415Y-7382712D02*
X8313415Y-7211284D01*
X8494368Y-7401760D02*
X8475320Y-7411284D01*
X8475320Y-7411284D02*
X8437225Y-7411284D01*
X8437225Y-7411284D02*
X8418177Y-7401760D01*
X8418177Y-7401760D02*
X8408653Y-7382712D01*
X8408653Y-7382712D02*
X8408653Y-7306522D01*
X8408653Y-7306522D02*
X8418177Y-7287474D01*
X8418177Y-7287474D02*
X8437225Y-7277950D01*
X8437225Y-7277950D02*
X8475320Y-7277950D01*
X8475320Y-7277950D02*
X8494368Y-7287474D01*
X8494368Y-7287474D02*
X8503892Y-7306522D01*
X8503892Y-7306522D02*
X8503892Y-7325569D01*
X8503892Y-7325569D02*
X8408653Y-7344617D01*
X8580082Y-7401760D02*
X8599130Y-7411284D01*
X8599130Y-7411284D02*
X8637225Y-7411284D01*
X8637225Y-7411284D02*
X8656273Y-7401760D01*
X8656273Y-7401760D02*
X8665796Y-7382712D01*
X8665796Y-7382712D02*
X8665796Y-7373188D01*
X8665796Y-7373188D02*
X8656273Y-7354141D01*
X8656273Y-7354141D02*
X8637225Y-7344617D01*
X8637225Y-7344617D02*
X8608653Y-7344617D01*
X8608653Y-7344617D02*
X8589606Y-7335093D01*
X8589606Y-7335093D02*
X8580082Y-7316046D01*
X8580082Y-7316046D02*
X8580082Y-7306522D01*
X8580082Y-7306522D02*
X8589606Y-7287474D01*
X8589606Y-7287474D02*
X8608653Y-7277950D01*
X8608653Y-7277950D02*
X8637225Y-7277950D01*
X8637225Y-7277950D02*
X8656273Y-7287474D01*
X8732463Y-7487474D02*
X8741987Y-7477950D01*
X8741987Y-7477950D02*
X8761034Y-7449379D01*
X8761034Y-7449379D02*
X8770558Y-7430331D01*
X8770558Y-7430331D02*
X8780082Y-7401760D01*
X8780082Y-7401760D02*
X8789606Y-7354141D01*
X8789606Y-7354141D02*
X8789606Y-7316046D01*
X8789606Y-7316046D02*
X8780082Y-7268427D01*
X8780082Y-7268427D02*
X8770558Y-7239855D01*
X8770558Y-7239855D02*
X8761034Y-7220808D01*
X8761034Y-7220808D02*
X8741987Y-7192236D01*
X8741987Y-7192236D02*
X8732463Y-7182712D01*
D10*
X3943488Y-7617388D02*
X3943488Y-7550212D01*
X3876312Y-7550212D01*
X3876312Y-7617388D01*
X3943488Y-7617388D01*
D11*
X4256272Y-7475284D02*
X4275320Y-7475284D01*
X4275320Y-7475284D02*
X4294367Y-7484808D01*
X4294367Y-7484808D02*
X4303891Y-7494331D01*
X4303891Y-7494331D02*
X4313415Y-7513379D01*
X4313415Y-7513379D02*
X4322939Y-7551474D01*
X4322939Y-7551474D02*
X4322939Y-7599093D01*
X4322939Y-7599093D02*
X4313415Y-7637188D01*
X4313415Y-7637188D02*
X4303891Y-7656236D01*
X4303891Y-7656236D02*
X4294367Y-7665760D01*
X4294367Y-7665760D02*
X4275320Y-7675284D01*
X4275320Y-7675284D02*
X4256272Y-7675284D01*
X4256272Y-7675284D02*
X4237224Y-7665760D01*
X4237224Y-7665760D02*
X4227701Y-7656236D01*
X4227701Y-7656236D02*
X4218177Y-7637188D01*
X4218177Y-7637188D02*
X4208653Y-7599093D01*
X4208653Y-7599093D02*
X4208653Y-7551474D01*
X4208653Y-7551474D02*
X4218177Y-7513379D01*
X4218177Y-7513379D02*
X4227701Y-7494331D01*
X4227701Y-7494331D02*
X4237224Y-7484808D01*
X4237224Y-7484808D02*
X4256272Y-7475284D01*
X4408653Y-7656236D02*
X4418177Y-7665760D01*
X4418177Y-7665760D02*
X4408653Y-7675284D01*
X4408653Y-7675284D02*
X4399129Y-7665760D01*
X4399129Y-7665760D02*
X4408653Y-7656236D01*
X4408653Y-7656236D02*
X4408653Y-7675284D01*
X4513415Y-7675284D02*
X4551510Y-7675284D01*
X4551510Y-7675284D02*
X4570558Y-7665760D01*
X4570558Y-7665760D02*
X4580082Y-7656236D01*
X4580082Y-7656236D02*
X4599129Y-7627665D01*
X4599129Y-7627665D02*
X4608653Y-7589569D01*
X4608653Y-7589569D02*
X4608653Y-7513379D01*
X4608653Y-7513379D02*
X4599129Y-7494331D01*
X4599129Y-7494331D02*
X4589605Y-7484808D01*
X4589605Y-7484808D02*
X4570558Y-7475284D01*
X4570558Y-7475284D02*
X4532463Y-7475284D01*
X4532463Y-7475284D02*
X4513415Y-7484808D01*
X4513415Y-7484808D02*
X4503891Y-7494331D01*
X4503891Y-7494331D02*
X4494367Y-7513379D01*
X4494367Y-7513379D02*
X4494367Y-7560998D01*
X4494367Y-7560998D02*
X4503891Y-7580046D01*
X4503891Y-7580046D02*
X4513415Y-7589569D01*
X4513415Y-7589569D02*
X4532463Y-7599093D01*
X4532463Y-7599093D02*
X4570558Y-7599093D01*
X4570558Y-7599093D02*
X4589605Y-7589569D01*
X4589605Y-7589569D02*
X4599129Y-7580046D01*
X4599129Y-7580046D02*
X4608653Y-7560998D01*
X4789605Y-7475284D02*
X4694367Y-7475284D01*
X4694367Y-7475284D02*
X4684844Y-7570522D01*
X4684844Y-7570522D02*
X4694367Y-7560998D01*
X4694367Y-7560998D02*
X4713415Y-7551474D01*
X4713415Y-7551474D02*
X4761034Y-7551474D01*
X4761034Y-7551474D02*
X4780082Y-7560998D01*
X4780082Y-7560998D02*
X4789605Y-7570522D01*
X4789605Y-7570522D02*
X4799129Y-7589569D01*
X4799129Y-7589569D02*
X4799129Y-7637188D01*
X4799129Y-7637188D02*
X4789605Y-7656236D01*
X4789605Y-7656236D02*
X4780082Y-7665760D01*
X4780082Y-7665760D02*
X4761034Y-7675284D01*
X4761034Y-7675284D02*
X4713415Y-7675284D01*
X4713415Y-7675284D02*
X4694367Y-7665760D01*
X4694367Y-7665760D02*
X4684844Y-7656236D01*
X4922939Y-7475284D02*
X4941986Y-7475284D01*
X4941986Y-7475284D02*
X4961034Y-7484808D01*
X4961034Y-7484808D02*
X4970558Y-7494331D01*
X4970558Y-7494331D02*
X4980082Y-7513379D01*
X4980082Y-7513379D02*
X4989605Y-7551474D01*
X4989605Y-7551474D02*
X4989605Y-7599093D01*
X4989605Y-7599093D02*
X4980082Y-7637188D01*
X4980082Y-7637188D02*
X4970558Y-7656236D01*
X4970558Y-7656236D02*
X4961034Y-7665760D01*
X4961034Y-7665760D02*
X4941986Y-7675284D01*
X4941986Y-7675284D02*
X4922939Y-7675284D01*
X4922939Y-7675284D02*
X4903891Y-7665760D01*
X4903891Y-7665760D02*
X4894367Y-7656236D01*
X4894367Y-7656236D02*
X4884844Y-7637188D01*
X4884844Y-7637188D02*
X4875320Y-7599093D01*
X4875320Y-7599093D02*
X4875320Y-7551474D01*
X4875320Y-7551474D02*
X4884844Y-7513379D01*
X4884844Y-7513379D02*
X4894367Y-7494331D01*
X4894367Y-7494331D02*
X4903891Y-7484808D01*
X4903891Y-7484808D02*
X4922939Y-7475284D01*
X5075320Y-7675284D02*
X5075320Y-7541950D01*
X5075320Y-7560998D02*
X5084844Y-7551474D01*
X5084844Y-7551474D02*
X5103891Y-7541950D01*
X5103891Y-7541950D02*
X5132463Y-7541950D01*
X5132463Y-7541950D02*
X5151510Y-7551474D01*
X5151510Y-7551474D02*
X5161034Y-7570522D01*
X5161034Y-7570522D02*
X5161034Y-7675284D01*
X5161034Y-7570522D02*
X5170558Y-7551474D01*
X5170558Y-7551474D02*
X5189605Y-7541950D01*
X5189605Y-7541950D02*
X5218177Y-7541950D01*
X5218177Y-7541950D02*
X5237225Y-7551474D01*
X5237225Y-7551474D02*
X5246748Y-7570522D01*
X5246748Y-7570522D02*
X5246748Y-7675284D01*
X5341986Y-7675284D02*
X5341986Y-7541950D01*
X5341986Y-7560998D02*
X5351510Y-7551474D01*
X5351510Y-7551474D02*
X5370558Y-7541950D01*
X5370558Y-7541950D02*
X5399129Y-7541950D01*
X5399129Y-7541950D02*
X5418177Y-7551474D01*
X5418177Y-7551474D02*
X5427701Y-7570522D01*
X5427701Y-7570522D02*
X5427701Y-7675284D01*
X5427701Y-7570522D02*
X5437225Y-7551474D01*
X5437225Y-7551474D02*
X5456272Y-7541950D01*
X5456272Y-7541950D02*
X5484844Y-7541950D01*
X5484844Y-7541950D02*
X5503891Y-7551474D01*
X5503891Y-7551474D02*
X5513415Y-7570522D01*
X5513415Y-7570522D02*
X5513415Y-7675284D01*
X5903891Y-7465760D02*
X5732463Y-7722903D01*
X6161034Y-7475284D02*
X6180082Y-7475284D01*
X6180082Y-7475284D02*
X6199129Y-7484808D01*
X6199129Y-7484808D02*
X6208653Y-7494331D01*
X6208653Y-7494331D02*
X6218177Y-7513379D01*
X6218177Y-7513379D02*
X6227701Y-7551474D01*
X6227701Y-7551474D02*
X6227701Y-7599093D01*
X6227701Y-7599093D02*
X6218177Y-7637188D01*
X6218177Y-7637188D02*
X6208653Y-7656236D01*
X6208653Y-7656236D02*
X6199129Y-7665760D01*
X6199129Y-7665760D02*
X6180082Y-7675284D01*
X6180082Y-7675284D02*
X6161034Y-7675284D01*
X6161034Y-7675284D02*
X6141986Y-7665760D01*
X6141986Y-7665760D02*
X6132463Y-7656236D01*
X6132463Y-7656236D02*
X6122939Y-7637188D01*
X6122939Y-7637188D02*
X6113415Y-7599093D01*
X6113415Y-7599093D02*
X6113415Y-7551474D01*
X6113415Y-7551474D02*
X6122939Y-7513379D01*
X6122939Y-7513379D02*
X6132463Y-7494331D01*
X6132463Y-7494331D02*
X6141986Y-7484808D01*
X6141986Y-7484808D02*
X6161034Y-7475284D01*
X6313415Y-7656236D02*
X6322939Y-7665760D01*
X6322939Y-7665760D02*
X6313415Y-7675284D01*
X6313415Y-7675284D02*
X6303891Y-7665760D01*
X6303891Y-7665760D02*
X6313415Y-7656236D01*
X6313415Y-7656236D02*
X6313415Y-7675284D01*
X6446748Y-7475284D02*
X6465796Y-7475284D01*
X6465796Y-7475284D02*
X6484844Y-7484808D01*
X6484844Y-7484808D02*
X6494367Y-7494331D01*
X6494367Y-7494331D02*
X6503891Y-7513379D01*
X6503891Y-7513379D02*
X6513415Y-7551474D01*
X6513415Y-7551474D02*
X6513415Y-7599093D01*
X6513415Y-7599093D02*
X6503891Y-7637188D01*
X6503891Y-7637188D02*
X6494367Y-7656236D01*
X6494367Y-7656236D02*
X6484844Y-7665760D01*
X6484844Y-7665760D02*
X6465796Y-7675284D01*
X6465796Y-7675284D02*
X6446748Y-7675284D01*
X6446748Y-7675284D02*
X6427701Y-7665760D01*
X6427701Y-7665760D02*
X6418177Y-7656236D01*
X6418177Y-7656236D02*
X6408653Y-7637188D01*
X6408653Y-7637188D02*
X6399129Y-7599093D01*
X6399129Y-7599093D02*
X6399129Y-7551474D01*
X6399129Y-7551474D02*
X6408653Y-7513379D01*
X6408653Y-7513379D02*
X6418177Y-7494331D01*
X6418177Y-7494331D02*
X6427701Y-7484808D01*
X6427701Y-7484808D02*
X6446748Y-7475284D01*
X6580082Y-7475284D02*
X6703891Y-7475284D01*
X6703891Y-7475284D02*
X6637225Y-7551474D01*
X6637225Y-7551474D02*
X6665796Y-7551474D01*
X6665796Y-7551474D02*
X6684844Y-7560998D01*
X6684844Y-7560998D02*
X6694367Y-7570522D01*
X6694367Y-7570522D02*
X6703891Y-7589569D01*
X6703891Y-7589569D02*
X6703891Y-7637188D01*
X6703891Y-7637188D02*
X6694367Y-7656236D01*
X6694367Y-7656236D02*
X6684844Y-7665760D01*
X6684844Y-7665760D02*
X6665796Y-7675284D01*
X6665796Y-7675284D02*
X6608653Y-7675284D01*
X6608653Y-7675284D02*
X6589606Y-7665760D01*
X6589606Y-7665760D02*
X6580082Y-7656236D01*
X6770558Y-7475284D02*
X6903891Y-7475284D01*
X6903891Y-7475284D02*
X6818177Y-7675284D01*
X7065796Y-7541950D02*
X7065796Y-7675284D01*
X7018177Y-7465760D02*
X6970558Y-7608617D01*
X6970558Y-7608617D02*
X7094367Y-7608617D01*
X7161034Y-7475284D02*
X7161034Y-7513379D01*
X7237225Y-7475284D02*
X7237225Y-7513379D01*
X7532463Y-7751474D02*
X7522939Y-7741950D01*
X7522939Y-7741950D02*
X7503891Y-7713379D01*
X7503891Y-7713379D02*
X7494368Y-7694331D01*
X7494368Y-7694331D02*
X7484844Y-7665760D01*
X7484844Y-7665760D02*
X7475320Y-7618141D01*
X7475320Y-7618141D02*
X7475320Y-7580046D01*
X7475320Y-7580046D02*
X7484844Y-7532427D01*
X7484844Y-7532427D02*
X7494368Y-7503855D01*
X7494368Y-7503855D02*
X7503891Y-7484808D01*
X7503891Y-7484808D02*
X7522939Y-7456236D01*
X7522939Y-7456236D02*
X7532463Y-7446712D01*
X7589606Y-7475284D02*
X7713415Y-7475284D01*
X7713415Y-7475284D02*
X7646748Y-7551474D01*
X7646748Y-7551474D02*
X7675320Y-7551474D01*
X7675320Y-7551474D02*
X7694368Y-7560998D01*
X7694368Y-7560998D02*
X7703891Y-7570522D01*
X7703891Y-7570522D02*
X7713415Y-7589569D01*
X7713415Y-7589569D02*
X7713415Y-7637188D01*
X7713415Y-7637188D02*
X7703891Y-7656236D01*
X7703891Y-7656236D02*
X7694368Y-7665760D01*
X7694368Y-7665760D02*
X7675320Y-7675284D01*
X7675320Y-7675284D02*
X7618177Y-7675284D01*
X7618177Y-7675284D02*
X7599129Y-7665760D01*
X7599129Y-7665760D02*
X7589606Y-7656236D01*
X7951510Y-7675284D02*
X7951510Y-7475284D01*
X8037225Y-7675284D02*
X8037225Y-7570522D01*
X8037225Y-7570522D02*
X8027701Y-7551474D01*
X8027701Y-7551474D02*
X8008653Y-7541950D01*
X8008653Y-7541950D02*
X7980082Y-7541950D01*
X7980082Y-7541950D02*
X7961034Y-7551474D01*
X7961034Y-7551474D02*
X7951510Y-7560998D01*
X8161034Y-7675284D02*
X8141987Y-7665760D01*
X8141987Y-7665760D02*
X8132463Y-7656236D01*
X8132463Y-7656236D02*
X8122939Y-7637188D01*
X8122939Y-7637188D02*
X8122939Y-7580046D01*
X8122939Y-7580046D02*
X8132463Y-7560998D01*
X8132463Y-7560998D02*
X8141987Y-7551474D01*
X8141987Y-7551474D02*
X8161034Y-7541950D01*
X8161034Y-7541950D02*
X8189606Y-7541950D01*
X8189606Y-7541950D02*
X8208653Y-7551474D01*
X8208653Y-7551474D02*
X8218177Y-7560998D01*
X8218177Y-7560998D02*
X8227701Y-7580046D01*
X8227701Y-7580046D02*
X8227701Y-7637188D01*
X8227701Y-7637188D02*
X8218177Y-7656236D01*
X8218177Y-7656236D02*
X8208653Y-7665760D01*
X8208653Y-7665760D02*
X8189606Y-7675284D01*
X8189606Y-7675284D02*
X8161034Y-7675284D01*
X8341987Y-7675284D02*
X8322939Y-7665760D01*
X8322939Y-7665760D02*
X8313415Y-7646712D01*
X8313415Y-7646712D02*
X8313415Y-7475284D01*
X8494368Y-7665760D02*
X8475320Y-7675284D01*
X8475320Y-7675284D02*
X8437225Y-7675284D01*
X8437225Y-7675284D02*
X8418177Y-7665760D01*
X8418177Y-7665760D02*
X8408653Y-7646712D01*
X8408653Y-7646712D02*
X8408653Y-7570522D01*
X8408653Y-7570522D02*
X8418177Y-7551474D01*
X8418177Y-7551474D02*
X8437225Y-7541950D01*
X8437225Y-7541950D02*
X8475320Y-7541950D01*
X8475320Y-7541950D02*
X8494368Y-7551474D01*
X8494368Y-7551474D02*
X8503892Y-7570522D01*
X8503892Y-7570522D02*
X8503892Y-7589569D01*
X8503892Y-7589569D02*
X8408653Y-7608617D01*
X8580082Y-7665760D02*
X8599130Y-7675284D01*
X8599130Y-7675284D02*
X8637225Y-7675284D01*
X8637225Y-7675284D02*
X8656273Y-7665760D01*
X8656273Y-7665760D02*
X8665796Y-7646712D01*
X8665796Y-7646712D02*
X8665796Y-7637188D01*
X8665796Y-7637188D02*
X8656273Y-7618141D01*
X8656273Y-7618141D02*
X8637225Y-7608617D01*
X8637225Y-7608617D02*
X8608653Y-7608617D01*
X8608653Y-7608617D02*
X8589606Y-7599093D01*
X8589606Y-7599093D02*
X8580082Y-7580046D01*
X8580082Y-7580046D02*
X8580082Y-7570522D01*
X8580082Y-7570522D02*
X8589606Y-7551474D01*
X8589606Y-7551474D02*
X8608653Y-7541950D01*
X8608653Y-7541950D02*
X8637225Y-7541950D01*
X8637225Y-7541950D02*
X8656273Y-7551474D01*
X8732463Y-7751474D02*
X8741987Y-7741950D01*
X8741987Y-7741950D02*
X8761034Y-7713379D01*
X8761034Y-7713379D02*
X8770558Y-7694331D01*
X8770558Y-7694331D02*
X8780082Y-7665760D01*
X8780082Y-7665760D02*
X8789606Y-7618141D01*
X8789606Y-7618141D02*
X8789606Y-7580046D01*
X8789606Y-7580046D02*
X8780082Y-7532427D01*
X8780082Y-7532427D02*
X8770558Y-7503855D01*
X8770558Y-7503855D02*
X8761034Y-7484808D01*
X8761034Y-7484808D02*
X8741987Y-7456236D01*
X8741987Y-7456236D02*
X8732463Y-7446712D01*
D10*
X3907400Y-7897800D02*
X3957400Y-7847800D01*
X3907400Y-7797800D01*
X3857400Y-7847800D01*
X3907400Y-7897800D01*
D11*
X4322939Y-7939284D02*
X4208653Y-7939284D01*
X4265796Y-7939284D02*
X4265796Y-7739284D01*
X4265796Y-7739284D02*
X4246748Y-7767855D01*
X4246748Y-7767855D02*
X4227701Y-7786903D01*
X4227701Y-7786903D02*
X4208653Y-7796427D01*
X4408653Y-7920236D02*
X4418177Y-7929760D01*
X4418177Y-7929760D02*
X4408653Y-7939284D01*
X4408653Y-7939284D02*
X4399129Y-7929760D01*
X4399129Y-7929760D02*
X4408653Y-7920236D01*
X4408653Y-7920236D02*
X4408653Y-7939284D01*
X4541986Y-7739284D02*
X4561034Y-7739284D01*
X4561034Y-7739284D02*
X4580082Y-7748808D01*
X4580082Y-7748808D02*
X4589605Y-7758331D01*
X4589605Y-7758331D02*
X4599129Y-7777379D01*
X4599129Y-7777379D02*
X4608653Y-7815474D01*
X4608653Y-7815474D02*
X4608653Y-7863093D01*
X4608653Y-7863093D02*
X4599129Y-7901188D01*
X4599129Y-7901188D02*
X4589605Y-7920236D01*
X4589605Y-7920236D02*
X4580082Y-7929760D01*
X4580082Y-7929760D02*
X4561034Y-7939284D01*
X4561034Y-7939284D02*
X4541986Y-7939284D01*
X4541986Y-7939284D02*
X4522939Y-7929760D01*
X4522939Y-7929760D02*
X4513415Y-7920236D01*
X4513415Y-7920236D02*
X4503891Y-7901188D01*
X4503891Y-7901188D02*
X4494367Y-7863093D01*
X4494367Y-7863093D02*
X4494367Y-7815474D01*
X4494367Y-7815474D02*
X4503891Y-7777379D01*
X4503891Y-7777379D02*
X4513415Y-7758331D01*
X4513415Y-7758331D02*
X4522939Y-7748808D01*
X4522939Y-7748808D02*
X4541986Y-7739284D01*
X4732463Y-7739284D02*
X4751510Y-7739284D01*
X4751510Y-7739284D02*
X4770558Y-7748808D01*
X4770558Y-7748808D02*
X4780082Y-7758331D01*
X4780082Y-7758331D02*
X4789605Y-7777379D01*
X4789605Y-7777379D02*
X4799129Y-7815474D01*
X4799129Y-7815474D02*
X4799129Y-7863093D01*
X4799129Y-7863093D02*
X4789605Y-7901188D01*
X4789605Y-7901188D02*
X4780082Y-7920236D01*
X4780082Y-7920236D02*
X4770558Y-7929760D01*
X4770558Y-7929760D02*
X4751510Y-7939284D01*
X4751510Y-7939284D02*
X4732463Y-7939284D01*
X4732463Y-7939284D02*
X4713415Y-7929760D01*
X4713415Y-7929760D02*
X4703891Y-7920236D01*
X4703891Y-7920236D02*
X4694367Y-7901188D01*
X4694367Y-7901188D02*
X4684844Y-7863093D01*
X4684844Y-7863093D02*
X4684844Y-7815474D01*
X4684844Y-7815474D02*
X4694367Y-7777379D01*
X4694367Y-7777379D02*
X4703891Y-7758331D01*
X4703891Y-7758331D02*
X4713415Y-7748808D01*
X4713415Y-7748808D02*
X4732463Y-7739284D01*
X4922939Y-7739284D02*
X4941986Y-7739284D01*
X4941986Y-7739284D02*
X4961034Y-7748808D01*
X4961034Y-7748808D02*
X4970558Y-7758331D01*
X4970558Y-7758331D02*
X4980082Y-7777379D01*
X4980082Y-7777379D02*
X4989605Y-7815474D01*
X4989605Y-7815474D02*
X4989605Y-7863093D01*
X4989605Y-7863093D02*
X4980082Y-7901188D01*
X4980082Y-7901188D02*
X4970558Y-7920236D01*
X4970558Y-7920236D02*
X4961034Y-7929760D01*
X4961034Y-7929760D02*
X4941986Y-7939284D01*
X4941986Y-7939284D02*
X4922939Y-7939284D01*
X4922939Y-7939284D02*
X4903891Y-7929760D01*
X4903891Y-7929760D02*
X4894367Y-7920236D01*
X4894367Y-7920236D02*
X4884844Y-7901188D01*
X4884844Y-7901188D02*
X4875320Y-7863093D01*
X4875320Y-7863093D02*
X4875320Y-7815474D01*
X4875320Y-7815474D02*
X4884844Y-7777379D01*
X4884844Y-7777379D02*
X4894367Y-7758331D01*
X4894367Y-7758331D02*
X4903891Y-7748808D01*
X4903891Y-7748808D02*
X4922939Y-7739284D01*
X5075320Y-7939284D02*
X5075320Y-7805950D01*
X5075320Y-7824998D02*
X5084844Y-7815474D01*
X5084844Y-7815474D02*
X5103891Y-7805950D01*
X5103891Y-7805950D02*
X5132463Y-7805950D01*
X5132463Y-7805950D02*
X5151510Y-7815474D01*
X5151510Y-7815474D02*
X5161034Y-7834522D01*
X5161034Y-7834522D02*
X5161034Y-7939284D01*
X5161034Y-7834522D02*
X5170558Y-7815474D01*
X5170558Y-7815474D02*
X5189605Y-7805950D01*
X5189605Y-7805950D02*
X5218177Y-7805950D01*
X5218177Y-7805950D02*
X5237225Y-7815474D01*
X5237225Y-7815474D02*
X5246748Y-7834522D01*
X5246748Y-7834522D02*
X5246748Y-7939284D01*
X5341986Y-7939284D02*
X5341986Y-7805950D01*
X5341986Y-7824998D02*
X5351510Y-7815474D01*
X5351510Y-7815474D02*
X5370558Y-7805950D01*
X5370558Y-7805950D02*
X5399129Y-7805950D01*
X5399129Y-7805950D02*
X5418177Y-7815474D01*
X5418177Y-7815474D02*
X5427701Y-7834522D01*
X5427701Y-7834522D02*
X5427701Y-7939284D01*
X5427701Y-7834522D02*
X5437225Y-7815474D01*
X5437225Y-7815474D02*
X5456272Y-7805950D01*
X5456272Y-7805950D02*
X5484844Y-7805950D01*
X5484844Y-7805950D02*
X5503891Y-7815474D01*
X5503891Y-7815474D02*
X5513415Y-7834522D01*
X5513415Y-7834522D02*
X5513415Y-7939284D01*
X5903891Y-7729760D02*
X5732463Y-7986903D01*
X6161034Y-7739284D02*
X6180082Y-7739284D01*
X6180082Y-7739284D02*
X6199129Y-7748808D01*
X6199129Y-7748808D02*
X6208653Y-7758331D01*
X6208653Y-7758331D02*
X6218177Y-7777379D01*
X6218177Y-7777379D02*
X6227701Y-7815474D01*
X6227701Y-7815474D02*
X6227701Y-7863093D01*
X6227701Y-7863093D02*
X6218177Y-7901188D01*
X6218177Y-7901188D02*
X6208653Y-7920236D01*
X6208653Y-7920236D02*
X6199129Y-7929760D01*
X6199129Y-7929760D02*
X6180082Y-7939284D01*
X6180082Y-7939284D02*
X6161034Y-7939284D01*
X6161034Y-7939284D02*
X6141986Y-7929760D01*
X6141986Y-7929760D02*
X6132463Y-7920236D01*
X6132463Y-7920236D02*
X6122939Y-7901188D01*
X6122939Y-7901188D02*
X6113415Y-7863093D01*
X6113415Y-7863093D02*
X6113415Y-7815474D01*
X6113415Y-7815474D02*
X6122939Y-7777379D01*
X6122939Y-7777379D02*
X6132463Y-7758331D01*
X6132463Y-7758331D02*
X6141986Y-7748808D01*
X6141986Y-7748808D02*
X6161034Y-7739284D01*
X6313415Y-7920236D02*
X6322939Y-7929760D01*
X6322939Y-7929760D02*
X6313415Y-7939284D01*
X6313415Y-7939284D02*
X6303891Y-7929760D01*
X6303891Y-7929760D02*
X6313415Y-7920236D01*
X6313415Y-7920236D02*
X6313415Y-7939284D01*
X6446748Y-7739284D02*
X6465796Y-7739284D01*
X6465796Y-7739284D02*
X6484844Y-7748808D01*
X6484844Y-7748808D02*
X6494367Y-7758331D01*
X6494367Y-7758331D02*
X6503891Y-7777379D01*
X6503891Y-7777379D02*
X6513415Y-7815474D01*
X6513415Y-7815474D02*
X6513415Y-7863093D01*
X6513415Y-7863093D02*
X6503891Y-7901188D01*
X6503891Y-7901188D02*
X6494367Y-7920236D01*
X6494367Y-7920236D02*
X6484844Y-7929760D01*
X6484844Y-7929760D02*
X6465796Y-7939284D01*
X6465796Y-7939284D02*
X6446748Y-7939284D01*
X6446748Y-7939284D02*
X6427701Y-7929760D01*
X6427701Y-7929760D02*
X6418177Y-7920236D01*
X6418177Y-7920236D02*
X6408653Y-7901188D01*
X6408653Y-7901188D02*
X6399129Y-7863093D01*
X6399129Y-7863093D02*
X6399129Y-7815474D01*
X6399129Y-7815474D02*
X6408653Y-7777379D01*
X6408653Y-7777379D02*
X6418177Y-7758331D01*
X6418177Y-7758331D02*
X6427701Y-7748808D01*
X6427701Y-7748808D02*
X6446748Y-7739284D01*
X6580082Y-7739284D02*
X6703891Y-7739284D01*
X6703891Y-7739284D02*
X6637225Y-7815474D01*
X6637225Y-7815474D02*
X6665796Y-7815474D01*
X6665796Y-7815474D02*
X6684844Y-7824998D01*
X6684844Y-7824998D02*
X6694367Y-7834522D01*
X6694367Y-7834522D02*
X6703891Y-7853569D01*
X6703891Y-7853569D02*
X6703891Y-7901188D01*
X6703891Y-7901188D02*
X6694367Y-7920236D01*
X6694367Y-7920236D02*
X6684844Y-7929760D01*
X6684844Y-7929760D02*
X6665796Y-7939284D01*
X6665796Y-7939284D02*
X6608653Y-7939284D01*
X6608653Y-7939284D02*
X6589606Y-7929760D01*
X6589606Y-7929760D02*
X6580082Y-7920236D01*
X6799129Y-7939284D02*
X6837225Y-7939284D01*
X6837225Y-7939284D02*
X6856272Y-7929760D01*
X6856272Y-7929760D02*
X6865796Y-7920236D01*
X6865796Y-7920236D02*
X6884844Y-7891665D01*
X6884844Y-7891665D02*
X6894367Y-7853569D01*
X6894367Y-7853569D02*
X6894367Y-7777379D01*
X6894367Y-7777379D02*
X6884844Y-7758331D01*
X6884844Y-7758331D02*
X6875320Y-7748808D01*
X6875320Y-7748808D02*
X6856272Y-7739284D01*
X6856272Y-7739284D02*
X6818177Y-7739284D01*
X6818177Y-7739284D02*
X6799129Y-7748808D01*
X6799129Y-7748808D02*
X6789606Y-7758331D01*
X6789606Y-7758331D02*
X6780082Y-7777379D01*
X6780082Y-7777379D02*
X6780082Y-7824998D01*
X6780082Y-7824998D02*
X6789606Y-7844046D01*
X6789606Y-7844046D02*
X6799129Y-7853569D01*
X6799129Y-7853569D02*
X6818177Y-7863093D01*
X6818177Y-7863093D02*
X6856272Y-7863093D01*
X6856272Y-7863093D02*
X6875320Y-7853569D01*
X6875320Y-7853569D02*
X6884844Y-7844046D01*
X6884844Y-7844046D02*
X6894367Y-7824998D01*
X7065796Y-7805950D02*
X7065796Y-7939284D01*
X7018177Y-7729760D02*
X6970558Y-7872617D01*
X6970558Y-7872617D02*
X7094367Y-7872617D01*
X7161034Y-7739284D02*
X7161034Y-7777379D01*
X7237225Y-7739284D02*
X7237225Y-7777379D01*
X7532463Y-8015474D02*
X7522939Y-8005950D01*
X7522939Y-8005950D02*
X7503891Y-7977379D01*
X7503891Y-7977379D02*
X7494368Y-7958331D01*
X7494368Y-7958331D02*
X7484844Y-7929760D01*
X7484844Y-7929760D02*
X7475320Y-7882141D01*
X7475320Y-7882141D02*
X7475320Y-7844046D01*
X7475320Y-7844046D02*
X7484844Y-7796427D01*
X7484844Y-7796427D02*
X7494368Y-7767855D01*
X7494368Y-7767855D02*
X7503891Y-7748808D01*
X7503891Y-7748808D02*
X7522939Y-7720236D01*
X7522939Y-7720236D02*
X7532463Y-7710712D01*
X7694368Y-7739284D02*
X7656272Y-7739284D01*
X7656272Y-7739284D02*
X7637225Y-7748808D01*
X7637225Y-7748808D02*
X7627701Y-7758331D01*
X7627701Y-7758331D02*
X7608653Y-7786903D01*
X7608653Y-7786903D02*
X7599129Y-7824998D01*
X7599129Y-7824998D02*
X7599129Y-7901188D01*
X7599129Y-7901188D02*
X7608653Y-7920236D01*
X7608653Y-7920236D02*
X7618177Y-7929760D01*
X7618177Y-7929760D02*
X7637225Y-7939284D01*
X7637225Y-7939284D02*
X7675320Y-7939284D01*
X7675320Y-7939284D02*
X7694368Y-7929760D01*
X7694368Y-7929760D02*
X7703891Y-7920236D01*
X7703891Y-7920236D02*
X7713415Y-7901188D01*
X7713415Y-7901188D02*
X7713415Y-7853569D01*
X7713415Y-7853569D02*
X7703891Y-7834522D01*
X7703891Y-7834522D02*
X7694368Y-7824998D01*
X7694368Y-7824998D02*
X7675320Y-7815474D01*
X7675320Y-7815474D02*
X7637225Y-7815474D01*
X7637225Y-7815474D02*
X7618177Y-7824998D01*
X7618177Y-7824998D02*
X7608653Y-7834522D01*
X7608653Y-7834522D02*
X7599129Y-7853569D01*
X7951510Y-7939284D02*
X7951510Y-7739284D01*
X8037225Y-7939284D02*
X8037225Y-7834522D01*
X8037225Y-7834522D02*
X8027701Y-7815474D01*
X8027701Y-7815474D02*
X8008653Y-7805950D01*
X8008653Y-7805950D02*
X7980082Y-7805950D01*
X7980082Y-7805950D02*
X7961034Y-7815474D01*
X7961034Y-7815474D02*
X7951510Y-7824998D01*
X8161034Y-7939284D02*
X8141987Y-7929760D01*
X8141987Y-7929760D02*
X8132463Y-7920236D01*
X8132463Y-7920236D02*
X8122939Y-7901188D01*
X8122939Y-7901188D02*
X8122939Y-7844046D01*
X8122939Y-7844046D02*
X8132463Y-7824998D01*
X8132463Y-7824998D02*
X8141987Y-7815474D01*
X8141987Y-7815474D02*
X8161034Y-7805950D01*
X8161034Y-7805950D02*
X8189606Y-7805950D01*
X8189606Y-7805950D02*
X8208653Y-7815474D01*
X8208653Y-7815474D02*
X8218177Y-7824998D01*
X8218177Y-7824998D02*
X8227701Y-7844046D01*
X8227701Y-7844046D02*
X8227701Y-7901188D01*
X8227701Y-7901188D02*
X8218177Y-7920236D01*
X8218177Y-7920236D02*
X8208653Y-7929760D01*
X8208653Y-7929760D02*
X8189606Y-7939284D01*
X8189606Y-7939284D02*
X8161034Y-7939284D01*
X8341987Y-7939284D02*
X8322939Y-7929760D01*
X8322939Y-7929760D02*
X8313415Y-7910712D01*
X8313415Y-7910712D02*
X8313415Y-7739284D01*
X8494368Y-7929760D02*
X8475320Y-7939284D01*
X8475320Y-7939284D02*
X8437225Y-7939284D01*
X8437225Y-7939284D02*
X8418177Y-7929760D01*
X8418177Y-7929760D02*
X8408653Y-7910712D01*
X8408653Y-7910712D02*
X8408653Y-7834522D01*
X8408653Y-7834522D02*
X8418177Y-7815474D01*
X8418177Y-7815474D02*
X8437225Y-7805950D01*
X8437225Y-7805950D02*
X8475320Y-7805950D01*
X8475320Y-7805950D02*
X8494368Y-7815474D01*
X8494368Y-7815474D02*
X8503892Y-7834522D01*
X8503892Y-7834522D02*
X8503892Y-7853569D01*
X8503892Y-7853569D02*
X8408653Y-7872617D01*
X8580082Y-7929760D02*
X8599130Y-7939284D01*
X8599130Y-7939284D02*
X8637225Y-7939284D01*
X8637225Y-7939284D02*
X8656273Y-7929760D01*
X8656273Y-7929760D02*
X8665796Y-7910712D01*
X8665796Y-7910712D02*
X8665796Y-7901188D01*
X8665796Y-7901188D02*
X8656273Y-7882141D01*
X8656273Y-7882141D02*
X8637225Y-7872617D01*
X8637225Y-7872617D02*
X8608653Y-7872617D01*
X8608653Y-7872617D02*
X8589606Y-7863093D01*
X8589606Y-7863093D02*
X8580082Y-7844046D01*
X8580082Y-7844046D02*
X8580082Y-7834522D01*
X8580082Y-7834522D02*
X8589606Y-7815474D01*
X8589606Y-7815474D02*
X8608653Y-7805950D01*
X8608653Y-7805950D02*
X8637225Y-7805950D01*
X8637225Y-7805950D02*
X8656273Y-7815474D01*
X8732463Y-8015474D02*
X8741987Y-8005950D01*
X8741987Y-8005950D02*
X8761034Y-7977379D01*
X8761034Y-7977379D02*
X8770558Y-7958331D01*
X8770558Y-7958331D02*
X8780082Y-7929760D01*
X8780082Y-7929760D02*
X8789606Y-7882141D01*
X8789606Y-7882141D02*
X8789606Y-7844046D01*
X8789606Y-7844046D02*
X8780082Y-7796427D01*
X8780082Y-7796427D02*
X8770558Y-7767855D01*
X8770558Y-7767855D02*
X8761034Y-7748808D01*
X8761034Y-7748808D02*
X8741987Y-7720236D01*
X8741987Y-7720236D02*
X8732463Y-7710712D01*
M02*
