%TF.GenerationSoftware,KiCad,Pcbnew,7.0.9*%
%TF.CreationDate,2023-12-11T15:29:27+01:00*%
%TF.ProjectId,MPX5100DP-THT-board,4d505835-3130-4304-9450-2d5448542d62,1.2*%
%TF.SameCoordinates,Original*%
%TF.FileFunction,Copper,L2,Bot*%
%TF.FilePolarity,Positive*%
%FSLAX46Y46*%
G04 Gerber Fmt 4.6, Leading zero omitted, Abs format (unit mm)*
G04 Created by KiCad (PCBNEW 7.0.9) date 2023-12-11 15:29:27*
%MOMM*%
%LPD*%
G01*
G04 APERTURE LIST*
G04 Aperture macros list*
%AMRoundRect*
0 Rectangle with rounded corners*
0 $1 Rounding radius*
0 $2 $3 $4 $5 $6 $7 $8 $9 X,Y pos of 4 corners*
0 Add a 4 corners polygon primitive as box body*
4,1,4,$2,$3,$4,$5,$6,$7,$8,$9,$2,$3,0*
0 Add four circle primitives for the rounded corners*
1,1,$1+$1,$2,$3*
1,1,$1+$1,$4,$5*
1,1,$1+$1,$6,$7*
1,1,$1+$1,$8,$9*
0 Add four rect primitives between the rounded corners*
20,1,$1+$1,$2,$3,$4,$5,0*
20,1,$1+$1,$4,$5,$6,$7,0*
20,1,$1+$1,$6,$7,$8,$9,0*
20,1,$1+$1,$8,$9,$2,$3,0*%
G04 Aperture macros list end*
%TA.AperFunction,ComponentPad*%
%ADD10C,1.600000*%
%TD*%
%TA.AperFunction,WasherPad*%
%ADD11C,5.000000*%
%TD*%
%TA.AperFunction,ComponentPad*%
%ADD12O,1.400000X2.000000*%
%TD*%
%TA.AperFunction,ComponentPad*%
%ADD13R,1.600000X1.600000*%
%TD*%
%TA.AperFunction,ComponentPad*%
%ADD14RoundRect,0.250000X-0.725000X0.600000X-0.725000X-0.600000X0.725000X-0.600000X0.725000X0.600000X0*%
%TD*%
%TA.AperFunction,ComponentPad*%
%ADD15O,1.950000X1.700000*%
%TD*%
%TA.AperFunction,ComponentPad*%
%ADD16R,2.000000X2.000000*%
%TD*%
%TA.AperFunction,ComponentPad*%
%ADD17O,2.000000X2.000000*%
%TD*%
%TA.AperFunction,ComponentPad*%
%ADD18R,1.700000X1.700000*%
%TD*%
%TA.AperFunction,ComponentPad*%
%ADD19O,1.700000X1.700000*%
%TD*%
%TA.AperFunction,ComponentPad*%
%ADD20R,1.100000X1.800000*%
%TD*%
%TA.AperFunction,ComponentPad*%
%ADD21RoundRect,0.275000X-0.275000X-0.625000X0.275000X-0.625000X0.275000X0.625000X-0.275000X0.625000X0*%
%TD*%
%TA.AperFunction,ComponentPad*%
%ADD22O,1.600000X1.600000*%
%TD*%
%TA.AperFunction,SMDPad,CuDef*%
%ADD23RoundRect,0.250001X0.462499X0.624999X-0.462499X0.624999X-0.462499X-0.624999X0.462499X-0.624999X0*%
%TD*%
%TA.AperFunction,Conductor*%
%ADD24C,0.250000*%
%TD*%
%TA.AperFunction,Conductor*%
%ADD25C,0.800000*%
%TD*%
G04 APERTURE END LIST*
D10*
%TO.P,C9,1*%
%TO.N,Net-(J2-Pin_2)*%
X79756000Y-43688000D03*
%TO.P,C9,2*%
%TO.N,GND*%
X79756000Y-48688000D03*
%TD*%
D11*
%TO.P,U3,*%
%TO.N,*%
X45747848Y-36449000D03*
X68847848Y-36449000D03*
D12*
%TO.P,U3,1,Vout*%
%TO.N,Net-(U3-Vout)*%
X50947848Y-46226000D03*
%TO.P,U3,2,GND*%
%TO.N,GND*%
X53487848Y-46226000D03*
%TO.P,U3,3,Vs*%
%TO.N,Net-(J2-Pin_2)*%
X56027848Y-46226000D03*
%TO.P,U3,4,DNC*%
%TO.N,unconnected-(U3-DNC-Pad4)*%
X58567848Y-46226000D03*
%TO.P,U3,5,DNC*%
%TO.N,unconnected-(U3-DNC-Pad5)*%
X61107848Y-46226000D03*
%TO.P,U3,6,DNC*%
%TO.N,unconnected-(U3-DNC-Pad6)*%
X63647848Y-46226000D03*
%TD*%
D10*
%TO.P,C8,1*%
%TO.N,Net-(J2-Pin_2)*%
X80899000Y-39497000D03*
%TO.P,C8,2*%
%TO.N,GND*%
X85899000Y-39497000D03*
%TD*%
D13*
%TO.P,C1,1*%
%TO.N,Net-(D1-K)*%
X88900000Y-43601000D03*
D10*
%TO.P,C1,2*%
%TO.N,Net-(U1-CAP+)*%
X88900000Y-46101000D03*
%TD*%
%TO.P,C6,1*%
%TO.N,Net-(J2-Pin_1)*%
X68707000Y-42672000D03*
%TO.P,C6,2*%
%TO.N,GND*%
X68707000Y-47672000D03*
%TD*%
D14*
%TO.P,J1,1,GND*%
%TO.N,GND*%
X43942000Y-52070000D03*
D15*
%TO.P,J1,2,Signal*%
%TO.N,Net-(J1-Signal)*%
X43942000Y-54570000D03*
%TO.P,J1,3,3.3V*%
%TO.N,+3.3V*%
X43942000Y-57070000D03*
%TD*%
D10*
%TO.P,C3,1*%
%TO.N,Net-(D2-K)*%
X76581000Y-26543000D03*
%TO.P,C3,2*%
%TO.N,GND*%
X81581000Y-26543000D03*
%TD*%
D13*
%TO.P,C7,1*%
%TO.N,Net-(J2-Pin_2)*%
X75946000Y-42926000D03*
D10*
%TO.P,C7,2*%
%TO.N,GND*%
X73446000Y-42926000D03*
%TD*%
D13*
%TO.P,C2,1*%
%TO.N,Net-(D2-K)*%
X82423000Y-35052000D03*
D10*
%TO.P,C2,2*%
%TO.N,GND*%
X84923000Y-35052000D03*
%TD*%
D16*
%TO.P,D2,1,K*%
%TO.N,Net-(D2-K)*%
X78740000Y-30226000D03*
D17*
%TO.P,D2,2,A*%
%TO.N,Net-(D1-K)*%
X83820000Y-30226000D03*
%TD*%
D18*
%TO.P,J2,1,Pin_1*%
%TO.N,Net-(J2-Pin_1)*%
X64897000Y-50673000D03*
D19*
%TO.P,J2,2,Pin_2*%
%TO.N,Net-(J2-Pin_2)*%
X64897000Y-53213000D03*
%TD*%
D20*
%TO.P,U4,1,GND*%
%TO.N,GND*%
X75311000Y-36087000D03*
D21*
%TO.P,U4,2,VI*%
%TO.N,Net-(D2-K)*%
X76581000Y-34017000D03*
%TO.P,U4,3,VO*%
%TO.N,Net-(J2-Pin_1)*%
X77851000Y-36087000D03*
%TD*%
D10*
%TO.P,R1,1*%
%TO.N,Net-(U3-Vout)*%
X59309000Y-51689000D03*
D22*
%TO.P,R1,2*%
%TO.N,Net-(J1-Signal)*%
X49149000Y-51689000D03*
%TD*%
D13*
%TO.P,U1,1,NC*%
%TO.N,unconnected-(U1-NC-Pad1)*%
X71882000Y-58928000D03*
D22*
%TO.P,U1,2,CAP+*%
%TO.N,Net-(U1-CAP+)*%
X74422000Y-58928000D03*
%TO.P,U1,3,GND*%
%TO.N,GND*%
X76962000Y-58928000D03*
%TO.P,U1,4,CAP-*%
%TO.N,unconnected-(U1-CAP--Pad4)*%
X79502000Y-58928000D03*
%TO.P,U1,5,VOUT*%
%TO.N,GND*%
X79502000Y-51308000D03*
%TO.P,U1,6,LV*%
X76962000Y-51308000D03*
%TO.P,U1,7,OSC*%
%TO.N,unconnected-(U1-OSC-Pad7)*%
X74422000Y-51308000D03*
%TO.P,U1,8,V+*%
%TO.N,+3.3V*%
X71882000Y-51308000D03*
%TD*%
D10*
%TO.P,C10,1*%
%TO.N,Net-(U3-Vout)*%
X47204000Y-45085000D03*
%TO.P,C10,2*%
%TO.N,GND*%
X42204000Y-45085000D03*
%TD*%
%TO.P,R2,1*%
%TO.N,GND*%
X59309000Y-56007000D03*
D22*
%TO.P,R2,2*%
%TO.N,Net-(J1-Signal)*%
X49149000Y-56007000D03*
%TD*%
D16*
%TO.P,D1,1,K*%
%TO.N,Net-(D1-K)*%
X84074000Y-47625000D03*
D17*
%TO.P,D1,2,A*%
%TO.N,+3.3V*%
X84074000Y-52705000D03*
%TD*%
D13*
%TO.P,C4,1*%
%TO.N,Net-(J2-Pin_1)*%
X67818000Y-29210000D03*
D10*
%TO.P,C4,2*%
%TO.N,GND*%
X67818000Y-26710000D03*
%TD*%
%TO.P,C5,1*%
%TO.N,Net-(J2-Pin_1)*%
X73025000Y-31035000D03*
%TO.P,C5,2*%
%TO.N,GND*%
X73025000Y-26035000D03*
%TD*%
D23*
%TO.P,L1,1*%
%TO.N,Net-(J2-Pin_1)*%
X58982000Y-39878000D03*
%TO.P,L1,2*%
%TO.N,Net-(J2-Pin_2)*%
X56007000Y-39878000D03*
%TD*%
D24*
%TO.N,Net-(D1-K)*%
X88900000Y-35306000D02*
X88900000Y-43601000D01*
X88900000Y-43601000D02*
X88098000Y-43601000D01*
X83820000Y-30226000D02*
X88900000Y-35306000D01*
X88098000Y-43601000D02*
X84074000Y-47625000D01*
%TO.N,Net-(U1-CAP+)*%
X75565000Y-56642000D02*
X84074000Y-56642000D01*
X88900000Y-51816000D02*
X88900000Y-46101000D01*
X74422000Y-58928000D02*
X74422000Y-57785000D01*
X74422000Y-57785000D02*
X75565000Y-56642000D01*
X84074000Y-56642000D02*
X88900000Y-51816000D01*
D25*
%TO.N,+3.3V*%
X71882000Y-54356000D02*
X71882000Y-51308000D01*
X82296000Y-54483000D02*
X83947000Y-52832000D01*
X64262000Y-59563000D02*
X69342000Y-54483000D01*
X46181000Y-59563000D02*
X64262000Y-59563000D01*
X43942000Y-57324000D02*
X46181000Y-59563000D01*
X71755000Y-54483000D02*
X71882000Y-54356000D01*
X69342000Y-54483000D02*
X82296000Y-54483000D01*
D24*
%TO.N,Net-(J1-Signal)*%
X45125000Y-56007000D02*
X43942000Y-54824000D01*
X49149000Y-51689000D02*
X49149000Y-56007000D01*
X49149000Y-56007000D02*
X45125000Y-56007000D01*
%TO.N,Net-(U3-Vout)*%
X59309000Y-51689000D02*
X54483000Y-51689000D01*
X50927000Y-46246848D02*
X50947848Y-46226000D01*
X50927000Y-48133000D02*
X50927000Y-46246848D01*
X49806848Y-45085000D02*
X50947848Y-46226000D01*
X47204000Y-45085000D02*
X49806848Y-45085000D01*
X54483000Y-51689000D02*
X50927000Y-48133000D01*
%TO.N,Net-(J2-Pin_1)*%
X65151000Y-39878000D02*
X63373000Y-39878000D01*
X63246000Y-32766000D02*
X66802000Y-29210000D01*
X77851000Y-38608000D02*
X77851000Y-35941000D01*
X71200000Y-29210000D02*
X73025000Y-31035000D01*
X61722000Y-39878000D02*
X58891500Y-39878000D01*
X67818000Y-29210000D02*
X71200000Y-29210000D01*
X66167000Y-42672000D02*
X68707000Y-42672000D01*
X73533000Y-38862000D02*
X77597000Y-38862000D01*
X66802000Y-29210000D02*
X67818000Y-29210000D01*
X77597000Y-38862000D02*
X77851000Y-38608000D01*
X69723000Y-42672000D02*
X73533000Y-38862000D01*
X61722000Y-39878000D02*
X63373000Y-39878000D01*
X63246000Y-39751000D02*
X63246000Y-32766000D01*
X63373000Y-39878000D02*
X63246000Y-39751000D01*
X66167000Y-40894000D02*
X65151000Y-39878000D01*
X64516000Y-51054000D02*
X66167000Y-49403000D01*
X66167000Y-42672000D02*
X66167000Y-40894000D01*
X66167000Y-49403000D02*
X66167000Y-42672000D01*
X68707000Y-42672000D02*
X69723000Y-42672000D01*
%TO.N,Net-(D2-K)*%
X81534000Y-34163000D02*
X82423000Y-35052000D01*
X76073000Y-29083000D02*
X76073000Y-32766000D01*
X76581000Y-33274000D02*
X76581000Y-34163000D01*
X78740000Y-30226000D02*
X76073000Y-30226000D01*
X76073000Y-29845000D02*
X76073000Y-27051000D01*
X76073000Y-27051000D02*
X76581000Y-26543000D01*
X76073000Y-32766000D02*
X76581000Y-33274000D01*
X76581000Y-34163000D02*
X81534000Y-34163000D01*
%TO.N,Net-(J2-Pin_2)*%
X61849000Y-49530000D02*
X60706000Y-48387000D01*
X56027848Y-48153848D02*
X56027848Y-46226000D01*
X80899000Y-39497000D02*
X80899000Y-42545000D01*
X75946000Y-42926000D02*
X75946000Y-44196000D01*
X79629000Y-39497000D02*
X76200000Y-42926000D01*
X56027848Y-39898848D02*
X56007000Y-39878000D01*
X61849000Y-53340000D02*
X61849000Y-49530000D01*
X56027848Y-46226000D02*
X56027848Y-39898848D01*
X80899000Y-42545000D02*
X79756000Y-43688000D01*
X75946000Y-44196000D02*
X66802000Y-53340000D01*
X60706000Y-48387000D02*
X56261000Y-48387000D01*
X56261000Y-48387000D02*
X56027848Y-48153848D01*
X66802000Y-53340000D02*
X61849000Y-53340000D01*
X76200000Y-42926000D02*
X75946000Y-42926000D01*
X80899000Y-39497000D02*
X79629000Y-39497000D01*
%TD*%
%TA.AperFunction,Conductor*%
%TO.N,GND*%
G36*
X79174359Y-51069955D02*
G01*
X79116835Y-51182852D01*
X79097014Y-51308000D01*
X79116835Y-51433148D01*
X79174359Y-51546045D01*
X79186314Y-51558000D01*
X77277686Y-51558000D01*
X77289641Y-51546045D01*
X77347165Y-51433148D01*
X77366986Y-51308000D01*
X77347165Y-51182852D01*
X77289641Y-51069955D01*
X77277686Y-51058000D01*
X79186314Y-51058000D01*
X79174359Y-51069955D01*
G37*
%TD.AperFunction*%
%TA.AperFunction,Conductor*%
G36*
X92652539Y-24277185D02*
G01*
X92698294Y-24329989D01*
X92709500Y-24381500D01*
X92709500Y-61343500D01*
X92689815Y-61410539D01*
X92637011Y-61456294D01*
X92585500Y-61467500D01*
X39874145Y-61467500D01*
X39807106Y-61447815D01*
X39761351Y-61395011D01*
X39750146Y-61343922D01*
X39735609Y-57070000D01*
X42461341Y-57070000D01*
X42481936Y-57305403D01*
X42481938Y-57305413D01*
X42543094Y-57533655D01*
X42543096Y-57533659D01*
X42543097Y-57533663D01*
X42584538Y-57622532D01*
X42642964Y-57747828D01*
X42642965Y-57747830D01*
X42778505Y-57941402D01*
X42945597Y-58108494D01*
X43139169Y-58244034D01*
X43139171Y-58244035D01*
X43353337Y-58343903D01*
X43581592Y-58405063D01*
X43720709Y-58417234D01*
X43785777Y-58442686D01*
X43797582Y-58453081D01*
X45487235Y-60142734D01*
X45499869Y-60157525D01*
X45508112Y-60168871D01*
X45508113Y-60168872D01*
X45559722Y-60215341D01*
X45562071Y-60217570D01*
X45577620Y-60233119D01*
X45594684Y-60246938D01*
X45594702Y-60246952D01*
X45597170Y-60249060D01*
X45648781Y-60295531D01*
X45648782Y-60295531D01*
X45648784Y-60295533D01*
X45648786Y-60295534D01*
X45660918Y-60302538D01*
X45676955Y-60313560D01*
X45687849Y-60322382D01*
X45687851Y-60322383D01*
X45749747Y-60353920D01*
X45752552Y-60355443D01*
X45771998Y-60366670D01*
X45812707Y-60390175D01*
X45812715Y-60390178D01*
X45812716Y-60390179D01*
X45826046Y-60394510D01*
X45844019Y-60401954D01*
X45856512Y-60408320D01*
X45923590Y-60426292D01*
X45926699Y-60427214D01*
X45939933Y-60431514D01*
X45992744Y-60448674D01*
X46003116Y-60449763D01*
X46006684Y-60450139D01*
X46025825Y-60453687D01*
X46039348Y-60457311D01*
X46039354Y-60457312D01*
X46108711Y-60460946D01*
X46111921Y-60461199D01*
X46133808Y-60463500D01*
X46155803Y-60463500D01*
X46159046Y-60463584D01*
X46228388Y-60467219D01*
X46242228Y-60465027D01*
X46261627Y-60463500D01*
X64181373Y-60463500D01*
X64200772Y-60465027D01*
X64214612Y-60467219D01*
X64283959Y-60463584D01*
X64287203Y-60463500D01*
X64309191Y-60463500D01*
X64309192Y-60463500D01*
X64325988Y-60461734D01*
X64331064Y-60461201D01*
X64334284Y-60460947D01*
X64403646Y-60457313D01*
X64417187Y-60453683D01*
X64436313Y-60450138D01*
X64450256Y-60448674D01*
X64516306Y-60427212D01*
X64519368Y-60426304D01*
X64586488Y-60408320D01*
X64598976Y-60401956D01*
X64616950Y-60394510D01*
X64630284Y-60390179D01*
X64690476Y-60355425D01*
X64693222Y-60353934D01*
X64755149Y-60322383D01*
X64766031Y-60313569D01*
X64782083Y-60302537D01*
X64794216Y-60295533D01*
X64845847Y-60249043D01*
X64848260Y-60246982D01*
X64865380Y-60233119D01*
X64880929Y-60217568D01*
X64883277Y-60215341D01*
X64934888Y-60168871D01*
X64943130Y-60157525D01*
X64955760Y-60142737D01*
X65322627Y-59775870D01*
X70581500Y-59775870D01*
X70581501Y-59775876D01*
X70587908Y-59835483D01*
X70638202Y-59970328D01*
X70638206Y-59970335D01*
X70724452Y-60085544D01*
X70724455Y-60085547D01*
X70839664Y-60171793D01*
X70839671Y-60171797D01*
X70974517Y-60222091D01*
X70974516Y-60222091D01*
X70981444Y-60222835D01*
X71034127Y-60228500D01*
X72729872Y-60228499D01*
X72789483Y-60222091D01*
X72924331Y-60171796D01*
X73039546Y-60085546D01*
X73125796Y-59970331D01*
X73176091Y-59835483D01*
X73179862Y-59800401D01*
X73206599Y-59735855D01*
X73263990Y-59696006D01*
X73333816Y-59693511D01*
X73393905Y-59729163D01*
X73404726Y-59742536D01*
X73421956Y-59767143D01*
X73582858Y-59928045D01*
X73582861Y-59928047D01*
X73769266Y-60058568D01*
X73975504Y-60154739D01*
X74195308Y-60213635D01*
X74357230Y-60227801D01*
X74421998Y-60233468D01*
X74422000Y-60233468D01*
X74422002Y-60233468D01*
X74478807Y-60228498D01*
X74648692Y-60213635D01*
X74868496Y-60154739D01*
X75074734Y-60058568D01*
X75261139Y-59928047D01*
X75422047Y-59767139D01*
X75552568Y-59580734D01*
X75579895Y-59522129D01*
X75626064Y-59469695D01*
X75693257Y-59450542D01*
X75760139Y-59470757D01*
X75804657Y-59522133D01*
X75831865Y-59580482D01*
X75962342Y-59766820D01*
X76123179Y-59927657D01*
X76309517Y-60058134D01*
X76515673Y-60154265D01*
X76515682Y-60154269D01*
X76711999Y-60206872D01*
X76712000Y-60206871D01*
X76712000Y-59243686D01*
X76723955Y-59255641D01*
X76836852Y-59313165D01*
X76930519Y-59328000D01*
X76993481Y-59328000D01*
X77087148Y-59313165D01*
X77200045Y-59255641D01*
X77212000Y-59243686D01*
X77212000Y-60206872D01*
X77408317Y-60154269D01*
X77408326Y-60154265D01*
X77614482Y-60058134D01*
X77800820Y-59927657D01*
X77961657Y-59766820D01*
X78092132Y-59580484D01*
X78119341Y-59522134D01*
X78165513Y-59469695D01*
X78232707Y-59450542D01*
X78299588Y-59470757D01*
X78344106Y-59522133D01*
X78371431Y-59580732D01*
X78371432Y-59580734D01*
X78501954Y-59767141D01*
X78662858Y-59928045D01*
X78662861Y-59928047D01*
X78849266Y-60058568D01*
X79055504Y-60154739D01*
X79275308Y-60213635D01*
X79437230Y-60227801D01*
X79501998Y-60233468D01*
X79502000Y-60233468D01*
X79502002Y-60233468D01*
X79558807Y-60228498D01*
X79728692Y-60213635D01*
X79948496Y-60154739D01*
X80154734Y-60058568D01*
X80341139Y-59928047D01*
X80502047Y-59767139D01*
X80632568Y-59580734D01*
X80728739Y-59374496D01*
X80787635Y-59154692D01*
X80807468Y-58928000D01*
X80787635Y-58701308D01*
X80728739Y-58481504D01*
X80632568Y-58275266D01*
X80502047Y-58088861D01*
X80502045Y-58088858D01*
X80392950Y-57979763D01*
X87299787Y-57979763D01*
X87329413Y-58249013D01*
X87329415Y-58249024D01*
X87397926Y-58511082D01*
X87397928Y-58511088D01*
X87503870Y-58760390D01*
X87575998Y-58878575D01*
X87644979Y-58991605D01*
X87644986Y-58991615D01*
X87818253Y-59199819D01*
X87818259Y-59199824D01*
X88019998Y-59380582D01*
X88245910Y-59530044D01*
X88491176Y-59645020D01*
X88491183Y-59645022D01*
X88491185Y-59645023D01*
X88750557Y-59723057D01*
X88750564Y-59723058D01*
X88750569Y-59723060D01*
X89018561Y-59762500D01*
X89018566Y-59762500D01*
X89221636Y-59762500D01*
X89273133Y-59758730D01*
X89424156Y-59747677D01*
X89536758Y-59722593D01*
X89688546Y-59688782D01*
X89688548Y-59688781D01*
X89688553Y-59688780D01*
X89941558Y-59592014D01*
X90177777Y-59459441D01*
X90392177Y-59293888D01*
X90580186Y-59098881D01*
X90737799Y-58878579D01*
X90850350Y-58659666D01*
X90861649Y-58637690D01*
X90861651Y-58637684D01*
X90861656Y-58637675D01*
X90949118Y-58381305D01*
X90998319Y-58114933D01*
X91008212Y-57844235D01*
X90978586Y-57574982D01*
X90910072Y-57312912D01*
X90804130Y-57063610D01*
X90663018Y-56832390D01*
X90579866Y-56732472D01*
X90489746Y-56624180D01*
X90489740Y-56624175D01*
X90288002Y-56443418D01*
X90062092Y-56293957D01*
X89957753Y-56245045D01*
X89816824Y-56178980D01*
X89816819Y-56178978D01*
X89816814Y-56178976D01*
X89557442Y-56100942D01*
X89557428Y-56100939D01*
X89441791Y-56083921D01*
X89289439Y-56061500D01*
X89086369Y-56061500D01*
X89086364Y-56061500D01*
X88883844Y-56076323D01*
X88883831Y-56076325D01*
X88619453Y-56135217D01*
X88619446Y-56135220D01*
X88366439Y-56231987D01*
X88130226Y-56364557D01*
X87915822Y-56530112D01*
X87727822Y-56725109D01*
X87727816Y-56725116D01*
X87570202Y-56945419D01*
X87570199Y-56945424D01*
X87446350Y-57186309D01*
X87446343Y-57186327D01*
X87358884Y-57442685D01*
X87358881Y-57442699D01*
X87342081Y-57533655D01*
X87311036Y-57701734D01*
X87309681Y-57709068D01*
X87309680Y-57709075D01*
X87299787Y-57979763D01*
X80392950Y-57979763D01*
X80341141Y-57927954D01*
X80154734Y-57797432D01*
X80154732Y-57797431D01*
X79948497Y-57701261D01*
X79948488Y-57701258D01*
X79728697Y-57642366D01*
X79728693Y-57642365D01*
X79728692Y-57642365D01*
X79728691Y-57642364D01*
X79728686Y-57642364D01*
X79502002Y-57622532D01*
X79501998Y-57622532D01*
X79275313Y-57642364D01*
X79275302Y-57642366D01*
X79055511Y-57701258D01*
X79055502Y-57701261D01*
X78849267Y-57797431D01*
X78849265Y-57797432D01*
X78662858Y-57927954D01*
X78501954Y-58088858D01*
X78371433Y-58275264D01*
X78371432Y-58275266D01*
X78371315Y-58275518D01*
X78344106Y-58333867D01*
X78297933Y-58386306D01*
X78230739Y-58405457D01*
X78163858Y-58385241D01*
X78119342Y-58333865D01*
X78092135Y-58275520D01*
X78092134Y-58275518D01*
X77961657Y-58089179D01*
X77800820Y-57928342D01*
X77614482Y-57797865D01*
X77408328Y-57701734D01*
X77212000Y-57649127D01*
X77212000Y-58612314D01*
X77200045Y-58600359D01*
X77087148Y-58542835D01*
X76993481Y-58528000D01*
X76930519Y-58528000D01*
X76836852Y-58542835D01*
X76723955Y-58600359D01*
X76712000Y-58612314D01*
X76712000Y-57649127D01*
X76515671Y-57701734D01*
X76309517Y-57797865D01*
X76123179Y-57928342D01*
X75962342Y-58089179D01*
X75831867Y-58275515D01*
X75804657Y-58333867D01*
X75758484Y-58386306D01*
X75691290Y-58405457D01*
X75624409Y-58385241D01*
X75579893Y-58333865D01*
X75552685Y-58275518D01*
X75552568Y-58275266D01*
X75422047Y-58088861D01*
X75422045Y-58088858D01*
X75300069Y-57966882D01*
X75266584Y-57905559D01*
X75271568Y-57835867D01*
X75300069Y-57791520D01*
X75377779Y-57713811D01*
X75787772Y-57303819D01*
X75849095Y-57270334D01*
X75875453Y-57267500D01*
X83991257Y-57267500D01*
X84006877Y-57269224D01*
X84006904Y-57268939D01*
X84014660Y-57269671D01*
X84014667Y-57269673D01*
X84083814Y-57267500D01*
X84113350Y-57267500D01*
X84120228Y-57266630D01*
X84126041Y-57266172D01*
X84172627Y-57264709D01*
X84191869Y-57259117D01*
X84210912Y-57255174D01*
X84230792Y-57252664D01*
X84274122Y-57235507D01*
X84279646Y-57233617D01*
X84283396Y-57232527D01*
X84324390Y-57220618D01*
X84341629Y-57210422D01*
X84359103Y-57201862D01*
X84377727Y-57194488D01*
X84377727Y-57194487D01*
X84377732Y-57194486D01*
X84415449Y-57167082D01*
X84420305Y-57163892D01*
X84460420Y-57140170D01*
X84474589Y-57125999D01*
X84489379Y-57113368D01*
X84505587Y-57101594D01*
X84535299Y-57065676D01*
X84539212Y-57061376D01*
X89283786Y-52316802D01*
X89296048Y-52306980D01*
X89295865Y-52306759D01*
X89301867Y-52301792D01*
X89301877Y-52301786D01*
X89349241Y-52251348D01*
X89370120Y-52230470D01*
X89374373Y-52224986D01*
X89378150Y-52220563D01*
X89410062Y-52186582D01*
X89419714Y-52169023D01*
X89430389Y-52152772D01*
X89442674Y-52136936D01*
X89461186Y-52094152D01*
X89463742Y-52088935D01*
X89486197Y-52048092D01*
X89491180Y-52028680D01*
X89497477Y-52010291D01*
X89505438Y-51991895D01*
X89512729Y-51945853D01*
X89513908Y-51940162D01*
X89525500Y-51895019D01*
X89525500Y-51874983D01*
X89527027Y-51855582D01*
X89530160Y-51835804D01*
X89525775Y-51789415D01*
X89525500Y-51783577D01*
X89525500Y-47315188D01*
X89545185Y-47248149D01*
X89578377Y-47213613D01*
X89653958Y-47160691D01*
X89739139Y-47101047D01*
X89900047Y-46940139D01*
X90030568Y-46753734D01*
X90126739Y-46547496D01*
X90185635Y-46327692D01*
X90205468Y-46101000D01*
X90204346Y-46088181D01*
X90189995Y-45924141D01*
X90185635Y-45874308D01*
X90126739Y-45654504D01*
X90030568Y-45448266D01*
X89900047Y-45261861D01*
X89900045Y-45261858D01*
X89742913Y-45104726D01*
X89709428Y-45043403D01*
X89714412Y-44973711D01*
X89756284Y-44917778D01*
X89802078Y-44896368D01*
X89807480Y-44895091D01*
X89807483Y-44895091D01*
X89942331Y-44844796D01*
X90057546Y-44758546D01*
X90143796Y-44643331D01*
X90194091Y-44508483D01*
X90200500Y-44448873D01*
X90200499Y-42753128D01*
X90194091Y-42693517D01*
X90193395Y-42691652D01*
X90143797Y-42558671D01*
X90143793Y-42558664D01*
X90057547Y-42443455D01*
X90057544Y-42443452D01*
X89942335Y-42357206D01*
X89942328Y-42357202D01*
X89807482Y-42306908D01*
X89807483Y-42306908D01*
X89747883Y-42300501D01*
X89747881Y-42300500D01*
X89747873Y-42300500D01*
X89747865Y-42300500D01*
X89649500Y-42300500D01*
X89582461Y-42280815D01*
X89536706Y-42228011D01*
X89525500Y-42176500D01*
X89525500Y-35388742D01*
X89527224Y-35373122D01*
X89526939Y-35373096D01*
X89527671Y-35365340D01*
X89527673Y-35365333D01*
X89525500Y-35296185D01*
X89525500Y-35266650D01*
X89524631Y-35259772D01*
X89524172Y-35253943D01*
X89522709Y-35207372D01*
X89517122Y-35188144D01*
X89513174Y-35169084D01*
X89510663Y-35149204D01*
X89493512Y-35105887D01*
X89491619Y-35100358D01*
X89478618Y-35055609D01*
X89478616Y-35055606D01*
X89468423Y-35038371D01*
X89459861Y-35020894D01*
X89452487Y-35002270D01*
X89452486Y-35002268D01*
X89425079Y-34964545D01*
X89421888Y-34959686D01*
X89413147Y-34944906D01*
X89398170Y-34919580D01*
X89398168Y-34919578D01*
X89398165Y-34919574D01*
X89384006Y-34905415D01*
X89371368Y-34890619D01*
X89359594Y-34874413D01*
X89332323Y-34851853D01*
X89323688Y-34844709D01*
X89319376Y-34840786D01*
X85283660Y-30805069D01*
X85250175Y-30743746D01*
X85251135Y-30686950D01*
X85305108Y-30473821D01*
X85305109Y-30473812D01*
X85325643Y-30226005D01*
X85325643Y-30225994D01*
X85305109Y-29978187D01*
X85305107Y-29978175D01*
X85244063Y-29737118D01*
X85144173Y-29509393D01*
X85008166Y-29301217D01*
X84910282Y-29194887D01*
X84839744Y-29118262D01*
X84643509Y-28965526D01*
X84643507Y-28965525D01*
X84643506Y-28965524D01*
X84424811Y-28847172D01*
X84424802Y-28847169D01*
X84189616Y-28766429D01*
X83944335Y-28725500D01*
X83695665Y-28725500D01*
X83450383Y-28766429D01*
X83215197Y-28847169D01*
X83215188Y-28847172D01*
X82996493Y-28965524D01*
X82800257Y-29118261D01*
X82631833Y-29301217D01*
X82495826Y-29509393D01*
X82395936Y-29737118D01*
X82334892Y-29978175D01*
X82334890Y-29978187D01*
X82314357Y-30225994D01*
X82314357Y-30226005D01*
X82334890Y-30473812D01*
X82334892Y-30473824D01*
X82395936Y-30714881D01*
X82495826Y-30942606D01*
X82631833Y-31150782D01*
X82631836Y-31150785D01*
X82800256Y-31333738D01*
X82996491Y-31486474D01*
X83215190Y-31604828D01*
X83450386Y-31685571D01*
X83695665Y-31726500D01*
X83944335Y-31726500D01*
X84189614Y-31685571D01*
X84269287Y-31658218D01*
X84339082Y-31655068D01*
X84397229Y-31687819D01*
X88238181Y-35528771D01*
X88271666Y-35590094D01*
X88274500Y-35616452D01*
X88274500Y-42176500D01*
X88254815Y-42243539D01*
X88202011Y-42289294D01*
X88150501Y-42300500D01*
X88052130Y-42300500D01*
X88052123Y-42300501D01*
X87992516Y-42306908D01*
X87857671Y-42357202D01*
X87857664Y-42357206D01*
X87742455Y-42443452D01*
X87742452Y-42443455D01*
X87656206Y-42558664D01*
X87656202Y-42558671D01*
X87605908Y-42693517D01*
X87600026Y-42748235D01*
X87599501Y-42753123D01*
X87599500Y-42753135D01*
X87599500Y-43163546D01*
X87579815Y-43230585D01*
X87563181Y-43251227D01*
X84726226Y-46088181D01*
X84664903Y-46121666D01*
X84638545Y-46124500D01*
X83026129Y-46124500D01*
X83026123Y-46124501D01*
X82966516Y-46130908D01*
X82831671Y-46181202D01*
X82831664Y-46181206D01*
X82716455Y-46267452D01*
X82716452Y-46267455D01*
X82630206Y-46382664D01*
X82630202Y-46382671D01*
X82579908Y-46517517D01*
X82573501Y-46577116D01*
X82573500Y-46577135D01*
X82573500Y-48672870D01*
X82573501Y-48672876D01*
X82579908Y-48732483D01*
X82630202Y-48867328D01*
X82630206Y-48867335D01*
X82716452Y-48982544D01*
X82716455Y-48982547D01*
X82831664Y-49068793D01*
X82831671Y-49068797D01*
X82966517Y-49119091D01*
X82966516Y-49119091D01*
X82973444Y-49119835D01*
X83026127Y-49125500D01*
X85121872Y-49125499D01*
X85181483Y-49119091D01*
X85316331Y-49068796D01*
X85431546Y-48982546D01*
X85517796Y-48867331D01*
X85568091Y-48732483D01*
X85574500Y-48672873D01*
X85574499Y-47060451D01*
X85594184Y-46993413D01*
X85610813Y-46972776D01*
X87715143Y-44868446D01*
X87776464Y-44834963D01*
X87846156Y-44839947D01*
X87852782Y-44842973D01*
X87857668Y-44844795D01*
X87857669Y-44844796D01*
X87992517Y-44895091D01*
X87992527Y-44895092D01*
X87997913Y-44896365D01*
X88058631Y-44930935D01*
X88091021Y-44992843D01*
X88084799Y-45062435D01*
X88057088Y-45104725D01*
X87899951Y-45261862D01*
X87769432Y-45448265D01*
X87769431Y-45448267D01*
X87673261Y-45654502D01*
X87673258Y-45654511D01*
X87614366Y-45874302D01*
X87614364Y-45874313D01*
X87594532Y-46100998D01*
X87594532Y-46101001D01*
X87614364Y-46327686D01*
X87614366Y-46327697D01*
X87673258Y-46547488D01*
X87673261Y-46547497D01*
X87769431Y-46753732D01*
X87769432Y-46753734D01*
X87899954Y-46940141D01*
X88060858Y-47101045D01*
X88221623Y-47213613D01*
X88265248Y-47268189D01*
X88274500Y-47315188D01*
X88274500Y-51505547D01*
X88254815Y-51572586D01*
X88238181Y-51593228D01*
X83851228Y-55980181D01*
X83789905Y-56013666D01*
X83763547Y-56016500D01*
X75647738Y-56016500D01*
X75632121Y-56014776D01*
X75632094Y-56015062D01*
X75624332Y-56014327D01*
X75555204Y-56016500D01*
X75525650Y-56016500D01*
X75524929Y-56016590D01*
X75518757Y-56017369D01*
X75512945Y-56017826D01*
X75466373Y-56019290D01*
X75466372Y-56019290D01*
X75447129Y-56024881D01*
X75428079Y-56028825D01*
X75408211Y-56031334D01*
X75364884Y-56048488D01*
X75359358Y-56050379D01*
X75314614Y-56063379D01*
X75314610Y-56063381D01*
X75297366Y-56073579D01*
X75279905Y-56082133D01*
X75261274Y-56089510D01*
X75261262Y-56089517D01*
X75223570Y-56116902D01*
X75218687Y-56120109D01*
X75178580Y-56143829D01*
X75164414Y-56157995D01*
X75149624Y-56170627D01*
X75133414Y-56182404D01*
X75133411Y-56182407D01*
X75103710Y-56218309D01*
X75099777Y-56222631D01*
X74038208Y-57284199D01*
X74025951Y-57294020D01*
X74026134Y-57294241D01*
X74020123Y-57299213D01*
X73972772Y-57349636D01*
X73951889Y-57370519D01*
X73951877Y-57370532D01*
X73947621Y-57376017D01*
X73943837Y-57380447D01*
X73911937Y-57414418D01*
X73911936Y-57414420D01*
X73902284Y-57431976D01*
X73891610Y-57448226D01*
X73879329Y-57464061D01*
X73879324Y-57464068D01*
X73860815Y-57506838D01*
X73858245Y-57512084D01*
X73835803Y-57552906D01*
X73830822Y-57572307D01*
X73824521Y-57590710D01*
X73816562Y-57609102D01*
X73816561Y-57609105D01*
X73809271Y-57655127D01*
X73808087Y-57660846D01*
X73796501Y-57705972D01*
X73796500Y-57705982D01*
X73796500Y-57713811D01*
X73776815Y-57780850D01*
X73743623Y-57815386D01*
X73582859Y-57927953D01*
X73421954Y-58088858D01*
X73404725Y-58113464D01*
X73350147Y-58157088D01*
X73280648Y-58164280D01*
X73218294Y-58132757D01*
X73182882Y-58072526D01*
X73179861Y-58055591D01*
X73176091Y-58020516D01*
X73125797Y-57885671D01*
X73125793Y-57885664D01*
X73039547Y-57770455D01*
X73039544Y-57770452D01*
X72924335Y-57684206D01*
X72924328Y-57684202D01*
X72789482Y-57633908D01*
X72789483Y-57633908D01*
X72729883Y-57627501D01*
X72729881Y-57627500D01*
X72729873Y-57627500D01*
X72729864Y-57627500D01*
X71034129Y-57627500D01*
X71034123Y-57627501D01*
X70974516Y-57633908D01*
X70839671Y-57684202D01*
X70839664Y-57684206D01*
X70724455Y-57770452D01*
X70724452Y-57770455D01*
X70638206Y-57885664D01*
X70638202Y-57885671D01*
X70587908Y-58020517D01*
X70581501Y-58080116D01*
X70581500Y-58080135D01*
X70581500Y-59775870D01*
X65322627Y-59775870D01*
X69678681Y-55419819D01*
X69740004Y-55386334D01*
X69766362Y-55383500D01*
X71674373Y-55383500D01*
X71693772Y-55385027D01*
X71707612Y-55387219D01*
X71776959Y-55383584D01*
X71780203Y-55383500D01*
X82215373Y-55383500D01*
X82234772Y-55385027D01*
X82248612Y-55387219D01*
X82317959Y-55383584D01*
X82321203Y-55383500D01*
X82343191Y-55383500D01*
X82343192Y-55383500D01*
X82362219Y-55381500D01*
X82365064Y-55381201D01*
X82368284Y-55380947D01*
X82437646Y-55377313D01*
X82451187Y-55373683D01*
X82470313Y-55370138D01*
X82484256Y-55368674D01*
X82550306Y-55347212D01*
X82553368Y-55346304D01*
X82620488Y-55328320D01*
X82632976Y-55321956D01*
X82650950Y-55314510D01*
X82664284Y-55310179D01*
X82724476Y-55275425D01*
X82727222Y-55273934D01*
X82789149Y-55242383D01*
X82800031Y-55233569D01*
X82816083Y-55222537D01*
X82828216Y-55215533D01*
X82879847Y-55169043D01*
X82882260Y-55166982D01*
X82899380Y-55153119D01*
X82914929Y-55137568D01*
X82917270Y-55135347D01*
X82968888Y-55088871D01*
X82977130Y-55077525D01*
X82989760Y-55062737D01*
X83816549Y-54235949D01*
X83877870Y-54202466D01*
X83924640Y-54201324D01*
X83949663Y-54205500D01*
X83949665Y-54205500D01*
X84198335Y-54205500D01*
X84443614Y-54164571D01*
X84678810Y-54083828D01*
X84897509Y-53965474D01*
X85093744Y-53812738D01*
X85262164Y-53629785D01*
X85398173Y-53421607D01*
X85498063Y-53193881D01*
X85559108Y-52952821D01*
X85563221Y-52903188D01*
X85579643Y-52705005D01*
X85579643Y-52704994D01*
X85559109Y-52457187D01*
X85559107Y-52457175D01*
X85498063Y-52216118D01*
X85398173Y-51988393D01*
X85262166Y-51780217D01*
X85238481Y-51754488D01*
X85093744Y-51597262D01*
X84897509Y-51444526D01*
X84897507Y-51444525D01*
X84897506Y-51444524D01*
X84678811Y-51326172D01*
X84678802Y-51326169D01*
X84443616Y-51245429D01*
X84198335Y-51204500D01*
X83949665Y-51204500D01*
X83704383Y-51245429D01*
X83469197Y-51326169D01*
X83469188Y-51326172D01*
X83250493Y-51444524D01*
X83054257Y-51597261D01*
X82885833Y-51780217D01*
X82749826Y-51988393D01*
X82649936Y-52216118D01*
X82588892Y-52457175D01*
X82588890Y-52457187D01*
X82569157Y-52695344D01*
X82568357Y-52705000D01*
X82569598Y-52719973D01*
X82581374Y-52862100D01*
X82567292Y-52930536D01*
X82545478Y-52960020D01*
X81959320Y-53546181D01*
X81897997Y-53579666D01*
X81871639Y-53582500D01*
X72906500Y-53582500D01*
X72839461Y-53562815D01*
X72793706Y-53510011D01*
X72782500Y-53458500D01*
X72782500Y-52298048D01*
X72802185Y-52231009D01*
X72818814Y-52210371D01*
X72882047Y-52147139D01*
X73012568Y-51960734D01*
X73039618Y-51902724D01*
X73085790Y-51850285D01*
X73152983Y-51831133D01*
X73219865Y-51851348D01*
X73264381Y-51902724D01*
X73270431Y-51915697D01*
X73291429Y-51960728D01*
X73291432Y-51960734D01*
X73421954Y-52147141D01*
X73582858Y-52308045D01*
X73582861Y-52308047D01*
X73769266Y-52438568D01*
X73975504Y-52534739D01*
X73975509Y-52534740D01*
X73975511Y-52534741D01*
X73977116Y-52535171D01*
X74195308Y-52593635D01*
X74357230Y-52607801D01*
X74421998Y-52613468D01*
X74422000Y-52613468D01*
X74422002Y-52613468D01*
X74478673Y-52608509D01*
X74648692Y-52593635D01*
X74868496Y-52534739D01*
X75074734Y-52438568D01*
X75261139Y-52308047D01*
X75422047Y-52147139D01*
X75552568Y-51960734D01*
X75579895Y-51902129D01*
X75626064Y-51849695D01*
X75693257Y-51830542D01*
X75760139Y-51850757D01*
X75804657Y-51902133D01*
X75831865Y-51960482D01*
X75962342Y-52146820D01*
X76123179Y-52307657D01*
X76309517Y-52438134D01*
X76515673Y-52534265D01*
X76515682Y-52534269D01*
X76711999Y-52586872D01*
X76712000Y-52586871D01*
X76712000Y-51623686D01*
X76723955Y-51635641D01*
X76836852Y-51693165D01*
X76930519Y-51708000D01*
X76993481Y-51708000D01*
X77087148Y-51693165D01*
X77200045Y-51635641D01*
X77212000Y-51623686D01*
X77212000Y-52586872D01*
X77408317Y-52534269D01*
X77408326Y-52534265D01*
X77614482Y-52438134D01*
X77800820Y-52307657D01*
X77961657Y-52146820D01*
X78092134Y-51960481D01*
X78092135Y-51960479D01*
X78119618Y-51901543D01*
X78165790Y-51849103D01*
X78232983Y-51829951D01*
X78299864Y-51850166D01*
X78344382Y-51901543D01*
X78371864Y-51960479D01*
X78371865Y-51960481D01*
X78502342Y-52146820D01*
X78663179Y-52307657D01*
X78849517Y-52438134D01*
X79055673Y-52534265D01*
X79055682Y-52534269D01*
X79251999Y-52586872D01*
X79252000Y-52586871D01*
X79252000Y-51623686D01*
X79263955Y-51635641D01*
X79376852Y-51693165D01*
X79470519Y-51708000D01*
X79533481Y-51708000D01*
X79627148Y-51693165D01*
X79740045Y-51635641D01*
X79752000Y-51623686D01*
X79752000Y-52586872D01*
X79948317Y-52534269D01*
X79948326Y-52534265D01*
X80154482Y-52438134D01*
X80340820Y-52307657D01*
X80501657Y-52146820D01*
X80632134Y-51960482D01*
X80728265Y-51754326D01*
X80728269Y-51754317D01*
X80780872Y-51558000D01*
X79817686Y-51558000D01*
X79829641Y-51546045D01*
X79887165Y-51433148D01*
X79906986Y-51308000D01*
X79887165Y-51182852D01*
X79829641Y-51069955D01*
X79817686Y-51058000D01*
X80780872Y-51058000D01*
X80780872Y-51057999D01*
X80728269Y-50861682D01*
X80728265Y-50861673D01*
X80632134Y-50655517D01*
X80501657Y-50469179D01*
X80340820Y-50308342D01*
X80154481Y-50177865D01*
X80154477Y-50177863D01*
X80121706Y-50162581D01*
X80069267Y-50116408D01*
X80050116Y-50049215D01*
X80070333Y-49982334D01*
X80123498Y-49937000D01*
X80142021Y-49930425D01*
X80202312Y-49914271D01*
X80202331Y-49914264D01*
X80408478Y-49818136D01*
X80481472Y-49767025D01*
X79800401Y-49085953D01*
X79881148Y-49073165D01*
X79994045Y-49015641D01*
X80083641Y-48926045D01*
X80141165Y-48813148D01*
X80153953Y-48732400D01*
X80835025Y-49413472D01*
X80886136Y-49340478D01*
X80982264Y-49134331D01*
X80982269Y-49134317D01*
X81041139Y-48914610D01*
X81041141Y-48914599D01*
X81060966Y-48688002D01*
X81060966Y-48687997D01*
X81041141Y-48461400D01*
X81041139Y-48461389D01*
X80982269Y-48241682D01*
X80982265Y-48241673D01*
X80886133Y-48035516D01*
X80886131Y-48035512D01*
X80835026Y-47962526D01*
X80835025Y-47962526D01*
X80153953Y-48643598D01*
X80141165Y-48562852D01*
X80083641Y-48449955D01*
X79994045Y-48360359D01*
X79881148Y-48302835D01*
X79800400Y-48290046D01*
X80481472Y-47608974D01*
X80481471Y-47608973D01*
X80408483Y-47557866D01*
X80408481Y-47557865D01*
X80202326Y-47461734D01*
X80202317Y-47461730D01*
X79982610Y-47402860D01*
X79982599Y-47402858D01*
X79756002Y-47383034D01*
X79755998Y-47383034D01*
X79529400Y-47402858D01*
X79529389Y-47402860D01*
X79309682Y-47461730D01*
X79309673Y-47461734D01*
X79103513Y-47557868D01*
X79030527Y-47608972D01*
X79030526Y-47608973D01*
X79711600Y-48290046D01*
X79630852Y-48302835D01*
X79517955Y-48360359D01*
X79428359Y-48449955D01*
X79370835Y-48562852D01*
X79358046Y-48643599D01*
X78676973Y-47962526D01*
X78676972Y-47962527D01*
X78625868Y-48035513D01*
X78529734Y-48241673D01*
X78529730Y-48241682D01*
X78470860Y-48461389D01*
X78470858Y-48461400D01*
X78451034Y-48687997D01*
X78451034Y-48688002D01*
X78470858Y-48914599D01*
X78470860Y-48914610D01*
X78529730Y-49134317D01*
X78529734Y-49134326D01*
X78625865Y-49340481D01*
X78625866Y-49340483D01*
X78676973Y-49413471D01*
X78676974Y-49413472D01*
X79358046Y-48732399D01*
X79370835Y-48813148D01*
X79428359Y-48926045D01*
X79517955Y-49015641D01*
X79630852Y-49073165D01*
X79711599Y-49085953D01*
X79030526Y-49767025D01*
X79030526Y-49767026D01*
X79103512Y-49818131D01*
X79103516Y-49818133D01*
X79136292Y-49833417D01*
X79188731Y-49879589D01*
X79207883Y-49946783D01*
X79187667Y-50013664D01*
X79134502Y-50058999D01*
X79115980Y-50065574D01*
X79055682Y-50081730D01*
X79055673Y-50081734D01*
X78849517Y-50177865D01*
X78663179Y-50308342D01*
X78502342Y-50469179D01*
X78371865Y-50655517D01*
X78344382Y-50714457D01*
X78298210Y-50766896D01*
X78231016Y-50786048D01*
X78164135Y-50765832D01*
X78119618Y-50714457D01*
X78092134Y-50655517D01*
X77961657Y-50469179D01*
X77800820Y-50308342D01*
X77614482Y-50177865D01*
X77408328Y-50081734D01*
X77212000Y-50029127D01*
X77212000Y-50992314D01*
X77200045Y-50980359D01*
X77087148Y-50922835D01*
X76993481Y-50908000D01*
X76930519Y-50908000D01*
X76836852Y-50922835D01*
X76723955Y-50980359D01*
X76712000Y-50992314D01*
X76712000Y-50029127D01*
X76515671Y-50081734D01*
X76309517Y-50177865D01*
X76123179Y-50308342D01*
X75962342Y-50469179D01*
X75831867Y-50655515D01*
X75804657Y-50713867D01*
X75758484Y-50766306D01*
X75691290Y-50785457D01*
X75624409Y-50765241D01*
X75579893Y-50713865D01*
X75568276Y-50688953D01*
X75552568Y-50655266D01*
X75422047Y-50468861D01*
X75422045Y-50468858D01*
X75261141Y-50307954D01*
X75074734Y-50177432D01*
X75074732Y-50177431D01*
X74868497Y-50081261D01*
X74868488Y-50081258D01*
X74648697Y-50022366D01*
X74648693Y-50022365D01*
X74648692Y-50022365D01*
X74648691Y-50022364D01*
X74648686Y-50022364D01*
X74422002Y-50002532D01*
X74421998Y-50002532D01*
X74195313Y-50022364D01*
X74195302Y-50022366D01*
X73975511Y-50081258D01*
X73975502Y-50081261D01*
X73769267Y-50177431D01*
X73769265Y-50177432D01*
X73582858Y-50307954D01*
X73421954Y-50468858D01*
X73291432Y-50655265D01*
X73291431Y-50655267D01*
X73264382Y-50713275D01*
X73218209Y-50765714D01*
X73151016Y-50784866D01*
X73084135Y-50764650D01*
X73039618Y-50713275D01*
X73028277Y-50688954D01*
X73012568Y-50655266D01*
X72882047Y-50468861D01*
X72882045Y-50468858D01*
X72721141Y-50307954D01*
X72534734Y-50177432D01*
X72534732Y-50177431D01*
X72328497Y-50081261D01*
X72328488Y-50081258D01*
X72108697Y-50022366D01*
X72108693Y-50022365D01*
X72108692Y-50022365D01*
X72108691Y-50022364D01*
X72108686Y-50022364D01*
X71882002Y-50002532D01*
X71881998Y-50002532D01*
X71655313Y-50022364D01*
X71655302Y-50022366D01*
X71435511Y-50081258D01*
X71435502Y-50081261D01*
X71229267Y-50177431D01*
X71122364Y-50252284D01*
X71056158Y-50274611D01*
X70988391Y-50257599D01*
X70940578Y-50206650D01*
X70927901Y-50137940D01*
X70954384Y-50073284D01*
X70963549Y-50063040D01*
X76329788Y-44696801D01*
X76342042Y-44686986D01*
X76341859Y-44686764D01*
X76347866Y-44681792D01*
X76347877Y-44681786D01*
X76383985Y-44643335D01*
X76395227Y-44631364D01*
X76405671Y-44620918D01*
X76416120Y-44610471D01*
X76420379Y-44604978D01*
X76424152Y-44600561D01*
X76456062Y-44566582D01*
X76465715Y-44549020D01*
X76476389Y-44532770D01*
X76488673Y-44516936D01*
X76507180Y-44474167D01*
X76509749Y-44468924D01*
X76525752Y-44439815D01*
X76532197Y-44428092D01*
X76537177Y-44408691D01*
X76543478Y-44390288D01*
X76551438Y-44371896D01*
X76557898Y-44331100D01*
X76587827Y-44267968D01*
X76647138Y-44231036D01*
X76680372Y-44226499D01*
X76793871Y-44226499D01*
X76793872Y-44226499D01*
X76853483Y-44220091D01*
X76988331Y-44169796D01*
X77103546Y-44083546D01*
X77189796Y-43968331D01*
X77240091Y-43833483D01*
X77246500Y-43773873D01*
X77246499Y-42815450D01*
X77266183Y-42748412D01*
X77282813Y-42727775D01*
X79702002Y-40308587D01*
X79763323Y-40275104D01*
X79833015Y-40280088D01*
X79888948Y-40321960D01*
X79891256Y-40325147D01*
X79898954Y-40336141D01*
X80059858Y-40497045D01*
X80220623Y-40609613D01*
X80264248Y-40664189D01*
X80273500Y-40711188D01*
X80273500Y-42234545D01*
X80253815Y-42301584D01*
X80237181Y-42322226D01*
X80170821Y-42388586D01*
X80109498Y-42422071D01*
X80051048Y-42420680D01*
X79982697Y-42402366D01*
X79982693Y-42402365D01*
X79982692Y-42402365D01*
X79869346Y-42392448D01*
X79756001Y-42382532D01*
X79755998Y-42382532D01*
X79529313Y-42402364D01*
X79529302Y-42402366D01*
X79309511Y-42461258D01*
X79309502Y-42461261D01*
X79103267Y-42557431D01*
X79103265Y-42557432D01*
X78916858Y-42687954D01*
X78755954Y-42848858D01*
X78625432Y-43035265D01*
X78625431Y-43035267D01*
X78529261Y-43241502D01*
X78529258Y-43241511D01*
X78470366Y-43461302D01*
X78470364Y-43461313D01*
X78450532Y-43687998D01*
X78450532Y-43688001D01*
X78470364Y-43914686D01*
X78470366Y-43914697D01*
X78529258Y-44134488D01*
X78529261Y-44134497D01*
X78625431Y-44340732D01*
X78625432Y-44340734D01*
X78755954Y-44527141D01*
X78916858Y-44688045D01*
X78918413Y-44689134D01*
X79103266Y-44818568D01*
X79309504Y-44914739D01*
X79309509Y-44914740D01*
X79309511Y-44914741D01*
X79362415Y-44928916D01*
X79529308Y-44973635D01*
X79691230Y-44987801D01*
X79755998Y-44993468D01*
X79756000Y-44993468D01*
X79756002Y-44993468D01*
X79812673Y-44988509D01*
X79982692Y-44973635D01*
X80202496Y-44914739D01*
X80408734Y-44818568D01*
X80595139Y-44688047D01*
X80756047Y-44527139D01*
X80886568Y-44340734D01*
X80982739Y-44134496D01*
X81041635Y-43914692D01*
X81061468Y-43688000D01*
X81041635Y-43461308D01*
X81023318Y-43392948D01*
X81024981Y-43323103D01*
X81055410Y-43273179D01*
X81282788Y-43045801D01*
X81295042Y-43035986D01*
X81294859Y-43035764D01*
X81300866Y-43030792D01*
X81300877Y-43030786D01*
X81331775Y-42997882D01*
X81348227Y-42980364D01*
X81358671Y-42969918D01*
X81369120Y-42959471D01*
X81373379Y-42953978D01*
X81377152Y-42949561D01*
X81409062Y-42915582D01*
X81418713Y-42898024D01*
X81429396Y-42881761D01*
X81441673Y-42865936D01*
X81460185Y-42823153D01*
X81462738Y-42817941D01*
X81485197Y-42777092D01*
X81490180Y-42757680D01*
X81496481Y-42739280D01*
X81504437Y-42720896D01*
X81511729Y-42674852D01*
X81512906Y-42669171D01*
X81524500Y-42624019D01*
X81524500Y-42603983D01*
X81526027Y-42584582D01*
X81529160Y-42564804D01*
X81524775Y-42518415D01*
X81524500Y-42512577D01*
X81524500Y-40711188D01*
X81544185Y-40644149D01*
X81577377Y-40609613D01*
X81625836Y-40575681D01*
X81738139Y-40497047D01*
X81899047Y-40336139D01*
X82029568Y-40149734D01*
X82125739Y-39943496D01*
X82184635Y-39723692D01*
X82204468Y-39497002D01*
X84594034Y-39497002D01*
X84613858Y-39723599D01*
X84613860Y-39723610D01*
X84672730Y-39943317D01*
X84672734Y-39943326D01*
X84768865Y-40149481D01*
X84768866Y-40149483D01*
X84819973Y-40222471D01*
X84819974Y-40222472D01*
X85501046Y-39541399D01*
X85513835Y-39622148D01*
X85571359Y-39735045D01*
X85660955Y-39824641D01*
X85773852Y-39882165D01*
X85854599Y-39894953D01*
X85173526Y-40576025D01*
X85173526Y-40576026D01*
X85246512Y-40627131D01*
X85246516Y-40627133D01*
X85452673Y-40723265D01*
X85452682Y-40723269D01*
X85672389Y-40782139D01*
X85672400Y-40782141D01*
X85898998Y-40801966D01*
X85899002Y-40801966D01*
X86125599Y-40782141D01*
X86125610Y-40782139D01*
X86345317Y-40723269D01*
X86345331Y-40723264D01*
X86551478Y-40627136D01*
X86624472Y-40576025D01*
X85943401Y-39894953D01*
X86024148Y-39882165D01*
X86137045Y-39824641D01*
X86226641Y-39735045D01*
X86284165Y-39622148D01*
X86296953Y-39541400D01*
X86978025Y-40222472D01*
X87029136Y-40149478D01*
X87125264Y-39943331D01*
X87125269Y-39943317D01*
X87184139Y-39723610D01*
X87184141Y-39723599D01*
X87203966Y-39497002D01*
X87203966Y-39496997D01*
X87184141Y-39270400D01*
X87184139Y-39270389D01*
X87125269Y-39050682D01*
X87125265Y-39050673D01*
X87029133Y-38844516D01*
X87029131Y-38844512D01*
X86978026Y-38771526D01*
X86978025Y-38771526D01*
X86296953Y-39452598D01*
X86284165Y-39371852D01*
X86226641Y-39258955D01*
X86137045Y-39169359D01*
X86024148Y-39111835D01*
X85943400Y-39099046D01*
X86624472Y-38417974D01*
X86624471Y-38417973D01*
X86551483Y-38366866D01*
X86551481Y-38366865D01*
X86345326Y-38270734D01*
X86345317Y-38270730D01*
X86125610Y-38211860D01*
X86125599Y-38211858D01*
X85899002Y-38192034D01*
X85898998Y-38192034D01*
X85672400Y-38211858D01*
X85672389Y-38211860D01*
X85452682Y-38270730D01*
X85452673Y-38270734D01*
X85246513Y-38366868D01*
X85173527Y-38417972D01*
X85173526Y-38417973D01*
X85854600Y-39099046D01*
X85773852Y-39111835D01*
X85660955Y-39169359D01*
X85571359Y-39258955D01*
X85513835Y-39371852D01*
X85501046Y-39452599D01*
X84819973Y-38771526D01*
X84819972Y-38771527D01*
X84768868Y-38844513D01*
X84672734Y-39050673D01*
X84672730Y-39050682D01*
X84613860Y-39270389D01*
X84613858Y-39270400D01*
X84594034Y-39496997D01*
X84594034Y-39497002D01*
X82204468Y-39497002D01*
X82204468Y-39497000D01*
X82203167Y-39482134D01*
X82193519Y-39371852D01*
X82184635Y-39270308D01*
X82125739Y-39050504D01*
X82029568Y-38844266D01*
X81931839Y-38704693D01*
X81899045Y-38657858D01*
X81738141Y-38496954D01*
X81551734Y-38366432D01*
X81551732Y-38366431D01*
X81345497Y-38270261D01*
X81345488Y-38270258D01*
X81125697Y-38211366D01*
X81125693Y-38211365D01*
X81125692Y-38211365D01*
X81125691Y-38211364D01*
X81125686Y-38211364D01*
X80899002Y-38191532D01*
X80898998Y-38191532D01*
X80672313Y-38211364D01*
X80672302Y-38211366D01*
X80452511Y-38270258D01*
X80452502Y-38270261D01*
X80246267Y-38366431D01*
X80246265Y-38366432D01*
X80059858Y-38496954D01*
X79898953Y-38657859D01*
X79787906Y-38816452D01*
X79733329Y-38860077D01*
X79690226Y-38869268D01*
X79619203Y-38871500D01*
X79589650Y-38871500D01*
X79588929Y-38871590D01*
X79582757Y-38872369D01*
X79576945Y-38872826D01*
X79530378Y-38874290D01*
X79530367Y-38874292D01*
X79511134Y-38879879D01*
X79492094Y-38883822D01*
X79472217Y-38886334D01*
X79472210Y-38886335D01*
X79472208Y-38886336D01*
X79472206Y-38886336D01*
X79472205Y-38886337D01*
X79428868Y-38903494D01*
X79423342Y-38905386D01*
X79378611Y-38918382D01*
X79378608Y-38918383D01*
X79361363Y-38928581D01*
X79343901Y-38937135D01*
X79325272Y-38944511D01*
X79325267Y-38944513D01*
X79287564Y-38971906D01*
X79282682Y-38975112D01*
X79242580Y-38998828D01*
X79228408Y-39013000D01*
X79213623Y-39025628D01*
X79197412Y-39037407D01*
X79167709Y-39073310D01*
X79163777Y-39077631D01*
X76652226Y-41589181D01*
X76590903Y-41622666D01*
X76564545Y-41625500D01*
X75098129Y-41625500D01*
X75098123Y-41625501D01*
X75038516Y-41631908D01*
X74903671Y-41682202D01*
X74903664Y-41682206D01*
X74788455Y-41768452D01*
X74788452Y-41768455D01*
X74702206Y-41883664D01*
X74702202Y-41883671D01*
X74651908Y-42018517D01*
X74645501Y-42078116D01*
X74645322Y-42081452D01*
X74643847Y-42081372D01*
X74625815Y-42142783D01*
X74573011Y-42188538D01*
X74529523Y-42196028D01*
X73843953Y-42881598D01*
X73831165Y-42800852D01*
X73773641Y-42687955D01*
X73684045Y-42598359D01*
X73571148Y-42540835D01*
X73490400Y-42528046D01*
X74171472Y-41846974D01*
X74171471Y-41846973D01*
X74098483Y-41795866D01*
X74098481Y-41795865D01*
X73892326Y-41699734D01*
X73892317Y-41699730D01*
X73672610Y-41640860D01*
X73672599Y-41640858D01*
X73446002Y-41621034D01*
X73445998Y-41621034D01*
X73219400Y-41640858D01*
X73219389Y-41640860D01*
X72999682Y-41699730D01*
X72999673Y-41699734D01*
X72793513Y-41795868D01*
X72720527Y-41846972D01*
X72720526Y-41846973D01*
X73401600Y-42528046D01*
X73320852Y-42540835D01*
X73207955Y-42598359D01*
X73118359Y-42687955D01*
X73060835Y-42800852D01*
X73048046Y-42881599D01*
X72366973Y-42200526D01*
X72366972Y-42200527D01*
X72315868Y-42273513D01*
X72219734Y-42479673D01*
X72219730Y-42479682D01*
X72160860Y-42699389D01*
X72160858Y-42699400D01*
X72141034Y-42925997D01*
X72141034Y-42926002D01*
X72160858Y-43152599D01*
X72160860Y-43152610D01*
X72219730Y-43372317D01*
X72219734Y-43372326D01*
X72315865Y-43578481D01*
X72315866Y-43578483D01*
X72366973Y-43651471D01*
X72366974Y-43651472D01*
X73048046Y-42970399D01*
X73060835Y-43051148D01*
X73118359Y-43164045D01*
X73207955Y-43253641D01*
X73320852Y-43311165D01*
X73401599Y-43323953D01*
X72720526Y-44005025D01*
X72720526Y-44005026D01*
X72793512Y-44056131D01*
X72793516Y-44056133D01*
X72999673Y-44152265D01*
X72999682Y-44152269D01*
X73219389Y-44211139D01*
X73219400Y-44211141D01*
X73445998Y-44230966D01*
X73446002Y-44230966D01*
X73672599Y-44211141D01*
X73672610Y-44211139D01*
X73892317Y-44152269D01*
X73892331Y-44152264D01*
X74098478Y-44056136D01*
X74171472Y-44005025D01*
X73490401Y-43323953D01*
X73571148Y-43311165D01*
X73684045Y-43253641D01*
X73773641Y-43164045D01*
X73831165Y-43051148D01*
X73843953Y-42970400D01*
X74530199Y-43656646D01*
X74579192Y-43666492D01*
X74629375Y-43715107D01*
X74644049Y-43770632D01*
X74645099Y-43770576D01*
X74645146Y-43770571D01*
X74645146Y-43770573D01*
X74645324Y-43770564D01*
X74645501Y-43773876D01*
X74651908Y-43833483D01*
X74702202Y-43968328D01*
X74702206Y-43968335D01*
X74788451Y-44083543D01*
X74788452Y-44083544D01*
X74788454Y-44083546D01*
X74894306Y-44162787D01*
X74936176Y-44218719D01*
X74941160Y-44288411D01*
X74907675Y-44349733D01*
X66579228Y-52678181D01*
X66517905Y-52711666D01*
X66491547Y-52714500D01*
X66233655Y-52714500D01*
X66166616Y-52694815D01*
X66121273Y-52642905D01*
X66071035Y-52535171D01*
X66071034Y-52535169D01*
X65935496Y-52341600D01*
X65876502Y-52282606D01*
X65813567Y-52219671D01*
X65780084Y-52158351D01*
X65785068Y-52088659D01*
X65826939Y-52032725D01*
X65857915Y-52015810D01*
X65989331Y-51966796D01*
X66104546Y-51880546D01*
X66190796Y-51765331D01*
X66241091Y-51630483D01*
X66247500Y-51570873D01*
X66247499Y-50258450D01*
X66267184Y-50191412D01*
X66283813Y-50170775D01*
X66550786Y-49903802D01*
X66563048Y-49893980D01*
X66562865Y-49893759D01*
X66568867Y-49888792D01*
X66568877Y-49888786D01*
X66616241Y-49838348D01*
X66637120Y-49817470D01*
X66641373Y-49811986D01*
X66645150Y-49807563D01*
X66677062Y-49773582D01*
X66686714Y-49756023D01*
X66697389Y-49739772D01*
X66709674Y-49723936D01*
X66728186Y-49681152D01*
X66730742Y-49675935D01*
X66753197Y-49635092D01*
X66758180Y-49615680D01*
X66764477Y-49597291D01*
X66772438Y-49578895D01*
X66779729Y-49532853D01*
X66780908Y-49527162D01*
X66792500Y-49482019D01*
X66792500Y-49461983D01*
X66794027Y-49442582D01*
X66797160Y-49422804D01*
X66792775Y-49376415D01*
X66792500Y-49370577D01*
X66792500Y-47672002D01*
X67402034Y-47672002D01*
X67421858Y-47898599D01*
X67421860Y-47898610D01*
X67480730Y-48118317D01*
X67480734Y-48118326D01*
X67576865Y-48324481D01*
X67576866Y-48324483D01*
X67627973Y-48397471D01*
X67627974Y-48397472D01*
X68309046Y-47716399D01*
X68321835Y-47797148D01*
X68379359Y-47910045D01*
X68468955Y-47999641D01*
X68581852Y-48057165D01*
X68662599Y-48069953D01*
X67981526Y-48751025D01*
X67981526Y-48751026D01*
X68054512Y-48802131D01*
X68054516Y-48802133D01*
X68260673Y-48898265D01*
X68260682Y-48898269D01*
X68480389Y-48957139D01*
X68480400Y-48957141D01*
X68706998Y-48976966D01*
X68707002Y-48976966D01*
X68933599Y-48957141D01*
X68933610Y-48957139D01*
X69153317Y-48898269D01*
X69153331Y-48898264D01*
X69359478Y-48802136D01*
X69432472Y-48751025D01*
X68751401Y-48069953D01*
X68832148Y-48057165D01*
X68945045Y-47999641D01*
X69034641Y-47910045D01*
X69092165Y-47797148D01*
X69104953Y-47716400D01*
X69786025Y-48397472D01*
X69837136Y-48324478D01*
X69933264Y-48118331D01*
X69933269Y-48118317D01*
X69992139Y-47898610D01*
X69992141Y-47898599D01*
X70011966Y-47672002D01*
X70011966Y-47671997D01*
X69992141Y-47445400D01*
X69992139Y-47445389D01*
X69933269Y-47225682D01*
X69933265Y-47225673D01*
X69837133Y-47019516D01*
X69837131Y-47019512D01*
X69786026Y-46946526D01*
X69786025Y-46946526D01*
X69104953Y-47627598D01*
X69092165Y-47546852D01*
X69034641Y-47433955D01*
X68945045Y-47344359D01*
X68832148Y-47286835D01*
X68751400Y-47274046D01*
X69432472Y-46592974D01*
X69432471Y-46592973D01*
X69359483Y-46541866D01*
X69359481Y-46541865D01*
X69153326Y-46445734D01*
X69153317Y-46445730D01*
X68933610Y-46386860D01*
X68933599Y-46386858D01*
X68707002Y-46367034D01*
X68706998Y-46367034D01*
X68480400Y-46386858D01*
X68480389Y-46386860D01*
X68260682Y-46445730D01*
X68260673Y-46445734D01*
X68054513Y-46541868D01*
X67981527Y-46592972D01*
X67981526Y-46592973D01*
X68662600Y-47274046D01*
X68581852Y-47286835D01*
X68468955Y-47344359D01*
X68379359Y-47433955D01*
X68321835Y-47546852D01*
X68309046Y-47627599D01*
X67627973Y-46946526D01*
X67627972Y-46946527D01*
X67576868Y-47019513D01*
X67480734Y-47225673D01*
X67480730Y-47225682D01*
X67421860Y-47445389D01*
X67421858Y-47445400D01*
X67402034Y-47671997D01*
X67402034Y-47672002D01*
X66792500Y-47672002D01*
X66792500Y-43421500D01*
X66812185Y-43354461D01*
X66864989Y-43308706D01*
X66916500Y-43297500D01*
X67492812Y-43297500D01*
X67559851Y-43317185D01*
X67594387Y-43350377D01*
X67706954Y-43511141D01*
X67867858Y-43672045D01*
X67867861Y-43672047D01*
X68054266Y-43802568D01*
X68260504Y-43898739D01*
X68480308Y-43957635D01*
X68642230Y-43971801D01*
X68706998Y-43977468D01*
X68707000Y-43977468D01*
X68707002Y-43977468D01*
X68763673Y-43972509D01*
X68933692Y-43957635D01*
X69153496Y-43898739D01*
X69359734Y-43802568D01*
X69546139Y-43672047D01*
X69707047Y-43511139D01*
X69804244Y-43372326D01*
X69840674Y-43320299D01*
X69842911Y-43321865D01*
X69884879Y-43281381D01*
X69896680Y-43275977D01*
X69923122Y-43265507D01*
X69928634Y-43263620D01*
X69973390Y-43250618D01*
X69990629Y-43240422D01*
X70008103Y-43231862D01*
X70026727Y-43224488D01*
X70026727Y-43224487D01*
X70026732Y-43224486D01*
X70064449Y-43197082D01*
X70069305Y-43193892D01*
X70109420Y-43170170D01*
X70123589Y-43155999D01*
X70138379Y-43143368D01*
X70154587Y-43131594D01*
X70184299Y-43095676D01*
X70188212Y-43091376D01*
X73755771Y-39523819D01*
X73817094Y-39490334D01*
X73843452Y-39487500D01*
X77514257Y-39487500D01*
X77529877Y-39489224D01*
X77529904Y-39488939D01*
X77537660Y-39489671D01*
X77537667Y-39489673D01*
X77606814Y-39487500D01*
X77636350Y-39487500D01*
X77643228Y-39486630D01*
X77649041Y-39486172D01*
X77695627Y-39484709D01*
X77714869Y-39479117D01*
X77733912Y-39475174D01*
X77753792Y-39472664D01*
X77797122Y-39455507D01*
X77802646Y-39453617D01*
X77806396Y-39452527D01*
X77847390Y-39440618D01*
X77864629Y-39430422D01*
X77882103Y-39421862D01*
X77900727Y-39414488D01*
X77900727Y-39414487D01*
X77900732Y-39414486D01*
X77938449Y-39387082D01*
X77943305Y-39383892D01*
X77983420Y-39360170D01*
X77997589Y-39345999D01*
X78012379Y-39333368D01*
X78028587Y-39321594D01*
X78058289Y-39285688D01*
X78062211Y-39281377D01*
X78234788Y-39108801D01*
X78247050Y-39098979D01*
X78246867Y-39098758D01*
X78252876Y-39093787D01*
X78293363Y-39050673D01*
X78300227Y-39043363D01*
X78321120Y-39022471D01*
X78325379Y-39016978D01*
X78329152Y-39012561D01*
X78361062Y-38978582D01*
X78370713Y-38961024D01*
X78381396Y-38944761D01*
X78393673Y-38928936D01*
X78412185Y-38886153D01*
X78414738Y-38880941D01*
X78437197Y-38840092D01*
X78442180Y-38820680D01*
X78448481Y-38802280D01*
X78456437Y-38783896D01*
X78463729Y-38737852D01*
X78464906Y-38732171D01*
X78476500Y-38687019D01*
X78476500Y-38666983D01*
X78478027Y-38647582D01*
X78481160Y-38627804D01*
X78476775Y-38581415D01*
X78476500Y-38575577D01*
X78476500Y-37476180D01*
X78496185Y-37409141D01*
X78534524Y-37371189D01*
X78612576Y-37322147D01*
X78736147Y-37198576D01*
X78829122Y-37050606D01*
X78886841Y-36885657D01*
X78901500Y-36755552D01*
X78901500Y-35418448D01*
X78886841Y-35288343D01*
X78829122Y-35123394D01*
X78738061Y-34978471D01*
X78719062Y-34911235D01*
X78739430Y-34844400D01*
X78792698Y-34799186D01*
X78843056Y-34788500D01*
X80998500Y-34788500D01*
X81065539Y-34808185D01*
X81111294Y-34860989D01*
X81122500Y-34912500D01*
X81122500Y-35899870D01*
X81122501Y-35899876D01*
X81128908Y-35959483D01*
X81179202Y-36094328D01*
X81179206Y-36094335D01*
X81265452Y-36209544D01*
X81265455Y-36209547D01*
X81380664Y-36295793D01*
X81380671Y-36295797D01*
X81515517Y-36346091D01*
X81515516Y-36346091D01*
X81522444Y-36346835D01*
X81575127Y-36352500D01*
X83270872Y-36352499D01*
X83330483Y-36346091D01*
X83465331Y-36295796D01*
X83580546Y-36209546D01*
X83666796Y-36094331D01*
X83717091Y-35959483D01*
X83723500Y-35899873D01*
X83723499Y-35899845D01*
X83723678Y-35896547D01*
X83725183Y-35896627D01*
X83743112Y-35835326D01*
X83795868Y-35789514D01*
X83839464Y-35781981D01*
X84525046Y-35096399D01*
X84537835Y-35177148D01*
X84595359Y-35290045D01*
X84684955Y-35379641D01*
X84797852Y-35437165D01*
X84878599Y-35449953D01*
X84197526Y-36131025D01*
X84197526Y-36131026D01*
X84270512Y-36182131D01*
X84270516Y-36182133D01*
X84476673Y-36278265D01*
X84476682Y-36278269D01*
X84696389Y-36337139D01*
X84696400Y-36337141D01*
X84922998Y-36356966D01*
X84923002Y-36356966D01*
X85149599Y-36337141D01*
X85149610Y-36337139D01*
X85369317Y-36278269D01*
X85369331Y-36278264D01*
X85575478Y-36182136D01*
X85648472Y-36131025D01*
X84967401Y-35449953D01*
X85048148Y-35437165D01*
X85161045Y-35379641D01*
X85250641Y-35290045D01*
X85308165Y-35177148D01*
X85320953Y-35096400D01*
X86002025Y-35777472D01*
X86053136Y-35704478D01*
X86149264Y-35498331D01*
X86149269Y-35498317D01*
X86208139Y-35278610D01*
X86208141Y-35278599D01*
X86227966Y-35052002D01*
X86227966Y-35051997D01*
X86208141Y-34825400D01*
X86208139Y-34825389D01*
X86149269Y-34605682D01*
X86149265Y-34605673D01*
X86053133Y-34399516D01*
X86053131Y-34399512D01*
X86002026Y-34326526D01*
X86002025Y-34326526D01*
X85320953Y-35007598D01*
X85308165Y-34926852D01*
X85250641Y-34813955D01*
X85161045Y-34724359D01*
X85048148Y-34666835D01*
X84967400Y-34654046D01*
X85648472Y-33972974D01*
X85648471Y-33972973D01*
X85575483Y-33921866D01*
X85575481Y-33921865D01*
X85369326Y-33825734D01*
X85369317Y-33825730D01*
X85149610Y-33766860D01*
X85149599Y-33766858D01*
X84923002Y-33747034D01*
X84922998Y-33747034D01*
X84696400Y-33766858D01*
X84696389Y-33766860D01*
X84476682Y-33825730D01*
X84476673Y-33825734D01*
X84270513Y-33921868D01*
X84197527Y-33972972D01*
X84197526Y-33972973D01*
X84878600Y-34654046D01*
X84797852Y-34666835D01*
X84684955Y-34724359D01*
X84595359Y-34813955D01*
X84537835Y-34926852D01*
X84525046Y-35007599D01*
X83838798Y-34321351D01*
X83789805Y-34311505D01*
X83739623Y-34262889D01*
X83724981Y-34207366D01*
X83723900Y-34207423D01*
X83723854Y-34207429D01*
X83723853Y-34207426D01*
X83723676Y-34207436D01*
X83723499Y-34204141D01*
X83723499Y-34204128D01*
X83717091Y-34144517D01*
X83666796Y-34009669D01*
X83666795Y-34009668D01*
X83666793Y-34009664D01*
X83580547Y-33894455D01*
X83580544Y-33894452D01*
X83465335Y-33808206D01*
X83465328Y-33808202D01*
X83330482Y-33757908D01*
X83330483Y-33757908D01*
X83270883Y-33751501D01*
X83270881Y-33751500D01*
X83270873Y-33751500D01*
X83270865Y-33751500D01*
X82058635Y-33751500D01*
X81991596Y-33731815D01*
X81973754Y-33717895D01*
X81969366Y-33713774D01*
X81948476Y-33692884D01*
X81942986Y-33688625D01*
X81938561Y-33684847D01*
X81904582Y-33652938D01*
X81904580Y-33652936D01*
X81904577Y-33652935D01*
X81887029Y-33643288D01*
X81870763Y-33632604D01*
X81854933Y-33620325D01*
X81812168Y-33601818D01*
X81806922Y-33599248D01*
X81766093Y-33576803D01*
X81766092Y-33576802D01*
X81746693Y-33571822D01*
X81728281Y-33565518D01*
X81709898Y-33557562D01*
X81709892Y-33557560D01*
X81663874Y-33550272D01*
X81658152Y-33549087D01*
X81613021Y-33537500D01*
X81613019Y-33537500D01*
X81592984Y-33537500D01*
X81573586Y-33535973D01*
X81566162Y-33534797D01*
X81553805Y-33532840D01*
X81553804Y-33532840D01*
X81507416Y-33537225D01*
X81501578Y-33537500D01*
X77755500Y-33537500D01*
X77688461Y-33517815D01*
X77642706Y-33465011D01*
X77631500Y-33413500D01*
X77631500Y-33348445D01*
X77631499Y-33348441D01*
X77616842Y-33218351D01*
X77616841Y-33218349D01*
X77616841Y-33218343D01*
X77559122Y-33053394D01*
X77466147Y-32905424D01*
X77342576Y-32781853D01*
X77194606Y-32688878D01*
X77194605Y-32688877D01*
X77194604Y-32688877D01*
X77029658Y-32631159D01*
X77029648Y-32631157D01*
X76899558Y-32616500D01*
X76899552Y-32616500D01*
X76859453Y-32616500D01*
X76792414Y-32596815D01*
X76771772Y-32580181D01*
X76734819Y-32543228D01*
X76701334Y-32481905D01*
X76698500Y-32455547D01*
X76698500Y-30975500D01*
X76718185Y-30908461D01*
X76770989Y-30862706D01*
X76822500Y-30851500D01*
X77115501Y-30851500D01*
X77182540Y-30871185D01*
X77228295Y-30923989D01*
X77239501Y-30975500D01*
X77239501Y-31273876D01*
X77245908Y-31333483D01*
X77296202Y-31468328D01*
X77296206Y-31468335D01*
X77382452Y-31583544D01*
X77382455Y-31583547D01*
X77497664Y-31669793D01*
X77497671Y-31669797D01*
X77632517Y-31720091D01*
X77632516Y-31720091D01*
X77639444Y-31720835D01*
X77692127Y-31726500D01*
X79787872Y-31726499D01*
X79847483Y-31720091D01*
X79982331Y-31669796D01*
X80097546Y-31583546D01*
X80183796Y-31468331D01*
X80234091Y-31333483D01*
X80240500Y-31273873D01*
X80240499Y-29178128D01*
X80234091Y-29118517D01*
X80227490Y-29100820D01*
X80183797Y-28983671D01*
X80183793Y-28983664D01*
X80097547Y-28868455D01*
X80097544Y-28868452D01*
X79982335Y-28782206D01*
X79982328Y-28782202D01*
X79847482Y-28731908D01*
X79847483Y-28731908D01*
X79787883Y-28725501D01*
X79787881Y-28725500D01*
X79787873Y-28725500D01*
X79787864Y-28725500D01*
X77692129Y-28725500D01*
X77692123Y-28725501D01*
X77632516Y-28731908D01*
X77497671Y-28782202D01*
X77497664Y-28782206D01*
X77382455Y-28868452D01*
X77382452Y-28868455D01*
X77296206Y-28983664D01*
X77296202Y-28983671D01*
X77245908Y-29118517D01*
X77239501Y-29178116D01*
X77239501Y-29178123D01*
X77239500Y-29178135D01*
X77239500Y-29476500D01*
X77219815Y-29543539D01*
X77167011Y-29589294D01*
X77115500Y-29600500D01*
X76822500Y-29600500D01*
X76755461Y-29580815D01*
X76709706Y-29528011D01*
X76698500Y-29476500D01*
X76698500Y-27951812D01*
X76718185Y-27884773D01*
X76722813Y-27880763D01*
X87299787Y-27880763D01*
X87329413Y-28150013D01*
X87329415Y-28150024D01*
X87397926Y-28412082D01*
X87397928Y-28412088D01*
X87503870Y-28661390D01*
X87630239Y-28868452D01*
X87644979Y-28892605D01*
X87644986Y-28892615D01*
X87818253Y-29100819D01*
X87818259Y-29100824D01*
X87904535Y-29178127D01*
X88019998Y-29281582D01*
X88245910Y-29431044D01*
X88491176Y-29546020D01*
X88491183Y-29546022D01*
X88491185Y-29546023D01*
X88750557Y-29624057D01*
X88750564Y-29624058D01*
X88750569Y-29624060D01*
X89018561Y-29663500D01*
X89018566Y-29663500D01*
X89221636Y-29663500D01*
X89273133Y-29659730D01*
X89424156Y-29648677D01*
X89536758Y-29623593D01*
X89688546Y-29589782D01*
X89688548Y-29589781D01*
X89688553Y-29589780D01*
X89941558Y-29493014D01*
X90177777Y-29360441D01*
X90392177Y-29194888D01*
X90580186Y-28999881D01*
X90737799Y-28779579D01*
X90820450Y-28618822D01*
X90861649Y-28538690D01*
X90861651Y-28538684D01*
X90861656Y-28538675D01*
X90949118Y-28282305D01*
X90998319Y-28015933D01*
X91008212Y-27745235D01*
X90978586Y-27475982D01*
X90910072Y-27213912D01*
X90804130Y-26964610D01*
X90663018Y-26733390D01*
X90661845Y-26731981D01*
X90489746Y-26525180D01*
X90489740Y-26525175D01*
X90288002Y-26344418D01*
X90062092Y-26194957D01*
X90050336Y-26189446D01*
X89816824Y-26079980D01*
X89816819Y-26079978D01*
X89816814Y-26079976D01*
X89557442Y-26001942D01*
X89557428Y-26001939D01*
X89439104Y-25984526D01*
X89289439Y-25962500D01*
X89086369Y-25962500D01*
X89086364Y-25962500D01*
X88883844Y-25977323D01*
X88883831Y-25977325D01*
X88619453Y-26036217D01*
X88619446Y-26036220D01*
X88366439Y-26132987D01*
X88130226Y-26265557D01*
X88130224Y-26265558D01*
X88130223Y-26265559D01*
X88079203Y-26304955D01*
X87915822Y-26431112D01*
X87727822Y-26626109D01*
X87727816Y-26626116D01*
X87570202Y-26846419D01*
X87570199Y-26846424D01*
X87446350Y-27087309D01*
X87446343Y-27087327D01*
X87358884Y-27343685D01*
X87358881Y-27343699D01*
X87351781Y-27382139D01*
X87322061Y-27543045D01*
X87309681Y-27610068D01*
X87309680Y-27610075D01*
X87299787Y-27880763D01*
X76722813Y-27880763D01*
X76770989Y-27839018D01*
X76802561Y-27830702D01*
X76802363Y-27829574D01*
X76807679Y-27828636D01*
X76807692Y-27828635D01*
X77027496Y-27769739D01*
X77233734Y-27673568D01*
X77420139Y-27543047D01*
X77581047Y-27382139D01*
X77711568Y-27195734D01*
X77807739Y-26989496D01*
X77866635Y-26769692D01*
X77886468Y-26543002D01*
X80276034Y-26543002D01*
X80295858Y-26769599D01*
X80295860Y-26769610D01*
X80354730Y-26989317D01*
X80354734Y-26989326D01*
X80450865Y-27195481D01*
X80450866Y-27195483D01*
X80501973Y-27268471D01*
X80501974Y-27268472D01*
X81183046Y-26587399D01*
X81195835Y-26668148D01*
X81253359Y-26781045D01*
X81342955Y-26870641D01*
X81455852Y-26928165D01*
X81536599Y-26940953D01*
X80855526Y-27622025D01*
X80855526Y-27622026D01*
X80928512Y-27673131D01*
X80928516Y-27673133D01*
X81134673Y-27769265D01*
X81134682Y-27769269D01*
X81354389Y-27828139D01*
X81354400Y-27828141D01*
X81580998Y-27847966D01*
X81581002Y-27847966D01*
X81807599Y-27828141D01*
X81807610Y-27828139D01*
X82027317Y-27769269D01*
X82027331Y-27769264D01*
X82233478Y-27673136D01*
X82306472Y-27622025D01*
X81625401Y-26940953D01*
X81706148Y-26928165D01*
X81819045Y-26870641D01*
X81908641Y-26781045D01*
X81966165Y-26668148D01*
X81978953Y-26587400D01*
X82660025Y-27268472D01*
X82711136Y-27195478D01*
X82807264Y-26989331D01*
X82807269Y-26989317D01*
X82866139Y-26769610D01*
X82866141Y-26769599D01*
X82885966Y-26543002D01*
X82885966Y-26542997D01*
X82866141Y-26316400D01*
X82866139Y-26316389D01*
X82807269Y-26096682D01*
X82807265Y-26096673D01*
X82711133Y-25890516D01*
X82711131Y-25890512D01*
X82660026Y-25817526D01*
X82660025Y-25817526D01*
X81978953Y-26498598D01*
X81966165Y-26417852D01*
X81908641Y-26304955D01*
X81819045Y-26215359D01*
X81706148Y-26157835D01*
X81625400Y-26145046D01*
X82306472Y-25463974D01*
X82306471Y-25463973D01*
X82233483Y-25412866D01*
X82233481Y-25412865D01*
X82027326Y-25316734D01*
X82027317Y-25316730D01*
X81807610Y-25257860D01*
X81807599Y-25257858D01*
X81581002Y-25238034D01*
X81580998Y-25238034D01*
X81354400Y-25257858D01*
X81354389Y-25257860D01*
X81134682Y-25316730D01*
X81134673Y-25316734D01*
X80928513Y-25412868D01*
X80855527Y-25463972D01*
X80855526Y-25463973D01*
X81536600Y-26145046D01*
X81455852Y-26157835D01*
X81342955Y-26215359D01*
X81253359Y-26304955D01*
X81195835Y-26417852D01*
X81183046Y-26498599D01*
X80501973Y-25817526D01*
X80501972Y-25817527D01*
X80450868Y-25890513D01*
X80354734Y-26096673D01*
X80354730Y-26096682D01*
X80295860Y-26316389D01*
X80295858Y-26316400D01*
X80276034Y-26542997D01*
X80276034Y-26543002D01*
X77886468Y-26543002D01*
X77886468Y-26543000D01*
X77866635Y-26316308D01*
X77807739Y-26096504D01*
X77711568Y-25890266D01*
X77581047Y-25703861D01*
X77581045Y-25703858D01*
X77420141Y-25542954D01*
X77233734Y-25412432D01*
X77233732Y-25412431D01*
X77027497Y-25316261D01*
X77027488Y-25316258D01*
X76807697Y-25257366D01*
X76807693Y-25257365D01*
X76807692Y-25257365D01*
X76807691Y-25257364D01*
X76807686Y-25257364D01*
X76581002Y-25237532D01*
X76580998Y-25237532D01*
X76354313Y-25257364D01*
X76354302Y-25257366D01*
X76134511Y-25316258D01*
X76134502Y-25316261D01*
X75928267Y-25412431D01*
X75928265Y-25412432D01*
X75741858Y-25542954D01*
X75580954Y-25703858D01*
X75450432Y-25890265D01*
X75450431Y-25890267D01*
X75354261Y-26096502D01*
X75354258Y-26096511D01*
X75295366Y-26316302D01*
X75295364Y-26316313D01*
X75275532Y-26542998D01*
X75275532Y-26543001D01*
X75295364Y-26769686D01*
X75295366Y-26769697D01*
X75354258Y-26989488D01*
X75354261Y-26989497D01*
X75435882Y-27164531D01*
X75447500Y-27216936D01*
X75447500Y-30155152D01*
X75445305Y-30178379D01*
X75443773Y-30186412D01*
X75447378Y-30243724D01*
X75447500Y-30247595D01*
X75447500Y-32683255D01*
X75445775Y-32698872D01*
X75446061Y-32698899D01*
X75445326Y-32706665D01*
X75447500Y-32775814D01*
X75447500Y-32805343D01*
X75447501Y-32805360D01*
X75448368Y-32812231D01*
X75448826Y-32818050D01*
X75450290Y-32864624D01*
X75450291Y-32864627D01*
X75455880Y-32883867D01*
X75459824Y-32902911D01*
X75462336Y-32922791D01*
X75479490Y-32966119D01*
X75481382Y-32971647D01*
X75494381Y-33016388D01*
X75504580Y-33033634D01*
X75513136Y-33051100D01*
X75520514Y-33069732D01*
X75534074Y-33088395D01*
X75557552Y-33154200D01*
X75550796Y-33202232D01*
X75545159Y-33218340D01*
X75545157Y-33218348D01*
X75530500Y-33348441D01*
X75530500Y-34685558D01*
X75545157Y-34815648D01*
X75545158Y-34815655D01*
X75545159Y-34815657D01*
X75554041Y-34841041D01*
X75561000Y-34881994D01*
X75561000Y-35406382D01*
X75491948Y-35352637D01*
X75373576Y-35312000D01*
X75279927Y-35312000D01*
X75187554Y-35327414D01*
X75077486Y-35386981D01*
X75061000Y-35404889D01*
X75061000Y-34687000D01*
X74713155Y-34687000D01*
X74653627Y-34693401D01*
X74653620Y-34693403D01*
X74518913Y-34743645D01*
X74518906Y-34743649D01*
X74403812Y-34829809D01*
X74403809Y-34829812D01*
X74317649Y-34944906D01*
X74317645Y-34944913D01*
X74267403Y-35079620D01*
X74267401Y-35079627D01*
X74261000Y-35139155D01*
X74261000Y-35837000D01*
X74962148Y-35837000D01*
X74962837Y-35839719D01*
X75031289Y-35944492D01*
X75130052Y-36021363D01*
X75248424Y-36062000D01*
X75342073Y-36062000D01*
X75434446Y-36046586D01*
X75544514Y-35987019D01*
X75629278Y-35894941D01*
X75654693Y-35837000D01*
X76361000Y-35837000D01*
X76361000Y-35541500D01*
X76380685Y-35474461D01*
X76433489Y-35428706D01*
X76485000Y-35417500D01*
X76676500Y-35417500D01*
X76743539Y-35437185D01*
X76789294Y-35489989D01*
X76800500Y-35541500D01*
X76800500Y-36755558D01*
X76815157Y-36885648D01*
X76815159Y-36885658D01*
X76872877Y-37050604D01*
X76872878Y-37050606D01*
X76965853Y-37198576D01*
X77089424Y-37322147D01*
X77167473Y-37371188D01*
X77213762Y-37423519D01*
X77225500Y-37476180D01*
X77225500Y-38112500D01*
X77205815Y-38179539D01*
X77153011Y-38225294D01*
X77101500Y-38236500D01*
X73615743Y-38236500D01*
X73600122Y-38234775D01*
X73600095Y-38235061D01*
X73592333Y-38234326D01*
X73523172Y-38236500D01*
X73493649Y-38236500D01*
X73486778Y-38237367D01*
X73480959Y-38237825D01*
X73434374Y-38239289D01*
X73434368Y-38239290D01*
X73415126Y-38244880D01*
X73396087Y-38248823D01*
X73376217Y-38251334D01*
X73376203Y-38251337D01*
X73332883Y-38268488D01*
X73327358Y-38270380D01*
X73282613Y-38283380D01*
X73282610Y-38283381D01*
X73265366Y-38293579D01*
X73247905Y-38302133D01*
X73229274Y-38309510D01*
X73229262Y-38309517D01*
X73191570Y-38336902D01*
X73186687Y-38340109D01*
X73146580Y-38363829D01*
X73132414Y-38377995D01*
X73117624Y-38390627D01*
X73101414Y-38402404D01*
X73101411Y-38402407D01*
X73071710Y-38438309D01*
X73067777Y-38442631D01*
X69779978Y-41730429D01*
X69718655Y-41763914D01*
X69648963Y-41758930D01*
X69604616Y-41730429D01*
X69546141Y-41671954D01*
X69359734Y-41541432D01*
X69359732Y-41541431D01*
X69153497Y-41445261D01*
X69153488Y-41445258D01*
X68933697Y-41386366D01*
X68933693Y-41386365D01*
X68933692Y-41386365D01*
X68933691Y-41386364D01*
X68933686Y-41386364D01*
X68707002Y-41366532D01*
X68706998Y-41366532D01*
X68480313Y-41386364D01*
X68480302Y-41386366D01*
X68260511Y-41445258D01*
X68260502Y-41445261D01*
X68054267Y-41541431D01*
X68054265Y-41541432D01*
X67867858Y-41671954D01*
X67706954Y-41832858D01*
X67594387Y-41993623D01*
X67539811Y-42037248D01*
X67492812Y-42046500D01*
X66916500Y-42046500D01*
X66849461Y-42026815D01*
X66803706Y-41974011D01*
X66792500Y-41922500D01*
X66792500Y-40976742D01*
X66794224Y-40961122D01*
X66793939Y-40961096D01*
X66794671Y-40953340D01*
X66794673Y-40953333D01*
X66792500Y-40884185D01*
X66792500Y-40854650D01*
X66791631Y-40847772D01*
X66791172Y-40841943D01*
X66789709Y-40795372D01*
X66784122Y-40776144D01*
X66780174Y-40757084D01*
X66777663Y-40737204D01*
X66760512Y-40693887D01*
X66758619Y-40688358D01*
X66745618Y-40643609D01*
X66745616Y-40643606D01*
X66735423Y-40626371D01*
X66726861Y-40608894D01*
X66719487Y-40590270D01*
X66719486Y-40590268D01*
X66692079Y-40552545D01*
X66688888Y-40547686D01*
X66665172Y-40507583D01*
X66665165Y-40507574D01*
X66651006Y-40493415D01*
X66638368Y-40478619D01*
X66626594Y-40462413D01*
X66616817Y-40454325D01*
X66590688Y-40432709D01*
X66586376Y-40428786D01*
X65651803Y-39494212D01*
X65641980Y-39481950D01*
X65641759Y-39482134D01*
X65636786Y-39476123D01*
X65633100Y-39472662D01*
X65586364Y-39428773D01*
X65572077Y-39414486D01*
X65565475Y-39407883D01*
X65559986Y-39403625D01*
X65555561Y-39399847D01*
X65521582Y-39367938D01*
X65521580Y-39367936D01*
X65521577Y-39367935D01*
X65504029Y-39358288D01*
X65487763Y-39347604D01*
X65485712Y-39346013D01*
X65471936Y-39335327D01*
X65471935Y-39335326D01*
X65471933Y-39335325D01*
X65429168Y-39316818D01*
X65423922Y-39314248D01*
X65383093Y-39291803D01*
X65383092Y-39291802D01*
X65363693Y-39286822D01*
X65345281Y-39280518D01*
X65326898Y-39272562D01*
X65326892Y-39272560D01*
X65280874Y-39265272D01*
X65275152Y-39264087D01*
X65230021Y-39252500D01*
X65230019Y-39252500D01*
X65209984Y-39252500D01*
X65190586Y-39250973D01*
X65183162Y-39249797D01*
X65170805Y-39247840D01*
X65170804Y-39247840D01*
X65124416Y-39252225D01*
X65118578Y-39252500D01*
X63995500Y-39252500D01*
X63928461Y-39232815D01*
X63882706Y-39180011D01*
X63871500Y-39128500D01*
X63871500Y-36449000D01*
X64842523Y-36449000D01*
X64861810Y-36841591D01*
X64861810Y-36841597D01*
X64861811Y-36841599D01*
X64919485Y-37230406D01*
X65014991Y-37611684D01*
X65147409Y-37981770D01*
X65147410Y-37981772D01*
X65315468Y-38337100D01*
X65513193Y-38666983D01*
X65517542Y-38674239D01*
X65718170Y-38944755D01*
X65751694Y-38989956D01*
X66015655Y-39281192D01*
X66253765Y-39497002D01*
X66306897Y-39545158D01*
X66622609Y-39779306D01*
X66622611Y-39779307D01*
X66959747Y-39981379D01*
X66959750Y-39981380D01*
X66959751Y-39981381D01*
X67315076Y-40149438D01*
X67685164Y-40281857D01*
X68066448Y-40377364D01*
X68455257Y-40435038D01*
X68847848Y-40454325D01*
X69240439Y-40435038D01*
X69629248Y-40377364D01*
X70010532Y-40281857D01*
X70380620Y-40149438D01*
X70735945Y-39981381D01*
X71073087Y-39779306D01*
X71388799Y-39545158D01*
X71680040Y-39281192D01*
X71944006Y-38989951D01*
X72178154Y-38674239D01*
X72380229Y-38337097D01*
X72548286Y-37981772D01*
X72680705Y-37611684D01*
X72776212Y-37230400D01*
X72833886Y-36841591D01*
X72853173Y-36449000D01*
X72847671Y-36337000D01*
X74261000Y-36337000D01*
X74261000Y-37034844D01*
X74267401Y-37094372D01*
X74267403Y-37094379D01*
X74317645Y-37229086D01*
X74317649Y-37229093D01*
X74403809Y-37344187D01*
X74403812Y-37344190D01*
X74518906Y-37430350D01*
X74518913Y-37430354D01*
X74653620Y-37480596D01*
X74653627Y-37480598D01*
X74713155Y-37486999D01*
X74713172Y-37487000D01*
X75061000Y-37487000D01*
X75061000Y-36337000D01*
X75561000Y-36337000D01*
X75561000Y-37487000D01*
X75908828Y-37487000D01*
X75908844Y-37486999D01*
X75968372Y-37480598D01*
X75968379Y-37480596D01*
X76103086Y-37430354D01*
X76103093Y-37430350D01*
X76218187Y-37344190D01*
X76218190Y-37344187D01*
X76304350Y-37229093D01*
X76304354Y-37229086D01*
X76354596Y-37094379D01*
X76354598Y-37094372D01*
X76360999Y-37034844D01*
X76361000Y-37034827D01*
X76361000Y-36337000D01*
X75561000Y-36337000D01*
X75061000Y-36337000D01*
X74261000Y-36337000D01*
X72847671Y-36337000D01*
X72833886Y-36056409D01*
X72776212Y-35667600D01*
X72680705Y-35286316D01*
X72548286Y-34916228D01*
X72380229Y-34560903D01*
X72283497Y-34399516D01*
X72178155Y-34223763D01*
X72178154Y-34223761D01*
X71944006Y-33908049D01*
X71944001Y-33908043D01*
X71680040Y-33616807D01*
X71388804Y-33352846D01*
X71109102Y-33145405D01*
X71073087Y-33118694D01*
X70991394Y-33069729D01*
X70735948Y-32916620D01*
X70380620Y-32748562D01*
X70380618Y-32748561D01*
X70010532Y-32616143D01*
X69629254Y-32520637D01*
X69629249Y-32520636D01*
X69629248Y-32520636D01*
X69485104Y-32499254D01*
X69240447Y-32462963D01*
X69240445Y-32462962D01*
X69240439Y-32462962D01*
X68847848Y-32443675D01*
X68455257Y-32462962D01*
X68455251Y-32462962D01*
X68455248Y-32462963D01*
X68066441Y-32520637D01*
X67685163Y-32616143D01*
X67315077Y-32748561D01*
X67315075Y-32748562D01*
X66959747Y-32916620D01*
X66622611Y-33118692D01*
X66306891Y-33352846D01*
X66015655Y-33616807D01*
X65751694Y-33908043D01*
X65517540Y-34223763D01*
X65315468Y-34560899D01*
X65147410Y-34916227D01*
X65147409Y-34916229D01*
X65014991Y-35286315D01*
X64919485Y-35667593D01*
X64867009Y-36021363D01*
X64861810Y-36056409D01*
X64842523Y-36449000D01*
X63871500Y-36449000D01*
X63871500Y-33076451D01*
X63891185Y-33009412D01*
X63907814Y-32988775D01*
X66509327Y-30387261D01*
X66570648Y-30353778D01*
X66640340Y-30358762D01*
X66671314Y-30375675D01*
X66775665Y-30453793D01*
X66775668Y-30453795D01*
X66775671Y-30453797D01*
X66910517Y-30504091D01*
X66910516Y-30504091D01*
X66917444Y-30504835D01*
X66970127Y-30510500D01*
X68665872Y-30510499D01*
X68725483Y-30504091D01*
X68860331Y-30453796D01*
X68975546Y-30367546D01*
X69061796Y-30252331D01*
X69112091Y-30117483D01*
X69118500Y-30057873D01*
X69118500Y-29959500D01*
X69138185Y-29892461D01*
X69190989Y-29846706D01*
X69242500Y-29835500D01*
X70889548Y-29835500D01*
X70956587Y-29855185D01*
X70977229Y-29871819D01*
X71725586Y-30620176D01*
X71759071Y-30681499D01*
X71757681Y-30739948D01*
X71739365Y-30808307D01*
X71739364Y-30808313D01*
X71719532Y-31034999D01*
X71719532Y-31035001D01*
X71739364Y-31261686D01*
X71739366Y-31261697D01*
X71798258Y-31481488D01*
X71798261Y-31481497D01*
X71894431Y-31687732D01*
X71894432Y-31687734D01*
X72024954Y-31874141D01*
X72185858Y-32035045D01*
X72185861Y-32035047D01*
X72372266Y-32165568D01*
X72578504Y-32261739D01*
X72798308Y-32320635D01*
X72960230Y-32334801D01*
X73024998Y-32340468D01*
X73025000Y-32340468D01*
X73025002Y-32340468D01*
X73081673Y-32335509D01*
X73251692Y-32320635D01*
X73471496Y-32261739D01*
X73677734Y-32165568D01*
X73864139Y-32035047D01*
X74025047Y-31874139D01*
X74155568Y-31687734D01*
X74251739Y-31481496D01*
X74310635Y-31261692D01*
X74330468Y-31035000D01*
X74310635Y-30808308D01*
X74251739Y-30588504D01*
X74155568Y-30382266D01*
X74025047Y-30195861D01*
X74025045Y-30195858D01*
X73864141Y-30034954D01*
X73677734Y-29904432D01*
X73677732Y-29904431D01*
X73471497Y-29808261D01*
X73471488Y-29808258D01*
X73251697Y-29749366D01*
X73251693Y-29749365D01*
X73251692Y-29749365D01*
X73251691Y-29749364D01*
X73251686Y-29749364D01*
X73025002Y-29729532D01*
X73024999Y-29729532D01*
X72798313Y-29749364D01*
X72798296Y-29749367D01*
X72729949Y-29767680D01*
X72660099Y-29766016D01*
X72610177Y-29735586D01*
X71700803Y-28826212D01*
X71690980Y-28813950D01*
X71690759Y-28814134D01*
X71685786Y-28808123D01*
X71667159Y-28790631D01*
X71635364Y-28760773D01*
X71624919Y-28750328D01*
X71614475Y-28739883D01*
X71608986Y-28735625D01*
X71604561Y-28731847D01*
X71570582Y-28699938D01*
X71570580Y-28699936D01*
X71570577Y-28699935D01*
X71553029Y-28690288D01*
X71536763Y-28679604D01*
X71520933Y-28667325D01*
X71478168Y-28648818D01*
X71472922Y-28646248D01*
X71432093Y-28623803D01*
X71432092Y-28623802D01*
X71412693Y-28618822D01*
X71394281Y-28612518D01*
X71375898Y-28604562D01*
X71375892Y-28604560D01*
X71329874Y-28597272D01*
X71324152Y-28596087D01*
X71279021Y-28584500D01*
X71279019Y-28584500D01*
X71258984Y-28584500D01*
X71239586Y-28582973D01*
X71223075Y-28580358D01*
X71219805Y-28579840D01*
X71219804Y-28579840D01*
X71173416Y-28584225D01*
X71167578Y-28584500D01*
X69242499Y-28584500D01*
X69175460Y-28564815D01*
X69129705Y-28512011D01*
X69118499Y-28460500D01*
X69118499Y-28362129D01*
X69118498Y-28362123D01*
X69118497Y-28362116D01*
X69112091Y-28302517D01*
X69104552Y-28282305D01*
X69061797Y-28167671D01*
X69061793Y-28167664D01*
X68975547Y-28052455D01*
X68975544Y-28052452D01*
X68860335Y-27966206D01*
X68860328Y-27966202D01*
X68725482Y-27915908D01*
X68725483Y-27915908D01*
X68665883Y-27909501D01*
X68665881Y-27909500D01*
X68665873Y-27909500D01*
X68665864Y-27909500D01*
X68662548Y-27909322D01*
X68662627Y-27907847D01*
X68601215Y-27889815D01*
X68555460Y-27837011D01*
X68547969Y-27793522D01*
X67862401Y-27107953D01*
X67943148Y-27095165D01*
X68056045Y-27037641D01*
X68145641Y-26948045D01*
X68203165Y-26835148D01*
X68215953Y-26754400D01*
X68897025Y-27435472D01*
X68948136Y-27362478D01*
X69044264Y-27156331D01*
X69044269Y-27156317D01*
X69103139Y-26936610D01*
X69103141Y-26936599D01*
X69122966Y-26710002D01*
X69122966Y-26709997D01*
X69103141Y-26483400D01*
X69103139Y-26483389D01*
X69044269Y-26263682D01*
X69044265Y-26263673D01*
X68948133Y-26057516D01*
X68948131Y-26057512D01*
X68932369Y-26035002D01*
X71720034Y-26035002D01*
X71739858Y-26261599D01*
X71739860Y-26261610D01*
X71798730Y-26481317D01*
X71798734Y-26481326D01*
X71894865Y-26687481D01*
X71894866Y-26687483D01*
X71945973Y-26760471D01*
X71945974Y-26760472D01*
X72627046Y-26079399D01*
X72639835Y-26160148D01*
X72697359Y-26273045D01*
X72786955Y-26362641D01*
X72899852Y-26420165D01*
X72980599Y-26432953D01*
X72299526Y-27114025D01*
X72299526Y-27114026D01*
X72372512Y-27165131D01*
X72372516Y-27165133D01*
X72578673Y-27261265D01*
X72578682Y-27261269D01*
X72798389Y-27320139D01*
X72798400Y-27320141D01*
X73024998Y-27339966D01*
X73025002Y-27339966D01*
X73251599Y-27320141D01*
X73251610Y-27320139D01*
X73471317Y-27261269D01*
X73471331Y-27261264D01*
X73677478Y-27165136D01*
X73750472Y-27114025D01*
X73069401Y-26432953D01*
X73150148Y-26420165D01*
X73263045Y-26362641D01*
X73352641Y-26273045D01*
X73410165Y-26160148D01*
X73422953Y-26079400D01*
X74104025Y-26760472D01*
X74155136Y-26687478D01*
X74251264Y-26481331D01*
X74251269Y-26481317D01*
X74310139Y-26261610D01*
X74310141Y-26261599D01*
X74329966Y-26035002D01*
X74329966Y-26034997D01*
X74310141Y-25808400D01*
X74310139Y-25808389D01*
X74251269Y-25588682D01*
X74251265Y-25588673D01*
X74155133Y-25382516D01*
X74155131Y-25382512D01*
X74104026Y-25309526D01*
X74104025Y-25309526D01*
X73422953Y-25990598D01*
X73410165Y-25909852D01*
X73352641Y-25796955D01*
X73263045Y-25707359D01*
X73150148Y-25649835D01*
X73069400Y-25637046D01*
X73750472Y-24955974D01*
X73750471Y-24955973D01*
X73677483Y-24904866D01*
X73677481Y-24904865D01*
X73471326Y-24808734D01*
X73471317Y-24808730D01*
X73251610Y-24749860D01*
X73251599Y-24749858D01*
X73025002Y-24730034D01*
X73024998Y-24730034D01*
X72798400Y-24749858D01*
X72798389Y-24749860D01*
X72578682Y-24808730D01*
X72578673Y-24808734D01*
X72372513Y-24904868D01*
X72299527Y-24955972D01*
X72299526Y-24955973D01*
X72980600Y-25637046D01*
X72899852Y-25649835D01*
X72786955Y-25707359D01*
X72697359Y-25796955D01*
X72639835Y-25909852D01*
X72627046Y-25990599D01*
X71945973Y-25309526D01*
X71945972Y-25309527D01*
X71894868Y-25382513D01*
X71798734Y-25588673D01*
X71798730Y-25588682D01*
X71739860Y-25808389D01*
X71739858Y-25808400D01*
X71720034Y-26034997D01*
X71720034Y-26035002D01*
X68932369Y-26035002D01*
X68897026Y-25984526D01*
X68897025Y-25984526D01*
X68215953Y-26665598D01*
X68203165Y-26584852D01*
X68145641Y-26471955D01*
X68056045Y-26382359D01*
X67943148Y-26324835D01*
X67862400Y-26312046D01*
X68543472Y-25630974D01*
X68543471Y-25630973D01*
X68470483Y-25579866D01*
X68470481Y-25579865D01*
X68264326Y-25483734D01*
X68264317Y-25483730D01*
X68044610Y-25424860D01*
X68044599Y-25424858D01*
X67818002Y-25405034D01*
X67817998Y-25405034D01*
X67591400Y-25424858D01*
X67591389Y-25424860D01*
X67371682Y-25483730D01*
X67371673Y-25483734D01*
X67165513Y-25579868D01*
X67092527Y-25630972D01*
X67092526Y-25630973D01*
X67773600Y-26312046D01*
X67692852Y-26324835D01*
X67579955Y-26382359D01*
X67490359Y-26471955D01*
X67432835Y-26584852D01*
X67420046Y-26665599D01*
X66738973Y-25984526D01*
X66738972Y-25984527D01*
X66687868Y-26057513D01*
X66591734Y-26263673D01*
X66591730Y-26263682D01*
X66532860Y-26483389D01*
X66532858Y-26483400D01*
X66513034Y-26709997D01*
X66513034Y-26710002D01*
X66532858Y-26936599D01*
X66532860Y-26936610D01*
X66591730Y-27156317D01*
X66591734Y-27156326D01*
X66687865Y-27362481D01*
X66687866Y-27362483D01*
X66738973Y-27435471D01*
X66738974Y-27435472D01*
X67420046Y-26754399D01*
X67432835Y-26835148D01*
X67490359Y-26948045D01*
X67579955Y-27037641D01*
X67692852Y-27095165D01*
X67773599Y-27107953D01*
X67087351Y-27794200D01*
X67077505Y-27843194D01*
X67028889Y-27893376D01*
X66973367Y-27908048D01*
X66973423Y-27909099D01*
X66973429Y-27909146D01*
X66973426Y-27909146D01*
X66973436Y-27909324D01*
X66970123Y-27909501D01*
X66910516Y-27915908D01*
X66775671Y-27966202D01*
X66775664Y-27966206D01*
X66660455Y-28052452D01*
X66660452Y-28052455D01*
X66574206Y-28167664D01*
X66574202Y-28167671D01*
X66523908Y-28302517D01*
X66517501Y-28362116D01*
X66517501Y-28362123D01*
X66517500Y-28362135D01*
X66517500Y-28580358D01*
X66497815Y-28647397D01*
X66466381Y-28680679D01*
X66460564Y-28684906D01*
X66455682Y-28688112D01*
X66415580Y-28711828D01*
X66401408Y-28726000D01*
X66386623Y-28738628D01*
X66370412Y-28750407D01*
X66340709Y-28786310D01*
X66336777Y-28790631D01*
X62862208Y-32265199D01*
X62849951Y-32275020D01*
X62850134Y-32275241D01*
X62844123Y-32280213D01*
X62796772Y-32330636D01*
X62775889Y-32351519D01*
X62775877Y-32351532D01*
X62771621Y-32357017D01*
X62767837Y-32361447D01*
X62735937Y-32395418D01*
X62735936Y-32395420D01*
X62726284Y-32412976D01*
X62715610Y-32429226D01*
X62703329Y-32445061D01*
X62703324Y-32445068D01*
X62684815Y-32487838D01*
X62682245Y-32493084D01*
X62659803Y-32533906D01*
X62654822Y-32553307D01*
X62648521Y-32571710D01*
X62640562Y-32590102D01*
X62640561Y-32590105D01*
X62633271Y-32636127D01*
X62632087Y-32641846D01*
X62620501Y-32686972D01*
X62620500Y-32686982D01*
X62620500Y-32707016D01*
X62618973Y-32726415D01*
X62615840Y-32746194D01*
X62615840Y-32746195D01*
X62620225Y-32792583D01*
X62620500Y-32798421D01*
X62620500Y-39128500D01*
X62600815Y-39195539D01*
X62548011Y-39241294D01*
X62496500Y-39252500D01*
X60312035Y-39252500D01*
X60244996Y-39232815D01*
X60199241Y-39180011D01*
X60188677Y-39141102D01*
X60184499Y-39100205D01*
X60184499Y-39100204D01*
X60184499Y-39100203D01*
X60129314Y-38933666D01*
X60129239Y-38933545D01*
X60037213Y-38784348D01*
X60037210Y-38784344D01*
X59913155Y-38660289D01*
X59913151Y-38660286D01*
X59763837Y-38568187D01*
X59763835Y-38568186D01*
X59680565Y-38540593D01*
X59597297Y-38513001D01*
X59597295Y-38513000D01*
X59494515Y-38502500D01*
X59494508Y-38502500D01*
X58469492Y-38502500D01*
X58469484Y-38502500D01*
X58366704Y-38513000D01*
X58366703Y-38513001D01*
X58200164Y-38568186D01*
X58200162Y-38568187D01*
X58050848Y-38660286D01*
X58050844Y-38660289D01*
X57926789Y-38784344D01*
X57926786Y-38784348D01*
X57834687Y-38933662D01*
X57834686Y-38933664D01*
X57779501Y-39100203D01*
X57779500Y-39100204D01*
X57769000Y-39202984D01*
X57769000Y-40553015D01*
X57779500Y-40655795D01*
X57779501Y-40655796D01*
X57834686Y-40822335D01*
X57834687Y-40822337D01*
X57926786Y-40971651D01*
X57926789Y-40971655D01*
X58050844Y-41095710D01*
X58050848Y-41095713D01*
X58200162Y-41187812D01*
X58200164Y-41187813D01*
X58200166Y-41187814D01*
X58366703Y-41242999D01*
X58469492Y-41253500D01*
X58469497Y-41253500D01*
X59494503Y-41253500D01*
X59494508Y-41253500D01*
X59597297Y-41242999D01*
X59763834Y-41187814D01*
X59913155Y-41095711D01*
X60037211Y-40971655D01*
X60129314Y-40822334D01*
X60184499Y-40655797D01*
X60188677Y-40614897D01*
X60215073Y-40550207D01*
X60272253Y-40510055D01*
X60312035Y-40503500D01*
X61642981Y-40503500D01*
X63293981Y-40503500D01*
X63314016Y-40503500D01*
X63333414Y-40505026D01*
X63353194Y-40508159D01*
X63353195Y-40508160D01*
X63353195Y-40508159D01*
X63353196Y-40508160D01*
X63399584Y-40503775D01*
X63405422Y-40503500D01*
X64840548Y-40503500D01*
X64907587Y-40523185D01*
X64928229Y-40539819D01*
X65505181Y-41116771D01*
X65538666Y-41178094D01*
X65541500Y-41204452D01*
X65541500Y-42601152D01*
X65539305Y-42624379D01*
X65537773Y-42632412D01*
X65541378Y-42689724D01*
X65541500Y-42693595D01*
X65541500Y-49092547D01*
X65521815Y-49159586D01*
X65505185Y-49180223D01*
X65440515Y-49244894D01*
X65399227Y-49286182D01*
X65337904Y-49319666D01*
X65311546Y-49322500D01*
X63999129Y-49322500D01*
X63999123Y-49322501D01*
X63939516Y-49328908D01*
X63804671Y-49379202D01*
X63804664Y-49379206D01*
X63689455Y-49465452D01*
X63689452Y-49465455D01*
X63603206Y-49580664D01*
X63603202Y-49580671D01*
X63552908Y-49715517D01*
X63546501Y-49775116D01*
X63546500Y-49775135D01*
X63546500Y-51570870D01*
X63546501Y-51570876D01*
X63552908Y-51630483D01*
X63603202Y-51765328D01*
X63603206Y-51765335D01*
X63689452Y-51880544D01*
X63689455Y-51880547D01*
X63804664Y-51966793D01*
X63804671Y-51966797D01*
X63936081Y-52015810D01*
X63992015Y-52057681D01*
X64016432Y-52123145D01*
X64001580Y-52191418D01*
X63980430Y-52219673D01*
X63858503Y-52341600D01*
X63722965Y-52535169D01*
X63722964Y-52535171D01*
X63672727Y-52642905D01*
X63626554Y-52695344D01*
X63560345Y-52714500D01*
X62598500Y-52714500D01*
X62531461Y-52694815D01*
X62485706Y-52642011D01*
X62474500Y-52590500D01*
X62474500Y-49612738D01*
X62476224Y-49597124D01*
X62475938Y-49597097D01*
X62476672Y-49589334D01*
X62474500Y-49520203D01*
X62474500Y-49490651D01*
X62474500Y-49490650D01*
X62473629Y-49483759D01*
X62473172Y-49477945D01*
X62471709Y-49431372D01*
X62466122Y-49412144D01*
X62462174Y-49393084D01*
X62459664Y-49373208D01*
X62459663Y-49373206D01*
X62459663Y-49373204D01*
X62442512Y-49329887D01*
X62440619Y-49324358D01*
X62427618Y-49279609D01*
X62427616Y-49279606D01*
X62417423Y-49262371D01*
X62408861Y-49244894D01*
X62401487Y-49226270D01*
X62401486Y-49226268D01*
X62374079Y-49188545D01*
X62370888Y-49183686D01*
X62347172Y-49143583D01*
X62347165Y-49143574D01*
X62333006Y-49129415D01*
X62320368Y-49114619D01*
X62308594Y-49098413D01*
X62301503Y-49092547D01*
X62272688Y-49068709D01*
X62268376Y-49064786D01*
X61206803Y-48003212D01*
X61196980Y-47990950D01*
X61196759Y-47991134D01*
X61191786Y-47985123D01*
X61144258Y-47940491D01*
X61108864Y-47880250D01*
X61111656Y-47810436D01*
X61151750Y-47753215D01*
X61213527Y-47727935D01*
X61213456Y-47727553D01*
X61215308Y-47727206D01*
X61216415Y-47726754D01*
X61217715Y-47726627D01*
X61219079Y-47726500D01*
X61219091Y-47726500D01*
X61437788Y-47685618D01*
X61645249Y-47605247D01*
X61834410Y-47488124D01*
X61974130Y-47360751D01*
X61998827Y-47338238D01*
X62013774Y-47318446D01*
X62132906Y-47160689D01*
X62232077Y-46961528D01*
X62258582Y-46868371D01*
X62295861Y-46809278D01*
X62359171Y-46779721D01*
X62428410Y-46789083D01*
X62481597Y-46834393D01*
X62497114Y-46868372D01*
X62523617Y-46961523D01*
X62523623Y-46961538D01*
X62622786Y-47160683D01*
X62622791Y-47160691D01*
X62756868Y-47338238D01*
X62921285Y-47488123D01*
X62921287Y-47488125D01*
X63110443Y-47605245D01*
X63110444Y-47605245D01*
X63110447Y-47605247D01*
X63317908Y-47685618D01*
X63536605Y-47726500D01*
X63536607Y-47726500D01*
X63759089Y-47726500D01*
X63759091Y-47726500D01*
X63977788Y-47685618D01*
X64185249Y-47605247D01*
X64374410Y-47488124D01*
X64514130Y-47360751D01*
X64538827Y-47338238D01*
X64553774Y-47318446D01*
X64672906Y-47160689D01*
X64772077Y-46961528D01*
X64832963Y-46747536D01*
X64848348Y-46581503D01*
X64848348Y-45870497D01*
X64832963Y-45704464D01*
X64772077Y-45490472D01*
X64772072Y-45490461D01*
X64672909Y-45291316D01*
X64672904Y-45291308D01*
X64538827Y-45113761D01*
X64374410Y-44963876D01*
X64374408Y-44963874D01*
X64185252Y-44846754D01*
X64185246Y-44846752D01*
X64180197Y-44844796D01*
X63977788Y-44766382D01*
X63759091Y-44725500D01*
X63536605Y-44725500D01*
X63317908Y-44766382D01*
X63246866Y-44793904D01*
X63110449Y-44846752D01*
X63110443Y-44846754D01*
X62921287Y-44963874D01*
X62921285Y-44963876D01*
X62756868Y-45113761D01*
X62622791Y-45291308D01*
X62622786Y-45291316D01*
X62523623Y-45490461D01*
X62523617Y-45490476D01*
X62497114Y-45583627D01*
X62459835Y-45642721D01*
X62396525Y-45672278D01*
X62327286Y-45662916D01*
X62274099Y-45617606D01*
X62258582Y-45583627D01*
X62232078Y-45490476D01*
X62232077Y-45490472D01*
X62232072Y-45490461D01*
X62132909Y-45291316D01*
X62132904Y-45291308D01*
X61998827Y-45113761D01*
X61834410Y-44963876D01*
X61834408Y-44963874D01*
X61645252Y-44846754D01*
X61645246Y-44846752D01*
X61640197Y-44844796D01*
X61437788Y-44766382D01*
X61219091Y-44725500D01*
X60996605Y-44725500D01*
X60777908Y-44766382D01*
X60706866Y-44793904D01*
X60570449Y-44846752D01*
X60570443Y-44846754D01*
X60381287Y-44963874D01*
X60381285Y-44963876D01*
X60216868Y-45113761D01*
X60082791Y-45291308D01*
X60082786Y-45291316D01*
X59983623Y-45490461D01*
X59983617Y-45490476D01*
X59957114Y-45583627D01*
X59919835Y-45642721D01*
X59856525Y-45672278D01*
X59787286Y-45662916D01*
X59734099Y-45617606D01*
X59718582Y-45583627D01*
X59692078Y-45490476D01*
X59692077Y-45490472D01*
X59692072Y-45490461D01*
X59592909Y-45291316D01*
X59592904Y-45291308D01*
X59458827Y-45113761D01*
X59294410Y-44963876D01*
X59294408Y-44963874D01*
X59105252Y-44846754D01*
X59105246Y-44846752D01*
X59100197Y-44844796D01*
X58897788Y-44766382D01*
X58679091Y-44725500D01*
X58456605Y-44725500D01*
X58237908Y-44766382D01*
X58166866Y-44793904D01*
X58030449Y-44846752D01*
X58030443Y-44846754D01*
X57841287Y-44963874D01*
X57841285Y-44963876D01*
X57676868Y-45113761D01*
X57542791Y-45291308D01*
X57542786Y-45291316D01*
X57443623Y-45490461D01*
X57443617Y-45490476D01*
X57417114Y-45583627D01*
X57379835Y-45642721D01*
X57316525Y-45672278D01*
X57247286Y-45662916D01*
X57194099Y-45617606D01*
X57178582Y-45583627D01*
X57152078Y-45490476D01*
X57152077Y-45490472D01*
X57152072Y-45490461D01*
X57052909Y-45291316D01*
X57052904Y-45291308D01*
X56918827Y-45113761D01*
X56754411Y-44963877D01*
X56754410Y-44963876D01*
X56712070Y-44937660D01*
X56665435Y-44885631D01*
X56653348Y-44832233D01*
X56653348Y-41322250D01*
X56673033Y-41255211D01*
X56725837Y-41209456D01*
X56738342Y-41204545D01*
X56788834Y-41187814D01*
X56938155Y-41095711D01*
X57062211Y-40971655D01*
X57154314Y-40822334D01*
X57209499Y-40655797D01*
X57220000Y-40553008D01*
X57220000Y-39202992D01*
X57209499Y-39100203D01*
X57154314Y-38933666D01*
X57154239Y-38933545D01*
X57062213Y-38784348D01*
X57062210Y-38784344D01*
X56938155Y-38660289D01*
X56938151Y-38660286D01*
X56788837Y-38568187D01*
X56788835Y-38568186D01*
X56705565Y-38540593D01*
X56622297Y-38513001D01*
X56622295Y-38513000D01*
X56519515Y-38502500D01*
X56519508Y-38502500D01*
X55494492Y-38502500D01*
X55494484Y-38502500D01*
X55391704Y-38513000D01*
X55391703Y-38513001D01*
X55225164Y-38568186D01*
X55225162Y-38568187D01*
X55075848Y-38660286D01*
X55075844Y-38660289D01*
X54951789Y-38784344D01*
X54951786Y-38784348D01*
X54859687Y-38933662D01*
X54859686Y-38933664D01*
X54804501Y-39100203D01*
X54804500Y-39100204D01*
X54794000Y-39202984D01*
X54794000Y-40553015D01*
X54804500Y-40655795D01*
X54804501Y-40655796D01*
X54859686Y-40822335D01*
X54859687Y-40822337D01*
X54951786Y-40971651D01*
X54951789Y-40971655D01*
X55075844Y-41095710D01*
X55075848Y-41095713D01*
X55225162Y-41187812D01*
X55225164Y-41187813D01*
X55225166Y-41187814D01*
X55317353Y-41218361D01*
X55374797Y-41258133D01*
X55401620Y-41322649D01*
X55402348Y-41336067D01*
X55402348Y-44832233D01*
X55382663Y-44899272D01*
X55343626Y-44937660D01*
X55301284Y-44963877D01*
X55136868Y-45113761D01*
X55002791Y-45291308D01*
X55002786Y-45291316D01*
X54903623Y-45490461D01*
X54903618Y-45490474D01*
X54876854Y-45584541D01*
X54839575Y-45643634D01*
X54776265Y-45673191D01*
X54707025Y-45663829D01*
X54653839Y-45618519D01*
X54638322Y-45584540D01*
X54611609Y-45490654D01*
X54600019Y-45467380D01*
X53932297Y-46135102D01*
X53931521Y-46124735D01*
X53881961Y-45998459D01*
X53797383Y-45892401D01*
X53685301Y-45815984D01*
X53577547Y-45782746D01*
X54309267Y-45051026D01*
X54309267Y-45051025D01*
X54214109Y-44964278D01*
X54025027Y-44847202D01*
X54025025Y-44847201D01*
X53817652Y-44766865D01*
X53599041Y-44726000D01*
X53376655Y-44726000D01*
X53158043Y-44766865D01*
X52950670Y-44847201D01*
X52950668Y-44847202D01*
X52761586Y-44964278D01*
X52761585Y-44964278D01*
X52666428Y-45051025D01*
X52666428Y-45051026D01*
X53399617Y-45784215D01*
X53353710Y-45791135D01*
X53231491Y-45849993D01*
X53132050Y-45942260D01*
X53064223Y-46059740D01*
X53046348Y-46138053D01*
X52375675Y-45467380D01*
X52375674Y-45467380D01*
X52364091Y-45490644D01*
X52364083Y-45490663D01*
X52337373Y-45584541D01*
X52300094Y-45643634D01*
X52236784Y-45673191D01*
X52167545Y-45663829D01*
X52114358Y-45618519D01*
X52098844Y-45584549D01*
X52072077Y-45490472D01*
X52072072Y-45490461D01*
X51972909Y-45291316D01*
X51972904Y-45291308D01*
X51838827Y-45113761D01*
X51674410Y-44963876D01*
X51674408Y-44963874D01*
X51485252Y-44846754D01*
X51485246Y-44846752D01*
X51480197Y-44844796D01*
X51277788Y-44766382D01*
X51059091Y-44725500D01*
X50836605Y-44725500D01*
X50671579Y-44756348D01*
X50617902Y-44766383D01*
X50516596Y-44805629D01*
X50446973Y-44811490D01*
X50385233Y-44778780D01*
X50384122Y-44777683D01*
X50307651Y-44701212D01*
X50297828Y-44688950D01*
X50297607Y-44689134D01*
X50292634Y-44683123D01*
X50291208Y-44681784D01*
X50242212Y-44635773D01*
X50231767Y-44625328D01*
X50221323Y-44614883D01*
X50215834Y-44610625D01*
X50211409Y-44606847D01*
X50177430Y-44574938D01*
X50177428Y-44574936D01*
X50177425Y-44574935D01*
X50159877Y-44565288D01*
X50143611Y-44554604D01*
X50127784Y-44542327D01*
X50127783Y-44542326D01*
X50127781Y-44542325D01*
X50085016Y-44523818D01*
X50079770Y-44521248D01*
X50038941Y-44498803D01*
X50038940Y-44498802D01*
X50019541Y-44493822D01*
X50001129Y-44487518D01*
X49982746Y-44479562D01*
X49982740Y-44479560D01*
X49936722Y-44472272D01*
X49931000Y-44471087D01*
X49885869Y-44459500D01*
X49885867Y-44459500D01*
X49865832Y-44459500D01*
X49846434Y-44457973D01*
X49839010Y-44456797D01*
X49826653Y-44454840D01*
X49826652Y-44454840D01*
X49780264Y-44459225D01*
X49774426Y-44459500D01*
X48418188Y-44459500D01*
X48351149Y-44439815D01*
X48316613Y-44406623D01*
X48204045Y-44245858D01*
X48043141Y-44084954D01*
X47856734Y-43954432D01*
X47856732Y-43954431D01*
X47650497Y-43858261D01*
X47650488Y-43858258D01*
X47430697Y-43799366D01*
X47430693Y-43799365D01*
X47430692Y-43799365D01*
X47430691Y-43799364D01*
X47430686Y-43799364D01*
X47204002Y-43779532D01*
X47203998Y-43779532D01*
X46977313Y-43799364D01*
X46977302Y-43799366D01*
X46757511Y-43858258D01*
X46757502Y-43858261D01*
X46551267Y-43954431D01*
X46551265Y-43954432D01*
X46364858Y-44084954D01*
X46203954Y-44245858D01*
X46073432Y-44432265D01*
X46073431Y-44432267D01*
X45977261Y-44638502D01*
X45977258Y-44638511D01*
X45918366Y-44858302D01*
X45918364Y-44858313D01*
X45898532Y-45084998D01*
X45898532Y-45085001D01*
X45918364Y-45311686D01*
X45918366Y-45311697D01*
X45977258Y-45531488D01*
X45977261Y-45531497D01*
X46073431Y-45737732D01*
X46073432Y-45737734D01*
X46203954Y-45924141D01*
X46364858Y-46085045D01*
X46364861Y-46085047D01*
X46551266Y-46215568D01*
X46757504Y-46311739D01*
X46977308Y-46370635D01*
X47139230Y-46384801D01*
X47203998Y-46390468D01*
X47204000Y-46390468D01*
X47204002Y-46390468D01*
X47260673Y-46385509D01*
X47430692Y-46370635D01*
X47650496Y-46311739D01*
X47856734Y-46215568D01*
X48043139Y-46085047D01*
X48204047Y-45924139D01*
X48316613Y-45763377D01*
X48371189Y-45719752D01*
X48418188Y-45710500D01*
X49496396Y-45710500D01*
X49563435Y-45730185D01*
X49584077Y-45746819D01*
X49711029Y-45873771D01*
X49744514Y-45935094D01*
X49747348Y-45961452D01*
X49747348Y-46581499D01*
X49762732Y-46747535D01*
X49762733Y-46747537D01*
X49823617Y-46961523D01*
X49823623Y-46961538D01*
X49922786Y-47160683D01*
X49922791Y-47160691D01*
X50056868Y-47338238D01*
X50208936Y-47476866D01*
X50221286Y-47488124D01*
X50242775Y-47501429D01*
X50289411Y-47553454D01*
X50301500Y-47606857D01*
X50301500Y-48050255D01*
X50299775Y-48065872D01*
X50300061Y-48065899D01*
X50299326Y-48073665D01*
X50301500Y-48142814D01*
X50301500Y-48172343D01*
X50301501Y-48172360D01*
X50302368Y-48179231D01*
X50302826Y-48185050D01*
X50304290Y-48231624D01*
X50304291Y-48231627D01*
X50309880Y-48250867D01*
X50313824Y-48269911D01*
X50315236Y-48281081D01*
X50316336Y-48289791D01*
X50333490Y-48333119D01*
X50335382Y-48338647D01*
X50348381Y-48383388D01*
X50358580Y-48400634D01*
X50367138Y-48418103D01*
X50374514Y-48436732D01*
X50401898Y-48474423D01*
X50405106Y-48479307D01*
X50428827Y-48519416D01*
X50428833Y-48519424D01*
X50442990Y-48533580D01*
X50455628Y-48548376D01*
X50467405Y-48564586D01*
X50467406Y-48564587D01*
X50503309Y-48594288D01*
X50507620Y-48598210D01*
X53113909Y-51204500D01*
X53982197Y-52072788D01*
X53992022Y-52085051D01*
X53992243Y-52084869D01*
X53997214Y-52090878D01*
X54023217Y-52115295D01*
X54047635Y-52138226D01*
X54068529Y-52159120D01*
X54074011Y-52163373D01*
X54078443Y-52167157D01*
X54112418Y-52199062D01*
X54129976Y-52208714D01*
X54146235Y-52219395D01*
X54162064Y-52231673D01*
X54204838Y-52250182D01*
X54210056Y-52252738D01*
X54250908Y-52275197D01*
X54270316Y-52280180D01*
X54288717Y-52286480D01*
X54307104Y-52294437D01*
X54350488Y-52301308D01*
X54353119Y-52301725D01*
X54358839Y-52302909D01*
X54403981Y-52314500D01*
X54424016Y-52314500D01*
X54443414Y-52316026D01*
X54463194Y-52319159D01*
X54463195Y-52319160D01*
X54463195Y-52319159D01*
X54463196Y-52319160D01*
X54509584Y-52314775D01*
X54515422Y-52314500D01*
X58094812Y-52314500D01*
X58161851Y-52334185D01*
X58196387Y-52367377D01*
X58308954Y-52528141D01*
X58469858Y-52689045D01*
X58469861Y-52689047D01*
X58656266Y-52819568D01*
X58862504Y-52915739D01*
X58862509Y-52915740D01*
X58862511Y-52915741D01*
X58915415Y-52929916D01*
X59082308Y-52974635D01*
X59244230Y-52988801D01*
X59308998Y-52994468D01*
X59309000Y-52994468D01*
X59309002Y-52994468D01*
X59370139Y-52989119D01*
X59535692Y-52974635D01*
X59755496Y-52915739D01*
X59961734Y-52819568D01*
X60148139Y-52689047D01*
X60309047Y-52528139D01*
X60439568Y-52341734D01*
X60535739Y-52135496D01*
X60594635Y-51915692D01*
X60614468Y-51689000D01*
X60594635Y-51462308D01*
X60535739Y-51242504D01*
X60439568Y-51036266D01*
X60317204Y-50861511D01*
X60309045Y-50849858D01*
X60148141Y-50688954D01*
X59961734Y-50558432D01*
X59961732Y-50558431D01*
X59755497Y-50462261D01*
X59755488Y-50462258D01*
X59535697Y-50403366D01*
X59535693Y-50403365D01*
X59535692Y-50403365D01*
X59535691Y-50403364D01*
X59535686Y-50403364D01*
X59309002Y-50383532D01*
X59308998Y-50383532D01*
X59082313Y-50403364D01*
X59082302Y-50403366D01*
X58862511Y-50462258D01*
X58862502Y-50462261D01*
X58656267Y-50558431D01*
X58656265Y-50558432D01*
X58469858Y-50688954D01*
X58308954Y-50849858D01*
X58196387Y-51010623D01*
X58141811Y-51054248D01*
X58094812Y-51063500D01*
X54793453Y-51063500D01*
X54726414Y-51043815D01*
X54705772Y-51027181D01*
X51588819Y-47910228D01*
X51555334Y-47848905D01*
X51552500Y-47822547D01*
X51552500Y-47632674D01*
X51572185Y-47565635D01*
X51611221Y-47527248D01*
X51674410Y-47488124D01*
X51789688Y-47383034D01*
X51838827Y-47338238D01*
X51853774Y-47318446D01*
X51972906Y-47160689D01*
X52072077Y-46961528D01*
X52098843Y-46867455D01*
X52136120Y-46808367D01*
X52199429Y-46778809D01*
X52268669Y-46788171D01*
X52321855Y-46833480D01*
X52337373Y-46867460D01*
X52364082Y-46961335D01*
X52364088Y-46961350D01*
X52375675Y-46984619D01*
X53043398Y-46316896D01*
X53044175Y-46327265D01*
X53093735Y-46453541D01*
X53178313Y-46559599D01*
X53290395Y-46636016D01*
X53398147Y-46669253D01*
X52666427Y-47400973D01*
X52761586Y-47487721D01*
X52950668Y-47604797D01*
X52950670Y-47604798D01*
X53158043Y-47685134D01*
X53376655Y-47726000D01*
X53599041Y-47726000D01*
X53817652Y-47685134D01*
X54025025Y-47604798D01*
X54025027Y-47604797D01*
X54214106Y-47487723D01*
X54309267Y-47400972D01*
X53576080Y-46667784D01*
X53621986Y-46660865D01*
X53744205Y-46602007D01*
X53843646Y-46509740D01*
X53911473Y-46392260D01*
X53929347Y-46313946D01*
X54600019Y-46984619D01*
X54600019Y-46984618D01*
X54611607Y-46961349D01*
X54611608Y-46961347D01*
X54638321Y-46867459D01*
X54675600Y-46808366D01*
X54738910Y-46778808D01*
X54808150Y-46788170D01*
X54861336Y-46833479D01*
X54876854Y-46867459D01*
X54903617Y-46961523D01*
X54903623Y-46961538D01*
X55002786Y-47160683D01*
X55002791Y-47160691D01*
X55136868Y-47338238D01*
X55301281Y-47488120D01*
X55301283Y-47488122D01*
X55301285Y-47488123D01*
X55301286Y-47488124D01*
X55343626Y-47514339D01*
X55390260Y-47566364D01*
X55402348Y-47619765D01*
X55402348Y-48071103D01*
X55400623Y-48086720D01*
X55400909Y-48086747D01*
X55400174Y-48094513D01*
X55402348Y-48163662D01*
X55402348Y-48193191D01*
X55402349Y-48193208D01*
X55403216Y-48200079D01*
X55403674Y-48205898D01*
X55405138Y-48252472D01*
X55405139Y-48252475D01*
X55410728Y-48271715D01*
X55414672Y-48290759D01*
X55417184Y-48310640D01*
X55434338Y-48353967D01*
X55436230Y-48359495D01*
X55448182Y-48400634D01*
X55449230Y-48404238D01*
X55457429Y-48418103D01*
X55459428Y-48421482D01*
X55467984Y-48438948D01*
X55475362Y-48457580D01*
X55491147Y-48479307D01*
X55502746Y-48495271D01*
X55505954Y-48500155D01*
X55529675Y-48540264D01*
X55529681Y-48540272D01*
X55543838Y-48554428D01*
X55556476Y-48569224D01*
X55568253Y-48585434D01*
X55568254Y-48585435D01*
X55604157Y-48615136D01*
X55608468Y-48619058D01*
X55721892Y-48732482D01*
X55760194Y-48770784D01*
X55770019Y-48783048D01*
X55770240Y-48782866D01*
X55775210Y-48788873D01*
X55775213Y-48788876D01*
X55775214Y-48788877D01*
X55825651Y-48836241D01*
X55846530Y-48857120D01*
X55852004Y-48861366D01*
X55856442Y-48865156D01*
X55890418Y-48897062D01*
X55907973Y-48906713D01*
X55924231Y-48917392D01*
X55940064Y-48929674D01*
X55962015Y-48939172D01*
X55982837Y-48948183D01*
X55988081Y-48950752D01*
X56028908Y-48973197D01*
X56048312Y-48978179D01*
X56066710Y-48984478D01*
X56085105Y-48992438D01*
X56131129Y-48999726D01*
X56136832Y-49000907D01*
X56181981Y-49012500D01*
X56202016Y-49012500D01*
X56221413Y-49014026D01*
X56241196Y-49017160D01*
X56287584Y-49012775D01*
X56293422Y-49012500D01*
X60395548Y-49012500D01*
X60462587Y-49032185D01*
X60483229Y-49048819D01*
X61187181Y-49752771D01*
X61220666Y-49814094D01*
X61223500Y-49840452D01*
X61223500Y-53269152D01*
X61221305Y-53292379D01*
X61219773Y-53300412D01*
X61223378Y-53357724D01*
X61223500Y-53361595D01*
X61223500Y-53379356D01*
X61225725Y-53396968D01*
X61226091Y-53400843D01*
X61229696Y-53458138D01*
X61232222Y-53465914D01*
X61237309Y-53488672D01*
X61238334Y-53496784D01*
X61238336Y-53496792D01*
X61259469Y-53550170D01*
X61260788Y-53553833D01*
X61278532Y-53608440D01*
X61282907Y-53615333D01*
X61293503Y-53636129D01*
X61296511Y-53643726D01*
X61296513Y-53643731D01*
X61330265Y-53690187D01*
X61332455Y-53693409D01*
X61363213Y-53741876D01*
X61369164Y-53747464D01*
X61384604Y-53764978D01*
X61389403Y-53771585D01*
X61433647Y-53808187D01*
X61436567Y-53810761D01*
X61478418Y-53850062D01*
X61485578Y-53853998D01*
X61504879Y-53867114D01*
X61511177Y-53872324D01*
X61511178Y-53872324D01*
X61511179Y-53872325D01*
X61563125Y-53896769D01*
X61566597Y-53898538D01*
X61616903Y-53926195D01*
X61616905Y-53926195D01*
X61616908Y-53926197D01*
X61622205Y-53927556D01*
X61624814Y-53928227D01*
X61646777Y-53936133D01*
X61654174Y-53939614D01*
X61710576Y-53950373D01*
X61714362Y-53951219D01*
X61769981Y-53965500D01*
X61778153Y-53965500D01*
X61801385Y-53967696D01*
X61802989Y-53968001D01*
X61809412Y-53969227D01*
X61866724Y-53965621D01*
X61870597Y-53965500D01*
X63710700Y-53965500D01*
X63777739Y-53985185D01*
X63812275Y-54018377D01*
X63858506Y-54084403D01*
X63964922Y-54190818D01*
X64025599Y-54251495D01*
X64122384Y-54319265D01*
X64219165Y-54387032D01*
X64219167Y-54387033D01*
X64219170Y-54387035D01*
X64433337Y-54486903D01*
X64661592Y-54548063D01*
X64849918Y-54564539D01*
X64896999Y-54568659D01*
X64897000Y-54568659D01*
X64897001Y-54568659D01*
X64936234Y-54565226D01*
X65132408Y-54548063D01*
X65360663Y-54486903D01*
X65574830Y-54387035D01*
X65768401Y-54251495D01*
X65935495Y-54084401D01*
X65981725Y-54018376D01*
X66036301Y-53974752D01*
X66083300Y-53965500D01*
X66719257Y-53965500D01*
X66734877Y-53967224D01*
X66734904Y-53966939D01*
X66742660Y-53967671D01*
X66742667Y-53967673D01*
X66811814Y-53965500D01*
X66841350Y-53965500D01*
X66848228Y-53964630D01*
X66854041Y-53964172D01*
X66900627Y-53962709D01*
X66919869Y-53957117D01*
X66938912Y-53953174D01*
X66958792Y-53950664D01*
X67002122Y-53933507D01*
X67007646Y-53931617D01*
X67011396Y-53930527D01*
X67052390Y-53918618D01*
X67069629Y-53908422D01*
X67087103Y-53899862D01*
X67105727Y-53892488D01*
X67105727Y-53892487D01*
X67105732Y-53892486D01*
X67143449Y-53865082D01*
X67148305Y-53861892D01*
X67188420Y-53838170D01*
X67202589Y-53823999D01*
X67217379Y-53811368D01*
X67233587Y-53799594D01*
X67263299Y-53763676D01*
X67267212Y-53759376D01*
X70637030Y-50389559D01*
X70698350Y-50356076D01*
X70768042Y-50361060D01*
X70823975Y-50402932D01*
X70848392Y-50468396D01*
X70833540Y-50536669D01*
X70826284Y-50548364D01*
X70751431Y-50655267D01*
X70655261Y-50861502D01*
X70655258Y-50861511D01*
X70596366Y-51081302D01*
X70596364Y-51081313D01*
X70576532Y-51307998D01*
X70576532Y-51308001D01*
X70596364Y-51534686D01*
X70596366Y-51534697D01*
X70655258Y-51754488D01*
X70655261Y-51754497D01*
X70751431Y-51960732D01*
X70751432Y-51960734D01*
X70881951Y-52147137D01*
X70881952Y-52147138D01*
X70881953Y-52147139D01*
X70945182Y-52210368D01*
X70978666Y-52271689D01*
X70981500Y-52298048D01*
X70981500Y-53458500D01*
X70961815Y-53525539D01*
X70909011Y-53571294D01*
X70857500Y-53582500D01*
X69422627Y-53582500D01*
X69403228Y-53580973D01*
X69389388Y-53578781D01*
X69320041Y-53582415D01*
X69316798Y-53582500D01*
X69294808Y-53582500D01*
X69288559Y-53583156D01*
X69272941Y-53584797D01*
X69269710Y-53585051D01*
X69200358Y-53588686D01*
X69200353Y-53588687D01*
X69186803Y-53592317D01*
X69167691Y-53595859D01*
X69153749Y-53597325D01*
X69153737Y-53597327D01*
X69101469Y-53614310D01*
X69087687Y-53618788D01*
X69084607Y-53619701D01*
X69047695Y-53629591D01*
X69017514Y-53637679D01*
X69005020Y-53644045D01*
X68987053Y-53651487D01*
X68973714Y-53655821D01*
X68913591Y-53690533D01*
X68910740Y-53692081D01*
X68848850Y-53723617D01*
X68837951Y-53732442D01*
X68821931Y-53743452D01*
X68809787Y-53750464D01*
X68809783Y-53750467D01*
X68758190Y-53796921D01*
X68755726Y-53799026D01*
X68738620Y-53812879D01*
X68723056Y-53828443D01*
X68720719Y-53830660D01*
X68699206Y-53850030D01*
X68669113Y-53877127D01*
X68669105Y-53877136D01*
X68660872Y-53888468D01*
X68648238Y-53903260D01*
X63925320Y-58626181D01*
X63863997Y-58659666D01*
X63837639Y-58662500D01*
X46605361Y-58662500D01*
X46538322Y-58642815D01*
X46517680Y-58626181D01*
X45409331Y-57517832D01*
X45375846Y-57456509D01*
X45377237Y-57398057D01*
X45383143Y-57376017D01*
X45402063Y-57305408D01*
X45422659Y-57070000D01*
X45402063Y-56834592D01*
X45395824Y-56811310D01*
X45389738Y-56788592D01*
X45391401Y-56718743D01*
X45430564Y-56660880D01*
X45494793Y-56633377D01*
X45509513Y-56632500D01*
X47934812Y-56632500D01*
X48001851Y-56652185D01*
X48036387Y-56685377D01*
X48148954Y-56846141D01*
X48309858Y-57007045D01*
X48309861Y-57007047D01*
X48496266Y-57137568D01*
X48702504Y-57233739D01*
X48922308Y-57292635D01*
X49084230Y-57306801D01*
X49148998Y-57312468D01*
X49149000Y-57312468D01*
X49149002Y-57312468D01*
X49205673Y-57307509D01*
X49375692Y-57292635D01*
X49595496Y-57233739D01*
X49801734Y-57137568D01*
X49988139Y-57007047D01*
X50149047Y-56846139D01*
X50279568Y-56659734D01*
X50375739Y-56453496D01*
X50434635Y-56233692D01*
X50454468Y-56007002D01*
X58004034Y-56007002D01*
X58023858Y-56233599D01*
X58023860Y-56233610D01*
X58082730Y-56453317D01*
X58082734Y-56453326D01*
X58178865Y-56659481D01*
X58178866Y-56659483D01*
X58229973Y-56732471D01*
X58229974Y-56732472D01*
X58911046Y-56051399D01*
X58923835Y-56132148D01*
X58981359Y-56245045D01*
X59070955Y-56334641D01*
X59183852Y-56392165D01*
X59264599Y-56404953D01*
X58583526Y-57086025D01*
X58583526Y-57086026D01*
X58656512Y-57137131D01*
X58656516Y-57137133D01*
X58862673Y-57233265D01*
X58862682Y-57233269D01*
X59082389Y-57292139D01*
X59082400Y-57292141D01*
X59308998Y-57311966D01*
X59309002Y-57311966D01*
X59535599Y-57292141D01*
X59535610Y-57292139D01*
X59755317Y-57233269D01*
X59755331Y-57233264D01*
X59961478Y-57137136D01*
X60034472Y-57086025D01*
X59353401Y-56404953D01*
X59434148Y-56392165D01*
X59547045Y-56334641D01*
X59636641Y-56245045D01*
X59694165Y-56132148D01*
X59706953Y-56051400D01*
X60388025Y-56732472D01*
X60439136Y-56659478D01*
X60535264Y-56453331D01*
X60535269Y-56453317D01*
X60594139Y-56233610D01*
X60594141Y-56233599D01*
X60613966Y-56007002D01*
X60613966Y-56006997D01*
X60594141Y-55780400D01*
X60594139Y-55780389D01*
X60535269Y-55560682D01*
X60535265Y-55560673D01*
X60439133Y-55354516D01*
X60439131Y-55354512D01*
X60388026Y-55281526D01*
X60388025Y-55281526D01*
X59706953Y-55962598D01*
X59694165Y-55881852D01*
X59636641Y-55768955D01*
X59547045Y-55679359D01*
X59434148Y-55621835D01*
X59353400Y-55609046D01*
X60034472Y-54927974D01*
X60034471Y-54927973D01*
X59961483Y-54876866D01*
X59961481Y-54876865D01*
X59755326Y-54780734D01*
X59755317Y-54780730D01*
X59535610Y-54721860D01*
X59535599Y-54721858D01*
X59309002Y-54702034D01*
X59308998Y-54702034D01*
X59082400Y-54721858D01*
X59082389Y-54721860D01*
X58862682Y-54780730D01*
X58862673Y-54780734D01*
X58656513Y-54876868D01*
X58583527Y-54927972D01*
X58583526Y-54927973D01*
X59264600Y-55609046D01*
X59183852Y-55621835D01*
X59070955Y-55679359D01*
X58981359Y-55768955D01*
X58923835Y-55881852D01*
X58911046Y-55962599D01*
X58229973Y-55281526D01*
X58229972Y-55281527D01*
X58178868Y-55354513D01*
X58082734Y-55560673D01*
X58082730Y-55560682D01*
X58023860Y-55780389D01*
X58023858Y-55780400D01*
X58004034Y-56006997D01*
X58004034Y-56007002D01*
X50454468Y-56007002D01*
X50454468Y-56007000D01*
X50434635Y-55780308D01*
X50375739Y-55560504D01*
X50279568Y-55354266D01*
X50149047Y-55167861D01*
X50149045Y-55167858D01*
X49988140Y-55006953D01*
X49827377Y-54894386D01*
X49783752Y-54839809D01*
X49774500Y-54792811D01*
X49774500Y-52903188D01*
X49794185Y-52836149D01*
X49827377Y-52801613D01*
X49943953Y-52719986D01*
X49988139Y-52689047D01*
X50149047Y-52528139D01*
X50279568Y-52341734D01*
X50375739Y-52135496D01*
X50434635Y-51915692D01*
X50454468Y-51689000D01*
X50434635Y-51462308D01*
X50375739Y-51242504D01*
X50279568Y-51036266D01*
X50157204Y-50861511D01*
X50149045Y-50849858D01*
X49988141Y-50688954D01*
X49801734Y-50558432D01*
X49801732Y-50558431D01*
X49595497Y-50462261D01*
X49595488Y-50462258D01*
X49375697Y-50403366D01*
X49375693Y-50403365D01*
X49375692Y-50403365D01*
X49375691Y-50403364D01*
X49375686Y-50403364D01*
X49149002Y-50383532D01*
X49148998Y-50383532D01*
X48922313Y-50403364D01*
X48922302Y-50403366D01*
X48702511Y-50462258D01*
X48702502Y-50462261D01*
X48496267Y-50558431D01*
X48496265Y-50558432D01*
X48309858Y-50688954D01*
X48148954Y-50849858D01*
X48018432Y-51036265D01*
X48018431Y-51036267D01*
X47922261Y-51242502D01*
X47922258Y-51242511D01*
X47863366Y-51462302D01*
X47863364Y-51462313D01*
X47843532Y-51688998D01*
X47843532Y-51689001D01*
X47863364Y-51915686D01*
X47863366Y-51915697D01*
X47922258Y-52135488D01*
X47922261Y-52135497D01*
X48018431Y-52341732D01*
X48018432Y-52341734D01*
X48148954Y-52528141D01*
X48309858Y-52689045D01*
X48470623Y-52801613D01*
X48514248Y-52856189D01*
X48523500Y-52903188D01*
X48523500Y-54792811D01*
X48503815Y-54859850D01*
X48470623Y-54894386D01*
X48309859Y-55006953D01*
X48148954Y-55167858D01*
X48036387Y-55328623D01*
X47981811Y-55372248D01*
X47934812Y-55381500D01*
X45435452Y-55381500D01*
X45368413Y-55361815D01*
X45347771Y-55345181D01*
X45305414Y-55302824D01*
X45271929Y-55241501D01*
X45276913Y-55171809D01*
X45280707Y-55162751D01*
X45340903Y-55033663D01*
X45402063Y-54805408D01*
X45422659Y-54570000D01*
X45402063Y-54334592D01*
X45340903Y-54106337D01*
X45241035Y-53892171D01*
X45241034Y-53892169D01*
X45105494Y-53698597D01*
X44957932Y-53551035D01*
X44924447Y-53489712D01*
X44929431Y-53420020D01*
X44971303Y-53364087D01*
X44980516Y-53357815D01*
X45135345Y-53262315D01*
X45259315Y-53138345D01*
X45351356Y-52989124D01*
X45351358Y-52989119D01*
X45406505Y-52822697D01*
X45406506Y-52822690D01*
X45416999Y-52719986D01*
X45417000Y-52719973D01*
X45417000Y-52320000D01*
X44345969Y-52320000D01*
X44378519Y-52269351D01*
X44417000Y-52138295D01*
X44417000Y-52001705D01*
X44378519Y-51870649D01*
X44345969Y-51820000D01*
X45416999Y-51820000D01*
X45416999Y-51420028D01*
X45416998Y-51420013D01*
X45406505Y-51317302D01*
X45351358Y-51150880D01*
X45351356Y-51150875D01*
X45259315Y-51001654D01*
X45135345Y-50877684D01*
X44986124Y-50785643D01*
X44986119Y-50785641D01*
X44819697Y-50730494D01*
X44819690Y-50730493D01*
X44716986Y-50720000D01*
X44192000Y-50720000D01*
X44192000Y-51661981D01*
X44077199Y-51609554D01*
X43975975Y-51595000D01*
X43908025Y-51595000D01*
X43806801Y-51609554D01*
X43692000Y-51661981D01*
X43692000Y-50720000D01*
X43167028Y-50720000D01*
X43167012Y-50720001D01*
X43064302Y-50730494D01*
X42897880Y-50785641D01*
X42897875Y-50785643D01*
X42748654Y-50877684D01*
X42624684Y-51001654D01*
X42532643Y-51150875D01*
X42532641Y-51150880D01*
X42477494Y-51317302D01*
X42477493Y-51317309D01*
X42467000Y-51420013D01*
X42467000Y-51820000D01*
X43538031Y-51820000D01*
X43505481Y-51870649D01*
X43467000Y-52001705D01*
X43467000Y-52138295D01*
X43505481Y-52269351D01*
X43538031Y-52320000D01*
X42467001Y-52320000D01*
X42467001Y-52719986D01*
X42477494Y-52822697D01*
X42532641Y-52989119D01*
X42532643Y-52989124D01*
X42624684Y-53138345D01*
X42748654Y-53262315D01*
X42903484Y-53357815D01*
X42950208Y-53409763D01*
X42961431Y-53478726D01*
X42933587Y-53542808D01*
X42926069Y-53551035D01*
X42778501Y-53698603D01*
X42778501Y-53698604D01*
X42642967Y-53892165D01*
X42642965Y-53892169D01*
X42543098Y-54106335D01*
X42543094Y-54106344D01*
X42481938Y-54334586D01*
X42481936Y-54334596D01*
X42461341Y-54569999D01*
X42461341Y-54570000D01*
X42481936Y-54805403D01*
X42481938Y-54805413D01*
X42543094Y-55033655D01*
X42543096Y-55033659D01*
X42543097Y-55033663D01*
X42556652Y-55062731D01*
X42642964Y-55247828D01*
X42642965Y-55247830D01*
X42778505Y-55441402D01*
X42945597Y-55608494D01*
X43102595Y-55718425D01*
X43146220Y-55773002D01*
X43153414Y-55842500D01*
X43121891Y-55904855D01*
X43102595Y-55921575D01*
X42945597Y-56031505D01*
X42778506Y-56198597D01*
X42778501Y-56198604D01*
X42642967Y-56392165D01*
X42642965Y-56392169D01*
X42543098Y-56606335D01*
X42543094Y-56606344D01*
X42481938Y-56834586D01*
X42481936Y-56834596D01*
X42461341Y-57069999D01*
X42461341Y-57070000D01*
X39735609Y-57070000D01*
X39694844Y-45085002D01*
X40899034Y-45085002D01*
X40918858Y-45311599D01*
X40918860Y-45311610D01*
X40977730Y-45531317D01*
X40977734Y-45531326D01*
X41073865Y-45737481D01*
X41073866Y-45737483D01*
X41124973Y-45810471D01*
X41124974Y-45810472D01*
X41806046Y-45129399D01*
X41818835Y-45210148D01*
X41876359Y-45323045D01*
X41965955Y-45412641D01*
X42078852Y-45470165D01*
X42159599Y-45482953D01*
X41478526Y-46164025D01*
X41478526Y-46164026D01*
X41551512Y-46215131D01*
X41551516Y-46215133D01*
X41757673Y-46311265D01*
X41757682Y-46311269D01*
X41977389Y-46370139D01*
X41977400Y-46370141D01*
X42203998Y-46389966D01*
X42204002Y-46389966D01*
X42430599Y-46370141D01*
X42430610Y-46370139D01*
X42650317Y-46311269D01*
X42650331Y-46311264D01*
X42856478Y-46215136D01*
X42929472Y-46164025D01*
X42248401Y-45482953D01*
X42329148Y-45470165D01*
X42442045Y-45412641D01*
X42531641Y-45323045D01*
X42589165Y-45210148D01*
X42601953Y-45129400D01*
X43283025Y-45810472D01*
X43334136Y-45737478D01*
X43430264Y-45531331D01*
X43430269Y-45531317D01*
X43489139Y-45311610D01*
X43489141Y-45311599D01*
X43508966Y-45085002D01*
X43508966Y-45084997D01*
X43489141Y-44858400D01*
X43489139Y-44858389D01*
X43430269Y-44638682D01*
X43430265Y-44638673D01*
X43334133Y-44432516D01*
X43334131Y-44432512D01*
X43283026Y-44359526D01*
X43283025Y-44359526D01*
X42601953Y-45040598D01*
X42589165Y-44959852D01*
X42531641Y-44846955D01*
X42442045Y-44757359D01*
X42329148Y-44699835D01*
X42248400Y-44687046D01*
X42929472Y-44005974D01*
X42929471Y-44005973D01*
X42856483Y-43954866D01*
X42856481Y-43954865D01*
X42650326Y-43858734D01*
X42650317Y-43858730D01*
X42430610Y-43799860D01*
X42430599Y-43799858D01*
X42204002Y-43780034D01*
X42203998Y-43780034D01*
X41977400Y-43799858D01*
X41977389Y-43799860D01*
X41757682Y-43858730D01*
X41757673Y-43858734D01*
X41551513Y-43954868D01*
X41478527Y-44005972D01*
X41478526Y-44005973D01*
X42159600Y-44687046D01*
X42078852Y-44699835D01*
X41965955Y-44757359D01*
X41876359Y-44846955D01*
X41818835Y-44959852D01*
X41806046Y-45040599D01*
X41124973Y-44359526D01*
X41124972Y-44359527D01*
X41073868Y-44432513D01*
X40977734Y-44638673D01*
X40977730Y-44638682D01*
X40918860Y-44858389D01*
X40918858Y-44858400D01*
X40899034Y-45084997D01*
X40899034Y-45085002D01*
X39694844Y-45085002D01*
X39665470Y-36449000D01*
X41742523Y-36449000D01*
X41761810Y-36841591D01*
X41761810Y-36841597D01*
X41761811Y-36841599D01*
X41819485Y-37230406D01*
X41914991Y-37611684D01*
X42047409Y-37981770D01*
X42047410Y-37981772D01*
X42215468Y-38337100D01*
X42413193Y-38666983D01*
X42417542Y-38674239D01*
X42618170Y-38944755D01*
X42651694Y-38989956D01*
X42915655Y-39281192D01*
X43153765Y-39497002D01*
X43206897Y-39545158D01*
X43522609Y-39779306D01*
X43522611Y-39779307D01*
X43859747Y-39981379D01*
X43859750Y-39981380D01*
X43859751Y-39981381D01*
X44215076Y-40149438D01*
X44585164Y-40281857D01*
X44966448Y-40377364D01*
X45355257Y-40435038D01*
X45747848Y-40454325D01*
X46140439Y-40435038D01*
X46529248Y-40377364D01*
X46910532Y-40281857D01*
X47280620Y-40149438D01*
X47635945Y-39981381D01*
X47973087Y-39779306D01*
X48288799Y-39545158D01*
X48580040Y-39281192D01*
X48844006Y-38989951D01*
X49078154Y-38674239D01*
X49280229Y-38337097D01*
X49448286Y-37981772D01*
X49580705Y-37611684D01*
X49676212Y-37230400D01*
X49733886Y-36841591D01*
X49753173Y-36449000D01*
X49733886Y-36056409D01*
X49676212Y-35667600D01*
X49580705Y-35286316D01*
X49448286Y-34916228D01*
X49280229Y-34560903D01*
X49183497Y-34399516D01*
X49078155Y-34223763D01*
X49078154Y-34223761D01*
X48844006Y-33908049D01*
X48844001Y-33908043D01*
X48580040Y-33616807D01*
X48288804Y-33352846D01*
X48009102Y-33145405D01*
X47973087Y-33118694D01*
X47891394Y-33069729D01*
X47635948Y-32916620D01*
X47280620Y-32748562D01*
X47280618Y-32748561D01*
X46910532Y-32616143D01*
X46529254Y-32520637D01*
X46529249Y-32520636D01*
X46529248Y-32520636D01*
X46385104Y-32499254D01*
X46140447Y-32462963D01*
X46140445Y-32462962D01*
X46140439Y-32462962D01*
X45747848Y-32443675D01*
X45355257Y-32462962D01*
X45355251Y-32462962D01*
X45355248Y-32462963D01*
X44966441Y-32520637D01*
X44585163Y-32616143D01*
X44215077Y-32748561D01*
X44215075Y-32748562D01*
X43859747Y-32916620D01*
X43522611Y-33118692D01*
X43206891Y-33352846D01*
X42915655Y-33616807D01*
X42651694Y-33908043D01*
X42417540Y-34223763D01*
X42215468Y-34560899D01*
X42047410Y-34916227D01*
X42047409Y-34916229D01*
X41914991Y-35286315D01*
X41819485Y-35667593D01*
X41767009Y-36021363D01*
X41761810Y-36056409D01*
X41742523Y-36449000D01*
X39665470Y-36449000D01*
X39636326Y-27880763D01*
X41452787Y-27880763D01*
X41482413Y-28150013D01*
X41482415Y-28150024D01*
X41550926Y-28412082D01*
X41550928Y-28412088D01*
X41656870Y-28661390D01*
X41783239Y-28868452D01*
X41797979Y-28892605D01*
X41797986Y-28892615D01*
X41971253Y-29100819D01*
X41971259Y-29100824D01*
X42057535Y-29178127D01*
X42172998Y-29281582D01*
X42398910Y-29431044D01*
X42644176Y-29546020D01*
X42644183Y-29546022D01*
X42644185Y-29546023D01*
X42903557Y-29624057D01*
X42903564Y-29624058D01*
X42903569Y-29624060D01*
X43171561Y-29663500D01*
X43171566Y-29663500D01*
X43374636Y-29663500D01*
X43426133Y-29659730D01*
X43577156Y-29648677D01*
X43689758Y-29623593D01*
X43841546Y-29589782D01*
X43841548Y-29589781D01*
X43841553Y-29589780D01*
X44094558Y-29493014D01*
X44330777Y-29360441D01*
X44545177Y-29194888D01*
X44733186Y-28999881D01*
X44890799Y-28779579D01*
X44973450Y-28618822D01*
X45014649Y-28538690D01*
X45014651Y-28538684D01*
X45014656Y-28538675D01*
X45102118Y-28282305D01*
X45151319Y-28015933D01*
X45161212Y-27745235D01*
X45131586Y-27475982D01*
X45063072Y-27213912D01*
X44957130Y-26964610D01*
X44816018Y-26733390D01*
X44814845Y-26731981D01*
X44642746Y-26525180D01*
X44642740Y-26525175D01*
X44441002Y-26344418D01*
X44215092Y-26194957D01*
X44203336Y-26189446D01*
X43969824Y-26079980D01*
X43969819Y-26079978D01*
X43969814Y-26079976D01*
X43710442Y-26001942D01*
X43710428Y-26001939D01*
X43592104Y-25984526D01*
X43442439Y-25962500D01*
X43239369Y-25962500D01*
X43239364Y-25962500D01*
X43036844Y-25977323D01*
X43036831Y-25977325D01*
X42772453Y-26036217D01*
X42772446Y-26036220D01*
X42519439Y-26132987D01*
X42283226Y-26265557D01*
X42283224Y-26265558D01*
X42283223Y-26265559D01*
X42232203Y-26304955D01*
X42068822Y-26431112D01*
X41880822Y-26626109D01*
X41880816Y-26626116D01*
X41723202Y-26846419D01*
X41723199Y-26846424D01*
X41599350Y-27087309D01*
X41599343Y-27087327D01*
X41511884Y-27343685D01*
X41511881Y-27343699D01*
X41504781Y-27382139D01*
X41475061Y-27543045D01*
X41462681Y-27610068D01*
X41462680Y-27610075D01*
X41452787Y-27880763D01*
X39636326Y-27880763D01*
X39624500Y-24404000D01*
X39624500Y-24381500D01*
X39644185Y-24314461D01*
X39696989Y-24268706D01*
X39748500Y-24257500D01*
X92585500Y-24257500D01*
X92652539Y-24277185D01*
G37*
%TD.AperFunction*%
%TD*%
M02*
