%TF.GenerationSoftware,KiCad,Pcbnew,(7.0.0-0)*%
%TF.CreationDate,2023-11-06T21:22:23+01:00*%
%TF.ProjectId,HygroHiH50xx,48796772-6f48-4694-9835-3078782e6b69,1.1*%
%TF.SameCoordinates,Original*%
%TF.FileFunction,Legend,Bot*%
%TF.FilePolarity,Positive*%
%FSLAX46Y46*%
G04 Gerber Fmt 4.6, Leading zero omitted, Abs format (unit mm)*
G04 Created by KiCad (PCBNEW (7.0.0-0)) date 2023-11-06 21:22:23*
%MOMM*%
%LPD*%
G01*
G04 APERTURE LIST*
%ADD10C,0.150000*%
%ADD11C,0.280000*%
G04 APERTURE END LIST*
D10*
X71516427Y-43293380D02*
X71516427Y-42293380D01*
X71516427Y-42769571D02*
X70944999Y-42769571D01*
X70944999Y-43293380D02*
X70944999Y-42293380D01*
X70468808Y-43293380D02*
X70468808Y-42626714D01*
X70468808Y-42293380D02*
X70516427Y-42341000D01*
X70516427Y-42341000D02*
X70468808Y-42388619D01*
X70468808Y-42388619D02*
X70421189Y-42341000D01*
X70421189Y-42341000D02*
X70468808Y-42293380D01*
X70468808Y-42293380D02*
X70468808Y-42388619D01*
X69992618Y-43293380D02*
X69992618Y-42293380D01*
X69992618Y-42769571D02*
X69421190Y-42769571D01*
X69421190Y-43293380D02*
X69421190Y-42293380D01*
X68944999Y-42912428D02*
X68183095Y-42912428D01*
X67230714Y-42293380D02*
X67706904Y-42293380D01*
X67706904Y-42293380D02*
X67754523Y-42769571D01*
X67754523Y-42769571D02*
X67706904Y-42721952D01*
X67706904Y-42721952D02*
X67611666Y-42674333D01*
X67611666Y-42674333D02*
X67373571Y-42674333D01*
X67373571Y-42674333D02*
X67278333Y-42721952D01*
X67278333Y-42721952D02*
X67230714Y-42769571D01*
X67230714Y-42769571D02*
X67183095Y-42864809D01*
X67183095Y-42864809D02*
X67183095Y-43102904D01*
X67183095Y-43102904D02*
X67230714Y-43198142D01*
X67230714Y-43198142D02*
X67278333Y-43245761D01*
X67278333Y-43245761D02*
X67373571Y-43293380D01*
X67373571Y-43293380D02*
X67611666Y-43293380D01*
X67611666Y-43293380D02*
X67706904Y-43245761D01*
X67706904Y-43245761D02*
X67754523Y-43198142D01*
X66564047Y-42293380D02*
X66468809Y-42293380D01*
X66468809Y-42293380D02*
X66373571Y-42341000D01*
X66373571Y-42341000D02*
X66325952Y-42388619D01*
X66325952Y-42388619D02*
X66278333Y-42483857D01*
X66278333Y-42483857D02*
X66230714Y-42674333D01*
X66230714Y-42674333D02*
X66230714Y-42912428D01*
X66230714Y-42912428D02*
X66278333Y-43102904D01*
X66278333Y-43102904D02*
X66325952Y-43198142D01*
X66325952Y-43198142D02*
X66373571Y-43245761D01*
X66373571Y-43245761D02*
X66468809Y-43293380D01*
X66468809Y-43293380D02*
X66564047Y-43293380D01*
X66564047Y-43293380D02*
X66659285Y-43245761D01*
X66659285Y-43245761D02*
X66706904Y-43198142D01*
X66706904Y-43198142D02*
X66754523Y-43102904D01*
X66754523Y-43102904D02*
X66802142Y-42912428D01*
X66802142Y-42912428D02*
X66802142Y-42674333D01*
X66802142Y-42674333D02*
X66754523Y-42483857D01*
X66754523Y-42483857D02*
X66706904Y-42388619D01*
X66706904Y-42388619D02*
X66659285Y-42341000D01*
X66659285Y-42341000D02*
X66564047Y-42293380D01*
X65897380Y-42293380D02*
X65278333Y-42293380D01*
X65278333Y-42293380D02*
X65611666Y-42674333D01*
X65611666Y-42674333D02*
X65468809Y-42674333D01*
X65468809Y-42674333D02*
X65373571Y-42721952D01*
X65373571Y-42721952D02*
X65325952Y-42769571D01*
X65325952Y-42769571D02*
X65278333Y-42864809D01*
X65278333Y-42864809D02*
X65278333Y-43102904D01*
X65278333Y-43102904D02*
X65325952Y-43198142D01*
X65325952Y-43198142D02*
X65373571Y-43245761D01*
X65373571Y-43245761D02*
X65468809Y-43293380D01*
X65468809Y-43293380D02*
X65754523Y-43293380D01*
X65754523Y-43293380D02*
X65849761Y-43245761D01*
X65849761Y-43245761D02*
X65897380Y-43198142D01*
X64659285Y-42293380D02*
X64564047Y-42293380D01*
X64564047Y-42293380D02*
X64468809Y-42341000D01*
X64468809Y-42341000D02*
X64421190Y-42388619D01*
X64421190Y-42388619D02*
X64373571Y-42483857D01*
X64373571Y-42483857D02*
X64325952Y-42674333D01*
X64325952Y-42674333D02*
X64325952Y-42912428D01*
X64325952Y-42912428D02*
X64373571Y-43102904D01*
X64373571Y-43102904D02*
X64421190Y-43198142D01*
X64421190Y-43198142D02*
X64468809Y-43245761D01*
X64468809Y-43245761D02*
X64564047Y-43293380D01*
X64564047Y-43293380D02*
X64659285Y-43293380D01*
X64659285Y-43293380D02*
X64754523Y-43245761D01*
X64754523Y-43245761D02*
X64802142Y-43198142D01*
X64802142Y-43198142D02*
X64849761Y-43102904D01*
X64849761Y-43102904D02*
X64897380Y-42912428D01*
X64897380Y-42912428D02*
X64897380Y-42674333D01*
X64897380Y-42674333D02*
X64849761Y-42483857D01*
X64849761Y-42483857D02*
X64802142Y-42388619D01*
X64802142Y-42388619D02*
X64754523Y-42341000D01*
X64754523Y-42341000D02*
X64659285Y-42293380D01*
D11*
%TO.C,U1*%
X66083500Y-28764000D02*
G75*
G03*
X66083500Y-28764000I-140000J0D01*
G01*
%TD*%
M02*
