%TF.GenerationSoftware,KiCad,Pcbnew,(7.0.0-0)*%
%TF.CreationDate,2023-11-06T21:22:23+01:00*%
%TF.ProjectId,HygroHiH50xx,48796772-6f48-4694-9835-3078782e6b69,1.1*%
%TF.SameCoordinates,Original*%
%TF.FileFunction,Legend,Top*%
%TF.FilePolarity,Positive*%
%FSLAX46Y46*%
G04 Gerber Fmt 4.6, Leading zero omitted, Abs format (unit mm)*
G04 Created by KiCad (PCBNEW (7.0.0-0)) date 2023-11-06 21:22:23*
%MOMM*%
%LPD*%
G01*
G04 APERTURE LIST*
%ADD10C,0.170004*%
%ADD11C,0.100000*%
%ADD12C,0.150000*%
%ADD13C,0.120000*%
G04 APERTURE END LIST*
D10*
X57411108Y-39497016D02*
X57401504Y-39503089D01*
X58911290Y-29727621D02*
X58900513Y-29694999D01*
X58345641Y-37228872D02*
X58373922Y-37212479D01*
X57515177Y-39315483D02*
X57514262Y-39327334D01*
X57807052Y-34753050D02*
X57815641Y-34760388D01*
X57823862Y-35098189D02*
X57815641Y-35105918D01*
X57586126Y-30662721D02*
X57597357Y-30659575D01*
X57197140Y-38725449D02*
X57157551Y-38732200D01*
X58172214Y-33797494D02*
X58162008Y-33802650D01*
X58496015Y-35924561D02*
X58497792Y-35945452D01*
X58036876Y-30438638D02*
X58021222Y-30426111D01*
X58354572Y-34810073D02*
X58327419Y-34794617D01*
X57668679Y-30652528D02*
X57680697Y-30653430D01*
X58483834Y-35843037D02*
X58487641Y-35863112D01*
X58083598Y-33824467D02*
X58071580Y-33825369D01*
X58938795Y-29827809D02*
X58930430Y-29794026D01*
X57430441Y-30955035D02*
X57427251Y-30943960D01*
X57343881Y-36756852D02*
X57324862Y-36749816D01*
X57370901Y-39088408D02*
X57381386Y-39093083D01*
X57798109Y-34746120D02*
X57807052Y-34753050D01*
X56926837Y-35609291D02*
X56937292Y-35592623D01*
X57424607Y-30838608D02*
X57427251Y-30827317D01*
X57278911Y-34483819D02*
X57245851Y-34512984D01*
X57042076Y-39303474D02*
X57042384Y-39291466D01*
X56959324Y-35560207D02*
X56970902Y-35544462D01*
X57076353Y-39424492D02*
X57070652Y-39414718D01*
X58306467Y-34122788D02*
X58325089Y-34113975D01*
X57824460Y-36793395D02*
X57804010Y-36796800D01*
X56813188Y-35995699D02*
X56813976Y-35974317D01*
X58381298Y-34826096D02*
X58354572Y-34810073D01*
X57411108Y-39109933D02*
X57420389Y-39116442D01*
X56355661Y-36470823D02*
X56367067Y-36503760D01*
X57013118Y-32960300D02*
X57870543Y-32613654D01*
X57072986Y-36600231D02*
X57058444Y-36587419D01*
X56923686Y-36425706D02*
X56913789Y-36409052D01*
X58071580Y-33359147D02*
X58083598Y-33360049D01*
X57032821Y-37257032D02*
X57062640Y-37271674D01*
X58287492Y-34130976D02*
X58306467Y-34122788D01*
X58325089Y-34113975D02*
X58343344Y-34104550D01*
X58047225Y-33825369D02*
X58035207Y-33824467D01*
X56967204Y-36489033D02*
X56955736Y-36473691D01*
X57486909Y-39192231D02*
X57492137Y-39202295D01*
X57597810Y-31466346D02*
X57617205Y-31467912D01*
X57656500Y-30302102D02*
X57613443Y-30303624D01*
X57501118Y-39383716D02*
X57496878Y-39394315D01*
X58877784Y-35364641D02*
X58862094Y-35334607D01*
X58172214Y-33387023D02*
X58182126Y-33392644D01*
X57715645Y-30659575D02*
X57726876Y-30662721D01*
X57473860Y-34784694D02*
X57481301Y-34776224D01*
X58237270Y-28938300D02*
X58207766Y-28924845D01*
X58900513Y-29694999D02*
X58888929Y-29662762D01*
X58066831Y-30465205D02*
X58052084Y-30451674D01*
X57900263Y-33765023D02*
X57892041Y-33757294D01*
X58261830Y-33713276D02*
X58255672Y-33722747D01*
X57699469Y-37403473D02*
X57734604Y-37402268D01*
X58978522Y-31196031D02*
X58978522Y-30187132D01*
X57748518Y-33095672D02*
X57732391Y-33105875D01*
X57852770Y-35063641D02*
X57846170Y-35072793D01*
X57278781Y-39070060D02*
X57290958Y-39070363D01*
X57597357Y-35159217D02*
X57586126Y-35156071D01*
X57242742Y-39072750D02*
X57254585Y-39071265D01*
X57159801Y-28899954D02*
X57129708Y-28912042D01*
X57461525Y-36789536D02*
X57441503Y-36785224D01*
X57543690Y-30680403D02*
X57553896Y-30675248D01*
X56865355Y-30122120D02*
X56866959Y-30101254D01*
X57878838Y-30965880D02*
X57874599Y-30976479D01*
X57508031Y-39361796D02*
X57504840Y-39372871D01*
X58964247Y-29966836D02*
X58959083Y-29931494D01*
X58597276Y-29194871D02*
X58574834Y-29172333D01*
X57062473Y-35442941D02*
X57080640Y-35426553D01*
X57592761Y-35513338D02*
X57624411Y-35515845D01*
X57543690Y-31090874D02*
X57533778Y-31085253D01*
X57434164Y-35013394D02*
X57430441Y-35002550D01*
X57864629Y-34821909D02*
X57869857Y-34831974D01*
X57928952Y-34161563D02*
X57954335Y-34166620D01*
X58681350Y-29290588D02*
X58661213Y-29265823D01*
X56597039Y-35110278D02*
X56576724Y-35135865D01*
X57355372Y-29458627D02*
X57374002Y-29452160D01*
X57089112Y-39163834D02*
X57096140Y-39155016D01*
X57340302Y-38723055D02*
X57319981Y-38721330D01*
X58450336Y-35726860D02*
X58457188Y-35745714D01*
X58236487Y-36597162D02*
X58221651Y-36610004D01*
X57381386Y-39513866D02*
X57370901Y-39518541D01*
X56334480Y-39589035D02*
X56762563Y-39589035D01*
X58218542Y-33419493D02*
X58226764Y-33427223D01*
X57671638Y-33151526D02*
X57657448Y-33164093D01*
X56334480Y-39017914D02*
X56334480Y-39589035D01*
X58023029Y-28859401D02*
X57991204Y-28851212D01*
X58619175Y-29217964D02*
X58597276Y-29194871D01*
X57613665Y-29409079D02*
X57634980Y-29408399D01*
X57099261Y-35410734D02*
X57118343Y-35395490D01*
X57304164Y-31354586D02*
X57334370Y-31375292D01*
X57443144Y-30784460D02*
X57448373Y-30774396D01*
X57564381Y-31100705D02*
X57553896Y-31096030D01*
X56856043Y-36283645D02*
X56849683Y-36264658D01*
X57888395Y-34886122D02*
X57890477Y-34897614D01*
X57216553Y-36699567D02*
X57199477Y-36689950D01*
X57251541Y-36717737D02*
X57233907Y-36708830D01*
X57505950Y-34753050D02*
X57514893Y-34746120D01*
X58794131Y-36810964D02*
X58812082Y-36783247D01*
X58533012Y-37100602D02*
X58557764Y-37079720D01*
X57841305Y-33501418D02*
X57846046Y-33491079D01*
X56946151Y-37209353D02*
X56974576Y-37225872D01*
X57043298Y-39279615D02*
X57044804Y-39267936D01*
X57422524Y-34897614D02*
X57424607Y-34886122D01*
X56451333Y-36692103D02*
X56467610Y-36721616D01*
X56489712Y-29508655D02*
X56475064Y-29538396D01*
X57852216Y-33045452D02*
X57834168Y-33052457D01*
X57427251Y-30827317D02*
X57430441Y-30816242D01*
X58103106Y-34174231D02*
X58124640Y-34172296D01*
X57457593Y-38747065D02*
X57438655Y-38741494D01*
X56871535Y-30060229D02*
X56874504Y-30040068D01*
X58379292Y-35585684D02*
X58389576Y-35602198D01*
X57258091Y-39886662D02*
X57278781Y-39887012D01*
X57437921Y-39476240D02*
X57429331Y-39483577D01*
X57138105Y-39870414D02*
X57157551Y-39874749D01*
X58070139Y-34515918D02*
X58053845Y-34500787D01*
X58793093Y-35220018D02*
X58774285Y-35192755D01*
X57645496Y-38845500D02*
X57630174Y-38833947D01*
X57441503Y-36785224D02*
X57421645Y-36780457D01*
X57044823Y-39839609D02*
X57062915Y-39846949D01*
X57621090Y-37403464D02*
X57656501Y-37403875D01*
X56930477Y-34819613D02*
X56903746Y-34836274D01*
X57080640Y-35426553D02*
X57099261Y-35410734D01*
X57751103Y-34357036D02*
X57727855Y-34353817D01*
X58386475Y-36418647D02*
X58376042Y-36435187D01*
X57434164Y-30965880D02*
X57430441Y-30955035D01*
X57956798Y-33381867D02*
X57967282Y-33377191D01*
X57341292Y-30391712D02*
X57307867Y-30414105D01*
X57186354Y-37323622D02*
X57218116Y-37334667D01*
X57237580Y-38721330D02*
X57197140Y-38725449D01*
X57128230Y-39483577D02*
X57119640Y-39476240D01*
X57489139Y-30720603D02*
X57497361Y-30712874D01*
X57839142Y-30737181D02*
X57846170Y-30745999D01*
X58145944Y-34169611D02*
X58167005Y-34166190D01*
X57424607Y-34886122D02*
X57427251Y-34874831D01*
X56780977Y-29129199D02*
X56757562Y-29150443D01*
X57909880Y-29440542D02*
X57928640Y-29446131D01*
X57781810Y-33076793D02*
X57764995Y-33085974D01*
X57103580Y-39146546D02*
X57111419Y-39138439D01*
X57511654Y-28818458D02*
X57478103Y-28821967D01*
X57082511Y-39433963D02*
X57076353Y-39424492D01*
X57869857Y-34831974D02*
X57874599Y-34842312D01*
X58478952Y-36198396D02*
X58473984Y-36218156D01*
X57918648Y-30362361D02*
X57900236Y-30353760D01*
X56921457Y-29869042D02*
X56928958Y-29851237D01*
X58095442Y-33822983D02*
X58083598Y-33824467D01*
X58309399Y-35493624D02*
X58322018Y-35508129D01*
X58490940Y-35883392D02*
X58493731Y-35903875D01*
X58862365Y-36696840D02*
X58877938Y-36666951D01*
X57928640Y-29446131D02*
X57947139Y-29452160D01*
X57944730Y-34423428D02*
X57924821Y-34412941D01*
X56537876Y-35188657D02*
X56519342Y-35215858D01*
X57448373Y-30996882D02*
X57443144Y-30986818D01*
X56815289Y-35953146D02*
X56817128Y-35932185D01*
X57982598Y-36749816D02*
X57963355Y-36756852D01*
X57315074Y-37362905D02*
X57347953Y-37370685D01*
X57752770Y-38954064D02*
X57740957Y-38939031D01*
X57597357Y-30659575D02*
X57608808Y-30656968D01*
X57467708Y-31438884D02*
X57485617Y-31444506D01*
X57748622Y-34718086D02*
X57759106Y-34722761D01*
X57632306Y-30653430D02*
X57644324Y-30652528D01*
X58811278Y-35247834D02*
X58793093Y-35220018D01*
X58008838Y-31354586D02*
X58037633Y-31332113D01*
X57111419Y-39138439D02*
X57119640Y-39130709D01*
X58504495Y-29108601D02*
X58480043Y-29088652D01*
X57680697Y-30653430D02*
X57692540Y-30654915D01*
X57823311Y-30325618D02*
X57803327Y-30320213D01*
X57461421Y-39451933D02*
X57453981Y-39460403D01*
X58037633Y-31332113D02*
X58064935Y-31307955D01*
X58468490Y-36237665D02*
X58462469Y-36256921D01*
X57096140Y-39155016D02*
X57103580Y-39146546D01*
X58835848Y-29538395D02*
X58821076Y-29508654D01*
X57794999Y-39589035D02*
X58978522Y-39589035D01*
X57042384Y-39315483D02*
X57042076Y-39303474D01*
X57656501Y-28812219D02*
X57648947Y-28812219D01*
X56937292Y-35592623D02*
X56948121Y-35576261D01*
X58525262Y-33232312D02*
X58502968Y-33205912D01*
X57314820Y-39534199D02*
X57302976Y-39535684D01*
X57874599Y-30794799D02*
X57878838Y-30805397D01*
X57783405Y-36799750D02*
X57762646Y-36802247D01*
X58435799Y-30020141D02*
X58439072Y-30040068D01*
X58182126Y-33791872D02*
X58172214Y-33797494D01*
X57237580Y-39885619D02*
X57258091Y-39886662D01*
X58605759Y-37036056D02*
X58629004Y-37013278D01*
X57049530Y-39361796D02*
X57046886Y-39350505D01*
X58499816Y-36031338D02*
X58499036Y-36053086D01*
X57737873Y-35152400D02*
X57726876Y-35156071D01*
X57481301Y-35090081D02*
X57473860Y-35081611D01*
X58346095Y-35538147D02*
X58357550Y-35553658D01*
X56461014Y-29568686D02*
X56447560Y-29599524D01*
X58738214Y-29368214D02*
X58719852Y-29341784D01*
X58266267Y-28952407D02*
X58237270Y-28938300D01*
X58081356Y-34175402D02*
X58103106Y-34174231D01*
X56753205Y-34948896D02*
X56729752Y-34969779D01*
X57681934Y-34041706D02*
X57701487Y-34057013D01*
X58978522Y-37726682D02*
X58449713Y-37726682D01*
X57514893Y-30698606D02*
X57524173Y-30692097D01*
X57360422Y-39881500D02*
X57400010Y-39874749D01*
X58277500Y-33501418D02*
X58281740Y-33512017D01*
X57508031Y-39245153D02*
X57510674Y-39256444D01*
X57003466Y-37241765D02*
X57032821Y-37257032D01*
X57098430Y-29611464D02*
X57112058Y-29599316D01*
X57510674Y-39256444D02*
X57512757Y-39267936D01*
X56826367Y-34889871D02*
X56801512Y-34908943D01*
X56819328Y-36124740D02*
X56817025Y-36103750D01*
X58011709Y-33820929D02*
X58000259Y-33818322D01*
X56870275Y-36320869D02*
X56862908Y-36302382D01*
X57514893Y-31072671D02*
X57505950Y-31065741D01*
X57081300Y-39853711D02*
X57099968Y-39859884D01*
X58490701Y-36137611D02*
X58487309Y-36158122D01*
X58978522Y-33749689D02*
X58650912Y-33615103D01*
X57099968Y-28924845D02*
X57070713Y-28938300D01*
X57434164Y-34852911D02*
X57438403Y-34842312D01*
X57251987Y-28868369D02*
X57220941Y-28878118D01*
X58226764Y-33427223D02*
X58234602Y-33435330D01*
X57427251Y-34991475D02*
X57424607Y-34980184D01*
X56484506Y-36750576D02*
X56502023Y-36778983D01*
X57314129Y-34457135D02*
X57278911Y-34483819D01*
X57319981Y-39885619D02*
X57360422Y-39881500D01*
X57497361Y-30712874D02*
X57505950Y-30705537D01*
X57575129Y-30666392D02*
X57586126Y-30662721D01*
X57283348Y-28859401D02*
X57251987Y-28868369D01*
X57831701Y-30728711D02*
X57839142Y-30737181D01*
X58051375Y-35367830D02*
X58073300Y-35347442D01*
X58579817Y-34974592D02*
X58556482Y-34954062D01*
X57500898Y-35496284D02*
X57530960Y-35503514D01*
X58378627Y-29833762D02*
X58386284Y-29851237D01*
X58640980Y-33483906D02*
X58633242Y-33449167D01*
X57597357Y-34707089D02*
X57608808Y-34704482D01*
X58907310Y-36605536D02*
X58921109Y-36574010D01*
X57502059Y-36796800D02*
X57481711Y-36793395D01*
X57908852Y-33772361D02*
X57900263Y-33765023D01*
X57215090Y-34544489D02*
X57186770Y-34578196D01*
X57839142Y-34784694D02*
X57846170Y-34793513D01*
X58487309Y-36158122D02*
X58483393Y-36178384D01*
X57783069Y-30315486D02*
X57762550Y-30311451D01*
X57103580Y-39460403D02*
X57096140Y-39451933D01*
X56318447Y-36335438D02*
X56326488Y-36369831D01*
X57823006Y-33604266D02*
X57822698Y-33592258D01*
X58293379Y-33627796D02*
X58291296Y-33639289D01*
X58217526Y-35407312D02*
X58236518Y-35422859D01*
X58285462Y-33522862D02*
X58288653Y-33533937D01*
X57788829Y-35126695D02*
X57779225Y-35132767D01*
X57664055Y-37403875D02*
X57699469Y-37403473D01*
X56690358Y-29217964D02*
X56669117Y-29241615D01*
X57726876Y-35156071D02*
X57715645Y-35159217D01*
X57869857Y-30986818D02*
X57864629Y-30996882D01*
X58934104Y-35490304D02*
X58921109Y-35458088D01*
X57691334Y-28812609D02*
X57656501Y-28812219D01*
X57689029Y-38882964D02*
X57674935Y-38870020D01*
X57089112Y-39443115D02*
X57082511Y-39433963D01*
X57319981Y-38721330D02*
X57299470Y-38720287D01*
X56661553Y-35036772D02*
X56639453Y-35060730D01*
X58582387Y-33318926D02*
X58565040Y-33288887D01*
X57701487Y-34057013D02*
X57721697Y-34071512D01*
X57663063Y-34025617D02*
X57681934Y-34041706D01*
X56294725Y-36194199D02*
X56299388Y-36230060D01*
X57644898Y-34008770D02*
X57663063Y-34025617D01*
X58000259Y-33818322D02*
X57989028Y-33815176D01*
X57870543Y-32613654D02*
X57870543Y-33039017D01*
X58377195Y-29015335D02*
X58350221Y-28998628D01*
X57656501Y-35516690D02*
X57688818Y-35515836D01*
X57686016Y-29408399D02*
X57707706Y-29409079D01*
X57301021Y-29480477D02*
X57318831Y-29472830D01*
X58651744Y-36989870D02*
X58673883Y-36965926D01*
X57564381Y-35148220D02*
X57553896Y-35143544D01*
X56648477Y-29265824D02*
X56628438Y-29290589D01*
X58255062Y-35438968D02*
X58269223Y-35452127D01*
X57729126Y-29410210D02*
X57750277Y-29411792D01*
X57823920Y-33616117D02*
X57823006Y-33604266D01*
X56304897Y-35753952D02*
X56299388Y-35789307D01*
X58396537Y-36401804D02*
X58386475Y-36418647D01*
X57760084Y-28815729D02*
X57725861Y-28813779D01*
X56863685Y-37156030D02*
X56890705Y-37174433D01*
X58316853Y-37244616D02*
X58345641Y-37228872D01*
X57515177Y-39291466D02*
X57515485Y-39303474D01*
X58754855Y-35166044D02*
X58734803Y-35139884D01*
X57774053Y-34361135D02*
X57751103Y-34357036D01*
X58261830Y-33471241D02*
X58267531Y-33481015D01*
X57620462Y-35163877D02*
X57608808Y-35161824D01*
X58292608Y-29691423D02*
X58303677Y-29705912D01*
X57715645Y-35159217D02*
X57704195Y-35161824D01*
X58231642Y-29623956D02*
X58244582Y-29636786D01*
X57390469Y-34411763D02*
X57351362Y-34433070D01*
X57058444Y-36587419D02*
X57044238Y-36574318D01*
X57118308Y-36636538D02*
X57102919Y-36624791D01*
X57842671Y-35487253D02*
X57871588Y-35476980D01*
X58433094Y-36331407D02*
X58424506Y-36349461D01*
X56959181Y-39794637D02*
X56975629Y-39804696D01*
X57883691Y-34394192D02*
X57862506Y-34385966D01*
X58755982Y-29395198D02*
X58738214Y-29368214D01*
X57891983Y-30861779D02*
X57892897Y-30873630D01*
X56992429Y-39814234D02*
X57009569Y-39823240D01*
X57891983Y-34909293D02*
X57892897Y-34921145D01*
X57048261Y-35456507D02*
X57062473Y-35442941D01*
X57217259Y-39883894D02*
X57237580Y-39885619D01*
X57764995Y-33085974D02*
X57748518Y-33095672D01*
X58073300Y-35347442D02*
X58094153Y-35325985D01*
X56985857Y-28982571D02*
X56958543Y-28998628D01*
X56299388Y-35789307D02*
X56294725Y-35825037D01*
X57119640Y-39130709D02*
X57128230Y-39123372D01*
X58095442Y-33361534D02*
X58107096Y-33363587D01*
X58176735Y-29576052D02*
X58190912Y-29587511D01*
X58035708Y-29488473D02*
X58052568Y-29496816D01*
X56943097Y-39784068D02*
X56959181Y-39794637D01*
X57496878Y-39212634D02*
X57501118Y-39223233D01*
X56979065Y-36504050D02*
X56967204Y-36489033D01*
X57813078Y-35496066D02*
X57842671Y-35487253D01*
X57081300Y-38753238D02*
X57044823Y-38767340D01*
X57936679Y-33791872D02*
X57927075Y-33785800D01*
X57645496Y-39761448D02*
X57674935Y-39736929D01*
X56868533Y-39723985D02*
X56882626Y-39736929D01*
X57524173Y-31079180D02*
X57514893Y-31072671D01*
X57581932Y-39804696D02*
X57614464Y-39784068D01*
X57424607Y-30932669D02*
X57422524Y-30921177D01*
X57880345Y-31426029D02*
X57914305Y-31411093D01*
X58978522Y-39589035D02*
X58978522Y-37726682D01*
X58085396Y-29514546D02*
X58101365Y-29523932D01*
X58403663Y-29032691D02*
X58377195Y-29015335D01*
X57216669Y-29523932D02*
X57232907Y-29514546D01*
X57454073Y-31006656D02*
X57448373Y-30996882D01*
X58269343Y-29663441D02*
X58281163Y-29677266D01*
X58291296Y-33545228D02*
X58293379Y-33556720D01*
X57737873Y-31104886D02*
X57726876Y-31108556D01*
X57429331Y-39483577D02*
X57420389Y-39490507D01*
X58124640Y-34172296D02*
X58145944Y-34169611D01*
X57926666Y-28837175D02*
X57893950Y-28831326D01*
X57512757Y-39267936D02*
X57514262Y-39279615D01*
X56367067Y-35516971D02*
X56355661Y-35549703D01*
X57102919Y-36624791D02*
X57087811Y-36612689D01*
X57200750Y-29533664D02*
X57216669Y-29523932D01*
X57470246Y-29426424D02*
X57490115Y-29422605D01*
X57692540Y-34702428D02*
X57704195Y-34704482D01*
X56804791Y-38954064D02*
X56782649Y-38985268D01*
X57444863Y-28826257D02*
X57411934Y-28831326D01*
X57863133Y-33722747D02*
X57856975Y-33713276D01*
X56874504Y-30040068D02*
X56877925Y-30020141D01*
X58288653Y-33650580D02*
X58285462Y-33661655D01*
X58094892Y-30493703D02*
X58081105Y-30479219D01*
X58147483Y-29554167D02*
X58162259Y-29564937D01*
X57137172Y-39490507D02*
X57128230Y-39483577D01*
X56520801Y-29450824D02*
X56504958Y-29479464D01*
X56359568Y-29896544D02*
X56353691Y-29931495D01*
X58976938Y-30112124D02*
X58974958Y-30075213D01*
X56734637Y-29172334D02*
X56712201Y-29194871D01*
X58805702Y-29479463D02*
X58789727Y-29450823D01*
X58038109Y-37355285D02*
X58070399Y-37346049D01*
X58116740Y-28888646D02*
X58085796Y-28878118D01*
X57156057Y-39503089D02*
X57146453Y-39497016D01*
X58773153Y-29422734D02*
X58755982Y-29395198D01*
X58294884Y-33568399D02*
X58295799Y-33580250D01*
X58994644Y-35691278D02*
X58986637Y-35656870D01*
X58370588Y-29816620D02*
X58378627Y-29833762D01*
X56620214Y-36937738D02*
X56642104Y-36962239D01*
X57627466Y-33991190D02*
X57644898Y-34008770D01*
X58114739Y-31254892D02*
X58137082Y-31226147D01*
X57431308Y-34393352D02*
X57390469Y-34411763D01*
X58143059Y-36668516D02*
X58126448Y-36679078D01*
X57702689Y-39710600D02*
X57728665Y-39682555D01*
X57779225Y-35132767D02*
X57769312Y-35138389D01*
X56869020Y-30080624D02*
X56871535Y-30060229D01*
X58324687Y-29735884D02*
X58334626Y-29751368D01*
X59028884Y-36017291D02*
X59028460Y-35979619D01*
X57400010Y-39874749D02*
X57438655Y-39865455D01*
X59028460Y-35979619D02*
X59027187Y-35942308D01*
X57874599Y-30976479D02*
X57869857Y-30986818D01*
X58946272Y-36509808D02*
X58957611Y-36477118D01*
X57579815Y-33934298D02*
X57594899Y-33953929D01*
X57254585Y-39071265D02*
X57266603Y-39070363D01*
X58946272Y-35522886D02*
X58934104Y-35490304D01*
X57042384Y-39291466D02*
X57043298Y-39279615D01*
X58092321Y-36699057D02*
X58074802Y-36708474D01*
X58499822Y-35987843D02*
X58500076Y-36009345D01*
X56711479Y-37032375D02*
X56735661Y-37054564D01*
X57903971Y-34155450D02*
X57928952Y-34161563D01*
X57668679Y-31118749D02*
X57656501Y-31119053D01*
X57186770Y-34578196D02*
X57161034Y-34613967D01*
X58661213Y-29265823D02*
X58640488Y-29241615D01*
X57788829Y-34739611D02*
X57798109Y-34746120D01*
X57553896Y-31096030D02*
X57543690Y-31090874D01*
X56554283Y-29395199D02*
X56537242Y-29422735D01*
X57552172Y-33893160D02*
X57565564Y-33914034D01*
X57471455Y-35487568D02*
X57500898Y-35496284D01*
X57978031Y-33811505D02*
X57967282Y-33807325D01*
X58673883Y-36965926D02*
X58695421Y-36941446D01*
X57807052Y-31065741D02*
X57798109Y-31072671D01*
X58986637Y-35656870D02*
X58977795Y-35622826D01*
X57888395Y-34980184D02*
X57885751Y-34991475D01*
X56558306Y-36860871D02*
X56578316Y-36887053D01*
X57302976Y-39535684D02*
X57290958Y-39536586D01*
X56340756Y-30038696D02*
X56338011Y-30075214D01*
X57892041Y-33757294D02*
X57884203Y-33749187D01*
X56642104Y-36962239D02*
X56664624Y-36986177D01*
X56948121Y-35576261D02*
X56959324Y-35560207D01*
X57825426Y-33556720D02*
X57827508Y-33545228D01*
X58978522Y-34334965D02*
X58978522Y-33749689D01*
X56379313Y-35484612D02*
X56367067Y-35516971D01*
X57438655Y-38741494D02*
X57419456Y-38736535D01*
X56881798Y-30000447D02*
X56886121Y-29980984D01*
X58629004Y-37013278D02*
X58651744Y-36989870D01*
X57391592Y-39098239D02*
X57401504Y-39103860D01*
X57946592Y-33387023D02*
X57956798Y-33381867D01*
X56299388Y-36230060D02*
X56304897Y-36265553D01*
X58059403Y-34175795D02*
X58081356Y-34175402D01*
X58357550Y-35553658D02*
X58368616Y-35569504D01*
X58118546Y-33366194D02*
X58129778Y-33369340D01*
X57411934Y-28831326D02*
X57379318Y-28837175D01*
X56819492Y-35911435D02*
X56822381Y-35890897D01*
X57379318Y-28837175D02*
X57347014Y-28843804D01*
X57834168Y-33052457D02*
X57816409Y-33060024D01*
X57882560Y-30816242D02*
X57885751Y-30827317D01*
X57656501Y-31119053D02*
X57644324Y-31118749D01*
X57161034Y-34613967D02*
X57138024Y-34651661D01*
X57959083Y-28843804D02*
X57926666Y-28837175D01*
X57044804Y-39339013D02*
X57043298Y-39327334D01*
X57704195Y-35161824D02*
X57692540Y-35163877D01*
X56451136Y-35330005D02*
X56435565Y-35359870D01*
X57878838Y-35013394D02*
X57874599Y-35023993D01*
X57779225Y-31085253D02*
X57769312Y-31090874D01*
X57453981Y-39146546D02*
X57461421Y-39155016D01*
X57578597Y-31464171D02*
X57597810Y-31466346D01*
X56777124Y-34928618D02*
X56753205Y-34948896D01*
X57721697Y-34071512D02*
X57742537Y-34085178D01*
X57460231Y-31016127D02*
X57454073Y-31006656D01*
X57720660Y-36805879D02*
X57699431Y-36807013D01*
X57007888Y-35499083D02*
X57020969Y-35484579D01*
X58407597Y-34842685D02*
X58381298Y-34826096D01*
X57374002Y-29452160D02*
X57392837Y-29446131D01*
X57869857Y-35034332D02*
X57864629Y-35044396D01*
X57082511Y-39172986D02*
X57089112Y-39163834D01*
X57827508Y-33545228D02*
X57830152Y-33533937D01*
X57846046Y-33491079D02*
X57851274Y-33481015D01*
X57287646Y-36734487D02*
X57269454Y-36726289D01*
X56953654Y-29799809D02*
X56962615Y-29783331D01*
X57798109Y-31072671D02*
X57788829Y-31079180D01*
X57917795Y-33779291D02*
X57908852Y-33772361D01*
X56863288Y-30186139D02*
X56863518Y-30164561D01*
X57720781Y-30305506D02*
X57699557Y-30303624D01*
X57182682Y-36679978D02*
X57166167Y-36669650D01*
X57460231Y-34802664D02*
X57466832Y-34793513D01*
X57505950Y-30705537D02*
X57514893Y-30698606D01*
X57468449Y-39443115D02*
X57461421Y-39451933D01*
X57763984Y-34097987D02*
X57786011Y-34109914D01*
X58294884Y-33616117D02*
X58293379Y-33627796D01*
X58287560Y-37259711D02*
X58316853Y-37244616D01*
X57250156Y-37344896D02*
X57282476Y-37354309D01*
X57983354Y-29465532D02*
X58001101Y-29472830D01*
X56338011Y-30075214D02*
X56336050Y-30112126D01*
X57846170Y-35072793D02*
X57839142Y-35081611D01*
X57726876Y-31108556D02*
X57715645Y-31111703D01*
X58035207Y-33824467D02*
X58023364Y-33822983D01*
X56817128Y-35932185D02*
X56819492Y-35911435D01*
X58001101Y-29472830D02*
X58018553Y-29480477D01*
X57042107Y-34758981D02*
X57013493Y-34773238D01*
X58907292Y-35426381D02*
X58892851Y-35395233D01*
X56406208Y-36600260D02*
X56420633Y-36631424D01*
X58102398Y-37336009D02*
X58134105Y-37325167D01*
X57241667Y-35349406D02*
X57263534Y-35369541D01*
X57315024Y-28851212D02*
X57283348Y-28859401D01*
X57218109Y-30493703D02*
X57192049Y-30524027D01*
X57481711Y-36793395D02*
X57461525Y-36789536D01*
X58090664Y-31282188D02*
X58114739Y-31254892D01*
X58978126Y-30149431D02*
X58976938Y-30112124D01*
X58775584Y-36838140D02*
X58794131Y-36810964D01*
X57989028Y-33815176D02*
X57978031Y-33811505D01*
X57878838Y-30805397D02*
X57882560Y-30816242D01*
X57454073Y-30764621D02*
X57460231Y-30755150D01*
X57168096Y-30556072D02*
X57146357Y-30589734D01*
X57885751Y-30943960D02*
X57882560Y-30955035D01*
X57401504Y-39503089D02*
X57391592Y-39508710D01*
X58551890Y-29150442D02*
X58528444Y-29129198D01*
X57013657Y-28967164D02*
X56985857Y-28982571D01*
X56834199Y-35830552D02*
X56839189Y-35810863D01*
X58249071Y-33452618D02*
X58255672Y-33461770D01*
X57438403Y-30794799D02*
X57443144Y-30784460D01*
X57197409Y-39522722D02*
X57186660Y-39518541D01*
X57420104Y-30873630D02*
X57421019Y-30861779D01*
X58651164Y-33592257D02*
X58650010Y-33555519D01*
X57878838Y-34852911D02*
X57882560Y-34863756D01*
X57614464Y-38822881D02*
X57598380Y-38812312D01*
X57890856Y-29435394D02*
X57909880Y-29440542D01*
X57674935Y-38870020D02*
X57660421Y-38857529D01*
X57478973Y-33707227D02*
X57484587Y-33732079D01*
X57609136Y-34351458D02*
X57562792Y-34356891D01*
X56913789Y-36409052D02*
X56904286Y-36392067D01*
X56888750Y-35679021D02*
X56897713Y-35661132D01*
X57954398Y-30381350D02*
X57936707Y-30371562D01*
X57197140Y-39881500D02*
X57217259Y-39883894D01*
X57092921Y-37285692D02*
X57123664Y-37299086D01*
X58972183Y-30038694D02*
X58968613Y-30002569D01*
X56838476Y-36225932D02*
X56833631Y-36206194D01*
X57852019Y-29426424D02*
X57871570Y-29430688D01*
X58716360Y-36916427D02*
X58736699Y-36890871D01*
X57299470Y-38720287D02*
X57278781Y-38719937D01*
X58373922Y-37212479D02*
X58401698Y-37195439D01*
X58251032Y-36583943D02*
X58236487Y-36597162D01*
X57827620Y-28821967D02*
X57794003Y-28818458D01*
X57460231Y-30755150D02*
X57466832Y-30745999D01*
X57579684Y-28813779D02*
X57545514Y-28815729D01*
X56904286Y-36392067D02*
X56895178Y-36374748D01*
X59022101Y-36165561D02*
X59025067Y-36129050D01*
X59008147Y-36272844D02*
X59013640Y-36237460D01*
X58053845Y-34500787D02*
X58036981Y-34486265D01*
X58399350Y-32408794D02*
X58978522Y-32170662D01*
X58005133Y-30414105D02*
X57988624Y-30402635D01*
X58107096Y-33820929D02*
X58095442Y-33822983D01*
X57890477Y-30921177D02*
X57888395Y-30932669D01*
X57803327Y-30320213D02*
X57783069Y-30315486D01*
X57012875Y-29705912D02*
X57024015Y-29691423D01*
X56970902Y-35544462D02*
X56982855Y-35529025D01*
X56284542Y-35971728D02*
X56284117Y-36009345D01*
X58115413Y-34564788D02*
X58100941Y-34547937D01*
X56833631Y-36206194D02*
X56829293Y-36186206D01*
X57233907Y-36708830D02*
X57216553Y-36699567D01*
X59018292Y-35832547D02*
X59013640Y-35796685D01*
X58557764Y-37079720D02*
X58582013Y-37058204D01*
X58736699Y-36890871D02*
X58756441Y-36864775D01*
X57420104Y-30897647D02*
X57419796Y-30885638D01*
X57785218Y-39001416D02*
X57774912Y-38985268D01*
X56995184Y-35513899D02*
X57007888Y-35499083D01*
X56813182Y-36039281D02*
X56812926Y-36017291D01*
X58191101Y-36634548D02*
X58175384Y-36646251D01*
X58279068Y-36556613D02*
X58265241Y-36570429D01*
X57965377Y-29458627D02*
X57983354Y-29465532D01*
X58362168Y-29799809D02*
X58370588Y-29816620D01*
X57411880Y-29440542D02*
X57431129Y-29435394D01*
X57598380Y-38812312D02*
X57581932Y-38802253D01*
X57169880Y-29554167D02*
X57185153Y-29543742D01*
X58198085Y-35392329D02*
X58217526Y-35407312D01*
X58147393Y-28899954D02*
X58116740Y-28888646D01*
X57231087Y-39532146D02*
X57219637Y-39529539D01*
X57351362Y-34433070D02*
X57314129Y-34457135D01*
X58386284Y-29851237D02*
X58393558Y-29869042D01*
X58296107Y-33592258D02*
X58295799Y-33604266D01*
X58700897Y-29315908D02*
X58681350Y-29290588D01*
X58401698Y-37195439D02*
X58428969Y-37177754D01*
X58393558Y-29869042D02*
X58400413Y-29887128D01*
X57553896Y-30675248D02*
X57564381Y-30670572D01*
X57512738Y-39839609D02*
X57547993Y-39823240D01*
X58257149Y-29649948D02*
X58269343Y-29663441D01*
X57112058Y-29599316D02*
X57126019Y-29587511D01*
X58892851Y-35395233D02*
X58877784Y-35364641D01*
X57864900Y-36785224D02*
X57844756Y-36789536D01*
X57624411Y-35515845D02*
X57656501Y-35516690D01*
X57823862Y-31050674D02*
X57815641Y-31058404D01*
X56304897Y-36265553D02*
X56311250Y-36300679D01*
X58295799Y-33604266D02*
X58294884Y-33616117D01*
X57699431Y-36807013D02*
X57678045Y-36807694D01*
X56381889Y-29794027D02*
X56373667Y-29827810D01*
X58176650Y-30607139D02*
X58166644Y-30589734D01*
X57614464Y-39784068D02*
X57645496Y-39761448D01*
X57794999Y-39017914D02*
X57785218Y-39001416D01*
X57278781Y-38719937D02*
X57237580Y-38721330D01*
X57862402Y-30338411D02*
X57843007Y-30331688D01*
X56608999Y-29315909D02*
X56590161Y-29341785D01*
X57832203Y-29422605D02*
X57852019Y-29426424D01*
X57232907Y-29514546D02*
X57249463Y-29505507D01*
X56981629Y-29751368D02*
X56991682Y-29735884D01*
X56287938Y-35897628D02*
X56285816Y-35934489D01*
X57248067Y-31307955D02*
X57275369Y-31332113D01*
X56886464Y-36357095D02*
X56878146Y-36339105D01*
X57543690Y-34727917D02*
X57553896Y-34722761D01*
X57392837Y-29446131D02*
X57411880Y-29440542D01*
X58408970Y-35636227D02*
X58418077Y-35653740D01*
X57771160Y-29413824D02*
X57791774Y-29416304D01*
X57489689Y-30325618D02*
X57450598Y-30338411D01*
X57559577Y-31461397D02*
X57578597Y-31464171D01*
X57831706Y-34131023D02*
X57855323Y-34140155D01*
X57837065Y-33512017D02*
X57841305Y-33501418D01*
X57454073Y-34812135D02*
X57460231Y-34802664D01*
X57741782Y-30308120D02*
X57720781Y-30305506D01*
X57752038Y-35509134D02*
X57782852Y-35503374D01*
X58267531Y-33481015D02*
X58272759Y-33491079D01*
X56877925Y-30020141D02*
X56881798Y-30000447D01*
X57448373Y-34821909D02*
X57454073Y-34812135D01*
X57825426Y-33627796D02*
X57823920Y-33616117D01*
X57815641Y-30712874D02*
X57823862Y-30720603D01*
X58812082Y-36783247D02*
X58829437Y-36754987D01*
X57871588Y-35476980D02*
X57899784Y-35465289D01*
X57199392Y-35340452D02*
X57220864Y-35328220D01*
X57794003Y-28818458D02*
X57760084Y-28815729D01*
X57334370Y-31375292D02*
X57365908Y-31394154D01*
X57016997Y-36547168D02*
X57003962Y-36533116D01*
X57737873Y-30666392D02*
X57748622Y-30670572D01*
X58234602Y-33435330D02*
X58242043Y-33443800D01*
X57884203Y-33435330D02*
X57892041Y-33427223D01*
X58376042Y-36435187D02*
X58365235Y-36451425D01*
X57830152Y-33533937D02*
X57833343Y-33522862D01*
X58036981Y-34486265D02*
X58019563Y-34472371D01*
X58426790Y-35671586D02*
X58435109Y-35689765D01*
X57830152Y-33650580D02*
X57827508Y-33639289D01*
X57185153Y-29543742D02*
X57200750Y-29533664D01*
X57656501Y-31469176D02*
X57695797Y-31467912D01*
X56944659Y-36458024D02*
X56933976Y-36442029D01*
X58314371Y-29720732D02*
X58324687Y-29735884D01*
X57524173Y-34739611D02*
X57533778Y-34733539D01*
X57914305Y-31411093D02*
X57947094Y-31394154D01*
X58151523Y-33377191D02*
X58162008Y-33381867D01*
X57764092Y-38969480D02*
X57752770Y-38954064D01*
X57473860Y-30737181D02*
X57481301Y-30728711D01*
X57680697Y-31117848D02*
X57668679Y-31118749D01*
X57517399Y-33827134D02*
X57528064Y-33849685D01*
X57266603Y-39070363D02*
X57278781Y-39070060D01*
X57890477Y-30850100D02*
X57891983Y-30861779D01*
X58435109Y-35689765D02*
X58442976Y-35708211D01*
X58714129Y-35114275D02*
X58692835Y-35089216D01*
X57882560Y-35002550D02*
X57878838Y-35013394D01*
X57515485Y-39303474D02*
X57515177Y-39315483D01*
X57326474Y-39532146D02*
X57314820Y-39534199D01*
X57254585Y-39535684D02*
X57242742Y-39534199D01*
X58532725Y-34934092D02*
X58508547Y-34914685D01*
X57759106Y-30675248D02*
X57769312Y-30680403D01*
X57728665Y-39682555D02*
X57752770Y-39652885D01*
X56957679Y-34803553D02*
X56930477Y-34819613D01*
X57788829Y-31079180D02*
X57779225Y-31085253D01*
X57924423Y-36769563D02*
X57904733Y-36775237D01*
X57704195Y-31114310D02*
X57692540Y-31116363D01*
X57496878Y-39394315D02*
X57492137Y-39404654D01*
X57076353Y-39182457D02*
X57082511Y-39172986D01*
X57841305Y-33683098D02*
X57837065Y-33672499D01*
X57140311Y-29576052D02*
X57154932Y-29564937D01*
X57060682Y-39394315D02*
X57056443Y-39383716D01*
X57263534Y-35369541D02*
X57286422Y-35388582D01*
X57249463Y-29505507D02*
X57266336Y-29496816D01*
X57360761Y-35438704D02*
X57387283Y-35452932D01*
X58378702Y-34083919D02*
X58978522Y-34334965D01*
X58415552Y-36367211D02*
X58406229Y-36384659D01*
X57741731Y-36804290D02*
X57720660Y-36805879D01*
X57620462Y-31116363D02*
X57608808Y-31114310D01*
X57688818Y-35515836D02*
X57720679Y-35513303D01*
X58132409Y-29543742D02*
X58147483Y-29554167D01*
X57492137Y-39202295D02*
X57496878Y-39212634D01*
X57734604Y-37402268D02*
X57769460Y-37400261D01*
X56355661Y-35549703D02*
X56345095Y-35582808D01*
X57430441Y-30816242D02*
X57434164Y-30805397D01*
X58651058Y-33609368D02*
X58651132Y-33603681D01*
X56311250Y-36300679D02*
X56318447Y-36335438D01*
X58157858Y-35364069D02*
X58178196Y-35377914D01*
X57807052Y-30705537D02*
X57815641Y-30712874D01*
X58322743Y-28982571D02*
X58294758Y-28967163D01*
X57453981Y-39460403D02*
X57446142Y-39468510D01*
X57166167Y-36669650D02*
X57149933Y-36658968D01*
X56706767Y-34991266D02*
X56684249Y-35013359D01*
X56936825Y-29833762D02*
X56945057Y-29816620D01*
X57823006Y-33580250D02*
X57823920Y-33568399D01*
X58330571Y-36498321D02*
X58318263Y-36513348D01*
X57400010Y-38732200D02*
X57380328Y-38728501D01*
X56628438Y-29290589D02*
X56608999Y-29315909D01*
X57065424Y-39404654D02*
X57060682Y-39394315D01*
X58756441Y-36864775D02*
X58775584Y-36838140D01*
X58829437Y-36754987D02*
X58846198Y-36726186D01*
X57769312Y-31090874D02*
X57759106Y-31096030D01*
X58209953Y-33772361D02*
X58201011Y-33779291D01*
X58479520Y-35823165D02*
X58483834Y-35843037D01*
X57443144Y-35034332D02*
X57438403Y-35023993D01*
X58117036Y-29533664D02*
X58132409Y-29543742D01*
X57146357Y-30589734D02*
X57126937Y-30624910D01*
X57514262Y-39279615D02*
X57515177Y-39291466D01*
X57420104Y-34921145D02*
X57421019Y-34909293D01*
X58343344Y-34104550D02*
X58361220Y-34094527D01*
X58166684Y-34637388D02*
X58154895Y-34618495D01*
X56467610Y-36721616D02*
X56484506Y-36750576D01*
X58004487Y-35405228D02*
X58028423Y-35387107D01*
X57175920Y-31226147D02*
X57198262Y-31254892D01*
X58623445Y-33415231D02*
X58611658Y-33382167D01*
X59001814Y-35726050D02*
X58994644Y-35691278D01*
X57704195Y-30656968D02*
X57715645Y-30659575D01*
X56890894Y-29961753D02*
X56896115Y-29942753D01*
X57822698Y-33592258D02*
X57823006Y-33580250D01*
X57608808Y-34704482D02*
X57620462Y-34702428D01*
X58206523Y-36622466D02*
X58191101Y-36634548D01*
D11*
X61911000Y-42288000D02*
X70674000Y-42288000D01*
X70674000Y-42288000D02*
X70674000Y-46352000D01*
X70674000Y-46352000D02*
X61911000Y-46352000D01*
X61911000Y-46352000D02*
X61911000Y-42288000D01*
D10*
X56914455Y-29887128D02*
X56921457Y-29869042D01*
X57489139Y-31050674D02*
X57481301Y-31042567D01*
X57656501Y-34349616D02*
X57609136Y-34351458D01*
X57908852Y-33412156D02*
X57917795Y-33405225D01*
X57222338Y-31282188D02*
X57248067Y-31307955D01*
X56435565Y-35359870D02*
X56420585Y-35390262D01*
X58236518Y-35422859D02*
X58255062Y-35438968D01*
X57421019Y-30909498D02*
X57420104Y-30897647D01*
X57443144Y-30986818D02*
X57438403Y-30976479D01*
X56735661Y-37054564D02*
X56760318Y-37076120D01*
X57318831Y-29472830D02*
X57336950Y-29465532D01*
X57701240Y-33127755D02*
X57686239Y-33139409D01*
X57401953Y-36775237D02*
X57382427Y-36769563D01*
X57833343Y-33661655D02*
X57830152Y-33650580D01*
X56854872Y-38896349D02*
X56828897Y-38924394D01*
X57660421Y-38857529D02*
X57645496Y-38845500D01*
X56829734Y-35850455D02*
X56834199Y-35830552D01*
X56912065Y-38845500D02*
X56882626Y-38870020D01*
X56538922Y-36834132D02*
X56558306Y-36860871D01*
X57307867Y-30414105D02*
X57276124Y-30438638D01*
X57530472Y-29416304D02*
X57550960Y-29413824D01*
X57586126Y-35156071D02*
X57575129Y-35152400D01*
X58565040Y-33288887D02*
X58545975Y-33259992D01*
X57716628Y-33116573D02*
X57701240Y-33127755D01*
X57310285Y-35406485D02*
X57335080Y-35423207D01*
X57656501Y-35166568D02*
X57644324Y-35166264D01*
X57290958Y-39070363D02*
X57302976Y-39071265D01*
X57494647Y-38760000D02*
X57476261Y-38753238D01*
X57592557Y-29410210D02*
X57613665Y-29409079D01*
X58248540Y-34145419D02*
X58268179Y-34138524D01*
X57840931Y-34378529D02*
X57818985Y-34371899D01*
X57505950Y-31065741D02*
X57497361Y-31058404D01*
X58187808Y-34162046D02*
X58208341Y-34157194D01*
X58267531Y-33703501D02*
X58261830Y-33713276D01*
X57594899Y-33953929D02*
X57610791Y-33972901D01*
X57306115Y-36742329D02*
X57287646Y-36734487D01*
X58458920Y-34877557D02*
X58433471Y-34859839D01*
X58449712Y-30624910D02*
X58186064Y-30624910D01*
X57946592Y-33797494D02*
X57936679Y-33791872D01*
X58283001Y-35465622D02*
X58296392Y-35479455D01*
X58986637Y-36376713D02*
X58994644Y-36342473D01*
X57514893Y-35120186D02*
X57505950Y-35113255D01*
X57041942Y-28952407D02*
X57013657Y-28967164D01*
X57443144Y-34831974D02*
X57448373Y-34821909D01*
X58418267Y-29942753D02*
X58423319Y-29961753D01*
X57438655Y-39865455D02*
X57476261Y-39853711D01*
X57643682Y-33177101D02*
X57630352Y-33190538D01*
X58249071Y-33731898D02*
X58242043Y-33740717D01*
X56400674Y-29727622D02*
X56390891Y-29760631D01*
X58052084Y-30451674D02*
X58036876Y-30438638D01*
X58423319Y-29961753D02*
X58427924Y-29980984D01*
X58888929Y-29662762D02*
X58876538Y-29630910D01*
X57818985Y-34371899D02*
X57796687Y-34366095D01*
X57862506Y-34385966D02*
X57840931Y-34378529D01*
X58218366Y-29611464D02*
X58231642Y-29623956D01*
X56975629Y-38802253D02*
X56943097Y-38822881D01*
X57748622Y-30670572D02*
X57759106Y-30675248D01*
X58294758Y-28967163D02*
X58266267Y-28952407D01*
X56877484Y-34853537D02*
X56851691Y-34871403D01*
X57009569Y-39823240D02*
X57027037Y-39831702D01*
X56945057Y-29816620D02*
X56953654Y-29799809D01*
X57656501Y-29408172D02*
X57664055Y-29408172D01*
X57656501Y-30652224D02*
X57668679Y-30652528D01*
X57843007Y-30331688D02*
X57823311Y-30325618D01*
X58353367Y-29783331D02*
X58362168Y-29799809D01*
X57680536Y-34350088D02*
X57656501Y-34349616D01*
X58424506Y-36349461D02*
X58415552Y-36367211D01*
X58462469Y-36256921D02*
X58455919Y-36275924D01*
X57337925Y-39077410D02*
X57349156Y-39080557D01*
X57489139Y-35098189D02*
X57481301Y-35090081D01*
X58020408Y-36734429D02*
X58001659Y-36742314D01*
X57365908Y-31394154D02*
X57398698Y-31411093D01*
X57858928Y-34812135D02*
X57864629Y-34821909D01*
X58449496Y-30164561D02*
X58449712Y-30186139D01*
X56345095Y-36437523D02*
X56355661Y-36470823D01*
X57562792Y-34356891D02*
X57517611Y-34365778D01*
X57620462Y-34702428D02*
X57632306Y-34700943D01*
X57242742Y-39534199D02*
X57231087Y-39532146D01*
X57282476Y-37354309D02*
X57315074Y-37362905D01*
X56850745Y-35772123D02*
X56857311Y-35753074D01*
X57924821Y-34412941D02*
X57904469Y-34403190D01*
X57501118Y-39223233D02*
X57504840Y-39234078D01*
X57798109Y-30698606D02*
X57807052Y-30705537D01*
X57450052Y-31432722D02*
X57467708Y-31438884D01*
X57565133Y-38792715D02*
X57547993Y-38783709D01*
X57070652Y-39192231D02*
X57076353Y-39182457D01*
X58399469Y-35619046D02*
X58408970Y-35636227D01*
X58159370Y-36657574D02*
X58143059Y-36668516D01*
X58334626Y-29751368D02*
X58344186Y-29767183D01*
X58129778Y-33369340D02*
X58140775Y-33373011D01*
X58137071Y-35350797D02*
X58157858Y-35364069D01*
X58064935Y-31307955D02*
X58090664Y-31282188D01*
X56467299Y-35300670D02*
X56451136Y-35330005D01*
X57632306Y-35165362D02*
X57620462Y-35163877D01*
X57692540Y-30654915D02*
X57704195Y-30656968D01*
X57220941Y-28878118D02*
X57190213Y-28888646D01*
X57939507Y-37378174D02*
X57972662Y-37371347D01*
X58303677Y-29705912D02*
X58314371Y-29720732D01*
X57503768Y-31449579D02*
X57522152Y-31454091D01*
X58190912Y-29587511D02*
X58204789Y-29599316D01*
X57543690Y-35138389D02*
X57533778Y-35132767D01*
X58144904Y-30556072D02*
X58133198Y-30539841D01*
X56933976Y-36442029D02*
X56923686Y-36425706D01*
X56353691Y-29931495D02*
X56348597Y-29966837D01*
X56872018Y-35715619D02*
X56880160Y-35697214D01*
X57347014Y-28843804D02*
X57315024Y-28851212D01*
X58957611Y-35555834D02*
X58946272Y-35522886D01*
X57030422Y-36560902D02*
X57016997Y-36547168D01*
X57059605Y-29649948D02*
X57072190Y-29636786D01*
X57610791Y-33972901D02*
X57627466Y-33991190D01*
X57927216Y-35452225D02*
X57953840Y-35437831D01*
X56379313Y-36536334D02*
X56392397Y-36568547D01*
X58400413Y-29887128D02*
X58406815Y-29905441D01*
X57614162Y-28812609D02*
X57579684Y-28813779D01*
X58257760Y-37274153D02*
X58287560Y-37259711D01*
X57727855Y-34353817D02*
X57704326Y-34351495D01*
X58507757Y-37120849D02*
X58533012Y-37100602D01*
X58469369Y-35784032D02*
X58474698Y-35803497D01*
X58281740Y-33672499D02*
X58277500Y-33683098D01*
X57732391Y-33105875D02*
X57716628Y-33116573D01*
X57565564Y-33914034D02*
X57579815Y-33934298D01*
X57060682Y-39212634D02*
X57065424Y-39202295D01*
X56392397Y-36568547D02*
X56406208Y-36600260D01*
X57190213Y-28888646D02*
X57159801Y-28899954D01*
X57492137Y-39404654D02*
X57486909Y-39414718D01*
X57978031Y-33373011D02*
X57989028Y-33369340D01*
X57446142Y-39468510D02*
X57437921Y-39476240D01*
X57442675Y-35477408D02*
X57471455Y-35487568D01*
X58876538Y-29630910D02*
X58863580Y-29599523D01*
X57432658Y-31426029D02*
X57450052Y-31432722D01*
X57678045Y-36807694D02*
X57656500Y-36807921D01*
X57118343Y-35395490D02*
X57137891Y-35380831D01*
X58296392Y-35479455D02*
X58309399Y-35493624D01*
X57533778Y-35132767D02*
X57524173Y-35126695D01*
X57497361Y-34760388D02*
X57505950Y-34753050D01*
X56882626Y-38870020D02*
X56854872Y-38896349D01*
X58207766Y-28924845D02*
X58177755Y-28912042D01*
X57728665Y-38924394D02*
X57715905Y-38910162D01*
X58582013Y-37058204D02*
X58605759Y-37036056D01*
X56326488Y-35650141D02*
X56318447Y-35684370D01*
X58120952Y-30524027D02*
X58108178Y-30508643D01*
X57482270Y-37393625D02*
X57516552Y-37397314D01*
X57864629Y-30774396D02*
X57869857Y-30784460D01*
X56918194Y-37192207D02*
X56946151Y-37209353D01*
X57326474Y-39074803D02*
X57337925Y-39077410D01*
X58994644Y-36342473D02*
X59001814Y-36307849D01*
X58059403Y-33358843D02*
X58071580Y-33359147D01*
X57111419Y-39468510D02*
X57103580Y-39460403D01*
X57890477Y-34897614D02*
X57891983Y-34909293D01*
X57380328Y-38728501D02*
X57360422Y-38725449D01*
X57522152Y-31454091D02*
X57540758Y-31458034D01*
X56974576Y-37225872D02*
X57003466Y-37241765D01*
X57881483Y-30345772D02*
X57862402Y-30338411D01*
X58094153Y-35325985D02*
X58115836Y-35338102D01*
X57540758Y-31458034D02*
X57559577Y-31461397D01*
X57427251Y-34874831D02*
X57430441Y-34863756D01*
X57290958Y-39536586D02*
X57278781Y-39536890D01*
X56816604Y-39667917D02*
X56828897Y-39682555D01*
X58166644Y-30589734D02*
X58156057Y-30572707D01*
X56687775Y-37009553D02*
X56711479Y-37032375D01*
X58442976Y-35708211D02*
X58450336Y-35726860D01*
X58206494Y-34717435D02*
X58197679Y-34696788D01*
X58640488Y-29241615D02*
X58619175Y-29217964D01*
X56927388Y-39773001D02*
X56943097Y-39784068D01*
X57885751Y-34991475D02*
X57882560Y-35002550D01*
X56828897Y-38924394D02*
X56804791Y-38954064D01*
X57349156Y-39526392D02*
X57337925Y-39529539D01*
X57398698Y-31411093D02*
X57415536Y-31418816D01*
X57437921Y-39130709D02*
X57446142Y-39138439D01*
X58978522Y-31570736D02*
X56309298Y-32688147D01*
X58265241Y-36570429D02*
X58251032Y-36583943D01*
X56841657Y-39696787D02*
X56854872Y-39710600D01*
X57788829Y-30692097D02*
X57798109Y-30698606D01*
X57118907Y-38741494D02*
X57081300Y-38753238D01*
X56576724Y-35135865D02*
X56557003Y-35161992D01*
X57514893Y-34746120D02*
X57524173Y-34739611D01*
X58071580Y-33825369D02*
X58059403Y-33825673D01*
X57692540Y-35163877D02*
X57680697Y-35165362D01*
X58268179Y-34138524D02*
X58287492Y-34130976D01*
X58129242Y-34582177D02*
X58115413Y-34564788D01*
X56772343Y-39605533D02*
X56782649Y-39621681D01*
X56962615Y-29783331D02*
X56971940Y-29767183D01*
X57450598Y-30338411D02*
X57412764Y-30353760D01*
X57585961Y-37402234D02*
X57621090Y-37403464D01*
X58441232Y-36313168D02*
X58433094Y-36331407D01*
X57893950Y-28831326D02*
X57860935Y-28826257D01*
X59013640Y-36237460D02*
X59018292Y-36201699D01*
X57047380Y-29663441D02*
X57059605Y-29649948D01*
X56557003Y-35161992D02*
X56537876Y-35188657D01*
X57391592Y-39508710D02*
X57381386Y-39513866D01*
X59027187Y-36092167D02*
X59028460Y-36054913D01*
X56367067Y-36503760D02*
X56379313Y-36536334D01*
X57648946Y-36807921D02*
X57627493Y-36807694D01*
X57533778Y-30686025D02*
X57543690Y-30680403D01*
X57056443Y-39383716D02*
X57052721Y-39372871D01*
X57551115Y-37400184D02*
X57585961Y-37402234D01*
X57927075Y-33398717D02*
X57936679Y-33392644D01*
X57796687Y-34366095D02*
X57774053Y-34361135D01*
X56309298Y-32688147D02*
X56309298Y-33217552D01*
X57678126Y-30302484D02*
X57656500Y-30302102D01*
X57027037Y-39831702D02*
X57044823Y-39839609D01*
X57044804Y-39267936D02*
X57046886Y-39256444D01*
X57964177Y-34434633D02*
X57944730Y-34423428D01*
X58272759Y-33693437D02*
X58267531Y-33703501D01*
X57269454Y-36726289D02*
X57251541Y-36717737D01*
X57807052Y-35113255D02*
X57798109Y-35120186D01*
X57564066Y-36804290D02*
X57543237Y-36802247D01*
X58821076Y-29508654D02*
X58805702Y-29479463D01*
X58412766Y-29923982D02*
X58418267Y-29942753D01*
X58389576Y-35602198D02*
X58399469Y-35619046D01*
X56825463Y-36165967D02*
X56822141Y-36145479D01*
X57852770Y-34802664D02*
X57858928Y-34812135D01*
X57335080Y-35423207D02*
X57360761Y-35438704D01*
X58493731Y-35903875D02*
X58496015Y-35924561D01*
X57644324Y-35166264D02*
X57632306Y-35165362D01*
X58255672Y-33461770D02*
X58261830Y-33471241D01*
X57438403Y-35023993D02*
X57434164Y-35013394D01*
X57186660Y-39518541D02*
X57176176Y-39513866D01*
X57967282Y-33807325D02*
X57956798Y-33802650D01*
X58085796Y-28878118D02*
X58054559Y-28868369D01*
X57664055Y-29408172D02*
X57686016Y-29408399D01*
X58165520Y-37313522D02*
X58196640Y-37301073D01*
X56878146Y-36339105D02*
X56870275Y-36320869D01*
X57497361Y-35105918D02*
X57489139Y-35098189D01*
X57892897Y-30873630D02*
X57893205Y-30885638D01*
X58651132Y-33603681D02*
X58651164Y-33592257D01*
X58406229Y-36384659D02*
X58396537Y-36401804D01*
X57564381Y-30670572D02*
X57575129Y-30666392D01*
X57176176Y-39093083D02*
X57186660Y-39088408D01*
X58556482Y-34954062D02*
X58532725Y-34934092D01*
X56857311Y-35753074D02*
X56864402Y-35734239D01*
X57056443Y-39223233D02*
X57060682Y-39212634D01*
X57266603Y-39536586D02*
X57254585Y-39535684D01*
X57484587Y-33732079D02*
X57491262Y-33756520D01*
X58930430Y-29794026D02*
X58921262Y-29760630D01*
X57504840Y-39234078D02*
X57508031Y-39245153D01*
X57892041Y-33427223D02*
X57900263Y-33419493D01*
X57695797Y-31467912D02*
X57734405Y-31464171D01*
X58953120Y-29896543D02*
X58946358Y-29861981D01*
X58021222Y-30426111D02*
X58005133Y-30414105D01*
X58059403Y-33825673D02*
X58047225Y-33825369D01*
X57070652Y-39414718D02*
X57065424Y-39404654D01*
X56285816Y-36084399D02*
X56287938Y-36121369D01*
X56664624Y-36986177D02*
X56687775Y-37009553D01*
X57533778Y-31085253D02*
X57524173Y-31079180D01*
X57617471Y-33204392D02*
X57013118Y-32960300D01*
X58118546Y-33818322D02*
X58107096Y-33820929D01*
X57597357Y-31111703D02*
X57586126Y-31108556D01*
X57815641Y-34760388D02*
X57823862Y-34768117D01*
X58846198Y-36726186D02*
X58862365Y-36696840D01*
X57845294Y-31438884D02*
X57880345Y-31426029D01*
X56897713Y-35661132D02*
X56907048Y-35643547D01*
X58285462Y-33661655D02*
X58281740Y-33672499D01*
X58483393Y-36178384D02*
X58478952Y-36198396D01*
X57044238Y-36574318D02*
X57030422Y-36560902D01*
X56782649Y-39621681D02*
X56793469Y-39637469D01*
X56928958Y-29851237D02*
X56936825Y-29833762D01*
X57146453Y-39109933D02*
X57156057Y-39103860D01*
X57779225Y-34733539D02*
X57788829Y-34739611D01*
X58242043Y-33443800D02*
X58249071Y-33452618D01*
X56863518Y-30164561D02*
X56864208Y-30143222D01*
X58186064Y-30624910D02*
X58176650Y-30607139D01*
X57759106Y-35143544D02*
X57748622Y-35148220D01*
X58288653Y-33533937D02*
X58291296Y-33545228D01*
X57128230Y-39123372D02*
X57137172Y-39116442D01*
X57420389Y-39490507D02*
X57411108Y-39497016D01*
X57947139Y-29452160D02*
X57965377Y-29458627D01*
X57980098Y-34170597D02*
X58006213Y-34173468D01*
X57872339Y-37389418D02*
X57906066Y-37384198D01*
X58242043Y-33740717D02*
X58234602Y-33749187D01*
X58977795Y-36410569D02*
X58986637Y-36376713D01*
X56825795Y-35870570D02*
X56829734Y-35850455D01*
X58035207Y-33360049D02*
X58047225Y-33359147D01*
X57454073Y-35054171D02*
X57448373Y-35044396D01*
X57608808Y-30656968D02*
X57620462Y-30654915D01*
X57876762Y-33443800D02*
X57884203Y-33435330D01*
X56896115Y-29942753D02*
X56901782Y-29923982D01*
X58528444Y-29129198D02*
X58504495Y-29108601D01*
X57851274Y-33481015D02*
X57856975Y-33471241D01*
X58293379Y-33556720D02*
X58294884Y-33568399D01*
X57702689Y-38896349D02*
X57689029Y-38882964D01*
X57438403Y-34842312D02*
X57443144Y-34831974D01*
X58157610Y-31196031D02*
X58978522Y-31196031D01*
X57466832Y-35072793D02*
X57460231Y-35063641D01*
X58453911Y-33157233D02*
X58427284Y-33135090D01*
X57715645Y-31111703D02*
X57704195Y-31114310D01*
X57473860Y-31034097D02*
X57466832Y-31025279D01*
X56785451Y-37097044D02*
X56811056Y-37117337D01*
X58167005Y-34166190D02*
X58187808Y-34162046D01*
X57816409Y-33060024D02*
X57798953Y-33068139D01*
X56334873Y-30149432D02*
X56334481Y-30187133D01*
X57634980Y-29408399D02*
X57656501Y-29408172D01*
X57575129Y-31104886D02*
X57564381Y-31100705D01*
X57231087Y-39074803D02*
X57242742Y-39072750D01*
X56519342Y-35215858D02*
X56501402Y-35243596D01*
X57438403Y-30976479D02*
X57434164Y-30965880D01*
X57126937Y-30624910D02*
X56863288Y-30624910D01*
X57473860Y-35081611D02*
X57466832Y-35072793D01*
X58196640Y-37301073D02*
X58227454Y-37287941D01*
X57286422Y-35388582D02*
X57310285Y-35406485D01*
X57177233Y-39878448D02*
X57197140Y-39881500D01*
X58209953Y-33412156D02*
X58218542Y-33419493D01*
X57586126Y-34710235D02*
X57597357Y-34707089D01*
X56294725Y-35825037D02*
X56290908Y-35861144D01*
X57218116Y-37334667D02*
X57250156Y-37344896D01*
X57478103Y-28821967D02*
X57444863Y-28826257D01*
X58968119Y-36444037D02*
X58977795Y-36410569D01*
X58427284Y-33135090D02*
X58399350Y-33114502D01*
X58633242Y-33449167D02*
X58623445Y-33415231D01*
X58344186Y-29767183D02*
X58353367Y-29783331D01*
X58028423Y-35387107D02*
X58051375Y-35367830D01*
X58011709Y-33363587D02*
X58023364Y-33361534D01*
X57715645Y-34707089D02*
X57726876Y-34710235D01*
X57421019Y-34909293D02*
X57422524Y-34897614D01*
X57085136Y-29623956D02*
X57098430Y-29611464D01*
X57360153Y-39084227D02*
X57370901Y-39088408D01*
X56895178Y-36374748D02*
X56886464Y-36357095D01*
X58574834Y-29172333D02*
X58551890Y-29150442D01*
X58081105Y-30479219D02*
X58066831Y-30465205D01*
X57774912Y-39621681D02*
X57794999Y-39589035D01*
X57512738Y-38767340D02*
X57494647Y-38760000D01*
X57533778Y-34733539D02*
X57543690Y-34727917D01*
X58201011Y-33405225D02*
X58209953Y-33412156D01*
X58151523Y-33807325D02*
X58140775Y-33811505D01*
X58648384Y-35040745D02*
X58625228Y-35017332D01*
X58134105Y-37325167D02*
X58165520Y-37313522D01*
X56406196Y-35421181D02*
X56392397Y-35452626D01*
X57446142Y-39138439D02*
X57453981Y-39146546D01*
X56982855Y-35529025D02*
X56995184Y-35513899D01*
X56334480Y-31196031D02*
X57155392Y-31196031D01*
X56762563Y-39589035D02*
X56772343Y-39605533D01*
X56815233Y-36082511D02*
X56813952Y-36061021D01*
X58023364Y-33361534D02*
X58035207Y-33360049D01*
X57123664Y-37299086D02*
X57154870Y-37311762D01*
X57514262Y-39327334D02*
X57512757Y-39339013D01*
X56434702Y-29630910D02*
X56422580Y-29662763D01*
X59018292Y-36201699D02*
X59022101Y-36165561D01*
X57052721Y-39234078D02*
X57056443Y-39223233D01*
X57448269Y-37389117D02*
X57482270Y-37393625D01*
X57823862Y-34768117D02*
X57831701Y-34776224D01*
X56801512Y-34908943D02*
X56777124Y-34928618D01*
X58439072Y-30040068D02*
X58441904Y-30060229D01*
X57838329Y-37393835D02*
X57872339Y-37389418D01*
X57627493Y-36807694D02*
X57606195Y-36807013D01*
X57692540Y-31116363D02*
X57680697Y-31117848D01*
X58191730Y-33785800D02*
X58182126Y-33791872D01*
X58129778Y-33815176D02*
X58118546Y-33818322D01*
X58221651Y-36610004D02*
X58206523Y-36622466D01*
X58892920Y-36636516D02*
X58907310Y-36605536D01*
X57276124Y-30438638D02*
X57246169Y-30465205D01*
X58107096Y-33363587D02*
X58118546Y-33366194D01*
X57779225Y-30686025D02*
X57788829Y-30692097D01*
X58455919Y-36275924D02*
X58448841Y-36294673D01*
X56520161Y-36806836D02*
X56538922Y-36834132D01*
X58175384Y-36646251D02*
X58159370Y-36657574D01*
X57034427Y-35470386D02*
X57048261Y-35456507D01*
X56793469Y-39637469D02*
X56804791Y-39652885D01*
X57219637Y-39529539D02*
X57208406Y-39526392D01*
X57726876Y-30662721D02*
X57737873Y-30666392D01*
X58427924Y-29980984D02*
X58432084Y-30000447D01*
X57927075Y-33785800D02*
X57917795Y-33779291D01*
X56812926Y-36017291D02*
X56813188Y-35995699D01*
X56334481Y-30187133D02*
X56334480Y-31196031D01*
X57632306Y-31117848D02*
X57620462Y-31116363D01*
X58449712Y-30186139D02*
X58449712Y-30624910D01*
X56907896Y-29905441D02*
X56914455Y-29887128D01*
X57863133Y-33461770D02*
X57869734Y-33452618D01*
X57860935Y-28826257D02*
X57827620Y-28821967D01*
X57382427Y-36769563D02*
X57363070Y-36763434D01*
X57087811Y-36612689D02*
X57072986Y-36600231D01*
X57885751Y-30827317D02*
X57888395Y-30838608D01*
X56484055Y-35271867D02*
X56467299Y-35300670D01*
X57636772Y-31468858D02*
X57656501Y-31469176D01*
X57737873Y-34713906D02*
X57748622Y-34718086D01*
X56813976Y-35974317D02*
X56815289Y-35953146D01*
X58978522Y-30187132D02*
X58978126Y-30149431D01*
X56762563Y-39017914D02*
X56334480Y-39017914D01*
X58480043Y-29088652D02*
X58455087Y-29069350D01*
X56958543Y-28998628D02*
X56931715Y-29015335D01*
X57547993Y-39823240D02*
X57581932Y-39804696D01*
X56684249Y-35013359D02*
X56661553Y-35036772D01*
X57165970Y-39098239D02*
X57176176Y-39093083D01*
X56991318Y-36518744D02*
X56979065Y-36504050D01*
X56839189Y-35810863D02*
X56844705Y-35791386D01*
X57858928Y-35054171D02*
X57852770Y-35063641D01*
X57363070Y-36763434D02*
X57343881Y-36756852D01*
X57420104Y-34945161D02*
X57419796Y-34933153D01*
X57851274Y-33703501D02*
X57846046Y-33693437D01*
X58269223Y-35452127D02*
X58283001Y-35465622D01*
X57644324Y-30652528D02*
X57656501Y-30652224D01*
X56318447Y-35684370D02*
X56311250Y-35718973D01*
X56854151Y-29069350D02*
X56829272Y-29088652D01*
X58234602Y-33749187D02*
X58226764Y-33757294D01*
X57707706Y-29409079D02*
X57729126Y-29410210D01*
X57129708Y-28912042D02*
X57099968Y-28924845D01*
X57314820Y-39072750D02*
X57326474Y-39074803D01*
X56590161Y-29341785D02*
X56571922Y-29368215D01*
X57858928Y-31006656D02*
X57852770Y-31016127D01*
X56843827Y-36245420D02*
X56838476Y-36225932D01*
X58463532Y-35764771D02*
X58469369Y-35784032D01*
X57991204Y-28851212D02*
X57959083Y-28843804D01*
X57668679Y-34700042D02*
X57680697Y-34700943D01*
X58946358Y-29861981D02*
X58938795Y-29827809D01*
X57149933Y-36658968D02*
X57133980Y-36647931D01*
X56712201Y-29194871D02*
X56690358Y-29217964D01*
X56285816Y-35934489D02*
X56284542Y-35971728D01*
X57656500Y-36807921D02*
X57648946Y-36807921D01*
X58497792Y-35945452D02*
X58499061Y-35966546D01*
X57381111Y-37377647D02*
X57414550Y-37383791D01*
X57606195Y-36807013D02*
X57585052Y-36805879D01*
X58218542Y-33765023D02*
X58209953Y-33772361D01*
X58499061Y-35966546D02*
X58499822Y-35987843D01*
X57505950Y-35113255D02*
X57497361Y-35105918D01*
X57956798Y-33802650D02*
X57946592Y-33797494D01*
X56882626Y-39736929D02*
X56897141Y-39749420D01*
X58448841Y-36294673D02*
X58441232Y-36313168D01*
X58133198Y-30539841D02*
X58120952Y-30524027D01*
X57422524Y-30921177D02*
X57421019Y-30909498D01*
X58934104Y-36542106D02*
X58946272Y-36509808D01*
X57762646Y-36802247D02*
X57741731Y-36804290D01*
X58291296Y-33639289D02*
X58288653Y-33650580D01*
X57062640Y-37271674D02*
X57092921Y-37285692D01*
X58227454Y-37287941D02*
X58257760Y-37274153D01*
X58444296Y-30080624D02*
X58446250Y-30101254D01*
X56849683Y-36264658D02*
X56843827Y-36245420D01*
X57550960Y-29413824D02*
X57571655Y-29411792D01*
X57936707Y-30371562D02*
X57918648Y-30362361D01*
X56309298Y-33217552D02*
X57478973Y-33707227D01*
X56598951Y-36912675D02*
X56620214Y-36937738D01*
X58018553Y-29480477D02*
X58035708Y-29488473D01*
X57630352Y-33190538D02*
X57617471Y-33204393D01*
X57387283Y-35452932D02*
X57414603Y-35465848D01*
X57988624Y-30402635D02*
X57971708Y-30391712D01*
X58281740Y-33512017D02*
X58285462Y-33522862D01*
X57466832Y-34793513D02*
X57473860Y-34784694D01*
X57473736Y-34377978D02*
X57431308Y-34393352D01*
X57831701Y-34776224D02*
X57839142Y-34784694D01*
X57809234Y-31449579D02*
X57845294Y-31438884D01*
X58350221Y-28998628D02*
X58322743Y-28982571D01*
X58457188Y-35745714D02*
X58463532Y-35764771D01*
X57360153Y-39522722D02*
X57349156Y-39526392D01*
X56348597Y-29966837D02*
X56344285Y-30002570D01*
X58499036Y-36053086D02*
X58497735Y-36074588D01*
X58019563Y-34472371D02*
X58001611Y-34459122D01*
X57815641Y-35105918D02*
X57807052Y-35113255D01*
X56880160Y-35697214D02*
X56888750Y-35679021D01*
X57302976Y-39071265D02*
X57314820Y-39072750D01*
X57971708Y-30391712D02*
X57954398Y-30381350D01*
X57630174Y-38833947D02*
X57614464Y-38822881D01*
X56420633Y-36631424D02*
X56435675Y-36662038D01*
X57892897Y-34921145D02*
X57893205Y-34933153D01*
X57888395Y-30932669D02*
X57885751Y-30943960D01*
X57448373Y-35044396D02*
X57443144Y-35034332D01*
X57165970Y-39508710D02*
X57156057Y-39503089D01*
X57608808Y-35161824D02*
X57597357Y-35159217D01*
X57632306Y-34700943D02*
X57644324Y-34700042D01*
X57539663Y-33871703D02*
X57552172Y-33893160D01*
X58365235Y-36451425D02*
X58354056Y-36467359D01*
X57892897Y-30897647D02*
X57891983Y-30909498D01*
X56864402Y-35734239D02*
X56872018Y-35715619D01*
X56804791Y-39652885D02*
X56816604Y-39667917D01*
X56760318Y-37076120D02*
X56785451Y-37097044D01*
X57870543Y-33039017D02*
X57852216Y-33045452D01*
X58968119Y-35589148D02*
X58957611Y-35555834D01*
X58070399Y-37346049D02*
X58102398Y-37336009D01*
X58005530Y-37363718D02*
X58038109Y-37355285D01*
X57947094Y-31394154D02*
X57978632Y-31375292D01*
X57430441Y-35002550D02*
X57427251Y-34991475D01*
X58429627Y-29050696D02*
X58403663Y-29032691D01*
X58646592Y-33519379D02*
X58640980Y-33483906D01*
X59013640Y-35796685D02*
X59008147Y-35761186D01*
X57370901Y-39518541D02*
X57360153Y-39522722D01*
X57510190Y-29419231D02*
X57530472Y-29416304D01*
X58069130Y-29505507D02*
X58085396Y-29514546D01*
X58023364Y-33822983D02*
X58011709Y-33820929D01*
X57448373Y-30774396D02*
X57454073Y-30764621D01*
X58255672Y-33722747D02*
X58249071Y-33731898D01*
X58177756Y-34656747D02*
X58166684Y-34637388D01*
X57530524Y-38775247D02*
X57512738Y-38767340D01*
X56617948Y-35085233D02*
X56597039Y-35110278D01*
X57133980Y-36647931D02*
X57118308Y-36636538D01*
X57613443Y-30303624D02*
X57571218Y-30308120D01*
X57656501Y-37403875D02*
X57664055Y-37403875D01*
X57381386Y-39093083D02*
X57391592Y-39098239D01*
X57245851Y-34512984D02*
X57215090Y-34544489D01*
X57575129Y-35152400D02*
X57564381Y-35148220D01*
X58611658Y-33382167D02*
X58597950Y-33350042D01*
X56828897Y-39682555D02*
X56841657Y-39696787D01*
X59027187Y-35942308D02*
X59025067Y-35905359D01*
X57804036Y-37397450D02*
X57838329Y-37393835D01*
X58481998Y-37140457D02*
X58507757Y-37120849D01*
X58447767Y-30122120D02*
X58448849Y-30143222D01*
X56502023Y-36778983D02*
X56520161Y-36806836D01*
X57401504Y-39103860D02*
X57411108Y-39109933D01*
X57571655Y-29411792D02*
X57592557Y-29410210D01*
X57517611Y-34365778D02*
X57473736Y-34377978D01*
X57419796Y-34933153D02*
X57420104Y-34921145D01*
X57648947Y-28812219D02*
X57614162Y-28812609D01*
X56975629Y-39804696D02*
X56992429Y-39814234D01*
X58789727Y-29450823D02*
X58773153Y-29422734D01*
X58162259Y-29564937D02*
X58176735Y-29576052D01*
X57220864Y-35328220D02*
X57241667Y-35349406D01*
X57846046Y-33693437D02*
X57841305Y-33683098D01*
X58115836Y-35338102D02*
X58137071Y-35350797D01*
X58140775Y-33373011D02*
X58151523Y-33377191D01*
X57475050Y-39172986D02*
X57481208Y-39182457D01*
X57178410Y-35353303D02*
X57199392Y-35340452D01*
X56669117Y-29241615D02*
X56648477Y-29265824D01*
X58208341Y-34157194D02*
X58228590Y-34151647D01*
X56326488Y-36369831D02*
X56335371Y-36403860D01*
X58322018Y-35508129D02*
X58334250Y-35522970D01*
X56373667Y-29827810D02*
X56366227Y-29861983D01*
X57748622Y-31100705D02*
X57737873Y-31104886D01*
X58449713Y-39017914D02*
X57794999Y-39017914D01*
X57466832Y-30745999D02*
X57473860Y-30737181D01*
X57003962Y-36533116D02*
X56991318Y-36518744D01*
X57062915Y-39846949D02*
X57081300Y-39853711D01*
X57524173Y-30692097D02*
X57533778Y-30686025D01*
X57137172Y-39116442D02*
X57146453Y-39109933D01*
X58502968Y-33205912D02*
X58479161Y-33180864D01*
X58455736Y-37159426D02*
X58481998Y-37140457D01*
X57099968Y-39859884D02*
X57118907Y-39865455D01*
X58921262Y-29760630D02*
X58911290Y-29727621D01*
X57715905Y-38910162D02*
X57702689Y-38896349D01*
X58271828Y-34765409D02*
X58243389Y-34751657D01*
X58625228Y-35017332D02*
X58602732Y-34995682D01*
X57545514Y-28815729D02*
X57511654Y-28818458D01*
X57176176Y-39513866D02*
X57165970Y-39508710D01*
X57421645Y-36780457D02*
X57401953Y-36775237D01*
X57049530Y-39245153D02*
X57052721Y-39234078D01*
X57979611Y-35422151D02*
X58004487Y-35405228D01*
X58182126Y-33392644D02*
X58191730Y-33398717D01*
X58921109Y-35458088D02*
X58907292Y-35426381D01*
X58449713Y-37726682D02*
X58449713Y-39017914D01*
X56837135Y-37136999D02*
X56863685Y-37156030D01*
X58342501Y-36482992D02*
X58330571Y-36498321D01*
X58327419Y-34794617D02*
X58299838Y-34779729D01*
X58850017Y-29568685D02*
X58835848Y-29538395D01*
X57553896Y-35143544D02*
X57543690Y-35138389D01*
X56879518Y-29050697D02*
X56854151Y-29069350D01*
X57485617Y-31444506D02*
X57503768Y-31449579D01*
X58695421Y-36941446D02*
X58716360Y-36916427D01*
X56991682Y-29735884D02*
X57002097Y-29720732D01*
X57656501Y-34699738D02*
X57668679Y-34700042D01*
X58495913Y-36095843D02*
X58493568Y-36116851D01*
X57657448Y-33164093D02*
X57643682Y-33177101D01*
X57869734Y-33452618D02*
X57876762Y-33443800D01*
X57856975Y-33713276D02*
X57851274Y-33703501D01*
X57844756Y-36789536D02*
X57824460Y-36793395D01*
X58719852Y-29341784D02*
X58700897Y-29315908D01*
X58295799Y-33580250D02*
X58296107Y-33592258D01*
X58473984Y-36218156D02*
X58468490Y-36237665D01*
X57198262Y-31254892D02*
X57222338Y-31282188D01*
X57884892Y-36780457D02*
X57864900Y-36785224D01*
X58228590Y-34151647D02*
X58248540Y-34145419D01*
X57815641Y-31058404D02*
X57807052Y-31065741D01*
X57668679Y-35166264D02*
X57656501Y-35166568D01*
X57481301Y-30728711D02*
X57489139Y-30720603D01*
X58299838Y-34779729D02*
X58271828Y-34765409D01*
X57412764Y-30353760D02*
X57376293Y-30371562D01*
X57571218Y-30308120D02*
X57529931Y-30315486D01*
X57415536Y-31418816D02*
X57432658Y-31426029D01*
X57157551Y-39874749D02*
X57177233Y-39878448D01*
X57497361Y-31058404D02*
X57489139Y-31050674D01*
X58862094Y-35334607D02*
X58845779Y-35305127D01*
X57336950Y-29465532D02*
X57355372Y-29458627D01*
X57476261Y-39853711D02*
X57512738Y-39839609D01*
X57024015Y-29691423D02*
X57035517Y-29677266D01*
X58001659Y-36742314D02*
X57982598Y-36749816D01*
X57575129Y-34713906D02*
X57586126Y-34710235D01*
X57530960Y-35503514D02*
X57561596Y-35509213D01*
X57581932Y-38802253D02*
X57565133Y-38792715D01*
X57888395Y-30838608D02*
X57890477Y-30850100D01*
X58038847Y-36726160D02*
X58020408Y-36734429D01*
X57186660Y-39088408D02*
X57197409Y-39084227D01*
X57219637Y-39077410D02*
X57231087Y-39074803D01*
X57461421Y-39155016D02*
X57468449Y-39163834D01*
X56886121Y-29980984D02*
X56890894Y-29961753D01*
X57837065Y-33672499D02*
X57833343Y-33661655D01*
X58204789Y-29599316D02*
X58218366Y-29611464D01*
X57498973Y-33780526D02*
X57507693Y-33804073D01*
X57769312Y-34727917D02*
X57779225Y-34733539D01*
X57524173Y-35126695D02*
X57514893Y-35120186D01*
X59008147Y-35761186D02*
X59001814Y-35726050D01*
X58047225Y-33359147D02*
X58059403Y-33358843D01*
X57823862Y-30720603D02*
X57831701Y-30728711D01*
X59028460Y-36054913D02*
X59028884Y-36017291D01*
X57699557Y-30303624D02*
X57678126Y-30302484D01*
X56475064Y-29538396D02*
X56461014Y-29568686D01*
X57879420Y-34148305D02*
X57903971Y-34155450D01*
X57586126Y-31108556D02*
X57575129Y-31104886D01*
X57360422Y-38725449D02*
X57340302Y-38723055D01*
X56844705Y-35791386D02*
X56850745Y-35772123D01*
X58479161Y-33180864D02*
X58453911Y-33157233D01*
X57978632Y-31375292D02*
X58008838Y-31354586D01*
X57146453Y-39497016D02*
X57137172Y-39490507D01*
X56639453Y-35060730D02*
X56617948Y-35085233D01*
X56813952Y-36061021D02*
X56813182Y-36039281D01*
X57481208Y-39424492D02*
X57475050Y-39433963D01*
X58959083Y-29931494D02*
X58953120Y-29896543D01*
X57347953Y-37370685D02*
X57381111Y-37377647D01*
X57561596Y-35509213D02*
X57592761Y-35513338D01*
X56311250Y-35718973D02*
X56304897Y-35753952D01*
X57420389Y-39116442D02*
X57429331Y-39123372D01*
X57431129Y-29435394D02*
X57450584Y-29430688D01*
X56729752Y-34969779D02*
X56706767Y-34991266D01*
X57742537Y-34085178D02*
X57763984Y-34097987D01*
X57510674Y-39350505D02*
X57508031Y-39361796D01*
X58368616Y-35569504D02*
X58379292Y-35585684D01*
X56890705Y-37174433D02*
X56918194Y-37192207D01*
X57759106Y-34722761D02*
X57769312Y-34727917D01*
X57065424Y-39202295D02*
X57070652Y-39192231D01*
X58318263Y-36513348D02*
X58305578Y-36528072D01*
X57070713Y-28938300D02*
X57041942Y-28952407D01*
X57608808Y-31114310D02*
X57597357Y-31111703D01*
X57157911Y-35366766D02*
X57178410Y-35353303D01*
X57846170Y-31025279D02*
X57839142Y-31034097D01*
X57585052Y-36805879D02*
X57564066Y-36804290D01*
X57900263Y-33419493D02*
X57908852Y-33412156D01*
X57804010Y-36796800D02*
X57783405Y-36799750D01*
X57138024Y-34651661D02*
X57117881Y-34691141D01*
X58978522Y-32170662D02*
X58978522Y-31570736D01*
X57414550Y-37383791D02*
X57448269Y-37389117D01*
X57884203Y-33749187D02*
X57876762Y-33740717D01*
X58281163Y-29677266D02*
X58292608Y-29691423D01*
X57046886Y-39350505D02*
X57044804Y-39339013D01*
X56863288Y-30624910D02*
X56863288Y-30186139D01*
X59025067Y-36129050D02*
X59027187Y-36092167D01*
X57504840Y-39372871D02*
X57501118Y-39383716D01*
X57904469Y-34403190D02*
X57883691Y-34394192D01*
X57798109Y-35120186D02*
X57788829Y-35126695D01*
X56903746Y-34836274D02*
X56877484Y-34853537D01*
X58406815Y-29905441D02*
X58412766Y-29923982D01*
X57858928Y-30764621D02*
X57864629Y-30774396D01*
X57553896Y-34722761D02*
X57564381Y-34718086D01*
X57278781Y-39887012D02*
X57319981Y-39885619D01*
X56390891Y-29760631D02*
X56381889Y-29794027D01*
X58137082Y-31226147D02*
X58157610Y-31196031D01*
X56411237Y-29694999D02*
X56400674Y-29727622D01*
X57831701Y-35090081D02*
X57823862Y-35098189D01*
X57620462Y-30654915D02*
X57632306Y-30653430D01*
X56435675Y-36662038D02*
X56451333Y-36692103D01*
X57434164Y-30805397D02*
X57438403Y-30794799D01*
X56866959Y-30101254D02*
X56869020Y-30080624D01*
X57522568Y-36799750D02*
X57502059Y-36796800D01*
X57852770Y-30755150D02*
X57858928Y-30764621D01*
X56985351Y-34788095D02*
X56957679Y-34803553D01*
X57421019Y-34957012D02*
X57420104Y-34945161D01*
X58670919Y-35064706D02*
X58648384Y-35040745D01*
X57072190Y-29636786D02*
X57085136Y-29623956D01*
X57481208Y-39182457D02*
X57486909Y-39192231D01*
X57833343Y-33522862D02*
X57837065Y-33512017D01*
X57617471Y-33204393D02*
X57617471Y-33204392D01*
X58305578Y-36528072D02*
X58292513Y-36542494D01*
X57827508Y-33639289D02*
X57825426Y-33627796D01*
X58056978Y-36717508D02*
X58038847Y-36726160D01*
X56817025Y-36103750D02*
X56815233Y-36082511D01*
X57891983Y-34957012D02*
X57890477Y-34968691D01*
X57856975Y-33471241D02*
X57863133Y-33461770D01*
X57748622Y-35148220D02*
X57737873Y-35152400D01*
X57752770Y-39652885D02*
X57774912Y-39621681D01*
X57874599Y-34842312D02*
X57878838Y-34852911D01*
X57283522Y-29488473D02*
X57301021Y-29480477D01*
X57266336Y-29496816D02*
X57283522Y-29488473D01*
X58508547Y-34914685D02*
X58483945Y-34895839D01*
X57419456Y-38736535D02*
X57400010Y-38732200D01*
X56907048Y-35643547D02*
X56916756Y-35626266D01*
X57882560Y-30955035D02*
X57878838Y-30965880D01*
X58483945Y-34895839D02*
X58458920Y-34877557D01*
X57644324Y-31118749D02*
X57632306Y-31117848D01*
X57893205Y-34933153D02*
X57892897Y-34945161D01*
X56757562Y-29150443D02*
X56734637Y-29172334D01*
X58054559Y-28868369D02*
X58023029Y-28859401D01*
X58692835Y-35089216D02*
X58670919Y-35064706D01*
X57674935Y-39736929D02*
X57702689Y-39710600D01*
X57936679Y-33392644D02*
X57946592Y-33387023D01*
X57989028Y-33369340D02*
X58000259Y-33366194D01*
X56955736Y-36473691D02*
X56944659Y-36458024D01*
X58100941Y-34547937D02*
X58085844Y-34531641D01*
X56943097Y-38822881D02*
X56912065Y-38845500D01*
X56897141Y-39749420D02*
X56912065Y-39761448D01*
X58361220Y-34094527D02*
X58378702Y-34083919D01*
X57963355Y-36756852D02*
X57943964Y-36763434D01*
X57155392Y-31196031D02*
X57175920Y-31226147D01*
X57564381Y-34718086D02*
X57575129Y-34713906D01*
X56829272Y-29088652D02*
X56804880Y-29108602D01*
X58000259Y-33366194D02*
X58011709Y-33363587D01*
X57044823Y-38767340D02*
X57009569Y-38783709D01*
X57376293Y-30371562D02*
X57341292Y-30391712D01*
X57917795Y-33405225D02*
X57927075Y-33398717D01*
X57460231Y-35063641D02*
X57454073Y-35054171D01*
X57349156Y-39080557D02*
X57360153Y-39084227D01*
X56422580Y-29662763D02*
X56411237Y-29694999D01*
X58493568Y-36116851D02*
X58490701Y-36137611D01*
X57020969Y-35484579D02*
X57034427Y-35470386D01*
X57489139Y-34768117D02*
X57497361Y-34760388D01*
X58500076Y-36009345D02*
X58499816Y-36031338D01*
X56447560Y-29599524D02*
X56434702Y-29630910D01*
X57720679Y-35513303D02*
X57752038Y-35509134D01*
X57726876Y-34710235D02*
X57737873Y-34713906D01*
X57680697Y-35165362D02*
X57668679Y-35166264D01*
X57904733Y-36775237D02*
X57884892Y-36780457D01*
X57704326Y-34351495D02*
X57680536Y-34350088D01*
X57839142Y-31034097D02*
X57831701Y-31042567D01*
X56392397Y-35452626D02*
X56379313Y-35484612D01*
X57046886Y-39256444D02*
X57049530Y-39245153D01*
X58399350Y-33114502D02*
X58399350Y-32408794D01*
X57154932Y-29564937D02*
X57169880Y-29554167D01*
X57154870Y-37311762D02*
X57186354Y-37323622D01*
X57953840Y-35437831D02*
X57979611Y-35422151D01*
X58432084Y-30000447D02*
X58435799Y-30020141D01*
X58201011Y-33779291D02*
X58191730Y-33785800D01*
X57119640Y-39476240D02*
X57111419Y-39468510D01*
X56905373Y-29032691D02*
X56879518Y-29050697D01*
X57481301Y-34776224D02*
X57489139Y-34768117D01*
X57275369Y-31332113D02*
X57304164Y-31354586D01*
X56420585Y-35390262D02*
X56406196Y-35421181D01*
X58162008Y-33381867D02*
X58172214Y-33387023D01*
X57516552Y-37397314D02*
X57551115Y-37400184D01*
X57424607Y-34980184D02*
X57422524Y-34968691D01*
X56284117Y-36009345D02*
X56284542Y-36047057D01*
X57466832Y-31025279D02*
X57460231Y-31016127D01*
X57791774Y-29416304D02*
X57812122Y-29419231D01*
X58277500Y-33683098D02*
X58272759Y-33693437D01*
X57864629Y-30996882D02*
X57858928Y-31006656D01*
X58083598Y-33360049D02*
X58095442Y-33361534D01*
X56335371Y-35616288D02*
X56326488Y-35650141D01*
X57414603Y-35465848D02*
X57442675Y-35477408D01*
X58845779Y-35305127D02*
X58828840Y-35276203D01*
X57528064Y-33849685D02*
X57539663Y-33871703D01*
X58957611Y-36477118D02*
X58968119Y-36444037D01*
X58101365Y-29523932D02*
X58117036Y-29533664D01*
X56822141Y-36145479D02*
X56819328Y-36124740D01*
X57954335Y-34166620D02*
X57980098Y-34170597D01*
X57013493Y-34773238D02*
X56985351Y-34788095D01*
X57740957Y-38939031D02*
X57728665Y-38924394D01*
X57846170Y-34793513D02*
X57852770Y-34802664D01*
X56971940Y-29767183D02*
X56981629Y-29751368D01*
X58214520Y-34738475D02*
X58206494Y-34717435D01*
X57769460Y-37400261D02*
X57804036Y-37397450D01*
X57750277Y-29411792D02*
X57771160Y-29413824D01*
X57725861Y-28813779D02*
X57691334Y-28812609D01*
X58272759Y-33491079D02*
X58277500Y-33501418D01*
X57899784Y-35465289D02*
X57927216Y-35452225D01*
X58140775Y-33811505D02*
X58129778Y-33815176D01*
X57774912Y-38985268D02*
X57764092Y-38969480D01*
X57808594Y-34120934D02*
X57831706Y-34131023D01*
X58602732Y-34995682D02*
X58579817Y-34974592D01*
X57812122Y-29419231D02*
X57832203Y-29422605D01*
X58074802Y-36708474D02*
X58056978Y-36717508D01*
X57137891Y-35380831D02*
X57157911Y-35366766D01*
X58448849Y-30143222D02*
X58449496Y-30164561D01*
X57071192Y-34745324D02*
X57042107Y-34758981D01*
X56571922Y-29368215D02*
X56554283Y-29395199D01*
X58418077Y-35653740D02*
X58426790Y-35671586D01*
X58142408Y-34600085D02*
X58129242Y-34582177D01*
X56344285Y-30002570D02*
X56340756Y-30038696D01*
X58156057Y-30572707D02*
X58144904Y-30556072D01*
X58001611Y-34459122D02*
X57983143Y-34446537D01*
X57430441Y-34863756D02*
X57434164Y-34852911D01*
X56851691Y-34871403D02*
X56826367Y-34889871D01*
X58441904Y-30060229D02*
X58444296Y-30080624D01*
X57759106Y-31096030D02*
X57748622Y-31100705D01*
X57772244Y-31458034D02*
X57809234Y-31449579D01*
X58052568Y-29496816D02*
X58069130Y-29505507D01*
X58877938Y-36666951D02*
X58892920Y-36636516D01*
X56931715Y-29015335D02*
X56905373Y-29032691D01*
X58243389Y-34751657D02*
X58214520Y-34738475D01*
X57337925Y-39529539D02*
X57326474Y-39532146D01*
X58292513Y-36542494D02*
X58279068Y-36556613D01*
X57871570Y-29430688D02*
X57890856Y-29435394D01*
X57869734Y-33731898D02*
X57863133Y-33722747D01*
X58428969Y-37177754D02*
X58455736Y-37159426D01*
X57893205Y-30885638D02*
X57892897Y-30897647D01*
X57052721Y-39372871D02*
X57049530Y-39361796D01*
X57324862Y-36749816D02*
X57306115Y-36742329D01*
X57967282Y-33377191D02*
X57978031Y-33373011D01*
X58474698Y-35803497D02*
X58479520Y-35823165D01*
X57486909Y-39414718D02*
X57481208Y-39424492D01*
X57491262Y-33756520D02*
X57498973Y-33780526D01*
X57704195Y-34704482D02*
X57715645Y-34707089D01*
X58197679Y-34696788D02*
X58188094Y-34676553D01*
X57199477Y-36689950D02*
X57182682Y-36679978D01*
X57892897Y-34945161D02*
X57891983Y-34957012D01*
X57529931Y-30315486D02*
X57489689Y-30325618D01*
X58650010Y-33555519D02*
X58646592Y-33519379D01*
X56811056Y-37117337D02*
X56837135Y-37136999D01*
X56287938Y-36121369D02*
X56290908Y-36157968D01*
X57512757Y-39339013D02*
X57510674Y-39350505D01*
X57100748Y-34732267D02*
X57071192Y-34745324D01*
X57156057Y-39103860D02*
X57165970Y-39098239D01*
X56854872Y-39710600D02*
X56868533Y-39723985D01*
X56916756Y-35626266D02*
X56926837Y-35609291D01*
X57117881Y-34691141D02*
X57100748Y-34732267D01*
X56504958Y-29479464D02*
X56489712Y-29508655D01*
X56862908Y-36302382D02*
X56856043Y-36283645D01*
X57126019Y-29587511D02*
X57140311Y-29576052D01*
X57890477Y-34968691D02*
X57888395Y-34980184D01*
X56901782Y-29923982D02*
X56907896Y-29905441D01*
X58734803Y-35139884D02*
X58714129Y-35114275D01*
X56822381Y-35890897D02*
X56825795Y-35870570D01*
X57839142Y-35081611D02*
X57831701Y-35090081D01*
X57192049Y-30524027D02*
X57168096Y-30556072D01*
X58497735Y-36074588D02*
X58495913Y-36095843D01*
X58006213Y-34173468D02*
X58032657Y-34175209D01*
X57118907Y-39865455D02*
X57138105Y-39870414D01*
X57035517Y-29677266D02*
X57047380Y-29663441D01*
X57208406Y-39080557D02*
X57219637Y-39077410D01*
X57547993Y-38783709D02*
X57530524Y-38775247D01*
X57002097Y-29720732D02*
X57012875Y-29705912D01*
X58863580Y-29599523D02*
X58850017Y-29568685D01*
X57422524Y-34968691D02*
X57421019Y-34957012D01*
X57197409Y-39084227D02*
X57208406Y-39080557D01*
X58433471Y-34859839D02*
X58407597Y-34842685D01*
X57157551Y-38732200D02*
X57118907Y-38741494D01*
X57869857Y-30784460D02*
X57874599Y-30794799D01*
X58487641Y-35863112D02*
X58490940Y-35883392D01*
X58162008Y-33802650D02*
X58151523Y-33807325D01*
X57543237Y-36802247D02*
X57522568Y-36799750D01*
X56782649Y-38985268D02*
X56762563Y-39017914D01*
X58085844Y-34531641D02*
X58070139Y-34515918D01*
X56366227Y-29861983D02*
X56359568Y-29896544D01*
X58334250Y-35522970D02*
X58346095Y-35538147D01*
X57846170Y-30745999D02*
X57852770Y-30755150D01*
X57644324Y-34700042D02*
X57656501Y-34699738D01*
X59001814Y-36307849D02*
X59008147Y-36272844D01*
X57906066Y-37384198D02*
X57939507Y-37378174D01*
X57900236Y-30353760D02*
X57881483Y-30345772D01*
X58455087Y-29069350D02*
X58429627Y-29050696D01*
X57450584Y-29430688D02*
X57470246Y-29426424D01*
X57096140Y-39451933D02*
X57089112Y-39443115D01*
X57427251Y-30943960D02*
X57424607Y-30932669D01*
X57943964Y-36763434D02*
X57924423Y-36769563D01*
X57278781Y-39536890D02*
X57266603Y-39536586D01*
X58974958Y-30075213D02*
X58972183Y-30038694D01*
X57855323Y-34140155D02*
X57879420Y-34148305D01*
X58188094Y-34676553D02*
X58177756Y-34656747D01*
X57852770Y-31016127D02*
X57846170Y-31025279D01*
X57686239Y-33139409D02*
X57671638Y-33151526D01*
X56290908Y-36157968D02*
X56294725Y-36194199D01*
X57734405Y-31464171D02*
X57772244Y-31458034D01*
X57769312Y-30680403D02*
X57779225Y-30686025D01*
X57864629Y-35044396D02*
X57858928Y-35054171D01*
X58828840Y-35276203D02*
X58811278Y-35247834D01*
X57208406Y-39526392D02*
X57197409Y-39522722D01*
X57823920Y-33568399D02*
X57825426Y-33556720D01*
X57468449Y-39163834D02*
X57475050Y-39172986D01*
X58545975Y-33259992D02*
X58525262Y-33232312D01*
X57786011Y-34109914D02*
X57808594Y-34120934D01*
X58774285Y-35192755D02*
X58754855Y-35166044D01*
X57246169Y-30465205D02*
X57218109Y-30493703D01*
X57421019Y-30861779D02*
X57422524Y-30850100D01*
X57419796Y-30885638D02*
X57420104Y-30873630D01*
X58597950Y-33350042D02*
X58582387Y-33318926D01*
X59025067Y-35905359D02*
X59022101Y-35868772D01*
X57782852Y-35503374D02*
X57813078Y-35496066D01*
X56578316Y-36887053D02*
X56598951Y-36912675D01*
X58446250Y-30101254D02*
X58447767Y-30122120D01*
X58032657Y-34175209D02*
X58059403Y-34175795D01*
X57422524Y-30850100D02*
X57424607Y-30838608D01*
X58650912Y-33615103D02*
X58651058Y-33609368D01*
X58244582Y-29636786D02*
X58257149Y-29649948D01*
X57475050Y-39433963D02*
X57468449Y-39443115D01*
X56345095Y-35582808D02*
X56335371Y-35616288D01*
X57972662Y-37371347D02*
X58005530Y-37363718D01*
X58126448Y-36679078D02*
X58109535Y-36689258D01*
X56290908Y-35861144D02*
X56287938Y-35897628D01*
X57882560Y-34863756D02*
X57885751Y-34874831D01*
X57507693Y-33804073D02*
X57517399Y-33827134D01*
X56284542Y-36047057D02*
X56285816Y-36084399D01*
X57481301Y-31042567D02*
X57473860Y-31034097D01*
X57831701Y-31042567D02*
X57823862Y-31050674D01*
X57476261Y-38753238D02*
X57457593Y-38747065D01*
X59022101Y-35868772D02*
X59018292Y-35832547D01*
X56501402Y-35243596D02*
X56484055Y-35271867D01*
X58354056Y-36467359D02*
X58342501Y-36482992D01*
X57617205Y-31467912D02*
X57636772Y-31468858D01*
X58178196Y-35377914D02*
X58198085Y-35392329D01*
X57490115Y-29422605D02*
X57510190Y-29419231D01*
X56804880Y-29108602D02*
X56780977Y-29129199D01*
X57762550Y-30311451D02*
X57741782Y-30308120D01*
X56335371Y-36403860D02*
X56345095Y-36437523D01*
X58191730Y-33398717D02*
X58201011Y-33405225D01*
X56336050Y-30112126D02*
X56334873Y-30149432D01*
X58108178Y-30508643D02*
X58094892Y-30493703D01*
X57885751Y-34874831D02*
X57888395Y-34886122D01*
X56864208Y-30143222D02*
X56865355Y-30122120D01*
X56537242Y-29422735D02*
X56520801Y-29450824D01*
X58977795Y-35622826D02*
X58968119Y-35589148D01*
X58109535Y-36689258D02*
X58092321Y-36699057D01*
X57891983Y-30909498D02*
X57890477Y-30921177D01*
X57769312Y-35138389D02*
X57759106Y-35143544D01*
X57009569Y-38783709D02*
X56975629Y-38802253D01*
X58968613Y-30002569D02*
X58964247Y-29966836D01*
X57680697Y-34700943D02*
X57692540Y-34702428D01*
X57798953Y-33068139D02*
X57781810Y-33076793D01*
X58921109Y-36574010D02*
X58934104Y-36542106D01*
X58226764Y-33757294D02*
X58218542Y-33765023D01*
X57876762Y-33740717D02*
X57869734Y-33731898D01*
X56829293Y-36186206D02*
X56825463Y-36165967D01*
X57874599Y-35023993D02*
X57869857Y-35034332D01*
X58154895Y-34618495D02*
X58142408Y-34600085D01*
X56912065Y-39761448D02*
X56927388Y-39773001D01*
X58177755Y-28912042D02*
X58147393Y-28899954D01*
X57429331Y-39123372D02*
X57437921Y-39130709D01*
X57983143Y-34446537D02*
X57964177Y-34434633D01*
X57043298Y-39327334D02*
X57042384Y-39315483D01*
D12*
X61421071Y-22924380D02*
X61421071Y-21924380D01*
X61421071Y-21924380D02*
X61802023Y-21924380D01*
X61802023Y-21924380D02*
X61897261Y-21972000D01*
X61897261Y-21972000D02*
X61944880Y-22019619D01*
X61944880Y-22019619D02*
X61992499Y-22114857D01*
X61992499Y-22114857D02*
X61992499Y-22257714D01*
X61992499Y-22257714D02*
X61944880Y-22352952D01*
X61944880Y-22352952D02*
X61897261Y-22400571D01*
X61897261Y-22400571D02*
X61802023Y-22448190D01*
X61802023Y-22448190D02*
X61421071Y-22448190D01*
X62421071Y-22924380D02*
X62421071Y-22257714D01*
X62421071Y-22448190D02*
X62468690Y-22352952D01*
X62468690Y-22352952D02*
X62516309Y-22305333D01*
X62516309Y-22305333D02*
X62611547Y-22257714D01*
X62611547Y-22257714D02*
X62706785Y-22257714D01*
X63182976Y-22924380D02*
X63087738Y-22876761D01*
X63087738Y-22876761D02*
X63040119Y-22829142D01*
X63040119Y-22829142D02*
X62992500Y-22733904D01*
X62992500Y-22733904D02*
X62992500Y-22448190D01*
X62992500Y-22448190D02*
X63040119Y-22352952D01*
X63040119Y-22352952D02*
X63087738Y-22305333D01*
X63087738Y-22305333D02*
X63182976Y-22257714D01*
X63182976Y-22257714D02*
X63325833Y-22257714D01*
X63325833Y-22257714D02*
X63421071Y-22305333D01*
X63421071Y-22305333D02*
X63468690Y-22352952D01*
X63468690Y-22352952D02*
X63516309Y-22448190D01*
X63516309Y-22448190D02*
X63516309Y-22733904D01*
X63516309Y-22733904D02*
X63468690Y-22829142D01*
X63468690Y-22829142D02*
X63421071Y-22876761D01*
X63421071Y-22876761D02*
X63325833Y-22924380D01*
X63325833Y-22924380D02*
X63182976Y-22924380D01*
X64373452Y-22257714D02*
X64373452Y-22924380D01*
X63944881Y-22257714D02*
X63944881Y-22781523D01*
X63944881Y-22781523D02*
X63992500Y-22876761D01*
X63992500Y-22876761D02*
X64087738Y-22924380D01*
X64087738Y-22924380D02*
X64230595Y-22924380D01*
X64230595Y-22924380D02*
X64325833Y-22876761D01*
X64325833Y-22876761D02*
X64373452Y-22829142D01*
X65278214Y-22924380D02*
X65278214Y-21924380D01*
X65278214Y-22876761D02*
X65182976Y-22924380D01*
X65182976Y-22924380D02*
X64992500Y-22924380D01*
X64992500Y-22924380D02*
X64897262Y-22876761D01*
X64897262Y-22876761D02*
X64849643Y-22829142D01*
X64849643Y-22829142D02*
X64802024Y-22733904D01*
X64802024Y-22733904D02*
X64802024Y-22448190D01*
X64802024Y-22448190D02*
X64849643Y-22352952D01*
X64849643Y-22352952D02*
X64897262Y-22305333D01*
X64897262Y-22305333D02*
X64992500Y-22257714D01*
X64992500Y-22257714D02*
X65182976Y-22257714D01*
X65182976Y-22257714D02*
X65278214Y-22305333D01*
X65897262Y-22924380D02*
X65802024Y-22876761D01*
X65802024Y-22876761D02*
X65754405Y-22781523D01*
X65754405Y-22781523D02*
X65754405Y-21924380D01*
X66182977Y-22257714D02*
X66421072Y-22924380D01*
X66659167Y-22257714D02*
X66421072Y-22924380D01*
X66421072Y-22924380D02*
X66325834Y-23162476D01*
X66325834Y-23162476D02*
X66278215Y-23210095D01*
X66278215Y-23210095D02*
X66182977Y-23257714D01*
X67640120Y-22924380D02*
X67640120Y-22257714D01*
X67640120Y-22352952D02*
X67687739Y-22305333D01*
X67687739Y-22305333D02*
X67782977Y-22257714D01*
X67782977Y-22257714D02*
X67925834Y-22257714D01*
X67925834Y-22257714D02*
X68021072Y-22305333D01*
X68021072Y-22305333D02*
X68068691Y-22400571D01*
X68068691Y-22400571D02*
X68068691Y-22924380D01*
X68068691Y-22400571D02*
X68116310Y-22305333D01*
X68116310Y-22305333D02*
X68211548Y-22257714D01*
X68211548Y-22257714D02*
X68354405Y-22257714D01*
X68354405Y-22257714D02*
X68449644Y-22305333D01*
X68449644Y-22305333D02*
X68497263Y-22400571D01*
X68497263Y-22400571D02*
X68497263Y-22924380D01*
X69402024Y-22924380D02*
X69402024Y-22400571D01*
X69402024Y-22400571D02*
X69354405Y-22305333D01*
X69354405Y-22305333D02*
X69259167Y-22257714D01*
X69259167Y-22257714D02*
X69068691Y-22257714D01*
X69068691Y-22257714D02*
X68973453Y-22305333D01*
X69402024Y-22876761D02*
X69306786Y-22924380D01*
X69306786Y-22924380D02*
X69068691Y-22924380D01*
X69068691Y-22924380D02*
X68973453Y-22876761D01*
X68973453Y-22876761D02*
X68925834Y-22781523D01*
X68925834Y-22781523D02*
X68925834Y-22686285D01*
X68925834Y-22686285D02*
X68973453Y-22591047D01*
X68973453Y-22591047D02*
X69068691Y-22543428D01*
X69068691Y-22543428D02*
X69306786Y-22543428D01*
X69306786Y-22543428D02*
X69402024Y-22495809D01*
X70306786Y-22924380D02*
X70306786Y-21924380D01*
X70306786Y-22876761D02*
X70211548Y-22924380D01*
X70211548Y-22924380D02*
X70021072Y-22924380D01*
X70021072Y-22924380D02*
X69925834Y-22876761D01*
X69925834Y-22876761D02*
X69878215Y-22829142D01*
X69878215Y-22829142D02*
X69830596Y-22733904D01*
X69830596Y-22733904D02*
X69830596Y-22448190D01*
X69830596Y-22448190D02*
X69878215Y-22352952D01*
X69878215Y-22352952D02*
X69925834Y-22305333D01*
X69925834Y-22305333D02*
X70021072Y-22257714D01*
X70021072Y-22257714D02*
X70211548Y-22257714D01*
X70211548Y-22257714D02*
X70306786Y-22305333D01*
X71163929Y-22876761D02*
X71068691Y-22924380D01*
X71068691Y-22924380D02*
X70878215Y-22924380D01*
X70878215Y-22924380D02*
X70782977Y-22876761D01*
X70782977Y-22876761D02*
X70735358Y-22781523D01*
X70735358Y-22781523D02*
X70735358Y-22400571D01*
X70735358Y-22400571D02*
X70782977Y-22305333D01*
X70782977Y-22305333D02*
X70878215Y-22257714D01*
X70878215Y-22257714D02*
X71068691Y-22257714D01*
X71068691Y-22257714D02*
X71163929Y-22305333D01*
X71163929Y-22305333D02*
X71211548Y-22400571D01*
X71211548Y-22400571D02*
X71211548Y-22495809D01*
X71211548Y-22495809D02*
X70735358Y-22591047D01*
X63516309Y-24544380D02*
X63421071Y-24496761D01*
X63421071Y-24496761D02*
X63373452Y-24449142D01*
X63373452Y-24449142D02*
X63325833Y-24353904D01*
X63325833Y-24353904D02*
X63325833Y-24068190D01*
X63325833Y-24068190D02*
X63373452Y-23972952D01*
X63373452Y-23972952D02*
X63421071Y-23925333D01*
X63421071Y-23925333D02*
X63516309Y-23877714D01*
X63516309Y-23877714D02*
X63659166Y-23877714D01*
X63659166Y-23877714D02*
X63754404Y-23925333D01*
X63754404Y-23925333D02*
X63802023Y-23972952D01*
X63802023Y-23972952D02*
X63849642Y-24068190D01*
X63849642Y-24068190D02*
X63849642Y-24353904D01*
X63849642Y-24353904D02*
X63802023Y-24449142D01*
X63802023Y-24449142D02*
X63754404Y-24496761D01*
X63754404Y-24496761D02*
X63659166Y-24544380D01*
X63659166Y-24544380D02*
X63516309Y-24544380D01*
X64278214Y-23877714D02*
X64278214Y-24544380D01*
X64278214Y-23972952D02*
X64325833Y-23925333D01*
X64325833Y-23925333D02*
X64421071Y-23877714D01*
X64421071Y-23877714D02*
X64563928Y-23877714D01*
X64563928Y-23877714D02*
X64659166Y-23925333D01*
X64659166Y-23925333D02*
X64706785Y-24020571D01*
X64706785Y-24020571D02*
X64706785Y-24544380D01*
X65782976Y-24020571D02*
X66116309Y-24020571D01*
X66259166Y-24544380D02*
X65782976Y-24544380D01*
X65782976Y-24544380D02*
X65782976Y-23544380D01*
X65782976Y-23544380D02*
X66259166Y-23544380D01*
X67116309Y-24544380D02*
X67116309Y-24020571D01*
X67116309Y-24020571D02*
X67068690Y-23925333D01*
X67068690Y-23925333D02*
X66973452Y-23877714D01*
X66973452Y-23877714D02*
X66782976Y-23877714D01*
X66782976Y-23877714D02*
X66687738Y-23925333D01*
X67116309Y-24496761D02*
X67021071Y-24544380D01*
X67021071Y-24544380D02*
X66782976Y-24544380D01*
X66782976Y-24544380D02*
X66687738Y-24496761D01*
X66687738Y-24496761D02*
X66640119Y-24401523D01*
X66640119Y-24401523D02*
X66640119Y-24306285D01*
X66640119Y-24306285D02*
X66687738Y-24211047D01*
X66687738Y-24211047D02*
X66782976Y-24163428D01*
X66782976Y-24163428D02*
X67021071Y-24163428D01*
X67021071Y-24163428D02*
X67116309Y-24115809D01*
X67592500Y-24544380D02*
X67592500Y-23877714D01*
X67592500Y-24068190D02*
X67640119Y-23972952D01*
X67640119Y-23972952D02*
X67687738Y-23925333D01*
X67687738Y-23925333D02*
X67782976Y-23877714D01*
X67782976Y-23877714D02*
X67878214Y-23877714D01*
X68068691Y-23877714D02*
X68449643Y-23877714D01*
X68211548Y-23544380D02*
X68211548Y-24401523D01*
X68211548Y-24401523D02*
X68259167Y-24496761D01*
X68259167Y-24496761D02*
X68354405Y-24544380D01*
X68354405Y-24544380D02*
X68449643Y-24544380D01*
X68782977Y-24544380D02*
X68782977Y-23544380D01*
X69211548Y-24544380D02*
X69211548Y-24020571D01*
X69211548Y-24020571D02*
X69163929Y-23925333D01*
X69163929Y-23925333D02*
X69068691Y-23877714D01*
X69068691Y-23877714D02*
X68925834Y-23877714D01*
X68925834Y-23877714D02*
X68830596Y-23925333D01*
X68830596Y-23925333D02*
X68782977Y-23972952D01*
X62714715Y-43879380D02*
X62714715Y-42879380D01*
X62714715Y-43355571D02*
X63286143Y-43355571D01*
X63286143Y-43879380D02*
X63286143Y-42879380D01*
X64190905Y-43212714D02*
X64190905Y-43879380D01*
X63762334Y-43212714D02*
X63762334Y-43736523D01*
X63762334Y-43736523D02*
X63809953Y-43831761D01*
X63809953Y-43831761D02*
X63905191Y-43879380D01*
X63905191Y-43879380D02*
X64048048Y-43879380D01*
X64048048Y-43879380D02*
X64143286Y-43831761D01*
X64143286Y-43831761D02*
X64190905Y-43784142D01*
X64667096Y-43879380D02*
X64667096Y-43212714D01*
X64667096Y-43307952D02*
X64714715Y-43260333D01*
X64714715Y-43260333D02*
X64809953Y-43212714D01*
X64809953Y-43212714D02*
X64952810Y-43212714D01*
X64952810Y-43212714D02*
X65048048Y-43260333D01*
X65048048Y-43260333D02*
X65095667Y-43355571D01*
X65095667Y-43355571D02*
X65095667Y-43879380D01*
X65095667Y-43355571D02*
X65143286Y-43260333D01*
X65143286Y-43260333D02*
X65238524Y-43212714D01*
X65238524Y-43212714D02*
X65381381Y-43212714D01*
X65381381Y-43212714D02*
X65476620Y-43260333D01*
X65476620Y-43260333D02*
X65524239Y-43355571D01*
X65524239Y-43355571D02*
X65524239Y-43879380D01*
X66000429Y-43784142D02*
X66048048Y-43831761D01*
X66048048Y-43831761D02*
X66000429Y-43879380D01*
X66000429Y-43879380D02*
X65952810Y-43831761D01*
X65952810Y-43831761D02*
X66000429Y-43784142D01*
X66000429Y-43784142D02*
X66000429Y-43879380D01*
X66981381Y-43212714D02*
X67219476Y-43879380D01*
X67219476Y-43879380D02*
X67457571Y-43212714D01*
X68362333Y-43879380D02*
X67790905Y-43879380D01*
X68076619Y-43879380D02*
X68076619Y-42879380D01*
X68076619Y-42879380D02*
X67981381Y-43022238D01*
X67981381Y-43022238D02*
X67886143Y-43117476D01*
X67886143Y-43117476D02*
X67790905Y-43165095D01*
X68790905Y-43784142D02*
X68838524Y-43831761D01*
X68838524Y-43831761D02*
X68790905Y-43879380D01*
X68790905Y-43879380D02*
X68743286Y-43831761D01*
X68743286Y-43831761D02*
X68790905Y-43784142D01*
X68790905Y-43784142D02*
X68790905Y-43879380D01*
X69790904Y-43879380D02*
X69219476Y-43879380D01*
X69505190Y-43879380D02*
X69505190Y-42879380D01*
X69505190Y-42879380D02*
X69409952Y-43022238D01*
X69409952Y-43022238D02*
X69314714Y-43117476D01*
X69314714Y-43117476D02*
X69219476Y-43165095D01*
X62581380Y-45880333D02*
X62533761Y-45832714D01*
X62533761Y-45832714D02*
X62438523Y-45689857D01*
X62438523Y-45689857D02*
X62390904Y-45594619D01*
X62390904Y-45594619D02*
X62343285Y-45451761D01*
X62343285Y-45451761D02*
X62295666Y-45213666D01*
X62295666Y-45213666D02*
X62295666Y-45023190D01*
X62295666Y-45023190D02*
X62343285Y-44785095D01*
X62343285Y-44785095D02*
X62390904Y-44642238D01*
X62390904Y-44642238D02*
X62438523Y-44547000D01*
X62438523Y-44547000D02*
X62533761Y-44404142D01*
X62533761Y-44404142D02*
X62581380Y-44356523D01*
X63390904Y-45451761D02*
X63295666Y-45499380D01*
X63295666Y-45499380D02*
X63105190Y-45499380D01*
X63105190Y-45499380D02*
X63009952Y-45451761D01*
X63009952Y-45451761D02*
X62962333Y-45404142D01*
X62962333Y-45404142D02*
X62914714Y-45308904D01*
X62914714Y-45308904D02*
X62914714Y-45023190D01*
X62914714Y-45023190D02*
X62962333Y-44927952D01*
X62962333Y-44927952D02*
X63009952Y-44880333D01*
X63009952Y-44880333D02*
X63105190Y-44832714D01*
X63105190Y-44832714D02*
X63295666Y-44832714D01*
X63295666Y-44832714D02*
X63390904Y-44880333D01*
X63724238Y-45880333D02*
X63771857Y-45832714D01*
X63771857Y-45832714D02*
X63867095Y-45689857D01*
X63867095Y-45689857D02*
X63914714Y-45594619D01*
X63914714Y-45594619D02*
X63962333Y-45451761D01*
X63962333Y-45451761D02*
X64009952Y-45213666D01*
X64009952Y-45213666D02*
X64009952Y-45023190D01*
X64009952Y-45023190D02*
X63962333Y-44785095D01*
X63962333Y-44785095D02*
X63914714Y-44642238D01*
X63914714Y-44642238D02*
X63867095Y-44547000D01*
X63867095Y-44547000D02*
X63771857Y-44404142D01*
X63771857Y-44404142D02*
X63724238Y-44356523D01*
X65086143Y-44832714D02*
X65086143Y-45499380D01*
X65086143Y-44927952D02*
X65133762Y-44880333D01*
X65133762Y-44880333D02*
X65229000Y-44832714D01*
X65229000Y-44832714D02*
X65371857Y-44832714D01*
X65371857Y-44832714D02*
X65467095Y-44880333D01*
X65467095Y-44880333D02*
X65514714Y-44975571D01*
X65514714Y-44975571D02*
X65514714Y-45499380D01*
X66133762Y-45499380D02*
X66038524Y-45451761D01*
X66038524Y-45451761D02*
X65990905Y-45404142D01*
X65990905Y-45404142D02*
X65943286Y-45308904D01*
X65943286Y-45308904D02*
X65943286Y-45023190D01*
X65943286Y-45023190D02*
X65990905Y-44927952D01*
X65990905Y-44927952D02*
X66038524Y-44880333D01*
X66038524Y-44880333D02*
X66133762Y-44832714D01*
X66133762Y-44832714D02*
X66276619Y-44832714D01*
X66276619Y-44832714D02*
X66371857Y-44880333D01*
X66371857Y-44880333D02*
X66419476Y-44927952D01*
X66419476Y-44927952D02*
X66467095Y-45023190D01*
X66467095Y-45023190D02*
X66467095Y-45308904D01*
X66467095Y-45308904D02*
X66419476Y-45404142D01*
X66419476Y-45404142D02*
X66371857Y-45451761D01*
X66371857Y-45451761D02*
X66276619Y-45499380D01*
X66276619Y-45499380D02*
X66133762Y-45499380D01*
X66800429Y-44832714D02*
X67038524Y-45499380D01*
X67038524Y-45499380D02*
X67276619Y-44832714D01*
X67657572Y-45404142D02*
X67705191Y-45451761D01*
X67705191Y-45451761D02*
X67657572Y-45499380D01*
X67657572Y-45499380D02*
X67609953Y-45451761D01*
X67609953Y-45451761D02*
X67657572Y-45404142D01*
X67657572Y-45404142D02*
X67657572Y-45499380D01*
X68686143Y-44594619D02*
X68733762Y-44547000D01*
X68733762Y-44547000D02*
X68829000Y-44499380D01*
X68829000Y-44499380D02*
X69067095Y-44499380D01*
X69067095Y-44499380D02*
X69162333Y-44547000D01*
X69162333Y-44547000D02*
X69209952Y-44594619D01*
X69209952Y-44594619D02*
X69257571Y-44689857D01*
X69257571Y-44689857D02*
X69257571Y-44785095D01*
X69257571Y-44785095D02*
X69209952Y-44927952D01*
X69209952Y-44927952D02*
X68638524Y-45499380D01*
X68638524Y-45499380D02*
X69257571Y-45499380D01*
X69590905Y-44499380D02*
X70209952Y-44499380D01*
X70209952Y-44499380D02*
X69876619Y-44880333D01*
X69876619Y-44880333D02*
X70019476Y-44880333D01*
X70019476Y-44880333D02*
X70114714Y-44927952D01*
X70114714Y-44927952D02*
X70162333Y-44975571D01*
X70162333Y-44975571D02*
X70209952Y-45070809D01*
X70209952Y-45070809D02*
X70209952Y-45308904D01*
X70209952Y-45308904D02*
X70162333Y-45404142D01*
X70162333Y-45404142D02*
X70114714Y-45451761D01*
X70114714Y-45451761D02*
X70019476Y-45499380D01*
X70019476Y-45499380D02*
X69733762Y-45499380D01*
X69733762Y-45499380D02*
X69638524Y-45451761D01*
X69638524Y-45451761D02*
X69590905Y-45404142D01*
X70075500Y-38739857D02*
X70027880Y-38835095D01*
X70027880Y-38835095D02*
X70027880Y-38977952D01*
X70027880Y-38977952D02*
X70075500Y-39120809D01*
X70075500Y-39120809D02*
X70170738Y-39216047D01*
X70170738Y-39216047D02*
X70265976Y-39263666D01*
X70265976Y-39263666D02*
X70456452Y-39311285D01*
X70456452Y-39311285D02*
X70599309Y-39311285D01*
X70599309Y-39311285D02*
X70789785Y-39263666D01*
X70789785Y-39263666D02*
X70885023Y-39216047D01*
X70885023Y-39216047D02*
X70980261Y-39120809D01*
X70980261Y-39120809D02*
X71027880Y-38977952D01*
X71027880Y-38977952D02*
X71027880Y-38882714D01*
X71027880Y-38882714D02*
X70980261Y-38739857D01*
X70980261Y-38739857D02*
X70932642Y-38692238D01*
X70932642Y-38692238D02*
X70599309Y-38692238D01*
X70599309Y-38692238D02*
X70599309Y-38882714D01*
X70361214Y-38263666D02*
X71027880Y-38263666D01*
X70456452Y-38263666D02*
X70408833Y-38216047D01*
X70408833Y-38216047D02*
X70361214Y-38120809D01*
X70361214Y-38120809D02*
X70361214Y-37977952D01*
X70361214Y-37977952D02*
X70408833Y-37882714D01*
X70408833Y-37882714D02*
X70504071Y-37835095D01*
X70504071Y-37835095D02*
X71027880Y-37835095D01*
X71027880Y-36930333D02*
X70027880Y-36930333D01*
X70980261Y-36930333D02*
X71027880Y-37025571D01*
X71027880Y-37025571D02*
X71027880Y-37216047D01*
X71027880Y-37216047D02*
X70980261Y-37311285D01*
X70980261Y-37311285D02*
X70932642Y-37358904D01*
X70932642Y-37358904D02*
X70837404Y-37406523D01*
X70837404Y-37406523D02*
X70551690Y-37406523D01*
X70551690Y-37406523D02*
X70456452Y-37358904D01*
X70456452Y-37358904D02*
X70408833Y-37311285D01*
X70408833Y-37311285D02*
X70361214Y-37216047D01*
X70361214Y-37216047D02*
X70361214Y-37025571D01*
X70361214Y-37025571D02*
X70408833Y-36930333D01*
X71027880Y-35533094D02*
X70027880Y-35533094D01*
X70027880Y-35533094D02*
X70742166Y-35199761D01*
X70742166Y-35199761D02*
X70027880Y-34866428D01*
X70027880Y-34866428D02*
X71027880Y-34866428D01*
X71027880Y-34485475D02*
X70361214Y-33961666D01*
X70361214Y-34485475D02*
X71027880Y-33961666D01*
X70646928Y-32683427D02*
X70646928Y-31921523D01*
X71027880Y-32302475D02*
X70265976Y-32302475D01*
X70027880Y-31540570D02*
X70027880Y-30921523D01*
X70027880Y-30921523D02*
X70408833Y-31254856D01*
X70408833Y-31254856D02*
X70408833Y-31111999D01*
X70408833Y-31111999D02*
X70456452Y-31016761D01*
X70456452Y-31016761D02*
X70504071Y-30969142D01*
X70504071Y-30969142D02*
X70599309Y-30921523D01*
X70599309Y-30921523D02*
X70837404Y-30921523D01*
X70837404Y-30921523D02*
X70932642Y-30969142D01*
X70932642Y-30969142D02*
X70980261Y-31016761D01*
X70980261Y-31016761D02*
X71027880Y-31111999D01*
X71027880Y-31111999D02*
X71027880Y-31397713D01*
X71027880Y-31397713D02*
X70980261Y-31492951D01*
X70980261Y-31492951D02*
X70932642Y-31540570D01*
X70932642Y-30492951D02*
X70980261Y-30445332D01*
X70980261Y-30445332D02*
X71027880Y-30492951D01*
X71027880Y-30492951D02*
X70980261Y-30540570D01*
X70980261Y-30540570D02*
X70932642Y-30492951D01*
X70932642Y-30492951D02*
X71027880Y-30492951D01*
X70027880Y-30111999D02*
X70027880Y-29492952D01*
X70027880Y-29492952D02*
X70408833Y-29826285D01*
X70408833Y-29826285D02*
X70408833Y-29683428D01*
X70408833Y-29683428D02*
X70456452Y-29588190D01*
X70456452Y-29588190D02*
X70504071Y-29540571D01*
X70504071Y-29540571D02*
X70599309Y-29492952D01*
X70599309Y-29492952D02*
X70837404Y-29492952D01*
X70837404Y-29492952D02*
X70932642Y-29540571D01*
X70932642Y-29540571D02*
X70980261Y-29588190D01*
X70980261Y-29588190D02*
X71027880Y-29683428D01*
X71027880Y-29683428D02*
X71027880Y-29969142D01*
X71027880Y-29969142D02*
X70980261Y-30064380D01*
X70980261Y-30064380D02*
X70932642Y-30111999D01*
%TO.C,R1*%
X62569833Y-27796380D02*
X62236500Y-27320190D01*
X61998405Y-27796380D02*
X61998405Y-26796380D01*
X61998405Y-26796380D02*
X62379357Y-26796380D01*
X62379357Y-26796380D02*
X62474595Y-26844000D01*
X62474595Y-26844000D02*
X62522214Y-26891619D01*
X62522214Y-26891619D02*
X62569833Y-26986857D01*
X62569833Y-26986857D02*
X62569833Y-27129714D01*
X62569833Y-27129714D02*
X62522214Y-27224952D01*
X62522214Y-27224952D02*
X62474595Y-27272571D01*
X62474595Y-27272571D02*
X62379357Y-27320190D01*
X62379357Y-27320190D02*
X61998405Y-27320190D01*
X63522214Y-27796380D02*
X62950786Y-27796380D01*
X63236500Y-27796380D02*
X63236500Y-26796380D01*
X63236500Y-26796380D02*
X63141262Y-26939238D01*
X63141262Y-26939238D02*
X63046024Y-27034476D01*
X63046024Y-27034476D02*
X62950786Y-27082095D01*
%TO.C,J5*%
X69328380Y-36321760D02*
X68328380Y-36321760D01*
X69328380Y-35750332D02*
X68756952Y-36178903D01*
X68328380Y-35750332D02*
X68899809Y-36321760D01*
X69328380Y-35321760D02*
X68661714Y-35321760D01*
X68328380Y-35321760D02*
X68376000Y-35369379D01*
X68376000Y-35369379D02*
X68423619Y-35321760D01*
X68423619Y-35321760D02*
X68376000Y-35274141D01*
X68376000Y-35274141D02*
X68328380Y-35321760D01*
X68328380Y-35321760D02*
X68423619Y-35321760D01*
X69328380Y-34845570D02*
X68328380Y-34845570D01*
X68947428Y-34750332D02*
X69328380Y-34464618D01*
X68661714Y-34464618D02*
X69042666Y-34845570D01*
X69328380Y-34036046D02*
X68661714Y-34036046D01*
X68328380Y-34036046D02*
X68376000Y-34083665D01*
X68376000Y-34083665D02*
X68423619Y-34036046D01*
X68423619Y-34036046D02*
X68376000Y-33988427D01*
X68376000Y-33988427D02*
X68328380Y-34036046D01*
X68328380Y-34036046D02*
X68423619Y-34036046D01*
X68661714Y-33655094D02*
X69328380Y-33464618D01*
X69328380Y-33464618D02*
X68852190Y-33274142D01*
X68852190Y-33274142D02*
X69328380Y-33083666D01*
X69328380Y-33083666D02*
X68661714Y-32893190D01*
X69328380Y-32512237D02*
X68661714Y-32512237D01*
X68328380Y-32512237D02*
X68376000Y-32559856D01*
X68376000Y-32559856D02*
X68423619Y-32512237D01*
X68423619Y-32512237D02*
X68376000Y-32464618D01*
X68376000Y-32464618D02*
X68328380Y-32512237D01*
X68328380Y-32512237D02*
X68423619Y-32512237D01*
D13*
%TO.C,R1*%
X62609500Y-38327000D02*
X62609500Y-37557000D01*
X61239500Y-37557000D02*
X63979500Y-37557000D01*
X63979500Y-37557000D02*
X63979500Y-31017000D01*
X61239500Y-31017000D02*
X61239500Y-37557000D01*
X63979500Y-31017000D02*
X61239500Y-31017000D01*
X62609500Y-30247000D02*
X62609500Y-31017000D01*
%TO.C,J5*%
X72053000Y-39727000D02*
X73303000Y-39727000D01*
X72343000Y-39437000D02*
X78313000Y-39437000D01*
X78313000Y-39437000D02*
X78313000Y-29317000D01*
X72353000Y-39427000D02*
X73103000Y-39427000D01*
X73103000Y-39427000D02*
X73103000Y-37627000D01*
X74603000Y-39427000D02*
X74603000Y-38677000D01*
X74603000Y-38677000D02*
X77553000Y-38677000D01*
X77553000Y-38677000D02*
X77553000Y-34377000D01*
X72053000Y-38477000D02*
X72053000Y-39727000D01*
X72353000Y-37627000D02*
X72353000Y-39427000D01*
X73103000Y-37627000D02*
X72353000Y-37627000D01*
X72353000Y-36127000D02*
X73103000Y-36127000D01*
X73103000Y-36127000D02*
X73103000Y-32627000D01*
X72353000Y-32627000D02*
X72353000Y-36127000D01*
X73103000Y-32627000D02*
X72353000Y-32627000D01*
X72353000Y-31127000D02*
X73103000Y-31127000D01*
X73103000Y-31127000D02*
X73103000Y-29327000D01*
X74603000Y-30077000D02*
X77553000Y-30077000D01*
X77553000Y-30077000D02*
X77553000Y-34377000D01*
X72353000Y-29327000D02*
X72353000Y-31127000D01*
X73103000Y-29327000D02*
X72353000Y-29327000D01*
X74603000Y-29327000D02*
X74603000Y-30077000D01*
X72343000Y-29317000D02*
X72343000Y-39437000D01*
X78313000Y-29317000D02*
X72343000Y-29317000D01*
%TD*%
M02*
