%TF.GenerationSoftware,KiCad,Pcbnew,(7.0.0-0)*%
%TF.CreationDate,2023-11-06T21:22:26+01:00*%
%TF.ProjectId,HygroHiH50xx,48796772-6f48-4694-9835-3078782e6b69,1.1*%
%TF.SameCoordinates,Original*%
%TF.FileFunction,Drillmap*%
%TF.FilePolarity,Positive*%
%FSLAX45Y45*%
G04 Gerber Fmt 4.5, Leading zero omitted, Abs format (unit mm)*
G04 Created by KiCad (PCBNEW (7.0.0-0)) date 2023-11-06 21:22:26*
%MOMM*%
%LPD*%
G01*
G04 APERTURE LIST*
%ADD10C,0.200000*%
%ADD11C,0.320000*%
G04 APERTURE END LIST*
D10*
X5371950Y-2069800D02*
X7873850Y-2069800D01*
X7873850Y-2069800D02*
X7873850Y-4813000D01*
X7873850Y-4813000D02*
X5371950Y-4813000D01*
X5371950Y-4813000D02*
X5371950Y-2069800D01*
D11*
X5605650Y-2290800D02*
X5925650Y-2610800D01*
X5925650Y-2290800D02*
X5605650Y-2610800D01*
X5605650Y-4272000D02*
X5925650Y-4592000D01*
X5925650Y-4272000D02*
X5605650Y-4592000D01*
X7320150Y-2290800D02*
X7640150Y-2610800D01*
X7640150Y-2290800D02*
X7320150Y-2610800D01*
X7320150Y-4272000D02*
X7640150Y-4592000D01*
X7640150Y-4272000D02*
X7320150Y-4592000D01*
D10*
X5609569Y-5116476D02*
X5609569Y-4916476D01*
X5609569Y-4916476D02*
X5657188Y-4916476D01*
X5657188Y-4916476D02*
X5685759Y-4926000D01*
X5685759Y-4926000D02*
X5704807Y-4945048D01*
X5704807Y-4945048D02*
X5714331Y-4964095D01*
X5714331Y-4964095D02*
X5723855Y-5002190D01*
X5723855Y-5002190D02*
X5723855Y-5030762D01*
X5723855Y-5030762D02*
X5714331Y-5068857D01*
X5714331Y-5068857D02*
X5704807Y-5087905D01*
X5704807Y-5087905D02*
X5685759Y-5106952D01*
X5685759Y-5106952D02*
X5657188Y-5116476D01*
X5657188Y-5116476D02*
X5609569Y-5116476D01*
X5809569Y-5116476D02*
X5809569Y-4983143D01*
X5809569Y-5021238D02*
X5819093Y-5002190D01*
X5819093Y-5002190D02*
X5828617Y-4992667D01*
X5828617Y-4992667D02*
X5847664Y-4983143D01*
X5847664Y-4983143D02*
X5866712Y-4983143D01*
X5933378Y-5116476D02*
X5933378Y-4983143D01*
X5933378Y-4916476D02*
X5923855Y-4926000D01*
X5923855Y-4926000D02*
X5933378Y-4935524D01*
X5933378Y-4935524D02*
X5942902Y-4926000D01*
X5942902Y-4926000D02*
X5933378Y-4916476D01*
X5933378Y-4916476D02*
X5933378Y-4935524D01*
X6057188Y-5116476D02*
X6038140Y-5106952D01*
X6038140Y-5106952D02*
X6028617Y-5087905D01*
X6028617Y-5087905D02*
X6028617Y-4916476D01*
X6161950Y-5116476D02*
X6142902Y-5106952D01*
X6142902Y-5106952D02*
X6133378Y-5087905D01*
X6133378Y-5087905D02*
X6133378Y-4916476D01*
X6358140Y-5116476D02*
X6358140Y-4916476D01*
X6358140Y-4916476D02*
X6424807Y-5059333D01*
X6424807Y-5059333D02*
X6491474Y-4916476D01*
X6491474Y-4916476D02*
X6491474Y-5116476D01*
X6672426Y-5116476D02*
X6672426Y-5011714D01*
X6672426Y-5011714D02*
X6662902Y-4992667D01*
X6662902Y-4992667D02*
X6643855Y-4983143D01*
X6643855Y-4983143D02*
X6605759Y-4983143D01*
X6605759Y-4983143D02*
X6586712Y-4992667D01*
X6672426Y-5106952D02*
X6653378Y-5116476D01*
X6653378Y-5116476D02*
X6605759Y-5116476D01*
X6605759Y-5116476D02*
X6586712Y-5106952D01*
X6586712Y-5106952D02*
X6577188Y-5087905D01*
X6577188Y-5087905D02*
X6577188Y-5068857D01*
X6577188Y-5068857D02*
X6586712Y-5049810D01*
X6586712Y-5049810D02*
X6605759Y-5040286D01*
X6605759Y-5040286D02*
X6653378Y-5040286D01*
X6653378Y-5040286D02*
X6672426Y-5030762D01*
X6767664Y-4983143D02*
X6767664Y-5183143D01*
X6767664Y-4992667D02*
X6786712Y-4983143D01*
X6786712Y-4983143D02*
X6824807Y-4983143D01*
X6824807Y-4983143D02*
X6843855Y-4992667D01*
X6843855Y-4992667D02*
X6853378Y-5002190D01*
X6853378Y-5002190D02*
X6862902Y-5021238D01*
X6862902Y-5021238D02*
X6862902Y-5078381D01*
X6862902Y-5078381D02*
X6853378Y-5097429D01*
X6853378Y-5097429D02*
X6843855Y-5106952D01*
X6843855Y-5106952D02*
X6824807Y-5116476D01*
X6824807Y-5116476D02*
X6786712Y-5116476D01*
X6786712Y-5116476D02*
X6767664Y-5106952D01*
X6948617Y-5097429D02*
X6958140Y-5106952D01*
X6958140Y-5106952D02*
X6948617Y-5116476D01*
X6948617Y-5116476D02*
X6939093Y-5106952D01*
X6939093Y-5106952D02*
X6948617Y-5097429D01*
X6948617Y-5097429D02*
X6948617Y-5116476D01*
X6948617Y-4992667D02*
X6958140Y-5002190D01*
X6958140Y-5002190D02*
X6948617Y-5011714D01*
X6948617Y-5011714D02*
X6939093Y-5002190D01*
X6939093Y-5002190D02*
X6948617Y-4992667D01*
X6948617Y-4992667D02*
X6948617Y-5011714D01*
X5161950Y-5363000D02*
X5361950Y-5563000D01*
X5361950Y-5363000D02*
X5161950Y-5563000D01*
X5590521Y-5336476D02*
X5714331Y-5336476D01*
X5714331Y-5336476D02*
X5647664Y-5412667D01*
X5647664Y-5412667D02*
X5676236Y-5412667D01*
X5676236Y-5412667D02*
X5695283Y-5422190D01*
X5695283Y-5422190D02*
X5704807Y-5431714D01*
X5704807Y-5431714D02*
X5714331Y-5450762D01*
X5714331Y-5450762D02*
X5714331Y-5498381D01*
X5714331Y-5498381D02*
X5704807Y-5517429D01*
X5704807Y-5517429D02*
X5695283Y-5526952D01*
X5695283Y-5526952D02*
X5676236Y-5536476D01*
X5676236Y-5536476D02*
X5619093Y-5536476D01*
X5619093Y-5536476D02*
X5600045Y-5526952D01*
X5600045Y-5526952D02*
X5590521Y-5517429D01*
X5800045Y-5517429D02*
X5809569Y-5526952D01*
X5809569Y-5526952D02*
X5800045Y-5536476D01*
X5800045Y-5536476D02*
X5790521Y-5526952D01*
X5790521Y-5526952D02*
X5800045Y-5517429D01*
X5800045Y-5517429D02*
X5800045Y-5536476D01*
X5885759Y-5355524D02*
X5895283Y-5346000D01*
X5895283Y-5346000D02*
X5914331Y-5336476D01*
X5914331Y-5336476D02*
X5961950Y-5336476D01*
X5961950Y-5336476D02*
X5980998Y-5346000D01*
X5980998Y-5346000D02*
X5990521Y-5355524D01*
X5990521Y-5355524D02*
X6000045Y-5374571D01*
X6000045Y-5374571D02*
X6000045Y-5393619D01*
X6000045Y-5393619D02*
X5990521Y-5422190D01*
X5990521Y-5422190D02*
X5876236Y-5536476D01*
X5876236Y-5536476D02*
X6000045Y-5536476D01*
X6123855Y-5336476D02*
X6142902Y-5336476D01*
X6142902Y-5336476D02*
X6161950Y-5346000D01*
X6161950Y-5346000D02*
X6171474Y-5355524D01*
X6171474Y-5355524D02*
X6180998Y-5374571D01*
X6180998Y-5374571D02*
X6190521Y-5412667D01*
X6190521Y-5412667D02*
X6190521Y-5460286D01*
X6190521Y-5460286D02*
X6180998Y-5498381D01*
X6180998Y-5498381D02*
X6171474Y-5517429D01*
X6171474Y-5517429D02*
X6161950Y-5526952D01*
X6161950Y-5526952D02*
X6142902Y-5536476D01*
X6142902Y-5536476D02*
X6123855Y-5536476D01*
X6123855Y-5536476D02*
X6104807Y-5526952D01*
X6104807Y-5526952D02*
X6095283Y-5517429D01*
X6095283Y-5517429D02*
X6085759Y-5498381D01*
X6085759Y-5498381D02*
X6076236Y-5460286D01*
X6076236Y-5460286D02*
X6076236Y-5412667D01*
X6076236Y-5412667D02*
X6085759Y-5374571D01*
X6085759Y-5374571D02*
X6095283Y-5355524D01*
X6095283Y-5355524D02*
X6104807Y-5346000D01*
X6104807Y-5346000D02*
X6123855Y-5336476D01*
X6314331Y-5336476D02*
X6333379Y-5336476D01*
X6333379Y-5336476D02*
X6352426Y-5346000D01*
X6352426Y-5346000D02*
X6361950Y-5355524D01*
X6361950Y-5355524D02*
X6371474Y-5374571D01*
X6371474Y-5374571D02*
X6380998Y-5412667D01*
X6380998Y-5412667D02*
X6380998Y-5460286D01*
X6380998Y-5460286D02*
X6371474Y-5498381D01*
X6371474Y-5498381D02*
X6361950Y-5517429D01*
X6361950Y-5517429D02*
X6352426Y-5526952D01*
X6352426Y-5526952D02*
X6333379Y-5536476D01*
X6333379Y-5536476D02*
X6314331Y-5536476D01*
X6314331Y-5536476D02*
X6295283Y-5526952D01*
X6295283Y-5526952D02*
X6285759Y-5517429D01*
X6285759Y-5517429D02*
X6276236Y-5498381D01*
X6276236Y-5498381D02*
X6266712Y-5460286D01*
X6266712Y-5460286D02*
X6266712Y-5412667D01*
X6266712Y-5412667D02*
X6276236Y-5374571D01*
X6276236Y-5374571D02*
X6285759Y-5355524D01*
X6285759Y-5355524D02*
X6295283Y-5346000D01*
X6295283Y-5346000D02*
X6314331Y-5336476D01*
X6466712Y-5536476D02*
X6466712Y-5403143D01*
X6466712Y-5422190D02*
X6476236Y-5412667D01*
X6476236Y-5412667D02*
X6495283Y-5403143D01*
X6495283Y-5403143D02*
X6523855Y-5403143D01*
X6523855Y-5403143D02*
X6542902Y-5412667D01*
X6542902Y-5412667D02*
X6552426Y-5431714D01*
X6552426Y-5431714D02*
X6552426Y-5536476D01*
X6552426Y-5431714D02*
X6561950Y-5412667D01*
X6561950Y-5412667D02*
X6580998Y-5403143D01*
X6580998Y-5403143D02*
X6609569Y-5403143D01*
X6609569Y-5403143D02*
X6628617Y-5412667D01*
X6628617Y-5412667D02*
X6638140Y-5431714D01*
X6638140Y-5431714D02*
X6638140Y-5536476D01*
X6733379Y-5536476D02*
X6733379Y-5403143D01*
X6733379Y-5422190D02*
X6742902Y-5412667D01*
X6742902Y-5412667D02*
X6761950Y-5403143D01*
X6761950Y-5403143D02*
X6790521Y-5403143D01*
X6790521Y-5403143D02*
X6809569Y-5412667D01*
X6809569Y-5412667D02*
X6819093Y-5431714D01*
X6819093Y-5431714D02*
X6819093Y-5536476D01*
X6819093Y-5431714D02*
X6828617Y-5412667D01*
X6828617Y-5412667D02*
X6847664Y-5403143D01*
X6847664Y-5403143D02*
X6876236Y-5403143D01*
X6876236Y-5403143D02*
X6895283Y-5412667D01*
X6895283Y-5412667D02*
X6904807Y-5431714D01*
X6904807Y-5431714D02*
X6904807Y-5536476D01*
X7262902Y-5326952D02*
X7091474Y-5584095D01*
X7487664Y-5336476D02*
X7506712Y-5336476D01*
X7506712Y-5336476D02*
X7525760Y-5346000D01*
X7525760Y-5346000D02*
X7535283Y-5355524D01*
X7535283Y-5355524D02*
X7544807Y-5374571D01*
X7544807Y-5374571D02*
X7554331Y-5412667D01*
X7554331Y-5412667D02*
X7554331Y-5460286D01*
X7554331Y-5460286D02*
X7544807Y-5498381D01*
X7544807Y-5498381D02*
X7535283Y-5517429D01*
X7535283Y-5517429D02*
X7525760Y-5526952D01*
X7525760Y-5526952D02*
X7506712Y-5536476D01*
X7506712Y-5536476D02*
X7487664Y-5536476D01*
X7487664Y-5536476D02*
X7468617Y-5526952D01*
X7468617Y-5526952D02*
X7459093Y-5517429D01*
X7459093Y-5517429D02*
X7449569Y-5498381D01*
X7449569Y-5498381D02*
X7440045Y-5460286D01*
X7440045Y-5460286D02*
X7440045Y-5412667D01*
X7440045Y-5412667D02*
X7449569Y-5374571D01*
X7449569Y-5374571D02*
X7459093Y-5355524D01*
X7459093Y-5355524D02*
X7468617Y-5346000D01*
X7468617Y-5346000D02*
X7487664Y-5336476D01*
X7640045Y-5517429D02*
X7649569Y-5526952D01*
X7649569Y-5526952D02*
X7640045Y-5536476D01*
X7640045Y-5536476D02*
X7630521Y-5526952D01*
X7630521Y-5526952D02*
X7640045Y-5517429D01*
X7640045Y-5517429D02*
X7640045Y-5536476D01*
X7840045Y-5536476D02*
X7725760Y-5536476D01*
X7782902Y-5536476D02*
X7782902Y-5336476D01*
X7782902Y-5336476D02*
X7763855Y-5365048D01*
X7763855Y-5365048D02*
X7744807Y-5384095D01*
X7744807Y-5384095D02*
X7725760Y-5393619D01*
X7916236Y-5355524D02*
X7925760Y-5346000D01*
X7925760Y-5346000D02*
X7944807Y-5336476D01*
X7944807Y-5336476D02*
X7992426Y-5336476D01*
X7992426Y-5336476D02*
X8011474Y-5346000D01*
X8011474Y-5346000D02*
X8020998Y-5355524D01*
X8020998Y-5355524D02*
X8030521Y-5374571D01*
X8030521Y-5374571D02*
X8030521Y-5393619D01*
X8030521Y-5393619D02*
X8020998Y-5422190D01*
X8020998Y-5422190D02*
X7906712Y-5536476D01*
X7906712Y-5536476D02*
X8030521Y-5536476D01*
X8201950Y-5336476D02*
X8163855Y-5336476D01*
X8163855Y-5336476D02*
X8144807Y-5346000D01*
X8144807Y-5346000D02*
X8135283Y-5355524D01*
X8135283Y-5355524D02*
X8116236Y-5384095D01*
X8116236Y-5384095D02*
X8106712Y-5422190D01*
X8106712Y-5422190D02*
X8106712Y-5498381D01*
X8106712Y-5498381D02*
X8116236Y-5517429D01*
X8116236Y-5517429D02*
X8125760Y-5526952D01*
X8125760Y-5526952D02*
X8144807Y-5536476D01*
X8144807Y-5536476D02*
X8182902Y-5536476D01*
X8182902Y-5536476D02*
X8201950Y-5526952D01*
X8201950Y-5526952D02*
X8211474Y-5517429D01*
X8211474Y-5517429D02*
X8220998Y-5498381D01*
X8220998Y-5498381D02*
X8220998Y-5450762D01*
X8220998Y-5450762D02*
X8211474Y-5431714D01*
X8211474Y-5431714D02*
X8201950Y-5422190D01*
X8201950Y-5422190D02*
X8182902Y-5412667D01*
X8182902Y-5412667D02*
X8144807Y-5412667D01*
X8144807Y-5412667D02*
X8125760Y-5422190D01*
X8125760Y-5422190D02*
X8116236Y-5431714D01*
X8116236Y-5431714D02*
X8106712Y-5450762D01*
X8344807Y-5336476D02*
X8363855Y-5336476D01*
X8363855Y-5336476D02*
X8382902Y-5346000D01*
X8382902Y-5346000D02*
X8392426Y-5355524D01*
X8392426Y-5355524D02*
X8401950Y-5374571D01*
X8401950Y-5374571D02*
X8411474Y-5412667D01*
X8411474Y-5412667D02*
X8411474Y-5460286D01*
X8411474Y-5460286D02*
X8401950Y-5498381D01*
X8401950Y-5498381D02*
X8392426Y-5517429D01*
X8392426Y-5517429D02*
X8382902Y-5526952D01*
X8382902Y-5526952D02*
X8363855Y-5536476D01*
X8363855Y-5536476D02*
X8344807Y-5536476D01*
X8344807Y-5536476D02*
X8325760Y-5526952D01*
X8325760Y-5526952D02*
X8316236Y-5517429D01*
X8316236Y-5517429D02*
X8306712Y-5498381D01*
X8306712Y-5498381D02*
X8297188Y-5460286D01*
X8297188Y-5460286D02*
X8297188Y-5412667D01*
X8297188Y-5412667D02*
X8306712Y-5374571D01*
X8306712Y-5374571D02*
X8316236Y-5355524D01*
X8316236Y-5355524D02*
X8325760Y-5346000D01*
X8325760Y-5346000D02*
X8344807Y-5336476D01*
X8487664Y-5336476D02*
X8487664Y-5374571D01*
X8563855Y-5336476D02*
X8563855Y-5374571D01*
X8826712Y-5612667D02*
X8817188Y-5603143D01*
X8817188Y-5603143D02*
X8798141Y-5574571D01*
X8798141Y-5574571D02*
X8788617Y-5555524D01*
X8788617Y-5555524D02*
X8779093Y-5526952D01*
X8779093Y-5526952D02*
X8769569Y-5479333D01*
X8769569Y-5479333D02*
X8769569Y-5441238D01*
X8769569Y-5441238D02*
X8779093Y-5393619D01*
X8779093Y-5393619D02*
X8788617Y-5365048D01*
X8788617Y-5365048D02*
X8798141Y-5346000D01*
X8798141Y-5346000D02*
X8817188Y-5317429D01*
X8817188Y-5317429D02*
X8826712Y-5307905D01*
X8988617Y-5403143D02*
X8988617Y-5536476D01*
X8940998Y-5326952D02*
X8893379Y-5469810D01*
X8893379Y-5469810D02*
X9017188Y-5469810D01*
X9213379Y-5536476D02*
X9213379Y-5336476D01*
X9299093Y-5536476D02*
X9299093Y-5431714D01*
X9299093Y-5431714D02*
X9289569Y-5412667D01*
X9289569Y-5412667D02*
X9270522Y-5403143D01*
X9270522Y-5403143D02*
X9241950Y-5403143D01*
X9241950Y-5403143D02*
X9222903Y-5412667D01*
X9222903Y-5412667D02*
X9213379Y-5422190D01*
X9422903Y-5536476D02*
X9403855Y-5526952D01*
X9403855Y-5526952D02*
X9394331Y-5517429D01*
X9394331Y-5517429D02*
X9384807Y-5498381D01*
X9384807Y-5498381D02*
X9384807Y-5441238D01*
X9384807Y-5441238D02*
X9394331Y-5422190D01*
X9394331Y-5422190D02*
X9403855Y-5412667D01*
X9403855Y-5412667D02*
X9422903Y-5403143D01*
X9422903Y-5403143D02*
X9451474Y-5403143D01*
X9451474Y-5403143D02*
X9470522Y-5412667D01*
X9470522Y-5412667D02*
X9480045Y-5422190D01*
X9480045Y-5422190D02*
X9489569Y-5441238D01*
X9489569Y-5441238D02*
X9489569Y-5498381D01*
X9489569Y-5498381D02*
X9480045Y-5517429D01*
X9480045Y-5517429D02*
X9470522Y-5526952D01*
X9470522Y-5526952D02*
X9451474Y-5536476D01*
X9451474Y-5536476D02*
X9422903Y-5536476D01*
X9603855Y-5536476D02*
X9584807Y-5526952D01*
X9584807Y-5526952D02*
X9575284Y-5507905D01*
X9575284Y-5507905D02*
X9575284Y-5336476D01*
X9756236Y-5526952D02*
X9737188Y-5536476D01*
X9737188Y-5536476D02*
X9699093Y-5536476D01*
X9699093Y-5536476D02*
X9680045Y-5526952D01*
X9680045Y-5526952D02*
X9670522Y-5507905D01*
X9670522Y-5507905D02*
X9670522Y-5431714D01*
X9670522Y-5431714D02*
X9680045Y-5412667D01*
X9680045Y-5412667D02*
X9699093Y-5403143D01*
X9699093Y-5403143D02*
X9737188Y-5403143D01*
X9737188Y-5403143D02*
X9756236Y-5412667D01*
X9756236Y-5412667D02*
X9765760Y-5431714D01*
X9765760Y-5431714D02*
X9765760Y-5450762D01*
X9765760Y-5450762D02*
X9670522Y-5469810D01*
X9841950Y-5526952D02*
X9860998Y-5536476D01*
X9860998Y-5536476D02*
X9899093Y-5536476D01*
X9899093Y-5536476D02*
X9918141Y-5526952D01*
X9918141Y-5526952D02*
X9927665Y-5507905D01*
X9927665Y-5507905D02*
X9927665Y-5498381D01*
X9927665Y-5498381D02*
X9918141Y-5479333D01*
X9918141Y-5479333D02*
X9899093Y-5469810D01*
X9899093Y-5469810D02*
X9870522Y-5469810D01*
X9870522Y-5469810D02*
X9851474Y-5460286D01*
X9851474Y-5460286D02*
X9841950Y-5441238D01*
X9841950Y-5441238D02*
X9841950Y-5431714D01*
X9841950Y-5431714D02*
X9851474Y-5412667D01*
X9851474Y-5412667D02*
X9870522Y-5403143D01*
X9870522Y-5403143D02*
X9899093Y-5403143D01*
X9899093Y-5403143D02*
X9918141Y-5412667D01*
X9994331Y-5612667D02*
X10003855Y-5603143D01*
X10003855Y-5603143D02*
X10022903Y-5574571D01*
X10022903Y-5574571D02*
X10032426Y-5555524D01*
X10032426Y-5555524D02*
X10041950Y-5526952D01*
X10041950Y-5526952D02*
X10051474Y-5479333D01*
X10051474Y-5479333D02*
X10051474Y-5441238D01*
X10051474Y-5441238D02*
X10041950Y-5393619D01*
X10041950Y-5393619D02*
X10032426Y-5365048D01*
X10032426Y-5365048D02*
X10022903Y-5346000D01*
X10022903Y-5346000D02*
X10003855Y-5317429D01*
X10003855Y-5317429D02*
X9994331Y-5307905D01*
X10323855Y-5612667D02*
X10314331Y-5603143D01*
X10314331Y-5603143D02*
X10295284Y-5574571D01*
X10295284Y-5574571D02*
X10285760Y-5555524D01*
X10285760Y-5555524D02*
X10276236Y-5526952D01*
X10276236Y-5526952D02*
X10266712Y-5479333D01*
X10266712Y-5479333D02*
X10266712Y-5441238D01*
X10266712Y-5441238D02*
X10276236Y-5393619D01*
X10276236Y-5393619D02*
X10285760Y-5365048D01*
X10285760Y-5365048D02*
X10295284Y-5346000D01*
X10295284Y-5346000D02*
X10314331Y-5317429D01*
X10314331Y-5317429D02*
X10323855Y-5307905D01*
X10400045Y-5403143D02*
X10400045Y-5536476D01*
X10400045Y-5422190D02*
X10409569Y-5412667D01*
X10409569Y-5412667D02*
X10428617Y-5403143D01*
X10428617Y-5403143D02*
X10457188Y-5403143D01*
X10457188Y-5403143D02*
X10476236Y-5412667D01*
X10476236Y-5412667D02*
X10485760Y-5431714D01*
X10485760Y-5431714D02*
X10485760Y-5536476D01*
X10609569Y-5536476D02*
X10590522Y-5526952D01*
X10590522Y-5526952D02*
X10580998Y-5517429D01*
X10580998Y-5517429D02*
X10571474Y-5498381D01*
X10571474Y-5498381D02*
X10571474Y-5441238D01*
X10571474Y-5441238D02*
X10580998Y-5422190D01*
X10580998Y-5422190D02*
X10590522Y-5412667D01*
X10590522Y-5412667D02*
X10609569Y-5403143D01*
X10609569Y-5403143D02*
X10638141Y-5403143D01*
X10638141Y-5403143D02*
X10657188Y-5412667D01*
X10657188Y-5412667D02*
X10666712Y-5422190D01*
X10666712Y-5422190D02*
X10676236Y-5441238D01*
X10676236Y-5441238D02*
X10676236Y-5498381D01*
X10676236Y-5498381D02*
X10666712Y-5517429D01*
X10666712Y-5517429D02*
X10657188Y-5526952D01*
X10657188Y-5526952D02*
X10638141Y-5536476D01*
X10638141Y-5536476D02*
X10609569Y-5536476D01*
X10733379Y-5403143D02*
X10809569Y-5403143D01*
X10761950Y-5336476D02*
X10761950Y-5507905D01*
X10761950Y-5507905D02*
X10771474Y-5526952D01*
X10771474Y-5526952D02*
X10790522Y-5536476D01*
X10790522Y-5536476D02*
X10809569Y-5536476D01*
X10996236Y-5403143D02*
X10996236Y-5603143D01*
X10996236Y-5412667D02*
X11015284Y-5403143D01*
X11015284Y-5403143D02*
X11053379Y-5403143D01*
X11053379Y-5403143D02*
X11072426Y-5412667D01*
X11072426Y-5412667D02*
X11081950Y-5422190D01*
X11081950Y-5422190D02*
X11091474Y-5441238D01*
X11091474Y-5441238D02*
X11091474Y-5498381D01*
X11091474Y-5498381D02*
X11081950Y-5517429D01*
X11081950Y-5517429D02*
X11072426Y-5526952D01*
X11072426Y-5526952D02*
X11053379Y-5536476D01*
X11053379Y-5536476D02*
X11015284Y-5536476D01*
X11015284Y-5536476D02*
X10996236Y-5526952D01*
X11205760Y-5536476D02*
X11186712Y-5526952D01*
X11186712Y-5526952D02*
X11177188Y-5507905D01*
X11177188Y-5507905D02*
X11177188Y-5336476D01*
X11367664Y-5536476D02*
X11367664Y-5431714D01*
X11367664Y-5431714D02*
X11358141Y-5412667D01*
X11358141Y-5412667D02*
X11339093Y-5403143D01*
X11339093Y-5403143D02*
X11300998Y-5403143D01*
X11300998Y-5403143D02*
X11281950Y-5412667D01*
X11367664Y-5526952D02*
X11348617Y-5536476D01*
X11348617Y-5536476D02*
X11300998Y-5536476D01*
X11300998Y-5536476D02*
X11281950Y-5526952D01*
X11281950Y-5526952D02*
X11272426Y-5507905D01*
X11272426Y-5507905D02*
X11272426Y-5488857D01*
X11272426Y-5488857D02*
X11281950Y-5469810D01*
X11281950Y-5469810D02*
X11300998Y-5460286D01*
X11300998Y-5460286D02*
X11348617Y-5460286D01*
X11348617Y-5460286D02*
X11367664Y-5450762D01*
X11434331Y-5403143D02*
X11510522Y-5403143D01*
X11462903Y-5336476D02*
X11462903Y-5507905D01*
X11462903Y-5507905D02*
X11472426Y-5526952D01*
X11472426Y-5526952D02*
X11491474Y-5536476D01*
X11491474Y-5536476D02*
X11510522Y-5536476D01*
X11653379Y-5526952D02*
X11634331Y-5536476D01*
X11634331Y-5536476D02*
X11596236Y-5536476D01*
X11596236Y-5536476D02*
X11577188Y-5526952D01*
X11577188Y-5526952D02*
X11567664Y-5507905D01*
X11567664Y-5507905D02*
X11567664Y-5431714D01*
X11567664Y-5431714D02*
X11577188Y-5412667D01*
X11577188Y-5412667D02*
X11596236Y-5403143D01*
X11596236Y-5403143D02*
X11634331Y-5403143D01*
X11634331Y-5403143D02*
X11653379Y-5412667D01*
X11653379Y-5412667D02*
X11662903Y-5431714D01*
X11662903Y-5431714D02*
X11662903Y-5450762D01*
X11662903Y-5450762D02*
X11567664Y-5469810D01*
X11834331Y-5536476D02*
X11834331Y-5336476D01*
X11834331Y-5526952D02*
X11815284Y-5536476D01*
X11815284Y-5536476D02*
X11777188Y-5536476D01*
X11777188Y-5536476D02*
X11758141Y-5526952D01*
X11758141Y-5526952D02*
X11748617Y-5517429D01*
X11748617Y-5517429D02*
X11739093Y-5498381D01*
X11739093Y-5498381D02*
X11739093Y-5441238D01*
X11739093Y-5441238D02*
X11748617Y-5422190D01*
X11748617Y-5422190D02*
X11758141Y-5412667D01*
X11758141Y-5412667D02*
X11777188Y-5403143D01*
X11777188Y-5403143D02*
X11815284Y-5403143D01*
X11815284Y-5403143D02*
X11834331Y-5412667D01*
X11910522Y-5612667D02*
X11920045Y-5603143D01*
X11920045Y-5603143D02*
X11939093Y-5574571D01*
X11939093Y-5574571D02*
X11948617Y-5555524D01*
X11948617Y-5555524D02*
X11958141Y-5526952D01*
X11958141Y-5526952D02*
X11967664Y-5479333D01*
X11967664Y-5479333D02*
X11967664Y-5441238D01*
X11967664Y-5441238D02*
X11958141Y-5393619D01*
X11958141Y-5393619D02*
X11948617Y-5365048D01*
X11948617Y-5365048D02*
X11939093Y-5346000D01*
X11939093Y-5346000D02*
X11920045Y-5317429D01*
X11920045Y-5317429D02*
X11910522Y-5307905D01*
M02*
