%TF.GenerationSoftware,KiCad,Pcbnew,7.0.9*%
%TF.CreationDate,2024-01-10T21:16:10+01:00*%
%TF.ProjectId,TemperatureLM135,54656d70-6572-4617-9475-72654c4d3133,1.3*%
%TF.SameCoordinates,Original*%
%TF.FileFunction,Legend,Top*%
%TF.FilePolarity,Positive*%
%FSLAX46Y46*%
G04 Gerber Fmt 4.6, Leading zero omitted, Abs format (unit mm)*
G04 Created by KiCad (PCBNEW 7.0.9) date 2024-01-10 21:16:10*
%MOMM*%
%LPD*%
G01*
G04 APERTURE LIST*
%ADD10C,0.150000*%
%ADD11C,0.170004*%
%ADD12C,0.100000*%
%ADD13C,0.120000*%
G04 APERTURE END LIST*
D10*
X61999905Y-33016819D02*
X61999905Y-32016819D01*
X62476095Y-32350152D02*
X62476095Y-33016819D01*
X62476095Y-32445390D02*
X62523714Y-32397771D01*
X62523714Y-32397771D02*
X62618952Y-32350152D01*
X62618952Y-32350152D02*
X62761809Y-32350152D01*
X62761809Y-32350152D02*
X62857047Y-32397771D01*
X62857047Y-32397771D02*
X62904666Y-32493009D01*
X62904666Y-32493009D02*
X62904666Y-33016819D01*
X63238000Y-32350152D02*
X63618952Y-32350152D01*
X63380857Y-32016819D02*
X63380857Y-32873961D01*
X63380857Y-32873961D02*
X63428476Y-32969200D01*
X63428476Y-32969200D02*
X63523714Y-33016819D01*
X63523714Y-33016819D02*
X63618952Y-33016819D01*
X69199238Y-40494009D02*
X69532571Y-40494009D01*
X69675428Y-41017819D02*
X69199238Y-41017819D01*
X69199238Y-41017819D02*
X69199238Y-40017819D01*
X69199238Y-40017819D02*
X69675428Y-40017819D01*
X70008762Y-41017819D02*
X70532571Y-40351152D01*
X70008762Y-40351152D02*
X70532571Y-41017819D01*
X70770667Y-40351152D02*
X71151619Y-40351152D01*
X70913524Y-40017819D02*
X70913524Y-40874961D01*
X70913524Y-40874961D02*
X70961143Y-40970200D01*
X70961143Y-40970200D02*
X71056381Y-41017819D01*
X71056381Y-41017819D02*
X71151619Y-41017819D01*
X63841523Y-40001819D02*
X63365333Y-40001819D01*
X63365333Y-40001819D02*
X63365333Y-39001819D01*
X64174857Y-40001819D02*
X64174857Y-39001819D01*
X64174857Y-39001819D02*
X64508190Y-39716104D01*
X64508190Y-39716104D02*
X64841523Y-39001819D01*
X64841523Y-39001819D02*
X64841523Y-40001819D01*
X65841523Y-40001819D02*
X65270095Y-40001819D01*
X65555809Y-40001819D02*
X65555809Y-39001819D01*
X65555809Y-39001819D02*
X65460571Y-39144676D01*
X65460571Y-39144676D02*
X65365333Y-39239914D01*
X65365333Y-39239914D02*
X65270095Y-39287533D01*
X66174857Y-39001819D02*
X66793904Y-39001819D01*
X66793904Y-39001819D02*
X66460571Y-39382771D01*
X66460571Y-39382771D02*
X66603428Y-39382771D01*
X66603428Y-39382771D02*
X66698666Y-39430390D01*
X66698666Y-39430390D02*
X66746285Y-39478009D01*
X66746285Y-39478009D02*
X66793904Y-39573247D01*
X66793904Y-39573247D02*
X66793904Y-39811342D01*
X66793904Y-39811342D02*
X66746285Y-39906580D01*
X66746285Y-39906580D02*
X66698666Y-39954200D01*
X66698666Y-39954200D02*
X66603428Y-40001819D01*
X66603428Y-40001819D02*
X66317714Y-40001819D01*
X66317714Y-40001819D02*
X66222476Y-39954200D01*
X66222476Y-39954200D02*
X66174857Y-39906580D01*
X67698666Y-39001819D02*
X67222476Y-39001819D01*
X67222476Y-39001819D02*
X67174857Y-39478009D01*
X67174857Y-39478009D02*
X67222476Y-39430390D01*
X67222476Y-39430390D02*
X67317714Y-39382771D01*
X67317714Y-39382771D02*
X67555809Y-39382771D01*
X67555809Y-39382771D02*
X67651047Y-39430390D01*
X67651047Y-39430390D02*
X67698666Y-39478009D01*
X67698666Y-39478009D02*
X67746285Y-39573247D01*
X67746285Y-39573247D02*
X67746285Y-39811342D01*
X67746285Y-39811342D02*
X67698666Y-39906580D01*
X67698666Y-39906580D02*
X67651047Y-39954200D01*
X67651047Y-39954200D02*
X67555809Y-40001819D01*
X67555809Y-40001819D02*
X67317714Y-40001819D01*
X67317714Y-40001819D02*
X67222476Y-39954200D01*
X67222476Y-39954200D02*
X67174857Y-39906580D01*
X70581366Y-39095951D02*
X70581366Y-38334047D01*
X70962319Y-38714999D02*
X70200414Y-38714999D01*
X70549604Y-34563570D02*
X70549604Y-34087380D01*
X70835319Y-34658808D02*
X69835319Y-34325475D01*
X69835319Y-34325475D02*
X70835319Y-33992142D01*
X70835319Y-33230237D02*
X69835319Y-33230237D01*
X70787700Y-33230237D02*
X70835319Y-33325475D01*
X70835319Y-33325475D02*
X70835319Y-33515951D01*
X70835319Y-33515951D02*
X70787700Y-33611189D01*
X70787700Y-33611189D02*
X70740080Y-33658808D01*
X70740080Y-33658808D02*
X70644842Y-33706427D01*
X70644842Y-33706427D02*
X70359128Y-33706427D01*
X70359128Y-33706427D02*
X70263890Y-33658808D01*
X70263890Y-33658808D02*
X70216271Y-33611189D01*
X70216271Y-33611189D02*
X70168652Y-33515951D01*
X70168652Y-33515951D02*
X70168652Y-33325475D01*
X70168652Y-33325475D02*
X70216271Y-33230237D01*
X70168652Y-32754046D02*
X71025795Y-32754046D01*
X71025795Y-32754046D02*
X71121033Y-32801665D01*
X71121033Y-32801665D02*
X71168652Y-32896903D01*
X71168652Y-32896903D02*
X71168652Y-32944522D01*
X69835319Y-32754046D02*
X69882938Y-32801665D01*
X69882938Y-32801665D02*
X69930557Y-32754046D01*
X69930557Y-32754046D02*
X69882938Y-32706427D01*
X69882938Y-32706427D02*
X69835319Y-32754046D01*
X69835319Y-32754046D02*
X69930557Y-32754046D01*
X70581366Y-36555951D02*
X70581366Y-35794047D01*
D11*
X65854217Y-43410022D02*
X65862687Y-43417463D01*
X60052864Y-43041291D02*
X60041573Y-43043934D01*
X65934430Y-43640356D02*
X65931823Y-43651806D01*
X67886924Y-42931958D02*
X67879201Y-42948796D01*
X68212764Y-43067038D02*
X68218837Y-43057433D01*
X62265642Y-42244739D02*
X62243453Y-42268921D01*
X69721965Y-42673571D02*
X69733080Y-42688192D01*
X63194267Y-42350285D02*
X63215506Y-42348493D01*
X64521793Y-43364961D02*
X64513323Y-43372402D01*
X63244931Y-44032296D02*
X63223429Y-44030995D01*
X68523621Y-43397889D02*
X68513557Y-43403117D01*
X65814111Y-44174240D02*
X65848850Y-44166502D01*
X60514308Y-42542829D02*
X60495764Y-42508889D01*
X60401668Y-43235949D02*
X60415053Y-43222289D01*
X64400403Y-42955784D02*
X64411895Y-42957867D01*
X69754275Y-42718413D02*
X69764353Y-42734010D01*
X65937968Y-43616858D02*
X65936483Y-43628702D01*
X62675551Y-43739783D02*
X62663469Y-43724361D01*
X68992511Y-43254041D02*
X68994393Y-43232817D01*
X62815025Y-43875761D02*
X62799696Y-43863831D01*
X59864054Y-42615771D02*
X59873525Y-42609613D01*
X69774085Y-43634625D02*
X69764353Y-43650296D01*
X64383332Y-44041807D02*
X64402178Y-44017205D01*
X68400370Y-43426157D02*
X68388519Y-43425243D01*
X63373456Y-44029275D02*
X63352565Y-44031052D01*
X69881713Y-43063732D02*
X69884193Y-43084220D01*
X68193131Y-43271133D02*
X68189461Y-43260136D01*
X59903702Y-43030138D02*
X59893363Y-43025397D01*
X68673107Y-42660197D02*
X68673107Y-42396548D01*
X66117153Y-44012421D02*
X66140784Y-43987171D01*
X68015829Y-42755598D02*
X67990062Y-42781327D01*
X69956233Y-44253112D02*
X69982109Y-44234157D01*
X60223214Y-42859734D02*
X60220607Y-42871185D01*
X65925006Y-43674035D02*
X65920826Y-43684783D01*
X65256311Y-43215194D02*
X65241004Y-43234747D01*
X64513323Y-43007120D02*
X64521793Y-43014561D01*
X64261245Y-42194813D02*
X64237287Y-42172713D01*
X65910994Y-43479852D02*
X65916150Y-43490058D01*
X69648069Y-43790409D02*
X69634576Y-43802603D01*
X68015829Y-43623924D02*
X68043125Y-43647999D01*
X63759870Y-43879355D02*
X63744359Y-43890810D01*
X63813405Y-41912573D02*
X63781046Y-41900327D01*
X64946522Y-43237586D02*
X64947929Y-43213796D01*
X69133456Y-43982756D02*
X69111878Y-43982972D01*
X64840882Y-42847389D02*
X64814198Y-42812171D01*
X64438178Y-43966731D02*
X64455332Y-43940857D01*
X68376840Y-43423737D02*
X68365348Y-43421655D01*
X59587417Y-43235949D02*
X59615462Y-43261925D01*
X63152538Y-42355401D02*
X63173277Y-42352588D01*
X62872311Y-42456946D02*
X62888965Y-42447049D01*
X65448332Y-43061324D02*
X65426314Y-43072923D01*
X68388519Y-43425243D02*
X68376840Y-43423737D01*
X67871988Y-42965918D02*
X67865295Y-42983312D01*
X69401474Y-44486380D02*
X69436036Y-44479618D01*
X69237788Y-42404795D02*
X69257949Y-42407764D01*
X68513557Y-43403117D02*
X68503218Y-43407859D01*
X69875282Y-42070502D02*
X69847193Y-42054061D01*
X62830658Y-43887316D02*
X62815025Y-43875761D01*
X70398063Y-43680653D02*
X70409371Y-43650000D01*
X69754275Y-43665669D02*
X69743850Y-43680743D01*
X69648069Y-42592865D02*
X69661231Y-42605450D01*
X70419899Y-42754201D02*
X70409371Y-42723473D01*
X59994543Y-43048745D02*
X59982534Y-43048437D01*
X65836247Y-43396393D02*
X65845399Y-43402994D01*
X60223214Y-42764347D02*
X60225267Y-42776002D01*
X64931922Y-43329947D02*
X64936882Y-43307313D01*
X69875412Y-43023375D02*
X69878786Y-43043450D01*
X65705759Y-43355958D02*
X65717767Y-43356266D01*
X62534583Y-42896330D02*
X62541165Y-42877141D01*
X60006551Y-43048437D02*
X59994543Y-43048745D01*
X68186314Y-43248905D02*
X68183707Y-43237455D01*
X69603018Y-41944497D02*
X69570395Y-41933934D01*
X62491004Y-43139455D02*
X62492138Y-43118312D01*
X62710598Y-42591704D02*
X62723699Y-42577498D01*
X64445106Y-43412098D02*
X64434261Y-43415820D01*
X65590790Y-43012233D02*
X65565938Y-43017847D01*
X63775131Y-44479532D02*
X63807713Y-44467364D01*
X69295447Y-41877545D02*
X69259321Y-41874016D01*
X62487053Y-44327391D02*
X62514770Y-44345342D01*
X63355709Y-44560447D02*
X63392658Y-44558327D01*
X59483783Y-42525689D02*
X59474777Y-42542829D01*
X63675191Y-44511055D02*
X63708869Y-44501379D01*
X59444306Y-43009521D02*
X59458408Y-43045998D01*
X63859049Y-43788322D02*
X63845890Y-43802483D01*
X68605920Y-43322089D02*
X68599411Y-43331369D01*
X65482841Y-43522288D02*
X65486512Y-43511291D01*
X63647876Y-41859748D02*
X63613647Y-41851707D01*
X63845391Y-41925657D02*
X63813405Y-41912573D01*
X63579044Y-41844510D02*
X63544065Y-41838157D01*
X69929803Y-44271474D02*
X69956233Y-44253112D01*
X65540723Y-43760024D02*
X65532994Y-43751802D01*
X64544967Y-43039210D02*
X64551897Y-43048153D01*
X62862830Y-43909302D02*
X62846592Y-43898495D01*
X64323425Y-44113077D02*
X64343955Y-44089742D01*
X59761127Y-42812041D02*
X59761431Y-42799863D01*
X64434261Y-42963701D02*
X64445106Y-42967424D01*
X68690878Y-43709910D02*
X68708283Y-43699904D01*
X64485882Y-43392188D02*
X64476108Y-43397889D01*
X66065705Y-44058522D02*
X66092105Y-44036228D01*
X59784151Y-42914646D02*
X59779476Y-42904161D01*
X63111811Y-42362553D02*
X63132050Y-42358723D01*
X68291361Y-43392188D02*
X68281890Y-43386030D01*
X64587782Y-43119386D02*
X64590928Y-43130617D01*
X69196763Y-42400219D02*
X69217393Y-42402280D01*
X60296601Y-43318478D02*
X60312749Y-43308172D01*
X70103146Y-44130536D02*
X70125684Y-44108094D01*
X60505302Y-43098393D02*
X60514308Y-43081253D01*
X69982109Y-44234157D02*
X70007429Y-44214610D01*
X59765871Y-42859734D02*
X59763818Y-42848080D01*
X65512217Y-43460335D02*
X65518726Y-43451055D01*
X64177831Y-43331369D02*
X64171322Y-43322089D01*
X63427447Y-42359055D02*
X63447562Y-42362994D01*
X64580582Y-43739754D02*
X64601229Y-43730939D01*
X65899300Y-43460335D02*
X65905373Y-43469939D01*
X69577285Y-42535357D02*
X69592105Y-42546135D01*
X67859133Y-43000968D02*
X67853511Y-43018877D01*
X68977804Y-43336587D02*
X68982531Y-43316329D01*
X61972850Y-43667365D02*
X61984495Y-43698780D01*
X62700855Y-43769747D02*
X62688013Y-43754911D01*
X60227654Y-42799863D02*
X60227957Y-42812041D01*
X62407146Y-44269959D02*
X62433242Y-44289701D01*
X62727588Y-43798501D02*
X62714074Y-43784292D01*
X69710506Y-42659279D02*
X69721965Y-42673571D01*
X63905688Y-43731345D02*
X63890705Y-43750786D01*
X63695819Y-43922836D02*
X63678971Y-43932729D01*
X63887283Y-42632521D02*
X63902527Y-42651603D01*
X59536569Y-42445325D02*
X59525016Y-42460648D01*
X59412398Y-42853241D02*
X59416517Y-42893682D01*
X63079861Y-44007244D02*
X63060352Y-44001750D01*
X59574032Y-42401793D02*
X59561088Y-42415886D01*
X69871593Y-43003506D02*
X69875412Y-43023375D01*
X65473550Y-43568467D02*
X65475034Y-43556624D01*
X68181654Y-43153722D02*
X68183707Y-43142068D01*
X60143001Y-42629400D02*
X60151471Y-42636840D01*
X69743850Y-43680743D02*
X69733080Y-43695519D01*
X69792510Y-43602390D02*
X69783471Y-43618656D01*
X64131973Y-44288115D02*
X64158133Y-44268063D01*
X68388519Y-42954279D02*
X68400370Y-42953364D01*
X62547441Y-42017766D02*
X62519034Y-42035283D01*
X64590928Y-43130617D02*
X64593535Y-43142068D01*
X65473550Y-43616858D02*
X65472648Y-43604840D01*
X68944257Y-42946024D02*
X68926455Y-42909553D01*
X69185893Y-44510198D02*
X69222804Y-44508218D01*
X64109360Y-42071136D02*
X64082159Y-42052602D01*
X62571857Y-43572107D02*
X62563588Y-43553668D01*
X61935112Y-42848334D02*
X61927332Y-42881213D01*
X60227957Y-42812041D02*
X60227654Y-42824218D01*
X70209365Y-42362532D02*
X70189415Y-42338140D01*
X60213790Y-42730669D02*
X60217460Y-42741666D01*
X60174645Y-42661490D02*
X60181575Y-42670432D01*
X69801201Y-43585828D02*
X69792510Y-43602390D01*
X60074784Y-43034378D02*
X60063939Y-43038100D01*
X68906305Y-42874552D02*
X68883912Y-42841127D01*
X69392576Y-42441156D02*
X69410889Y-42447715D01*
X61900567Y-43337296D02*
X61904182Y-43371589D01*
X67833846Y-43111857D02*
X67831671Y-43131070D01*
X64544967Y-43340312D02*
X64537629Y-43348901D01*
X69366522Y-41886951D02*
X69331180Y-41881857D01*
X59829507Y-42644679D02*
X59837614Y-42636840D01*
X63737810Y-42492584D02*
X63753555Y-42504162D01*
X63132050Y-42358723D02*
X63152538Y-42355401D01*
X59807510Y-42670432D02*
X59814440Y-42661490D01*
X69297570Y-42415058D02*
X69317033Y-42419381D01*
X70209365Y-44013303D02*
X70228667Y-43988347D01*
X64521793Y-43014561D02*
X64529900Y-43022399D01*
X65124549Y-43539473D02*
X65122808Y-43565917D01*
X64944200Y-43261115D02*
X64946522Y-43237586D01*
X59982534Y-43048437D02*
X59970683Y-43047522D01*
X59801001Y-42679713D02*
X59807510Y-42670432D01*
X65490692Y-43500542D02*
X65495367Y-43490058D01*
X62688013Y-43754911D02*
X62675551Y-43739783D01*
X62940922Y-42419724D02*
X62958912Y-42411406D01*
X62827194Y-41888921D02*
X62794257Y-41900327D01*
X64284623Y-43412098D02*
X64274024Y-43407859D01*
X59925146Y-42585981D02*
X59936221Y-42582790D01*
X64134140Y-43153722D02*
X64136193Y-43142068D01*
X63571967Y-44535074D02*
X63606739Y-44527904D01*
X60085383Y-42593942D02*
X60095722Y-42598684D01*
X62650086Y-42667240D02*
X62661479Y-42651568D01*
X62501217Y-43337270D02*
X62498267Y-43316665D01*
X59525016Y-42460648D02*
X59513949Y-42476357D01*
X63302318Y-42346448D02*
X63323700Y-42347236D01*
X60475136Y-42476357D02*
X60452517Y-42445325D01*
X70454213Y-43492343D02*
X70460842Y-43459926D01*
X59411355Y-42791351D02*
X59411005Y-42812041D01*
X68263920Y-43372402D02*
X68255450Y-43364961D01*
X68994393Y-43232817D02*
X68995533Y-43211386D01*
X70330853Y-42546917D02*
X70315446Y-42519117D01*
X62490323Y-43160753D02*
X62491004Y-43139455D01*
X62490323Y-43211305D02*
X62490096Y-43189760D01*
X61914226Y-42947810D02*
X61908900Y-42981529D01*
X59779476Y-42904161D02*
X59775295Y-42893413D01*
X64154473Y-43292366D02*
X64149797Y-43281882D01*
X68804314Y-43628152D02*
X68818798Y-43614365D01*
X65472344Y-43592663D02*
X65472648Y-43580485D01*
X63832728Y-43433044D02*
X63845792Y-43460476D01*
X65947975Y-44131210D02*
X65979091Y-44115647D01*
X64601229Y-43730939D02*
X64621464Y-43721354D01*
X69884193Y-43304420D02*
X69881713Y-43325034D01*
X68447917Y-42955784D02*
X68459409Y-42957867D01*
X63033359Y-42382943D02*
X63052597Y-42377087D01*
X64539036Y-42575367D02*
X64524779Y-42546753D01*
X63041096Y-43995729D02*
X63022093Y-43989179D01*
X69783471Y-42766167D02*
X69792510Y-42782723D01*
X59427603Y-42671365D02*
X59423268Y-42690811D01*
X63860186Y-43487100D02*
X63875866Y-43512871D01*
X69886225Y-43104915D02*
X69887807Y-43125817D01*
X62541165Y-43496615D02*
X62534583Y-43477224D01*
X70282682Y-42464975D02*
X70265326Y-42438633D01*
X63841510Y-42581521D02*
X63855076Y-42595733D01*
X59601230Y-42374917D02*
X59587417Y-42388132D01*
X69634576Y-43802603D02*
X69620751Y-43814423D01*
X59883299Y-42603912D02*
X59893363Y-42598684D01*
X59914301Y-42589703D02*
X59925146Y-42585981D01*
X64154473Y-43087156D02*
X64159628Y-43076950D01*
X63508710Y-41832648D02*
X63472980Y-41827985D01*
X69729331Y-41994274D02*
X69698493Y-41980820D01*
X63788883Y-43285298D02*
X63794643Y-43316112D01*
X64376872Y-43426157D02*
X64364864Y-43426465D01*
X70484238Y-43259121D02*
X70485408Y-43224594D01*
X68638442Y-43248905D02*
X68635296Y-43260136D01*
X65916150Y-43490058D02*
X65920826Y-43500542D01*
X63681729Y-41868631D02*
X63647876Y-41859748D01*
X70228667Y-43988347D02*
X70247321Y-43962887D01*
X64131753Y-43177584D02*
X64132655Y-43165566D01*
X69464255Y-43911887D02*
X69446780Y-43919544D01*
X59789307Y-42924852D02*
X59784151Y-42914646D01*
X69148585Y-41868133D02*
X69110884Y-41867741D01*
X64593535Y-43237455D02*
X64590928Y-43248905D01*
X62157560Y-44015258D02*
X62177168Y-44041017D01*
X64570100Y-43302572D02*
X64564478Y-43312485D01*
X63392658Y-44558327D02*
X63429245Y-44555361D01*
X59615462Y-42362157D02*
X59601230Y-42374917D01*
D12*
X55854600Y-31115000D02*
X58166000Y-31115000D01*
X58166000Y-48768000D01*
X55854600Y-48768000D01*
X55854600Y-31115000D01*
D11*
X69878786Y-43345382D02*
X69875412Y-43365463D01*
X69888938Y-43146925D02*
X69889618Y-43168240D01*
X64352856Y-43426157D02*
X64341005Y-43425243D01*
X70359717Y-42603973D02*
X70345610Y-42575202D01*
X65363719Y-43113075D02*
X65344088Y-43128159D01*
X64284658Y-42217509D02*
X64261245Y-42194813D01*
X70373172Y-43741026D02*
X70385975Y-43711015D01*
X63022093Y-43989179D02*
X63003344Y-43982101D01*
X64026150Y-42017315D02*
X63997347Y-42000559D01*
X68459409Y-42957867D02*
X68470700Y-42960511D01*
X62853980Y-44501379D02*
X62887448Y-44511055D01*
X62069145Y-43878901D02*
X62085538Y-43907182D01*
X70265326Y-43936923D02*
X70282682Y-43910455D01*
X67965904Y-43570893D02*
X67990062Y-43598195D01*
X69498208Y-42486914D02*
X69514686Y-42495875D01*
X63096318Y-44551552D02*
X63132456Y-44555361D01*
X64593535Y-43142068D02*
X64595589Y-43153722D01*
X63827631Y-42567687D02*
X63841510Y-42581521D01*
X68197312Y-43097641D02*
X68201987Y-43087156D01*
X64136193Y-43237455D02*
X64134140Y-43225800D01*
X62928186Y-41859748D02*
X62894157Y-41868631D01*
X64207936Y-43014561D02*
X64216406Y-43007120D01*
X64426614Y-42384951D02*
X64408146Y-42359627D01*
X69546649Y-42514889D02*
X69562133Y-42524942D01*
X65693751Y-43829059D02*
X65681900Y-43828144D01*
X64570100Y-43076950D02*
X64575256Y-43087156D01*
X59837614Y-42636840D02*
X59846084Y-42629400D01*
X63454980Y-44017094D02*
X63434905Y-44020901D01*
X69847193Y-42054061D02*
X69818553Y-42038218D01*
X60194157Y-42689317D02*
X60199778Y-42699230D01*
X66170262Y-43234500D02*
X66158608Y-43219499D01*
X65500523Y-43479852D02*
X65506145Y-43469939D01*
X63132456Y-44555361D02*
X63168967Y-44558327D01*
X65594516Y-43384534D02*
X65604580Y-43379306D01*
X63930187Y-43584635D02*
X63950575Y-43606560D01*
X67943431Y-42837424D02*
X67922725Y-42867630D01*
X62138591Y-43988996D02*
X62157560Y-44015258D01*
X64719821Y-42720030D02*
X64684050Y-42694294D01*
X65506145Y-43469939D02*
X65512217Y-43460335D01*
X70485798Y-43189761D02*
X70485798Y-43182207D01*
X63671751Y-42450016D02*
X63688726Y-42460097D01*
X59458408Y-43045998D02*
X59474777Y-43081253D01*
X64136025Y-42090263D02*
X64109360Y-42071136D01*
X61895749Y-43267864D02*
X61897756Y-43302720D01*
X69818554Y-44338962D02*
X69847194Y-44322987D01*
X59775295Y-42730669D02*
X59779476Y-42719920D01*
X62793967Y-42512325D02*
X62808984Y-42500464D01*
X69259323Y-44505443D02*
X69295448Y-44501873D01*
X63957565Y-42732652D02*
X63969797Y-42754124D01*
X62504622Y-43014971D02*
X62508481Y-42994785D01*
X63589806Y-43976236D02*
X63571157Y-43983596D01*
X65694336Y-44184392D02*
X65705760Y-44184424D01*
X60209609Y-42719920D02*
X60213790Y-42730669D01*
X63855076Y-42595733D02*
X63871464Y-42613900D01*
X62056252Y-42536726D02*
X62040985Y-42566081D01*
X59873525Y-43014468D02*
X59864054Y-43008310D01*
X68708283Y-42679617D02*
X68673107Y-42660197D01*
X67127355Y-44511782D02*
X67727281Y-44511782D01*
X62512793Y-43398160D02*
X62508481Y-43378016D01*
X65705759Y-43829367D02*
X65693751Y-43829059D01*
X65670221Y-43826639D02*
X65658728Y-43824556D01*
X63258736Y-42346442D02*
X63280726Y-42346186D01*
X62729470Y-41925657D02*
X62697757Y-41939468D01*
X64257272Y-44181644D02*
X64280685Y-44158488D01*
X60538017Y-43027907D02*
X60544779Y-43009521D01*
X60030081Y-43046017D02*
X60018402Y-43047522D01*
X60105786Y-43020169D02*
X60095722Y-43025397D01*
X62661479Y-42651568D02*
X62673226Y-42636179D01*
X61897756Y-43302720D02*
X61900567Y-43337296D01*
X67848438Y-43037028D02*
X67843926Y-43055412D01*
X62628367Y-42699427D02*
X62639049Y-42683193D01*
X69686553Y-43751626D02*
X69674061Y-43764902D01*
X62528454Y-43457683D02*
X62522780Y-43437993D01*
X63784714Y-43253939D02*
X63788883Y-43285298D01*
X64838895Y-43534871D02*
X64851480Y-43516403D01*
X59994543Y-42575336D02*
X60006551Y-42575644D01*
X67831671Y-43131070D02*
X67830105Y-43150465D01*
X70247321Y-43962887D02*
X70265326Y-43936923D01*
X65905373Y-43715386D02*
X65899300Y-43724990D01*
X70168818Y-42314237D02*
X70147574Y-42290822D01*
X65479695Y-43533519D02*
X65482841Y-43522288D01*
X64466043Y-43403117D02*
X64455705Y-43407859D01*
X70476050Y-43360880D02*
X70479559Y-43327263D01*
X62437146Y-42091566D02*
X62410964Y-42111576D01*
X64184762Y-43039210D02*
X64192099Y-43030621D01*
X70398063Y-42693061D02*
X70385975Y-42662968D01*
X69277876Y-42411185D02*
X69297570Y-42415058D01*
X60576687Y-42853241D02*
X60577730Y-42832730D01*
X69331180Y-41881857D02*
X69295447Y-41877545D01*
X59789307Y-42699230D02*
X59794928Y-42689317D01*
X69825187Y-43534361D02*
X69817540Y-43551813D01*
X61913819Y-43439326D02*
X61919843Y-43472767D01*
X63447562Y-42362994D02*
X63467465Y-42367459D01*
X63972032Y-43627413D02*
X63959915Y-43649096D01*
X62761683Y-41912573D02*
X62729470Y-41925657D01*
X64524779Y-42546753D02*
X64509922Y-42518611D01*
X60188084Y-42944368D02*
X60181575Y-42953649D01*
X69862623Y-42964389D02*
X69867329Y-42983844D01*
X70007428Y-42161698D02*
X69982108Y-42142259D01*
X59771625Y-42741666D02*
X59775295Y-42730669D01*
X65193467Y-43876604D02*
X65203490Y-43894480D01*
X68470700Y-43419011D02*
X68459409Y-43421655D01*
X65693751Y-43356266D02*
X65705759Y-43355958D01*
X70438616Y-43556289D02*
X70446805Y-43524464D01*
X62697786Y-42606246D02*
X62710598Y-42591704D01*
X61963350Y-42751376D02*
X61953121Y-42783416D01*
X69789362Y-42022972D02*
X69759621Y-42008324D01*
X62517560Y-42954905D02*
X62522780Y-42935213D01*
X68101986Y-43690870D02*
X68101986Y-44511782D01*
X62913358Y-43939489D02*
X62896213Y-43929797D01*
X60006551Y-42575644D02*
X60018402Y-42576558D01*
X65878524Y-43433523D02*
X65885861Y-43442112D01*
X68342982Y-42963701D02*
X68354057Y-42960511D01*
X62504622Y-43357720D02*
X62501217Y-43337270D01*
X68635296Y-43119386D02*
X68638442Y-43130617D01*
X69537386Y-41924151D02*
X69503990Y-41915149D01*
X65742498Y-44183270D02*
X65778638Y-44179852D01*
X64552693Y-42604452D02*
X64539036Y-42575367D01*
X69148586Y-44511386D02*
X69185893Y-44510198D01*
X68255450Y-43364961D02*
X68247343Y-43357122D01*
X63801951Y-43346338D02*
X63810764Y-43375931D01*
X65166994Y-43364966D02*
X65157862Y-43388583D01*
X64940981Y-43284363D02*
X64944200Y-43261115D01*
X60569516Y-42913588D02*
X60572568Y-42893682D01*
X62640443Y-43692630D02*
X62629501Y-43676319D01*
X64341005Y-43425243D02*
X64329326Y-43423737D01*
X69789363Y-44354336D02*
X69818554Y-44338962D01*
X64243846Y-43392188D02*
X64234376Y-43386030D01*
X59513949Y-43147724D02*
X59536569Y-43178756D01*
X64565750Y-42634008D02*
X64552693Y-42604452D01*
X59412398Y-42770840D02*
X59411355Y-42791351D01*
X60565817Y-42690811D02*
X60556523Y-42652167D01*
X68585143Y-43030621D02*
X68592480Y-43039210D01*
X65383983Y-43098824D02*
X65363719Y-43113075D01*
X64584111Y-43108389D02*
X64587782Y-43119386D01*
X63215506Y-42348493D02*
X63236996Y-42347212D01*
X63434905Y-44020901D02*
X63414625Y-44024200D01*
X67829159Y-43170032D02*
X67828841Y-43189761D01*
X61943708Y-42815736D02*
X61935112Y-42848334D01*
X64920039Y-43006996D02*
X64904665Y-42964568D01*
X65344088Y-43128159D02*
X65325116Y-43144051D01*
X67848438Y-43342494D02*
X67859133Y-43378554D01*
X63536831Y-44541407D02*
X63571967Y-44535074D01*
X62750849Y-42550257D02*
X62764901Y-42537222D01*
X62335778Y-42175364D02*
X62311840Y-42197884D01*
X64504504Y-43000092D02*
X64513323Y-43007120D01*
X65786000Y-43815000D02*
X65775155Y-43818722D01*
X60343953Y-42338051D02*
X60312749Y-42315909D01*
X65426314Y-43072923D02*
X65404857Y-43085432D01*
X62723699Y-42577498D02*
X62737115Y-42563682D01*
X68577414Y-43022399D02*
X68585143Y-43030621D01*
X63928476Y-42796794D02*
X63909435Y-42819682D01*
X65475034Y-43628702D02*
X65473550Y-43616858D01*
X60115560Y-42609613D02*
X60125031Y-42615771D01*
X67727281Y-44511782D02*
X66609870Y-41842558D01*
X65518726Y-43451055D02*
X65525656Y-43442112D01*
X68263920Y-43007120D02*
X68272738Y-43000092D01*
X70080053Y-42223618D02*
X70056402Y-42202377D01*
X68321538Y-42971663D02*
X68332137Y-42967424D01*
X62571831Y-44379458D02*
X62601177Y-44395625D01*
X61894544Y-43232729D02*
X61895749Y-43267864D01*
X69801201Y-42799596D02*
X69809544Y-42816782D01*
X64149797Y-43097641D02*
X64154473Y-43087156D01*
X69825187Y-42852091D02*
X69832485Y-42870210D01*
X62288464Y-42221035D02*
X62265642Y-42244739D01*
X65625518Y-43815000D02*
X65614919Y-43810760D01*
X68832812Y-43600091D02*
X68846343Y-43585344D01*
X61974395Y-42719614D02*
X61963350Y-42751376D01*
X63938147Y-41968825D02*
X63907755Y-41953845D01*
X66245560Y-43367428D02*
X66237993Y-43349669D01*
X69355264Y-43951527D02*
X69336264Y-43956579D01*
X63950575Y-43606560D02*
X63972032Y-43627413D01*
X70330854Y-43828018D02*
X70345610Y-43799527D01*
X62332091Y-44207143D02*
X62356571Y-44228681D01*
X68959606Y-43395662D02*
X68966329Y-43376267D01*
X65625518Y-43370325D02*
X65636362Y-43366603D01*
X63810449Y-43004715D02*
X63801733Y-43034158D01*
X62563588Y-43553668D02*
X62555703Y-43534919D01*
X65175229Y-43839727D02*
X65184042Y-43858349D01*
X69374035Y-43946026D02*
X69355264Y-43951527D01*
X70479559Y-43327263D02*
X70482288Y-43293344D01*
X68804314Y-42751369D02*
X68773990Y-42725309D01*
X62508481Y-43378016D02*
X62504622Y-43357720D01*
X69832485Y-43516614D02*
X69825187Y-43534361D01*
X69845857Y-43480399D02*
X69839390Y-43498637D01*
X69764353Y-42734010D02*
X69774085Y-42749929D01*
X66192142Y-43265651D02*
X66181444Y-43249888D01*
X68513557Y-42976404D02*
X68523621Y-42981633D01*
X65916150Y-43695268D02*
X65910994Y-43705474D01*
X59794928Y-42934764D02*
X59789307Y-42924852D01*
X61571335Y-43982973D02*
X60280103Y-43982973D01*
X65826776Y-43795090D02*
X65817002Y-43800791D01*
X67990062Y-42781327D02*
X67965904Y-42808629D01*
X62012325Y-42626181D02*
X61998931Y-42656924D01*
X64551897Y-43048153D02*
X64558406Y-43057433D01*
X63494520Y-44007958D02*
X63474852Y-44012780D01*
X59814440Y-42661490D02*
X59821777Y-42652900D01*
X65939174Y-43592663D02*
X65938870Y-43604840D01*
X63487154Y-42372449D02*
X63506631Y-42377965D01*
X63513985Y-44002629D02*
X63494520Y-44007958D01*
X69446780Y-42462218D02*
X69464255Y-42470085D01*
X62639049Y-42683193D02*
X62650086Y-42667240D01*
X62788209Y-44479532D02*
X62820899Y-44490871D01*
X60041573Y-42580146D02*
X60052864Y-42582790D01*
X68846343Y-43585344D02*
X68859379Y-43570136D01*
X64445106Y-42967424D02*
X64455705Y-42971663D01*
X64317833Y-43421655D02*
X64306542Y-43419011D01*
X64077999Y-44326353D02*
X64105262Y-44307545D01*
X63525894Y-42384005D02*
X63544943Y-42390571D01*
X59451068Y-42596175D02*
X59444306Y-42614560D01*
X63472980Y-41827985D02*
X63436873Y-41824168D01*
X62120263Y-43962229D02*
X62138591Y-43988996D01*
X64946559Y-43142396D02*
X64941126Y-43096052D01*
X65796599Y-43374565D02*
X65806938Y-43379306D01*
X64926118Y-43352245D02*
X64931922Y-43329947D01*
X63892789Y-43537747D02*
X63910910Y-43561683D01*
X65936483Y-43556624D02*
X65937968Y-43568467D01*
X62543030Y-44362697D02*
X62571831Y-44379458D01*
X63944714Y-42711670D02*
X63957565Y-42732652D01*
X61953121Y-42783416D02*
X61943708Y-42815736D01*
X64487944Y-43887832D02*
X64503400Y-43860679D01*
X60401668Y-42388132D02*
X60373623Y-42362157D01*
X64145617Y-43108389D02*
X64149797Y-43097641D01*
X62514770Y-44345342D02*
X62543030Y-44362697D01*
X64021814Y-44362100D02*
X64050183Y-44344538D01*
X63782172Y-43157671D02*
X63781327Y-43189761D01*
X65167041Y-43820752D02*
X65175229Y-43839727D01*
X64597975Y-43177584D02*
X64598279Y-43189761D01*
X64225224Y-43379430D02*
X64216406Y-43372402D01*
X65566119Y-43782331D02*
X65557300Y-43775303D01*
X64598279Y-43189761D02*
X64597975Y-43201939D01*
X65241004Y-43234747D02*
X65226505Y-43254957D01*
X69392576Y-43940075D02*
X69374035Y-43946026D01*
X65885861Y-43743213D02*
X65878524Y-43751802D01*
X59768478Y-42752897D02*
X59771625Y-42741666D01*
X68183707Y-43142068D02*
X68186314Y-43130617D01*
X70484238Y-43112944D02*
X70482288Y-43078774D01*
X64388724Y-42954279D02*
X64400403Y-42955784D01*
X68631625Y-43271133D02*
X68627445Y-43281882D01*
X69634576Y-42580640D02*
X69648069Y-42592865D01*
X64679522Y-43688155D02*
X64697932Y-43675668D01*
X68193131Y-43108389D02*
X68197312Y-43097641D01*
X62661501Y-44426180D02*
X62692481Y-44440570D01*
X69733080Y-43695519D02*
X69721965Y-43709995D01*
X62769945Y-43838838D02*
X62755523Y-43825773D01*
X64466043Y-42976404D02*
X64476108Y-42981633D01*
X63563778Y-42397662D02*
X63582398Y-42405278D01*
X67830105Y-43229057D02*
X67833846Y-43267665D01*
X65682914Y-44184172D02*
X65688649Y-44184318D01*
X64177831Y-43048153D02*
X64184762Y-43039210D01*
X64411895Y-42957867D02*
X64423186Y-42960511D01*
X68552018Y-43000092D02*
X68560836Y-43007120D01*
X59561088Y-42415886D02*
X59548597Y-42430401D01*
X62311840Y-42197884D02*
X62288464Y-42221035D01*
X65717767Y-43356266D02*
X65729618Y-43357180D01*
X64558406Y-43322089D02*
X64551897Y-43331369D01*
X63160406Y-44023961D02*
X63139895Y-44020569D01*
X59474777Y-43081253D02*
X59493321Y-43115192D01*
X68207143Y-43302572D02*
X68201987Y-43292366D01*
X69867329Y-43404830D02*
X69862623Y-43424116D01*
X61904392Y-43015530D02*
X61900703Y-43049812D01*
X60199778Y-42924852D02*
X60194157Y-42934764D01*
X62962579Y-41851707D02*
X62928186Y-41859748D01*
X59416517Y-42893682D02*
X59423268Y-42933270D01*
X69336264Y-42424154D02*
X69355264Y-42429375D01*
X63103818Y-41827985D02*
X63067957Y-41832648D01*
X69759621Y-42008324D02*
X69729331Y-41994274D01*
X62888965Y-42447049D02*
X62905950Y-42437546D01*
X64295467Y-42963701D02*
X64306542Y-42960511D01*
X64328238Y-42263012D02*
X64306751Y-42240027D01*
X62608067Y-42732737D02*
X62618039Y-42715942D01*
X65149712Y-43412680D02*
X65142567Y-43437231D01*
X60452517Y-43178756D02*
X60464070Y-43163434D01*
X68412379Y-42953056D02*
X68424387Y-42953364D01*
X68645793Y-43189761D02*
X68645489Y-43201939D01*
X59432562Y-42971915D02*
X59444306Y-43009521D01*
X64595589Y-43153722D02*
X64597074Y-43165566D01*
X63288672Y-44033336D02*
X63266679Y-44033076D01*
X69133456Y-42396778D02*
X69154795Y-42397468D01*
X59761431Y-42799863D02*
X59762333Y-42787845D01*
X65752789Y-43360768D02*
X65764080Y-43363412D01*
X60095722Y-42598684D02*
X60105786Y-42603912D01*
X65604580Y-43806019D02*
X65594516Y-43800791D01*
X70485408Y-43147422D02*
X70484238Y-43112944D01*
X62491181Y-42053421D02*
X62463885Y-42072182D01*
X68197312Y-43281882D02*
X68193131Y-43271133D01*
X64134140Y-43225800D02*
X64132655Y-43213957D01*
X61926670Y-43505922D02*
X61934299Y-43538790D01*
X63933948Y-43691118D02*
X63920103Y-43711456D01*
X68622769Y-43292366D02*
X68617614Y-43302572D01*
X63968012Y-41984396D02*
X63938147Y-41968825D01*
X69410889Y-42447715D02*
X69428975Y-42454717D01*
X63119633Y-44016653D02*
X63099621Y-44012212D01*
X68183707Y-43237455D02*
X68181654Y-43225800D01*
X59513949Y-42476357D02*
X59503380Y-42492441D01*
X70359717Y-43770530D02*
X70373172Y-43741026D01*
X70345610Y-43799527D02*
X70359717Y-43770530D01*
X69222803Y-41871271D02*
X69185891Y-41869310D01*
X69503990Y-41915149D02*
X69470207Y-41906927D01*
X65934430Y-43544969D02*
X65936483Y-43556624D01*
X62737115Y-42563682D02*
X62750849Y-42550257D01*
X64212784Y-42151208D02*
X64187739Y-42130299D01*
X64280685Y-44158488D02*
X64302335Y-44135992D01*
X69606594Y-42557275D02*
X69620751Y-42568777D01*
X62284739Y-44162264D02*
X62308147Y-44185004D01*
X69889618Y-43219276D02*
X69888938Y-43240966D01*
X63386582Y-42352752D02*
X63407120Y-42355641D01*
X69562133Y-43857947D02*
X69546649Y-43867886D01*
X65670221Y-43358686D02*
X65681900Y-43357180D01*
X65806938Y-43806019D02*
X65796599Y-43810760D01*
X59794928Y-42689317D02*
X59801001Y-42679713D01*
X70446805Y-43524464D02*
X70454213Y-43492343D01*
X67833846Y-43267665D02*
X67839983Y-43305504D01*
X70485798Y-43182207D02*
X70485408Y-43147422D01*
X62490096Y-43182206D02*
X62490323Y-43160753D01*
X67839983Y-43305504D02*
X67848438Y-43342494D01*
X59763818Y-42776002D02*
X59765871Y-42764347D01*
X59947512Y-43043934D02*
X59936221Y-43041291D01*
X68638442Y-43130617D02*
X68641049Y-43142068D01*
X64646356Y-42671284D02*
X64606876Y-42651141D01*
X68895382Y-43521884D02*
X68906305Y-43504968D01*
X68043125Y-43647999D02*
X68071870Y-43670342D01*
X68332137Y-43412098D02*
X68321538Y-43407859D01*
X68492620Y-43412098D02*
X68481775Y-43415820D01*
X65604580Y-43379306D02*
X65614919Y-43374565D01*
X63608252Y-43968369D02*
X63589806Y-43976236D01*
X69667107Y-44409798D02*
X69698494Y-44396840D01*
X69592105Y-42546135D02*
X69606594Y-42557275D01*
X64590928Y-43248905D02*
X64587782Y-43260136D01*
X60213790Y-42893413D02*
X60209609Y-42904161D01*
X63871464Y-42613900D02*
X63887283Y-42632521D01*
X60440488Y-43193681D02*
X60452517Y-43178756D01*
X68101986Y-42688652D02*
X68071870Y-42709180D01*
X59829507Y-42979402D02*
X59821777Y-42971181D01*
X65477088Y-43640356D02*
X65475034Y-43628702D01*
X65157862Y-43388583D02*
X65149712Y-43412680D01*
X62608759Y-43642795D02*
X62598960Y-43625581D01*
X63544065Y-41838157D02*
X63508710Y-41832648D01*
X62741404Y-43812328D02*
X62727588Y-43798501D01*
X64874589Y-43477990D02*
X64885076Y-43458081D01*
X65910994Y-43705474D02*
X65905373Y-43715386D01*
X62498267Y-43316665D02*
X62495770Y-43295906D01*
X69857475Y-43443140D02*
X69851886Y-43461900D01*
X65915850Y-44144918D02*
X65947975Y-44131210D01*
X68644587Y-43213957D02*
X68643102Y-43225800D01*
X64171322Y-43057433D02*
X64177831Y-43048153D01*
X68186314Y-43130617D02*
X68189461Y-43119386D01*
X60095722Y-43025397D02*
X60085383Y-43030138D01*
X59883299Y-43020169D02*
X59873525Y-43014468D01*
X59645132Y-43286030D02*
X59676336Y-43308172D01*
X64138800Y-43130617D02*
X64141946Y-43119386D01*
X65122808Y-43565917D02*
X65122222Y-43592663D01*
X62522780Y-43437993D02*
X62517560Y-43418152D01*
X64165250Y-43067038D02*
X64171322Y-43057433D01*
X62072145Y-42507836D02*
X62056252Y-42536726D01*
X63784118Y-42528444D02*
X63798934Y-42541148D01*
X63859313Y-42894021D02*
X63845085Y-42920543D01*
X59414123Y-42750519D02*
X59412398Y-42770840D01*
X60530677Y-42578083D02*
X60514308Y-42542829D01*
X68611992Y-43312485D02*
X68605920Y-43322089D01*
X62879370Y-43919735D02*
X62862830Y-43909302D01*
X60220607Y-42871185D02*
X60217460Y-42882416D01*
X69470207Y-41906927D02*
X69436034Y-41899487D01*
X64237287Y-42172713D02*
X64212784Y-42151208D01*
X64216406Y-43372402D02*
X64207936Y-43364961D01*
X64495353Y-42993491D02*
X64504504Y-43000092D01*
X68101986Y-41867740D02*
X68101986Y-42688652D01*
X59784151Y-42709436D02*
X59789307Y-42699230D01*
X67903863Y-42899168D02*
X67886924Y-42931958D01*
X65548328Y-44511782D02*
X65682914Y-44184172D01*
X69809544Y-42816782D02*
X69817540Y-42834281D01*
X69743850Y-42703140D02*
X69754275Y-42718413D01*
X65575270Y-43788932D02*
X65566119Y-43782331D01*
X63365832Y-42350388D02*
X63386582Y-42352752D01*
X69759622Y-44369108D02*
X69789363Y-44354336D01*
X65594516Y-43800791D02*
X65584741Y-43795090D01*
X62576401Y-42000870D02*
X62547441Y-42017766D01*
X59587417Y-42388132D02*
X59574032Y-42401793D01*
X62385342Y-42132211D02*
X62360279Y-42153474D01*
X61894142Y-43197315D02*
X61894544Y-43232729D01*
X69498208Y-43895428D02*
X69481397Y-43903848D01*
X65525656Y-43743213D02*
X65518726Y-43734271D01*
X64715840Y-43662502D02*
X64733229Y-43648673D01*
X59814440Y-42962591D02*
X59807510Y-42953649D01*
X68459409Y-43421655D02*
X68447917Y-43423737D01*
X65741297Y-43358686D02*
X65752789Y-43360768D01*
X68644587Y-43165566D02*
X68645489Y-43177584D01*
X68239613Y-43030621D02*
X68247343Y-43022399D01*
X68354057Y-42960511D02*
X68365348Y-42957867D01*
X65495367Y-43490058D02*
X65500523Y-43479852D01*
X70282682Y-43910455D02*
X70299389Y-43883481D01*
X63140049Y-41824168D02*
X63103818Y-41827985D01*
X69878786Y-43043450D02*
X69881713Y-43063732D01*
X64660629Y-43699944D02*
X64679522Y-43688155D01*
X68424387Y-43426157D02*
X68412379Y-43426465D01*
X68859379Y-42809384D02*
X68832812Y-42779429D01*
X62589543Y-43608062D02*
X62580509Y-43590238D01*
X65565938Y-43017847D02*
X65541497Y-43024522D01*
X62755911Y-44467364D02*
X62788209Y-44479532D01*
X63613647Y-41851707D02*
X63579044Y-41844510D01*
X60225267Y-42776002D02*
X60226752Y-42787845D01*
X59801001Y-42944368D02*
X59794928Y-42934764D01*
X69889618Y-43168240D02*
X69889845Y-43189761D01*
X65931823Y-43533519D02*
X65934430Y-43544969D01*
X65477088Y-43544969D02*
X65479695Y-43533519D01*
X66009130Y-44098300D02*
X66038025Y-44079235D01*
X64597074Y-43213957D02*
X64595589Y-43225800D01*
X62794257Y-41900327D02*
X62761683Y-41912573D01*
X65512217Y-43724990D02*
X65506145Y-43715386D01*
X69686553Y-42631690D02*
X69698701Y-42645318D01*
X64518288Y-43833098D02*
X64532608Y-43805088D01*
X62123584Y-42423965D02*
X62105810Y-42451454D01*
X66140784Y-43987171D02*
X66162927Y-43960544D01*
X67871988Y-43413605D02*
X67886924Y-43447565D01*
X65826776Y-43390235D02*
X65836247Y-43396393D01*
X70056402Y-44173748D02*
X70080053Y-44152435D01*
X64363925Y-44065985D02*
X64383332Y-44041807D01*
X64495353Y-43386030D02*
X64485882Y-43392188D01*
X68179268Y-43201939D02*
X68178964Y-43189761D01*
X60522770Y-43063784D02*
X60530677Y-43045998D01*
X63544943Y-42390571D02*
X63563778Y-42397662D01*
X60018402Y-42576558D02*
X60030081Y-42578064D01*
X62930806Y-43948812D02*
X62913358Y-43939489D01*
X70125683Y-42267897D02*
X70103146Y-42245461D01*
X65541497Y-43024522D02*
X65517491Y-43032233D01*
X68201987Y-43087156D02*
X68207143Y-43076950D01*
X65472648Y-43604840D02*
X65472344Y-43592663D01*
X68966329Y-43376267D02*
X68972399Y-43356571D01*
X66183515Y-43932610D02*
X66889223Y-43932610D01*
X64684050Y-42694294D02*
X64646356Y-42671284D01*
X63821037Y-43404848D02*
X63832728Y-43433044D01*
X69710506Y-43724172D02*
X69698701Y-43738049D01*
X65575270Y-43396393D02*
X65584741Y-43390235D01*
X69792510Y-42782723D02*
X69801201Y-42799596D01*
X63959915Y-43649096D02*
X63947220Y-43670331D01*
X60063939Y-42585981D02*
X60074784Y-42589703D01*
X64595589Y-43225800D02*
X64593535Y-43237455D01*
X59503380Y-42492441D02*
X59493321Y-42508889D01*
X69902818Y-42087543D02*
X69875282Y-42070502D01*
X63571157Y-43983596D02*
X63552303Y-43990448D01*
X68982531Y-43316329D02*
X68986566Y-43295810D01*
X70315446Y-43856003D02*
X70330854Y-43828018D01*
X68342982Y-43415820D02*
X68332137Y-43412098D01*
X60358986Y-43274217D02*
X60373623Y-43261925D01*
X59761431Y-42824218D02*
X59761127Y-42812041D01*
X69562133Y-42524942D02*
X69577285Y-42535357D01*
X65681900Y-43828144D02*
X65670221Y-43826639D01*
X70466691Y-42945194D02*
X70460842Y-42912578D01*
X62995635Y-42396168D02*
X63014372Y-42389303D01*
X68181654Y-43225800D02*
X68180169Y-43213957D01*
X64132655Y-43213957D02*
X64131753Y-43201939D01*
X67943431Y-43542098D02*
X67965904Y-43570893D01*
X66337717Y-42546378D02*
X66684363Y-43403803D01*
X63963410Y-44395354D02*
X63992890Y-44379039D01*
X69851886Y-43461900D02*
X69845857Y-43480399D01*
X63168967Y-44558327D02*
X63205850Y-44560447D01*
X64476108Y-43397889D02*
X64466043Y-43403117D01*
X69881713Y-43325034D02*
X69878786Y-43345382D01*
X64105262Y-44307545D02*
X64131973Y-44288115D01*
X62635979Y-41968935D02*
X62605914Y-41984593D01*
X69818553Y-42038218D02*
X69789362Y-42022972D01*
X68180169Y-43213957D02*
X68179268Y-43201939D01*
X68605920Y-43057433D02*
X68611992Y-43067038D01*
X64162152Y-42109984D02*
X64136025Y-42090263D01*
X65878524Y-43751802D02*
X65870794Y-43760024D01*
X68560836Y-43007120D02*
X68569306Y-43014561D01*
X69428975Y-43926818D02*
X69410889Y-43933673D01*
X62755523Y-43825773D02*
X62741404Y-43812328D01*
X70471760Y-42978123D02*
X70466691Y-42945194D01*
X66080465Y-41842558D02*
X65590790Y-43012233D01*
X62141987Y-42396945D02*
X62123584Y-42423965D01*
X62492138Y-43118312D02*
X62493727Y-43097326D01*
X64388724Y-43425243D02*
X64376872Y-43426157D01*
X64131449Y-43189761D02*
X64131753Y-43177584D01*
X68436238Y-43425243D02*
X68424387Y-43426157D01*
X62459877Y-44308844D02*
X62487053Y-44327391D01*
X64932239Y-43050871D02*
X64920039Y-43006996D01*
X63845085Y-42920543D02*
X63832169Y-42947863D01*
X64444480Y-42410744D02*
X64426614Y-42384951D01*
X63552303Y-43990448D02*
X63533246Y-43996792D01*
X68218837Y-43057433D02*
X68225346Y-43048153D01*
X69110884Y-41867741D02*
X68101986Y-41867740D01*
X62580280Y-42784801D02*
X62589187Y-42767167D01*
X59807510Y-42953649D02*
X59801001Y-42944368D01*
X61894142Y-43189761D02*
X61894142Y-43197315D01*
X70438616Y-42816608D02*
X70429648Y-42785247D01*
X70409371Y-42723473D02*
X70398063Y-42693061D01*
X59432562Y-42652167D02*
X59427603Y-42671365D01*
X61962008Y-43635658D02*
X61972850Y-43667365D01*
X68916667Y-43487658D02*
X68926455Y-43469967D01*
X62308147Y-44185004D02*
X62332091Y-44207143D01*
X70476050Y-43011363D02*
X70471760Y-42978123D01*
X62053401Y-43850113D02*
X62069145Y-43878901D01*
X67859133Y-43378554D02*
X67871988Y-43413605D01*
X59708982Y-43328259D02*
X59708982Y-44511782D01*
X68631625Y-43108389D02*
X68635296Y-43119386D01*
X62512793Y-42974763D02*
X62517560Y-42954905D01*
X69733080Y-42688192D02*
X69743850Y-42703140D01*
X63060557Y-44546900D02*
X63096318Y-44551552D01*
X64225224Y-43000092D02*
X64234376Y-42993491D01*
X68239613Y-43348901D02*
X68232276Y-43340312D01*
X69530834Y-42505200D02*
X69546649Y-42514889D01*
X63139895Y-44020569D02*
X63119633Y-44016653D01*
X63744359Y-43890810D02*
X63728513Y-43901876D01*
X68247343Y-43022399D02*
X68255450Y-43014561D01*
X63280726Y-44562144D02*
X63318398Y-44561720D01*
X65862687Y-43767862D02*
X65854217Y-43775303D01*
X59762333Y-42836236D02*
X59761431Y-42824218D01*
X65532994Y-43751802D02*
X65525656Y-43743213D01*
X67836620Y-43092837D02*
X67833846Y-43111857D01*
X60280103Y-43328259D02*
X60296601Y-43318478D01*
X66229878Y-43332213D02*
X66221224Y-43315070D01*
X64138800Y-43248905D02*
X64136193Y-43237455D01*
X62984849Y-43974492D02*
X62966610Y-43966354D01*
X60572568Y-42730400D02*
X60565817Y-42690811D01*
X64263685Y-43403117D02*
X64253621Y-43397889D01*
X62088664Y-42479411D02*
X62072145Y-42507836D01*
X68376840Y-42955784D02*
X68388519Y-42954279D01*
X68952245Y-43414743D02*
X68959606Y-43395662D01*
X69698493Y-41980820D02*
X69667107Y-41967962D01*
X65928677Y-43663038D02*
X65925006Y-43674035D01*
X65123786Y-43636366D02*
X65125721Y-43657900D01*
X69297570Y-43965344D02*
X69277876Y-43969059D01*
X64551897Y-43331369D02*
X64544967Y-43340312D01*
X59411005Y-42812041D02*
X59412398Y-42853241D01*
X60495764Y-42508889D02*
X60475136Y-42476357D01*
X63003344Y-43982101D02*
X62984849Y-43974492D01*
X69698494Y-44396840D02*
X69729332Y-44383277D01*
X64785033Y-42779111D02*
X64753528Y-42748350D01*
X65764080Y-43363412D02*
X65775155Y-43366603D01*
X68071870Y-43670342D02*
X68101986Y-43690870D01*
X60226752Y-42787845D02*
X60227654Y-42799863D01*
X64811752Y-43570241D02*
X64825646Y-43552823D01*
X63202174Y-44029173D02*
X63181166Y-44026828D01*
X68232276Y-43340312D02*
X68225346Y-43331369D01*
X70032193Y-42181737D02*
X70007428Y-42161698D01*
X69982108Y-42142259D02*
X69956232Y-42123421D01*
X60217460Y-42741666D02*
X60220607Y-42752897D01*
X63176648Y-41821198D02*
X63140049Y-41824168D01*
X64159628Y-43076950D02*
X64165250Y-43067038D01*
X69871593Y-43385279D02*
X69867329Y-43404830D01*
X70471760Y-43394195D02*
X70476050Y-43360880D01*
X68989897Y-43104478D02*
X68982531Y-43063191D01*
X60561482Y-42952716D02*
X60565817Y-42933270D01*
X66889223Y-43932610D02*
X67127355Y-44511782D01*
X69817540Y-43551813D02*
X69809544Y-43568968D01*
X65289247Y-43178158D02*
X65272400Y-43196323D01*
X63582398Y-42405278D02*
X63600803Y-42413420D01*
X64750080Y-43634201D02*
X64766376Y-43619104D01*
X69331181Y-44497507D02*
X69366523Y-44492343D01*
X59762333Y-42787845D02*
X59763818Y-42776002D01*
X59768478Y-42871185D02*
X59765871Y-42859734D01*
X64364864Y-42953056D02*
X64376872Y-42953364D01*
X64132655Y-43165566D02*
X64134140Y-43153722D01*
X60576687Y-42770840D02*
X60572568Y-42730400D01*
X66252565Y-43385476D02*
X66245560Y-43367428D01*
X66684363Y-43403803D02*
X66259000Y-43403803D01*
X63902784Y-44426111D02*
X63933376Y-44411044D01*
X63798934Y-42541148D02*
X63813438Y-42554229D01*
X66609870Y-41842558D02*
X66080465Y-41842558D01*
X65796599Y-43810760D02*
X65786000Y-43815000D01*
X64187739Y-42130299D02*
X64162152Y-42109984D01*
X68523621Y-42981633D02*
X68533396Y-42987333D01*
X63032464Y-41838157D02*
X62997338Y-41844510D01*
X60343953Y-43286030D02*
X60358986Y-43274217D01*
X59893363Y-42598684D02*
X59903702Y-42593942D01*
X60427997Y-42415886D02*
X60401668Y-42388132D01*
X69603018Y-44433773D02*
X69635255Y-44422189D01*
X65931823Y-43651806D02*
X65928677Y-43663038D01*
X65764080Y-43821913D02*
X65752789Y-43824556D01*
X70147574Y-42290822D02*
X70125683Y-42267897D01*
X65135971Y-43721068D02*
X65140823Y-43741601D01*
X62824326Y-42488996D02*
X62839993Y-42477919D01*
X69956232Y-42123421D02*
X69929802Y-42105182D01*
X68311199Y-42976404D02*
X68321538Y-42971663D01*
X69867329Y-42983844D02*
X69871593Y-43003506D01*
X65188103Y-43319271D02*
X65177083Y-43341854D01*
X69537387Y-44454522D02*
X69570396Y-44444550D01*
X65214098Y-43911962D02*
X64963052Y-44511782D01*
X59444306Y-42614560D02*
X59438133Y-42633228D01*
X62724007Y-44454369D02*
X62755911Y-44467364D01*
X68533396Y-42987333D02*
X68542867Y-42993491D01*
X70189415Y-42338140D02*
X70168818Y-42314237D01*
X69374035Y-42435042D02*
X69392576Y-42441156D01*
X60475136Y-43147724D02*
X60485705Y-43131640D01*
X62548201Y-42858122D02*
X62555688Y-42839375D01*
X65142567Y-43437231D02*
X65136454Y-43462212D01*
X70385975Y-43711015D02*
X70398063Y-43680653D01*
X60220607Y-42752897D02*
X60223214Y-42764347D01*
X64199828Y-43357122D02*
X64192099Y-43348901D01*
X69570395Y-41933934D02*
X69537386Y-41924151D01*
X69257949Y-42407764D02*
X69277876Y-42411185D01*
X62501217Y-43035319D02*
X62504622Y-43014971D01*
X68247343Y-43357122D02*
X68239613Y-43348901D01*
X64455705Y-43407859D02*
X64445106Y-43412098D01*
X62923269Y-42428438D02*
X62940922Y-42419724D01*
X64369399Y-42310384D02*
X64349121Y-42286465D01*
X65892792Y-43734271D02*
X65885861Y-43743213D01*
X59416517Y-42730400D02*
X59414123Y-42750519D01*
X62491004Y-43232691D02*
X62490323Y-43211305D01*
X62673226Y-42636179D02*
X62685328Y-42621071D01*
X62200973Y-42318711D02*
X62180680Y-42344316D01*
X65159493Y-43801439D02*
X65167041Y-43820752D01*
X59708982Y-44511782D02*
X61571335Y-44511782D01*
X64400403Y-43423737D02*
X64388724Y-43425243D01*
X64606876Y-42651141D02*
X64565750Y-42634008D01*
X60280103Y-42295823D02*
X60280103Y-41867740D01*
X69154795Y-42397468D02*
X69175897Y-42398615D01*
X65306827Y-43160726D02*
X65289247Y-43178158D01*
X63344871Y-42348549D02*
X63365832Y-42350388D01*
X59419569Y-42710493D02*
X59416517Y-42730400D01*
X65177083Y-43341854D02*
X65166994Y-43364966D01*
X65817002Y-43384534D02*
X65826776Y-43390235D01*
X59708982Y-42295823D02*
X59692484Y-42305603D01*
X66202345Y-43281778D02*
X66192142Y-43265651D01*
X65636362Y-43818722D02*
X65625518Y-43815000D01*
X62663469Y-43724361D02*
X62651766Y-43708644D01*
X65854217Y-43775303D02*
X65845399Y-43782331D01*
X62197415Y-44066272D02*
X62218297Y-44091024D01*
X68281890Y-42993491D02*
X68291361Y-42987333D01*
X63992890Y-44379039D02*
X64021814Y-44362100D01*
X64494464Y-42490939D02*
X64478404Y-42463737D01*
X65122615Y-43614616D02*
X65123786Y-43636366D01*
X68043125Y-42731522D02*
X68015829Y-42755598D01*
X68725310Y-43689317D02*
X68741945Y-43678164D01*
X59903702Y-42593942D02*
X59914301Y-42589703D01*
X69546649Y-43867886D02*
X69530834Y-43877446D01*
X63436873Y-41824168D02*
X63400389Y-41821198D01*
X64183742Y-44247389D02*
X64208801Y-44226095D01*
X64529900Y-43022399D02*
X64537629Y-43030621D01*
X66181444Y-43249888D02*
X66170262Y-43234500D01*
X69257949Y-43972332D02*
X69237788Y-43975164D01*
X62685328Y-42621071D02*
X62697786Y-42606246D01*
X63266679Y-44033076D02*
X63244931Y-44032296D01*
X69851886Y-42926097D02*
X69857475Y-42945140D01*
X69464255Y-42470085D02*
X69481397Y-42478317D01*
X63052597Y-42377087D02*
X63072085Y-42371736D01*
X69355264Y-42429375D02*
X69374035Y-42435042D01*
X65127420Y-43513358D02*
X65124549Y-43539473D01*
X63902527Y-42651603D02*
X63917186Y-42671151D01*
X61908599Y-43405599D02*
X61913819Y-43439326D01*
X65472648Y-43580485D02*
X65473550Y-43568467D01*
X68599411Y-43331369D02*
X68592480Y-43340312D01*
X65203490Y-43894480D02*
X65214098Y-43911962D01*
X60556523Y-42971915D02*
X60561482Y-42952716D01*
X64274024Y-42971663D02*
X64284623Y-42967424D01*
X64082159Y-42052602D02*
X64054421Y-42034662D01*
X59936221Y-43041291D02*
X59925146Y-43038100D01*
X64558406Y-43057433D02*
X64564478Y-43067038D01*
X67853511Y-43018877D02*
X67848438Y-43037028D01*
X64948401Y-43189761D02*
X64946559Y-43142396D01*
X64171322Y-43322089D02*
X64165250Y-43312485D01*
X64317833Y-42957867D02*
X64329326Y-42955784D01*
X60194157Y-42934764D02*
X60188084Y-42944368D01*
X61996944Y-43729900D02*
X62010076Y-43760714D01*
X60544779Y-42614560D02*
X60530677Y-42578083D01*
X64584111Y-43271133D02*
X64579931Y-43281882D01*
X68926455Y-43469967D02*
X68935656Y-43451908D01*
X62038306Y-43820820D02*
X62053401Y-43850113D01*
X60159578Y-42644679D02*
X60167308Y-42652900D01*
X63742183Y-44490871D02*
X63775131Y-44479532D01*
X63875866Y-43512871D02*
X63892789Y-43537747D01*
X64782099Y-43603399D02*
X64797230Y-43587105D01*
X63997347Y-42000559D02*
X63968012Y-41984396D01*
X68758176Y-43666458D02*
X68773990Y-43654212D01*
X61900703Y-43049812D02*
X61897833Y-43084375D01*
X65226505Y-43254957D02*
X65212839Y-43275797D01*
X68569306Y-43364961D02*
X68560836Y-43372402D01*
X68321538Y-43407859D02*
X68311199Y-43403117D01*
X59645132Y-42338051D02*
X59630100Y-42349864D01*
X67990062Y-43598195D02*
X68015829Y-43623924D01*
X59846084Y-42629400D02*
X59854902Y-42622372D01*
X67922725Y-43511892D02*
X67943431Y-43542098D01*
X60167308Y-42971181D02*
X60159578Y-42979402D01*
X69875283Y-44306413D02*
X69902819Y-44289242D01*
X69410889Y-43933673D02*
X69392576Y-43940075D01*
X64408146Y-42359627D02*
X64389074Y-42334772D01*
X62846592Y-43898495D02*
X62830658Y-43887316D01*
X69698701Y-43738049D02*
X69686553Y-43751626D01*
X65557300Y-43775303D02*
X65548830Y-43767862D01*
X65705760Y-44184424D02*
X65742498Y-44183270D01*
X59474777Y-42542829D02*
X59466315Y-42560297D01*
X59561088Y-43208195D02*
X59587417Y-43235949D01*
X69887807Y-43125817D02*
X69888938Y-43146925D01*
X64131753Y-43201939D02*
X64131449Y-43189761D01*
X67830105Y-43150465D02*
X67829159Y-43170032D01*
X64587782Y-43260136D02*
X64584111Y-43271133D01*
X68773990Y-42725309D02*
X68741945Y-42701356D01*
X60188084Y-42679713D02*
X60194157Y-42689317D01*
X69764353Y-43650296D02*
X69754275Y-43665669D01*
X64597074Y-43165566D02*
X64597975Y-43177584D01*
X68542867Y-42993491D02*
X68552018Y-43000092D01*
X65548830Y-43767862D02*
X65540723Y-43760024D01*
X63969797Y-42754124D02*
X63948611Y-42774927D01*
X63025173Y-44541407D02*
X63060557Y-44546900D01*
X69809544Y-43568968D02*
X69801201Y-43585828D01*
X65125721Y-43657900D02*
X65128406Y-43679204D01*
X65540723Y-43425301D02*
X65548830Y-43417463D01*
X65136454Y-43462212D02*
X65131397Y-43487595D01*
X68503218Y-43407859D02*
X68492620Y-43412098D01*
X66133924Y-43190708D02*
X66120916Y-43176942D01*
X62023864Y-43791020D02*
X62038306Y-43820820D01*
X69635255Y-44422189D02*
X69667107Y-44409798D01*
X59970683Y-43047522D02*
X59959004Y-43046017D01*
X64851480Y-43516403D02*
X64863384Y-43497437D01*
X63323700Y-42347236D02*
X63344871Y-42348549D01*
X65495367Y-43695268D02*
X65490692Y-43684783D01*
X60415053Y-43222289D02*
X60427997Y-43208195D01*
X62921304Y-44519897D02*
X62955544Y-44527904D01*
X68272738Y-43379430D02*
X68263920Y-43372402D01*
X68982531Y-43063191D02*
X68972399Y-43022949D01*
X63909435Y-42819682D02*
X63891532Y-42843545D01*
X65937968Y-43568467D02*
X65938870Y-43580485D01*
X69606594Y-43825868D02*
X69592105Y-43836937D01*
X64208801Y-44226095D02*
X64233311Y-44204179D01*
X62955544Y-44527904D02*
X62990168Y-44535074D01*
X60052864Y-42582790D02*
X60063939Y-42585981D01*
X69674061Y-43764902D02*
X69661231Y-43777842D01*
X70482288Y-43078774D02*
X70479559Y-43044914D01*
X65752789Y-43824556D02*
X65741297Y-43826639D01*
X69902819Y-44289242D02*
X69929803Y-44271474D01*
X68599411Y-43048153D02*
X68605920Y-43057433D01*
X63394142Y-44026991D02*
X63373456Y-44029275D01*
X68481775Y-43415820D02*
X68470700Y-43419011D01*
X66107479Y-43163612D02*
X66093624Y-43150731D01*
X70315446Y-42519117D02*
X70299389Y-42491803D01*
X65325116Y-43144051D02*
X65306827Y-43160726D01*
X67879201Y-42948796D02*
X67871988Y-42965918D01*
X69366523Y-44492343D02*
X69401474Y-44486380D01*
X64192099Y-43030621D02*
X64199828Y-43022399D01*
X65475034Y-43556624D02*
X65477088Y-43544969D01*
X59466315Y-42560297D02*
X59458408Y-42578083D01*
X65584741Y-43390235D02*
X65594516Y-43384534D01*
X64343955Y-44089742D02*
X64363925Y-44065985D01*
X63782181Y-43222078D02*
X63784714Y-43253939D01*
X63948611Y-42774927D02*
X63928476Y-42796794D01*
X60578080Y-42812041D02*
X60576687Y-42770840D01*
X62997338Y-41844510D02*
X62962579Y-41851707D01*
X63213618Y-41819076D02*
X63176648Y-41821198D01*
X68994393Y-43146703D02*
X68989897Y-43104478D01*
X62495770Y-43076497D02*
X62498267Y-43055828D01*
X69446780Y-43919544D02*
X69428975Y-43926818D01*
X64423186Y-43419011D02*
X64411895Y-43421655D01*
X64537629Y-43348901D02*
X64529900Y-43357122D01*
X63832395Y-43816261D02*
X63818562Y-43829652D01*
X64234376Y-42993491D02*
X64243846Y-42987333D01*
X68189461Y-43119386D02*
X68193131Y-43108389D01*
X69661231Y-42605450D02*
X69674061Y-42618396D01*
X69336264Y-43956579D02*
X69317033Y-43961184D01*
X60373623Y-43261925D02*
X60387855Y-43249165D01*
X69222804Y-44508218D02*
X69259323Y-44505443D01*
X63820609Y-42975935D02*
X63810449Y-43004715D01*
X68365348Y-43421655D02*
X68354057Y-43419011D01*
X68354057Y-43419011D02*
X68342982Y-43415820D01*
X69884193Y-43084220D02*
X69886225Y-43104915D01*
X70189416Y-44037755D02*
X70209365Y-44013303D01*
X59458408Y-42578083D02*
X59451068Y-42596175D01*
X68332137Y-42967424D02*
X68342982Y-42963701D01*
X68424387Y-42953364D02*
X68436238Y-42954279D01*
X60565817Y-42933270D02*
X60569516Y-42913588D01*
X64389074Y-42334772D02*
X64369399Y-42310384D01*
X62571728Y-42802714D02*
X62580280Y-42784801D01*
X65928677Y-43522288D02*
X65931823Y-43533519D01*
X61934299Y-43538790D02*
X61942732Y-43571369D01*
X64504504Y-43379430D02*
X64495353Y-43386030D01*
X63801733Y-43034158D02*
X63794503Y-43064220D01*
X62517560Y-43418152D02*
X62512793Y-43398160D01*
X67828841Y-43189761D02*
X67830105Y-43229057D01*
X70460842Y-42912578D02*
X70454213Y-42880274D01*
X68180169Y-43165566D02*
X68181654Y-43153722D01*
X64919488Y-43374191D02*
X64926118Y-43352245D01*
X64546360Y-43776649D02*
X64559542Y-43747780D01*
X59771625Y-42882416D02*
X59768478Y-42871185D01*
X60159578Y-42979402D02*
X60151471Y-42987241D01*
X65557300Y-43410022D02*
X65566119Y-43402994D01*
X63173277Y-42352588D02*
X63194267Y-42350285D01*
X70429648Y-43587819D02*
X70438616Y-43556289D01*
X59914301Y-43034378D02*
X59903702Y-43030138D01*
X62519034Y-42035283D02*
X62491181Y-42053421D01*
X64886254Y-42923729D02*
X64864947Y-42884622D01*
X63072085Y-42371736D02*
X63091823Y-42366891D01*
X65775155Y-43818722D02*
X65764080Y-43821913D01*
X70265326Y-42438633D02*
X70247320Y-42412778D01*
X65614919Y-43810760D02*
X65604580Y-43806019D01*
X68585143Y-43348901D02*
X68577414Y-43357122D01*
X68926455Y-42909553D02*
X68906305Y-42874552D01*
X70299389Y-42491803D02*
X70282682Y-42464975D01*
X70373172Y-42633228D02*
X70359717Y-42603973D01*
X65517491Y-43032233D02*
X65493944Y-43040953D01*
X59854902Y-42622372D02*
X59864054Y-42615771D01*
X59846084Y-42994681D02*
X59837614Y-42987241D01*
X62180680Y-42344316D02*
X62161018Y-42370395D01*
X63661790Y-43942230D02*
X63644277Y-43951337D01*
X68492620Y-42967424D02*
X68503218Y-42971663D01*
X69401473Y-41892828D02*
X69366522Y-41886951D01*
X65899300Y-43724990D02*
X65892792Y-43734271D01*
X63813438Y-42554229D02*
X63827631Y-42567687D01*
X65122222Y-43592663D02*
X65122615Y-43614616D01*
X62990168Y-44535074D02*
X63025173Y-44541407D01*
X64199828Y-43022399D02*
X64207936Y-43014561D01*
X60328537Y-43297352D02*
X60343953Y-43286030D01*
X62492138Y-43253920D02*
X62491004Y-43232691D01*
X63223429Y-44030995D02*
X63202174Y-44029173D01*
X62102578Y-43934958D02*
X62120263Y-43962229D01*
X62601177Y-44395625D02*
X62631066Y-44411198D01*
X60464070Y-43163434D02*
X60475136Y-43147724D01*
X63784679Y-43126021D02*
X63782172Y-43157671D01*
X62598960Y-43625581D02*
X62589543Y-43608062D01*
X60085383Y-43030138D02*
X60074784Y-43034378D01*
X65493944Y-43040953D02*
X65470883Y-43050659D01*
X65479695Y-43651806D02*
X65477088Y-43640356D01*
X60225267Y-42848080D02*
X60223214Y-42859734D01*
X69175897Y-42398615D02*
X69196763Y-42400219D01*
X63318398Y-44561720D02*
X63355709Y-44560447D01*
X60151471Y-42987241D02*
X60143001Y-42994681D01*
X68645489Y-43201939D02*
X68644587Y-43213957D01*
X70056402Y-42202377D02*
X70032193Y-42181737D01*
X61951968Y-43603659D02*
X61962008Y-43635658D01*
X64050183Y-44344538D02*
X64077999Y-44326353D01*
X65482841Y-43663038D02*
X65479695Y-43651806D01*
X64529900Y-43357122D02*
X64521793Y-43364961D01*
X59925146Y-43038100D02*
X59914301Y-43034378D01*
X64537629Y-43030621D02*
X64544967Y-43039210D01*
X69111878Y-43982972D02*
X68673107Y-43982972D01*
X63931251Y-42691171D02*
X63944714Y-42711670D01*
X65920826Y-43684783D02*
X65916150Y-43695268D01*
X69436034Y-41899487D02*
X69401473Y-41892828D01*
X69698701Y-42645318D02*
X69710506Y-42659279D01*
X65936483Y-43628702D02*
X65934430Y-43640356D01*
X63708869Y-44501379D02*
X63742183Y-44490871D01*
X63429245Y-44555361D02*
X63465470Y-44551552D01*
X68447917Y-43423737D02*
X68436238Y-43425243D01*
X63781046Y-41900327D02*
X63748314Y-41888921D01*
X60217460Y-42882416D02*
X60213790Y-42893413D01*
X64503400Y-43860679D02*
X64518288Y-43833098D01*
X68552018Y-43379430D02*
X68542867Y-43386030D01*
X62887448Y-44511055D02*
X62921304Y-44519897D01*
X61908900Y-42981529D02*
X61904392Y-43015530D01*
X65862687Y-43417463D02*
X65870794Y-43425301D01*
X64306751Y-42240027D02*
X64284658Y-42217509D01*
X64532608Y-43805088D02*
X64546360Y-43776649D01*
X68179268Y-43177584D02*
X68180169Y-43165566D01*
X65506145Y-43715386D02*
X65500523Y-43705474D01*
X68883912Y-42841127D02*
X68859379Y-42809384D01*
X68560836Y-43372402D02*
X68552018Y-43379430D01*
X61920370Y-42914371D02*
X61914226Y-42947810D01*
X69783471Y-43618656D02*
X69774085Y-43634625D01*
X68871906Y-43554482D02*
X68883912Y-43538393D01*
X67922725Y-42867630D02*
X67903863Y-42899168D01*
X64376872Y-42953364D02*
X64388724Y-42954279D01*
X63331471Y-44032321D02*
X63310174Y-44033082D01*
X62631066Y-44411198D02*
X62661501Y-44426180D01*
X59630100Y-42349864D02*
X59615462Y-42362157D01*
X64559542Y-43747780D02*
X64580582Y-43739754D01*
X65925006Y-43511291D02*
X65928677Y-43522288D01*
X64207936Y-43364961D02*
X64199828Y-43357122D01*
X66212043Y-43298255D02*
X66202345Y-43281778D01*
X69277876Y-43969059D02*
X69257949Y-43972332D01*
X64597975Y-43201939D02*
X64597074Y-43213957D01*
X63474852Y-44012780D02*
X63454980Y-44017094D01*
X65404857Y-43085432D02*
X65383983Y-43098824D01*
X64216406Y-43007120D02*
X64225224Y-43000092D01*
X63875158Y-43769778D02*
X63859049Y-43788322D01*
X60125031Y-42615771D02*
X60134183Y-42622372D01*
X66162927Y-43960544D02*
X66183515Y-43932610D01*
X65870794Y-43760024D02*
X65862687Y-43767862D01*
X62894157Y-41868631D02*
X62860494Y-41878355D01*
X69185891Y-41869310D02*
X69148585Y-41868133D01*
X65184042Y-43858349D02*
X65193467Y-43876604D01*
X69929802Y-42105182D02*
X69902818Y-42087543D01*
X70385975Y-42662968D02*
X70373172Y-42633228D01*
X63310174Y-44033082D02*
X63288672Y-44033336D01*
X62555703Y-43534919D02*
X62548201Y-43515858D01*
X68178964Y-43189761D02*
X68179268Y-43177584D01*
X62555688Y-42839375D02*
X62563530Y-42820906D01*
X62026343Y-42595900D02*
X62012325Y-42626181D01*
X68611992Y-43067038D02*
X68617614Y-43076950D01*
X63091823Y-42366891D02*
X63111811Y-42362553D01*
X63907755Y-41953845D02*
X63876836Y-41939456D01*
X69774085Y-42749929D02*
X69783471Y-42766167D01*
X64054421Y-42034662D02*
X64026150Y-42017315D01*
X68645489Y-43177584D02*
X68645793Y-43189761D01*
X64641270Y-43711016D02*
X64660629Y-43699944D01*
X64302335Y-44135992D02*
X64323425Y-44113077D01*
X68741945Y-43678164D02*
X68758176Y-43666458D01*
X65131827Y-43700265D02*
X65135971Y-43721068D01*
X68883912Y-43538393D02*
X68895382Y-43521884D01*
X64753528Y-42748350D02*
X64719821Y-42720030D01*
X68627445Y-43281882D02*
X68622769Y-43292366D01*
X61894553Y-43154350D02*
X61894142Y-43189761D01*
X68617614Y-43076950D02*
X68622769Y-43087156D01*
X64941126Y-43096052D02*
X64932239Y-43050871D01*
X62580509Y-43590238D02*
X62571857Y-43572107D01*
X59423268Y-42933270D02*
X59432562Y-42971915D01*
X63099621Y-44012212D02*
X63079861Y-44007244D01*
X69577285Y-43847631D02*
X69562133Y-43857947D01*
X63407120Y-42355641D02*
X63427447Y-42359055D01*
X70446805Y-42848284D02*
X70438616Y-42816608D01*
X65470883Y-43050659D02*
X65448332Y-43061324D01*
X64733229Y-43648673D02*
X64750080Y-43634201D01*
X64434261Y-43415820D02*
X64423186Y-43419011D01*
X69503991Y-44463690D02*
X69537387Y-44454522D01*
X59548597Y-42430401D02*
X59536569Y-42445325D01*
X65688649Y-44184318D02*
X65694336Y-44184392D01*
X60574962Y-42873562D02*
X60576687Y-42853241D01*
X60105786Y-42603912D02*
X60115560Y-42609613D01*
X61895783Y-43119221D02*
X61894553Y-43154350D01*
X62855988Y-42467236D02*
X62872311Y-42456946D01*
X69889845Y-43197315D02*
X69889618Y-43219276D01*
X70103146Y-42245461D02*
X70080053Y-42223618D01*
X60514308Y-43081253D02*
X60522770Y-43063784D01*
X65525656Y-43442112D02*
X65532994Y-43433523D01*
X69481397Y-43903848D02*
X69464255Y-43911887D01*
X65490692Y-43684783D02*
X65486512Y-43674035D01*
X69887807Y-43262386D02*
X69886225Y-43283537D01*
X62541165Y-42877141D02*
X62548201Y-42858122D01*
X65845399Y-43402994D02*
X65854217Y-43410022D01*
X68225346Y-43331369D02*
X68218837Y-43322089D01*
X69428975Y-42454717D02*
X69446780Y-42462218D01*
X59676336Y-43308172D02*
X59708982Y-43328259D01*
X60280103Y-43982973D02*
X60280103Y-43328259D01*
X68301135Y-42981633D02*
X68311199Y-42976404D01*
X63712333Y-43912552D02*
X63695819Y-43922836D01*
X64234376Y-43386030D02*
X64225224Y-43379430D01*
X65272400Y-43196323D02*
X65256311Y-43215194D01*
X62820899Y-44490871D02*
X62853980Y-44501379D01*
X62714074Y-43784292D02*
X62700855Y-43769747D01*
X59821777Y-42652900D02*
X59829507Y-42644679D01*
X63768992Y-42516115D02*
X63784118Y-42528444D01*
X64192099Y-43348901D02*
X64184762Y-43340312D01*
X68641049Y-43142068D02*
X68643102Y-43153722D01*
X68641049Y-43237455D02*
X68638442Y-43248905D01*
X60495764Y-43115192D02*
X60505302Y-43098393D01*
X63533246Y-43996792D02*
X63513985Y-44002629D01*
X59775295Y-42893413D02*
X59771625Y-42882416D01*
X60452517Y-42445325D02*
X60427997Y-42415886D01*
X64149797Y-43281882D02*
X64145617Y-43271133D01*
X64352856Y-42953364D02*
X64364864Y-42953056D01*
X64329326Y-43423737D02*
X64317833Y-43421655D01*
X68218837Y-43322089D02*
X68212764Y-43312485D01*
X69845857Y-42907262D02*
X69851886Y-42926097D01*
X61927332Y-42881213D02*
X61920370Y-42914371D01*
X63807713Y-44467364D02*
X63839929Y-44454369D01*
X63705394Y-42470552D02*
X63721756Y-42481381D01*
X63839929Y-44454369D02*
X63871636Y-44440552D01*
X62589187Y-42767167D02*
X62598450Y-42749813D01*
X62490096Y-43189760D02*
X62490096Y-43182206D01*
X69847194Y-44322987D02*
X69875283Y-44306413D01*
X65500523Y-43705474D02*
X65495367Y-43695268D01*
X62010076Y-43760714D02*
X62023864Y-43791020D01*
X64825646Y-43552823D02*
X64838895Y-43534871D01*
X65584741Y-43795090D02*
X65575270Y-43788932D01*
X59936221Y-42582790D02*
X59947512Y-42580146D01*
X68622769Y-43087156D02*
X68627445Y-43097641D01*
X70299389Y-43883481D02*
X70315446Y-43856003D01*
X70228667Y-42387411D02*
X70209365Y-42362532D01*
X62905950Y-42437546D02*
X62923269Y-42428438D01*
X65870794Y-43425301D02*
X65878524Y-43433523D01*
X63818562Y-43829652D02*
X63804393Y-43842659D01*
X59493321Y-43115192D02*
X59513949Y-43147724D01*
X60174645Y-42962591D02*
X60167308Y-42971181D01*
X69237788Y-43975164D02*
X69217393Y-43977556D01*
X64912051Y-43395766D02*
X64919488Y-43374191D01*
X63788804Y-43094856D02*
X63784679Y-43126021D01*
X64455332Y-43940857D02*
X64471921Y-43914558D01*
X65128406Y-43679204D02*
X65131827Y-43700265D01*
X62522780Y-42935213D02*
X62528454Y-42915687D01*
X63910910Y-43561683D02*
X63930187Y-43584635D01*
X62221897Y-42293578D02*
X62200973Y-42318711D01*
X63871636Y-44440552D02*
X63902784Y-44426111D01*
X68255450Y-43014561D02*
X68263920Y-43007120D01*
X69154795Y-43982109D02*
X69133456Y-43982756D01*
X69110885Y-44511782D02*
X69148586Y-44511386D01*
X66237993Y-43349669D02*
X66229878Y-43332213D01*
X68617614Y-43302572D02*
X68611992Y-43312485D01*
X64145617Y-43271133D02*
X64141946Y-43260136D01*
X69570396Y-44444550D02*
X69603018Y-44433773D01*
X64513323Y-43372402D02*
X64504504Y-43379430D01*
X62948556Y-43957766D02*
X62930806Y-43948812D01*
X63891532Y-42843545D02*
X63874810Y-42868340D01*
X69667107Y-41967962D02*
X69635254Y-41955840D01*
X69888938Y-43240966D02*
X69887807Y-43262386D01*
X66158608Y-43219499D02*
X66146491Y-43204898D01*
X60030081Y-42578064D02*
X60041573Y-42580146D01*
X64485882Y-42987333D02*
X64495353Y-42993491D01*
X65778638Y-44179852D02*
X65814111Y-44174240D01*
X64766376Y-43619104D02*
X64782099Y-43603399D01*
X68708283Y-43699904D02*
X68725310Y-43689317D01*
X62261961Y-44139019D02*
X62284739Y-44162264D01*
X64478404Y-42463737D02*
X64461743Y-42437006D01*
X64471921Y-43914558D02*
X64487944Y-43887832D01*
X70080053Y-44152435D02*
X70103146Y-44130536D01*
X64141946Y-43119386D02*
X64145617Y-43108389D01*
X68212764Y-43312485D02*
X68207143Y-43302572D01*
X70247320Y-42412778D02*
X70228667Y-42387411D01*
X59873525Y-42609613D02*
X59883299Y-42603912D01*
X60485705Y-43131640D02*
X60495764Y-43115192D01*
X68643102Y-43225800D02*
X68641049Y-43237455D01*
X64579931Y-43281882D02*
X64575256Y-43292366D01*
X63947220Y-43670331D02*
X63933948Y-43691118D01*
X63876836Y-41939456D02*
X63845391Y-41925657D01*
X63465470Y-44551552D02*
X63501332Y-44546900D01*
X68189461Y-43260136D02*
X68186314Y-43248905D01*
X59536569Y-43178756D02*
X59561088Y-43208195D01*
X70460842Y-43459926D02*
X70466691Y-43427210D01*
X63243104Y-44561720D02*
X63280726Y-44562144D01*
X65681900Y-43357180D02*
X65693751Y-43356266D01*
X65979091Y-44115647D02*
X66009130Y-44098300D01*
X63728513Y-43901876D02*
X63712333Y-43912552D01*
X68995915Y-43189760D02*
X68994393Y-43146703D01*
X69530834Y-43877446D02*
X69514686Y-43886627D01*
X62381590Y-44249620D02*
X62407146Y-44269959D01*
X63250960Y-41817802D02*
X63213618Y-41819076D01*
X64947929Y-43213796D02*
X64948401Y-43189761D01*
X60373623Y-42362157D02*
X60343953Y-42338051D01*
X64402178Y-44017205D02*
X64420460Y-43992180D01*
X70345610Y-42575202D02*
X70330853Y-42546917D01*
X61571335Y-44511782D02*
X61571335Y-43982973D01*
X63678971Y-43932729D02*
X63661790Y-43942230D01*
X65518726Y-43734271D02*
X65512217Y-43724990D01*
X62860494Y-41878355D02*
X62827194Y-41888921D01*
X64864947Y-42884622D02*
X64840882Y-42847389D01*
X62651766Y-43708644D02*
X62640443Y-43692630D01*
X64579931Y-43097641D02*
X64584111Y-43108389D01*
X60074784Y-42589703D02*
X60085383Y-42593942D01*
X65775155Y-43366603D02*
X65786000Y-43370325D01*
X64936882Y-43307313D02*
X64940981Y-43284363D01*
X63804393Y-43842659D02*
X63789888Y-43855278D01*
X63810764Y-43375931D02*
X63821037Y-43404848D01*
X60134183Y-42622372D02*
X60143001Y-42629400D01*
X63874810Y-42868340D02*
X63859313Y-42894021D01*
X66221224Y-43315070D02*
X66212043Y-43298255D01*
X64509922Y-42518611D02*
X64494464Y-42490939D01*
X65647437Y-43363412D02*
X65658728Y-43360768D01*
X68627445Y-43097641D02*
X68631625Y-43108389D01*
X63501332Y-44546900D02*
X63536831Y-44541407D01*
X68741945Y-42701356D02*
X68708283Y-42679617D01*
X65647437Y-43821913D02*
X65636362Y-43818722D01*
X62563530Y-42820906D02*
X62571728Y-42802714D01*
X70454213Y-42880274D02*
X70446805Y-42848284D01*
X65532994Y-43433523D02*
X65540723Y-43425301D01*
X60209609Y-42904161D02*
X60204934Y-42914646D01*
X64253621Y-43397889D02*
X64243846Y-43392188D01*
X68986566Y-43295810D02*
X68989897Y-43275042D01*
X70429648Y-42785247D02*
X70419899Y-42754201D01*
X68935656Y-43451908D02*
X68944257Y-43433496D01*
X65882786Y-44156705D02*
X65915850Y-44144918D01*
X62784669Y-43851523D02*
X62769945Y-43838838D01*
X62839993Y-42477919D02*
X62855988Y-42467236D01*
X64306542Y-43419011D02*
X64295467Y-43415820D01*
X65885861Y-43442112D02*
X65892792Y-43451055D01*
X67886924Y-43447565D02*
X67903863Y-43480354D01*
X64411895Y-43421655D02*
X64400403Y-43423737D01*
X63288672Y-41817377D02*
X63250960Y-41817802D01*
X59708982Y-41867740D02*
X59708982Y-42295823D01*
X69889845Y-43189761D02*
X69889845Y-43197315D01*
X70409371Y-43650000D02*
X70419899Y-43619056D01*
X63400389Y-41821198D02*
X63363528Y-41819076D01*
X67839983Y-43074018D02*
X67836620Y-43092837D01*
X69862623Y-43424116D02*
X69857475Y-43443140D01*
X64233311Y-44204179D02*
X64257272Y-44181644D01*
X68673107Y-43719324D02*
X68690878Y-43709910D01*
X68789374Y-43641438D02*
X68804314Y-43628152D01*
X63654470Y-42440308D02*
X63671751Y-42450016D01*
X68470700Y-42960511D02*
X68481775Y-42963701D01*
X69217393Y-42402280D02*
X69237788Y-42404795D01*
X65486512Y-43674035D02*
X65482841Y-43663038D01*
X62808984Y-42500464D02*
X62824326Y-42488996D01*
X64243846Y-42987333D02*
X64253621Y-42981633D01*
X69592105Y-43836937D02*
X69577285Y-43847631D01*
X62433242Y-44289701D02*
X62459877Y-44308844D01*
X64136193Y-43142068D02*
X64138800Y-43130617D01*
X68989897Y-43275042D02*
X68992511Y-43254041D01*
X60577730Y-42832730D02*
X60578080Y-42812041D01*
X70419899Y-43619056D02*
X70429648Y-43587819D01*
X65845399Y-43782331D02*
X65836247Y-43788932D01*
X66092105Y-44036228D02*
X66117153Y-44012421D01*
X61942732Y-43571369D02*
X61951968Y-43603659D01*
X62666593Y-41953893D02*
X62635979Y-41968935D01*
X69317033Y-42419381D02*
X69336264Y-42424154D01*
X60387855Y-43249165D02*
X60401668Y-43235949D01*
X68592480Y-43039210D02*
X68599411Y-43048153D01*
X63205850Y-44560447D02*
X63243104Y-44561720D01*
X66093624Y-43150731D02*
X66093625Y-43150731D01*
X64885076Y-43458081D02*
X64894827Y-43437729D01*
X70032194Y-44194473D02*
X70056402Y-44173748D01*
X64141946Y-43260136D02*
X64138800Y-43248905D01*
X64364864Y-43426465D02*
X64352856Y-43426157D01*
X59423268Y-42690811D02*
X59419569Y-42710493D01*
X68542867Y-43386030D02*
X68533396Y-43392188D01*
X60312749Y-42315909D02*
X60280103Y-42295823D01*
X68412379Y-43426465D02*
X68400370Y-43426157D01*
X59438133Y-42633228D02*
X59432562Y-42652167D01*
X65729618Y-43357180D02*
X65741297Y-43358686D01*
X62243453Y-42268921D02*
X62221897Y-42293578D01*
X63641147Y-44519897D02*
X63675191Y-44511055D01*
X59854902Y-43001709D02*
X59846084Y-42994681D01*
X61897833Y-43084375D02*
X61895783Y-43119221D01*
X60143001Y-42994681D02*
X60134183Y-43001709D01*
X64455705Y-42971663D02*
X64466043Y-42976404D01*
X60151471Y-42636840D02*
X60159578Y-42644679D01*
X68201987Y-43292366D02*
X68197312Y-43281882D01*
X63775047Y-43867510D02*
X63759870Y-43879355D01*
X63794643Y-43316112D02*
X63801951Y-43346338D01*
X66259000Y-43403803D02*
X66252565Y-43385476D01*
X66093625Y-43150731D02*
X66337717Y-42546378D01*
X68859379Y-43570136D02*
X68871906Y-43554482D01*
X69857475Y-42945140D02*
X69862623Y-42964389D01*
X60204934Y-42914646D02*
X60199778Y-42924852D01*
X60181575Y-42953649D02*
X60174645Y-42962591D01*
X63600803Y-42413420D02*
X63618996Y-42422010D01*
X65817002Y-43800791D02*
X65806938Y-43806019D01*
X65566119Y-43402994D02*
X65575270Y-43396393D01*
X62618939Y-43659708D02*
X62608759Y-43642795D01*
X64420460Y-43992180D02*
X64438178Y-43966731D01*
X63721756Y-42481381D02*
X63737810Y-42492584D01*
X66120916Y-43176942D02*
X66107479Y-43163612D01*
X69832485Y-42870210D02*
X69839390Y-42888632D01*
X63506631Y-42377965D02*
X63525894Y-42384005D01*
X68503218Y-42971663D02*
X68513557Y-42976404D01*
X60199778Y-42699230D02*
X60204934Y-42709436D01*
X59959004Y-42578064D02*
X59970683Y-42576558D01*
X69196763Y-43979510D02*
X69175897Y-43981027D01*
X64295467Y-43415820D02*
X64284623Y-43412098D01*
X64461743Y-42437006D02*
X64444480Y-42410744D01*
X60181575Y-42670432D02*
X60188084Y-42679713D01*
X68311199Y-43403117D02*
X68301135Y-43397889D01*
X69317033Y-43961184D02*
X69297570Y-43965344D01*
X65140823Y-43741601D02*
X65146370Y-43761850D01*
X69514686Y-42495875D02*
X69530834Y-42505200D01*
X59893363Y-43025397D02*
X59883299Y-43020169D01*
X62410964Y-42111576D02*
X62385342Y-42132211D01*
X63644277Y-43951337D02*
X63626431Y-43960050D01*
X61998931Y-42656924D02*
X61986255Y-42688130D01*
X60041573Y-43043934D02*
X60030081Y-43046017D01*
X59660548Y-42326729D02*
X59645132Y-42338051D01*
X65741297Y-43826639D02*
X65729618Y-43828144D01*
X62605914Y-41984593D02*
X62576401Y-42000870D01*
X63917186Y-42671151D02*
X63931251Y-42691171D01*
X65938870Y-43580485D02*
X65939174Y-43592663D01*
X69721965Y-43709995D02*
X69710506Y-43724172D01*
X65806938Y-43379306D02*
X65817002Y-43384534D01*
X63794503Y-43064220D02*
X63788804Y-43094856D01*
X70482288Y-43293344D02*
X70484238Y-43259121D01*
X62161018Y-42370395D02*
X62141987Y-42396945D01*
X60572568Y-42893682D02*
X60574962Y-42873562D01*
X63832169Y-42947863D02*
X63820609Y-42975935D01*
X68995533Y-43211386D02*
X68995915Y-43189760D01*
X61919843Y-43472767D02*
X61926670Y-43505922D01*
X62779273Y-42524578D02*
X62793967Y-42512325D01*
X68673107Y-43982972D02*
X68673107Y-43719324D01*
X63626431Y-43960050D02*
X63608252Y-43968369D01*
X63781327Y-43189761D02*
X63782181Y-43222078D01*
X69839390Y-43498637D02*
X69832485Y-43516614D01*
X69620751Y-42568777D02*
X69634576Y-42580640D01*
X67843926Y-43055412D02*
X67839983Y-43074018D01*
X62360279Y-42153474D02*
X62335778Y-42175364D01*
X60134183Y-43001709D02*
X60125031Y-43008310D01*
X69620751Y-43814423D02*
X69606594Y-43825868D01*
X69514686Y-43886627D02*
X69498208Y-43895428D01*
X62534583Y-43477224D02*
X62528454Y-43457683D01*
X68832812Y-42779429D02*
X68804314Y-42751369D01*
X70466691Y-43427210D02*
X70471760Y-43394195D01*
X64341005Y-42954279D02*
X64352856Y-42953364D01*
X67865295Y-42983312D02*
X67859133Y-43000968D01*
X69729332Y-44383277D02*
X69759622Y-44369108D01*
X60544779Y-43009521D02*
X60550952Y-42990853D01*
X68643102Y-43153722D02*
X68644587Y-43165566D01*
X59982534Y-42575644D02*
X59994543Y-42575336D01*
X68481775Y-42963701D02*
X68492620Y-42967424D01*
X64814198Y-42812171D02*
X64785033Y-42779111D01*
X65729618Y-43828144D02*
X65717767Y-43829059D01*
X64159628Y-43302572D02*
X64154473Y-43292366D01*
X63280726Y-42346186D02*
X63302318Y-42346448D01*
X69436036Y-44479618D02*
X69470208Y-44472055D01*
X62618039Y-42715942D02*
X62628367Y-42699427D01*
X68301135Y-43397889D02*
X68291361Y-43392188D01*
X68291361Y-42987333D02*
X68301135Y-42981633D01*
X60227654Y-42824218D02*
X60226752Y-42836236D01*
X63845792Y-43460476D02*
X63860186Y-43487100D01*
X62764901Y-42537222D02*
X62779273Y-42524578D01*
X65920826Y-43500542D02*
X65925006Y-43511291D01*
X69635254Y-41955840D02*
X69603018Y-41944497D01*
X64306542Y-42960511D02*
X64317833Y-42957867D01*
X66146491Y-43204898D02*
X66133924Y-43190708D01*
X68944257Y-43433496D02*
X68952245Y-43414743D01*
X62239813Y-44115273D02*
X62261961Y-44139019D01*
X61904182Y-43371589D02*
X61908599Y-43405599D01*
X63933376Y-44411044D02*
X63963410Y-44395354D01*
X62799696Y-43863831D02*
X62784669Y-43851523D01*
X60312749Y-43308172D02*
X60328537Y-43297352D01*
X68365348Y-42957867D02*
X68376840Y-42955784D01*
X64894827Y-43437729D02*
X64903825Y-43416951D01*
X64423186Y-42960511D02*
X64434261Y-42963701D01*
X65786000Y-43370325D02*
X65796599Y-43374565D01*
X61984495Y-43698780D02*
X61996944Y-43729900D01*
X62697757Y-41939468D02*
X62666593Y-41953893D01*
X65717767Y-43829059D02*
X65705759Y-43829367D01*
X69217393Y-43977556D02*
X69196763Y-43979510D01*
X69470208Y-44472055D02*
X69503991Y-44463690D01*
X63920103Y-43711456D02*
X63905688Y-43731345D01*
X59493321Y-42508889D02*
X59483783Y-42525689D01*
X60115560Y-43014468D02*
X60105786Y-43020169D01*
X68071870Y-42709180D02*
X68043125Y-42731522D01*
X63060352Y-44001750D02*
X63041096Y-43995729D01*
X63688726Y-42460097D02*
X63705394Y-42470552D01*
X62966610Y-43966354D02*
X62948556Y-43957766D01*
X62085538Y-43907182D02*
X62102578Y-43934958D01*
X65131397Y-43487595D02*
X65127420Y-43513358D01*
X64476108Y-42981633D02*
X64485882Y-42987333D01*
X67965904Y-42808629D02*
X67943431Y-42837424D01*
X63636885Y-42430973D02*
X63654470Y-42440308D01*
X62040985Y-42566081D02*
X62026343Y-42595900D01*
X68972399Y-43356571D02*
X68977804Y-43336587D01*
X69661231Y-43777842D02*
X69648069Y-43790409D01*
X59864054Y-43008310D02*
X59854902Y-43001709D01*
X65614919Y-43374565D02*
X65625518Y-43370325D01*
X68773990Y-43654212D02*
X68789374Y-43641438D01*
X68569306Y-43014561D02*
X68577414Y-43022399D01*
X59821777Y-42971181D02*
X59814440Y-42962591D01*
X65892792Y-43451055D02*
X65899300Y-43460335D01*
X63715209Y-41878355D02*
X63681729Y-41868631D01*
X62508481Y-42994785D02*
X62512793Y-42974763D01*
X59779476Y-42719920D02*
X59784151Y-42709436D01*
X69175897Y-43981027D02*
X69154795Y-43982109D01*
X62495770Y-43295906D02*
X62493727Y-43274991D01*
X59692484Y-42305603D02*
X59676336Y-42315909D01*
X66038025Y-44079235D02*
X66065705Y-44058522D01*
X69875412Y-43365463D02*
X69871593Y-43385279D01*
X70125684Y-44108094D02*
X70147575Y-44085150D01*
X60063939Y-43038100D02*
X60052864Y-43041291D01*
X62598450Y-42749813D02*
X62608067Y-42732737D01*
X63352565Y-44031052D02*
X63331471Y-44032321D01*
X62493727Y-43274991D02*
X62492138Y-43253920D01*
X59615462Y-43261925D02*
X59645132Y-43286030D01*
X62528454Y-42915687D02*
X62534583Y-42896330D01*
X63236996Y-42347212D02*
X63258736Y-42346442D01*
X68959606Y-42983858D02*
X68944257Y-42946024D01*
X63014372Y-42389303D02*
X63033359Y-42382943D01*
X64903825Y-43416951D02*
X64912051Y-43395766D01*
X69259321Y-41874016D02*
X69222803Y-41871271D01*
X63363528Y-41819076D02*
X63326289Y-41817802D01*
X69111878Y-42396548D02*
X69133456Y-42396778D01*
X60550952Y-42990853D02*
X60556523Y-42971915D01*
X64904665Y-42964568D02*
X64886254Y-42923729D01*
X63753555Y-42504162D02*
X63768992Y-42516115D01*
X64621464Y-43721354D02*
X64641270Y-43711016D01*
X60018402Y-43047522D02*
X60006551Y-43048437D01*
X65212839Y-43275797D02*
X65200030Y-43297244D01*
X59765871Y-42764347D02*
X59768478Y-42752897D01*
X59947512Y-42580146D02*
X59959004Y-42578064D01*
X68592480Y-43340312D02*
X68585143Y-43348901D01*
X62218297Y-44091024D02*
X62239813Y-44115273D01*
X64165250Y-43312485D02*
X64159628Y-43302572D01*
X64349121Y-42286465D02*
X64328238Y-42263012D01*
X63467465Y-42367459D02*
X63487154Y-42372449D01*
X64863384Y-43497437D02*
X64874589Y-43477990D01*
X60167308Y-42652900D02*
X60174645Y-42661490D01*
X70168819Y-44061704D02*
X70189416Y-44037755D01*
X68635296Y-43260136D02*
X68631625Y-43271133D01*
X59959004Y-43046017D02*
X59947512Y-43043934D01*
X67903863Y-43480354D02*
X67922725Y-43511892D01*
X69886225Y-43283537D02*
X69884193Y-43304420D01*
X65486512Y-43511291D02*
X65490692Y-43500542D01*
X60280103Y-41867740D02*
X59708982Y-41867740D01*
X69839390Y-42888632D02*
X69845857Y-42907262D01*
X59763818Y-42848080D02*
X59762333Y-42836236D01*
X69674061Y-42618396D02*
X69686553Y-42631690D01*
X68972399Y-43022949D02*
X68959606Y-42983858D01*
X63181166Y-44026828D02*
X63160406Y-44023961D01*
X68436238Y-42954279D02*
X68447917Y-42955784D01*
X68207143Y-43076950D02*
X68212764Y-43067038D01*
X63067957Y-41832648D02*
X63032464Y-41838157D01*
X62629501Y-43676319D02*
X62618939Y-43659708D01*
X65938870Y-43604840D02*
X65937968Y-43616858D01*
X62356571Y-44228681D02*
X62381590Y-44249620D01*
X65636362Y-43366603D02*
X65647437Y-43363412D01*
X63748314Y-41888921D02*
X63715209Y-41878355D01*
X68225346Y-43048153D02*
X68232276Y-43039210D01*
X59837614Y-42987241D02*
X59829507Y-42979402D01*
X70479559Y-43044914D02*
X70476050Y-43011363D01*
X63789888Y-43855278D02*
X63775047Y-43867510D01*
X60204934Y-42709436D02*
X60209609Y-42719920D01*
X62493727Y-43097326D02*
X62495770Y-43076497D01*
X62896213Y-43929797D02*
X62879370Y-43919735D01*
X64274024Y-43407859D02*
X64263685Y-43403117D01*
X64158133Y-44268063D02*
X64183742Y-44247389D01*
X65658728Y-43824556D02*
X65647437Y-43821913D01*
X64697932Y-43675668D02*
X64715840Y-43662502D01*
X62105810Y-42451454D02*
X62088664Y-42479411D01*
X68281890Y-43386030D02*
X68272738Y-43379430D01*
X64329326Y-42955784D02*
X64341005Y-42954279D01*
X60427997Y-43208195D02*
X60440488Y-43193681D01*
X64797230Y-43587105D02*
X64811752Y-43570241D01*
X63618996Y-42422010D02*
X63636885Y-42430973D01*
X69817540Y-42834281D02*
X69825187Y-42852091D01*
X65848850Y-44166502D02*
X65882786Y-44156705D01*
X59970683Y-42576558D02*
X59982534Y-42575644D01*
X64963052Y-44511782D02*
X65548328Y-44511782D01*
X62548201Y-43515858D02*
X62541165Y-43496615D01*
X62463885Y-42072182D02*
X62437146Y-42091566D01*
X68673107Y-42396548D02*
X69111878Y-42396548D01*
X68101986Y-44511782D02*
X69110885Y-44511782D01*
X68533396Y-43392188D02*
X68523621Y-43397889D01*
X70147575Y-44085150D02*
X70168819Y-44061704D01*
X60556523Y-42652167D02*
X60544779Y-42614560D01*
X62692481Y-44440570D02*
X62724007Y-44454369D01*
X59676336Y-42315909D02*
X59660548Y-42326729D01*
X62958912Y-42411406D02*
X62977148Y-42403535D01*
X65200030Y-43297244D02*
X65188103Y-43319271D01*
X68906305Y-43504968D02*
X68916667Y-43487658D01*
X65905373Y-43469939D02*
X65910994Y-43479852D01*
X68400370Y-42953364D02*
X68412379Y-42953056D01*
X64253621Y-42981633D02*
X64263685Y-42976404D01*
X70485408Y-43224594D02*
X70485798Y-43189761D01*
X60226752Y-42836236D02*
X60225267Y-42848080D01*
X64263685Y-42976404D02*
X64274024Y-42971663D01*
X63845890Y-43802483D02*
X63832395Y-43816261D01*
X64575256Y-43087156D02*
X64579931Y-43097641D01*
X64575256Y-43292366D02*
X64570100Y-43302572D01*
X68272738Y-43000092D02*
X68281890Y-42993491D01*
X65836247Y-43788932D02*
X65826776Y-43795090D01*
X63606739Y-44527904D02*
X63641147Y-44519897D01*
X63414625Y-44024200D02*
X63394142Y-44026991D01*
X65548830Y-43417463D02*
X65557300Y-43410022D01*
X64564478Y-43067038D02*
X64570100Y-43076950D01*
X70007429Y-44214610D02*
X70032194Y-44194473D01*
X65658728Y-43360768D02*
X65670221Y-43358686D01*
X64184762Y-43340312D02*
X64177831Y-43331369D01*
X64284623Y-42967424D02*
X64295467Y-42963701D01*
X60530677Y-43045998D02*
X60538017Y-43027907D01*
X69295448Y-44501873D02*
X69331181Y-44497507D01*
X62498267Y-43055828D02*
X62501217Y-43035319D01*
X62977148Y-42403535D02*
X62995635Y-42396168D01*
X60125031Y-43008310D02*
X60115560Y-43014468D01*
X68232276Y-43039210D02*
X68239613Y-43030621D01*
X68577414Y-43357122D02*
X68569306Y-43364961D01*
X63326289Y-41817802D02*
X63288672Y-41817377D01*
X69481397Y-42478317D02*
X69498208Y-42486914D01*
X62177168Y-44041017D02*
X62197415Y-44066272D01*
X64564478Y-43312485D02*
X64558406Y-43322089D01*
X68818798Y-43614365D02*
X68832812Y-43600091D01*
X65152598Y-43781800D02*
X65159493Y-43801439D01*
X63890705Y-43750786D02*
X63875158Y-43769778D01*
X61986255Y-42688130D02*
X61974395Y-42719614D01*
X65146370Y-43761850D02*
X65152598Y-43781800D01*
D10*
X70962319Y-23919094D02*
X69962319Y-23919094D01*
X69962319Y-23919094D02*
X70676604Y-23585761D01*
X70676604Y-23585761D02*
X69962319Y-23252428D01*
X69962319Y-23252428D02*
X70962319Y-23252428D01*
X70962319Y-22871475D02*
X70295652Y-22347666D01*
X70295652Y-22871475D02*
X70962319Y-22347666D01*
X70581366Y-21069427D02*
X70581366Y-20307523D01*
X70962319Y-20688475D02*
X70200414Y-20688475D01*
X69962319Y-19926570D02*
X69962319Y-19307523D01*
X69962319Y-19307523D02*
X70343271Y-19640856D01*
X70343271Y-19640856D02*
X70343271Y-19497999D01*
X70343271Y-19497999D02*
X70390890Y-19402761D01*
X70390890Y-19402761D02*
X70438509Y-19355142D01*
X70438509Y-19355142D02*
X70533747Y-19307523D01*
X70533747Y-19307523D02*
X70771842Y-19307523D01*
X70771842Y-19307523D02*
X70867080Y-19355142D01*
X70867080Y-19355142D02*
X70914700Y-19402761D01*
X70914700Y-19402761D02*
X70962319Y-19497999D01*
X70962319Y-19497999D02*
X70962319Y-19783713D01*
X70962319Y-19783713D02*
X70914700Y-19878951D01*
X70914700Y-19878951D02*
X70867080Y-19926570D01*
X70867080Y-18878951D02*
X70914700Y-18831332D01*
X70914700Y-18831332D02*
X70962319Y-18878951D01*
X70962319Y-18878951D02*
X70914700Y-18926570D01*
X70914700Y-18926570D02*
X70867080Y-18878951D01*
X70867080Y-18878951D02*
X70962319Y-18878951D01*
X69962319Y-18497999D02*
X69962319Y-17878952D01*
X69962319Y-17878952D02*
X70343271Y-18212285D01*
X70343271Y-18212285D02*
X70343271Y-18069428D01*
X70343271Y-18069428D02*
X70390890Y-17974190D01*
X70390890Y-17974190D02*
X70438509Y-17926571D01*
X70438509Y-17926571D02*
X70533747Y-17878952D01*
X70533747Y-17878952D02*
X70771842Y-17878952D01*
X70771842Y-17878952D02*
X70867080Y-17926571D01*
X70867080Y-17926571D02*
X70914700Y-17974190D01*
X70914700Y-17974190D02*
X70962319Y-18069428D01*
X70962319Y-18069428D02*
X70962319Y-18355142D01*
X70962319Y-18355142D02*
X70914700Y-18450380D01*
X70914700Y-18450380D02*
X70867080Y-18497999D01*
X60071666Y-46646819D02*
X60071666Y-45646819D01*
X60071666Y-45646819D02*
X60452618Y-45646819D01*
X60452618Y-45646819D02*
X60547856Y-45694438D01*
X60547856Y-45694438D02*
X60595475Y-45742057D01*
X60595475Y-45742057D02*
X60643094Y-45837295D01*
X60643094Y-45837295D02*
X60643094Y-45980152D01*
X60643094Y-45980152D02*
X60595475Y-46075390D01*
X60595475Y-46075390D02*
X60547856Y-46123009D01*
X60547856Y-46123009D02*
X60452618Y-46170628D01*
X60452618Y-46170628D02*
X60071666Y-46170628D01*
X61071666Y-46646819D02*
X61071666Y-45980152D01*
X61071666Y-46170628D02*
X61119285Y-46075390D01*
X61119285Y-46075390D02*
X61166904Y-46027771D01*
X61166904Y-46027771D02*
X61262142Y-45980152D01*
X61262142Y-45980152D02*
X61357380Y-45980152D01*
X61833571Y-46646819D02*
X61738333Y-46599200D01*
X61738333Y-46599200D02*
X61690714Y-46551580D01*
X61690714Y-46551580D02*
X61643095Y-46456342D01*
X61643095Y-46456342D02*
X61643095Y-46170628D01*
X61643095Y-46170628D02*
X61690714Y-46075390D01*
X61690714Y-46075390D02*
X61738333Y-46027771D01*
X61738333Y-46027771D02*
X61833571Y-45980152D01*
X61833571Y-45980152D02*
X61976428Y-45980152D01*
X61976428Y-45980152D02*
X62071666Y-46027771D01*
X62071666Y-46027771D02*
X62119285Y-46075390D01*
X62119285Y-46075390D02*
X62166904Y-46170628D01*
X62166904Y-46170628D02*
X62166904Y-46456342D01*
X62166904Y-46456342D02*
X62119285Y-46551580D01*
X62119285Y-46551580D02*
X62071666Y-46599200D01*
X62071666Y-46599200D02*
X61976428Y-46646819D01*
X61976428Y-46646819D02*
X61833571Y-46646819D01*
X63024047Y-45980152D02*
X63024047Y-46646819D01*
X62595476Y-45980152D02*
X62595476Y-46503961D01*
X62595476Y-46503961D02*
X62643095Y-46599200D01*
X62643095Y-46599200D02*
X62738333Y-46646819D01*
X62738333Y-46646819D02*
X62881190Y-46646819D01*
X62881190Y-46646819D02*
X62976428Y-46599200D01*
X62976428Y-46599200D02*
X63024047Y-46551580D01*
X63928809Y-46646819D02*
X63928809Y-45646819D01*
X63928809Y-46599200D02*
X63833571Y-46646819D01*
X63833571Y-46646819D02*
X63643095Y-46646819D01*
X63643095Y-46646819D02*
X63547857Y-46599200D01*
X63547857Y-46599200D02*
X63500238Y-46551580D01*
X63500238Y-46551580D02*
X63452619Y-46456342D01*
X63452619Y-46456342D02*
X63452619Y-46170628D01*
X63452619Y-46170628D02*
X63500238Y-46075390D01*
X63500238Y-46075390D02*
X63547857Y-46027771D01*
X63547857Y-46027771D02*
X63643095Y-45980152D01*
X63643095Y-45980152D02*
X63833571Y-45980152D01*
X63833571Y-45980152D02*
X63928809Y-46027771D01*
X64547857Y-46646819D02*
X64452619Y-46599200D01*
X64452619Y-46599200D02*
X64405000Y-46503961D01*
X64405000Y-46503961D02*
X64405000Y-45646819D01*
X64833572Y-45980152D02*
X65071667Y-46646819D01*
X65309762Y-45980152D02*
X65071667Y-46646819D01*
X65071667Y-46646819D02*
X64976429Y-46884914D01*
X64976429Y-46884914D02*
X64928810Y-46932533D01*
X64928810Y-46932533D02*
X64833572Y-46980152D01*
X66452620Y-46646819D02*
X66452620Y-45980152D01*
X66452620Y-46075390D02*
X66500239Y-46027771D01*
X66500239Y-46027771D02*
X66595477Y-45980152D01*
X66595477Y-45980152D02*
X66738334Y-45980152D01*
X66738334Y-45980152D02*
X66833572Y-46027771D01*
X66833572Y-46027771D02*
X66881191Y-46123009D01*
X66881191Y-46123009D02*
X66881191Y-46646819D01*
X66881191Y-46123009D02*
X66928810Y-46027771D01*
X66928810Y-46027771D02*
X67024048Y-45980152D01*
X67024048Y-45980152D02*
X67166905Y-45980152D01*
X67166905Y-45980152D02*
X67262144Y-46027771D01*
X67262144Y-46027771D02*
X67309763Y-46123009D01*
X67309763Y-46123009D02*
X67309763Y-46646819D01*
X68214524Y-46646819D02*
X68214524Y-46123009D01*
X68214524Y-46123009D02*
X68166905Y-46027771D01*
X68166905Y-46027771D02*
X68071667Y-45980152D01*
X68071667Y-45980152D02*
X67881191Y-45980152D01*
X67881191Y-45980152D02*
X67785953Y-46027771D01*
X68214524Y-46599200D02*
X68119286Y-46646819D01*
X68119286Y-46646819D02*
X67881191Y-46646819D01*
X67881191Y-46646819D02*
X67785953Y-46599200D01*
X67785953Y-46599200D02*
X67738334Y-46503961D01*
X67738334Y-46503961D02*
X67738334Y-46408723D01*
X67738334Y-46408723D02*
X67785953Y-46313485D01*
X67785953Y-46313485D02*
X67881191Y-46265866D01*
X67881191Y-46265866D02*
X68119286Y-46265866D01*
X68119286Y-46265866D02*
X68214524Y-46218247D01*
X69119286Y-46646819D02*
X69119286Y-45646819D01*
X69119286Y-46599200D02*
X69024048Y-46646819D01*
X69024048Y-46646819D02*
X68833572Y-46646819D01*
X68833572Y-46646819D02*
X68738334Y-46599200D01*
X68738334Y-46599200D02*
X68690715Y-46551580D01*
X68690715Y-46551580D02*
X68643096Y-46456342D01*
X68643096Y-46456342D02*
X68643096Y-46170628D01*
X68643096Y-46170628D02*
X68690715Y-46075390D01*
X68690715Y-46075390D02*
X68738334Y-46027771D01*
X68738334Y-46027771D02*
X68833572Y-45980152D01*
X68833572Y-45980152D02*
X69024048Y-45980152D01*
X69024048Y-45980152D02*
X69119286Y-46027771D01*
X69976429Y-46599200D02*
X69881191Y-46646819D01*
X69881191Y-46646819D02*
X69690715Y-46646819D01*
X69690715Y-46646819D02*
X69595477Y-46599200D01*
X69595477Y-46599200D02*
X69547858Y-46503961D01*
X69547858Y-46503961D02*
X69547858Y-46123009D01*
X69547858Y-46123009D02*
X69595477Y-46027771D01*
X69595477Y-46027771D02*
X69690715Y-45980152D01*
X69690715Y-45980152D02*
X69881191Y-45980152D01*
X69881191Y-45980152D02*
X69976429Y-46027771D01*
X69976429Y-46027771D02*
X70024048Y-46123009D01*
X70024048Y-46123009D02*
X70024048Y-46218247D01*
X70024048Y-46218247D02*
X69547858Y-46313485D01*
X62547856Y-48256819D02*
X62452618Y-48209200D01*
X62452618Y-48209200D02*
X62404999Y-48161580D01*
X62404999Y-48161580D02*
X62357380Y-48066342D01*
X62357380Y-48066342D02*
X62357380Y-47780628D01*
X62357380Y-47780628D02*
X62404999Y-47685390D01*
X62404999Y-47685390D02*
X62452618Y-47637771D01*
X62452618Y-47637771D02*
X62547856Y-47590152D01*
X62547856Y-47590152D02*
X62690713Y-47590152D01*
X62690713Y-47590152D02*
X62785951Y-47637771D01*
X62785951Y-47637771D02*
X62833570Y-47685390D01*
X62833570Y-47685390D02*
X62881189Y-47780628D01*
X62881189Y-47780628D02*
X62881189Y-48066342D01*
X62881189Y-48066342D02*
X62833570Y-48161580D01*
X62833570Y-48161580D02*
X62785951Y-48209200D01*
X62785951Y-48209200D02*
X62690713Y-48256819D01*
X62690713Y-48256819D02*
X62547856Y-48256819D01*
X63309761Y-47590152D02*
X63309761Y-48256819D01*
X63309761Y-47685390D02*
X63357380Y-47637771D01*
X63357380Y-47637771D02*
X63452618Y-47590152D01*
X63452618Y-47590152D02*
X63595475Y-47590152D01*
X63595475Y-47590152D02*
X63690713Y-47637771D01*
X63690713Y-47637771D02*
X63738332Y-47733009D01*
X63738332Y-47733009D02*
X63738332Y-48256819D01*
X64976428Y-47733009D02*
X65309761Y-47733009D01*
X65452618Y-48256819D02*
X64976428Y-48256819D01*
X64976428Y-48256819D02*
X64976428Y-47256819D01*
X64976428Y-47256819D02*
X65452618Y-47256819D01*
X66309761Y-48256819D02*
X66309761Y-47733009D01*
X66309761Y-47733009D02*
X66262142Y-47637771D01*
X66262142Y-47637771D02*
X66166904Y-47590152D01*
X66166904Y-47590152D02*
X65976428Y-47590152D01*
X65976428Y-47590152D02*
X65881190Y-47637771D01*
X66309761Y-48209200D02*
X66214523Y-48256819D01*
X66214523Y-48256819D02*
X65976428Y-48256819D01*
X65976428Y-48256819D02*
X65881190Y-48209200D01*
X65881190Y-48209200D02*
X65833571Y-48113961D01*
X65833571Y-48113961D02*
X65833571Y-48018723D01*
X65833571Y-48018723D02*
X65881190Y-47923485D01*
X65881190Y-47923485D02*
X65976428Y-47875866D01*
X65976428Y-47875866D02*
X66214523Y-47875866D01*
X66214523Y-47875866D02*
X66309761Y-47828247D01*
X66785952Y-48256819D02*
X66785952Y-47590152D01*
X66785952Y-47780628D02*
X66833571Y-47685390D01*
X66833571Y-47685390D02*
X66881190Y-47637771D01*
X66881190Y-47637771D02*
X66976428Y-47590152D01*
X66976428Y-47590152D02*
X67071666Y-47590152D01*
X67262143Y-47590152D02*
X67643095Y-47590152D01*
X67405000Y-47256819D02*
X67405000Y-48113961D01*
X67405000Y-48113961D02*
X67452619Y-48209200D01*
X67452619Y-48209200D02*
X67547857Y-48256819D01*
X67547857Y-48256819D02*
X67643095Y-48256819D01*
X67976429Y-48256819D02*
X67976429Y-47256819D01*
X68405000Y-48256819D02*
X68405000Y-47733009D01*
X68405000Y-47733009D02*
X68357381Y-47637771D01*
X68357381Y-47637771D02*
X68262143Y-47590152D01*
X68262143Y-47590152D02*
X68119286Y-47590152D01*
X68119286Y-47590152D02*
X68024048Y-47637771D01*
X68024048Y-47637771D02*
X67976429Y-47685390D01*
X56400819Y-48536737D02*
X56400819Y-47965309D01*
X57400819Y-48251023D02*
X56400819Y-48251023D01*
X57353200Y-47251023D02*
X57400819Y-47346261D01*
X57400819Y-47346261D02*
X57400819Y-47536737D01*
X57400819Y-47536737D02*
X57353200Y-47631975D01*
X57353200Y-47631975D02*
X57257961Y-47679594D01*
X57257961Y-47679594D02*
X56877009Y-47679594D01*
X56877009Y-47679594D02*
X56781771Y-47631975D01*
X56781771Y-47631975D02*
X56734152Y-47536737D01*
X56734152Y-47536737D02*
X56734152Y-47346261D01*
X56734152Y-47346261D02*
X56781771Y-47251023D01*
X56781771Y-47251023D02*
X56877009Y-47203404D01*
X56877009Y-47203404D02*
X56972247Y-47203404D01*
X56972247Y-47203404D02*
X57067485Y-47679594D01*
X57400819Y-46774832D02*
X56734152Y-46774832D01*
X56829390Y-46774832D02*
X56781771Y-46727213D01*
X56781771Y-46727213D02*
X56734152Y-46631975D01*
X56734152Y-46631975D02*
X56734152Y-46489118D01*
X56734152Y-46489118D02*
X56781771Y-46393880D01*
X56781771Y-46393880D02*
X56877009Y-46346261D01*
X56877009Y-46346261D02*
X57400819Y-46346261D01*
X56877009Y-46346261D02*
X56781771Y-46298642D01*
X56781771Y-46298642D02*
X56734152Y-46203404D01*
X56734152Y-46203404D02*
X56734152Y-46060547D01*
X56734152Y-46060547D02*
X56781771Y-45965308D01*
X56781771Y-45965308D02*
X56877009Y-45917689D01*
X56877009Y-45917689D02*
X57400819Y-45917689D01*
X56734152Y-45441499D02*
X57734152Y-45441499D01*
X56781771Y-45441499D02*
X56734152Y-45346261D01*
X56734152Y-45346261D02*
X56734152Y-45155785D01*
X56734152Y-45155785D02*
X56781771Y-45060547D01*
X56781771Y-45060547D02*
X56829390Y-45012928D01*
X56829390Y-45012928D02*
X56924628Y-44965309D01*
X56924628Y-44965309D02*
X57210342Y-44965309D01*
X57210342Y-44965309D02*
X57305580Y-45012928D01*
X57305580Y-45012928D02*
X57353200Y-45060547D01*
X57353200Y-45060547D02*
X57400819Y-45155785D01*
X57400819Y-45155785D02*
X57400819Y-45346261D01*
X57400819Y-45346261D02*
X57353200Y-45441499D01*
X57305580Y-44536737D02*
X57353200Y-44489118D01*
X57353200Y-44489118D02*
X57400819Y-44536737D01*
X57400819Y-44536737D02*
X57353200Y-44584356D01*
X57353200Y-44584356D02*
X57305580Y-44536737D01*
X57305580Y-44536737D02*
X57400819Y-44536737D01*
X56734152Y-43393880D02*
X57400819Y-43155785D01*
X57400819Y-43155785D02*
X56734152Y-42917690D01*
X57400819Y-42012928D02*
X57400819Y-42584356D01*
X57400819Y-42298642D02*
X56400819Y-42298642D01*
X56400819Y-42298642D02*
X56543676Y-42393880D01*
X56543676Y-42393880D02*
X56638914Y-42489118D01*
X56638914Y-42489118D02*
X56686533Y-42584356D01*
X57305580Y-41584356D02*
X57353200Y-41536737D01*
X57353200Y-41536737D02*
X57400819Y-41584356D01*
X57400819Y-41584356D02*
X57353200Y-41631975D01*
X57353200Y-41631975D02*
X57305580Y-41584356D01*
X57305580Y-41584356D02*
X57400819Y-41584356D01*
X56400819Y-41203404D02*
X56400819Y-40584357D01*
X56400819Y-40584357D02*
X56781771Y-40917690D01*
X56781771Y-40917690D02*
X56781771Y-40774833D01*
X56781771Y-40774833D02*
X56829390Y-40679595D01*
X56829390Y-40679595D02*
X56877009Y-40631976D01*
X56877009Y-40631976D02*
X56972247Y-40584357D01*
X56972247Y-40584357D02*
X57210342Y-40584357D01*
X57210342Y-40584357D02*
X57305580Y-40631976D01*
X57305580Y-40631976D02*
X57353200Y-40679595D01*
X57353200Y-40679595D02*
X57400819Y-40774833D01*
X57400819Y-40774833D02*
X57400819Y-41060547D01*
X57400819Y-41060547D02*
X57353200Y-41155785D01*
X57353200Y-41155785D02*
X57305580Y-41203404D01*
X57781771Y-39108166D02*
X57734152Y-39155785D01*
X57734152Y-39155785D02*
X57591295Y-39251023D01*
X57591295Y-39251023D02*
X57496057Y-39298642D01*
X57496057Y-39298642D02*
X57353200Y-39346261D01*
X57353200Y-39346261D02*
X57115104Y-39393880D01*
X57115104Y-39393880D02*
X56924628Y-39393880D01*
X56924628Y-39393880D02*
X56686533Y-39346261D01*
X56686533Y-39346261D02*
X56543676Y-39298642D01*
X56543676Y-39298642D02*
X56448438Y-39251023D01*
X56448438Y-39251023D02*
X56305580Y-39155785D01*
X56305580Y-39155785D02*
X56257961Y-39108166D01*
X57353200Y-38298642D02*
X57400819Y-38393880D01*
X57400819Y-38393880D02*
X57400819Y-38584356D01*
X57400819Y-38584356D02*
X57353200Y-38679594D01*
X57353200Y-38679594D02*
X57305580Y-38727213D01*
X57305580Y-38727213D02*
X57210342Y-38774832D01*
X57210342Y-38774832D02*
X56924628Y-38774832D01*
X56924628Y-38774832D02*
X56829390Y-38727213D01*
X56829390Y-38727213D02*
X56781771Y-38679594D01*
X56781771Y-38679594D02*
X56734152Y-38584356D01*
X56734152Y-38584356D02*
X56734152Y-38393880D01*
X56734152Y-38393880D02*
X56781771Y-38298642D01*
X57781771Y-37965308D02*
X57734152Y-37917689D01*
X57734152Y-37917689D02*
X57591295Y-37822451D01*
X57591295Y-37822451D02*
X57496057Y-37774832D01*
X57496057Y-37774832D02*
X57353200Y-37727213D01*
X57353200Y-37727213D02*
X57115104Y-37679594D01*
X57115104Y-37679594D02*
X56924628Y-37679594D01*
X56924628Y-37679594D02*
X56686533Y-37727213D01*
X56686533Y-37727213D02*
X56543676Y-37774832D01*
X56543676Y-37774832D02*
X56448438Y-37822451D01*
X56448438Y-37822451D02*
X56305580Y-37917689D01*
X56305580Y-37917689D02*
X56257961Y-37965308D01*
X56734152Y-36441498D02*
X57591295Y-36441498D01*
X57591295Y-36441498D02*
X57686533Y-36489117D01*
X57686533Y-36489117D02*
X57734152Y-36584355D01*
X57734152Y-36584355D02*
X57734152Y-36631974D01*
X56400819Y-36441498D02*
X56448438Y-36489117D01*
X56448438Y-36489117D02*
X56496057Y-36441498D01*
X56496057Y-36441498D02*
X56448438Y-36393879D01*
X56448438Y-36393879D02*
X56400819Y-36441498D01*
X56400819Y-36441498D02*
X56496057Y-36441498D01*
X57400819Y-35536737D02*
X56877009Y-35536737D01*
X56877009Y-35536737D02*
X56781771Y-35584356D01*
X56781771Y-35584356D02*
X56734152Y-35679594D01*
X56734152Y-35679594D02*
X56734152Y-35870070D01*
X56734152Y-35870070D02*
X56781771Y-35965308D01*
X57353200Y-35536737D02*
X57400819Y-35631975D01*
X57400819Y-35631975D02*
X57400819Y-35870070D01*
X57400819Y-35870070D02*
X57353200Y-35965308D01*
X57353200Y-35965308D02*
X57257961Y-36012927D01*
X57257961Y-36012927D02*
X57162723Y-36012927D01*
X57162723Y-36012927D02*
X57067485Y-35965308D01*
X57067485Y-35965308D02*
X57019866Y-35870070D01*
X57019866Y-35870070D02*
X57019866Y-35631975D01*
X57019866Y-35631975D02*
X56972247Y-35536737D01*
X56734152Y-35060546D02*
X57400819Y-35060546D01*
X56829390Y-35060546D02*
X56781771Y-35012927D01*
X56781771Y-35012927D02*
X56734152Y-34917689D01*
X56734152Y-34917689D02*
X56734152Y-34774832D01*
X56734152Y-34774832D02*
X56781771Y-34679594D01*
X56781771Y-34679594D02*
X56877009Y-34631975D01*
X56877009Y-34631975D02*
X57400819Y-34631975D01*
X57305580Y-34155784D02*
X57353200Y-34108165D01*
X57353200Y-34108165D02*
X57400819Y-34155784D01*
X57400819Y-34155784D02*
X57353200Y-34203403D01*
X57353200Y-34203403D02*
X57305580Y-34155784D01*
X57305580Y-34155784D02*
X57400819Y-34155784D01*
X56496057Y-32965308D02*
X56448438Y-32917689D01*
X56448438Y-32917689D02*
X56400819Y-32822451D01*
X56400819Y-32822451D02*
X56400819Y-32584356D01*
X56400819Y-32584356D02*
X56448438Y-32489118D01*
X56448438Y-32489118D02*
X56496057Y-32441499D01*
X56496057Y-32441499D02*
X56591295Y-32393880D01*
X56591295Y-32393880D02*
X56686533Y-32393880D01*
X56686533Y-32393880D02*
X56829390Y-32441499D01*
X56829390Y-32441499D02*
X57400819Y-33012927D01*
X57400819Y-33012927D02*
X57400819Y-32393880D01*
X56734152Y-31536737D02*
X57400819Y-31536737D01*
X56353200Y-31774832D02*
X57067485Y-32012927D01*
X57067485Y-32012927D02*
X57067485Y-31393880D01*
X70009938Y-27125857D02*
X69962319Y-27221095D01*
X69962319Y-27221095D02*
X69962319Y-27363952D01*
X69962319Y-27363952D02*
X70009938Y-27506809D01*
X70009938Y-27506809D02*
X70105176Y-27602047D01*
X70105176Y-27602047D02*
X70200414Y-27649666D01*
X70200414Y-27649666D02*
X70390890Y-27697285D01*
X70390890Y-27697285D02*
X70533747Y-27697285D01*
X70533747Y-27697285D02*
X70724223Y-27649666D01*
X70724223Y-27649666D02*
X70819461Y-27602047D01*
X70819461Y-27602047D02*
X70914700Y-27506809D01*
X70914700Y-27506809D02*
X70962319Y-27363952D01*
X70962319Y-27363952D02*
X70962319Y-27268714D01*
X70962319Y-27268714D02*
X70914700Y-27125857D01*
X70914700Y-27125857D02*
X70867080Y-27078238D01*
X70867080Y-27078238D02*
X70533747Y-27078238D01*
X70533747Y-27078238D02*
X70533747Y-27268714D01*
X70295652Y-26649666D02*
X70962319Y-26649666D01*
X70390890Y-26649666D02*
X70343271Y-26602047D01*
X70343271Y-26602047D02*
X70295652Y-26506809D01*
X70295652Y-26506809D02*
X70295652Y-26363952D01*
X70295652Y-26363952D02*
X70343271Y-26268714D01*
X70343271Y-26268714D02*
X70438509Y-26221095D01*
X70438509Y-26221095D02*
X70962319Y-26221095D01*
X70962319Y-25316333D02*
X69962319Y-25316333D01*
X70914700Y-25316333D02*
X70962319Y-25411571D01*
X70962319Y-25411571D02*
X70962319Y-25602047D01*
X70962319Y-25602047D02*
X70914700Y-25697285D01*
X70914700Y-25697285D02*
X70867080Y-25744904D01*
X70867080Y-25744904D02*
X70771842Y-25792523D01*
X70771842Y-25792523D02*
X70486128Y-25792523D01*
X70486128Y-25792523D02*
X70390890Y-25744904D01*
X70390890Y-25744904D02*
X70343271Y-25697285D01*
X70343271Y-25697285D02*
X70295652Y-25602047D01*
X70295652Y-25602047D02*
X70295652Y-25411571D01*
X70295652Y-25411571D02*
X70343271Y-25316333D01*
X63412761Y-22044819D02*
X62841333Y-22044819D01*
X63127047Y-22044819D02*
X63127047Y-21044819D01*
X63127047Y-21044819D02*
X63031809Y-21187676D01*
X63031809Y-21187676D02*
X62936571Y-21282914D01*
X62936571Y-21282914D02*
X62841333Y-21330533D01*
X64031809Y-21044819D02*
X64127047Y-21044819D01*
X64127047Y-21044819D02*
X64222285Y-21092438D01*
X64222285Y-21092438D02*
X64269904Y-21140057D01*
X64269904Y-21140057D02*
X64317523Y-21235295D01*
X64317523Y-21235295D02*
X64365142Y-21425771D01*
X64365142Y-21425771D02*
X64365142Y-21663866D01*
X64365142Y-21663866D02*
X64317523Y-21854342D01*
X64317523Y-21854342D02*
X64269904Y-21949580D01*
X64269904Y-21949580D02*
X64222285Y-21997200D01*
X64222285Y-21997200D02*
X64127047Y-22044819D01*
X64127047Y-22044819D02*
X64031809Y-22044819D01*
X64031809Y-22044819D02*
X63936571Y-21997200D01*
X63936571Y-21997200D02*
X63888952Y-21949580D01*
X63888952Y-21949580D02*
X63841333Y-21854342D01*
X63841333Y-21854342D02*
X63793714Y-21663866D01*
X63793714Y-21663866D02*
X63793714Y-21425771D01*
X63793714Y-21425771D02*
X63841333Y-21235295D01*
X63841333Y-21235295D02*
X63888952Y-21140057D01*
X63888952Y-21140057D02*
X63936571Y-21092438D01*
X63936571Y-21092438D02*
X64031809Y-21044819D01*
X64793714Y-22044819D02*
X64793714Y-21044819D01*
X64888952Y-21663866D02*
X65174666Y-22044819D01*
X65174666Y-21378152D02*
X64793714Y-21759104D01*
X74267739Y-17285819D02*
X74267739Y-16285819D01*
X74839167Y-17285819D02*
X74410596Y-16714390D01*
X74839167Y-16285819D02*
X74267739Y-16857247D01*
X75267739Y-17285819D02*
X75267739Y-16619152D01*
X75267739Y-16285819D02*
X75220120Y-16333438D01*
X75220120Y-16333438D02*
X75267739Y-16381057D01*
X75267739Y-16381057D02*
X75315358Y-16333438D01*
X75315358Y-16333438D02*
X75267739Y-16285819D01*
X75267739Y-16285819D02*
X75267739Y-16381057D01*
X75743929Y-17285819D02*
X75743929Y-16285819D01*
X75839167Y-16904866D02*
X76124881Y-17285819D01*
X76124881Y-16619152D02*
X75743929Y-17000104D01*
X76553453Y-17285819D02*
X76553453Y-16619152D01*
X76553453Y-16285819D02*
X76505834Y-16333438D01*
X76505834Y-16333438D02*
X76553453Y-16381057D01*
X76553453Y-16381057D02*
X76601072Y-16333438D01*
X76601072Y-16333438D02*
X76553453Y-16285819D01*
X76553453Y-16285819D02*
X76553453Y-16381057D01*
X76934405Y-16619152D02*
X77124881Y-17285819D01*
X77124881Y-17285819D02*
X77315357Y-16809628D01*
X77315357Y-16809628D02*
X77505833Y-17285819D01*
X77505833Y-17285819D02*
X77696309Y-16619152D01*
X78077262Y-17285819D02*
X78077262Y-16619152D01*
X78077262Y-16285819D02*
X78029643Y-16333438D01*
X78029643Y-16333438D02*
X78077262Y-16381057D01*
X78077262Y-16381057D02*
X78124881Y-16333438D01*
X78124881Y-16333438D02*
X78077262Y-16285819D01*
X78077262Y-16285819D02*
X78077262Y-16381057D01*
X64730333Y-17980819D02*
X64397000Y-17504628D01*
X64158905Y-17980819D02*
X64158905Y-16980819D01*
X64158905Y-16980819D02*
X64539857Y-16980819D01*
X64539857Y-16980819D02*
X64635095Y-17028438D01*
X64635095Y-17028438D02*
X64682714Y-17076057D01*
X64682714Y-17076057D02*
X64730333Y-17171295D01*
X64730333Y-17171295D02*
X64730333Y-17314152D01*
X64730333Y-17314152D02*
X64682714Y-17409390D01*
X64682714Y-17409390D02*
X64635095Y-17457009D01*
X64635095Y-17457009D02*
X64539857Y-17504628D01*
X64539857Y-17504628D02*
X64158905Y-17504628D01*
X65682714Y-17980819D02*
X65111286Y-17980819D01*
X65397000Y-17980819D02*
X65397000Y-16980819D01*
X65397000Y-16980819D02*
X65301762Y-17123676D01*
X65301762Y-17123676D02*
X65206524Y-17218914D01*
X65206524Y-17218914D02*
X65111286Y-17266533D01*
D13*
%TO.C,RV1*%
X58499000Y-29138000D02*
X58499000Y-25598000D01*
X63599000Y-23228000D02*
X65019000Y-23228000D01*
X60019000Y-23428000D02*
X63599000Y-23428000D01*
X65119000Y-23428000D02*
X65119000Y-24118000D01*
X58599000Y-23228000D02*
X58599000Y-23428000D01*
X61299000Y-30448000D02*
X59809000Y-30448000D01*
X65119000Y-25158000D02*
X65119000Y-29138000D01*
X58599000Y-23428000D02*
X58499000Y-23428000D01*
X65019000Y-23428000D02*
X65119000Y-23428000D01*
X58599000Y-23228000D02*
X60019000Y-23228000D01*
X65019000Y-23228000D02*
X65019000Y-23428000D01*
X60019000Y-23428000D02*
X60019000Y-23228000D01*
X58499000Y-23428000D02*
X58499000Y-23678000D01*
X63599000Y-23428000D02*
X63599000Y-23228000D01*
X63809000Y-30448000D02*
X62319000Y-30448000D01*
X58499000Y-29138000D02*
G75*
G03*
X59809000Y-30448000I1310000J0D01*
G01*
X63809000Y-30448000D02*
G75*
G03*
X65119000Y-29138000I0J1310000D01*
G01*
%TO.C,U1*%
X63732000Y-37918000D02*
X67332000Y-37918000D01*
X63207817Y-37190795D02*
G75*
G03*
X63732001Y-37917999I2324183J1122795D01*
G01*
X67887457Y-34969629D02*
G75*
G03*
X66642000Y-33718000I-2355457J-1098371D01*
G01*
X64392000Y-33718001D02*
G75*
G03*
X63164802Y-34964158I1140000J-2349999D01*
G01*
X67331999Y-37917999D02*
G75*
G03*
X67856183Y-37190795I-1799999J1849999D01*
G01*
%TO.C,J2*%
X78031500Y-30948000D02*
X72061500Y-30948000D01*
X72061500Y-30948000D02*
X72061500Y-41068000D01*
X74321500Y-30958000D02*
X74321500Y-31708000D01*
X72821500Y-30958000D02*
X72071500Y-30958000D01*
X72071500Y-30958000D02*
X72071500Y-32758000D01*
X77271500Y-31708000D02*
X77271500Y-36008000D01*
X74321500Y-31708000D02*
X77271500Y-31708000D01*
X72821500Y-32758000D02*
X72821500Y-30958000D01*
X72071500Y-32758000D02*
X72821500Y-32758000D01*
X72821500Y-34258000D02*
X72071500Y-34258000D01*
X72071500Y-34258000D02*
X72071500Y-37758000D01*
X72821500Y-37758000D02*
X72821500Y-34258000D01*
X72071500Y-37758000D02*
X72821500Y-37758000D01*
X72821500Y-39258000D02*
X72071500Y-39258000D01*
X72071500Y-39258000D02*
X72071500Y-41058000D01*
X71771500Y-40108000D02*
X71771500Y-41358000D01*
X77271500Y-40308000D02*
X77271500Y-36008000D01*
X74321500Y-40308000D02*
X77271500Y-40308000D01*
X74321500Y-41058000D02*
X74321500Y-40308000D01*
X72821500Y-41058000D02*
X72821500Y-39258000D01*
X72071500Y-41058000D02*
X72821500Y-41058000D01*
X78031500Y-41068000D02*
X78031500Y-30948000D01*
X72061500Y-41068000D02*
X78031500Y-41068000D01*
X71771500Y-41358000D02*
X73021500Y-41358000D01*
%TO.C,J1*%
X71771500Y-28404000D02*
X73021500Y-28404000D01*
X72061500Y-28114000D02*
X78031500Y-28114000D01*
X78031500Y-28114000D02*
X78031500Y-17994000D01*
X72071500Y-28104000D02*
X72821500Y-28104000D01*
X72821500Y-28104000D02*
X72821500Y-26304000D01*
X74321500Y-28104000D02*
X74321500Y-27354000D01*
X74321500Y-27354000D02*
X77271500Y-27354000D01*
X77271500Y-27354000D02*
X77271500Y-23054000D01*
X71771500Y-27154000D02*
X71771500Y-28404000D01*
X72071500Y-26304000D02*
X72071500Y-28104000D01*
X72821500Y-26304000D02*
X72071500Y-26304000D01*
X72071500Y-24804000D02*
X72821500Y-24804000D01*
X72821500Y-24804000D02*
X72821500Y-21304000D01*
X72071500Y-21304000D02*
X72071500Y-24804000D01*
X72821500Y-21304000D02*
X72071500Y-21304000D01*
X72071500Y-19804000D02*
X72821500Y-19804000D01*
X72821500Y-19804000D02*
X72821500Y-18004000D01*
X74321500Y-18754000D02*
X77271500Y-18754000D01*
X77271500Y-18754000D02*
X77271500Y-23054000D01*
X72071500Y-18004000D02*
X72071500Y-19804000D01*
X72821500Y-18004000D02*
X72071500Y-18004000D01*
X74321500Y-18004000D02*
X74321500Y-18754000D01*
X72061500Y-17994000D02*
X72061500Y-28114000D01*
X78031500Y-17994000D02*
X72061500Y-17994000D01*
%TO.C,R1*%
X67663500Y-26753000D02*
X67663500Y-25983000D01*
X66293500Y-25983000D02*
X69033500Y-25983000D01*
X69033500Y-25983000D02*
X69033500Y-19443000D01*
X66293500Y-19443000D02*
X66293500Y-25983000D01*
X69033500Y-19443000D02*
X66293500Y-19443000D01*
X67663500Y-18673000D02*
X67663500Y-19443000D01*
%TD*%
M02*
