%TF.GenerationSoftware,KiCad,Pcbnew,(7.0.0-0)*%
%TF.CreationDate,2023-04-15T16:17:14+02:00*%
%TF.ProjectId,MPX5100DP-SMD-board,4d505835-3130-4304-9450-2d534d442d62,0.99*%
%TF.SameCoordinates,Original*%
%TF.FileFunction,Copper,L2,Bot*%
%TF.FilePolarity,Positive*%
%FSLAX46Y46*%
G04 Gerber Fmt 4.6, Leading zero omitted, Abs format (unit mm)*
G04 Created by KiCad (PCBNEW (7.0.0-0)) date 2023-04-15 16:17:14*
%MOMM*%
%LPD*%
G01*
G04 APERTURE LIST*
G04 Aperture macros list*
%AMRoundRect*
0 Rectangle with rounded corners*
0 $1 Rounding radius*
0 $2 $3 $4 $5 $6 $7 $8 $9 X,Y pos of 4 corners*
0 Add a 4 corners polygon primitive as box body*
4,1,4,$2,$3,$4,$5,$6,$7,$8,$9,$2,$3,0*
0 Add four circle primitives for the rounded corners*
1,1,$1+$1,$2,$3*
1,1,$1+$1,$4,$5*
1,1,$1+$1,$6,$7*
1,1,$1+$1,$8,$9*
0 Add four rect primitives between the rounded corners*
20,1,$1+$1,$2,$3,$4,$5,0*
20,1,$1+$1,$4,$5,$6,$7,0*
20,1,$1+$1,$6,$7,$8,$9,0*
20,1,$1+$1,$8,$9,$2,$3,0*%
G04 Aperture macros list end*
%TA.AperFunction,SMDPad,CuDef*%
%ADD10RoundRect,0.250000X-0.337500X-0.475000X0.337500X-0.475000X0.337500X0.475000X-0.337500X0.475000X0*%
%TD*%
%TA.AperFunction,SMDPad,CuDef*%
%ADD11RoundRect,0.250000X0.337500X0.475000X-0.337500X0.475000X-0.337500X-0.475000X0.337500X-0.475000X0*%
%TD*%
%TA.AperFunction,SMDPad,CuDef*%
%ADD12RoundRect,0.250001X-0.924999X0.499999X-0.924999X-0.499999X0.924999X-0.499999X0.924999X0.499999X0*%
%TD*%
%TA.AperFunction,SMDPad,CuDef*%
%ADD13RoundRect,0.150000X0.825000X0.150000X-0.825000X0.150000X-0.825000X-0.150000X0.825000X-0.150000X0*%
%TD*%
%TA.AperFunction,SMDPad,CuDef*%
%ADD14RoundRect,0.250000X0.475000X-0.337500X0.475000X0.337500X-0.475000X0.337500X-0.475000X-0.337500X0*%
%TD*%
%TA.AperFunction,SMDPad,CuDef*%
%ADD15RoundRect,0.250000X-0.875000X-0.925000X0.875000X-0.925000X0.875000X0.925000X-0.875000X0.925000X0*%
%TD*%
%TA.AperFunction,SMDPad,CuDef*%
%ADD16RoundRect,0.237500X0.237500X-0.287500X0.237500X0.287500X-0.237500X0.287500X-0.237500X-0.287500X0*%
%TD*%
%TA.AperFunction,SMDPad,CuDef*%
%ADD17RoundRect,0.380000X0.380000X0.890000X-0.380000X0.890000X-0.380000X-0.890000X0.380000X-0.890000X0*%
%TD*%
%TA.AperFunction,SMDPad,CuDef*%
%ADD18R,1.000000X2.510000*%
%TD*%
%TA.AperFunction,SMDPad,CuDef*%
%ADD19RoundRect,0.150000X0.150000X-0.587500X0.150000X0.587500X-0.150000X0.587500X-0.150000X-0.587500X0*%
%TD*%
%TA.AperFunction,SMDPad,CuDef*%
%ADD20RoundRect,0.460375X-0.460375X-1.495425X0.460375X-1.495425X0.460375X1.495425X-0.460375X1.495425X0*%
%TD*%
%TA.AperFunction,SMDPad,CuDef*%
%ADD21RoundRect,0.325000X-0.325000X1.925000X-0.325000X-1.925000X0.325000X-1.925000X0.325000X1.925000X0*%
%TD*%
%TA.AperFunction,SMDPad,CuDef*%
%ADD22RoundRect,0.250000X-0.450000X0.350000X-0.450000X-0.350000X0.450000X-0.350000X0.450000X0.350000X0*%
%TD*%
%TA.AperFunction,SMDPad,CuDef*%
%ADD23RoundRect,0.250000X0.325000X0.450000X-0.325000X0.450000X-0.325000X-0.450000X0.325000X-0.450000X0*%
%TD*%
%TA.AperFunction,SMDPad,CuDef*%
%ADD24RoundRect,0.250000X-0.475000X0.337500X-0.475000X-0.337500X0.475000X-0.337500X0.475000X0.337500X0*%
%TD*%
%TA.AperFunction,SMDPad,CuDef*%
%ADD25RoundRect,0.250000X0.350000X0.450000X-0.350000X0.450000X-0.350000X-0.450000X0.350000X-0.450000X0*%
%TD*%
%TA.AperFunction,SMDPad,CuDef*%
%ADD26RoundRect,0.237500X-0.237500X0.287500X-0.237500X-0.287500X0.237500X-0.287500X0.237500X0.287500X0*%
%TD*%
%TA.AperFunction,SMDPad,CuDef*%
%ADD27RoundRect,0.250000X0.425000X-0.537500X0.425000X0.537500X-0.425000X0.537500X-0.425000X-0.537500X0*%
%TD*%
%TA.AperFunction,Conductor*%
%ADD28C,0.250000*%
%TD*%
%TA.AperFunction,Conductor*%
%ADD29C,0.800000*%
%TD*%
G04 APERTURE END LIST*
D10*
%TO.P,C9,1*%
%TO.N,Net-(#FLG03-pwr)*%
X55199000Y-41656000D03*
%TO.P,C9,2*%
%TO.N,GND*%
X57274000Y-41656000D03*
%TD*%
D11*
%TO.P,C8,1*%
%TO.N,Net-(#FLG03-pwr)*%
X57274000Y-48514000D03*
%TO.P,C8,2*%
%TO.N,GND*%
X55199000Y-48514000D03*
%TD*%
D12*
%TO.P,C1,1*%
%TO.N,Net-(D1-K)*%
X76070000Y-36348000D03*
%TO.P,C1,2*%
%TO.N,Net-(U1-CAP+)*%
X76070000Y-39598000D03*
%TD*%
D10*
%TO.P,C6,1*%
%TO.N,Net-(J2-Pin_1)*%
X61295000Y-41783000D03*
%TO.P,C6,2*%
%TO.N,GND*%
X63370000Y-41783000D03*
%TD*%
D13*
%TO.P,U1,1,NC*%
%TO.N,unconnected-(U1-NC-Pad1)*%
X71879000Y-37338000D03*
%TO.P,U1,2,CAP+*%
%TO.N,Net-(U1-CAP+)*%
X71879000Y-38608000D03*
%TO.P,U1,3,GND*%
%TO.N,GND*%
X71879000Y-39878000D03*
%TO.P,U1,4,CAP-*%
%TO.N,unconnected-(U1-CAP--Pad4)*%
X71879000Y-41148000D03*
%TO.P,U1,5,VOUT*%
%TO.N,GND*%
X66929000Y-41148000D03*
%TO.P,U1,6,LV*%
X66929000Y-39878000D03*
%TO.P,U1,7,OSC*%
%TO.N,unconnected-(U1-OSC-Pad7)*%
X66929000Y-38608000D03*
%TO.P,U1,8,V+*%
%TO.N,+3.3V*%
X66929000Y-37338000D03*
%TD*%
D14*
%TO.P,C3,1*%
%TO.N,Net-(#FLG02-pwr)*%
X76070000Y-44704000D03*
%TO.P,C3,2*%
%TO.N,GND*%
X76070000Y-42629000D03*
%TD*%
D15*
%TO.P,C7,1*%
%TO.N,Net-(#FLG03-pwr)*%
X84836000Y-44450000D03*
%TO.P,C7,2*%
%TO.N,GND*%
X89936000Y-44450000D03*
%TD*%
D12*
%TO.P,C2,1*%
%TO.N,Net-(#FLG02-pwr)*%
X71501000Y-43815000D03*
%TO.P,C2,2*%
%TO.N,GND*%
X71501000Y-47065000D03*
%TD*%
D16*
%TO.P,D2,1,K*%
%TO.N,Net-(#FLG02-pwr)*%
X80645000Y-44690000D03*
%TO.P,D2,2,A*%
%TO.N,Net-(D1-K)*%
X80645000Y-42940000D03*
%TD*%
D17*
%TO.P,U3,1,DNC*%
%TO.N,unconnected-(U3-DNC-Pad1)*%
X89900632Y-39079092D03*
%TO.P,U3,2,Vs*%
%TO.N,Net-(#FLG03-pwr)*%
X87411432Y-39079092D03*
%TO.P,U3,3,GND*%
%TO.N,GND*%
X85074632Y-39079092D03*
%TO.P,U3,4,Vout*%
%TO.N,Net-(U3-Vout)*%
X82534632Y-39079092D03*
%TO.P,U3,5,DNC*%
%TO.N,unconnected-(U3-DNC-Pad5)*%
X82534632Y-22319092D03*
%TO.P,U3,6,DNC*%
%TO.N,unconnected-(U3-DNC-Pad6)*%
X84989965Y-22319092D03*
%TO.P,U3,7,DNC*%
%TO.N,unconnected-(U3-DNC-Pad7)*%
X87445298Y-22319092D03*
%TO.P,U3,8,DNC*%
%TO.N,unconnected-(U3-DNC-Pad8)*%
X89900632Y-22319092D03*
%TD*%
D18*
%TO.P,J2,1,Pin_1*%
%TO.N,Net-(J2-Pin_1)*%
X57781999Y-37976999D03*
%TO.P,J2,2,Pin_2*%
%TO.N,Net-(#FLG03-pwr)*%
X55241999Y-34666999D03*
%TD*%
D19*
%TO.P,U2,1,GND*%
%TO.N,GND*%
X67307000Y-45974000D03*
%TO.P,U2,2,VO*%
%TO.N,Net-(J2-Pin_1)*%
X65407000Y-45974000D03*
%TO.P,U2,3,VI*%
%TO.N,Net-(#FLG02-pwr)*%
X66357000Y-44099000D03*
%TD*%
D20*
%TO.P,J1,*%
%TO.N,*%
X54565550Y-22682200D03*
X65938400Y-22656800D03*
D21*
%TO.P,J1,1,Pin_1*%
%TO.N,GND*%
X57759600Y-29464000D03*
%TO.P,J1,2,Pin_2*%
%TO.N,Net-(J1-Pin_2)*%
X60248800Y-29464000D03*
%TO.P,J1,3,Pin_3*%
%TO.N,+3.3V*%
X62738000Y-29464000D03*
%TD*%
D22*
%TO.P,R1,1*%
%TO.N,Net-(U3-Vout)*%
X70084000Y-27305000D03*
%TO.P,R1,2*%
%TO.N,Net-(J1-Pin_2)*%
X70084000Y-29305000D03*
%TD*%
D23*
%TO.P,L1,1*%
%TO.N,Net-(J2-Pin_1)*%
X57274000Y-45085000D03*
%TO.P,L1,2*%
%TO.N,Net-(#FLG03-pwr)*%
X55224000Y-45085000D03*
%TD*%
D24*
%TO.P,C10,1*%
%TO.N,Net-(U3-Vout)*%
X77597000Y-29210000D03*
%TO.P,C10,2*%
%TO.N,GND*%
X77597000Y-31285000D03*
%TD*%
D25*
%TO.P,R2,1*%
%TO.N,GND*%
X74279000Y-32258000D03*
%TO.P,R2,2*%
%TO.N,Net-(J1-Pin_2)*%
X72279000Y-32258000D03*
%TD*%
D26*
%TO.P,D1,1,K*%
%TO.N,Net-(D1-K)*%
X66545000Y-33161000D03*
%TO.P,D1,2,A*%
%TO.N,+3.3V*%
X66545000Y-34911000D03*
%TD*%
D27*
%TO.P,C4,1*%
%TO.N,Net-(J2-Pin_1)*%
X61465000Y-38816000D03*
%TO.P,C4,2*%
%TO.N,GND*%
X61465000Y-35941000D03*
%TD*%
D24*
%TO.P,C5,1*%
%TO.N,Net-(J2-Pin_1)*%
X61338000Y-44936500D03*
%TO.P,C5,2*%
%TO.N,GND*%
X61338000Y-47011500D03*
%TD*%
D28*
%TO.N,Net-(D1-K)*%
X80645000Y-42940000D02*
X78991000Y-41286000D01*
X78991000Y-37084000D02*
X76451000Y-37084000D01*
X69469000Y-34671000D02*
X67945000Y-33147000D01*
X72514000Y-34671000D02*
X69469000Y-34671000D01*
X76451000Y-37084000D02*
X75562000Y-36195000D01*
X66545000Y-33161000D02*
X67959000Y-33161000D01*
X75562000Y-36195000D02*
X74038000Y-36195000D01*
X78991000Y-41286000D02*
X78991000Y-37084000D01*
X74038000Y-36195000D02*
X72514000Y-34671000D01*
%TO.N,Net-(U1-CAP+)*%
X75080000Y-38608000D02*
X71498000Y-38608000D01*
X76070000Y-39598000D02*
X75080000Y-38608000D01*
D29*
%TO.N,+3.3V*%
X66929000Y-35436000D02*
X66929000Y-37338000D01*
X64516000Y-35052000D02*
X66545000Y-35052000D01*
X62865000Y-29997400D02*
X62738000Y-30124400D01*
X62738000Y-30124400D02*
X62738000Y-33274000D01*
X62738000Y-33274000D02*
X64516000Y-35052000D01*
X66545000Y-35052000D02*
X66929000Y-35436000D01*
D28*
%TO.N,Net-(J1-Pin_2)*%
X65786000Y-29337000D02*
X70052000Y-29337000D01*
X70052000Y-29337000D02*
X70084000Y-29305000D01*
X60248800Y-26212800D02*
X61061600Y-25400000D01*
X65151000Y-26695400D02*
X65151000Y-28702000D01*
X65151000Y-28702000D02*
X65786000Y-29337000D01*
X70084000Y-29305000D02*
X70084000Y-30063000D01*
X63855600Y-25400000D02*
X65151000Y-26695400D01*
X70084000Y-30063000D02*
X72279000Y-32258000D01*
X61061600Y-25400000D02*
X63855600Y-25400000D01*
X60248800Y-28213639D02*
X60248800Y-26212800D01*
%TO.N,Net-(J2-Pin_1)*%
X59433000Y-44958000D02*
X57401000Y-44958000D01*
X65407000Y-45974000D02*
X64391000Y-44958000D01*
X59306000Y-44958000D02*
X61168000Y-44958000D01*
X61465000Y-38816000D02*
X60149000Y-38816000D01*
X59310000Y-37977000D02*
X57782000Y-37977000D01*
X57401000Y-44958000D02*
X57274000Y-45085000D01*
X64391000Y-44958000D02*
X59433000Y-44958000D01*
X60149000Y-38816000D02*
X59310000Y-37977000D01*
X61338000Y-44936500D02*
X61465000Y-44809500D01*
X61465000Y-44809500D02*
X61465000Y-38816000D01*
%TO.N,Net-(#FLG02-pwr)*%
X74659000Y-44690000D02*
X73911000Y-43942000D01*
X80645000Y-44690000D02*
X76310000Y-44690000D01*
X73911000Y-43942000D02*
X66716000Y-43942000D01*
X66716000Y-43942000D02*
X66615000Y-43841000D01*
X78991000Y-44690000D02*
X74659000Y-44690000D01*
%TO.N,Net-(#FLG03-pwr)*%
X55224000Y-45085000D02*
X57274000Y-47135000D01*
X55224000Y-40894000D02*
X55224000Y-45085000D01*
X87249000Y-42037000D02*
X87249000Y-39241524D01*
X57274000Y-47135000D02*
X57274000Y-48514000D01*
X57274000Y-48514000D02*
X58290000Y-49530000D01*
X55242000Y-34667000D02*
X55242000Y-40876000D01*
X87249000Y-39241524D02*
X87411432Y-39079092D01*
X73660000Y-49530000D02*
X75438000Y-47752000D01*
X58290000Y-49530000D02*
X73660000Y-49530000D01*
X81534000Y-47752000D02*
X87249000Y-42037000D01*
X55242000Y-40876000D02*
X55224000Y-40894000D01*
X75438000Y-47752000D02*
X81534000Y-47752000D01*
%TO.N,Net-(U3-Vout)*%
X75184000Y-29210000D02*
X80518000Y-29210000D01*
X82550000Y-36957000D02*
X82550000Y-39063724D01*
X82550000Y-31242000D02*
X82550000Y-37465000D01*
X73279000Y-27305000D02*
X75184000Y-29210000D01*
X82550000Y-39063724D02*
X82534632Y-39079092D01*
X70084000Y-27305000D02*
X73279000Y-27305000D01*
X80518000Y-29210000D02*
X82550000Y-31242000D01*
%TD*%
%TA.AperFunction,Conductor*%
%TO.N,GND*%
G36*
X92390500Y-19829113D02*
G01*
X92435887Y-19874500D01*
X92452500Y-19936500D01*
X92452500Y-56644500D01*
X92435887Y-56706500D01*
X92390500Y-56751887D01*
X92328500Y-56768500D01*
X52320572Y-56768500D01*
X52258695Y-56751958D01*
X52213327Y-56706746D01*
X52196573Y-56644928D01*
X52183266Y-52772765D01*
X74853788Y-52772765D01*
X74854282Y-52777262D01*
X74854283Y-52777267D01*
X74882917Y-53037506D01*
X74882918Y-53037513D01*
X74883414Y-53042018D01*
X74884559Y-53046398D01*
X74884561Y-53046408D01*
X74916830Y-53169838D01*
X74951928Y-53304088D01*
X74953693Y-53308242D01*
X74953696Y-53308250D01*
X75056099Y-53549223D01*
X75057870Y-53553390D01*
X75060226Y-53557251D01*
X75060229Y-53557256D01*
X75196618Y-53780737D01*
X75198982Y-53784610D01*
X75372255Y-53992820D01*
X75375630Y-53995844D01*
X75375631Y-53995845D01*
X75480330Y-54089656D01*
X75573998Y-54173582D01*
X75799910Y-54323044D01*
X76045176Y-54438020D01*
X76304569Y-54516060D01*
X76572561Y-54555500D01*
X76773369Y-54555500D01*
X76775631Y-54555500D01*
X76978156Y-54540677D01*
X77242553Y-54481780D01*
X77495558Y-54385014D01*
X77731777Y-54252441D01*
X77946177Y-54086888D01*
X78134186Y-53891881D01*
X78291799Y-53671579D01*
X78415656Y-53430675D01*
X78503118Y-53174305D01*
X78552319Y-52907933D01*
X78562212Y-52637235D01*
X78532586Y-52367982D01*
X78464072Y-52105912D01*
X78358130Y-51856610D01*
X78217018Y-51625390D01*
X78043745Y-51417180D01*
X77938759Y-51323112D01*
X77845382Y-51239446D01*
X77845378Y-51239442D01*
X77842002Y-51236418D01*
X77616090Y-51086956D01*
X77611996Y-51085036D01*
X77611991Y-51085034D01*
X77374929Y-50973904D01*
X77374925Y-50973902D01*
X77370824Y-50971980D01*
X77366477Y-50970672D01*
X77366474Y-50970671D01*
X77115772Y-50895246D01*
X77115771Y-50895245D01*
X77111431Y-50893940D01*
X77106957Y-50893281D01*
X77106950Y-50893280D01*
X76847913Y-50855158D01*
X76847907Y-50855157D01*
X76843439Y-50854500D01*
X76640369Y-50854500D01*
X76638120Y-50854664D01*
X76638109Y-50854665D01*
X76442363Y-50868992D01*
X76442359Y-50868992D01*
X76437844Y-50869323D01*
X76433426Y-50870307D01*
X76433420Y-50870308D01*
X76177877Y-50927232D01*
X76177861Y-50927236D01*
X76173447Y-50928220D01*
X76169216Y-50929838D01*
X76169210Y-50929840D01*
X75924673Y-51023367D01*
X75924663Y-51023371D01*
X75920442Y-51024986D01*
X75916494Y-51027201D01*
X75916489Y-51027204D01*
X75688176Y-51155340D01*
X75688171Y-51155343D01*
X75684223Y-51157559D01*
X75680639Y-51160325D01*
X75680635Y-51160329D01*
X75473407Y-51320343D01*
X75473394Y-51320354D01*
X75469823Y-51323112D01*
X75466685Y-51326366D01*
X75466678Y-51326373D01*
X75284958Y-51514857D01*
X75284952Y-51514864D01*
X75281814Y-51518119D01*
X75279189Y-51521787D01*
X75279179Y-51521800D01*
X75126834Y-51734740D01*
X75126830Y-51734745D01*
X75124201Y-51738421D01*
X75122132Y-51742444D01*
X75122129Y-51742450D01*
X75002416Y-51975293D01*
X75002411Y-51975304D01*
X75000344Y-51979325D01*
X74998884Y-51983602D01*
X74998879Y-51983616D01*
X74914348Y-52231395D01*
X74914344Y-52231407D01*
X74912882Y-52235695D01*
X74912057Y-52240159D01*
X74912057Y-52240161D01*
X74864504Y-52497606D01*
X74864502Y-52497619D01*
X74863681Y-52502067D01*
X74863515Y-52506593D01*
X74863515Y-52506599D01*
X74858576Y-52641762D01*
X74853788Y-52772765D01*
X52183266Y-52772765D01*
X52170424Y-49035829D01*
X54111501Y-49035829D01*
X54111821Y-49042111D01*
X54121305Y-49134959D01*
X54124123Y-49148122D01*
X54174870Y-49301267D01*
X54180932Y-49314266D01*
X54265390Y-49451194D01*
X54274294Y-49462455D01*
X54388044Y-49576205D01*
X54399305Y-49585109D01*
X54536233Y-49669567D01*
X54549232Y-49675629D01*
X54702374Y-49726375D01*
X54715541Y-49729194D01*
X54808390Y-49738680D01*
X54814668Y-49739000D01*
X54932674Y-49739000D01*
X54945549Y-49735549D01*
X54949000Y-49722674D01*
X54949000Y-48780326D01*
X54945549Y-48767450D01*
X54932674Y-48764000D01*
X54127827Y-48764000D01*
X54114951Y-48767450D01*
X54111501Y-48780326D01*
X54111501Y-49035829D01*
X52170424Y-49035829D01*
X52167716Y-48247674D01*
X54111500Y-48247674D01*
X54114950Y-48260549D01*
X54127826Y-48264000D01*
X54932674Y-48264000D01*
X54945549Y-48260549D01*
X54949000Y-48247674D01*
X54949000Y-47305327D01*
X54945549Y-47292451D01*
X54932674Y-47289001D01*
X54814671Y-47289001D01*
X54808388Y-47289321D01*
X54715540Y-47298805D01*
X54702377Y-47301623D01*
X54549232Y-47352370D01*
X54536233Y-47358432D01*
X54399305Y-47442890D01*
X54388044Y-47451794D01*
X54274294Y-47565544D01*
X54265390Y-47576805D01*
X54180932Y-47713733D01*
X54174870Y-47726732D01*
X54124124Y-47879874D01*
X54121305Y-47893041D01*
X54111819Y-47985890D01*
X54111500Y-47992168D01*
X54111500Y-48247674D01*
X52167716Y-48247674D01*
X52146858Y-42177878D01*
X54111000Y-42177878D01*
X54111001Y-42181008D01*
X54111320Y-42184140D01*
X54111321Y-42184141D01*
X54120812Y-42277061D01*
X54120813Y-42277069D01*
X54121501Y-42283797D01*
X54123629Y-42290219D01*
X54123630Y-42290223D01*
X54165714Y-42417223D01*
X54176686Y-42450334D01*
X54180477Y-42456480D01*
X54264997Y-42593511D01*
X54265000Y-42593515D01*
X54268788Y-42599656D01*
X54392844Y-42723712D01*
X54539598Y-42814230D01*
X54582777Y-42859336D01*
X54598500Y-42919768D01*
X54598500Y-43869362D01*
X54582777Y-43929794D01*
X54539597Y-43974900D01*
X54430344Y-44042288D01*
X54425242Y-44047389D01*
X54425238Y-44047393D01*
X54311393Y-44161238D01*
X54311389Y-44161242D01*
X54306288Y-44166344D01*
X54302503Y-44172480D01*
X54302497Y-44172488D01*
X54217977Y-44309519D01*
X54214186Y-44315666D01*
X54211915Y-44322517D01*
X54211914Y-44322521D01*
X54161131Y-44475774D01*
X54159001Y-44482203D01*
X54158313Y-44488933D01*
X54158312Y-44488940D01*
X54148819Y-44581859D01*
X54148818Y-44581877D01*
X54148500Y-44584991D01*
X54148500Y-44588138D01*
X54148500Y-44588139D01*
X54148500Y-45581859D01*
X54148500Y-45581878D01*
X54148501Y-45585008D01*
X54148820Y-45588140D01*
X54148821Y-45588141D01*
X54158312Y-45681061D01*
X54158313Y-45681069D01*
X54159001Y-45687797D01*
X54161129Y-45694219D01*
X54161130Y-45694223D01*
X54202295Y-45818450D01*
X54214186Y-45854334D01*
X54221821Y-45866712D01*
X54302497Y-45997511D01*
X54302500Y-45997515D01*
X54306288Y-46003656D01*
X54430344Y-46127712D01*
X54436485Y-46131500D01*
X54436488Y-46131502D01*
X54442059Y-46134938D01*
X54579666Y-46219814D01*
X54746203Y-46274999D01*
X54848991Y-46285500D01*
X55488546Y-46285499D01*
X55535999Y-46294938D01*
X55576227Y-46321818D01*
X56500973Y-47246564D01*
X56530418Y-47293532D01*
X56536454Y-47348637D01*
X56517875Y-47400866D01*
X56478395Y-47439780D01*
X56473994Y-47442494D01*
X56473990Y-47442496D01*
X56467844Y-47446288D01*
X56462739Y-47451393D01*
X56462733Y-47451398D01*
X56348893Y-47565238D01*
X56348889Y-47565242D01*
X56343788Y-47570344D01*
X56339999Y-47576486D01*
X56335516Y-47582157D01*
X56334066Y-47581010D01*
X56296622Y-47616845D01*
X56236189Y-47632559D01*
X56175762Y-47616829D01*
X56138617Y-47581263D01*
X56137090Y-47582471D01*
X56123705Y-47565544D01*
X56009955Y-47451794D01*
X55998694Y-47442890D01*
X55861766Y-47358432D01*
X55848767Y-47352370D01*
X55695625Y-47301624D01*
X55682458Y-47298805D01*
X55589609Y-47289319D01*
X55583332Y-47289000D01*
X55465326Y-47289000D01*
X55452450Y-47292450D01*
X55449000Y-47305326D01*
X55449000Y-49722673D01*
X55452450Y-49735548D01*
X55465326Y-49738999D01*
X55583329Y-49738999D01*
X55589611Y-49738678D01*
X55682459Y-49729194D01*
X55695622Y-49726376D01*
X55848767Y-49675629D01*
X55861766Y-49669567D01*
X55998694Y-49585109D01*
X56009955Y-49576205D01*
X56123705Y-49462455D01*
X56137090Y-49445529D01*
X56138619Y-49446738D01*
X56175753Y-49411174D01*
X56236189Y-49395440D01*
X56296629Y-49411157D01*
X56334064Y-49446990D01*
X56335516Y-49445843D01*
X56339998Y-49451511D01*
X56343788Y-49457656D01*
X56467844Y-49581712D01*
X56473985Y-49585500D01*
X56473988Y-49585502D01*
X56531058Y-49620702D01*
X56617166Y-49673814D01*
X56783703Y-49728999D01*
X56886491Y-49739500D01*
X57563546Y-49739499D01*
X57610999Y-49748938D01*
X57651227Y-49775818D01*
X57792707Y-49917298D01*
X57800159Y-49925487D01*
X57804214Y-49931877D01*
X57853223Y-49977900D01*
X57856020Y-49980611D01*
X57875529Y-50000120D01*
X57878709Y-50002587D01*
X57887571Y-50010155D01*
X57900880Y-50022654D01*
X57913732Y-50034723D01*
X57913734Y-50034724D01*
X57919418Y-50040062D01*
X57926251Y-50043818D01*
X57926252Y-50043819D01*
X57936973Y-50049713D01*
X57953234Y-50060394D01*
X57969064Y-50072673D01*
X58009154Y-50090021D01*
X58019631Y-50095154D01*
X58057908Y-50116197D01*
X58074957Y-50120574D01*
X58077305Y-50121177D01*
X58095719Y-50127481D01*
X58114104Y-50135438D01*
X58157265Y-50142273D01*
X58168664Y-50144634D01*
X58210981Y-50155500D01*
X58231017Y-50155500D01*
X58250402Y-50157025D01*
X58270196Y-50160160D01*
X58308276Y-50156560D01*
X58313676Y-50156050D01*
X58325345Y-50155500D01*
X73582225Y-50155500D01*
X73593280Y-50156021D01*
X73600667Y-50157673D01*
X73667872Y-50155561D01*
X73671768Y-50155500D01*
X73695448Y-50155500D01*
X73699350Y-50155500D01*
X73703313Y-50154999D01*
X73714963Y-50154080D01*
X73758627Y-50152709D01*
X73777861Y-50147119D01*
X73796917Y-50143174D01*
X73816792Y-50140664D01*
X73857395Y-50124587D01*
X73868450Y-50120802D01*
X73910390Y-50108618D01*
X73927629Y-50098422D01*
X73945103Y-50089862D01*
X73956474Y-50085360D01*
X73956476Y-50085358D01*
X73963732Y-50082486D01*
X73999069Y-50056811D01*
X74008824Y-50050403D01*
X74046420Y-50028170D01*
X74060584Y-50014005D01*
X74075379Y-50001368D01*
X74091587Y-49989594D01*
X74119428Y-49955938D01*
X74127279Y-49947309D01*
X75660770Y-48413819D01*
X75700999Y-48386939D01*
X75748452Y-48377500D01*
X81456225Y-48377500D01*
X81467280Y-48378021D01*
X81474667Y-48379673D01*
X81541872Y-48377561D01*
X81545768Y-48377500D01*
X81569448Y-48377500D01*
X81573350Y-48377500D01*
X81577313Y-48376999D01*
X81588963Y-48376080D01*
X81632627Y-48374709D01*
X81651861Y-48369119D01*
X81670917Y-48365174D01*
X81690792Y-48362664D01*
X81731395Y-48346587D01*
X81742450Y-48342802D01*
X81784390Y-48330618D01*
X81801629Y-48320422D01*
X81819103Y-48311862D01*
X81830474Y-48307360D01*
X81830476Y-48307358D01*
X81837732Y-48304486D01*
X81873069Y-48278811D01*
X81882824Y-48272403D01*
X81920420Y-48250170D01*
X81934584Y-48236005D01*
X81949379Y-48223368D01*
X81965587Y-48211594D01*
X81993428Y-48177938D01*
X82001279Y-48169309D01*
X84008771Y-46161817D01*
X84048999Y-46134938D01*
X84096452Y-46125499D01*
X85757859Y-46125499D01*
X85761008Y-46125499D01*
X85863797Y-46114999D01*
X86030334Y-46059814D01*
X86179656Y-45967712D01*
X86303712Y-45843656D01*
X86395814Y-45694334D01*
X86450999Y-45527797D01*
X86461500Y-45425009D01*
X86461500Y-45421829D01*
X88311001Y-45421829D01*
X88311321Y-45428111D01*
X88320805Y-45520959D01*
X88323623Y-45534122D01*
X88374370Y-45687267D01*
X88380432Y-45700266D01*
X88464890Y-45837194D01*
X88473794Y-45848455D01*
X88587544Y-45962205D01*
X88598805Y-45971109D01*
X88735733Y-46055567D01*
X88748732Y-46061629D01*
X88901874Y-46112375D01*
X88915041Y-46115194D01*
X89007890Y-46124680D01*
X89014168Y-46125000D01*
X89669674Y-46125000D01*
X89682549Y-46121549D01*
X89686000Y-46108674D01*
X89686000Y-46108673D01*
X90186000Y-46108673D01*
X90189450Y-46121548D01*
X90202326Y-46124999D01*
X90857829Y-46124999D01*
X90864111Y-46124678D01*
X90956959Y-46115194D01*
X90970122Y-46112376D01*
X91123267Y-46061629D01*
X91136266Y-46055567D01*
X91273194Y-45971109D01*
X91284455Y-45962205D01*
X91398205Y-45848455D01*
X91407109Y-45837194D01*
X91491567Y-45700266D01*
X91497629Y-45687267D01*
X91548375Y-45534125D01*
X91551194Y-45520958D01*
X91560680Y-45428109D01*
X91561000Y-45421832D01*
X91561000Y-44716326D01*
X91557549Y-44703450D01*
X91544674Y-44700000D01*
X90202326Y-44700000D01*
X90189450Y-44703450D01*
X90186000Y-44716326D01*
X90186000Y-46108673D01*
X89686000Y-46108673D01*
X89686000Y-44716326D01*
X89682549Y-44703450D01*
X89669674Y-44700000D01*
X88327327Y-44700000D01*
X88314451Y-44703450D01*
X88311001Y-44716326D01*
X88311001Y-45421829D01*
X86461500Y-45421829D01*
X86461499Y-44183674D01*
X88311000Y-44183674D01*
X88314450Y-44196549D01*
X88327326Y-44200000D01*
X89669674Y-44200000D01*
X89682549Y-44196549D01*
X89686000Y-44183674D01*
X90186000Y-44183674D01*
X90189450Y-44196549D01*
X90202326Y-44200000D01*
X91544673Y-44200000D01*
X91557548Y-44196549D01*
X91560999Y-44183674D01*
X91560999Y-43478171D01*
X91560678Y-43471879D01*
X91551194Y-43379040D01*
X91548376Y-43365877D01*
X91497629Y-43212732D01*
X91491567Y-43199733D01*
X91407109Y-43062805D01*
X91398205Y-43051544D01*
X91284455Y-42937794D01*
X91273194Y-42928890D01*
X91136266Y-42844432D01*
X91123267Y-42838370D01*
X90970125Y-42787624D01*
X90956958Y-42784805D01*
X90864109Y-42775319D01*
X90857832Y-42775000D01*
X90202326Y-42775000D01*
X90189450Y-42778450D01*
X90186000Y-42791326D01*
X90186000Y-44183674D01*
X89686000Y-44183674D01*
X89686000Y-42791327D01*
X89682549Y-42778451D01*
X89669674Y-42775001D01*
X89014171Y-42775001D01*
X89007888Y-42775321D01*
X88915040Y-42784805D01*
X88901877Y-42787623D01*
X88748732Y-42838370D01*
X88735733Y-42844432D01*
X88598805Y-42928890D01*
X88587544Y-42937794D01*
X88473794Y-43051544D01*
X88464890Y-43062805D01*
X88380432Y-43199733D01*
X88374370Y-43212732D01*
X88323624Y-43365874D01*
X88320805Y-43379041D01*
X88311319Y-43471890D01*
X88311000Y-43478168D01*
X88311000Y-44183674D01*
X86461499Y-44183674D01*
X86461499Y-43760450D01*
X86470938Y-43712998D01*
X86497815Y-43672773D01*
X87636306Y-42534282D01*
X87644482Y-42526843D01*
X87650877Y-42522786D01*
X87696933Y-42473740D01*
X87699550Y-42471038D01*
X87719120Y-42451470D01*
X87721565Y-42448316D01*
X87729155Y-42439428D01*
X87759062Y-42407582D01*
X87768709Y-42390032D01*
X87779393Y-42373766D01*
X87791674Y-42357936D01*
X87809018Y-42317851D01*
X87814160Y-42307356D01*
X87815548Y-42304832D01*
X87835197Y-42269092D01*
X87840179Y-42249689D01*
X87846480Y-42231283D01*
X87854438Y-42212895D01*
X87861269Y-42169756D01*
X87863639Y-42158315D01*
X87866920Y-42145540D01*
X87874500Y-42116019D01*
X87874500Y-42095983D01*
X87876025Y-42076597D01*
X87879160Y-42056804D01*
X87875050Y-42013324D01*
X87874500Y-42001655D01*
X87874500Y-40952693D01*
X87886435Y-40899613D01*
X87919944Y-40856751D01*
X87968574Y-40832358D01*
X87992005Y-40826531D01*
X88096860Y-40800455D01*
X88268437Y-40715360D01*
X88417711Y-40595371D01*
X88537700Y-40446097D01*
X88544942Y-40431493D01*
X88590669Y-40381211D01*
X88656032Y-40362585D01*
X88721395Y-40381211D01*
X88767121Y-40431493D01*
X88768587Y-40434450D01*
X88774364Y-40446097D01*
X88894353Y-40595371D01*
X89043627Y-40715360D01*
X89215204Y-40800455D01*
X89401064Y-40846676D01*
X89444066Y-40849592D01*
X90355100Y-40849592D01*
X90357198Y-40849592D01*
X90400200Y-40846676D01*
X90586060Y-40800455D01*
X90757637Y-40715360D01*
X90906911Y-40595371D01*
X91026900Y-40446097D01*
X91111995Y-40274520D01*
X91158216Y-40088660D01*
X91161132Y-40045658D01*
X91161132Y-38112526D01*
X91158216Y-38069524D01*
X91111995Y-37883664D01*
X91026900Y-37712087D01*
X90906911Y-37562813D01*
X90757637Y-37442824D01*
X90751617Y-37439838D01*
X90751615Y-37439837D01*
X90592079Y-37360714D01*
X90592077Y-37360713D01*
X90586060Y-37357729D01*
X90579544Y-37356108D01*
X90579540Y-37356107D01*
X90405500Y-37312826D01*
X90405499Y-37312825D01*
X90400200Y-37311508D01*
X90394753Y-37311138D01*
X90394749Y-37311138D01*
X90359289Y-37308733D01*
X90359265Y-37308732D01*
X90357198Y-37308592D01*
X89444066Y-37308592D01*
X89441999Y-37308732D01*
X89441974Y-37308733D01*
X89406514Y-37311138D01*
X89406509Y-37311138D01*
X89401064Y-37311508D01*
X89395766Y-37312825D01*
X89395763Y-37312826D01*
X89221723Y-37356107D01*
X89221716Y-37356109D01*
X89215204Y-37357729D01*
X89209189Y-37360712D01*
X89209184Y-37360714D01*
X89049648Y-37439837D01*
X89049642Y-37439840D01*
X89043627Y-37442824D01*
X89038393Y-37447030D01*
X89038390Y-37447033D01*
X88899587Y-37558605D01*
X88899582Y-37558609D01*
X88894353Y-37562813D01*
X88890149Y-37568042D01*
X88890145Y-37568047D01*
X88778573Y-37706850D01*
X88778570Y-37706853D01*
X88774364Y-37712087D01*
X88771380Y-37718102D01*
X88771377Y-37718108D01*
X88767120Y-37726693D01*
X88721393Y-37776973D01*
X88656032Y-37795598D01*
X88590671Y-37776973D01*
X88544944Y-37726693D01*
X88540686Y-37718108D01*
X88537700Y-37712087D01*
X88417711Y-37562813D01*
X88268437Y-37442824D01*
X88262417Y-37439838D01*
X88262415Y-37439837D01*
X88102879Y-37360714D01*
X88102877Y-37360713D01*
X88096860Y-37357729D01*
X88090344Y-37356108D01*
X88090340Y-37356107D01*
X87916300Y-37312826D01*
X87916299Y-37312825D01*
X87911000Y-37311508D01*
X87905553Y-37311138D01*
X87905549Y-37311138D01*
X87870089Y-37308733D01*
X87870065Y-37308732D01*
X87867998Y-37308592D01*
X86954866Y-37308592D01*
X86952799Y-37308732D01*
X86952774Y-37308733D01*
X86917314Y-37311138D01*
X86917309Y-37311138D01*
X86911864Y-37311508D01*
X86906566Y-37312825D01*
X86906563Y-37312826D01*
X86732523Y-37356107D01*
X86732516Y-37356109D01*
X86726004Y-37357729D01*
X86719989Y-37360712D01*
X86719984Y-37360714D01*
X86560448Y-37439837D01*
X86560442Y-37439840D01*
X86554427Y-37442824D01*
X86549193Y-37447030D01*
X86549190Y-37447033D01*
X86410387Y-37558605D01*
X86410382Y-37558609D01*
X86405153Y-37562813D01*
X86400949Y-37568042D01*
X86400943Y-37568049D01*
X86339357Y-37644666D01*
X86296295Y-37678802D01*
X86242710Y-37690978D01*
X86189124Y-37678802D01*
X86146063Y-37644665D01*
X86084767Y-37568409D01*
X86075314Y-37558956D01*
X85936606Y-37447460D01*
X85925343Y-37440261D01*
X85765905Y-37361186D01*
X85753366Y-37356579D01*
X85579433Y-37313324D01*
X85568682Y-37311636D01*
X85533249Y-37309233D01*
X85529060Y-37309092D01*
X84620204Y-37309092D01*
X84616014Y-37309233D01*
X84580581Y-37311636D01*
X84569830Y-37313324D01*
X84395897Y-37356579D01*
X84383358Y-37361186D01*
X84223920Y-37440261D01*
X84212657Y-37447460D01*
X84073949Y-37558956D01*
X84064496Y-37568409D01*
X84008509Y-37638058D01*
X84003134Y-37649675D01*
X84009730Y-37660637D01*
X85340503Y-38991410D01*
X85372597Y-39046997D01*
X85372597Y-39111185D01*
X85340503Y-39166772D01*
X84009731Y-40497544D01*
X84003134Y-40508509D01*
X84008505Y-40520119D01*
X84064495Y-40589773D01*
X84073952Y-40599230D01*
X84212657Y-40710723D01*
X84223920Y-40717922D01*
X84383358Y-40796997D01*
X84395897Y-40801604D01*
X84569830Y-40844859D01*
X84580581Y-40846547D01*
X84616014Y-40848950D01*
X84620204Y-40849092D01*
X85529060Y-40849092D01*
X85533249Y-40848950D01*
X85568682Y-40846547D01*
X85579433Y-40844859D01*
X85753366Y-40801604D01*
X85765905Y-40796997D01*
X85925343Y-40717922D01*
X85936606Y-40710723D01*
X86075314Y-40599227D01*
X86084765Y-40589776D01*
X86146062Y-40513519D01*
X86189124Y-40479381D01*
X86242710Y-40467205D01*
X86296295Y-40479381D01*
X86339357Y-40513518D01*
X86400939Y-40590130D01*
X86400945Y-40590136D01*
X86405153Y-40595371D01*
X86554427Y-40715360D01*
X86560449Y-40718346D01*
X86566113Y-40721967D01*
X86564495Y-40724497D01*
X86604825Y-40761089D01*
X86623500Y-40826531D01*
X86623500Y-41726547D01*
X86614061Y-41774000D01*
X86587181Y-41814228D01*
X85663227Y-42738181D01*
X85622999Y-42765061D01*
X85575546Y-42774500D01*
X83914140Y-42774500D01*
X83914120Y-42774500D01*
X83910992Y-42774501D01*
X83907860Y-42774820D01*
X83907858Y-42774821D01*
X83814938Y-42784312D01*
X83814928Y-42784313D01*
X83808203Y-42785001D01*
X83801781Y-42787128D01*
X83801776Y-42787130D01*
X83648521Y-42837914D01*
X83648517Y-42837915D01*
X83641666Y-42840186D01*
X83635522Y-42843975D01*
X83635519Y-42843977D01*
X83498488Y-42928497D01*
X83498480Y-42928503D01*
X83492344Y-42932288D01*
X83487242Y-42937389D01*
X83487238Y-42937393D01*
X83373393Y-43051238D01*
X83373389Y-43051242D01*
X83368288Y-43056344D01*
X83364503Y-43062480D01*
X83364497Y-43062488D01*
X83298839Y-43168939D01*
X83276186Y-43205666D01*
X83273915Y-43212517D01*
X83273914Y-43212521D01*
X83223131Y-43365774D01*
X83221001Y-43372203D01*
X83220313Y-43378933D01*
X83220312Y-43378940D01*
X83210819Y-43471859D01*
X83210818Y-43471877D01*
X83210500Y-43474991D01*
X83210500Y-43478140D01*
X83210500Y-45139546D01*
X83201061Y-45186999D01*
X83174181Y-45227227D01*
X81311228Y-47090181D01*
X81271000Y-47117061D01*
X81223547Y-47126500D01*
X75515775Y-47126500D01*
X75504719Y-47125978D01*
X75497333Y-47124327D01*
X75489545Y-47124571D01*
X75489538Y-47124571D01*
X75430113Y-47126439D01*
X75426219Y-47126500D01*
X75398650Y-47126500D01*
X75394794Y-47126986D01*
X75394791Y-47126987D01*
X75394735Y-47126994D01*
X75394662Y-47127003D01*
X75383044Y-47127917D01*
X75347165Y-47129045D01*
X75347164Y-47129045D01*
X75339373Y-47129290D01*
X75331888Y-47131464D01*
X75331884Y-47131465D01*
X75320125Y-47134881D01*
X75301087Y-47138823D01*
X75288949Y-47140357D01*
X75288941Y-47140358D01*
X75281208Y-47141336D01*
X75273960Y-47144205D01*
X75273954Y-47144207D01*
X75240597Y-47157413D01*
X75229554Y-47161194D01*
X75195100Y-47171205D01*
X75195094Y-47171207D01*
X75187610Y-47173382D01*
X75180898Y-47177351D01*
X75180896Y-47177352D01*
X75170364Y-47183580D01*
X75152904Y-47192134D01*
X75141519Y-47196642D01*
X75141513Y-47196644D01*
X75134268Y-47199514D01*
X75127963Y-47204094D01*
X75127955Y-47204099D01*
X75098932Y-47225185D01*
X75089174Y-47231595D01*
X75058296Y-47249857D01*
X75058290Y-47249861D01*
X75051580Y-47253830D01*
X75046067Y-47259341D01*
X75046060Y-47259348D01*
X75037410Y-47267998D01*
X75022627Y-47280624D01*
X75012726Y-47287817D01*
X75012716Y-47287826D01*
X75006413Y-47292406D01*
X75001444Y-47298411D01*
X75001441Y-47298415D01*
X74978572Y-47326059D01*
X74970711Y-47334697D01*
X73437228Y-48868181D01*
X73397000Y-48895061D01*
X73349547Y-48904500D01*
X58600452Y-48904500D01*
X58552999Y-48895061D01*
X58512771Y-48868181D01*
X58398318Y-48753728D01*
X58371438Y-48713500D01*
X58361999Y-48666047D01*
X58361999Y-47992141D01*
X58361999Y-47988992D01*
X58351499Y-47886203D01*
X58296314Y-47719666D01*
X58211692Y-47582471D01*
X58208002Y-47576488D01*
X58208000Y-47576485D01*
X58204212Y-47570344D01*
X58080156Y-47446288D01*
X57998348Y-47395829D01*
X60113001Y-47395829D01*
X60113321Y-47402111D01*
X60122805Y-47494959D01*
X60125623Y-47508122D01*
X60176370Y-47661267D01*
X60182432Y-47674266D01*
X60266890Y-47811194D01*
X60275794Y-47822455D01*
X60389544Y-47936205D01*
X60400805Y-47945109D01*
X60537733Y-48029567D01*
X60550732Y-48035629D01*
X60703874Y-48086375D01*
X60717041Y-48089194D01*
X60809890Y-48098680D01*
X60816168Y-48099000D01*
X61071674Y-48099000D01*
X61084549Y-48095549D01*
X61088000Y-48082674D01*
X61088000Y-48082673D01*
X61588000Y-48082673D01*
X61591450Y-48095548D01*
X61604326Y-48098999D01*
X61859829Y-48098999D01*
X61866111Y-48098678D01*
X61958959Y-48089194D01*
X61972122Y-48086376D01*
X62125267Y-48035629D01*
X62138266Y-48029567D01*
X62275194Y-47945109D01*
X62286455Y-47936205D01*
X62400205Y-47822455D01*
X62409109Y-47811194D01*
X62493567Y-47674266D01*
X62499629Y-47661267D01*
X62516010Y-47611831D01*
X69826000Y-47611831D01*
X69826319Y-47618108D01*
X69835805Y-47710957D01*
X69838624Y-47724124D01*
X69889370Y-47877266D01*
X69895432Y-47890265D01*
X69979890Y-48027193D01*
X69988794Y-48038454D01*
X70102545Y-48152205D01*
X70113806Y-48161109D01*
X70250734Y-48245567D01*
X70263733Y-48251629D01*
X70416875Y-48302375D01*
X70430042Y-48305194D01*
X70522891Y-48314680D01*
X70529169Y-48315000D01*
X71234674Y-48315000D01*
X71247549Y-48311549D01*
X71251000Y-48298674D01*
X71751000Y-48298674D01*
X71754450Y-48311549D01*
X71767326Y-48315000D01*
X72472831Y-48315000D01*
X72479108Y-48314680D01*
X72571957Y-48305194D01*
X72585124Y-48302375D01*
X72738266Y-48251629D01*
X72751265Y-48245567D01*
X72888193Y-48161109D01*
X72899454Y-48152205D01*
X73013205Y-48038454D01*
X73022109Y-48027193D01*
X73106567Y-47890265D01*
X73112629Y-47877266D01*
X73163375Y-47724124D01*
X73166194Y-47710957D01*
X73175680Y-47618108D01*
X73176000Y-47611831D01*
X73176000Y-47331326D01*
X73172549Y-47318450D01*
X73159674Y-47315000D01*
X71767326Y-47315000D01*
X71754450Y-47318450D01*
X71751000Y-47331326D01*
X71751000Y-48298674D01*
X71251000Y-48298674D01*
X71251000Y-47331326D01*
X71247549Y-47318450D01*
X71234674Y-47315000D01*
X69842326Y-47315000D01*
X69829450Y-47318450D01*
X69826000Y-47331326D01*
X69826000Y-47611831D01*
X62516010Y-47611831D01*
X62550375Y-47508125D01*
X62553194Y-47494958D01*
X62562680Y-47402109D01*
X62563000Y-47395832D01*
X62563000Y-47277826D01*
X62559549Y-47264950D01*
X62546674Y-47261500D01*
X61604326Y-47261500D01*
X61591450Y-47264950D01*
X61588000Y-47277826D01*
X61588000Y-48082673D01*
X61088000Y-48082673D01*
X61088000Y-47277826D01*
X61084549Y-47264950D01*
X61071674Y-47261500D01*
X60129327Y-47261500D01*
X60116451Y-47264950D01*
X60113001Y-47277826D01*
X60113001Y-47395829D01*
X57998348Y-47395829D01*
X57958402Y-47371190D01*
X57915223Y-47326084D01*
X57899500Y-47265652D01*
X57899500Y-47212775D01*
X57900021Y-47201719D01*
X57901673Y-47194333D01*
X57899561Y-47127127D01*
X57899500Y-47123232D01*
X57899500Y-47099541D01*
X57899500Y-47095650D01*
X57898998Y-47091677D01*
X57898080Y-47080018D01*
X57897880Y-47073664D01*
X57896709Y-47036373D01*
X57891120Y-47017140D01*
X57887174Y-46998083D01*
X57885641Y-46985944D01*
X57884664Y-46978208D01*
X57868582Y-46937591D01*
X57864803Y-46926551D01*
X57854795Y-46892102D01*
X57854793Y-46892099D01*
X57852618Y-46884610D01*
X57842417Y-46867360D01*
X57833863Y-46849901D01*
X57826486Y-46831268D01*
X57800808Y-46795925D01*
X57794401Y-46786171D01*
X57776142Y-46755296D01*
X57776141Y-46755294D01*
X57772170Y-46748580D01*
X57758005Y-46734415D01*
X57745370Y-46719622D01*
X57733594Y-46703413D01*
X57727583Y-46698440D01*
X57727581Y-46698438D01*
X57699941Y-46675573D01*
X57691300Y-46667710D01*
X57520770Y-46497180D01*
X57490520Y-46447817D01*
X57485978Y-46390101D01*
X57508133Y-46336614D01*
X57552156Y-46299014D01*
X57608451Y-46285499D01*
X57645859Y-46285499D01*
X57649008Y-46285499D01*
X57751797Y-46274999D01*
X57918334Y-46219814D01*
X58067656Y-46127712D01*
X58191712Y-46003656D01*
X58283814Y-45854334D01*
X58338999Y-45687797D01*
X58339653Y-45681394D01*
X58363198Y-45631063D01*
X58406533Y-45596023D01*
X58460837Y-45583500D01*
X59226981Y-45583500D01*
X59353981Y-45583500D01*
X59472350Y-45583500D01*
X60102913Y-45583500D01*
X60163345Y-45599223D01*
X60208451Y-45642402D01*
X60270288Y-45742656D01*
X60394344Y-45866712D01*
X60400488Y-45870502D01*
X60406157Y-45874984D01*
X60405008Y-45876436D01*
X60440832Y-45913853D01*
X60456559Y-45974281D01*
X60440844Y-46034712D01*
X60405266Y-46071886D01*
X60406471Y-46073410D01*
X60389544Y-46086794D01*
X60275794Y-46200544D01*
X60266890Y-46211805D01*
X60182432Y-46348733D01*
X60176370Y-46361732D01*
X60125624Y-46514874D01*
X60122805Y-46528041D01*
X60113319Y-46620890D01*
X60113000Y-46627168D01*
X60113000Y-46745174D01*
X60116450Y-46758049D01*
X60129326Y-46761500D01*
X62546673Y-46761500D01*
X62559548Y-46758049D01*
X62562999Y-46745174D01*
X62562999Y-46627171D01*
X62562678Y-46620888D01*
X62553194Y-46528040D01*
X62550376Y-46514877D01*
X62499629Y-46361732D01*
X62493567Y-46348733D01*
X62409109Y-46211805D01*
X62400205Y-46200544D01*
X62286455Y-46086794D01*
X62269529Y-46073410D01*
X62270735Y-46071883D01*
X62235160Y-46034720D01*
X62219440Y-45974282D01*
X62235171Y-45913846D01*
X62270992Y-45876438D01*
X62269843Y-45874984D01*
X62275509Y-45870503D01*
X62281656Y-45866712D01*
X62405712Y-45742656D01*
X62467548Y-45642402D01*
X62512655Y-45599223D01*
X62573087Y-45583500D01*
X64080548Y-45583500D01*
X64128001Y-45592939D01*
X64168229Y-45619819D01*
X64570181Y-46021772D01*
X64597061Y-46062000D01*
X64606500Y-46109453D01*
X64606500Y-46627194D01*
X64606690Y-46629614D01*
X64606691Y-46629628D01*
X64608904Y-46657751D01*
X64608905Y-46657758D01*
X64609402Y-46664069D01*
X64611168Y-46670150D01*
X64611170Y-46670157D01*
X64644876Y-46786171D01*
X64655256Y-46821898D01*
X64659226Y-46828611D01*
X64659227Y-46828613D01*
X64734946Y-46956648D01*
X64734948Y-46956651D01*
X64738919Y-46963365D01*
X64855135Y-47079581D01*
X64861849Y-47083552D01*
X64861851Y-47083553D01*
X64918510Y-47117061D01*
X64996602Y-47163244D01*
X65154431Y-47209098D01*
X65191306Y-47212000D01*
X65620249Y-47212000D01*
X65622694Y-47212000D01*
X65659569Y-47209098D01*
X65817398Y-47163244D01*
X65958865Y-47079581D01*
X66075081Y-46963365D01*
X66158744Y-46821898D01*
X66204598Y-46664069D01*
X66207500Y-46627194D01*
X66207500Y-46624697D01*
X66507000Y-46624697D01*
X66507191Y-46629576D01*
X66509402Y-46657673D01*
X66511668Y-46670079D01*
X66553541Y-46814205D01*
X66559689Y-46828412D01*
X66635344Y-46956338D01*
X66644835Y-46968574D01*
X66749925Y-47073664D01*
X66762161Y-47083155D01*
X66890087Y-47158810D01*
X66904294Y-47164958D01*
X67046223Y-47206192D01*
X67053293Y-47204786D01*
X67057000Y-47191644D01*
X67557000Y-47191644D01*
X67560706Y-47204786D01*
X67567776Y-47206192D01*
X67709705Y-47164958D01*
X67723912Y-47158810D01*
X67851838Y-47083155D01*
X67864074Y-47073664D01*
X67969164Y-46968574D01*
X67978655Y-46956338D01*
X68054310Y-46828412D01*
X68060458Y-46814205D01*
X68064970Y-46798674D01*
X69826000Y-46798674D01*
X69829450Y-46811549D01*
X69842326Y-46815000D01*
X71234674Y-46815000D01*
X71247549Y-46811549D01*
X71251000Y-46798674D01*
X71751000Y-46798674D01*
X71754450Y-46811549D01*
X71767326Y-46815000D01*
X73159674Y-46815000D01*
X73172549Y-46811549D01*
X73176000Y-46798674D01*
X73176000Y-46518169D01*
X73175680Y-46511891D01*
X73166194Y-46419042D01*
X73163375Y-46405875D01*
X73112629Y-46252733D01*
X73106567Y-46239734D01*
X73022109Y-46102806D01*
X73013205Y-46091545D01*
X72899454Y-45977794D01*
X72888193Y-45968890D01*
X72751265Y-45884432D01*
X72738266Y-45878370D01*
X72585124Y-45827624D01*
X72571957Y-45824805D01*
X72479108Y-45815319D01*
X72472831Y-45815000D01*
X71767326Y-45815000D01*
X71754450Y-45818450D01*
X71751000Y-45831326D01*
X71751000Y-46798674D01*
X71251000Y-46798674D01*
X71251000Y-45831326D01*
X71247549Y-45818450D01*
X71234674Y-45815000D01*
X70529169Y-45815000D01*
X70522891Y-45815319D01*
X70430042Y-45824805D01*
X70416875Y-45827624D01*
X70263733Y-45878370D01*
X70250734Y-45884432D01*
X70113806Y-45968890D01*
X70102545Y-45977794D01*
X69988794Y-46091545D01*
X69979890Y-46102806D01*
X69895432Y-46239734D01*
X69889370Y-46252733D01*
X69838624Y-46405875D01*
X69835805Y-46419042D01*
X69826319Y-46511891D01*
X69826000Y-46518169D01*
X69826000Y-46798674D01*
X68064970Y-46798674D01*
X68102331Y-46670079D01*
X68104597Y-46657673D01*
X68106808Y-46629576D01*
X68107000Y-46624697D01*
X68107000Y-46240326D01*
X68103549Y-46227450D01*
X68090674Y-46224000D01*
X67573326Y-46224000D01*
X67560450Y-46227450D01*
X67557000Y-46240326D01*
X67557000Y-47191644D01*
X67057000Y-47191644D01*
X67057000Y-46240326D01*
X67053549Y-46227450D01*
X67040674Y-46224000D01*
X66523326Y-46224000D01*
X66510450Y-46227450D01*
X66507000Y-46240326D01*
X66507000Y-46624697D01*
X66207500Y-46624697D01*
X66207500Y-45461000D01*
X66224113Y-45399000D01*
X66269500Y-45353613D01*
X66331500Y-45337000D01*
X66383000Y-45337000D01*
X66445000Y-45353613D01*
X66490387Y-45399000D01*
X66507000Y-45461000D01*
X66507000Y-45707674D01*
X66510450Y-45720549D01*
X66523326Y-45724000D01*
X68090674Y-45724000D01*
X68103549Y-45720549D01*
X68107000Y-45707674D01*
X68107000Y-45323303D01*
X68106808Y-45318423D01*
X68104597Y-45290326D01*
X68102331Y-45277920D01*
X68060458Y-45133794D01*
X68054310Y-45119587D01*
X67978655Y-44991661D01*
X67969164Y-44979425D01*
X67864074Y-44874335D01*
X67851838Y-44864844D01*
X67739203Y-44798232D01*
X67694421Y-44752598D01*
X67678326Y-44690721D01*
X67695197Y-44629051D01*
X67740549Y-44583983D01*
X67802324Y-44567500D01*
X69781949Y-44567500D01*
X69848570Y-44586917D01*
X69890519Y-44634745D01*
X69891186Y-44634334D01*
X69891439Y-44634745D01*
X69894972Y-44640473D01*
X69894975Y-44640478D01*
X69969284Y-44760950D01*
X69983289Y-44783655D01*
X70107345Y-44907711D01*
X70256666Y-44999814D01*
X70423203Y-45054999D01*
X70525992Y-45065500D01*
X72472859Y-45065500D01*
X72476008Y-45065500D01*
X72578797Y-45054999D01*
X72745334Y-44999814D01*
X72894655Y-44907711D01*
X73018711Y-44783655D01*
X73110814Y-44634334D01*
X73111480Y-44634745D01*
X73153430Y-44586917D01*
X73220051Y-44567500D01*
X73600548Y-44567500D01*
X73648001Y-44576939D01*
X73688229Y-44603819D01*
X74161707Y-45077297D01*
X74169156Y-45085483D01*
X74173214Y-45091877D01*
X74178899Y-45097215D01*
X74178901Y-45097218D01*
X74222239Y-45137915D01*
X74225035Y-45140625D01*
X74244530Y-45160120D01*
X74247615Y-45162513D01*
X74247701Y-45162580D01*
X74256573Y-45170158D01*
X74288418Y-45200062D01*
X74295248Y-45203817D01*
X74295251Y-45203819D01*
X74305971Y-45209712D01*
X74322222Y-45220386D01*
X74338064Y-45232674D01*
X74345221Y-45235771D01*
X74345223Y-45235772D01*
X74378155Y-45250022D01*
X74388650Y-45255164D01*
X74426908Y-45276197D01*
X74446312Y-45281179D01*
X74464714Y-45287480D01*
X74475941Y-45292338D01*
X74483105Y-45295438D01*
X74520697Y-45301391D01*
X74526239Y-45302269D01*
X74537682Y-45304639D01*
X74572425Y-45313560D01*
X74572426Y-45313560D01*
X74579981Y-45315500D01*
X74600017Y-45315500D01*
X74619402Y-45317025D01*
X74639196Y-45320160D01*
X74677276Y-45316560D01*
X74682676Y-45316050D01*
X74694345Y-45315500D01*
X74813017Y-45315500D01*
X74873449Y-45331223D01*
X74918556Y-45374404D01*
X74998497Y-45504011D01*
X74998500Y-45504015D01*
X75002288Y-45510156D01*
X75126344Y-45634212D01*
X75132485Y-45638000D01*
X75132488Y-45638002D01*
X75189558Y-45673202D01*
X75275666Y-45726314D01*
X75442203Y-45781499D01*
X75544991Y-45792000D01*
X76595008Y-45791999D01*
X76697797Y-45781499D01*
X76864334Y-45726314D01*
X77013656Y-45634212D01*
X77137712Y-45510156D01*
X77221444Y-45374403D01*
X77266551Y-45331223D01*
X77326983Y-45315500D01*
X79030350Y-45315500D01*
X79679679Y-45315500D01*
X79740111Y-45331223D01*
X79785215Y-45374400D01*
X79824660Y-45438350D01*
X79946650Y-45560340D01*
X80093484Y-45650908D01*
X80257247Y-45705174D01*
X80358323Y-45715500D01*
X80931676Y-45715499D01*
X81032753Y-45705174D01*
X81196516Y-45650908D01*
X81343350Y-45560340D01*
X81465340Y-45438350D01*
X81555908Y-45291516D01*
X81610174Y-45127753D01*
X81620500Y-45026677D01*
X81620499Y-44353324D01*
X81610174Y-44252247D01*
X81555908Y-44088484D01*
X81465340Y-43941650D01*
X81426371Y-43902681D01*
X81394277Y-43847094D01*
X81394277Y-43782906D01*
X81426371Y-43727319D01*
X81440692Y-43712998D01*
X81465340Y-43688350D01*
X81555908Y-43541516D01*
X81610174Y-43377753D01*
X81620500Y-43276677D01*
X81620499Y-42603324D01*
X81610174Y-42502247D01*
X81555908Y-42338484D01*
X81465340Y-42191650D01*
X81343350Y-42069660D01*
X81196516Y-41979092D01*
X81189664Y-41976821D01*
X81189661Y-41976820D01*
X81088597Y-41943331D01*
X81032753Y-41924826D01*
X81026020Y-41924138D01*
X81026015Y-41924137D01*
X80934808Y-41914819D01*
X80934791Y-41914818D01*
X80931677Y-41914500D01*
X80928528Y-41914500D01*
X80555453Y-41914500D01*
X80508000Y-41905061D01*
X80467772Y-41878181D01*
X79652819Y-41063228D01*
X79625939Y-41023000D01*
X79616500Y-40975547D01*
X79616500Y-37154849D01*
X79618696Y-37131614D01*
X79618766Y-37131246D01*
X79620227Y-37123588D01*
X79616745Y-37068241D01*
X79616500Y-37060455D01*
X79616500Y-37048543D01*
X79616500Y-37044650D01*
X79614517Y-37028957D01*
X79613787Y-37021231D01*
X79610304Y-36965862D01*
X79607780Y-36958094D01*
X79602687Y-36935310D01*
X79601664Y-36927208D01*
X79581233Y-36875606D01*
X79578603Y-36868299D01*
X79561467Y-36815559D01*
X79557091Y-36808663D01*
X79546497Y-36787873D01*
X79543486Y-36780268D01*
X79510881Y-36735391D01*
X79506502Y-36728948D01*
X79504247Y-36725394D01*
X79476786Y-36682123D01*
X79471099Y-36676783D01*
X79471096Y-36676779D01*
X79470835Y-36676534D01*
X79455395Y-36659021D01*
X79455180Y-36658726D01*
X79450594Y-36652413D01*
X79407860Y-36617060D01*
X79402018Y-36611910D01*
X79391693Y-36602214D01*
X79361582Y-36573938D01*
X79354750Y-36570182D01*
X79354746Y-36570179D01*
X79354411Y-36569995D01*
X79335117Y-36556882D01*
X79334838Y-36556651D01*
X79334832Y-36556647D01*
X79328823Y-36551676D01*
X79278633Y-36528057D01*
X79271702Y-36524526D01*
X79254539Y-36515091D01*
X79223092Y-36497803D01*
X79215537Y-36495863D01*
X79215532Y-36495861D01*
X79215179Y-36495771D01*
X79193223Y-36487867D01*
X79185826Y-36484386D01*
X79178159Y-36482923D01*
X79178158Y-36482923D01*
X79131357Y-36473995D01*
X79123756Y-36472296D01*
X79077583Y-36460441D01*
X79077574Y-36460439D01*
X79070019Y-36458500D01*
X79062215Y-36458500D01*
X79061849Y-36458500D01*
X79038614Y-36456304D01*
X79038246Y-36456233D01*
X79038239Y-36456232D01*
X79030588Y-36454773D01*
X79022809Y-36455262D01*
X79022804Y-36455262D01*
X78975241Y-36458255D01*
X78967455Y-36458500D01*
X77869500Y-36458500D01*
X77807500Y-36441887D01*
X77762113Y-36396500D01*
X77745500Y-36334500D01*
X77745500Y-35801141D01*
X77745500Y-35797992D01*
X77734999Y-35695203D01*
X77679814Y-35528666D01*
X77587711Y-35379345D01*
X77463655Y-35255289D01*
X77457505Y-35251495D01*
X77457503Y-35251494D01*
X77320482Y-35166978D01*
X77320480Y-35166977D01*
X77314334Y-35163186D01*
X77247743Y-35141120D01*
X77154225Y-35110131D01*
X77154224Y-35110130D01*
X77147797Y-35108001D01*
X77141064Y-35107313D01*
X77141059Y-35107312D01*
X77048139Y-35097819D01*
X77048122Y-35097818D01*
X77045008Y-35097500D01*
X75094992Y-35097500D01*
X75091878Y-35097818D01*
X75091860Y-35097819D01*
X74998940Y-35107312D01*
X74998933Y-35107313D01*
X74992203Y-35108001D01*
X74985777Y-35110130D01*
X74985774Y-35110131D01*
X74832521Y-35160914D01*
X74832517Y-35160915D01*
X74825666Y-35163186D01*
X74819522Y-35166975D01*
X74819517Y-35166978D01*
X74682496Y-35251494D01*
X74682490Y-35251498D01*
X74676345Y-35255289D01*
X74671238Y-35260395D01*
X74671234Y-35260399D01*
X74557399Y-35374234D01*
X74557395Y-35374238D01*
X74552289Y-35379345D01*
X74548498Y-35385490D01*
X74548494Y-35385496D01*
X74471331Y-35510597D01*
X74426224Y-35553778D01*
X74365793Y-35569500D01*
X74348453Y-35569500D01*
X74301000Y-35560061D01*
X74260772Y-35533181D01*
X73011286Y-34283695D01*
X73003842Y-34275514D01*
X72999786Y-34269123D01*
X72950775Y-34223098D01*
X72947978Y-34220387D01*
X72931227Y-34203636D01*
X72928471Y-34200880D01*
X72925290Y-34198412D01*
X72916414Y-34190830D01*
X72890269Y-34166278D01*
X72890267Y-34166276D01*
X72884582Y-34160938D01*
X72877749Y-34157182D01*
X72877743Y-34157177D01*
X72867025Y-34151285D01*
X72850766Y-34140606D01*
X72841095Y-34133104D01*
X72841092Y-34133102D01*
X72834936Y-34128327D01*
X72827779Y-34125229D01*
X72827776Y-34125228D01*
X72794849Y-34110978D01*
X72784363Y-34105841D01*
X72752932Y-34088562D01*
X72752923Y-34088558D01*
X72746092Y-34084803D01*
X72738535Y-34082862D01*
X72738531Y-34082861D01*
X72726688Y-34079820D01*
X72708284Y-34073519D01*
X72697057Y-34068660D01*
X72697050Y-34068658D01*
X72689896Y-34065562D01*
X72682192Y-34064341D01*
X72682190Y-34064341D01*
X72646759Y-34058729D01*
X72635324Y-34056361D01*
X72600571Y-34047438D01*
X72600563Y-34047437D01*
X72593019Y-34045500D01*
X72585223Y-34045500D01*
X72572983Y-34045500D01*
X72553597Y-34043974D01*
X72533804Y-34040840D01*
X72526038Y-34041574D01*
X72526035Y-34041574D01*
X72490324Y-34044950D01*
X72478655Y-34045500D01*
X69779453Y-34045500D01*
X69732000Y-34036061D01*
X69691772Y-34009181D01*
X68456286Y-32773695D01*
X68448842Y-32765514D01*
X68444786Y-32759123D01*
X68395775Y-32713098D01*
X68392978Y-32710387D01*
X68362229Y-32679638D01*
X68362229Y-32679637D01*
X68359471Y-32676880D01*
X68356398Y-32674496D01*
X68356392Y-32674491D01*
X68351077Y-32670369D01*
X68342192Y-32662780D01*
X68335269Y-32656278D01*
X68335266Y-32656275D01*
X68329582Y-32650938D01*
X68322742Y-32647177D01*
X68317860Y-32643631D01*
X68309668Y-32638249D01*
X68265936Y-32604327D01*
X68255064Y-32599622D01*
X68128060Y-32544662D01*
X68128058Y-32544661D01*
X68120896Y-32541562D01*
X68113188Y-32540341D01*
X68113184Y-32540340D01*
X67972513Y-32518061D01*
X67964804Y-32516840D01*
X67957038Y-32517574D01*
X67957036Y-32517574D01*
X67815230Y-32530979D01*
X67815228Y-32530979D01*
X67807467Y-32531713D01*
X67803862Y-32533010D01*
X67781317Y-32535500D01*
X67510321Y-32535500D01*
X67449889Y-32519777D01*
X67404784Y-32476599D01*
X67365340Y-32412650D01*
X67243350Y-32290660D01*
X67096516Y-32200092D01*
X67089664Y-32197821D01*
X67089661Y-32197820D01*
X66991956Y-32165444D01*
X66932753Y-32145826D01*
X66926020Y-32145138D01*
X66926015Y-32145137D01*
X66834808Y-32135819D01*
X66834791Y-32135818D01*
X66831677Y-32135500D01*
X66828528Y-32135500D01*
X66261473Y-32135500D01*
X66261453Y-32135500D01*
X66258324Y-32135501D01*
X66255192Y-32135820D01*
X66255190Y-32135821D01*
X66163982Y-32145137D01*
X66163972Y-32145138D01*
X66157247Y-32145826D01*
X66150826Y-32147953D01*
X66150820Y-32147955D01*
X66000338Y-32197820D01*
X66000332Y-32197822D01*
X65993484Y-32200092D01*
X65987340Y-32203881D01*
X65987339Y-32203882D01*
X65963463Y-32218609D01*
X65846650Y-32290660D01*
X65841542Y-32295767D01*
X65841538Y-32295771D01*
X65729771Y-32407538D01*
X65729767Y-32407542D01*
X65724660Y-32412650D01*
X65720870Y-32418795D01*
X65720867Y-32418799D01*
X65655778Y-32524326D01*
X65634092Y-32559484D01*
X65631822Y-32566332D01*
X65631820Y-32566338D01*
X65584087Y-32710387D01*
X65579826Y-32723247D01*
X65579138Y-32729977D01*
X65579137Y-32729984D01*
X65569819Y-32821191D01*
X65569818Y-32821209D01*
X65569500Y-32824323D01*
X65569500Y-32827470D01*
X65569500Y-32827471D01*
X65569500Y-33494526D01*
X65569500Y-33494545D01*
X65569501Y-33497676D01*
X65569820Y-33500808D01*
X65569821Y-33500809D01*
X65579137Y-33592017D01*
X65579138Y-33592025D01*
X65579826Y-33598753D01*
X65581954Y-33605175D01*
X65581955Y-33605179D01*
X65615600Y-33706713D01*
X65634092Y-33762516D01*
X65724660Y-33909350D01*
X65729770Y-33914460D01*
X65729771Y-33914461D01*
X65755129Y-33939819D01*
X65785379Y-33989182D01*
X65789921Y-34046898D01*
X65767766Y-34100385D01*
X65723743Y-34137985D01*
X65667448Y-34151500D01*
X64940362Y-34151500D01*
X64892909Y-34142061D01*
X64852681Y-34115181D01*
X63674819Y-32937320D01*
X63647939Y-32897092D01*
X63638500Y-32849639D01*
X63638500Y-32034322D01*
X63645538Y-31993141D01*
X63665853Y-31956635D01*
X63683431Y-31934767D01*
X63762653Y-31836210D01*
X63842433Y-31675349D01*
X63885766Y-31501100D01*
X63888500Y-31460784D01*
X63888500Y-27467216D01*
X63885766Y-27426900D01*
X63842433Y-27252651D01*
X63762653Y-27091790D01*
X63650159Y-26951841D01*
X63607679Y-26917695D01*
X63515450Y-26843559D01*
X63515449Y-26843558D01*
X63510210Y-26839347D01*
X63420668Y-26794938D01*
X63355374Y-26762555D01*
X63355372Y-26762554D01*
X63349349Y-26759567D01*
X63342829Y-26757945D01*
X63342822Y-26757943D01*
X63180392Y-26717550D01*
X63180391Y-26717549D01*
X63175100Y-26716234D01*
X63169659Y-26715865D01*
X63136874Y-26713641D01*
X63136852Y-26713640D01*
X63134784Y-26713500D01*
X62341216Y-26713500D01*
X62339148Y-26713640D01*
X62339125Y-26713641D01*
X62306340Y-26715865D01*
X62306338Y-26715865D01*
X62300900Y-26716234D01*
X62295610Y-26717549D01*
X62295607Y-26717550D01*
X62133177Y-26757943D01*
X62133167Y-26757946D01*
X62126651Y-26759567D01*
X62120629Y-26762553D01*
X62120625Y-26762555D01*
X61971812Y-26836360D01*
X61971809Y-26836361D01*
X61965790Y-26839347D01*
X61960554Y-26843555D01*
X61960549Y-26843559D01*
X61831081Y-26947628D01*
X61831076Y-26947632D01*
X61825841Y-26951841D01*
X61821632Y-26957076D01*
X61821628Y-26957081D01*
X61717559Y-27086549D01*
X61717555Y-27086554D01*
X61713347Y-27091790D01*
X61710361Y-27097809D01*
X61710360Y-27097812D01*
X61636555Y-27246625D01*
X61636553Y-27246629D01*
X61633567Y-27252651D01*
X61631945Y-27259170D01*
X61631944Y-27259175D01*
X61613735Y-27332399D01*
X61582026Y-27389199D01*
X61525926Y-27422131D01*
X61460874Y-27422131D01*
X61404774Y-27389199D01*
X61373065Y-27332399D01*
X61354897Y-27259343D01*
X61353233Y-27252651D01*
X61273453Y-27091790D01*
X61160959Y-26951841D01*
X61118479Y-26917695D01*
X61026250Y-26843559D01*
X61026249Y-26843558D01*
X61021010Y-26839347D01*
X60943204Y-26800758D01*
X60892925Y-26755032D01*
X60874300Y-26689671D01*
X60874300Y-26523252D01*
X60883739Y-26475799D01*
X60910619Y-26435571D01*
X61284371Y-26061819D01*
X61324599Y-26034939D01*
X61372052Y-26025500D01*
X63545148Y-26025500D01*
X63592601Y-26034939D01*
X63632829Y-26061819D01*
X64489181Y-26918172D01*
X64516061Y-26958400D01*
X64525500Y-27005853D01*
X64525500Y-28624225D01*
X64524978Y-28635280D01*
X64523327Y-28642667D01*
X64523571Y-28650453D01*
X64523571Y-28650461D01*
X64525439Y-28709861D01*
X64525500Y-28713757D01*
X64525500Y-28741350D01*
X64525988Y-28745219D01*
X64525989Y-28745225D01*
X64526004Y-28745343D01*
X64526918Y-28756966D01*
X64528045Y-28792830D01*
X64528046Y-28792837D01*
X64528291Y-28800627D01*
X64530467Y-28808119D01*
X64530468Y-28808121D01*
X64533879Y-28819862D01*
X64537825Y-28838915D01*
X64540336Y-28858792D01*
X64543206Y-28866042D01*
X64543208Y-28866048D01*
X64556414Y-28899404D01*
X64560197Y-28910451D01*
X64572382Y-28952390D01*
X64576353Y-28959105D01*
X64576354Y-28959107D01*
X64582581Y-28969637D01*
X64591136Y-28987099D01*
X64595642Y-28998480D01*
X64595643Y-28998483D01*
X64598514Y-29005732D01*
X64620440Y-29035912D01*
X64624181Y-29041060D01*
X64630593Y-29050822D01*
X64648856Y-29081702D01*
X64648859Y-29081707D01*
X64652830Y-29088420D01*
X64658345Y-29093935D01*
X64666990Y-29102580D01*
X64679626Y-29117374D01*
X64686819Y-29127275D01*
X64686823Y-29127279D01*
X64691406Y-29133587D01*
X64697415Y-29138558D01*
X64697416Y-29138559D01*
X64725058Y-29161426D01*
X64733699Y-29169289D01*
X65288707Y-29724297D01*
X65296156Y-29732483D01*
X65300214Y-29738877D01*
X65305899Y-29744215D01*
X65305901Y-29744218D01*
X65349239Y-29784915D01*
X65352036Y-29787626D01*
X65371530Y-29807120D01*
X65374615Y-29809513D01*
X65374701Y-29809580D01*
X65383573Y-29817158D01*
X65391539Y-29824638D01*
X65415418Y-29847062D01*
X65422248Y-29850817D01*
X65422251Y-29850819D01*
X65432971Y-29856712D01*
X65449222Y-29867386D01*
X65465064Y-29879674D01*
X65472221Y-29882771D01*
X65472223Y-29882772D01*
X65505155Y-29897022D01*
X65515650Y-29902164D01*
X65553908Y-29923197D01*
X65573312Y-29928179D01*
X65591714Y-29934480D01*
X65602941Y-29939338D01*
X65610105Y-29942438D01*
X65647697Y-29948391D01*
X65653239Y-29949269D01*
X65664682Y-29951639D01*
X65699425Y-29960560D01*
X65699426Y-29960560D01*
X65706981Y-29962500D01*
X65727017Y-29962500D01*
X65746402Y-29964025D01*
X65766196Y-29967160D01*
X65804276Y-29963560D01*
X65809676Y-29963050D01*
X65821345Y-29962500D01*
X68872680Y-29962500D01*
X68933112Y-29978223D01*
X68978218Y-30021403D01*
X69041288Y-30123656D01*
X69165344Y-30247712D01*
X69171485Y-30251500D01*
X69171488Y-30251502D01*
X69228558Y-30286702D01*
X69314666Y-30339814D01*
X69481203Y-30394999D01*
X69496851Y-30396597D01*
X69497501Y-30396664D01*
X69545045Y-30411585D01*
X69582386Y-30443597D01*
X69585830Y-30449420D01*
X69591347Y-30454937D01*
X69599990Y-30463580D01*
X69612626Y-30478374D01*
X69619819Y-30488275D01*
X69619823Y-30488279D01*
X69624406Y-30494587D01*
X69630415Y-30499558D01*
X69630416Y-30499559D01*
X69658058Y-30522426D01*
X69666699Y-30530289D01*
X71142181Y-32005771D01*
X71169061Y-32045999D01*
X71178500Y-32093452D01*
X71178500Y-32754858D01*
X71178500Y-32754877D01*
X71178501Y-32758008D01*
X71178820Y-32761140D01*
X71178821Y-32761141D01*
X71188312Y-32854061D01*
X71188313Y-32854069D01*
X71189001Y-32860797D01*
X71191129Y-32867219D01*
X71191130Y-32867223D01*
X71205920Y-32911855D01*
X71244186Y-33027334D01*
X71247977Y-33033480D01*
X71332497Y-33170511D01*
X71332500Y-33170515D01*
X71336288Y-33176656D01*
X71460344Y-33300712D01*
X71466485Y-33304500D01*
X71466488Y-33304502D01*
X71523558Y-33339702D01*
X71609666Y-33392814D01*
X71776203Y-33447999D01*
X71878991Y-33458500D01*
X72679008Y-33458499D01*
X72781797Y-33447999D01*
X72948334Y-33392814D01*
X73097656Y-33300712D01*
X73191675Y-33206692D01*
X73247259Y-33174601D01*
X73311446Y-33174601D01*
X73367034Y-33206695D01*
X73455544Y-33295205D01*
X73466805Y-33304109D01*
X73603733Y-33388567D01*
X73616732Y-33394629D01*
X73769874Y-33445375D01*
X73783041Y-33448194D01*
X73875890Y-33457680D01*
X73882168Y-33458000D01*
X74012674Y-33458000D01*
X74025549Y-33454549D01*
X74029000Y-33441674D01*
X74029000Y-33441673D01*
X74529000Y-33441673D01*
X74532450Y-33454548D01*
X74545326Y-33457999D01*
X74675829Y-33457999D01*
X74682111Y-33457678D01*
X74774959Y-33448194D01*
X74788122Y-33445376D01*
X74941267Y-33394629D01*
X74954266Y-33388567D01*
X75091194Y-33304109D01*
X75102455Y-33295205D01*
X75216205Y-33181455D01*
X75225109Y-33170194D01*
X75309567Y-33033266D01*
X75315629Y-33020267D01*
X75366375Y-32867125D01*
X75369194Y-32853958D01*
X75378680Y-32761109D01*
X75379000Y-32754832D01*
X75379000Y-32524326D01*
X75375549Y-32511450D01*
X75362674Y-32508000D01*
X74545326Y-32508000D01*
X74532450Y-32511450D01*
X74529000Y-32524326D01*
X74529000Y-33441673D01*
X74029000Y-33441673D01*
X74029000Y-31991674D01*
X74529000Y-31991674D01*
X74532450Y-32004549D01*
X74545326Y-32008000D01*
X75362673Y-32008000D01*
X75375548Y-32004549D01*
X75378999Y-31991674D01*
X75378999Y-31761171D01*
X75378678Y-31754888D01*
X75369939Y-31669329D01*
X76372001Y-31669329D01*
X76372321Y-31675611D01*
X76381805Y-31768459D01*
X76384623Y-31781622D01*
X76435370Y-31934767D01*
X76441432Y-31947766D01*
X76525890Y-32084694D01*
X76534794Y-32095955D01*
X76648544Y-32209705D01*
X76659805Y-32218609D01*
X76796733Y-32303067D01*
X76809732Y-32309129D01*
X76962874Y-32359875D01*
X76976041Y-32362694D01*
X77068890Y-32372180D01*
X77075168Y-32372500D01*
X77330674Y-32372500D01*
X77343549Y-32369049D01*
X77347000Y-32356174D01*
X77347000Y-32356173D01*
X77847000Y-32356173D01*
X77850450Y-32369048D01*
X77863326Y-32372499D01*
X78118829Y-32372499D01*
X78125111Y-32372178D01*
X78217959Y-32362694D01*
X78231122Y-32359876D01*
X78384267Y-32309129D01*
X78397266Y-32303067D01*
X78534194Y-32218609D01*
X78545455Y-32209705D01*
X78659205Y-32095955D01*
X78668109Y-32084694D01*
X78752567Y-31947766D01*
X78758629Y-31934767D01*
X78809375Y-31781625D01*
X78812194Y-31768458D01*
X78821680Y-31675609D01*
X78822000Y-31669332D01*
X78822000Y-31551326D01*
X78818549Y-31538450D01*
X78805674Y-31535000D01*
X77863326Y-31535000D01*
X77850450Y-31538450D01*
X77847000Y-31551326D01*
X77847000Y-32356173D01*
X77347000Y-32356173D01*
X77347000Y-31551326D01*
X77343549Y-31538450D01*
X77330674Y-31535000D01*
X76388327Y-31535000D01*
X76375451Y-31538450D01*
X76372001Y-31551326D01*
X76372001Y-31669329D01*
X75369939Y-31669329D01*
X75369194Y-31662040D01*
X75366376Y-31648877D01*
X75315629Y-31495732D01*
X75309567Y-31482733D01*
X75225109Y-31345805D01*
X75216205Y-31334544D01*
X75102455Y-31220794D01*
X75091194Y-31211890D01*
X74954266Y-31127432D01*
X74941267Y-31121370D01*
X74788125Y-31070624D01*
X74774958Y-31067805D01*
X74682109Y-31058319D01*
X74675832Y-31058000D01*
X74545326Y-31058000D01*
X74532450Y-31061450D01*
X74529000Y-31074326D01*
X74529000Y-31991674D01*
X74029000Y-31991674D01*
X74029000Y-31074327D01*
X74025549Y-31061451D01*
X74012674Y-31058001D01*
X73882171Y-31058001D01*
X73875888Y-31058321D01*
X73783040Y-31067805D01*
X73769877Y-31070623D01*
X73616732Y-31121370D01*
X73603733Y-31127432D01*
X73466805Y-31211890D01*
X73455549Y-31220790D01*
X73367034Y-31309305D01*
X73311446Y-31341398D01*
X73247259Y-31341398D01*
X73191672Y-31309304D01*
X73102761Y-31220393D01*
X73097656Y-31215288D01*
X73091515Y-31211500D01*
X73091511Y-31211497D01*
X72954480Y-31126977D01*
X72948334Y-31123186D01*
X72922924Y-31114766D01*
X72788225Y-31070131D01*
X72788224Y-31070130D01*
X72781797Y-31068001D01*
X72775064Y-31067313D01*
X72775059Y-31067312D01*
X72682140Y-31057819D01*
X72682123Y-31057818D01*
X72679009Y-31057500D01*
X72675860Y-31057500D01*
X72014453Y-31057500D01*
X71967000Y-31048061D01*
X71926772Y-31021181D01*
X71158858Y-30253267D01*
X71129611Y-30206865D01*
X71123244Y-30152385D01*
X71140998Y-30100494D01*
X71218814Y-29974334D01*
X71273999Y-29807797D01*
X71284500Y-29705009D01*
X71284499Y-28904992D01*
X71273999Y-28802203D01*
X71218814Y-28635666D01*
X71126712Y-28486344D01*
X71033049Y-28392681D01*
X71000955Y-28337094D01*
X71000955Y-28272906D01*
X71033049Y-28217319D01*
X71064954Y-28185414D01*
X71126712Y-28123656D01*
X71209520Y-27989402D01*
X71254626Y-27946223D01*
X71315058Y-27930500D01*
X72968548Y-27930500D01*
X73016001Y-27939939D01*
X73056229Y-27966819D01*
X74686707Y-29597298D01*
X74694159Y-29605487D01*
X74698214Y-29611877D01*
X74747223Y-29657900D01*
X74750019Y-29660610D01*
X74769529Y-29680120D01*
X74772709Y-29682587D01*
X74781571Y-29690155D01*
X74794035Y-29701860D01*
X74807732Y-29714723D01*
X74807734Y-29714724D01*
X74813418Y-29720062D01*
X74820251Y-29723818D01*
X74820252Y-29723819D01*
X74830973Y-29729713D01*
X74847234Y-29740394D01*
X74863064Y-29752673D01*
X74903154Y-29770021D01*
X74913631Y-29775154D01*
X74951908Y-29796197D01*
X74968957Y-29800574D01*
X74971305Y-29801177D01*
X74989719Y-29807481D01*
X75008104Y-29815438D01*
X75051265Y-29822273D01*
X75062664Y-29824634D01*
X75104981Y-29835500D01*
X75125017Y-29835500D01*
X75144402Y-29837025D01*
X75164196Y-29840160D01*
X75202276Y-29836560D01*
X75207676Y-29836050D01*
X75219345Y-29835500D01*
X76348652Y-29835500D01*
X76409084Y-29851223D01*
X76454190Y-29894402D01*
X76529288Y-30016156D01*
X76653344Y-30140212D01*
X76659488Y-30144002D01*
X76665157Y-30148484D01*
X76664008Y-30149936D01*
X76699832Y-30187353D01*
X76715559Y-30247781D01*
X76699844Y-30308212D01*
X76664266Y-30345386D01*
X76665471Y-30346910D01*
X76648544Y-30360294D01*
X76534794Y-30474044D01*
X76525890Y-30485305D01*
X76441432Y-30622233D01*
X76435370Y-30635232D01*
X76384624Y-30788374D01*
X76381805Y-30801541D01*
X76372319Y-30894390D01*
X76372000Y-30900668D01*
X76372000Y-31018674D01*
X76375450Y-31031549D01*
X76388326Y-31035000D01*
X78805673Y-31035000D01*
X78818548Y-31031549D01*
X78821999Y-31018674D01*
X78821999Y-30900671D01*
X78821678Y-30894388D01*
X78812194Y-30801540D01*
X78809376Y-30788377D01*
X78758629Y-30635232D01*
X78752567Y-30622233D01*
X78668109Y-30485305D01*
X78659205Y-30474044D01*
X78545455Y-30360294D01*
X78528529Y-30346910D01*
X78529735Y-30345383D01*
X78494160Y-30308220D01*
X78478440Y-30247782D01*
X78494171Y-30187346D01*
X78529992Y-30149938D01*
X78528843Y-30148484D01*
X78534509Y-30144003D01*
X78540656Y-30140212D01*
X78664712Y-30016156D01*
X78739809Y-29894402D01*
X78784916Y-29851223D01*
X78845348Y-29835500D01*
X80207548Y-29835500D01*
X80255001Y-29844939D01*
X80295229Y-29871819D01*
X81888181Y-31464772D01*
X81915061Y-31505000D01*
X81924500Y-31552453D01*
X81924500Y-37244293D01*
X81914408Y-37293292D01*
X81885775Y-37334316D01*
X81848927Y-37357171D01*
X81849204Y-37357729D01*
X81843342Y-37360636D01*
X81843339Y-37360637D01*
X81843188Y-37360712D01*
X81843184Y-37360714D01*
X81683648Y-37439837D01*
X81683642Y-37439840D01*
X81677627Y-37442824D01*
X81672393Y-37447030D01*
X81672390Y-37447033D01*
X81533587Y-37558605D01*
X81533582Y-37558609D01*
X81528353Y-37562813D01*
X81524149Y-37568042D01*
X81524145Y-37568047D01*
X81412573Y-37706850D01*
X81412570Y-37706853D01*
X81408364Y-37712087D01*
X81405380Y-37718102D01*
X81405377Y-37718108D01*
X81326254Y-37877644D01*
X81326252Y-37877649D01*
X81323269Y-37883664D01*
X81321649Y-37890176D01*
X81321647Y-37890183D01*
X81278862Y-38062228D01*
X81277048Y-38069524D01*
X81276678Y-38074969D01*
X81276678Y-38074974D01*
X81274273Y-38110434D01*
X81274272Y-38110459D01*
X81274132Y-38112526D01*
X81274132Y-40045658D01*
X81274272Y-40047725D01*
X81274273Y-40047749D01*
X81274394Y-40049527D01*
X81277048Y-40088660D01*
X81278365Y-40093959D01*
X81278366Y-40093960D01*
X81321647Y-40268000D01*
X81321648Y-40268004D01*
X81323269Y-40274520D01*
X81326253Y-40280537D01*
X81326254Y-40280539D01*
X81403850Y-40436997D01*
X81408364Y-40446097D01*
X81528353Y-40595371D01*
X81677627Y-40715360D01*
X81849204Y-40800455D01*
X82035064Y-40846676D01*
X82078066Y-40849592D01*
X82989100Y-40849592D01*
X82991198Y-40849592D01*
X83034200Y-40846676D01*
X83220060Y-40800455D01*
X83391637Y-40715360D01*
X83540911Y-40595371D01*
X83660900Y-40446097D01*
X83745995Y-40274520D01*
X83792216Y-40088660D01*
X83794940Y-40048486D01*
X83805767Y-40005573D01*
X83830975Y-39969195D01*
X84709536Y-39090634D01*
X84716200Y-39079091D01*
X84709536Y-39067549D01*
X83830975Y-38188988D01*
X83805767Y-38152610D01*
X83794940Y-38109696D01*
X83794143Y-38097938D01*
X83792216Y-38069524D01*
X83745995Y-37883664D01*
X83660900Y-37712087D01*
X83540911Y-37562813D01*
X83391637Y-37442824D01*
X83385617Y-37439838D01*
X83385615Y-37439837D01*
X83244405Y-37369803D01*
X83194125Y-37324076D01*
X83175500Y-37258715D01*
X83175500Y-31319775D01*
X83176021Y-31308719D01*
X83177673Y-31301333D01*
X83175561Y-31234127D01*
X83175500Y-31230232D01*
X83175500Y-31206541D01*
X83175500Y-31202650D01*
X83174998Y-31198677D01*
X83174080Y-31187018D01*
X83172954Y-31151173D01*
X83172709Y-31143373D01*
X83167120Y-31124140D01*
X83163174Y-31105083D01*
X83161641Y-31092944D01*
X83160664Y-31085208D01*
X83144582Y-31044591D01*
X83140803Y-31033551D01*
X83130795Y-30999102D01*
X83130793Y-30999099D01*
X83128618Y-30991610D01*
X83118417Y-30974360D01*
X83109863Y-30956901D01*
X83102486Y-30938268D01*
X83076808Y-30902925D01*
X83070401Y-30893171D01*
X83052142Y-30862296D01*
X83052141Y-30862294D01*
X83048170Y-30855580D01*
X83034005Y-30841415D01*
X83021370Y-30826622D01*
X83009594Y-30810413D01*
X83003583Y-30805440D01*
X83003581Y-30805438D01*
X82975941Y-30782573D01*
X82967300Y-30774710D01*
X81015286Y-28822695D01*
X81007842Y-28814514D01*
X81003786Y-28808123D01*
X80954775Y-28762098D01*
X80951978Y-28759387D01*
X80935227Y-28742636D01*
X80932471Y-28739880D01*
X80929290Y-28737412D01*
X80920414Y-28729830D01*
X80894269Y-28705278D01*
X80894267Y-28705276D01*
X80888582Y-28699938D01*
X80881749Y-28696182D01*
X80881743Y-28696177D01*
X80871025Y-28690285D01*
X80854766Y-28679606D01*
X80845095Y-28672104D01*
X80845092Y-28672102D01*
X80838936Y-28667327D01*
X80831779Y-28664229D01*
X80831776Y-28664228D01*
X80798849Y-28649978D01*
X80788363Y-28644841D01*
X80756932Y-28627562D01*
X80756923Y-28627558D01*
X80750092Y-28623803D01*
X80742535Y-28621862D01*
X80742531Y-28621861D01*
X80730688Y-28618820D01*
X80712284Y-28612519D01*
X80701057Y-28607660D01*
X80701050Y-28607658D01*
X80693896Y-28604562D01*
X80686192Y-28603341D01*
X80686190Y-28603341D01*
X80650759Y-28597729D01*
X80639324Y-28595361D01*
X80604571Y-28586438D01*
X80604563Y-28586437D01*
X80597019Y-28584500D01*
X80589223Y-28584500D01*
X80576983Y-28584500D01*
X80557597Y-28582974D01*
X80537804Y-28579840D01*
X80530038Y-28580574D01*
X80530035Y-28580574D01*
X80494324Y-28583950D01*
X80482655Y-28584500D01*
X78845348Y-28584500D01*
X78784916Y-28568777D01*
X78739809Y-28525597D01*
X78664712Y-28403844D01*
X78540656Y-28279788D01*
X78534515Y-28276000D01*
X78534511Y-28275997D01*
X78397480Y-28191477D01*
X78391334Y-28187686D01*
X78224797Y-28132501D01*
X78218064Y-28131813D01*
X78218059Y-28131812D01*
X78125140Y-28122319D01*
X78125123Y-28122318D01*
X78122009Y-28122000D01*
X78118860Y-28122000D01*
X77075140Y-28122000D01*
X77075120Y-28122000D01*
X77071992Y-28122001D01*
X77068860Y-28122320D01*
X77068858Y-28122321D01*
X76975938Y-28131812D01*
X76975928Y-28131813D01*
X76969203Y-28132501D01*
X76962781Y-28134628D01*
X76962776Y-28134630D01*
X76809521Y-28185414D01*
X76809517Y-28185415D01*
X76802666Y-28187686D01*
X76796522Y-28191475D01*
X76796519Y-28191477D01*
X76659488Y-28275997D01*
X76659480Y-28276003D01*
X76653344Y-28279788D01*
X76648242Y-28284889D01*
X76648238Y-28284893D01*
X76534393Y-28398738D01*
X76534389Y-28398742D01*
X76529288Y-28403844D01*
X76525501Y-28409983D01*
X76525500Y-28409985D01*
X76454191Y-28525597D01*
X76409084Y-28568777D01*
X76348652Y-28584500D01*
X75494452Y-28584500D01*
X75446999Y-28575061D01*
X75406771Y-28548181D01*
X73776286Y-26917695D01*
X73768842Y-26909514D01*
X73764786Y-26903123D01*
X73715775Y-26857098D01*
X73712978Y-26854387D01*
X73696227Y-26837636D01*
X73696226Y-26837635D01*
X73693471Y-26834880D01*
X73690290Y-26832412D01*
X73681414Y-26824830D01*
X73655269Y-26800278D01*
X73655267Y-26800276D01*
X73649582Y-26794938D01*
X73642749Y-26791182D01*
X73642743Y-26791177D01*
X73632025Y-26785285D01*
X73615766Y-26774606D01*
X73606095Y-26767104D01*
X73606092Y-26767102D01*
X73599936Y-26762327D01*
X73592779Y-26759229D01*
X73592776Y-26759228D01*
X73559849Y-26744978D01*
X73549363Y-26739841D01*
X73517932Y-26722562D01*
X73517923Y-26722558D01*
X73511092Y-26718803D01*
X73503535Y-26716862D01*
X73503531Y-26716861D01*
X73491688Y-26713820D01*
X73473284Y-26707519D01*
X73462057Y-26702660D01*
X73462050Y-26702658D01*
X73454896Y-26699562D01*
X73447192Y-26698341D01*
X73447190Y-26698341D01*
X73411759Y-26692729D01*
X73400324Y-26690361D01*
X73365571Y-26681438D01*
X73365563Y-26681437D01*
X73358019Y-26679500D01*
X73350223Y-26679500D01*
X73337983Y-26679500D01*
X73318597Y-26677974D01*
X73298804Y-26674840D01*
X73291038Y-26675574D01*
X73291035Y-26675574D01*
X73255324Y-26678950D01*
X73243655Y-26679500D01*
X71315058Y-26679500D01*
X71254626Y-26663777D01*
X71209519Y-26620597D01*
X71126712Y-26486344D01*
X71002656Y-26362288D01*
X70996515Y-26358500D01*
X70996511Y-26358497D01*
X70859480Y-26273977D01*
X70853334Y-26270186D01*
X70726369Y-26228114D01*
X70693225Y-26217131D01*
X70693224Y-26217130D01*
X70686797Y-26215001D01*
X70680064Y-26214313D01*
X70680059Y-26214312D01*
X70587140Y-26204819D01*
X70587123Y-26204818D01*
X70584009Y-26204500D01*
X70580860Y-26204500D01*
X69587140Y-26204500D01*
X69587120Y-26204500D01*
X69583992Y-26204501D01*
X69580860Y-26204820D01*
X69580858Y-26204821D01*
X69487938Y-26214312D01*
X69487928Y-26214313D01*
X69481203Y-26215001D01*
X69474781Y-26217128D01*
X69474776Y-26217130D01*
X69321521Y-26267914D01*
X69321517Y-26267915D01*
X69314666Y-26270186D01*
X69308522Y-26273975D01*
X69308519Y-26273977D01*
X69171488Y-26358497D01*
X69171480Y-26358503D01*
X69165344Y-26362288D01*
X69160242Y-26367389D01*
X69160238Y-26367393D01*
X69046393Y-26481238D01*
X69046389Y-26481242D01*
X69041288Y-26486344D01*
X69037503Y-26492480D01*
X69037497Y-26492488D01*
X68952977Y-26629519D01*
X68949186Y-26635666D01*
X68946915Y-26642517D01*
X68946914Y-26642521D01*
X68896408Y-26794938D01*
X68894001Y-26802203D01*
X68893313Y-26808933D01*
X68893312Y-26808940D01*
X68883819Y-26901859D01*
X68883818Y-26901877D01*
X68883500Y-26904991D01*
X68883500Y-26908138D01*
X68883500Y-26908139D01*
X68883500Y-27701858D01*
X68883500Y-27701877D01*
X68883501Y-27705008D01*
X68883820Y-27708140D01*
X68883821Y-27708141D01*
X68893312Y-27801061D01*
X68893313Y-27801069D01*
X68894001Y-27807797D01*
X68896129Y-27814219D01*
X68896130Y-27814223D01*
X68939871Y-27946223D01*
X68949186Y-27974334D01*
X68952977Y-27980480D01*
X69037497Y-28117511D01*
X69037500Y-28117515D01*
X69041288Y-28123656D01*
X69046392Y-28128760D01*
X69046393Y-28128761D01*
X69134951Y-28217319D01*
X69167045Y-28272906D01*
X69167045Y-28337094D01*
X69134951Y-28392681D01*
X69046393Y-28481238D01*
X69046389Y-28481242D01*
X69041288Y-28486344D01*
X69037503Y-28492480D01*
X69037497Y-28492488D01*
X68952976Y-28629520D01*
X68952973Y-28629525D01*
X68949186Y-28635666D01*
X68947566Y-28640552D01*
X68902376Y-28692081D01*
X68835752Y-28711500D01*
X66096452Y-28711500D01*
X66048999Y-28702061D01*
X66008771Y-28675181D01*
X65812819Y-28479228D01*
X65785939Y-28439000D01*
X65776500Y-28391547D01*
X65776500Y-26773171D01*
X65777020Y-26762118D01*
X65778672Y-26754732D01*
X65776561Y-26687544D01*
X65776500Y-26683650D01*
X65776500Y-26659945D01*
X65776500Y-26656050D01*
X65775998Y-26652081D01*
X65775080Y-26640424D01*
X65774737Y-26629519D01*
X65773709Y-26596773D01*
X65768120Y-26577540D01*
X65764174Y-26558483D01*
X65762641Y-26546344D01*
X65761664Y-26538608D01*
X65745582Y-26497991D01*
X65741803Y-26486951D01*
X65731795Y-26452502D01*
X65731793Y-26452499D01*
X65729618Y-26445010D01*
X65725647Y-26438296D01*
X65725645Y-26438291D01*
X65719421Y-26427768D01*
X65710858Y-26410290D01*
X65703486Y-26391668D01*
X65698902Y-26385359D01*
X65698899Y-26385353D01*
X65677817Y-26356337D01*
X65671401Y-26346570D01*
X65653143Y-26315696D01*
X65653140Y-26315692D01*
X65649170Y-26308979D01*
X65635005Y-26294814D01*
X65622368Y-26280018D01*
X65615184Y-26270129D01*
X65615178Y-26270123D01*
X65610594Y-26263813D01*
X65576946Y-26235977D01*
X65568305Y-26228114D01*
X64352886Y-25012695D01*
X64345442Y-25004514D01*
X64341386Y-24998123D01*
X64292375Y-24952098D01*
X64289578Y-24949387D01*
X64272827Y-24932636D01*
X64272827Y-24932635D01*
X64270071Y-24929880D01*
X64266890Y-24927412D01*
X64258014Y-24919830D01*
X64231869Y-24895278D01*
X64231867Y-24895276D01*
X64226182Y-24889938D01*
X64219349Y-24886182D01*
X64219343Y-24886177D01*
X64208625Y-24880285D01*
X64192366Y-24869606D01*
X64182695Y-24862104D01*
X64182692Y-24862102D01*
X64176536Y-24857327D01*
X64169379Y-24854229D01*
X64169376Y-24854228D01*
X64136449Y-24839978D01*
X64125963Y-24834841D01*
X64094532Y-24817562D01*
X64094523Y-24817558D01*
X64087692Y-24813803D01*
X64080135Y-24811862D01*
X64080131Y-24811861D01*
X64068288Y-24808820D01*
X64049884Y-24802519D01*
X64038657Y-24797660D01*
X64038650Y-24797658D01*
X64031496Y-24794562D01*
X64023792Y-24793341D01*
X64023790Y-24793341D01*
X63988359Y-24787729D01*
X63976924Y-24785361D01*
X63942171Y-24776438D01*
X63942163Y-24776437D01*
X63934619Y-24774500D01*
X63926823Y-24774500D01*
X63914583Y-24774500D01*
X63895197Y-24772974D01*
X63875404Y-24769840D01*
X63867638Y-24770574D01*
X63867635Y-24770574D01*
X63831924Y-24773950D01*
X63820255Y-24774500D01*
X61139375Y-24774500D01*
X61128319Y-24773978D01*
X61120933Y-24772327D01*
X61113145Y-24772571D01*
X61113138Y-24772571D01*
X61053727Y-24774439D01*
X61049832Y-24774500D01*
X61022250Y-24774500D01*
X61018405Y-24774985D01*
X61018380Y-24774987D01*
X61018253Y-24775004D01*
X61006634Y-24775918D01*
X60970772Y-24777045D01*
X60970765Y-24777046D01*
X60962973Y-24777291D01*
X60955488Y-24779465D01*
X60955472Y-24779468D01*
X60943726Y-24782881D01*
X60924683Y-24786825D01*
X60912549Y-24788358D01*
X60912548Y-24788358D01*
X60904808Y-24789336D01*
X60897558Y-24792205D01*
X60897551Y-24792208D01*
X60864198Y-24805413D01*
X60853154Y-24809194D01*
X60818701Y-24819204D01*
X60818690Y-24819208D01*
X60811210Y-24821382D01*
X60804498Y-24825351D01*
X60804496Y-24825352D01*
X60793964Y-24831580D01*
X60776504Y-24840134D01*
X60765119Y-24844642D01*
X60765113Y-24844644D01*
X60757868Y-24847514D01*
X60751563Y-24852094D01*
X60751555Y-24852099D01*
X60722532Y-24873185D01*
X60712774Y-24879595D01*
X60681896Y-24897857D01*
X60681890Y-24897861D01*
X60675180Y-24901830D01*
X60669667Y-24907341D01*
X60669660Y-24907348D01*
X60661010Y-24915998D01*
X60646227Y-24928624D01*
X60636326Y-24935817D01*
X60636316Y-24935826D01*
X60630013Y-24940406D01*
X60625044Y-24946411D01*
X60625041Y-24946415D01*
X60602172Y-24974059D01*
X60594311Y-24982697D01*
X59861496Y-25715511D01*
X59853311Y-25722959D01*
X59846923Y-25727014D01*
X59841588Y-25732694D01*
X59841583Y-25732699D01*
X59800896Y-25776025D01*
X59798192Y-25778816D01*
X59781428Y-25795580D01*
X59781421Y-25795587D01*
X59778680Y-25798329D01*
X59776300Y-25801396D01*
X59776289Y-25801409D01*
X59776200Y-25801525D01*
X59768642Y-25810370D01*
X59744080Y-25836527D01*
X59744073Y-25836536D01*
X59738738Y-25842218D01*
X59734982Y-25849049D01*
X59734979Y-25849054D01*
X59729085Y-25859775D01*
X59718409Y-25876027D01*
X59710909Y-25885696D01*
X59710901Y-25885707D01*
X59706127Y-25891864D01*
X59703034Y-25899008D01*
X59703029Y-25899019D01*
X59688774Y-25931960D01*
X59683638Y-25942443D01*
X59662603Y-25980708D01*
X59660664Y-25988256D01*
X59660663Y-25988261D01*
X59657622Y-26000107D01*
X59651321Y-26018511D01*
X59646458Y-26029748D01*
X59646456Y-26029752D01*
X59643362Y-26036904D01*
X59642142Y-26044603D01*
X59642142Y-26044605D01*
X59636529Y-26080041D01*
X59634161Y-26091476D01*
X59625238Y-26126228D01*
X59625236Y-26126236D01*
X59623300Y-26133781D01*
X59623300Y-26141577D01*
X59623300Y-26153817D01*
X59621774Y-26173202D01*
X59618640Y-26192996D01*
X59619374Y-26200761D01*
X59619374Y-26200764D01*
X59622750Y-26236476D01*
X59623300Y-26248145D01*
X59623300Y-26689671D01*
X59604675Y-26755032D01*
X59554395Y-26800759D01*
X59482612Y-26836360D01*
X59482609Y-26836361D01*
X59476590Y-26839347D01*
X59471354Y-26843555D01*
X59471349Y-26843559D01*
X59341881Y-26947628D01*
X59341876Y-26947632D01*
X59336641Y-26951841D01*
X59332432Y-26957076D01*
X59332428Y-26957081D01*
X59228359Y-27086549D01*
X59228355Y-27086554D01*
X59224147Y-27091790D01*
X59221161Y-27097809D01*
X59221160Y-27097812D01*
X59147355Y-27246625D01*
X59147353Y-27246629D01*
X59144367Y-27252651D01*
X59142745Y-27259173D01*
X59142744Y-27259176D01*
X59124277Y-27333435D01*
X59092568Y-27390235D01*
X59036468Y-27423167D01*
X58971416Y-27423167D01*
X58915316Y-27390235D01*
X58883607Y-27333435D01*
X58865181Y-27259343D01*
X58860574Y-27246804D01*
X58786815Y-27098083D01*
X58779616Y-27086820D01*
X58675615Y-26957437D01*
X58666162Y-26947984D01*
X58536779Y-26843983D01*
X58525516Y-26836784D01*
X58376795Y-26763025D01*
X58364256Y-26758418D01*
X58201932Y-26718050D01*
X58191181Y-26716362D01*
X58158435Y-26714141D01*
X58154246Y-26714000D01*
X57364954Y-26714000D01*
X57360764Y-26714141D01*
X57328018Y-26716362D01*
X57317267Y-26718050D01*
X57154943Y-26758418D01*
X57142404Y-26763025D01*
X56993683Y-26836784D01*
X56982420Y-26843983D01*
X56853037Y-26947984D01*
X56843584Y-26957437D01*
X56739583Y-27086820D01*
X56732384Y-27098083D01*
X56658625Y-27246804D01*
X56654018Y-27259343D01*
X56613650Y-27421667D01*
X56611962Y-27432418D01*
X56609741Y-27465164D01*
X56609600Y-27469354D01*
X56609600Y-27948236D01*
X56611843Y-27959514D01*
X56618238Y-27969085D01*
X58025472Y-29376319D01*
X58057566Y-29431906D01*
X58057566Y-29496094D01*
X58025472Y-29551681D01*
X56618238Y-30958914D01*
X56611843Y-30968485D01*
X56609600Y-30979764D01*
X56609600Y-31458646D01*
X56609741Y-31462835D01*
X56611962Y-31495581D01*
X56613650Y-31506332D01*
X56654018Y-31668656D01*
X56658625Y-31681195D01*
X56732384Y-31829916D01*
X56739583Y-31841179D01*
X56843584Y-31970562D01*
X56853037Y-31980015D01*
X56982420Y-32084016D01*
X56993683Y-32091215D01*
X57142404Y-32164974D01*
X57154943Y-32169581D01*
X57317267Y-32209949D01*
X57328018Y-32211637D01*
X57360764Y-32213858D01*
X57364954Y-32214000D01*
X58154246Y-32214000D01*
X58158435Y-32213858D01*
X58191181Y-32211637D01*
X58201932Y-32209949D01*
X58364256Y-32169581D01*
X58376795Y-32164974D01*
X58525516Y-32091215D01*
X58536779Y-32084016D01*
X58666162Y-31980015D01*
X58675615Y-31970562D01*
X58779616Y-31841179D01*
X58786815Y-31829916D01*
X58860574Y-31681195D01*
X58865181Y-31668654D01*
X58883607Y-31594565D01*
X58915316Y-31537764D01*
X58971416Y-31504832D01*
X59036468Y-31504832D01*
X59092568Y-31537764D01*
X59124277Y-31594564D01*
X59142702Y-31668656D01*
X59144367Y-31675349D01*
X59224147Y-31836210D01*
X59336641Y-31976159D01*
X59476590Y-32088653D01*
X59637451Y-32168433D01*
X59811700Y-32211766D01*
X59852016Y-32214500D01*
X60643487Y-32214500D01*
X60645584Y-32214500D01*
X60685900Y-32211766D01*
X60860149Y-32168433D01*
X61021010Y-32088653D01*
X61160959Y-31976159D01*
X61273453Y-31836210D01*
X61353233Y-31675349D01*
X61373065Y-31595600D01*
X61404774Y-31538800D01*
X61460874Y-31505868D01*
X61525926Y-31505868D01*
X61582026Y-31538800D01*
X61613735Y-31595601D01*
X61631943Y-31668822D01*
X61631944Y-31668824D01*
X61633567Y-31675349D01*
X61713347Y-31836210D01*
X61717558Y-31841449D01*
X61717559Y-31841450D01*
X61810147Y-31956635D01*
X61830462Y-31993141D01*
X61837500Y-32034322D01*
X61837500Y-33193374D01*
X61835972Y-33212772D01*
X61833781Y-33226612D01*
X61834121Y-33233100D01*
X61834121Y-33233101D01*
X61837330Y-33294337D01*
X61837500Y-33300826D01*
X61837500Y-33321192D01*
X61837837Y-33324404D01*
X61837838Y-33324413D01*
X61839628Y-33341447D01*
X61840136Y-33347908D01*
X61843346Y-33409152D01*
X61843346Y-33409157D01*
X61843687Y-33415646D01*
X61845369Y-33421925D01*
X61845370Y-33421928D01*
X61847315Y-33429187D01*
X61850861Y-33448318D01*
X61851515Y-33454548D01*
X61852326Y-33462256D01*
X61873283Y-33526756D01*
X61875125Y-33532976D01*
X61892680Y-33598488D01*
X61895629Y-33604276D01*
X61895630Y-33604278D01*
X61899043Y-33610975D01*
X61906488Y-33628949D01*
X61910821Y-33642284D01*
X61914068Y-33647908D01*
X61914069Y-33647910D01*
X61944725Y-33701008D01*
X61947823Y-33706713D01*
X61978617Y-33767149D01*
X61982703Y-33772195D01*
X61982706Y-33772199D01*
X61987435Y-33778038D01*
X61998457Y-33794075D01*
X62002216Y-33800586D01*
X62002218Y-33800589D01*
X62005467Y-33806216D01*
X62009814Y-33811044D01*
X62009817Y-33811048D01*
X62050853Y-33856624D01*
X62055067Y-33861557D01*
X62067881Y-33877380D01*
X62070179Y-33879678D01*
X62070180Y-33879679D01*
X62082274Y-33891773D01*
X62086743Y-33896482D01*
X62102931Y-33914460D01*
X62132129Y-33946888D01*
X62137386Y-33950707D01*
X62143468Y-33955126D01*
X62158265Y-33967764D01*
X63822235Y-35631735D01*
X63834871Y-35646529D01*
X63839292Y-35652614D01*
X63839294Y-35652617D01*
X63843112Y-35657871D01*
X63884573Y-35695203D01*
X63893506Y-35703246D01*
X63898214Y-35707714D01*
X63912620Y-35722120D01*
X63928437Y-35734928D01*
X63933376Y-35739145D01*
X63983784Y-35784533D01*
X63995922Y-35791541D01*
X64011954Y-35802559D01*
X64022851Y-35811383D01*
X64083292Y-35842178D01*
X64088975Y-35845265D01*
X64142079Y-35875925D01*
X64142083Y-35875926D01*
X64147716Y-35879179D01*
X64161041Y-35883508D01*
X64179022Y-35890956D01*
X64191512Y-35897320D01*
X64197788Y-35899001D01*
X64197789Y-35899002D01*
X64257014Y-35914871D01*
X64263237Y-35916714D01*
X64327744Y-35937674D01*
X64341674Y-35939138D01*
X64360819Y-35942686D01*
X64368073Y-35944630D01*
X64368075Y-35944630D01*
X64374355Y-35946313D01*
X64442095Y-35949862D01*
X64448553Y-35950371D01*
X64468808Y-35952500D01*
X64489175Y-35952500D01*
X64495664Y-35952670D01*
X64563388Y-35956219D01*
X64577227Y-35954027D01*
X64596626Y-35952500D01*
X65904500Y-35952500D01*
X65966500Y-35969113D01*
X66011887Y-36014500D01*
X66028500Y-36076500D01*
X66028500Y-36439436D01*
X66017245Y-36491055D01*
X65985525Y-36533303D01*
X65939096Y-36558512D01*
X65851093Y-36584079D01*
X65851088Y-36584080D01*
X65843602Y-36586256D01*
X65836891Y-36590224D01*
X65836886Y-36590227D01*
X65708851Y-36665946D01*
X65708844Y-36665950D01*
X65702135Y-36669919D01*
X65696620Y-36675433D01*
X65696616Y-36675437D01*
X65591437Y-36780616D01*
X65591433Y-36780620D01*
X65585919Y-36786135D01*
X65581950Y-36792844D01*
X65581946Y-36792851D01*
X65506227Y-36920886D01*
X65506224Y-36920891D01*
X65502256Y-36927602D01*
X65500080Y-36935091D01*
X65500079Y-36935094D01*
X65458170Y-37079342D01*
X65458168Y-37079351D01*
X65456402Y-37085431D01*
X65455905Y-37091739D01*
X65455904Y-37091748D01*
X65453691Y-37119871D01*
X65453690Y-37119886D01*
X65453500Y-37122306D01*
X65453500Y-37553694D01*
X65453690Y-37556114D01*
X65453691Y-37556128D01*
X65455904Y-37584251D01*
X65455905Y-37584258D01*
X65456402Y-37590569D01*
X65458168Y-37596650D01*
X65458170Y-37596657D01*
X65495950Y-37726693D01*
X65502256Y-37748398D01*
X65506226Y-37755111D01*
X65506227Y-37755113D01*
X65515918Y-37771500D01*
X65585919Y-37889865D01*
X65591432Y-37895378D01*
X65592691Y-37897001D01*
X65615725Y-37945951D01*
X65615725Y-38000049D01*
X65592691Y-38048999D01*
X65591432Y-38050621D01*
X65585919Y-38056135D01*
X65581951Y-38062844D01*
X65581949Y-38062847D01*
X65506227Y-38190886D01*
X65506224Y-38190891D01*
X65502256Y-38197602D01*
X65500080Y-38205091D01*
X65500079Y-38205094D01*
X65458170Y-38349342D01*
X65458168Y-38349351D01*
X65456402Y-38355431D01*
X65455905Y-38361739D01*
X65455904Y-38361748D01*
X65453691Y-38389871D01*
X65453690Y-38389886D01*
X65453500Y-38392306D01*
X65453500Y-38823694D01*
X65453690Y-38826114D01*
X65453691Y-38826128D01*
X65455904Y-38854251D01*
X65455905Y-38854258D01*
X65456402Y-38860569D01*
X65458168Y-38866650D01*
X65458170Y-38866657D01*
X65482948Y-38951940D01*
X65502256Y-39018398D01*
X65506226Y-39025111D01*
X65506227Y-39025113D01*
X65519169Y-39046997D01*
X65585919Y-39159865D01*
X65591438Y-39165384D01*
X65593008Y-39167408D01*
X65616043Y-39216358D01*
X65616044Y-39270456D01*
X65593012Y-39319407D01*
X65582346Y-39333158D01*
X65506689Y-39461087D01*
X65500541Y-39475294D01*
X65459307Y-39617223D01*
X65460713Y-39624293D01*
X65473856Y-39628000D01*
X68384144Y-39628000D01*
X68397286Y-39624293D01*
X68398692Y-39617223D01*
X68357458Y-39475294D01*
X68351310Y-39461087D01*
X68275657Y-39333164D01*
X68264991Y-39319414D01*
X68241955Y-39270462D01*
X68241956Y-39216360D01*
X68264992Y-39167408D01*
X68266561Y-39165384D01*
X68272081Y-39159865D01*
X68355744Y-39018398D01*
X68401598Y-38860569D01*
X68404500Y-38823694D01*
X70403500Y-38823694D01*
X70403690Y-38826114D01*
X70403691Y-38826128D01*
X70405904Y-38854251D01*
X70405905Y-38854258D01*
X70406402Y-38860569D01*
X70408168Y-38866650D01*
X70408170Y-38866657D01*
X70432948Y-38951940D01*
X70452256Y-39018398D01*
X70456226Y-39025111D01*
X70456227Y-39025113D01*
X70469169Y-39046997D01*
X70535919Y-39159865D01*
X70541438Y-39165384D01*
X70543008Y-39167408D01*
X70566043Y-39216358D01*
X70566044Y-39270456D01*
X70543012Y-39319407D01*
X70532346Y-39333158D01*
X70456689Y-39461087D01*
X70450541Y-39475294D01*
X70409307Y-39617223D01*
X70410713Y-39624293D01*
X70423856Y-39628000D01*
X73334144Y-39628000D01*
X73347286Y-39624293D01*
X73348692Y-39617223D01*
X73307458Y-39475294D01*
X73301312Y-39461090D01*
X73277379Y-39420622D01*
X73260115Y-39358474D01*
X73276401Y-39296063D01*
X73321830Y-39250276D01*
X73384111Y-39233500D01*
X74270500Y-39233500D01*
X74332500Y-39250113D01*
X74377887Y-39295500D01*
X74394500Y-39357500D01*
X74394500Y-40148008D01*
X74394818Y-40151122D01*
X74394819Y-40151139D01*
X74404312Y-40244059D01*
X74404313Y-40244064D01*
X74405001Y-40250797D01*
X74407130Y-40257224D01*
X74407131Y-40257225D01*
X74448958Y-40383452D01*
X74460186Y-40417334D01*
X74463977Y-40423480D01*
X74463978Y-40423482D01*
X74547416Y-40558756D01*
X74552289Y-40566655D01*
X74676345Y-40690711D01*
X74825666Y-40782814D01*
X74992203Y-40837999D01*
X75094992Y-40848500D01*
X77041859Y-40848500D01*
X77045008Y-40848500D01*
X77147797Y-40837999D01*
X77314334Y-40782814D01*
X77463655Y-40690711D01*
X77587711Y-40566655D01*
X77679814Y-40417334D01*
X77734999Y-40250797D01*
X77745500Y-40148008D01*
X77745500Y-39047992D01*
X77734999Y-38945203D01*
X77679814Y-38778666D01*
X77587711Y-38629345D01*
X77463655Y-38505289D01*
X77457505Y-38501495D01*
X77457503Y-38501494D01*
X77320482Y-38416978D01*
X77320480Y-38416977D01*
X77314334Y-38413186D01*
X77251322Y-38392306D01*
X77154225Y-38360131D01*
X77154224Y-38360130D01*
X77147797Y-38358001D01*
X77141064Y-38357313D01*
X77141059Y-38357312D01*
X77048139Y-38347819D01*
X77048122Y-38347818D01*
X77045008Y-38347500D01*
X77041859Y-38347500D01*
X75755453Y-38347500D01*
X75708000Y-38338061D01*
X75667772Y-38311181D01*
X75577286Y-38220695D01*
X75569842Y-38212514D01*
X75565786Y-38206123D01*
X75516775Y-38160098D01*
X75513978Y-38157387D01*
X75497227Y-38140636D01*
X75494471Y-38137880D01*
X75491290Y-38135412D01*
X75482414Y-38127830D01*
X75456269Y-38103278D01*
X75456267Y-38103276D01*
X75450582Y-38097938D01*
X75443749Y-38094182D01*
X75443743Y-38094177D01*
X75433025Y-38088285D01*
X75416766Y-38077606D01*
X75407095Y-38070104D01*
X75407092Y-38070102D01*
X75400936Y-38065327D01*
X75393779Y-38062229D01*
X75393776Y-38062228D01*
X75360849Y-38047978D01*
X75350363Y-38042841D01*
X75318932Y-38025562D01*
X75318923Y-38025558D01*
X75312092Y-38021803D01*
X75304535Y-38019862D01*
X75304531Y-38019861D01*
X75292688Y-38016820D01*
X75274284Y-38010519D01*
X75263057Y-38005660D01*
X75263050Y-38005658D01*
X75255896Y-38002562D01*
X75248192Y-38001341D01*
X75248190Y-38001341D01*
X75212759Y-37995729D01*
X75201324Y-37993361D01*
X75166571Y-37984438D01*
X75166563Y-37984437D01*
X75159019Y-37982500D01*
X75151223Y-37982500D01*
X75138983Y-37982500D01*
X75119597Y-37980974D01*
X75099804Y-37977840D01*
X75092038Y-37978574D01*
X75092035Y-37978574D01*
X75056324Y-37981950D01*
X75044655Y-37982500D01*
X73384692Y-37982500D01*
X73322411Y-37965725D01*
X73276982Y-37919937D01*
X73260696Y-37857527D01*
X73277960Y-37795380D01*
X73301770Y-37755117D01*
X73305744Y-37748398D01*
X73351598Y-37590569D01*
X73354500Y-37553694D01*
X73354500Y-37122306D01*
X73351598Y-37085431D01*
X73305744Y-36927602D01*
X73239482Y-36815559D01*
X73226053Y-36792851D01*
X73226052Y-36792849D01*
X73222081Y-36786135D01*
X73105865Y-36669919D01*
X73099151Y-36665948D01*
X73099148Y-36665946D01*
X72971113Y-36590227D01*
X72971111Y-36590226D01*
X72964398Y-36586256D01*
X72950775Y-36582298D01*
X72812657Y-36542170D01*
X72812650Y-36542168D01*
X72806569Y-36540402D01*
X72800258Y-36539905D01*
X72800251Y-36539904D01*
X72772128Y-36537691D01*
X72772114Y-36537690D01*
X72769694Y-36537500D01*
X70988306Y-36537500D01*
X70985886Y-36537690D01*
X70985871Y-36537691D01*
X70957748Y-36539904D01*
X70957739Y-36539905D01*
X70951431Y-36540402D01*
X70945351Y-36542168D01*
X70945342Y-36542170D01*
X70801094Y-36584079D01*
X70801091Y-36584080D01*
X70793602Y-36586256D01*
X70786891Y-36590224D01*
X70786886Y-36590227D01*
X70658851Y-36665946D01*
X70658844Y-36665950D01*
X70652135Y-36669919D01*
X70646620Y-36675433D01*
X70646616Y-36675437D01*
X70541437Y-36780616D01*
X70541433Y-36780620D01*
X70535919Y-36786135D01*
X70531950Y-36792844D01*
X70531946Y-36792851D01*
X70456227Y-36920886D01*
X70456224Y-36920891D01*
X70452256Y-36927602D01*
X70450080Y-36935091D01*
X70450079Y-36935094D01*
X70408170Y-37079342D01*
X70408168Y-37079351D01*
X70406402Y-37085431D01*
X70405905Y-37091739D01*
X70405904Y-37091748D01*
X70403691Y-37119871D01*
X70403690Y-37119886D01*
X70403500Y-37122306D01*
X70403500Y-37553694D01*
X70403690Y-37556114D01*
X70403691Y-37556128D01*
X70405904Y-37584251D01*
X70405905Y-37584258D01*
X70406402Y-37590569D01*
X70408168Y-37596650D01*
X70408170Y-37596657D01*
X70445950Y-37726693D01*
X70452256Y-37748398D01*
X70456226Y-37755111D01*
X70456227Y-37755113D01*
X70465918Y-37771500D01*
X70535919Y-37889865D01*
X70541432Y-37895378D01*
X70542691Y-37897001D01*
X70565725Y-37945951D01*
X70565725Y-38000049D01*
X70542691Y-38048999D01*
X70541432Y-38050621D01*
X70535919Y-38056135D01*
X70531951Y-38062844D01*
X70531949Y-38062847D01*
X70456227Y-38190886D01*
X70456224Y-38190891D01*
X70452256Y-38197602D01*
X70450080Y-38205091D01*
X70450079Y-38205094D01*
X70408170Y-38349342D01*
X70408168Y-38349351D01*
X70406402Y-38355431D01*
X70405905Y-38361739D01*
X70405904Y-38361748D01*
X70403691Y-38389871D01*
X70403690Y-38389886D01*
X70403500Y-38392306D01*
X70403500Y-38823694D01*
X68404500Y-38823694D01*
X68404500Y-38392306D01*
X68401598Y-38355431D01*
X68399386Y-38347819D01*
X68397688Y-38341973D01*
X68355744Y-38197602D01*
X68272081Y-38056135D01*
X68266562Y-38050616D01*
X68265308Y-38048999D01*
X68242274Y-38000047D01*
X68242275Y-37945946D01*
X68265312Y-37896994D01*
X68266556Y-37895389D01*
X68272081Y-37889865D01*
X68355744Y-37748398D01*
X68401598Y-37590569D01*
X68404500Y-37553694D01*
X68404500Y-37122306D01*
X68401598Y-37085431D01*
X68355744Y-36927602D01*
X68289482Y-36815559D01*
X68276053Y-36792851D01*
X68276052Y-36792849D01*
X68272081Y-36786135D01*
X68155865Y-36669919D01*
X68149151Y-36665948D01*
X68149148Y-36665946D01*
X68021113Y-36590227D01*
X68021111Y-36590226D01*
X68014398Y-36586256D01*
X68006908Y-36584080D01*
X68006906Y-36584079D01*
X67918904Y-36558512D01*
X67872475Y-36533303D01*
X67840755Y-36491055D01*
X67829500Y-36439436D01*
X67829500Y-35516626D01*
X67831027Y-35497228D01*
X67831056Y-35497044D01*
X67833219Y-35483388D01*
X67829670Y-35415663D01*
X67829500Y-35409174D01*
X67829500Y-35392050D01*
X67829500Y-35388808D01*
X67827371Y-35368553D01*
X67826862Y-35362095D01*
X67823313Y-35294354D01*
X67819683Y-35280808D01*
X67816138Y-35261682D01*
X67814674Y-35247744D01*
X67793712Y-35183231D01*
X67791875Y-35177028D01*
X67774320Y-35111512D01*
X67767956Y-35099022D01*
X67760506Y-35081036D01*
X67759595Y-35078233D01*
X67756179Y-35067716D01*
X67752926Y-35062083D01*
X67752925Y-35062079D01*
X67722265Y-35008975D01*
X67719178Y-35003292D01*
X67688383Y-34942851D01*
X67684294Y-34937801D01*
X67684289Y-34937794D01*
X67679561Y-34931956D01*
X67668537Y-34915916D01*
X67664784Y-34909416D01*
X67661533Y-34903784D01*
X67616146Y-34853376D01*
X67611932Y-34848442D01*
X67601161Y-34835142D01*
X67599119Y-34832620D01*
X67584724Y-34818225D01*
X67580255Y-34813516D01*
X67552349Y-34782523D01*
X67528735Y-34743988D01*
X67520499Y-34699551D01*
X67520499Y-34577473D01*
X67520499Y-34574324D01*
X67510174Y-34473247D01*
X67455908Y-34309484D01*
X67365340Y-34162650D01*
X67326371Y-34123680D01*
X67294277Y-34068094D01*
X67294277Y-34003906D01*
X67326371Y-33948319D01*
X67334871Y-33939819D01*
X67365340Y-33909350D01*
X67404784Y-33845400D01*
X67449889Y-33802223D01*
X67510321Y-33786500D01*
X67648548Y-33786500D01*
X67696001Y-33795939D01*
X67736229Y-33822819D01*
X68971707Y-35058298D01*
X68979159Y-35066487D01*
X68983214Y-35072877D01*
X69011064Y-35099030D01*
X69032223Y-35118900D01*
X69035019Y-35121610D01*
X69054529Y-35141120D01*
X69057709Y-35143587D01*
X69066571Y-35151155D01*
X69079382Y-35163186D01*
X69092732Y-35175723D01*
X69092734Y-35175724D01*
X69098418Y-35181062D01*
X69105251Y-35184818D01*
X69105252Y-35184819D01*
X69115973Y-35190713D01*
X69132234Y-35201394D01*
X69148064Y-35213673D01*
X69188155Y-35231021D01*
X69198635Y-35236155D01*
X69236908Y-35257197D01*
X69256316Y-35262180D01*
X69274719Y-35268481D01*
X69285944Y-35273339D01*
X69285946Y-35273339D01*
X69293104Y-35276437D01*
X69336258Y-35283271D01*
X69347644Y-35285629D01*
X69389981Y-35296500D01*
X69410017Y-35296500D01*
X69429415Y-35298027D01*
X69441486Y-35299939D01*
X69441487Y-35299939D01*
X69449196Y-35301160D01*
X69487276Y-35297560D01*
X69492676Y-35297050D01*
X69504345Y-35296500D01*
X72203548Y-35296500D01*
X72251001Y-35305939D01*
X72291228Y-35332818D01*
X72924959Y-35966550D01*
X73540707Y-36582298D01*
X73548159Y-36590487D01*
X73552214Y-36596877D01*
X73581586Y-36624459D01*
X73601223Y-36642900D01*
X73604020Y-36645611D01*
X73623529Y-36665120D01*
X73626709Y-36667587D01*
X73635571Y-36675155D01*
X73649020Y-36687785D01*
X73661732Y-36699723D01*
X73661734Y-36699724D01*
X73667418Y-36705062D01*
X73674251Y-36708818D01*
X73674252Y-36708819D01*
X73684973Y-36714713D01*
X73701234Y-36725394D01*
X73717064Y-36737673D01*
X73757155Y-36755021D01*
X73767635Y-36760155D01*
X73805908Y-36781197D01*
X73825316Y-36786180D01*
X73843719Y-36792481D01*
X73854944Y-36797339D01*
X73854946Y-36797339D01*
X73862104Y-36800437D01*
X73905258Y-36807271D01*
X73916644Y-36809629D01*
X73958981Y-36820500D01*
X73979017Y-36820500D01*
X73998415Y-36822027D01*
X74010486Y-36823939D01*
X74010487Y-36823939D01*
X74018196Y-36825160D01*
X74056276Y-36821560D01*
X74061676Y-36821050D01*
X74073345Y-36820500D01*
X74274604Y-36820500D01*
X74332925Y-36835071D01*
X74377539Y-36875360D01*
X74397962Y-36931897D01*
X74404312Y-36994060D01*
X74404313Y-36994066D01*
X74405001Y-37000797D01*
X74407130Y-37007224D01*
X74407131Y-37007225D01*
X74457446Y-37159067D01*
X74460186Y-37167334D01*
X74463977Y-37173480D01*
X74463978Y-37173482D01*
X74547402Y-37308733D01*
X74552289Y-37316655D01*
X74676345Y-37440711D01*
X74825666Y-37532814D01*
X74992203Y-37587999D01*
X75094992Y-37598500D01*
X76051289Y-37598500D01*
X76091458Y-37605187D01*
X76116669Y-37618791D01*
X76117185Y-37617920D01*
X76123898Y-37621890D01*
X76130064Y-37626673D01*
X76170154Y-37644021D01*
X76180631Y-37649154D01*
X76218908Y-37670197D01*
X76235957Y-37674574D01*
X76238305Y-37675177D01*
X76256719Y-37681481D01*
X76275104Y-37689438D01*
X76318265Y-37696273D01*
X76329664Y-37698634D01*
X76371981Y-37709500D01*
X76392017Y-37709500D01*
X76411402Y-37711025D01*
X76431196Y-37714160D01*
X76469276Y-37710560D01*
X76474676Y-37710050D01*
X76486345Y-37709500D01*
X78241500Y-37709500D01*
X78303500Y-37726113D01*
X78348887Y-37771500D01*
X78365500Y-37833500D01*
X78365500Y-41208225D01*
X78364978Y-41219280D01*
X78363327Y-41226667D01*
X78363571Y-41234453D01*
X78363571Y-41234461D01*
X78365439Y-41293873D01*
X78365500Y-41297768D01*
X78365500Y-41325350D01*
X78365988Y-41329219D01*
X78365989Y-41329225D01*
X78366004Y-41329343D01*
X78366918Y-41340966D01*
X78368045Y-41376830D01*
X78368046Y-41376837D01*
X78368291Y-41384627D01*
X78370467Y-41392119D01*
X78370468Y-41392121D01*
X78373879Y-41403862D01*
X78377825Y-41422915D01*
X78380336Y-41442792D01*
X78383206Y-41450042D01*
X78383208Y-41450048D01*
X78396414Y-41483404D01*
X78400197Y-41494451D01*
X78412382Y-41536390D01*
X78416353Y-41543105D01*
X78416354Y-41543107D01*
X78422581Y-41553637D01*
X78431136Y-41571099D01*
X78435642Y-41582480D01*
X78435643Y-41582483D01*
X78438514Y-41589732D01*
X78453917Y-41610932D01*
X78464181Y-41625060D01*
X78470593Y-41634822D01*
X78488856Y-41665702D01*
X78488859Y-41665707D01*
X78492830Y-41672420D01*
X78498345Y-41677935D01*
X78506990Y-41686580D01*
X78519626Y-41701374D01*
X78526819Y-41711275D01*
X78526823Y-41711279D01*
X78531406Y-41717587D01*
X78537415Y-41722558D01*
X78537416Y-41722559D01*
X78565058Y-41745426D01*
X78573699Y-41753289D01*
X79633181Y-42812772D01*
X79660061Y-42853000D01*
X79669500Y-42900453D01*
X79669500Y-43273526D01*
X79669500Y-43273545D01*
X79669501Y-43276676D01*
X79669820Y-43279808D01*
X79669821Y-43279809D01*
X79679137Y-43371017D01*
X79679138Y-43371025D01*
X79679826Y-43377753D01*
X79681954Y-43384175D01*
X79681955Y-43384179D01*
X79717480Y-43491387D01*
X79734092Y-43541516D01*
X79824660Y-43688350D01*
X79829771Y-43693460D01*
X79829771Y-43693461D01*
X79863629Y-43727319D01*
X79895723Y-43782906D01*
X79895723Y-43847094D01*
X79863629Y-43902681D01*
X79829770Y-43936539D01*
X79829766Y-43936543D01*
X79824660Y-43941650D01*
X79785215Y-44005599D01*
X79740111Y-44048777D01*
X79679679Y-44064500D01*
X79070019Y-44064500D01*
X77309713Y-44064500D01*
X77249281Y-44048777D01*
X77204174Y-44005597D01*
X77202262Y-44002497D01*
X77137712Y-43897844D01*
X77013656Y-43773788D01*
X77007511Y-43769998D01*
X77001843Y-43765516D01*
X77002990Y-43764064D01*
X76967157Y-43726629D01*
X76951440Y-43666189D01*
X76967174Y-43605753D01*
X77002738Y-43568619D01*
X77001529Y-43567090D01*
X77018455Y-43553705D01*
X77132205Y-43439955D01*
X77141109Y-43428694D01*
X77225567Y-43291766D01*
X77231629Y-43278767D01*
X77282375Y-43125625D01*
X77285194Y-43112458D01*
X77294680Y-43019609D01*
X77295000Y-43013332D01*
X77295000Y-42895326D01*
X77291549Y-42882450D01*
X77278674Y-42879000D01*
X74861327Y-42879000D01*
X74848451Y-42882450D01*
X74845001Y-42895326D01*
X74845001Y-43013329D01*
X74845321Y-43019611D01*
X74854805Y-43112459D01*
X74857623Y-43125622D01*
X74908370Y-43278767D01*
X74914432Y-43291766D01*
X74998890Y-43428694D01*
X75007794Y-43439955D01*
X75121544Y-43553705D01*
X75138471Y-43567090D01*
X75137263Y-43568617D01*
X75172829Y-43605762D01*
X75188559Y-43666189D01*
X75172845Y-43726622D01*
X75137010Y-43764066D01*
X75138157Y-43765516D01*
X75132486Y-43769999D01*
X75126344Y-43773788D01*
X75121242Y-43778889D01*
X75121238Y-43778893D01*
X75007393Y-43892738D01*
X75007389Y-43892742D01*
X75002288Y-43897844D01*
X74998500Y-43903984D01*
X74998501Y-43903984D01*
X74988916Y-43919524D01*
X74950002Y-43959006D01*
X74897773Y-43977587D01*
X74842666Y-43971551D01*
X74795697Y-43942106D01*
X74408286Y-43554695D01*
X74400842Y-43546514D01*
X74396786Y-43540123D01*
X74347775Y-43494098D01*
X74344978Y-43491387D01*
X74328227Y-43474636D01*
X74328226Y-43474635D01*
X74325471Y-43471880D01*
X74322290Y-43469412D01*
X74313414Y-43461830D01*
X74287269Y-43437278D01*
X74287267Y-43437276D01*
X74281582Y-43431938D01*
X74274749Y-43428182D01*
X74274743Y-43428177D01*
X74264025Y-43422285D01*
X74247766Y-43411606D01*
X74238095Y-43404104D01*
X74238092Y-43404102D01*
X74231936Y-43399327D01*
X74224779Y-43396229D01*
X74224776Y-43396228D01*
X74191849Y-43381978D01*
X74181363Y-43376841D01*
X74149932Y-43359562D01*
X74149923Y-43359558D01*
X74143092Y-43355803D01*
X74135535Y-43353862D01*
X74135531Y-43353861D01*
X74123688Y-43350820D01*
X74105284Y-43344519D01*
X74094057Y-43339660D01*
X74094050Y-43339658D01*
X74086896Y-43336562D01*
X74079192Y-43335341D01*
X74079190Y-43335341D01*
X74043759Y-43329729D01*
X74032324Y-43327361D01*
X73997571Y-43318438D01*
X73997563Y-43318437D01*
X73990019Y-43316500D01*
X73982223Y-43316500D01*
X73969983Y-43316500D01*
X73950597Y-43314974D01*
X73930804Y-43311840D01*
X73923038Y-43312574D01*
X73923035Y-43312574D01*
X73887324Y-43315950D01*
X73875655Y-43316500D01*
X73293740Y-43316500D01*
X73235420Y-43301929D01*
X73190805Y-43261641D01*
X73170382Y-43205103D01*
X73166687Y-43168939D01*
X73165999Y-43162203D01*
X73110814Y-42995666D01*
X73018711Y-42846345D01*
X72894655Y-42722289D01*
X72888505Y-42718495D01*
X72888503Y-42718494D01*
X72751482Y-42633978D01*
X72751480Y-42633977D01*
X72745334Y-42630186D01*
X72634656Y-42593511D01*
X72585225Y-42577131D01*
X72585224Y-42577130D01*
X72578797Y-42575001D01*
X72572064Y-42574313D01*
X72572059Y-42574312D01*
X72479139Y-42564819D01*
X72479122Y-42564818D01*
X72476008Y-42564500D01*
X70525992Y-42564500D01*
X70522878Y-42564818D01*
X70522860Y-42564819D01*
X70429940Y-42574312D01*
X70429933Y-42574313D01*
X70423203Y-42575001D01*
X70416777Y-42577130D01*
X70416774Y-42577131D01*
X70263521Y-42627914D01*
X70263517Y-42627915D01*
X70256666Y-42630186D01*
X70250522Y-42633975D01*
X70250517Y-42633978D01*
X70113496Y-42718494D01*
X70113490Y-42718498D01*
X70107345Y-42722289D01*
X70102238Y-42727395D01*
X70102234Y-42727399D01*
X69988399Y-42841234D01*
X69988395Y-42841238D01*
X69983289Y-42846345D01*
X69979498Y-42852490D01*
X69979494Y-42852496D01*
X69894978Y-42989517D01*
X69894975Y-42989522D01*
X69891186Y-42995666D01*
X69888915Y-43002517D01*
X69888914Y-43002521D01*
X69838131Y-43155774D01*
X69836001Y-43162203D01*
X69835313Y-43168931D01*
X69835312Y-43168939D01*
X69831618Y-43205103D01*
X69811195Y-43261641D01*
X69766580Y-43301929D01*
X69708260Y-43316500D01*
X67217431Y-43316500D01*
X67170575Y-43307306D01*
X67130667Y-43281089D01*
X67109680Y-43250548D01*
X67108744Y-43251102D01*
X67029053Y-43116351D01*
X67029052Y-43116349D01*
X67025081Y-43109635D01*
X66908865Y-42993419D01*
X66902151Y-42989448D01*
X66902148Y-42989446D01*
X66774113Y-42913727D01*
X66774111Y-42913726D01*
X66767398Y-42909756D01*
X66759905Y-42907579D01*
X66615657Y-42865670D01*
X66615650Y-42865668D01*
X66609569Y-42863902D01*
X66603258Y-42863405D01*
X66603251Y-42863404D01*
X66575128Y-42861191D01*
X66575114Y-42861190D01*
X66572694Y-42861000D01*
X66141306Y-42861000D01*
X66138886Y-42861190D01*
X66138871Y-42861191D01*
X66110748Y-42863404D01*
X66110739Y-42863405D01*
X66104431Y-42863902D01*
X66098351Y-42865668D01*
X66098342Y-42865670D01*
X65954094Y-42907579D01*
X65954091Y-42907580D01*
X65946602Y-42909756D01*
X65939891Y-42913724D01*
X65939886Y-42913727D01*
X65811851Y-42989446D01*
X65811844Y-42989450D01*
X65805135Y-42993419D01*
X65799620Y-42998933D01*
X65799616Y-42998937D01*
X65694437Y-43104116D01*
X65694433Y-43104120D01*
X65688919Y-43109635D01*
X65684950Y-43116344D01*
X65684946Y-43116351D01*
X65609227Y-43244386D01*
X65609224Y-43244391D01*
X65605256Y-43251102D01*
X65603080Y-43258591D01*
X65603079Y-43258594D01*
X65561170Y-43402842D01*
X65561168Y-43402851D01*
X65559402Y-43408931D01*
X65558905Y-43415239D01*
X65558904Y-43415248D01*
X65556691Y-43443371D01*
X65556690Y-43443386D01*
X65556500Y-43445806D01*
X65556500Y-43448251D01*
X65556500Y-44612000D01*
X65539887Y-44674000D01*
X65494500Y-44719387D01*
X65432500Y-44736000D01*
X65191306Y-44736000D01*
X65188886Y-44736190D01*
X65188871Y-44736191D01*
X65160748Y-44738404D01*
X65160739Y-44738405D01*
X65154431Y-44738902D01*
X65148345Y-44740670D01*
X65142117Y-44741808D01*
X65141897Y-44740605D01*
X65083520Y-44741516D01*
X65026686Y-44709095D01*
X64888286Y-44570695D01*
X64880842Y-44562514D01*
X64876786Y-44556123D01*
X64827775Y-44510098D01*
X64824978Y-44507387D01*
X64808227Y-44490636D01*
X64808226Y-44490635D01*
X64805471Y-44487880D01*
X64802290Y-44485412D01*
X64793414Y-44477830D01*
X64767269Y-44453278D01*
X64767267Y-44453276D01*
X64761582Y-44447938D01*
X64754749Y-44444182D01*
X64754743Y-44444177D01*
X64744025Y-44438285D01*
X64727766Y-44427606D01*
X64718095Y-44420104D01*
X64718092Y-44420102D01*
X64711936Y-44415327D01*
X64704779Y-44412229D01*
X64704776Y-44412228D01*
X64671849Y-44397978D01*
X64661363Y-44392841D01*
X64629932Y-44375562D01*
X64629923Y-44375558D01*
X64623092Y-44371803D01*
X64615535Y-44369862D01*
X64615531Y-44369861D01*
X64603688Y-44366820D01*
X64585284Y-44360519D01*
X64574057Y-44355660D01*
X64574050Y-44355658D01*
X64566896Y-44352562D01*
X64559192Y-44351341D01*
X64559190Y-44351341D01*
X64523759Y-44345729D01*
X64512324Y-44343361D01*
X64477571Y-44334438D01*
X64477563Y-44334437D01*
X64470019Y-44332500D01*
X64462223Y-44332500D01*
X64449983Y-44332500D01*
X64430597Y-44330974D01*
X64410804Y-44327840D01*
X64403038Y-44328574D01*
X64403035Y-44328574D01*
X64367324Y-44331950D01*
X64355655Y-44332500D01*
X62599609Y-44332500D01*
X62539177Y-44316777D01*
X62494070Y-44273596D01*
X62409502Y-44136488D01*
X62409500Y-44136485D01*
X62405712Y-44130344D01*
X62281656Y-44006288D01*
X62149403Y-43924714D01*
X62106223Y-43879608D01*
X62090500Y-43819176D01*
X62090500Y-42912730D01*
X62099939Y-42865277D01*
X62126819Y-42825049D01*
X62173418Y-42778450D01*
X62225212Y-42726656D01*
X62229003Y-42720509D01*
X62233484Y-42714843D01*
X62234938Y-42715992D01*
X62272346Y-42680171D01*
X62332782Y-42664440D01*
X62393220Y-42680160D01*
X62430383Y-42715735D01*
X62431910Y-42714529D01*
X62445294Y-42731455D01*
X62559044Y-42845205D01*
X62570305Y-42854109D01*
X62707233Y-42938567D01*
X62720232Y-42944629D01*
X62873374Y-42995375D01*
X62886541Y-42998194D01*
X62979390Y-43007680D01*
X62985668Y-43008000D01*
X63103674Y-43008000D01*
X63116549Y-43004549D01*
X63120000Y-42991674D01*
X63120000Y-42991673D01*
X63620000Y-42991673D01*
X63623450Y-43004548D01*
X63636326Y-43007999D01*
X63754329Y-43007999D01*
X63760611Y-43007678D01*
X63853459Y-42998194D01*
X63866622Y-42995376D01*
X64019767Y-42944629D01*
X64032766Y-42938567D01*
X64169694Y-42854109D01*
X64180955Y-42845205D01*
X64294705Y-42731455D01*
X64303609Y-42720194D01*
X64388067Y-42583266D01*
X64394129Y-42570267D01*
X64444875Y-42417125D01*
X64447694Y-42403958D01*
X64451912Y-42362674D01*
X74845000Y-42362674D01*
X74848450Y-42375549D01*
X74861326Y-42379000D01*
X75803674Y-42379000D01*
X75816549Y-42375549D01*
X75820000Y-42362674D01*
X76320000Y-42362674D01*
X76323450Y-42375549D01*
X76336326Y-42379000D01*
X77278673Y-42379000D01*
X77291548Y-42375549D01*
X77294999Y-42362674D01*
X77294999Y-42244671D01*
X77294678Y-42238388D01*
X77285194Y-42145540D01*
X77282376Y-42132377D01*
X77231629Y-41979232D01*
X77225567Y-41966233D01*
X77141109Y-41829305D01*
X77132205Y-41818044D01*
X77018455Y-41704294D01*
X77007194Y-41695390D01*
X76870266Y-41610932D01*
X76857267Y-41604870D01*
X76704125Y-41554124D01*
X76690958Y-41551305D01*
X76598109Y-41541819D01*
X76591832Y-41541500D01*
X76336326Y-41541500D01*
X76323450Y-41544950D01*
X76320000Y-41557826D01*
X76320000Y-42362674D01*
X75820000Y-42362674D01*
X75820000Y-41557827D01*
X75816549Y-41544951D01*
X75803674Y-41541501D01*
X75548171Y-41541501D01*
X75541888Y-41541821D01*
X75449040Y-41551305D01*
X75435877Y-41554123D01*
X75282732Y-41604870D01*
X75269733Y-41610932D01*
X75132805Y-41695390D01*
X75121544Y-41704294D01*
X75007794Y-41818044D01*
X74998890Y-41829305D01*
X74914432Y-41966233D01*
X74908370Y-41979232D01*
X74857624Y-42132374D01*
X74854805Y-42145541D01*
X74845319Y-42238390D01*
X74845000Y-42244668D01*
X74845000Y-42362674D01*
X64451912Y-42362674D01*
X64457180Y-42311109D01*
X64457500Y-42304832D01*
X64457500Y-42049326D01*
X64454049Y-42036450D01*
X64441174Y-42033000D01*
X63636326Y-42033000D01*
X63623450Y-42036450D01*
X63620000Y-42049326D01*
X63620000Y-42991673D01*
X63120000Y-42991673D01*
X63120000Y-41516674D01*
X63620000Y-41516674D01*
X63623450Y-41529549D01*
X63636326Y-41533000D01*
X64441173Y-41533000D01*
X64454048Y-41529549D01*
X64457499Y-41516674D01*
X64457499Y-41408776D01*
X65459307Y-41408776D01*
X65500541Y-41550705D01*
X65506689Y-41564912D01*
X65582344Y-41692838D01*
X65591835Y-41705074D01*
X65696925Y-41810164D01*
X65709161Y-41819655D01*
X65837087Y-41895310D01*
X65851294Y-41901458D01*
X65995420Y-41943331D01*
X66007826Y-41945597D01*
X66035923Y-41947808D01*
X66040803Y-41948000D01*
X66662674Y-41948000D01*
X66675549Y-41944549D01*
X66679000Y-41931674D01*
X67179000Y-41931674D01*
X67182450Y-41944549D01*
X67195326Y-41948000D01*
X67817197Y-41948000D01*
X67822076Y-41947808D01*
X67850173Y-41945597D01*
X67862579Y-41943331D01*
X68006705Y-41901458D01*
X68020912Y-41895310D01*
X68148838Y-41819655D01*
X68161074Y-41810164D01*
X68266164Y-41705074D01*
X68275655Y-41692838D01*
X68351310Y-41564912D01*
X68357458Y-41550705D01*
X68398692Y-41408776D01*
X68397286Y-41401706D01*
X68384144Y-41398000D01*
X67195326Y-41398000D01*
X67182450Y-41401450D01*
X67179000Y-41414326D01*
X67179000Y-41931674D01*
X66679000Y-41931674D01*
X66679000Y-41414326D01*
X66675549Y-41401450D01*
X66662674Y-41398000D01*
X65473856Y-41398000D01*
X65460713Y-41401706D01*
X65459307Y-41408776D01*
X64457499Y-41408776D01*
X64457499Y-41363694D01*
X70403500Y-41363694D01*
X70403690Y-41366114D01*
X70403691Y-41366128D01*
X70405904Y-41394251D01*
X70405905Y-41394258D01*
X70406402Y-41400569D01*
X70408168Y-41406650D01*
X70408170Y-41406657D01*
X70448349Y-41544950D01*
X70452256Y-41558398D01*
X70456226Y-41565111D01*
X70456227Y-41565113D01*
X70531946Y-41693148D01*
X70531948Y-41693151D01*
X70535919Y-41699865D01*
X70652135Y-41816081D01*
X70658849Y-41820052D01*
X70658851Y-41820053D01*
X70722868Y-41857912D01*
X70793602Y-41899744D01*
X70951431Y-41945598D01*
X70988306Y-41948500D01*
X72767249Y-41948500D01*
X72769694Y-41948500D01*
X72806569Y-41945598D01*
X72964398Y-41899744D01*
X73105865Y-41816081D01*
X73222081Y-41699865D01*
X73305744Y-41558398D01*
X73351598Y-41400569D01*
X73354500Y-41363694D01*
X73354500Y-40932306D01*
X73351598Y-40895431D01*
X73305744Y-40737602D01*
X73222081Y-40596135D01*
X73216562Y-40590616D01*
X73214992Y-40588592D01*
X73191956Y-40539640D01*
X73191955Y-40485538D01*
X73214991Y-40436586D01*
X73225657Y-40422835D01*
X73301310Y-40294912D01*
X73307458Y-40280705D01*
X73348692Y-40138776D01*
X73347286Y-40131706D01*
X73334144Y-40128000D01*
X70423856Y-40128000D01*
X70410713Y-40131706D01*
X70409307Y-40138776D01*
X70450541Y-40280705D01*
X70456689Y-40294912D01*
X70532345Y-40422839D01*
X70543008Y-40436586D01*
X70566043Y-40485536D01*
X70566044Y-40539635D01*
X70543012Y-40588585D01*
X70541431Y-40590622D01*
X70535919Y-40596135D01*
X70531949Y-40602847D01*
X70531948Y-40602849D01*
X70456227Y-40730886D01*
X70456224Y-40730891D01*
X70452256Y-40737602D01*
X70450080Y-40745091D01*
X70450079Y-40745094D01*
X70408170Y-40889342D01*
X70408168Y-40889351D01*
X70406402Y-40895431D01*
X70405905Y-40901739D01*
X70405904Y-40901748D01*
X70403691Y-40929871D01*
X70403690Y-40929886D01*
X70403500Y-40932306D01*
X70403500Y-41363694D01*
X64457499Y-41363694D01*
X64457499Y-41261171D01*
X64457178Y-41254888D01*
X64447694Y-41162040D01*
X64444876Y-41148877D01*
X64394129Y-40995732D01*
X64388067Y-40982733D01*
X64329156Y-40887223D01*
X65459307Y-40887223D01*
X65460713Y-40894293D01*
X65473856Y-40898000D01*
X66662674Y-40898000D01*
X66675549Y-40894549D01*
X66679000Y-40881674D01*
X67179000Y-40881674D01*
X67182450Y-40894549D01*
X67195326Y-40898000D01*
X68384144Y-40898000D01*
X68397286Y-40894293D01*
X68398692Y-40887223D01*
X68357458Y-40745294D01*
X68351310Y-40731087D01*
X68275654Y-40603159D01*
X68264673Y-40589003D01*
X68241637Y-40540051D01*
X68241637Y-40485949D01*
X68264673Y-40436997D01*
X68275654Y-40422840D01*
X68351310Y-40294912D01*
X68357458Y-40280705D01*
X68398692Y-40138776D01*
X68397286Y-40131706D01*
X68384144Y-40128000D01*
X67195326Y-40128000D01*
X67182450Y-40131450D01*
X67179000Y-40144326D01*
X67179000Y-40881674D01*
X66679000Y-40881674D01*
X66679000Y-40144326D01*
X66675549Y-40131450D01*
X66662674Y-40128000D01*
X65473856Y-40128000D01*
X65460713Y-40131706D01*
X65459307Y-40138776D01*
X65500541Y-40280705D01*
X65506689Y-40294912D01*
X65582344Y-40422838D01*
X65593329Y-40437000D01*
X65616363Y-40485950D01*
X65616363Y-40540050D01*
X65593329Y-40589000D01*
X65582344Y-40603161D01*
X65506689Y-40731087D01*
X65500541Y-40745294D01*
X65459307Y-40887223D01*
X64329156Y-40887223D01*
X64303609Y-40845805D01*
X64294705Y-40834544D01*
X64180955Y-40720794D01*
X64169694Y-40711890D01*
X64032766Y-40627432D01*
X64019767Y-40621370D01*
X63866625Y-40570624D01*
X63853458Y-40567805D01*
X63760609Y-40558319D01*
X63754332Y-40558000D01*
X63636326Y-40558000D01*
X63623450Y-40561450D01*
X63620000Y-40574326D01*
X63620000Y-41516674D01*
X63120000Y-41516674D01*
X63120000Y-40574327D01*
X63116549Y-40561451D01*
X63103674Y-40558001D01*
X62985671Y-40558001D01*
X62979388Y-40558321D01*
X62886540Y-40567805D01*
X62873377Y-40570623D01*
X62720232Y-40621370D01*
X62707233Y-40627432D01*
X62570305Y-40711890D01*
X62559044Y-40720794D01*
X62445294Y-40834544D01*
X62431910Y-40851471D01*
X62430386Y-40850266D01*
X62393212Y-40885844D01*
X62332781Y-40901559D01*
X62272353Y-40885832D01*
X62234936Y-40850008D01*
X62233484Y-40851157D01*
X62229002Y-40845488D01*
X62225212Y-40839344D01*
X62126819Y-40740951D01*
X62099939Y-40700723D01*
X62090500Y-40653270D01*
X62090500Y-40167233D01*
X62101123Y-40117018D01*
X62131171Y-40075406D01*
X62175494Y-40049527D01*
X62209334Y-40038314D01*
X62358656Y-39946212D01*
X62482712Y-39822156D01*
X62574814Y-39672834D01*
X62629999Y-39506297D01*
X62640500Y-39403509D01*
X62640499Y-38228492D01*
X62629999Y-38125703D01*
X62574814Y-37959166D01*
X62497303Y-37833500D01*
X62486502Y-37815988D01*
X62486500Y-37815985D01*
X62482712Y-37809844D01*
X62358656Y-37685788D01*
X62352515Y-37682000D01*
X62352511Y-37681997D01*
X62215480Y-37597477D01*
X62209334Y-37593686D01*
X62178685Y-37583530D01*
X62049225Y-37540631D01*
X62049224Y-37540630D01*
X62042797Y-37538501D01*
X62036064Y-37537813D01*
X62036059Y-37537812D01*
X61943140Y-37528319D01*
X61943123Y-37528318D01*
X61940009Y-37528000D01*
X61936860Y-37528000D01*
X60993141Y-37528000D01*
X60993121Y-37528000D01*
X60989992Y-37528001D01*
X60986860Y-37528320D01*
X60986858Y-37528321D01*
X60893938Y-37537812D01*
X60893928Y-37537813D01*
X60887203Y-37538501D01*
X60880781Y-37540628D01*
X60880776Y-37540630D01*
X60727521Y-37591414D01*
X60727517Y-37591415D01*
X60720666Y-37593686D01*
X60714522Y-37597475D01*
X60714519Y-37597477D01*
X60577488Y-37681997D01*
X60577480Y-37682003D01*
X60571344Y-37685788D01*
X60566242Y-37690889D01*
X60566238Y-37690893D01*
X60452393Y-37804738D01*
X60452389Y-37804742D01*
X60447288Y-37809844D01*
X60443501Y-37815982D01*
X60443495Y-37815991D01*
X60369443Y-37936049D01*
X60330530Y-37975533D01*
X60278300Y-37994114D01*
X60223194Y-37988078D01*
X60176224Y-37958633D01*
X59807286Y-37589695D01*
X59799842Y-37581514D01*
X59795786Y-37575123D01*
X59746775Y-37529098D01*
X59743978Y-37526387D01*
X59727227Y-37509636D01*
X59724471Y-37506880D01*
X59721290Y-37504412D01*
X59712414Y-37496830D01*
X59686269Y-37472278D01*
X59686267Y-37472276D01*
X59680582Y-37466938D01*
X59673749Y-37463182D01*
X59673743Y-37463177D01*
X59663025Y-37457285D01*
X59646766Y-37446606D01*
X59637095Y-37439104D01*
X59637092Y-37439102D01*
X59630936Y-37434327D01*
X59623779Y-37431229D01*
X59623776Y-37431228D01*
X59590849Y-37416978D01*
X59580363Y-37411841D01*
X59548932Y-37394562D01*
X59548923Y-37394558D01*
X59542092Y-37390803D01*
X59534535Y-37388862D01*
X59534531Y-37388861D01*
X59522688Y-37385820D01*
X59504284Y-37379519D01*
X59493057Y-37374660D01*
X59493050Y-37374658D01*
X59485896Y-37371562D01*
X59478192Y-37370341D01*
X59478190Y-37370341D01*
X59442759Y-37364729D01*
X59431324Y-37362361D01*
X59396571Y-37353438D01*
X59396563Y-37353437D01*
X59389019Y-37351500D01*
X59381223Y-37351500D01*
X59368983Y-37351500D01*
X59349597Y-37349974D01*
X59329804Y-37346840D01*
X59322038Y-37347574D01*
X59322035Y-37347574D01*
X59286324Y-37350950D01*
X59274655Y-37351500D01*
X58906499Y-37351500D01*
X58844499Y-37334887D01*
X58799112Y-37289500D01*
X58782499Y-37227500D01*
X58782499Y-36677439D01*
X58782499Y-36674128D01*
X58776091Y-36614517D01*
X58742826Y-36525329D01*
X60290001Y-36525329D01*
X60290321Y-36531611D01*
X60299805Y-36624459D01*
X60302623Y-36637622D01*
X60353370Y-36790767D01*
X60359432Y-36803766D01*
X60443890Y-36940694D01*
X60452794Y-36951955D01*
X60566544Y-37065705D01*
X60577805Y-37074609D01*
X60714733Y-37159067D01*
X60727732Y-37165129D01*
X60880874Y-37215875D01*
X60894041Y-37218694D01*
X60986890Y-37228180D01*
X60993168Y-37228500D01*
X61198674Y-37228500D01*
X61211549Y-37225049D01*
X61215000Y-37212174D01*
X61215000Y-37212173D01*
X61715000Y-37212173D01*
X61718450Y-37225048D01*
X61731326Y-37228499D01*
X61936829Y-37228499D01*
X61943111Y-37228178D01*
X62035959Y-37218694D01*
X62049122Y-37215876D01*
X62202267Y-37165129D01*
X62215266Y-37159067D01*
X62352194Y-37074609D01*
X62363455Y-37065705D01*
X62477205Y-36951955D01*
X62486109Y-36940694D01*
X62570567Y-36803766D01*
X62576629Y-36790767D01*
X62627375Y-36637625D01*
X62630194Y-36624458D01*
X62639680Y-36531609D01*
X62640000Y-36525332D01*
X62640000Y-36207326D01*
X62636549Y-36194450D01*
X62623674Y-36191000D01*
X61731326Y-36191000D01*
X61718450Y-36194450D01*
X61715000Y-36207326D01*
X61715000Y-37212173D01*
X61215000Y-37212173D01*
X61215000Y-36207326D01*
X61211549Y-36194450D01*
X61198674Y-36191000D01*
X60306327Y-36191000D01*
X60293451Y-36194450D01*
X60290001Y-36207326D01*
X60290001Y-36525329D01*
X58742826Y-36525329D01*
X58725796Y-36479669D01*
X58639546Y-36364454D01*
X58524331Y-36278204D01*
X58389483Y-36227909D01*
X58381770Y-36227079D01*
X58381767Y-36227079D01*
X58333180Y-36221855D01*
X58333169Y-36221854D01*
X58329873Y-36221500D01*
X58326550Y-36221500D01*
X57237439Y-36221500D01*
X57237420Y-36221500D01*
X57234128Y-36221501D01*
X57230850Y-36221853D01*
X57230838Y-36221854D01*
X57182231Y-36227079D01*
X57182225Y-36227080D01*
X57174517Y-36227909D01*
X57167252Y-36230618D01*
X57167246Y-36230620D01*
X57047980Y-36275104D01*
X57047978Y-36275104D01*
X57039669Y-36278204D01*
X57032572Y-36283516D01*
X57032568Y-36283519D01*
X56931550Y-36359141D01*
X56931546Y-36359144D01*
X56924454Y-36364454D01*
X56919144Y-36371546D01*
X56919141Y-36371550D01*
X56843519Y-36472568D01*
X56843516Y-36472572D01*
X56838204Y-36479669D01*
X56835104Y-36487978D01*
X56835104Y-36487980D01*
X56790620Y-36607247D01*
X56790619Y-36607250D01*
X56787909Y-36614517D01*
X56787079Y-36622227D01*
X56787079Y-36622232D01*
X56781855Y-36670819D01*
X56781854Y-36670831D01*
X56781500Y-36674127D01*
X56781500Y-36677448D01*
X56781500Y-36677449D01*
X56781500Y-39276560D01*
X56781500Y-39276578D01*
X56781501Y-39279872D01*
X56781853Y-39283150D01*
X56781854Y-39283161D01*
X56787079Y-39331768D01*
X56787080Y-39331773D01*
X56787909Y-39339483D01*
X56790619Y-39346749D01*
X56790620Y-39346753D01*
X56814063Y-39409606D01*
X56838204Y-39474331D01*
X56924454Y-39589546D01*
X57039669Y-39675796D01*
X57174517Y-39726091D01*
X57234127Y-39732500D01*
X58329872Y-39732499D01*
X58389483Y-39726091D01*
X58524331Y-39675796D01*
X58639546Y-39589546D01*
X58725796Y-39474331D01*
X58776091Y-39339483D01*
X58782500Y-39279873D01*
X58782500Y-38726500D01*
X58799113Y-38664500D01*
X58844500Y-38619113D01*
X58906500Y-38602500D01*
X58999548Y-38602500D01*
X59047001Y-38611939D01*
X59087229Y-38638819D01*
X59651707Y-39203298D01*
X59659159Y-39211487D01*
X59663214Y-39217877D01*
X59697715Y-39250276D01*
X59712223Y-39263900D01*
X59715020Y-39266611D01*
X59734529Y-39286120D01*
X59737709Y-39288587D01*
X59746571Y-39296155D01*
X59760020Y-39308785D01*
X59772732Y-39320723D01*
X59772734Y-39320724D01*
X59778418Y-39326062D01*
X59785251Y-39329818D01*
X59785252Y-39329819D01*
X59795973Y-39335713D01*
X59812234Y-39346394D01*
X59828064Y-39358673D01*
X59868155Y-39376021D01*
X59878635Y-39381155D01*
X59916908Y-39402197D01*
X59936316Y-39407180D01*
X59954719Y-39413481D01*
X59965944Y-39418339D01*
X59965946Y-39418339D01*
X59973104Y-39421437D01*
X60016258Y-39428271D01*
X60027644Y-39430629D01*
X60069981Y-39441500D01*
X60090017Y-39441500D01*
X60109415Y-39443027D01*
X60121486Y-39444939D01*
X60121487Y-39444939D01*
X60129196Y-39446160D01*
X60167276Y-39442560D01*
X60172676Y-39442050D01*
X60184345Y-39441500D01*
X60188988Y-39441500D01*
X60239203Y-39452123D01*
X60280815Y-39482171D01*
X60306694Y-39526496D01*
X60355186Y-39672834D01*
X60358977Y-39678980D01*
X60443497Y-39816011D01*
X60443500Y-39816015D01*
X60447288Y-39822156D01*
X60571344Y-39946212D01*
X60577485Y-39950000D01*
X60577488Y-39950002D01*
X60634558Y-39985202D01*
X60720666Y-40038314D01*
X60754505Y-40049527D01*
X60798829Y-40075406D01*
X60828877Y-40117018D01*
X60839500Y-40167233D01*
X60839500Y-40466929D01*
X60828877Y-40517144D01*
X60798829Y-40558756D01*
X60754504Y-40584635D01*
X60645021Y-40620914D01*
X60645017Y-40620915D01*
X60638166Y-40623186D01*
X60632022Y-40626975D01*
X60632019Y-40626977D01*
X60494988Y-40711497D01*
X60494980Y-40711503D01*
X60488844Y-40715288D01*
X60483742Y-40720389D01*
X60483738Y-40720393D01*
X60369893Y-40834238D01*
X60369889Y-40834242D01*
X60364788Y-40839344D01*
X60361003Y-40845480D01*
X60360997Y-40845488D01*
X60276477Y-40982519D01*
X60272686Y-40988666D01*
X60270415Y-40995517D01*
X60270414Y-40995521D01*
X60224481Y-41134139D01*
X60217501Y-41155203D01*
X60216813Y-41161933D01*
X60216812Y-41161940D01*
X60207319Y-41254859D01*
X60207318Y-41254877D01*
X60207000Y-41257991D01*
X60207000Y-41261138D01*
X60207000Y-41261139D01*
X60207000Y-42304859D01*
X60207000Y-42304878D01*
X60207001Y-42308008D01*
X60207320Y-42311140D01*
X60207321Y-42311141D01*
X60216812Y-42404061D01*
X60216813Y-42404069D01*
X60217501Y-42410797D01*
X60219629Y-42417219D01*
X60219630Y-42417223D01*
X60264679Y-42553171D01*
X60272686Y-42577334D01*
X60282664Y-42593511D01*
X60360997Y-42720511D01*
X60361000Y-42720515D01*
X60364788Y-42726656D01*
X60488844Y-42850712D01*
X60494985Y-42854500D01*
X60494988Y-42854502D01*
X60532352Y-42877548D01*
X60638166Y-42942814D01*
X60712123Y-42967321D01*
X60754504Y-42981365D01*
X60798829Y-43007244D01*
X60828877Y-43048856D01*
X60839500Y-43099071D01*
X60839500Y-43733815D01*
X60824928Y-43792137D01*
X60784638Y-43836751D01*
X60728099Y-43857172D01*
X60727050Y-43857280D01*
X60716939Y-43858312D01*
X60716930Y-43858313D01*
X60710203Y-43859001D01*
X60703781Y-43861128D01*
X60703776Y-43861130D01*
X60550521Y-43911914D01*
X60550517Y-43911915D01*
X60543666Y-43914186D01*
X60537522Y-43917975D01*
X60537519Y-43917977D01*
X60400488Y-44002497D01*
X60400480Y-44002503D01*
X60394344Y-44006288D01*
X60389242Y-44011389D01*
X60389238Y-44011393D01*
X60275393Y-44125238D01*
X60275389Y-44125242D01*
X60270288Y-44130344D01*
X60266503Y-44136480D01*
X60266497Y-44136488D01*
X60181930Y-44273596D01*
X60136823Y-44316777D01*
X60076391Y-44332500D01*
X59512019Y-44332500D01*
X58363404Y-44332500D01*
X58302972Y-44316777D01*
X58257865Y-44273596D01*
X58240733Y-44245820D01*
X58191712Y-44166344D01*
X58067656Y-44042288D01*
X58061515Y-44038500D01*
X58061511Y-44038497D01*
X57945804Y-43967130D01*
X57918334Y-43950186D01*
X57911118Y-43947795D01*
X57758225Y-43897131D01*
X57758224Y-43897130D01*
X57751797Y-43895001D01*
X57745064Y-43894313D01*
X57745059Y-43894312D01*
X57652140Y-43884819D01*
X57652123Y-43884818D01*
X57649009Y-43884500D01*
X57645860Y-43884500D01*
X56902141Y-43884500D01*
X56902121Y-43884500D01*
X56898992Y-43884501D01*
X56895860Y-43884820D01*
X56895858Y-43884821D01*
X56802938Y-43894312D01*
X56802928Y-43894313D01*
X56796203Y-43895001D01*
X56789781Y-43897128D01*
X56789776Y-43897130D01*
X56636521Y-43947914D01*
X56636517Y-43947915D01*
X56629666Y-43950186D01*
X56623522Y-43953975D01*
X56623519Y-43953977D01*
X56486488Y-44038497D01*
X56486480Y-44038503D01*
X56480344Y-44042288D01*
X56475242Y-44047389D01*
X56475238Y-44047393D01*
X56361393Y-44161238D01*
X56361389Y-44161242D01*
X56356288Y-44166344D01*
X56352499Y-44172486D01*
X56348016Y-44178157D01*
X56346454Y-44176921D01*
X56309427Y-44212363D01*
X56249000Y-44228083D01*
X56188573Y-44212363D01*
X56151545Y-44176921D01*
X56149984Y-44178157D01*
X56145502Y-44172488D01*
X56141712Y-44166344D01*
X56017656Y-44042288D01*
X55908402Y-43974900D01*
X55865223Y-43929794D01*
X55849500Y-43869362D01*
X55849500Y-42888928D01*
X55865223Y-42828496D01*
X55908402Y-42783389D01*
X56005156Y-42723712D01*
X56129212Y-42599656D01*
X56133003Y-42593509D01*
X56137484Y-42587843D01*
X56138938Y-42588992D01*
X56176346Y-42553171D01*
X56236782Y-42537440D01*
X56297220Y-42553160D01*
X56334383Y-42588735D01*
X56335910Y-42587529D01*
X56349294Y-42604455D01*
X56463044Y-42718205D01*
X56474305Y-42727109D01*
X56611233Y-42811567D01*
X56624232Y-42817629D01*
X56777374Y-42868375D01*
X56790541Y-42871194D01*
X56883390Y-42880680D01*
X56889668Y-42881000D01*
X57007674Y-42881000D01*
X57020549Y-42877549D01*
X57024000Y-42864674D01*
X57024000Y-42864673D01*
X57524000Y-42864673D01*
X57527450Y-42877548D01*
X57540326Y-42880999D01*
X57658329Y-42880999D01*
X57664611Y-42880678D01*
X57757459Y-42871194D01*
X57770622Y-42868376D01*
X57923767Y-42817629D01*
X57936766Y-42811567D01*
X58073694Y-42727109D01*
X58084955Y-42718205D01*
X58198705Y-42604455D01*
X58207609Y-42593194D01*
X58292067Y-42456266D01*
X58298129Y-42443267D01*
X58348875Y-42290125D01*
X58351694Y-42276958D01*
X58361180Y-42184109D01*
X58361500Y-42177832D01*
X58361500Y-41922326D01*
X58358049Y-41909450D01*
X58345174Y-41906000D01*
X57540326Y-41906000D01*
X57527450Y-41909450D01*
X57524000Y-41922326D01*
X57524000Y-42864673D01*
X57024000Y-42864673D01*
X57024000Y-41389674D01*
X57524000Y-41389674D01*
X57527450Y-41402549D01*
X57540326Y-41406000D01*
X58345173Y-41406000D01*
X58358048Y-41402549D01*
X58361499Y-41389674D01*
X58361499Y-41134171D01*
X58361178Y-41127888D01*
X58351694Y-41035040D01*
X58348876Y-41021877D01*
X58298129Y-40868732D01*
X58292067Y-40855733D01*
X58207609Y-40718805D01*
X58198705Y-40707544D01*
X58084955Y-40593794D01*
X58073694Y-40584890D01*
X57936766Y-40500432D01*
X57923767Y-40494370D01*
X57770625Y-40443624D01*
X57757458Y-40440805D01*
X57664609Y-40431319D01*
X57658332Y-40431000D01*
X57540326Y-40431000D01*
X57527450Y-40434450D01*
X57524000Y-40447326D01*
X57524000Y-41389674D01*
X57024000Y-41389674D01*
X57024000Y-40447327D01*
X57020549Y-40434451D01*
X57007674Y-40431001D01*
X56889671Y-40431001D01*
X56883388Y-40431321D01*
X56790540Y-40440805D01*
X56777377Y-40443623D01*
X56624232Y-40494370D01*
X56611233Y-40500432D01*
X56474305Y-40584890D01*
X56463044Y-40593794D01*
X56349294Y-40707544D01*
X56335910Y-40724471D01*
X56334386Y-40723266D01*
X56297212Y-40758844D01*
X56236781Y-40774559D01*
X56176353Y-40758832D01*
X56138936Y-40723008D01*
X56137484Y-40724157D01*
X56133002Y-40718488D01*
X56129212Y-40712344D01*
X56005156Y-40588288D01*
X55926403Y-40539713D01*
X55883223Y-40494607D01*
X55867500Y-40434175D01*
X55867500Y-36495466D01*
X55877512Y-36446653D01*
X55905931Y-36405722D01*
X55948168Y-36379284D01*
X55953181Y-36377414D01*
X55984331Y-36365796D01*
X56099546Y-36279546D01*
X56185796Y-36164331D01*
X56236091Y-36029483D01*
X56242500Y-35969873D01*
X56242500Y-35674674D01*
X60290000Y-35674674D01*
X60293450Y-35687549D01*
X60306326Y-35691000D01*
X61198674Y-35691000D01*
X61211549Y-35687549D01*
X61215000Y-35674674D01*
X61715000Y-35674674D01*
X61718450Y-35687549D01*
X61731326Y-35691000D01*
X62623673Y-35691000D01*
X62636548Y-35687549D01*
X62639999Y-35674674D01*
X62639999Y-35356671D01*
X62639678Y-35350388D01*
X62630194Y-35257540D01*
X62627376Y-35244377D01*
X62576629Y-35091232D01*
X62570567Y-35078233D01*
X62486109Y-34941305D01*
X62477205Y-34930044D01*
X62363455Y-34816294D01*
X62352194Y-34807390D01*
X62215266Y-34722932D01*
X62202267Y-34716870D01*
X62049125Y-34666124D01*
X62035958Y-34663305D01*
X61943109Y-34653819D01*
X61936832Y-34653500D01*
X61731326Y-34653500D01*
X61718450Y-34656950D01*
X61715000Y-34669826D01*
X61715000Y-35674674D01*
X61215000Y-35674674D01*
X61215000Y-34669827D01*
X61211549Y-34656951D01*
X61198674Y-34653501D01*
X60993171Y-34653501D01*
X60986888Y-34653821D01*
X60894040Y-34663305D01*
X60880877Y-34666123D01*
X60727732Y-34716870D01*
X60714733Y-34722932D01*
X60577805Y-34807390D01*
X60566544Y-34816294D01*
X60452794Y-34930044D01*
X60443890Y-34941305D01*
X60359432Y-35078233D01*
X60353370Y-35091232D01*
X60302624Y-35244374D01*
X60299805Y-35257541D01*
X60290319Y-35350390D01*
X60290000Y-35356668D01*
X60290000Y-35674674D01*
X56242500Y-35674674D01*
X56242499Y-33364128D01*
X56236091Y-33304517D01*
X56185796Y-33169669D01*
X56099546Y-33054454D01*
X56071528Y-33033480D01*
X55991431Y-32973519D01*
X55991430Y-32973518D01*
X55984331Y-32968204D01*
X55849483Y-32917909D01*
X55841770Y-32917079D01*
X55841767Y-32917079D01*
X55793180Y-32911855D01*
X55793169Y-32911854D01*
X55789873Y-32911500D01*
X55786550Y-32911500D01*
X54697439Y-32911500D01*
X54697420Y-32911500D01*
X54694128Y-32911501D01*
X54690850Y-32911853D01*
X54690838Y-32911854D01*
X54642231Y-32917079D01*
X54642225Y-32917080D01*
X54634517Y-32917909D01*
X54627252Y-32920618D01*
X54627246Y-32920620D01*
X54507980Y-32965104D01*
X54507978Y-32965104D01*
X54499669Y-32968204D01*
X54492572Y-32973516D01*
X54492568Y-32973519D01*
X54391550Y-33049141D01*
X54391546Y-33049144D01*
X54384454Y-33054454D01*
X54379144Y-33061546D01*
X54379141Y-33061550D01*
X54303519Y-33162568D01*
X54303516Y-33162572D01*
X54298204Y-33169669D01*
X54295104Y-33177978D01*
X54295104Y-33177980D01*
X54250620Y-33297247D01*
X54250619Y-33297250D01*
X54247909Y-33304517D01*
X54247079Y-33312227D01*
X54247079Y-33312232D01*
X54241855Y-33360819D01*
X54241854Y-33360831D01*
X54241500Y-33364127D01*
X54241500Y-33367448D01*
X54241500Y-33367449D01*
X54241500Y-35966560D01*
X54241500Y-35966578D01*
X54241501Y-35969872D01*
X54241853Y-35973150D01*
X54241854Y-35973161D01*
X54247079Y-36021768D01*
X54247080Y-36021773D01*
X54247909Y-36029483D01*
X54250619Y-36036749D01*
X54250620Y-36036753D01*
X54265445Y-36076500D01*
X54298204Y-36164331D01*
X54303518Y-36171430D01*
X54303519Y-36171431D01*
X54345798Y-36227909D01*
X54384454Y-36279546D01*
X54499669Y-36365796D01*
X54524218Y-36374952D01*
X54535832Y-36379284D01*
X54578069Y-36405722D01*
X54606488Y-36446653D01*
X54616500Y-36495466D01*
X54616500Y-40383452D01*
X54597080Y-40450078D01*
X54545923Y-40494940D01*
X54542166Y-40496186D01*
X54536021Y-40499976D01*
X54536015Y-40499979D01*
X54398988Y-40584497D01*
X54398980Y-40584503D01*
X54392844Y-40588288D01*
X54387742Y-40593389D01*
X54387738Y-40593393D01*
X54273893Y-40707238D01*
X54273889Y-40707242D01*
X54268788Y-40712344D01*
X54265003Y-40718480D01*
X54264997Y-40718488D01*
X54182974Y-40851471D01*
X54176686Y-40861666D01*
X54174415Y-40868517D01*
X54174414Y-40868521D01*
X54123631Y-41021774D01*
X54121501Y-41028203D01*
X54120813Y-41034933D01*
X54120812Y-41034940D01*
X54111319Y-41127859D01*
X54111318Y-41127877D01*
X54111000Y-41130991D01*
X54111000Y-41134138D01*
X54111000Y-41134139D01*
X54111000Y-42177859D01*
X54111000Y-42177878D01*
X52146858Y-42177878D01*
X52133858Y-38394751D01*
X52105855Y-30245771D01*
X56609600Y-30245771D01*
X56611830Y-30255061D01*
X56619977Y-30250069D01*
X57394504Y-29475542D01*
X57401168Y-29463999D01*
X57394504Y-29452457D01*
X56619977Y-28677930D01*
X56611830Y-28672938D01*
X56609600Y-28682229D01*
X56609600Y-30245771D01*
X52105855Y-30245771D01*
X52085194Y-24233358D01*
X53144300Y-24233358D01*
X53144541Y-24236071D01*
X53144542Y-24236088D01*
X53152739Y-24328279D01*
X53154494Y-24348017D01*
X53156113Y-24353677D01*
X53156114Y-24353679D01*
X53199257Y-24504458D01*
X53208254Y-24535899D01*
X53211162Y-24541466D01*
X53295825Y-24703546D01*
X53295827Y-24703549D01*
X53298734Y-24709114D01*
X53302703Y-24713982D01*
X53302704Y-24713983D01*
X53401251Y-24834841D01*
X53422230Y-24860570D01*
X53573686Y-24984066D01*
X53746901Y-25074546D01*
X53934783Y-25128306D01*
X54049442Y-25138500D01*
X55078915Y-25138500D01*
X55081658Y-25138500D01*
X55196317Y-25128306D01*
X55384199Y-25074546D01*
X55557414Y-24984066D01*
X55708870Y-24860570D01*
X55832366Y-24709114D01*
X55922846Y-24535899D01*
X55976606Y-24348017D01*
X55986800Y-24233358D01*
X55986800Y-24207958D01*
X64517150Y-24207958D01*
X64517391Y-24210671D01*
X64517392Y-24210688D01*
X64526822Y-24316749D01*
X64527344Y-24322617D01*
X64581104Y-24510499D01*
X64584012Y-24516066D01*
X64668675Y-24678146D01*
X64668677Y-24678149D01*
X64671584Y-24683714D01*
X64675553Y-24688582D01*
X64675554Y-24688583D01*
X64780723Y-24817562D01*
X64795080Y-24835170D01*
X64946536Y-24958666D01*
X65119751Y-25049146D01*
X65307633Y-25102906D01*
X65422292Y-25113100D01*
X66451765Y-25113100D01*
X66454508Y-25113100D01*
X66569167Y-25102906D01*
X66757049Y-25049146D01*
X66930264Y-24958666D01*
X67081720Y-24835170D01*
X67205216Y-24683714D01*
X67295696Y-24510499D01*
X67349456Y-24322617D01*
X67359650Y-24207958D01*
X67359650Y-23435765D01*
X74853788Y-23435765D01*
X74854282Y-23440262D01*
X74854283Y-23440267D01*
X74882917Y-23700506D01*
X74882918Y-23700513D01*
X74883414Y-23705018D01*
X74884559Y-23709398D01*
X74884561Y-23709408D01*
X74919122Y-23841604D01*
X74951928Y-23967088D01*
X74953693Y-23971242D01*
X74953696Y-23971250D01*
X75053121Y-24205215D01*
X75057870Y-24216390D01*
X75060226Y-24220251D01*
X75060229Y-24220256D01*
X75196618Y-24443737D01*
X75198982Y-24447610D01*
X75372255Y-24655820D01*
X75375630Y-24658844D01*
X75375631Y-24658845D01*
X75566986Y-24830300D01*
X75573998Y-24836582D01*
X75799910Y-24986044D01*
X76045176Y-25101020D01*
X76304569Y-25179060D01*
X76572561Y-25218500D01*
X76773369Y-25218500D01*
X76775631Y-25218500D01*
X76978156Y-25203677D01*
X77242553Y-25144780D01*
X77495558Y-25048014D01*
X77731777Y-24915441D01*
X77946177Y-24749888D01*
X78134186Y-24554881D01*
X78291799Y-24334579D01*
X78415656Y-24093675D01*
X78433260Y-24042076D01*
X78501651Y-23841604D01*
X78503118Y-23837305D01*
X78552319Y-23570933D01*
X78562212Y-23300235D01*
X78560608Y-23285658D01*
X81274132Y-23285658D01*
X81274272Y-23287725D01*
X81274273Y-23287749D01*
X81275120Y-23300235D01*
X81277048Y-23328660D01*
X81278365Y-23333959D01*
X81278366Y-23333960D01*
X81321647Y-23508000D01*
X81321648Y-23508004D01*
X81323269Y-23514520D01*
X81326253Y-23520537D01*
X81326254Y-23520539D01*
X81389269Y-23647597D01*
X81408364Y-23686097D01*
X81528353Y-23835371D01*
X81677627Y-23955360D01*
X81849204Y-24040455D01*
X82035064Y-24086676D01*
X82078066Y-24089592D01*
X82989100Y-24089592D01*
X82991198Y-24089592D01*
X83034200Y-24086676D01*
X83220060Y-24040455D01*
X83391637Y-23955360D01*
X83540911Y-23835371D01*
X83660900Y-23686097D01*
X83661242Y-23686372D01*
X83702729Y-23647597D01*
X83762292Y-23632351D01*
X83821857Y-23647591D01*
X83863356Y-23686370D01*
X83863697Y-23686097D01*
X83983686Y-23835371D01*
X84132960Y-23955360D01*
X84304537Y-24040455D01*
X84490397Y-24086676D01*
X84533399Y-24089592D01*
X85444433Y-24089592D01*
X85446531Y-24089592D01*
X85489533Y-24086676D01*
X85675393Y-24040455D01*
X85846970Y-23955360D01*
X85996244Y-23835371D01*
X86116233Y-23686097D01*
X86116575Y-23686372D01*
X86158062Y-23647597D01*
X86217625Y-23632351D01*
X86277190Y-23647591D01*
X86318689Y-23686370D01*
X86319030Y-23686097D01*
X86439019Y-23835371D01*
X86588293Y-23955360D01*
X86759870Y-24040455D01*
X86945730Y-24086676D01*
X86988732Y-24089592D01*
X87899766Y-24089592D01*
X87901864Y-24089592D01*
X87944866Y-24086676D01*
X88130726Y-24040455D01*
X88302303Y-23955360D01*
X88451577Y-23835371D01*
X88571566Y-23686097D01*
X88571907Y-23686371D01*
X88613400Y-23647593D01*
X88672965Y-23632350D01*
X88732530Y-23647593D01*
X88774022Y-23686371D01*
X88774364Y-23686097D01*
X88776282Y-23688484D01*
X88776284Y-23688486D01*
X88894353Y-23835371D01*
X89043627Y-23955360D01*
X89215204Y-24040455D01*
X89401064Y-24086676D01*
X89444066Y-24089592D01*
X90355100Y-24089592D01*
X90357198Y-24089592D01*
X90400200Y-24086676D01*
X90586060Y-24040455D01*
X90757637Y-23955360D01*
X90906911Y-23835371D01*
X91026900Y-23686097D01*
X91111995Y-23514520D01*
X91158216Y-23328660D01*
X91161132Y-23285658D01*
X91161132Y-21352526D01*
X91158216Y-21309524D01*
X91111995Y-21123664D01*
X91026900Y-20952087D01*
X90906911Y-20802813D01*
X90757637Y-20682824D01*
X90751617Y-20679838D01*
X90751615Y-20679837D01*
X90592079Y-20600714D01*
X90592077Y-20600713D01*
X90586060Y-20597729D01*
X90579544Y-20596108D01*
X90579540Y-20596107D01*
X90405500Y-20552826D01*
X90405499Y-20552825D01*
X90400200Y-20551508D01*
X90394753Y-20551138D01*
X90394749Y-20551138D01*
X90359289Y-20548733D01*
X90359265Y-20548732D01*
X90357198Y-20548592D01*
X89444066Y-20548592D01*
X89441999Y-20548732D01*
X89441974Y-20548733D01*
X89406514Y-20551138D01*
X89406509Y-20551138D01*
X89401064Y-20551508D01*
X89395766Y-20552825D01*
X89395763Y-20552826D01*
X89221723Y-20596107D01*
X89221716Y-20596109D01*
X89215204Y-20597729D01*
X89209189Y-20600712D01*
X89209184Y-20600714D01*
X89049648Y-20679837D01*
X89049642Y-20679840D01*
X89043627Y-20682824D01*
X89038393Y-20687030D01*
X89038390Y-20687033D01*
X88899587Y-20798605D01*
X88899582Y-20798609D01*
X88894353Y-20802813D01*
X88890149Y-20808042D01*
X88890145Y-20808047D01*
X88778576Y-20946846D01*
X88778572Y-20946850D01*
X88776277Y-20949706D01*
X88776276Y-20949708D01*
X88774364Y-20952087D01*
X88774023Y-20951813D01*
X88732526Y-20990592D01*
X88672965Y-21005833D01*
X88613404Y-20990592D01*
X88571906Y-20951813D01*
X88571566Y-20952087D01*
X88451577Y-20802813D01*
X88302303Y-20682824D01*
X88296283Y-20679838D01*
X88296281Y-20679837D01*
X88136745Y-20600714D01*
X88136743Y-20600713D01*
X88130726Y-20597729D01*
X88124210Y-20596108D01*
X88124206Y-20596107D01*
X87950166Y-20552826D01*
X87950165Y-20552825D01*
X87944866Y-20551508D01*
X87939419Y-20551138D01*
X87939415Y-20551138D01*
X87903955Y-20548733D01*
X87903931Y-20548732D01*
X87901864Y-20548592D01*
X86988732Y-20548592D01*
X86986665Y-20548732D01*
X86986640Y-20548733D01*
X86951180Y-20551138D01*
X86951175Y-20551138D01*
X86945730Y-20551508D01*
X86940432Y-20552825D01*
X86940429Y-20552826D01*
X86766389Y-20596107D01*
X86766382Y-20596109D01*
X86759870Y-20597729D01*
X86753855Y-20600712D01*
X86753850Y-20600714D01*
X86594314Y-20679837D01*
X86594308Y-20679840D01*
X86588293Y-20682824D01*
X86583059Y-20687030D01*
X86583056Y-20687033D01*
X86444253Y-20798605D01*
X86444248Y-20798609D01*
X86439019Y-20802813D01*
X86434815Y-20808042D01*
X86434811Y-20808047D01*
X86323239Y-20946850D01*
X86323236Y-20946853D01*
X86320942Y-20949708D01*
X86320938Y-20949712D01*
X86319030Y-20952087D01*
X86318689Y-20951813D01*
X86277186Y-20990594D01*
X86217625Y-21005832D01*
X86158065Y-20990588D01*
X86116574Y-20951812D01*
X86116233Y-20952087D01*
X86114314Y-20949699D01*
X86114311Y-20949697D01*
X85996244Y-20802813D01*
X85846970Y-20682824D01*
X85840950Y-20679838D01*
X85840948Y-20679837D01*
X85681412Y-20600714D01*
X85681410Y-20600713D01*
X85675393Y-20597729D01*
X85668877Y-20596108D01*
X85668873Y-20596107D01*
X85494833Y-20552826D01*
X85494832Y-20552825D01*
X85489533Y-20551508D01*
X85484086Y-20551138D01*
X85484082Y-20551138D01*
X85448622Y-20548733D01*
X85448598Y-20548732D01*
X85446531Y-20548592D01*
X84533399Y-20548592D01*
X84531332Y-20548732D01*
X84531307Y-20548733D01*
X84495847Y-20551138D01*
X84495842Y-20551138D01*
X84490397Y-20551508D01*
X84485099Y-20552825D01*
X84485096Y-20552826D01*
X84311056Y-20596107D01*
X84311049Y-20596109D01*
X84304537Y-20597729D01*
X84298522Y-20600712D01*
X84298517Y-20600714D01*
X84138981Y-20679837D01*
X84138975Y-20679840D01*
X84132960Y-20682824D01*
X84127726Y-20687030D01*
X84127723Y-20687033D01*
X83988920Y-20798605D01*
X83988915Y-20798609D01*
X83983686Y-20802813D01*
X83979482Y-20808042D01*
X83979478Y-20808047D01*
X83867906Y-20946850D01*
X83867903Y-20946853D01*
X83865609Y-20949708D01*
X83865605Y-20949712D01*
X83863697Y-20952087D01*
X83863356Y-20951813D01*
X83821853Y-20990594D01*
X83762292Y-21005832D01*
X83702732Y-20990588D01*
X83661241Y-20951812D01*
X83660900Y-20952087D01*
X83658981Y-20949699D01*
X83658978Y-20949697D01*
X83540911Y-20802813D01*
X83391637Y-20682824D01*
X83385617Y-20679838D01*
X83385615Y-20679837D01*
X83226079Y-20600714D01*
X83226077Y-20600713D01*
X83220060Y-20597729D01*
X83213544Y-20596108D01*
X83213540Y-20596107D01*
X83039500Y-20552826D01*
X83039499Y-20552825D01*
X83034200Y-20551508D01*
X83028753Y-20551138D01*
X83028749Y-20551138D01*
X82993289Y-20548733D01*
X82993265Y-20548732D01*
X82991198Y-20548592D01*
X82078066Y-20548592D01*
X82075999Y-20548732D01*
X82075974Y-20548733D01*
X82040514Y-20551138D01*
X82040509Y-20551138D01*
X82035064Y-20551508D01*
X82029766Y-20552825D01*
X82029763Y-20552826D01*
X81855723Y-20596107D01*
X81855716Y-20596109D01*
X81849204Y-20597729D01*
X81843189Y-20600712D01*
X81843184Y-20600714D01*
X81683648Y-20679837D01*
X81683642Y-20679840D01*
X81677627Y-20682824D01*
X81672393Y-20687030D01*
X81672390Y-20687033D01*
X81533587Y-20798605D01*
X81533582Y-20798609D01*
X81528353Y-20802813D01*
X81524149Y-20808042D01*
X81524145Y-20808047D01*
X81412573Y-20946850D01*
X81412570Y-20946853D01*
X81408364Y-20952087D01*
X81405380Y-20958102D01*
X81405377Y-20958108D01*
X81326254Y-21117644D01*
X81326252Y-21117649D01*
X81323269Y-21123664D01*
X81321649Y-21130176D01*
X81321647Y-21130183D01*
X81278366Y-21304223D01*
X81277048Y-21309524D01*
X81276678Y-21314969D01*
X81276678Y-21314974D01*
X81274273Y-21350434D01*
X81274272Y-21350459D01*
X81274132Y-21352526D01*
X81274132Y-23285658D01*
X78560608Y-23285658D01*
X78532586Y-23030982D01*
X78464072Y-22768912D01*
X78358130Y-22519610D01*
X78217018Y-22288390D01*
X78043745Y-22080180D01*
X77938759Y-21986112D01*
X77845382Y-21902446D01*
X77845378Y-21902442D01*
X77842002Y-21899418D01*
X77616090Y-21749956D01*
X77611996Y-21748036D01*
X77611991Y-21748034D01*
X77374929Y-21636904D01*
X77374925Y-21636902D01*
X77370824Y-21634980D01*
X77366477Y-21633672D01*
X77366474Y-21633671D01*
X77115772Y-21558246D01*
X77115771Y-21558245D01*
X77111431Y-21556940D01*
X77106957Y-21556281D01*
X77106950Y-21556280D01*
X76847913Y-21518158D01*
X76847907Y-21518157D01*
X76843439Y-21517500D01*
X76640369Y-21517500D01*
X76638120Y-21517664D01*
X76638109Y-21517665D01*
X76442363Y-21531992D01*
X76442359Y-21531992D01*
X76437844Y-21532323D01*
X76433426Y-21533307D01*
X76433420Y-21533308D01*
X76177877Y-21590232D01*
X76177861Y-21590236D01*
X76173447Y-21591220D01*
X76169216Y-21592838D01*
X76169210Y-21592840D01*
X75924673Y-21686367D01*
X75924663Y-21686371D01*
X75920442Y-21687986D01*
X75916494Y-21690201D01*
X75916489Y-21690204D01*
X75688176Y-21818340D01*
X75688171Y-21818343D01*
X75684223Y-21820559D01*
X75680639Y-21823325D01*
X75680635Y-21823329D01*
X75473407Y-21983343D01*
X75473394Y-21983354D01*
X75469823Y-21986112D01*
X75466685Y-21989366D01*
X75466678Y-21989373D01*
X75284958Y-22177857D01*
X75284952Y-22177864D01*
X75281814Y-22181119D01*
X75279189Y-22184787D01*
X75279179Y-22184800D01*
X75126834Y-22397740D01*
X75126830Y-22397745D01*
X75124201Y-22401421D01*
X75122132Y-22405444D01*
X75122129Y-22405450D01*
X75002416Y-22638293D01*
X75002411Y-22638304D01*
X75000344Y-22642325D01*
X74998884Y-22646602D01*
X74998879Y-22646616D01*
X74914348Y-22894395D01*
X74914344Y-22894407D01*
X74912882Y-22898695D01*
X74912057Y-22903159D01*
X74912057Y-22903161D01*
X74864504Y-23160606D01*
X74864502Y-23160619D01*
X74863681Y-23165067D01*
X74863515Y-23169593D01*
X74863515Y-23169599D01*
X74857509Y-23333960D01*
X74853788Y-23435765D01*
X67359650Y-23435765D01*
X67359650Y-21105642D01*
X67349456Y-20990983D01*
X67295696Y-20803101D01*
X67205216Y-20629886D01*
X67081720Y-20478430D01*
X67076850Y-20474459D01*
X66935133Y-20358904D01*
X66935132Y-20358903D01*
X66930264Y-20354934D01*
X66924699Y-20352027D01*
X66924696Y-20352025D01*
X66762616Y-20267362D01*
X66757049Y-20264454D01*
X66751011Y-20262726D01*
X66751008Y-20262725D01*
X66574829Y-20212314D01*
X66574827Y-20212313D01*
X66569167Y-20210694D01*
X66563302Y-20210172D01*
X66563299Y-20210172D01*
X66457238Y-20200742D01*
X66457221Y-20200741D01*
X66454508Y-20200500D01*
X65422292Y-20200500D01*
X65419579Y-20200741D01*
X65419561Y-20200742D01*
X65313500Y-20210172D01*
X65313496Y-20210172D01*
X65307633Y-20210694D01*
X65301973Y-20212313D01*
X65301970Y-20212314D01*
X65125791Y-20262725D01*
X65125784Y-20262727D01*
X65119751Y-20264454D01*
X65114186Y-20267360D01*
X65114183Y-20267362D01*
X64952103Y-20352025D01*
X64952095Y-20352030D01*
X64946536Y-20354934D01*
X64941672Y-20358899D01*
X64941666Y-20358904D01*
X64799949Y-20474459D01*
X64799944Y-20474463D01*
X64795080Y-20478430D01*
X64791113Y-20483294D01*
X64791109Y-20483299D01*
X64675554Y-20625016D01*
X64675549Y-20625022D01*
X64671584Y-20629886D01*
X64668680Y-20635445D01*
X64668675Y-20635453D01*
X64584012Y-20797533D01*
X64581104Y-20803101D01*
X64579377Y-20809134D01*
X64579375Y-20809141D01*
X64528964Y-20985320D01*
X64527344Y-20990983D01*
X64526822Y-20996846D01*
X64526822Y-20996850D01*
X64517392Y-21102911D01*
X64517391Y-21102929D01*
X64517150Y-21105642D01*
X64517150Y-24207958D01*
X55986800Y-24207958D01*
X55986800Y-21131042D01*
X55976606Y-21016383D01*
X55922846Y-20828501D01*
X55832366Y-20655286D01*
X55708870Y-20503830D01*
X55557414Y-20380334D01*
X55551849Y-20377427D01*
X55551846Y-20377425D01*
X55389766Y-20292762D01*
X55384199Y-20289854D01*
X55378161Y-20288126D01*
X55378158Y-20288125D01*
X55201979Y-20237714D01*
X55201977Y-20237713D01*
X55196317Y-20236094D01*
X55190452Y-20235572D01*
X55190449Y-20235572D01*
X55084388Y-20226142D01*
X55084371Y-20226141D01*
X55081658Y-20225900D01*
X54049442Y-20225900D01*
X54046729Y-20226141D01*
X54046711Y-20226142D01*
X53940650Y-20235572D01*
X53940646Y-20235572D01*
X53934783Y-20236094D01*
X53929123Y-20237713D01*
X53929120Y-20237714D01*
X53752941Y-20288125D01*
X53752934Y-20288127D01*
X53746901Y-20289854D01*
X53741336Y-20292760D01*
X53741333Y-20292762D01*
X53579253Y-20377425D01*
X53579245Y-20377430D01*
X53573686Y-20380334D01*
X53568822Y-20384299D01*
X53568816Y-20384304D01*
X53427099Y-20499859D01*
X53427094Y-20499863D01*
X53422230Y-20503830D01*
X53418263Y-20508694D01*
X53418259Y-20508699D01*
X53302704Y-20650416D01*
X53302699Y-20650422D01*
X53298734Y-20655286D01*
X53295830Y-20660845D01*
X53295825Y-20660853D01*
X53211162Y-20822933D01*
X53208254Y-20828501D01*
X53206527Y-20834534D01*
X53206525Y-20834541D01*
X53156114Y-21010720D01*
X53154494Y-21016383D01*
X53153972Y-21022246D01*
X53153972Y-21022250D01*
X53144542Y-21128311D01*
X53144541Y-21128329D01*
X53144300Y-21131042D01*
X53144300Y-24233358D01*
X52085194Y-24233358D01*
X52070430Y-19936926D01*
X52086900Y-19874746D01*
X52132306Y-19829184D01*
X52194429Y-19812500D01*
X92328500Y-19812500D01*
X92390500Y-19829113D01*
G37*
%TD.AperFunction*%
%TD*%
M02*
