%TF.GenerationSoftware,KiCad,Pcbnew,7.0.9*%
%TF.CreationDate,2023-11-10T13:40:12+01:00*%
%TF.ProjectId,MPX5100DP-SMD-board,4d505835-3130-4304-9450-2d534d442d62,1.1*%
%TF.SameCoordinates,Original*%
%TF.FileFunction,Drillmap*%
%TF.FilePolarity,Positive*%
%FSLAX45Y45*%
G04 Gerber Fmt 4.5, Leading zero omitted, Abs format (unit mm)*
G04 Created by KiCad (PCBNEW 7.0.9) date 2023-11-10 13:40:12*
%MOMM*%
%LPD*%
G01*
G04 APERTURE LIST*
%ADD10C,0.100000*%
%ADD11C,0.200000*%
G04 APERTURE END LIST*
D10*
X9848399Y-5676900D02*
X5809799Y-5676900D01*
X5809799Y-5384800D01*
X5809799Y-3543300D01*
X5809799Y-1981200D01*
X9848399Y-1981200D01*
X9848399Y-5676900D01*
D11*
X6065576Y-5993384D02*
X6065576Y-5793384D01*
X6065576Y-5793384D02*
X6113195Y-5793384D01*
X6113195Y-5793384D02*
X6141767Y-5802908D01*
X6141767Y-5802908D02*
X6160814Y-5821955D01*
X6160814Y-5821955D02*
X6170338Y-5841003D01*
X6170338Y-5841003D02*
X6179862Y-5879098D01*
X6179862Y-5879098D02*
X6179862Y-5907669D01*
X6179862Y-5907669D02*
X6170338Y-5945765D01*
X6170338Y-5945765D02*
X6160814Y-5964812D01*
X6160814Y-5964812D02*
X6141767Y-5983860D01*
X6141767Y-5983860D02*
X6113195Y-5993384D01*
X6113195Y-5993384D02*
X6065576Y-5993384D01*
X6265576Y-5993384D02*
X6265576Y-5860050D01*
X6265576Y-5898146D02*
X6275100Y-5879098D01*
X6275100Y-5879098D02*
X6284624Y-5869574D01*
X6284624Y-5869574D02*
X6303671Y-5860050D01*
X6303671Y-5860050D02*
X6322719Y-5860050D01*
X6389386Y-5993384D02*
X6389386Y-5860050D01*
X6389386Y-5793384D02*
X6379862Y-5802908D01*
X6379862Y-5802908D02*
X6389386Y-5812431D01*
X6389386Y-5812431D02*
X6398909Y-5802908D01*
X6398909Y-5802908D02*
X6389386Y-5793384D01*
X6389386Y-5793384D02*
X6389386Y-5812431D01*
X6513195Y-5993384D02*
X6494148Y-5983860D01*
X6494148Y-5983860D02*
X6484624Y-5964812D01*
X6484624Y-5964812D02*
X6484624Y-5793384D01*
X6617957Y-5993384D02*
X6598909Y-5983860D01*
X6598909Y-5983860D02*
X6589386Y-5964812D01*
X6589386Y-5964812D02*
X6589386Y-5793384D01*
X6846529Y-5993384D02*
X6846529Y-5793384D01*
X6846529Y-5793384D02*
X6913195Y-5936241D01*
X6913195Y-5936241D02*
X6979862Y-5793384D01*
X6979862Y-5793384D02*
X6979862Y-5993384D01*
X7160814Y-5993384D02*
X7160814Y-5888622D01*
X7160814Y-5888622D02*
X7151290Y-5869574D01*
X7151290Y-5869574D02*
X7132243Y-5860050D01*
X7132243Y-5860050D02*
X7094148Y-5860050D01*
X7094148Y-5860050D02*
X7075100Y-5869574D01*
X7160814Y-5983860D02*
X7141767Y-5993384D01*
X7141767Y-5993384D02*
X7094148Y-5993384D01*
X7094148Y-5993384D02*
X7075100Y-5983860D01*
X7075100Y-5983860D02*
X7065576Y-5964812D01*
X7065576Y-5964812D02*
X7065576Y-5945765D01*
X7065576Y-5945765D02*
X7075100Y-5926717D01*
X7075100Y-5926717D02*
X7094148Y-5917193D01*
X7094148Y-5917193D02*
X7141767Y-5917193D01*
X7141767Y-5917193D02*
X7160814Y-5907669D01*
X7256052Y-5860050D02*
X7256052Y-6060050D01*
X7256052Y-5869574D02*
X7275100Y-5860050D01*
X7275100Y-5860050D02*
X7313195Y-5860050D01*
X7313195Y-5860050D02*
X7332243Y-5869574D01*
X7332243Y-5869574D02*
X7341767Y-5879098D01*
X7341767Y-5879098D02*
X7351290Y-5898146D01*
X7351290Y-5898146D02*
X7351290Y-5955288D01*
X7351290Y-5955288D02*
X7341767Y-5974336D01*
X7341767Y-5974336D02*
X7332243Y-5983860D01*
X7332243Y-5983860D02*
X7313195Y-5993384D01*
X7313195Y-5993384D02*
X7275100Y-5993384D01*
X7275100Y-5993384D02*
X7256052Y-5983860D01*
X7437005Y-5974336D02*
X7446529Y-5983860D01*
X7446529Y-5983860D02*
X7437005Y-5993384D01*
X7437005Y-5993384D02*
X7427481Y-5983860D01*
X7427481Y-5983860D02*
X7437005Y-5974336D01*
X7437005Y-5974336D02*
X7437005Y-5993384D01*
X7437005Y-5869574D02*
X7446529Y-5879098D01*
X7446529Y-5879098D02*
X7437005Y-5888622D01*
X7437005Y-5888622D02*
X7427481Y-5879098D01*
X7427481Y-5879098D02*
X7437005Y-5869574D01*
X7437005Y-5869574D02*
X7437005Y-5888622D01*
M02*
