%TF.GenerationSoftware,KiCad,Pcbnew,7.0.9*%
%TF.CreationDate,2023-11-10T13:40:09+01:00*%
%TF.ProjectId,MPX5100DP-SMD-board,4d505835-3130-4304-9450-2d534d442d62,1.1*%
%TF.SameCoordinates,Original*%
%TF.FileFunction,Legend,Top*%
%TF.FilePolarity,Positive*%
%FSLAX46Y46*%
G04 Gerber Fmt 4.6, Leading zero omitted, Abs format (unit mm)*
G04 Created by KiCad (PCBNEW 7.0.9) date 2023-11-10 13:40:09*
%MOMM*%
%LPD*%
G01*
G04 APERTURE LIST*
%ADD10C,0.200004*%
%ADD11C,0.150000*%
%ADD12C,0.100000*%
%ADD13C,0.023367*%
%ADD14C,0.005721*%
%ADD15C,0.003665*%
%ADD16C,0.006269*%
%ADD17C,0.120000*%
%ADD18C,0.050364*%
G04 APERTURE END LIST*
D10*
X94171759Y-52678860D02*
X94171759Y-52669973D01*
X84254647Y-51910583D02*
X84236686Y-51945119D01*
X86902047Y-52409153D02*
X86915331Y-52406043D01*
X91851476Y-52929867D02*
X91839313Y-52935445D01*
X87594147Y-52970587D02*
X87604733Y-52946142D01*
X91863317Y-52434003D02*
X91874816Y-52440710D01*
X88633924Y-53843673D02*
X88675658Y-53837071D01*
X86427037Y-54133389D02*
X86463027Y-54115664D01*
X85353371Y-54261581D02*
X85394553Y-54269031D01*
X86952139Y-51616158D02*
X86927571Y-51588567D01*
X87530682Y-52276069D02*
X87499288Y-52234636D01*
X86093169Y-51775624D02*
X86114215Y-51786168D01*
X84184872Y-53314317D02*
X84200322Y-53350569D01*
X81675590Y-52003578D02*
X81686732Y-51996333D01*
X87113035Y-52917009D02*
X87101536Y-52923716D01*
X91459255Y-52650395D02*
X91461002Y-52636461D01*
X87239686Y-52734970D02*
X87236619Y-52748441D01*
X93466379Y-52789185D02*
X93463989Y-52813752D01*
X92005629Y-52650395D02*
X92006690Y-52664533D01*
X93154057Y-53413756D02*
X93137402Y-53427221D01*
X91998400Y-52609279D02*
X92001467Y-52622750D01*
X85140214Y-51867923D02*
X85158263Y-51854430D01*
X88336299Y-53329980D02*
X88328145Y-53319459D01*
X82381491Y-52647886D02*
X82394510Y-52629405D01*
X86014707Y-53620844D02*
X85992286Y-53628308D01*
X84892526Y-52161273D02*
X84903841Y-52141185D01*
X82082126Y-52342860D02*
X82076625Y-52355195D01*
X87239686Y-52622750D02*
X87242102Y-52636461D01*
X93048272Y-53487901D02*
X93029275Y-53498702D01*
X81710072Y-52485490D02*
X81698232Y-52479339D01*
X94169924Y-52588486D02*
X94167631Y-52548287D01*
X91047415Y-52725091D02*
X91051816Y-52770511D01*
X85618475Y-51689133D02*
X85643757Y-51687625D01*
X92313533Y-52308026D02*
X92287187Y-52268702D01*
X87903600Y-52912769D02*
X87894011Y-52941118D01*
X91613408Y-52427852D02*
X91625572Y-52422274D01*
X86479314Y-53244236D02*
X86463701Y-53268691D01*
X81554858Y-52220156D02*
X81555918Y-52206018D01*
X82040991Y-52411601D02*
X82032359Y-52421706D01*
X92854964Y-51146142D02*
X92813385Y-51140149D01*
X88295164Y-53261239D02*
X88290246Y-53248594D01*
X87953209Y-52805310D02*
X87939177Y-52831225D01*
X91851476Y-52427852D02*
X91863317Y-52434003D01*
X81251268Y-51858484D02*
X81239434Y-51877834D01*
X91998400Y-52748441D02*
X91994698Y-52761654D01*
X92418957Y-52678859D02*
X92417166Y-52628203D01*
X91568160Y-52901999D02*
X91557786Y-52893731D01*
X81290313Y-51803053D02*
X81276721Y-51821080D01*
X88679058Y-53397718D02*
X88667218Y-53403869D01*
X91538283Y-52481964D02*
X91547821Y-52472742D01*
X84170227Y-53277705D02*
X84184872Y-53314317D01*
X87133644Y-53468175D02*
X87151160Y-53435726D01*
X81982622Y-52465388D02*
X81971480Y-52472633D01*
X86321925Y-51931175D02*
X86338622Y-51947007D01*
X89051907Y-52679974D02*
X89036604Y-52663779D01*
X81935977Y-52491068D02*
X81923508Y-52496056D01*
X86600448Y-54037421D02*
X86633173Y-54016026D01*
X84803503Y-52970898D02*
X84797361Y-52947555D01*
X93989472Y-51922573D02*
X93971346Y-51889867D01*
X86321886Y-51176285D02*
X86283817Y-51161879D01*
X85754905Y-53670106D02*
X85729849Y-53671002D01*
X84063929Y-52678860D02*
X84063929Y-52687747D01*
X81787296Y-52509749D02*
X81773776Y-52507299D01*
X84094165Y-53011808D02*
X84102197Y-53050814D01*
X87623160Y-52895836D02*
X87630959Y-52870018D01*
X84474883Y-51595518D02*
X84449523Y-51624527D01*
X86058828Y-53604125D02*
X86036887Y-53612783D01*
X88821372Y-53124397D02*
X88822433Y-53138536D01*
X85435941Y-53634141D02*
X85413287Y-53627057D01*
X93971346Y-53462673D02*
X93989472Y-53429750D01*
X87014559Y-53652324D02*
X87036068Y-53622883D01*
X93891198Y-53588420D02*
X93912381Y-53557874D01*
X89154614Y-52826283D02*
X89143813Y-52806499D01*
X81609067Y-52401081D02*
X81601410Y-52390162D01*
X81319160Y-51768419D02*
X81304464Y-51785495D01*
X81174507Y-52024115D02*
X81167952Y-52046396D01*
X88655055Y-53409447D02*
X88642585Y-53414435D01*
X87232917Y-52596066D02*
X87236619Y-52609279D01*
X91896725Y-52901999D02*
X91885958Y-52909765D01*
X91601568Y-52923716D02*
X91590069Y-52917009D01*
X81686732Y-52472633D02*
X81675590Y-52465388D01*
X87228599Y-52583128D02*
X87232917Y-52596066D01*
X88492854Y-53425678D02*
X88479570Y-53422567D01*
X88429150Y-53403869D02*
X88417310Y-53397718D01*
X86344226Y-53415918D02*
X86327953Y-53431673D01*
X87158796Y-51922380D02*
X87141317Y-51889271D01*
X91490989Y-52811579D02*
X91484923Y-52799572D01*
X88298991Y-52503792D02*
X88271860Y-52515210D01*
X86285141Y-52641107D02*
X86284147Y-52678860D01*
X92039182Y-51745668D02*
X92555383Y-51745668D01*
X86315189Y-54181922D02*
X86353090Y-54166633D01*
X88562312Y-53430975D02*
X88548184Y-53431337D01*
X91613408Y-52929867D02*
X91601568Y-52923716D01*
X88429150Y-52901854D02*
X88441313Y-52896276D01*
X86238095Y-54209577D02*
X86276857Y-54196237D01*
X82418778Y-51877834D02*
X82394510Y-51839561D01*
X92258326Y-53126360D02*
X92273063Y-53107943D01*
X93418888Y-52346508D02*
X93425981Y-52368667D01*
X86712723Y-52583128D02*
X86717641Y-52570483D01*
X91457837Y-52678860D02*
X91458194Y-52664533D01*
X85280451Y-51114138D02*
X85240418Y-51124589D01*
X89080948Y-52713846D02*
X89066693Y-52696668D01*
X87461526Y-53165493D02*
X87479327Y-53146324D01*
X86276758Y-53476212D02*
X86258904Y-53490146D01*
X93186196Y-51976629D02*
X93201681Y-51991435D01*
X87637788Y-52843784D02*
X87643623Y-52817157D01*
X91994698Y-52761654D02*
X91990380Y-52774592D01*
X93608973Y-53884565D02*
X93638108Y-53860874D01*
X91114261Y-52982158D02*
X91134189Y-53020734D01*
X81571168Y-52138751D02*
X81576086Y-52126106D01*
X93470371Y-52653541D02*
X93470638Y-52678860D01*
X92727231Y-53599532D02*
X92703512Y-53602863D01*
X88810440Y-53235656D02*
X88806122Y-53248594D01*
X86844082Y-53845780D02*
X86871627Y-53818538D01*
X93425981Y-52368667D02*
X93432556Y-52391070D01*
X81664824Y-52457622D02*
X81654449Y-52449354D01*
X93385573Y-53104803D02*
X93376167Y-53124986D01*
X86791743Y-51457033D02*
X86762278Y-51432433D01*
X91774252Y-52954126D02*
X91760512Y-52955897D01*
X93721580Y-51567919D02*
X93694412Y-51542221D01*
X86086876Y-51104679D02*
X86046166Y-51096212D01*
X84401033Y-51684219D02*
X84377901Y-51714900D01*
X84158344Y-52125745D02*
X84145350Y-52163112D01*
X94023428Y-51989697D02*
X94006833Y-51955850D01*
X85695205Y-54293428D02*
X85739524Y-54292929D01*
X81228212Y-51897598D02*
X81217617Y-51917763D01*
X93470638Y-52678860D02*
X93470638Y-52687747D01*
X81923508Y-51972909D02*
X81935977Y-51977897D01*
X91479423Y-52787237D02*
X91474505Y-52774592D01*
X91059036Y-52815028D02*
X91068984Y-52858545D01*
X92771348Y-54222521D02*
X92813387Y-54217384D01*
X91718315Y-52400746D02*
X91732443Y-52400383D01*
X92060089Y-53290800D02*
X92080565Y-53279028D01*
X87570337Y-53017952D02*
X87582674Y-52994531D01*
X84861211Y-54078503D02*
X84895735Y-54097523D01*
X86426735Y-52045733D02*
X86443981Y-52068730D01*
X87605720Y-52413926D02*
X87584061Y-52365881D01*
X85602790Y-53666403D02*
X85578075Y-53663645D01*
X84133316Y-52200807D02*
X84122242Y-52238830D01*
X92001467Y-52734970D02*
X91998400Y-52748441D01*
X81910749Y-51968530D02*
X81923508Y-51972909D01*
X82509137Y-52330531D02*
X82511953Y-52306861D01*
X84861241Y-53128679D02*
X84851513Y-53106986D01*
X92679518Y-53605677D02*
X92655248Y-53607976D01*
X91045928Y-52678860D02*
X91047415Y-52725091D01*
X84903841Y-52141185D02*
X84915573Y-52121426D01*
X83684156Y-54234178D02*
X83684156Y-53612051D01*
X82013728Y-52440600D02*
X82003763Y-52449354D01*
X91134189Y-53020734D02*
X91156379Y-53057837D01*
X84817388Y-52333646D02*
X84825132Y-52311072D01*
X88058170Y-52665209D02*
X88038350Y-52686579D01*
X92039182Y-53301875D02*
X92060089Y-53290800D01*
X84377901Y-51714900D02*
X84355511Y-51746135D01*
X87557155Y-53040831D02*
X87570337Y-53017952D01*
X85660185Y-51064790D02*
X85616254Y-51066289D01*
X87443028Y-53183969D02*
X87461526Y-53165493D01*
X87036068Y-53622883D02*
X87056913Y-53592943D01*
X88801204Y-53044485D02*
X88806122Y-53057130D01*
X85729849Y-53671002D02*
X85704553Y-53671301D01*
X84771727Y-52545608D02*
X84774664Y-52521291D01*
X88466541Y-52886909D02*
X88479570Y-52883155D01*
X93366351Y-52219842D02*
X93376167Y-52240061D01*
X85316599Y-51763148D02*
X85338054Y-51753889D01*
X91926601Y-52875756D02*
X91917064Y-52884977D01*
X94164419Y-52508451D02*
X94160291Y-52468980D01*
X84766328Y-51341989D02*
X84734215Y-51364060D01*
X93461071Y-52838005D02*
X93457627Y-52861943D01*
X86956534Y-52956973D02*
X86942591Y-52955897D01*
X87301828Y-52068887D02*
X87255381Y-52045190D01*
X88122689Y-52606387D02*
X88100369Y-52625083D01*
X91663829Y-52409153D02*
X91677112Y-52406043D01*
X93869253Y-53618373D02*
X93891198Y-53588420D01*
X94169924Y-52760460D02*
X94171301Y-52719840D01*
X81722235Y-52491068D02*
X81710072Y-52485490D01*
X88548184Y-53431337D02*
X88534057Y-53430975D01*
X86750622Y-52845458D02*
X86742965Y-52834539D01*
X85390930Y-53619352D02*
X85368872Y-53611024D01*
X89020796Y-52648097D02*
X89004496Y-52632942D01*
X85496481Y-51705674D02*
X85520291Y-51701168D01*
X94134601Y-52314757D02*
X94125885Y-52277122D01*
X87101536Y-52434003D02*
X87113035Y-52440710D01*
X82440595Y-51917763D02*
X82418778Y-51877834D01*
X82165060Y-52841798D02*
X82184469Y-52830292D01*
X88801204Y-53261239D02*
X88795703Y-53273573D01*
X82049145Y-52067885D02*
X82056802Y-52078803D01*
X85009359Y-51207927D02*
X84972695Y-51224898D01*
X94023429Y-53362118D02*
X94039258Y-53327407D01*
X84861089Y-52223511D02*
X84871150Y-52202437D01*
X87124177Y-52447954D02*
X87134944Y-52455720D01*
X87674411Y-54234178D02*
X88362972Y-54234178D01*
X91839313Y-52935445D02*
X91826844Y-52940433D01*
X86245308Y-51148460D02*
X86206361Y-51136030D01*
X81149076Y-52138435D02*
X81146259Y-52162105D01*
X93463989Y-52554694D02*
X93466379Y-52579041D01*
X88219426Y-52541404D02*
X88194182Y-52556119D01*
X85055662Y-51942297D02*
X85071819Y-51926502D01*
X84202968Y-52015825D02*
X84187210Y-52051993D01*
X86251474Y-51872273D02*
X86269635Y-51886335D01*
X93016692Y-51179316D02*
X92976946Y-51169643D01*
X84765051Y-52669972D02*
X84765318Y-52644733D01*
X84424906Y-51654095D02*
X84401033Y-51684219D01*
X86742965Y-52523180D02*
X86750622Y-52512262D01*
X88722841Y-52937990D02*
X88732805Y-52946744D01*
X89002708Y-53674703D02*
X89032178Y-53646696D01*
X88282226Y-53222443D02*
X88279159Y-53208972D01*
X91055079Y-52564831D02*
X91051816Y-52587208D01*
X87272543Y-53304263D02*
X87295844Y-53292101D01*
X82509137Y-52138435D02*
X82501193Y-52091860D01*
X91952481Y-52845458D02*
X91944327Y-52855978D01*
X84810179Y-52356420D02*
X84817388Y-52333646D01*
X86050113Y-51755939D02*
X86071766Y-51765517D01*
X88417310Y-52908005D02*
X88429150Y-52901854D01*
X87212115Y-52811579D02*
X87205501Y-52823240D01*
X82394510Y-51839561D02*
X82367899Y-51803053D01*
X81734705Y-52496056D02*
X81722235Y-52491068D01*
X86330865Y-52931903D02*
X86344618Y-52965075D01*
X87089695Y-52929867D02*
X87077532Y-52935445D01*
X82102294Y-52262948D02*
X82100547Y-52276882D01*
X92039182Y-52055843D02*
X92039182Y-51745668D01*
X86670068Y-51362830D02*
X86638066Y-51341026D01*
X92907161Y-51805864D02*
X92928438Y-51814102D01*
X93055981Y-51189907D02*
X93016692Y-51179316D01*
X92728847Y-54226721D02*
X92771348Y-54222521D01*
X87244909Y-52693186D02*
X87243849Y-52707325D01*
X88716527Y-53827967D02*
X88756451Y-53816441D01*
X91760512Y-52401822D02*
X91774252Y-52403593D01*
X85009392Y-51992371D02*
X85024466Y-51975263D01*
X88295164Y-53044485D02*
X88300665Y-53032150D01*
X86491486Y-52141084D02*
X86505876Y-52166346D01*
X86735821Y-52823240D02*
X86729207Y-52811579D01*
X81897720Y-52504189D02*
X81884436Y-52507299D01*
X88528054Y-53848926D02*
X88534746Y-53849014D01*
X87151160Y-53435726D02*
X87168007Y-53402774D01*
X81634947Y-52037587D02*
X81644484Y-52028365D01*
X91935695Y-52491636D02*
X91944327Y-52501741D01*
X84765318Y-52644733D02*
X84766119Y-52619676D01*
X87427913Y-52159552D02*
X87388257Y-52126235D01*
X85843904Y-51697542D02*
X85867818Y-51701558D01*
X93352424Y-54048948D02*
X93386766Y-54030860D01*
X92313533Y-53049691D02*
X92325723Y-53029326D01*
X91907099Y-52463988D02*
X91917064Y-52472742D01*
X85553651Y-53660271D02*
X85529520Y-53656281D01*
X85325656Y-53592498D02*
X85304417Y-53582395D01*
X91896725Y-52455720D02*
X91907099Y-52463988D01*
X94134601Y-53034839D02*
X94142400Y-52996701D01*
X85795329Y-51691362D02*
X85819741Y-51694143D01*
X91367275Y-52089320D02*
X91331844Y-52113470D01*
X87945488Y-53486911D02*
X87957280Y-53507941D01*
X86046166Y-51096212D02*
X86005015Y-51088737D01*
X87885606Y-52970001D02*
X87878414Y-52999390D01*
X85234309Y-51805081D02*
X85254292Y-51793901D01*
X81555918Y-52262948D02*
X81554858Y-52248810D01*
X87897406Y-53375376D02*
X87905518Y-53398481D01*
X94171759Y-52669973D02*
X94171301Y-52629049D01*
X86815892Y-53872293D02*
X86844082Y-53845780D01*
X93823075Y-53676500D02*
X93846545Y-53647732D01*
X86796004Y-52463988D02*
X86806378Y-52455720D01*
X81563148Y-52164902D02*
X81566850Y-52151689D01*
X92976946Y-51169643D02*
X92936744Y-51160890D01*
X84893127Y-53191589D02*
X84882048Y-53170979D01*
X85013003Y-53361196D02*
X84997895Y-53343742D01*
X84216543Y-53386224D02*
X84233534Y-53421282D01*
X86101916Y-53585082D02*
X86080530Y-53594869D01*
X85283534Y-53571860D02*
X85263006Y-53560893D01*
X81304464Y-51785495D02*
X81290313Y-51803053D01*
X81554500Y-52234483D02*
X81554858Y-52220156D01*
X86732176Y-51408533D02*
X86701439Y-51385332D01*
X85028555Y-53378309D02*
X85013003Y-53361196D01*
X86353090Y-54166633D02*
X86390392Y-54150379D01*
X85403131Y-51088737D02*
X85361807Y-51096212D01*
X94039258Y-53327407D02*
X94054321Y-53292100D01*
X86717641Y-52570483D02*
X86723142Y-52558148D01*
X88520114Y-53429899D02*
X88506374Y-53428128D01*
X85867818Y-51701558D02*
X85891482Y-51706193D01*
X86078749Y-54253146D02*
X86119229Y-54243725D01*
X88783024Y-53008481D02*
X88789638Y-53020143D01*
X91367275Y-54234178D02*
X92554215Y-54234178D01*
X84791754Y-52924035D02*
X84786680Y-52900337D01*
X86902292Y-51561526D02*
X86876301Y-51535033D01*
X84373832Y-53650033D02*
X84396901Y-53680337D01*
X87340847Y-53265206D02*
X87362505Y-53250515D01*
X85748808Y-51064790D02*
X85704553Y-51064290D01*
X86701439Y-51385332D02*
X86670068Y-51362830D01*
X93376167Y-53124986D02*
X93366351Y-53144820D01*
X87228599Y-52774592D02*
X87223681Y-52787237D01*
X86969556Y-53709712D02*
X86992388Y-53681266D01*
X93798842Y-51648831D02*
X93773849Y-51621285D01*
X91650799Y-52944812D02*
X91638041Y-52940433D01*
X91529189Y-52866083D02*
X91520557Y-52855978D01*
X93085095Y-53464961D02*
X93066879Y-53476653D01*
X91994698Y-52596066D02*
X91998400Y-52609279D01*
X86712723Y-52774592D02*
X86708405Y-52761654D01*
X88344931Y-53340085D02*
X88336299Y-53329980D01*
X84966704Y-54133470D02*
X85003151Y-54150399D01*
X81897720Y-51964776D02*
X81910749Y-51968530D01*
X84817388Y-53017051D02*
X84810179Y-52994063D01*
X86375895Y-52330930D02*
X86359156Y-52362133D01*
X84172297Y-52088706D02*
X84158344Y-52125745D01*
X87164821Y-52875756D02*
X87155283Y-52884977D01*
X86360104Y-53399710D02*
X86344226Y-53415918D01*
X87021580Y-51702232D02*
X86999143Y-51672990D01*
X86729207Y-52546141D02*
X86735821Y-52534479D01*
X89132404Y-52787115D02*
X89120400Y-52768143D01*
X85960975Y-51723805D02*
X85983637Y-51730912D01*
X87248737Y-53315540D02*
X87272543Y-53304263D01*
X91461002Y-52721259D02*
X91459255Y-52707325D01*
X87496411Y-53126483D02*
X87512758Y-53105992D01*
X93485902Y-53972367D02*
X93517647Y-53951464D01*
X92100597Y-53266573D02*
X92120168Y-53253452D01*
X92407958Y-52803623D02*
X92411876Y-52779191D01*
X93394570Y-52281601D02*
X93403156Y-52302917D01*
X87141317Y-51889271D02*
X87123131Y-51856716D01*
X84771727Y-52803736D02*
X84769323Y-52779131D01*
X91068984Y-52499174D02*
X91063675Y-52520802D01*
X89699483Y-52930673D02*
X89199056Y-52930673D01*
X84143771Y-53203444D02*
X84156527Y-53240747D01*
X91547821Y-52884977D02*
X91538283Y-52875756D01*
X86240655Y-53503623D02*
X86222013Y-53516642D01*
X81239434Y-51877834D02*
X81228212Y-51897598D01*
X85094285Y-53442479D02*
X85077319Y-53427109D01*
X85200814Y-51136030D02*
X85161637Y-51148460D01*
X93094816Y-54155082D02*
X93133195Y-54142403D01*
X81982622Y-52003578D02*
X81993389Y-52011343D01*
X82483705Y-52444851D02*
X82490260Y-52422570D01*
X92813387Y-54217384D02*
X92854966Y-54211309D01*
X92193543Y-52163104D02*
X92157868Y-52132446D01*
X85704553Y-51064290D02*
X85660185Y-51064790D01*
X88775880Y-52997182D02*
X88783024Y-53008481D01*
X86817145Y-52909765D02*
X86806378Y-52901999D01*
X84915573Y-52121426D02*
X84927723Y-52101996D01*
X87346174Y-52095958D02*
X87301828Y-52068887D01*
X81383129Y-51705208D02*
X81366386Y-51720219D01*
X89199056Y-52930673D02*
X89191486Y-52909113D01*
X84791754Y-52425920D02*
X84797361Y-52402558D01*
X86942591Y-52401822D02*
X86956534Y-52400746D01*
X92391291Y-52875107D02*
X92397649Y-52851596D01*
X82257863Y-52778220D02*
X82275084Y-52763758D01*
X87077094Y-53562503D02*
X87096610Y-53531562D01*
X89191486Y-52909113D02*
X89183244Y-52887879D01*
X81747463Y-52500435D02*
X81734705Y-52496056D01*
X82063946Y-52090102D02*
X82070560Y-52101764D01*
X81857176Y-52511520D02*
X81843234Y-52512596D01*
X87864407Y-53090286D02*
X87862359Y-53121396D01*
X86375584Y-53383049D02*
X86360104Y-53399710D01*
X81436172Y-51663528D02*
X81418035Y-51676849D01*
X91935695Y-52866083D02*
X91926601Y-52875756D01*
X84833410Y-53062504D02*
X84825132Y-53039865D01*
X91235600Y-53159370D02*
X91265914Y-53189639D01*
X87065063Y-52940433D02*
X87052305Y-52944812D01*
X85272355Y-54243725D02*
X85312638Y-54253146D01*
X93216775Y-53355496D02*
X93201681Y-53370719D01*
X91926601Y-52481964D02*
X91935695Y-52491636D01*
X88869751Y-53768138D02*
X88905092Y-53747729D01*
X81366386Y-51720219D02*
X81350134Y-51735767D01*
X85165712Y-53499512D02*
X85147321Y-53485919D01*
X92417166Y-52628203D02*
X92411876Y-52578527D01*
X93403156Y-52302917D02*
X93411280Y-52324591D01*
X84698164Y-53972906D02*
X84729500Y-53995428D01*
X92139264Y-53239680D02*
X92157868Y-53225272D01*
X85963421Y-51082256D02*
X85921385Y-51076770D01*
X84994736Y-52009813D02*
X85009392Y-51992371D01*
X86776501Y-52875756D02*
X86767408Y-52866083D01*
X88194182Y-52556119D02*
X88169625Y-52571875D01*
X87243849Y-52650395D02*
X87244909Y-52664533D01*
X88326692Y-52493532D02*
X88298991Y-52503792D01*
X87224447Y-53325910D02*
X87248737Y-53315540D01*
X82501193Y-52091860D02*
X82490260Y-52046396D01*
X86006048Y-51738636D02*
X86028206Y-51746979D01*
X92655248Y-51749987D02*
X92679518Y-51752411D01*
X88290246Y-53057130D02*
X88295164Y-53044485D01*
X86839786Y-52434003D02*
X86851627Y-52427852D01*
X81157019Y-52091860D02*
X81152667Y-52115015D01*
X92411876Y-52779191D02*
X92414951Y-52754483D01*
X93444150Y-52931882D02*
X93438613Y-52954572D01*
X84445288Y-53739169D02*
X84470600Y-53767697D01*
X84766119Y-52729366D02*
X84765318Y-52704206D01*
X86533044Y-54078010D02*
X86567072Y-54058082D01*
X81581587Y-52355195D02*
X81576086Y-52342860D01*
X86758776Y-52501741D02*
X86767408Y-52491636D01*
X84955251Y-53289310D02*
X84941930Y-53270471D01*
X87242102Y-52721259D02*
X87239686Y-52734970D01*
X94081846Y-52130285D02*
X94068542Y-52094507D01*
X85223021Y-53537653D02*
X85203562Y-53525378D01*
X92376240Y-52436621D02*
X92358182Y-52392111D01*
X87295844Y-53292101D02*
X87318619Y-53279075D01*
X87101536Y-52923716D02*
X87089695Y-52929867D01*
X81829106Y-51956007D02*
X81843234Y-51956369D01*
X88589994Y-53428128D02*
X88576254Y-53429899D01*
X87115460Y-53500120D02*
X87133644Y-53468175D01*
X84941930Y-53270471D02*
X84929057Y-53251281D01*
X88616798Y-53422567D02*
X88603514Y-53425678D01*
X87512758Y-53105992D02*
X87528344Y-53084872D01*
X91474505Y-52583128D02*
X91479423Y-52570483D01*
X92642459Y-54232316D02*
X92685885Y-54229985D01*
X84766119Y-52619676D02*
X84767454Y-52594802D01*
X86283817Y-51161879D02*
X86245308Y-51148460D01*
X87914343Y-52884983D02*
X87903600Y-52912769D01*
X92896083Y-51153056D02*
X92854964Y-51146142D01*
X87065063Y-52417286D02*
X87077532Y-52422274D01*
X81971480Y-51996333D02*
X81982622Y-52003578D01*
X88690558Y-53391011D02*
X88679058Y-53397718D01*
X81617221Y-52411601D02*
X81609067Y-52401081D01*
X84583501Y-51485452D02*
X84555338Y-51511946D01*
X88506374Y-53428128D02*
X88492854Y-53425678D01*
X81698232Y-52479339D02*
X81686732Y-52472633D01*
X87124177Y-52909765D02*
X87113035Y-52917009D01*
X81654449Y-52019611D02*
X81664824Y-52011343D01*
X86851627Y-52929867D02*
X86839786Y-52923716D01*
X86871627Y-53818538D02*
X86897097Y-53792073D01*
X87648616Y-52568613D02*
X87638161Y-52515460D01*
X89107814Y-52749597D02*
X89094659Y-52731494D01*
X81142592Y-52234483D02*
X81144231Y-52282954D01*
X82056802Y-52078803D02*
X82063946Y-52090102D01*
X82070560Y-52367202D02*
X82063946Y-52378863D01*
X93120356Y-51921653D02*
X93137402Y-51934759D01*
X85835984Y-51068786D02*
X85792618Y-51066289D01*
X91985462Y-52570483D02*
X91990380Y-52583128D01*
X92969944Y-53528420D02*
X92949386Y-53537428D01*
X84075988Y-52473882D02*
X84071648Y-52514213D01*
X81814979Y-51956369D02*
X81829106Y-51956007D01*
X88629827Y-53418814D02*
X88616798Y-53422567D01*
X81617221Y-52057364D02*
X81625853Y-52047259D01*
X85983637Y-51730912D02*
X86006048Y-51738636D01*
X84953275Y-52064129D02*
X84966678Y-52045692D01*
X93773849Y-51621285D02*
X93748095Y-51594314D01*
X88655055Y-52896276D02*
X88667218Y-52901854D01*
X82032359Y-52421706D02*
X82023266Y-52431379D01*
X93517647Y-51402884D02*
X93485901Y-51382132D01*
X86232950Y-51858652D02*
X86251474Y-51872273D01*
X93932800Y-53526735D02*
X93952455Y-53495001D01*
X84102197Y-53050814D02*
X84111173Y-53089482D01*
X87123131Y-51856716D02*
X87104237Y-51824714D01*
X92242989Y-53144252D02*
X92258326Y-53126360D01*
X93666588Y-53836491D02*
X93694413Y-53811417D01*
X85242835Y-53549491D02*
X85223021Y-53537653D01*
X93952455Y-51857732D02*
X93932799Y-51826170D01*
X82095064Y-52304064D02*
X82091362Y-52317277D01*
X88751437Y-52965638D02*
X88760069Y-52975743D01*
X82103712Y-52234483D02*
X82103354Y-52248810D01*
X84983234Y-53325944D02*
X84969019Y-53307801D01*
X88712466Y-53376001D02*
X88701700Y-53383767D01*
X88742343Y-53349757D02*
X88732805Y-53358979D01*
X82087044Y-52330215D02*
X82082126Y-52342860D01*
X91990380Y-52774592D02*
X91985462Y-52787237D01*
X88822433Y-53167188D02*
X88821372Y-53181327D01*
X85529520Y-53656281D02*
X85505683Y-53651674D01*
X81239434Y-52591132D02*
X81263702Y-52629405D01*
X89004497Y-52632942D02*
X89291664Y-51921938D01*
X84803503Y-52379391D02*
X84810179Y-52356420D01*
X88290246Y-53248594D02*
X88285928Y-53235656D01*
X92819367Y-51778146D02*
X92841720Y-51784288D01*
X81773776Y-52507299D02*
X81760492Y-52504189D01*
X82076625Y-52113771D02*
X82082126Y-52126106D01*
X81884436Y-51961666D02*
X81897720Y-51964776D01*
X87198357Y-52523180D02*
X87205501Y-52534479D01*
X85921385Y-51076770D02*
X85878906Y-51072280D01*
X91474505Y-52774592D02*
X91470186Y-52761654D01*
X88589994Y-52877595D02*
X88603514Y-52880045D01*
X92819367Y-53580999D02*
X92796742Y-53586417D01*
X94164419Y-52840627D02*
X94167631Y-52800722D01*
X81884436Y-52507299D02*
X81870916Y-52509749D01*
X87173914Y-52491636D02*
X87182546Y-52501741D01*
X84102976Y-52315862D02*
X84094786Y-52354872D01*
X88789638Y-53285580D02*
X88783024Y-53297242D01*
X91046302Y-52655649D02*
X91045928Y-52678860D01*
X87175569Y-51956043D02*
X87158796Y-51922380D01*
X93281800Y-54082996D02*
X93317435Y-54066327D01*
X85529702Y-51072280D02*
X85487078Y-51076770D01*
X86897097Y-53792073D02*
X86921909Y-53765114D01*
X86390190Y-52001376D02*
X86408801Y-52023283D01*
X86269635Y-51886335D02*
X86287430Y-51900840D01*
X91568160Y-52455720D02*
X91578927Y-52447954D01*
X87872971Y-53279452D02*
X87877845Y-53303927D01*
X85954741Y-54275494D02*
X85996505Y-54269031D01*
X84200322Y-53350569D02*
X84216543Y-53386224D01*
X85359803Y-51745221D02*
X85381847Y-51737145D01*
X91907099Y-52893731D02*
X91896725Y-52901999D01*
X85232525Y-54233323D02*
X85272355Y-54243725D01*
X86572174Y-51299511D02*
X86538287Y-51279799D01*
X85312638Y-54253146D02*
X85353371Y-54261581D01*
X93469572Y-52739101D02*
X93468241Y-52764301D01*
X91059036Y-52542692D02*
X91055079Y-52564831D01*
X86699220Y-52721259D02*
X86697473Y-52707325D01*
X84767454Y-52754341D02*
X84766119Y-52729366D01*
X84969019Y-53307801D02*
X84955251Y-53289310D01*
X91944327Y-52501741D02*
X91952481Y-52512262D01*
X86327953Y-53431673D02*
X86311283Y-53446975D01*
X91973895Y-52811579D02*
X91967282Y-52823240D01*
X88817209Y-53096752D02*
X88819625Y-53110463D01*
X93085095Y-51896719D02*
X93102921Y-51908973D01*
X81609067Y-52067885D02*
X81617221Y-52057364D01*
X87084636Y-51793266D02*
X87064326Y-51762369D01*
X92990111Y-51841867D02*
X93009888Y-51851981D01*
X87969759Y-53528508D02*
X87674411Y-54234178D01*
X88833144Y-53786446D02*
X88869751Y-53768138D01*
X84068272Y-52554877D02*
X84065860Y-52595872D01*
X91466485Y-52748441D02*
X91463418Y-52734970D01*
X86828287Y-52917009D02*
X86817145Y-52909765D01*
X86415278Y-53088255D02*
X86436598Y-53116415D01*
X86928851Y-52954126D02*
X86915331Y-52951676D01*
X82440595Y-52551203D02*
X82450550Y-52530652D01*
X87362505Y-53250515D02*
X87383574Y-53235025D01*
X84842236Y-53084928D02*
X84833410Y-53062504D01*
X86776501Y-52481964D02*
X86786039Y-52472742D01*
X84980498Y-52027586D02*
X84994736Y-52009813D01*
X93317434Y-51288934D02*
X93281799Y-51272404D01*
X82394510Y-52629405D02*
X82406944Y-52610482D01*
X82367899Y-51803053D02*
X82339052Y-51768419D01*
X92703512Y-51755370D02*
X92727231Y-51758863D01*
X84420720Y-53710049D02*
X84445288Y-53739169D01*
X87155283Y-52472742D02*
X87164821Y-52481964D01*
X85650943Y-54292929D02*
X85695205Y-54293428D01*
X81971480Y-52472633D02*
X81959980Y-52479339D01*
X93517647Y-53951464D02*
X93548742Y-53929861D01*
X81948140Y-51983475D02*
X81959980Y-51989626D01*
X84904655Y-53211841D02*
X84893127Y-53191589D01*
X81910749Y-52500435D02*
X81897720Y-52504189D01*
X82076625Y-52355195D02*
X82070560Y-52367202D01*
X92227070Y-52196116D02*
X92193543Y-52163104D01*
X86851627Y-52427852D02*
X86863790Y-52422274D01*
X93721581Y-53785654D02*
X93748096Y-53759252D01*
X86354950Y-51963283D02*
X86370910Y-51980003D01*
X91885958Y-52447954D02*
X91896725Y-52455720D01*
X81948140Y-52485490D02*
X81935977Y-52491068D01*
X84292779Y-51843154D02*
X84273344Y-51876595D01*
X92727231Y-51758863D02*
X92750675Y-51762888D01*
X85193150Y-54221939D02*
X85232525Y-54233323D01*
X84121094Y-53127811D02*
X84131960Y-53165798D01*
X91704373Y-52401822D02*
X91718315Y-52400746D01*
X93579184Y-53907561D02*
X93608973Y-53884565D01*
X93231471Y-53339877D02*
X93216775Y-53355496D01*
X87404031Y-53218756D02*
X87423857Y-53201731D01*
X81207662Y-51938314D02*
X81198359Y-51959239D01*
X86762278Y-51432433D02*
X86732176Y-51408533D01*
X87218180Y-52799572D02*
X87212115Y-52811579D01*
X91801056Y-52409153D02*
X91814086Y-52412907D01*
X84997895Y-53343742D02*
X84983234Y-53325944D01*
X86750622Y-52512262D02*
X86758776Y-52501741D01*
X81319160Y-52700547D02*
X81350134Y-52733199D01*
X82100547Y-52192084D02*
X82102294Y-52206018D01*
X92391291Y-52482611D02*
X92376240Y-52436621D01*
X87182546Y-52855978D02*
X87173914Y-52866083D01*
X81870916Y-52509749D02*
X81857176Y-52511520D01*
X86889017Y-52412907D02*
X86902047Y-52409153D01*
X84555338Y-51511946D02*
X84527838Y-51539182D01*
X93638108Y-53860874D02*
X93666588Y-53836491D01*
X92773845Y-51767445D02*
X92796742Y-51772531D01*
X91207178Y-52230470D02*
X91180740Y-52264345D01*
X93317435Y-54066327D02*
X93352424Y-54048948D01*
X87052305Y-52944812D02*
X87039275Y-52948566D01*
X86998731Y-52401822D02*
X87012471Y-52403593D01*
X82087044Y-52138751D02*
X82091362Y-52151689D01*
X91114261Y-52375562D02*
X91105175Y-52395372D01*
X93356126Y-52199992D02*
X93366351Y-52219842D01*
X82023266Y-52037587D02*
X82032359Y-52047259D01*
X92750675Y-53595682D02*
X92727231Y-53599532D01*
X82013728Y-52028365D02*
X82023266Y-52037587D01*
X85129287Y-53471883D02*
X85111608Y-53457404D01*
X91863317Y-52923716D02*
X91851476Y-52929867D01*
X91458194Y-52664533D02*
X91459255Y-52650395D01*
X86376922Y-53028670D02*
X86395369Y-53058990D01*
X88591406Y-53847694D02*
X88633924Y-53843673D01*
X82100547Y-52276882D02*
X82098131Y-52290593D01*
X93311144Y-52124333D02*
X93323001Y-52142682D01*
X91051816Y-52587208D02*
X91049257Y-52609812D01*
X88285928Y-53070068D02*
X88290246Y-53057130D01*
X85394553Y-54269031D02*
X85436182Y-54275494D01*
X86942591Y-52955897D02*
X86928851Y-52954126D01*
X91180740Y-52264345D02*
X91156379Y-52299882D01*
X87012471Y-52954126D02*
X86998731Y-52955897D01*
X81601410Y-52078803D02*
X81609067Y-52067885D01*
X85361807Y-51096212D02*
X85320913Y-51104679D01*
X92403210Y-52529954D02*
X92391291Y-52482611D01*
X86175204Y-51820431D02*
X86194814Y-51832731D01*
X92003882Y-52636461D02*
X92005629Y-52650395D01*
X86638066Y-51341026D02*
X86605434Y-51319920D01*
X84895735Y-54097523D02*
X84930899Y-54115845D01*
X85404185Y-51729662D02*
X85426817Y-51722772D01*
X82450550Y-52530652D02*
X82459853Y-52509727D01*
X93170322Y-53399850D02*
X93154057Y-53413756D01*
X84075740Y-52892775D02*
X84080937Y-52932787D01*
X84851445Y-52244912D02*
X84861089Y-52223511D01*
X86498362Y-54097204D02*
X86533044Y-54078010D01*
X86767408Y-52866083D02*
X86758776Y-52855978D01*
X84794080Y-54038366D02*
X84827326Y-54058784D01*
X91917064Y-52472742D02*
X91926601Y-52481964D01*
X93694412Y-51542221D02*
X93666587Y-51517231D01*
X91944327Y-52855978D02*
X91935695Y-52866083D01*
X91973895Y-52546141D02*
X91979961Y-52558148D01*
X93432556Y-52976952D02*
X93425981Y-52999024D01*
X82240177Y-51676849D02*
X82203467Y-51650799D01*
X88412927Y-52470003D02*
X88383689Y-52476608D01*
X81760492Y-51964776D02*
X81773776Y-51961666D01*
X84087079Y-52972465D02*
X84094165Y-53011808D01*
X84081291Y-52433881D02*
X84075988Y-52473882D01*
X93449165Y-52908881D02*
X93444150Y-52931882D01*
X84641811Y-51434683D02*
X84612326Y-51459698D01*
X85122888Y-51161879D02*
X85084565Y-51176285D01*
X88441313Y-53409447D02*
X88429150Y-53403869D01*
X93216775Y-52006666D02*
X93231471Y-52022305D01*
X84734215Y-51364060D02*
X84702757Y-51386866D01*
X92006690Y-52664533D02*
X92007047Y-52678860D01*
X93016693Y-54177600D02*
X93055982Y-54166814D01*
X92227070Y-53161601D02*
X92242989Y-53144252D01*
X86338622Y-51947007D02*
X86354950Y-51963283D01*
X91746570Y-52956973D02*
X91732443Y-52957335D01*
X86036887Y-53612783D02*
X86014707Y-53620844D01*
X82490260Y-52046396D02*
X82476444Y-52002153D01*
X85044454Y-53395025D02*
X85028555Y-53378309D01*
X81870916Y-51959216D02*
X81884436Y-51961666D01*
X88534746Y-53849014D02*
X88548185Y-53849051D01*
X86183549Y-53541301D02*
X86163728Y-53552940D01*
X92580768Y-51745939D02*
X92605874Y-51746750D01*
X84355511Y-51746135D02*
X84333861Y-51777923D01*
X82476444Y-52466813D02*
X82483705Y-52444851D01*
X85254292Y-51793901D02*
X85274667Y-51783185D01*
X93245764Y-52038339D02*
X93259651Y-52054763D01*
X81157019Y-52377106D02*
X81167952Y-52422570D01*
X87039275Y-52948566D02*
X87025991Y-52951676D01*
X87205501Y-52534479D02*
X87212115Y-52546141D01*
X87383574Y-53235025D02*
X87404031Y-53218756D01*
X91826844Y-52417286D02*
X91839313Y-52422274D01*
X91663829Y-52948566D02*
X91650799Y-52944812D01*
X84871419Y-53150009D02*
X84861241Y-53128679D01*
X84329954Y-53587646D02*
X84351516Y-53619136D01*
X86294218Y-53461821D02*
X86276758Y-53476212D01*
X93846545Y-53647732D02*
X93869253Y-53618373D01*
X87255381Y-52045190D02*
X87206997Y-52025033D01*
X91265914Y-52168080D02*
X91235600Y-52198350D01*
X92005629Y-52707325D02*
X92003882Y-52721259D01*
X82515209Y-52258823D02*
X82515621Y-52234483D01*
X91068984Y-52858545D02*
X91081565Y-52900969D01*
X88701700Y-52921957D02*
X88712466Y-52929722D01*
X91207178Y-53127250D02*
X91235600Y-53159370D01*
X86459276Y-53143418D02*
X86483263Y-53169211D01*
X92367579Y-52943544D02*
X92376240Y-52921096D01*
X85147321Y-53485919D02*
X85129287Y-53471883D01*
X92210583Y-53178394D02*
X92227070Y-53161601D01*
X85295435Y-51772934D02*
X85316599Y-51763148D01*
X93334451Y-53202229D02*
X93323001Y-53220665D01*
X84145350Y-52163112D02*
X84133316Y-52200807D01*
X84449523Y-51624527D02*
X84424906Y-51654095D01*
X91265914Y-53189639D02*
X91298026Y-53217964D01*
X94006833Y-53396232D02*
X94023429Y-53362118D01*
X82291826Y-52748747D02*
X82308078Y-52733199D01*
X86394536Y-53361233D02*
X86375584Y-53383049D01*
X85040241Y-54166633D02*
X85077775Y-54181922D01*
X94167631Y-52548287D02*
X94164419Y-52508451D01*
X84966678Y-52045692D02*
X84980498Y-52027586D01*
X88732805Y-53358979D02*
X88722841Y-53367733D01*
X81644484Y-52440600D02*
X81634947Y-52431379D01*
X92885617Y-53561583D02*
X92863803Y-53568584D01*
X85745761Y-51687654D02*
X85770669Y-51689199D01*
X81923508Y-52496056D02*
X81910749Y-52500435D01*
X92403210Y-52827763D02*
X92407958Y-52803623D01*
X92411876Y-52578527D02*
X92403210Y-52529954D01*
X87077532Y-52422274D02*
X87089695Y-52427852D01*
X91134189Y-52336986D02*
X91114261Y-52375562D01*
X85426817Y-51722772D02*
X85449744Y-51716477D01*
X88768223Y-52986264D02*
X88775880Y-52997182D01*
X87145318Y-52463988D02*
X87155283Y-52472742D01*
X88819625Y-53110463D02*
X88821372Y-53124397D01*
X84071648Y-52514213D02*
X84068272Y-52554877D01*
X88548184Y-52874386D02*
X88562312Y-52874748D01*
X88905092Y-53747729D02*
X88939085Y-53725300D01*
X85478254Y-54280966D02*
X85520769Y-54285448D01*
X94068542Y-53256379D02*
X94081846Y-53220317D01*
X88300665Y-53032150D02*
X88306730Y-53020143D01*
X86696672Y-53971041D02*
X86727448Y-53947450D01*
X86915331Y-52951676D02*
X86902047Y-52948566D01*
X89940494Y-53552800D02*
X90220650Y-54234178D01*
X87182546Y-52501741D02*
X87190700Y-52512262D01*
X81189724Y-51980523D02*
X81181769Y-52002153D01*
X92418506Y-52704301D02*
X92418957Y-52678859D01*
X86370910Y-51980003D02*
X86390190Y-52001376D01*
X93286210Y-52088778D02*
X93298880Y-52106364D01*
X84702757Y-51386866D02*
X84671955Y-51410406D01*
X93548741Y-51424342D02*
X93517647Y-51402884D01*
X93376167Y-52240061D02*
X93385573Y-52260649D01*
X86127145Y-51114138D02*
X86086876Y-51104679D01*
X85039878Y-51958551D02*
X85055662Y-51942297D01*
X93748096Y-53759252D02*
X93773850Y-53732259D01*
X91985462Y-52787237D02*
X91979961Y-52799572D01*
X86434862Y-52243473D02*
X86413799Y-52271547D01*
X93048272Y-51873494D02*
X93066879Y-51884893D01*
X85084565Y-51176285D02*
X85046667Y-51191679D01*
X86876259Y-52417286D02*
X86889017Y-52412907D01*
X86395369Y-53058990D02*
X86415278Y-53088255D01*
X86970661Y-52400383D02*
X86984788Y-52400746D01*
X91331844Y-53244249D02*
X91367275Y-53268399D01*
X82203467Y-52818167D02*
X82222041Y-52805438D01*
X91578927Y-52447954D02*
X91590069Y-52440710D01*
X93323001Y-53220665D02*
X93311144Y-53238751D01*
X92969944Y-51832182D02*
X92990111Y-51841867D01*
X88001414Y-52731785D02*
X87984357Y-52755561D01*
X84550994Y-53849734D02*
X84579163Y-53875780D01*
X85996505Y-54269031D02*
X86037841Y-54261581D01*
X86166973Y-51124589D02*
X86127145Y-51114138D01*
X86723142Y-52558148D02*
X86729207Y-52546141D01*
X84500988Y-51567069D02*
X84474883Y-51595518D01*
X87926212Y-52857792D02*
X87914343Y-52884983D01*
X94039258Y-52024115D02*
X94023428Y-51989697D01*
X92397649Y-52851596D02*
X92403210Y-52827763D01*
X86480952Y-52190819D02*
X86457263Y-52216546D01*
X88383689Y-52476608D02*
X88354935Y-52484461D01*
X86159280Y-54233323D02*
X86198902Y-54221939D01*
X86697473Y-52650395D02*
X86699220Y-52636461D01*
X81418035Y-52792117D02*
X81454746Y-52818167D01*
X86318778Y-52897883D02*
X86330865Y-52931903D01*
X87113035Y-52440710D02*
X87124177Y-52447954D01*
X89036604Y-52663779D02*
X89020796Y-52648097D01*
X86946062Y-53737661D02*
X86969556Y-53709712D01*
X86889017Y-52944812D02*
X86876259Y-52940433D01*
X88362972Y-54234178D02*
X88521308Y-53848755D01*
X88441313Y-52896276D02*
X88453783Y-52891288D01*
X87190700Y-52512262D02*
X87198357Y-52523180D01*
X82490260Y-52422570D02*
X82496094Y-52399984D01*
X82511953Y-52306861D02*
X82513982Y-52282954D01*
X91826844Y-52940433D02*
X91814086Y-52944812D01*
X88394668Y-53383767D02*
X88383901Y-53376001D01*
X93298880Y-52106364D02*
X93311144Y-52124333D01*
X85077319Y-53427109D02*
X85060708Y-53411291D01*
X88279159Y-53096752D02*
X88282226Y-53083281D01*
X86258904Y-53490146D02*
X86240655Y-53503623D01*
X86992388Y-53681266D02*
X87014559Y-53652324D01*
X85891482Y-51706193D02*
X85914897Y-51711446D01*
X85779721Y-53668614D02*
X85754905Y-53670106D01*
X92854966Y-54211309D02*
X92896085Y-54204294D01*
X82468488Y-52488443D02*
X82476444Y-52466813D01*
X86288132Y-52754363D02*
X86293036Y-52791256D01*
X84767454Y-52594802D02*
X84769323Y-52570112D01*
X86567072Y-54058082D02*
X86600448Y-54037421D01*
X81959980Y-51989626D02*
X81971480Y-51996333D01*
X86863790Y-52422274D02*
X86876259Y-52417286D01*
X89032178Y-53646696D02*
X89059978Y-53616989D01*
X88822433Y-53138536D02*
X88822790Y-53152862D01*
X86308153Y-52495798D02*
X86299648Y-52531165D01*
X91917064Y-52884977D02*
X91907099Y-52893731D01*
X92006690Y-52693186D02*
X92005629Y-52707325D01*
X88354935Y-52484461D02*
X88326692Y-52493532D01*
X81594266Y-52378863D02*
X81587652Y-52367202D01*
X87243849Y-52707325D02*
X87242102Y-52721259D01*
X89066693Y-52696668D02*
X89051907Y-52679974D01*
X91638041Y-52940433D02*
X91625572Y-52935445D01*
X86311283Y-53446975D02*
X86294218Y-53461821D01*
X87199693Y-53335352D02*
X87224447Y-53325910D01*
X92642458Y-51125388D02*
X92598568Y-51124003D01*
X82339052Y-51768419D02*
X82308078Y-51735767D01*
X86143515Y-53564117D02*
X86122911Y-53574831D01*
X84233534Y-53421282D02*
X84251292Y-53455745D01*
X91520557Y-52501741D02*
X91529189Y-52491636D01*
X81418035Y-51676849D02*
X81400350Y-51690746D01*
X91504746Y-52523180D02*
X91512404Y-52512262D01*
X93468241Y-52764301D02*
X93466379Y-52789185D01*
X93385573Y-52260649D02*
X93394570Y-52281601D01*
X81654449Y-52449354D02*
X81644484Y-52440600D01*
X91538283Y-52875756D02*
X91529189Y-52866083D01*
X91801056Y-52948566D02*
X91787773Y-52951676D01*
X91690633Y-52403593D02*
X91704373Y-52401822D01*
X86037841Y-54261581D02*
X86078749Y-54253146D01*
X93438613Y-52413716D02*
X93444150Y-52436605D01*
X92120168Y-53253452D02*
X92139264Y-53239680D01*
X87865787Y-53229611D02*
X87868946Y-53254675D01*
X88363562Y-53358979D02*
X88354025Y-53349757D01*
X81566850Y-52151689D02*
X81571168Y-52138751D01*
X86080530Y-53594869D02*
X86058828Y-53604125D01*
X86757576Y-53923129D02*
X86787057Y-53898076D01*
X93311144Y-53238751D02*
X93298880Y-53256486D01*
X86071766Y-51765517D02*
X86093169Y-51775624D01*
X93120356Y-53440244D02*
X93102921Y-53452824D01*
X81993389Y-52457622D02*
X81982622Y-52465388D01*
X81747463Y-51968530D02*
X81760492Y-51964776D01*
X91367275Y-53268399D02*
X91367275Y-54234178D01*
X85572760Y-51068786D02*
X85529702Y-51072280D01*
X87643623Y-52817157D02*
X87648446Y-52790157D01*
X88548185Y-53849051D02*
X88591406Y-53847694D01*
X88273936Y-53167188D02*
X88273578Y-53152862D01*
X93453505Y-51362085D02*
X93420460Y-51342742D01*
X88145784Y-52588641D02*
X88122689Y-52606387D01*
X92337238Y-52349204D02*
X92313533Y-52308026D01*
X91504746Y-52834539D02*
X91497602Y-52823240D01*
X91732443Y-52957335D02*
X91718315Y-52956973D01*
X82505545Y-52353951D02*
X82509137Y-52330531D01*
X94105700Y-52202961D02*
X94094232Y-52166437D01*
X87164821Y-52481964D02*
X87173914Y-52491636D01*
X88819625Y-53195261D02*
X88817209Y-53208972D01*
X93366351Y-53144820D02*
X93356126Y-53164306D01*
X91874816Y-52440710D02*
X91885958Y-52447954D01*
X85912550Y-54280966D02*
X85954741Y-54275494D01*
X89164795Y-52846450D02*
X89154614Y-52826283D01*
X86343961Y-52394274D02*
X86330361Y-52427300D01*
X88603514Y-52880045D02*
X88616798Y-52883155D01*
X84112129Y-52277182D02*
X84102976Y-52315862D01*
X81801036Y-51957445D02*
X81814979Y-51956369D01*
X84251292Y-53455745D02*
X84269815Y-53489612D01*
X81144231Y-52282954D02*
X81149076Y-52330531D01*
X93912380Y-51795180D02*
X93891198Y-51764763D01*
X85158263Y-51854430D02*
X85176695Y-51841399D01*
X82040991Y-52057364D02*
X82049145Y-52067885D01*
X91081565Y-52900969D02*
X91096689Y-52942205D01*
X87025991Y-52951676D02*
X87012471Y-52954126D01*
X87654965Y-52735125D02*
X87656619Y-52707136D01*
X82103354Y-52248810D02*
X82102294Y-52262948D01*
X81493152Y-51123541D02*
X81493152Y-51627168D01*
X91732443Y-52400383D02*
X91746570Y-52400746D01*
X84671955Y-51410406D02*
X84641811Y-51434683D01*
X82056802Y-52390162D02*
X82049145Y-52401081D01*
X82003763Y-52449354D02*
X81993389Y-52457622D01*
X92580768Y-53611796D02*
X92555383Y-53612049D01*
X92384149Y-52898279D02*
X92391291Y-52875107D01*
X94116251Y-52239856D02*
X94105700Y-52202961D01*
X93170322Y-51962247D02*
X93186196Y-51976629D01*
X92080565Y-52078690D02*
X92039182Y-52055843D01*
X91979961Y-52799572D02*
X91973895Y-52811579D01*
X86408801Y-52023283D02*
X86426735Y-52045733D01*
X92337238Y-53008513D02*
X92348063Y-52987268D01*
X94125885Y-52277122D02*
X94116251Y-52239856D01*
X86134904Y-51797150D02*
X86155233Y-51808571D01*
X93411280Y-52324591D02*
X93418888Y-52346508D01*
X85938061Y-51717317D02*
X85960975Y-51723805D01*
X81454746Y-52818167D02*
X81493152Y-52841798D01*
X88822790Y-53152862D02*
X88822433Y-53167188D01*
X91638041Y-52417286D02*
X91650799Y-52412907D01*
X84273344Y-51876595D02*
X84254647Y-51910583D01*
X91578927Y-52909765D02*
X91568160Y-52901999D01*
X92598569Y-54233713D02*
X92642459Y-54232316D01*
X92655248Y-53607976D02*
X92630700Y-53609761D01*
X92120168Y-52104266D02*
X92080565Y-52078690D01*
X92287187Y-52268702D02*
X92258326Y-52231357D01*
X88722841Y-53367733D02*
X88712466Y-53376001D01*
X86390392Y-54150379D02*
X86427037Y-54133389D01*
X84579163Y-53875780D02*
X84607964Y-53901119D01*
X93352423Y-51306167D02*
X93317434Y-51288934D01*
X86999143Y-51672990D02*
X86975996Y-51644299D01*
X88273578Y-53152862D02*
X88273936Y-53138536D01*
X93438613Y-52954572D02*
X93432556Y-52976952D01*
X86119229Y-54243725D02*
X86159280Y-54233323D01*
X86299648Y-52531165D02*
X86292943Y-52567207D01*
X86921909Y-53765114D02*
X86946062Y-53737661D01*
X93094815Y-51201416D02*
X93055981Y-51189907D01*
X92885617Y-51798148D02*
X92907161Y-51805864D01*
X85263006Y-53560893D02*
X85242835Y-53549491D01*
X81773776Y-51961666D02*
X81787296Y-51959216D01*
X81167952Y-52046396D02*
X81162119Y-52068982D01*
X88775880Y-53308541D02*
X88768223Y-53319459D01*
X87861670Y-53152862D02*
X87862133Y-53178689D01*
X81857176Y-51957445D02*
X81870916Y-51959216D01*
X92554214Y-51123542D02*
X91367275Y-51123541D01*
X92630700Y-51748100D02*
X92655248Y-51749987D01*
X92936744Y-51160890D02*
X92896083Y-51153056D01*
X82476444Y-52002153D02*
X82459853Y-51959239D01*
X86605434Y-51319920D02*
X86572174Y-51299511D01*
X93466379Y-52579041D02*
X93468241Y-52603631D01*
X88576254Y-52875824D02*
X88589994Y-52877595D01*
X88313344Y-53008481D02*
X88320488Y-52997182D01*
X84769323Y-52570112D02*
X84771727Y-52545608D01*
X87604733Y-52946142D02*
X87614411Y-52921218D01*
X85563723Y-54288937D02*
X85607115Y-54291431D01*
X82496094Y-52399984D02*
X82501193Y-52377106D01*
X88939085Y-53725300D02*
X88971651Y-53700931D01*
X94068542Y-52094507D02*
X94054321Y-52059103D01*
X93066879Y-53476653D02*
X93048272Y-53487901D01*
X82095064Y-52164902D02*
X82098131Y-52178373D01*
X93334451Y-52161410D02*
X93345492Y-52180514D01*
X91298026Y-53217964D02*
X91331844Y-53244249D01*
X81560081Y-52290593D02*
X81557665Y-52276882D01*
X88667218Y-52901854D02*
X88679058Y-52908005D01*
X82082126Y-52126106D02*
X82087044Y-52138751D01*
X92598568Y-51124003D02*
X92554214Y-51123542D01*
X82339052Y-52700547D02*
X82353748Y-52683471D01*
X93066879Y-51884893D02*
X93085095Y-51896719D01*
X86198902Y-54221939D02*
X86238095Y-54209577D01*
X87223681Y-52787237D02*
X87218180Y-52799572D01*
X87190700Y-52845458D02*
X87182546Y-52855978D01*
X86288090Y-52603872D02*
X86285141Y-52641107D01*
X94105700Y-53147164D02*
X94116251Y-53110069D01*
X93420461Y-54012067D02*
X93453506Y-53992568D01*
X89611844Y-51093916D02*
X88989014Y-51093916D01*
X85544395Y-51697260D02*
X85568794Y-51693951D01*
X93154057Y-51948290D02*
X93170322Y-51962247D01*
X91463418Y-52622750D02*
X91466485Y-52609279D01*
X86308410Y-52863068D02*
X86318778Y-52897883D01*
X86729207Y-52811579D02*
X86723142Y-52799572D01*
X92555383Y-51745668D02*
X92580768Y-51745939D01*
X82098131Y-52290593D02*
X82095064Y-52304064D01*
X86767408Y-52491636D02*
X86776501Y-52481964D01*
X91047415Y-52632629D02*
X91046302Y-52655649D01*
X92300682Y-53069593D02*
X92313533Y-53049691D01*
X82275084Y-52763758D02*
X82291826Y-52748747D01*
X85739524Y-54292929D02*
X85783419Y-54291431D01*
X84309148Y-53555562D02*
X84329954Y-53587646D01*
X93932799Y-51826170D02*
X93912380Y-51795180D01*
X91096689Y-52942205D02*
X91114261Y-52982158D01*
X88642585Y-53414435D02*
X88629827Y-53418814D01*
X81217617Y-51917763D02*
X81207662Y-51938314D01*
X81162119Y-52068982D02*
X81157019Y-52091860D01*
X93418888Y-53020787D02*
X93411280Y-53042243D01*
X84523455Y-53822981D02*
X84550994Y-53849734D01*
X86828287Y-52440710D02*
X86839786Y-52434003D01*
X85347114Y-53602073D02*
X85325656Y-53592498D01*
X91096689Y-52415515D02*
X91088815Y-52435978D01*
X84131960Y-53165798D02*
X84143771Y-53203444D01*
X84289101Y-53522885D02*
X84309148Y-53555562D01*
X81146259Y-52162105D02*
X81144231Y-52186012D01*
X84312950Y-51810263D02*
X84292779Y-51843154D01*
X86202977Y-53529202D02*
X86183549Y-53541301D01*
X88354025Y-53349757D02*
X88344931Y-53340085D01*
X92928438Y-53545985D02*
X92907161Y-53554050D01*
X92796742Y-53586417D02*
X92773845Y-53591310D01*
X92417166Y-52729514D02*
X92418506Y-52704301D01*
X89094659Y-52731494D02*
X89080948Y-52713846D01*
X82406944Y-52610482D02*
X82418778Y-52591132D01*
X86222013Y-53516642D02*
X86202977Y-53529202D01*
X85669334Y-51686720D02*
X85695205Y-51686418D01*
X81935977Y-51977897D02*
X81948140Y-51983475D01*
X85024466Y-51975263D02*
X85039878Y-51958551D01*
X91529189Y-52491636D02*
X91538283Y-52481964D01*
X81152667Y-52115015D02*
X81149076Y-52138435D01*
X85568794Y-51693951D02*
X85593487Y-51691241D01*
X86665247Y-53993900D02*
X86696672Y-53971041D01*
X84797361Y-52402558D02*
X84803503Y-52379391D01*
X93638107Y-51492949D02*
X93608972Y-51469373D01*
X81601410Y-52390162D02*
X81594266Y-52378863D01*
X93171120Y-51227188D02*
X93133194Y-51213844D01*
X91718315Y-52956973D02*
X91704373Y-52955897D01*
X88479570Y-52883155D02*
X88492854Y-52880045D01*
X88795351Y-53802574D02*
X88833144Y-53786446D01*
X85704553Y-53671301D02*
X85678679Y-53670995D01*
X84269815Y-53489612D02*
X84289101Y-53522885D01*
X81493152Y-51627168D02*
X81473744Y-51638674D01*
X81722235Y-51977897D02*
X81734705Y-51972909D01*
X81801036Y-52511520D02*
X81787296Y-52509749D01*
X84916631Y-53231738D02*
X84904655Y-53211841D01*
X91063675Y-52520802D02*
X91059036Y-52542692D01*
X85826889Y-54288937D02*
X85869933Y-54285448D01*
X91839313Y-52422274D02*
X91851476Y-52427852D01*
X91520557Y-52855978D02*
X91512404Y-52845458D01*
X85444888Y-51082256D02*
X85403131Y-51088737D01*
X86494250Y-53219254D02*
X86479314Y-53244236D01*
X86696413Y-52693186D02*
X86696055Y-52678860D01*
X93823074Y-51676953D02*
X93798842Y-51648831D01*
X85381847Y-51737145D02*
X85404185Y-51729662D01*
X91461002Y-52636461D02*
X91463418Y-52622750D01*
X87905518Y-53398481D02*
X87914398Y-53421203D01*
X84927723Y-52101996D02*
X84940290Y-52082897D01*
X88751437Y-53340085D02*
X88742343Y-53349757D01*
X81149076Y-52330531D02*
X81157019Y-52377106D01*
X81760492Y-52504189D02*
X81747463Y-52500435D01*
X88019422Y-52708781D02*
X88001414Y-52731785D01*
X87862359Y-53121396D02*
X87861670Y-53152862D01*
X82070560Y-52101764D02*
X82076625Y-52113771D01*
X85487078Y-51076770D02*
X85444888Y-51082256D01*
X81555918Y-52206018D02*
X81557665Y-52192084D01*
X92863803Y-53568584D02*
X92841720Y-53575055D01*
X85338054Y-51753889D02*
X85359803Y-51745221D01*
X87218180Y-52558148D02*
X87223681Y-52570483D01*
X86463027Y-54115664D02*
X86498362Y-54097204D01*
X85111608Y-53457404D02*
X85094285Y-53442479D01*
X84786680Y-52900337D02*
X84782141Y-52876458D01*
X91690633Y-52954126D02*
X91677112Y-52951676D01*
X84765318Y-52704206D02*
X84765051Y-52678859D01*
X88328145Y-52986264D02*
X88336299Y-52975743D01*
X93133195Y-54142403D02*
X93171121Y-54128775D01*
X93208593Y-51241450D02*
X93171120Y-51227188D01*
X92157868Y-52132446D02*
X92120168Y-52104266D01*
X92728846Y-51130925D02*
X92685883Y-51127695D01*
X92976947Y-54187441D02*
X93016693Y-54177600D01*
X84470600Y-53767697D02*
X84496657Y-53795634D01*
X84065819Y-52770746D02*
X84068181Y-52811753D01*
X82049145Y-52401081D02*
X82040991Y-52411601D01*
X93245764Y-53323904D02*
X93231471Y-53339877D01*
X93186196Y-53385504D02*
X93170322Y-53399850D01*
X87104237Y-51824714D02*
X87084636Y-51793266D01*
X87924031Y-53443525D02*
X87934399Y-53465434D01*
X92554215Y-54234178D02*
X92598569Y-54233713D01*
X93137402Y-51934759D02*
X93154057Y-51948290D01*
X87077532Y-52935445D02*
X87065063Y-52940433D01*
X93286210Y-53273869D02*
X93273133Y-53290900D01*
X91650799Y-52412907D02*
X91663829Y-52409153D01*
X91960138Y-52834539D02*
X91952481Y-52845458D01*
X88806122Y-53248594D02*
X88801204Y-53261239D01*
X88274997Y-53124397D02*
X88276744Y-53110463D01*
X93748095Y-51594314D02*
X93721580Y-51567919D01*
X85115772Y-54196237D02*
X85154231Y-54209577D01*
X92928438Y-51814102D02*
X92949386Y-51822927D01*
X88520114Y-52875824D02*
X88534057Y-52874748D01*
X87878414Y-52999390D02*
X87872464Y-53029253D01*
X88667218Y-53403869D02*
X88655055Y-53409447D01*
X85653093Y-53670077D02*
X85627796Y-53668547D01*
X93453658Y-52483112D02*
X93457627Y-52506729D01*
X93345492Y-53183442D02*
X93334451Y-53202229D01*
X87236619Y-52609279D02*
X87239686Y-52622750D01*
X93259651Y-52054763D02*
X93273133Y-52071577D01*
X87134944Y-52455720D02*
X87145318Y-52463988D01*
X82323824Y-52717128D02*
X82339052Y-52700547D01*
X84071488Y-52852430D02*
X84075740Y-52892775D01*
X88690558Y-52914712D02*
X88701700Y-52921957D01*
X86508505Y-53193744D02*
X86494250Y-53219254D01*
X84842219Y-52266641D02*
X84851445Y-52244912D01*
X91298026Y-52139755D02*
X91265914Y-52168080D01*
X88306730Y-53020143D02*
X88313344Y-53008481D01*
X88417310Y-53397718D02*
X88405810Y-53391011D01*
X88701700Y-53383767D02*
X88690558Y-53391011D01*
X86735821Y-52534479D02*
X86742965Y-52523180D01*
X91814086Y-52412907D02*
X91826844Y-52417286D01*
X86155233Y-51808571D02*
X86175204Y-51820431D01*
X92325723Y-53029326D02*
X92337238Y-53008513D01*
X91049257Y-52609812D02*
X91047415Y-52632629D01*
X84496657Y-53795634D02*
X84523455Y-53822981D01*
X86708405Y-52596066D02*
X86712723Y-52583128D01*
X81710072Y-51983475D02*
X81722235Y-51977897D01*
X84065860Y-52595872D02*
X84064412Y-52637199D01*
X81675590Y-52465388D02*
X81664824Y-52457622D01*
X84827326Y-54058784D02*
X84861211Y-54078503D01*
X81557665Y-52276882D02*
X81555918Y-52262948D01*
X92796742Y-51772531D02*
X92819367Y-51778146D01*
X93773850Y-53732259D02*
X93798843Y-53704675D01*
X81473744Y-51638674D02*
X81454746Y-51650799D01*
X86293036Y-52791256D02*
X86299812Y-52827508D01*
X85695205Y-51686418D02*
X85720606Y-51686727D01*
X91874816Y-52917009D02*
X91863317Y-52923716D01*
X88616798Y-52883155D02*
X88629827Y-52886909D01*
X91156379Y-52299882D02*
X91134189Y-52336986D01*
X86928851Y-52403593D02*
X86942591Y-52401822D01*
X85770669Y-51689199D02*
X85795329Y-51691362D01*
X88629827Y-52886909D02*
X88642585Y-52891288D01*
X86122911Y-53574831D02*
X86101916Y-53585082D01*
X86460528Y-52092284D02*
X86476366Y-52116399D01*
X84087557Y-52394211D02*
X84081291Y-52433881D01*
X86304861Y-51915786D02*
X86321925Y-51931175D01*
X84063929Y-52687747D02*
X84064402Y-52729410D01*
X86457263Y-52216546D02*
X86434862Y-52243473D01*
X86413799Y-52271547D02*
X86394126Y-52300717D01*
X84797361Y-52947555D02*
X84791754Y-52924035D01*
X81787296Y-51959216D02*
X81801036Y-51957445D01*
X93666587Y-51517231D02*
X93638107Y-51492949D01*
X92750675Y-51762888D02*
X92773845Y-51767445D01*
X92949386Y-51822927D02*
X92969944Y-51832182D01*
X93608972Y-51469373D02*
X93579183Y-51446504D01*
X87934399Y-53465434D02*
X87945488Y-53486911D01*
X89174342Y-52866987D02*
X89164795Y-52846450D01*
X92376240Y-52921096D02*
X92384149Y-52898279D01*
X88279159Y-53208972D02*
X88276744Y-53195261D01*
X82003763Y-52019611D02*
X82013728Y-52028365D01*
X81664824Y-52011343D02*
X81675590Y-52003578D01*
X87648446Y-52790157D02*
X87652233Y-52762806D01*
X86876301Y-51535033D02*
X86848756Y-51508333D01*
X84667463Y-53949681D02*
X84698164Y-53972906D01*
X86330361Y-52427300D02*
X86318408Y-52461159D01*
X86359988Y-52997348D02*
X86376922Y-53028670D01*
X82165060Y-53612051D02*
X82165060Y-52841798D01*
X84799096Y-51320650D02*
X84766328Y-51341989D01*
X85003151Y-54150399D02*
X85040241Y-54166633D01*
X84774664Y-52828159D02*
X84771727Y-52803736D01*
X86163728Y-53552940D02*
X86143515Y-53564117D01*
X94142400Y-52352762D02*
X94134601Y-52314757D01*
X86839786Y-52923716D02*
X86828287Y-52917009D01*
X88492854Y-52880045D02*
X88506374Y-52877595D01*
X84351516Y-53619136D02*
X84373832Y-53650033D01*
X87890079Y-53351905D02*
X87897406Y-53375376D01*
X81198359Y-51959239D02*
X81189724Y-51980523D01*
X81334388Y-51751838D02*
X81319160Y-51768419D01*
X86848756Y-51508333D02*
X86820570Y-51482333D01*
X93133194Y-51213844D02*
X93094815Y-51201416D01*
X84929057Y-53251281D02*
X84916631Y-53231738D01*
X89059978Y-53616989D02*
X89086029Y-53585664D01*
X87894011Y-52941118D02*
X87885606Y-52970001D01*
X88789638Y-53020143D02*
X88795703Y-53032150D01*
X85992286Y-53628308D02*
X85969627Y-53635175D01*
X84778135Y-52852399D02*
X84774664Y-52828159D01*
X93463989Y-52813752D02*
X93461071Y-52838005D01*
X93470638Y-52687747D02*
X93470371Y-52713583D01*
X86796004Y-52893731D02*
X86786039Y-52884977D01*
X86975996Y-51644299D02*
X86952139Y-51616158D01*
X94054321Y-53292100D02*
X94068542Y-53256379D01*
X81625853Y-52421706D02*
X81617221Y-52411601D01*
X85720606Y-51686727D02*
X85745761Y-51687654D01*
X92679518Y-51752411D02*
X92703512Y-51755370D01*
X82515621Y-52234483D02*
X82513982Y-52186012D01*
X88300665Y-53273573D02*
X88295164Y-53261239D01*
X91235600Y-52198350D02*
X91207178Y-52230470D01*
X91967282Y-52823240D02*
X91960138Y-52834539D01*
X87223681Y-52570483D02*
X87228599Y-52583128D01*
X91787773Y-52951676D02*
X91774252Y-52954126D01*
X88282226Y-53083281D02*
X88285928Y-53070068D01*
X86276857Y-54196237D02*
X86315189Y-54181922D01*
X92863803Y-51790956D02*
X92885617Y-51798148D01*
X91814086Y-52944812D02*
X91801056Y-52948566D01*
X84607964Y-53901119D02*
X84637397Y-53925753D01*
X81634947Y-52431379D02*
X81625853Y-52421706D01*
X93485901Y-51382132D02*
X93453505Y-51362085D01*
X86633173Y-54016026D02*
X86665247Y-53993900D01*
X81167952Y-52422570D02*
X81181769Y-52466813D01*
X86956534Y-52400746D02*
X86970661Y-52400383D01*
X81493152Y-54234178D02*
X83684156Y-54234178D01*
X82501193Y-52377106D02*
X82505545Y-52353951D01*
X86727448Y-53947450D02*
X86757576Y-53923129D01*
X93971346Y-51889867D02*
X93952455Y-51857732D01*
X91625572Y-52422274D02*
X91638041Y-52417286D01*
X93469572Y-52628465D02*
X93470371Y-52653541D01*
X87052305Y-52412907D02*
X87065063Y-52417286D01*
X88534057Y-53430975D02*
X88520114Y-53429899D01*
X86412827Y-53338889D02*
X86394536Y-53361233D01*
X81843234Y-51956369D02*
X81857176Y-51957445D01*
X88742343Y-52955966D02*
X88751437Y-52965638D01*
X87656619Y-52707136D02*
X87657175Y-52678860D01*
X84765051Y-52678859D02*
X84765051Y-52669972D01*
X88521308Y-53848755D02*
X88528054Y-53848926D01*
X92258326Y-52231357D02*
X92227070Y-52196116D01*
X85876591Y-53656671D02*
X85852733Y-53660553D01*
X82459853Y-52509727D02*
X82468488Y-52488443D01*
X93891198Y-51764763D02*
X93869252Y-51734919D01*
X87318619Y-53279075D02*
X87340847Y-53265206D01*
X92936745Y-54196339D02*
X92976947Y-54187441D01*
X88306730Y-53285580D02*
X88300665Y-53273573D01*
X91746570Y-52400746D02*
X91760512Y-52401822D01*
X93470371Y-52713583D02*
X93469572Y-52739101D01*
X88394668Y-52921957D02*
X88405810Y-52914712D01*
X84901308Y-51261015D02*
X84866587Y-51280164D01*
X88679058Y-52908005D02*
X88690558Y-52914712D01*
X87232917Y-52761654D02*
X87228599Y-52774592D01*
X81571168Y-52330215D02*
X81566850Y-52317277D01*
X92003882Y-52721259D02*
X92001467Y-52734970D01*
X86820570Y-51482333D02*
X86791743Y-51457033D01*
X92841720Y-53575055D02*
X92819367Y-53580999D01*
X85900209Y-53652193D02*
X85876591Y-53656671D01*
X88383901Y-53376001D02*
X88373527Y-53367733D01*
X82222041Y-52805438D02*
X82240177Y-52792117D01*
X87242102Y-52636461D02*
X87243849Y-52650395D01*
X93323001Y-52142682D02*
X93334451Y-52161410D01*
X92907161Y-53554050D02*
X92885617Y-53561583D01*
X87657175Y-52678860D02*
X87655008Y-52623136D01*
X84156527Y-53240747D02*
X84170227Y-53277705D01*
X86394126Y-52300717D02*
X86375895Y-52330930D01*
X88760069Y-52975743D02*
X88768223Y-52986264D01*
X85482140Y-53646449D02*
X85458893Y-53640605D01*
X93102921Y-51908973D02*
X93120356Y-51921653D01*
X84769323Y-52779131D02*
X84767454Y-52754341D01*
X92555383Y-53612049D02*
X92039182Y-53612049D01*
X88328145Y-53319459D02*
X88320488Y-53308541D01*
X87184185Y-53369316D02*
X87199693Y-53335352D01*
X86430453Y-53316018D02*
X86412827Y-53338889D01*
X86717641Y-52787237D02*
X86712723Y-52774592D01*
X82203467Y-51650799D02*
X82165060Y-51627168D01*
X85969627Y-53635175D02*
X85946727Y-53641445D01*
X81276721Y-51821080D02*
X81263702Y-51839561D01*
X91557786Y-52463988D02*
X91568160Y-52455720D01*
X88821372Y-53181327D02*
X88819625Y-53195261D01*
X81843234Y-52512596D02*
X81829106Y-52512958D01*
X82308078Y-52733199D02*
X82323824Y-52717128D01*
X93453506Y-53992568D02*
X93485902Y-53972367D01*
X81350134Y-52733199D02*
X81383129Y-52763758D01*
X91512404Y-52512262D02*
X91520557Y-52501741D01*
X84810179Y-52994063D02*
X84803503Y-52970898D01*
X88320488Y-53308541D02*
X88313344Y-53297242D01*
X88405810Y-53391011D02*
X88394668Y-53383767D01*
X89004496Y-52632942D02*
X89004497Y-52632942D01*
X87872464Y-53029253D02*
X87867785Y-53059562D01*
X85154231Y-54209577D02*
X85193150Y-54221939D01*
X92001467Y-52622750D02*
X92003882Y-52636461D01*
X88479570Y-53422567D02*
X88466541Y-53418814D01*
X87630959Y-52870018D02*
X87637788Y-52843784D01*
X85616254Y-51066289D02*
X85572760Y-51068786D01*
X87464978Y-52195742D02*
X87427913Y-52159552D01*
X82165060Y-51123541D02*
X81493152Y-51123541D01*
X84527838Y-51539182D02*
X84500988Y-51567069D01*
X87499288Y-52234636D02*
X87464978Y-52195742D01*
X91081565Y-52456750D02*
X91074951Y-52477820D01*
X88271860Y-52515210D02*
X88245328Y-52527757D01*
X88506374Y-52877595D02*
X88520114Y-52875824D01*
X84187210Y-52051993D02*
X84172297Y-52088706D01*
X87089695Y-52427852D02*
X87101536Y-52434003D01*
X92685885Y-54229985D02*
X92728847Y-54226721D01*
X86970661Y-52957335D02*
X86956534Y-52956973D01*
X88313344Y-53297242D02*
X88306730Y-53285580D01*
X85161637Y-51148460D02*
X85122888Y-51161879D01*
X85878906Y-51072280D02*
X85835984Y-51068786D01*
X87558994Y-52319873D02*
X87530682Y-52276069D01*
X92771346Y-51135076D02*
X92728846Y-51130925D01*
X85436182Y-54275494D02*
X85478254Y-54280966D01*
X87212115Y-52546141D02*
X87218180Y-52558148D01*
X84782141Y-52473224D02*
X84786680Y-52449476D01*
X91484923Y-52799572D02*
X91479423Y-52787237D01*
X82353748Y-52683471D02*
X82367899Y-52665913D01*
X88354025Y-52955966D02*
X88363562Y-52946744D01*
X94155245Y-52429874D02*
X94149281Y-52391134D01*
X93869252Y-51734919D02*
X93846544Y-51705649D01*
X88675658Y-53837071D02*
X88716527Y-53827967D01*
X90926446Y-54234178D02*
X89611844Y-51093916D01*
X91512404Y-52845458D02*
X91504746Y-52834539D01*
X85472965Y-51710778D02*
X85496481Y-51705674D01*
X92157868Y-53225272D02*
X92175967Y-53210245D01*
X86704703Y-52748441D02*
X86701636Y-52734970D01*
X82165060Y-51627168D02*
X82165060Y-51123541D01*
X88100369Y-52625083D02*
X88078853Y-52644701D01*
X81993389Y-52011343D02*
X82003763Y-52019611D01*
X88373527Y-53367733D02*
X88363562Y-53358979D01*
X91590069Y-52917009D02*
X91578927Y-52909765D01*
X82103354Y-52220156D02*
X82103712Y-52234483D01*
X81144231Y-52186012D02*
X81143004Y-52210143D01*
X87543151Y-53063145D02*
X87557155Y-53040831D01*
X85413287Y-53627057D02*
X85390930Y-53619352D01*
X82430000Y-52571368D02*
X82440595Y-52551203D01*
X87423857Y-53201731D02*
X87443028Y-53183969D01*
X91601568Y-52434003D02*
X91613408Y-52427852D01*
X86902047Y-52948566D02*
X86889017Y-52944812D01*
X81181769Y-52002153D02*
X81174507Y-52024115D01*
X92773845Y-53591310D02*
X92750675Y-53595682D01*
X93461071Y-52530590D02*
X93463989Y-52554694D01*
X85792618Y-51066289D02*
X85748808Y-51064790D01*
X91787773Y-52406043D02*
X91801056Y-52409153D01*
X88273936Y-53138536D02*
X88274997Y-53124397D01*
X86476366Y-52116399D02*
X86491486Y-52141084D01*
X88038350Y-52686579D02*
X88019422Y-52708781D01*
X85214716Y-51816724D02*
X85234309Y-51805081D01*
X91625572Y-52935445D02*
X91613408Y-52929867D01*
X93432556Y-52391070D02*
X93438613Y-52413716D01*
X85077775Y-54181922D02*
X85115772Y-54196237D01*
X89110250Y-53552800D02*
X89940494Y-53552800D01*
X94081846Y-53220317D02*
X94094232Y-53183913D01*
X89183244Y-52887879D02*
X89174342Y-52866987D01*
X84122242Y-52238830D02*
X84112129Y-52277182D01*
X91497602Y-52823240D02*
X91490989Y-52811579D01*
X93468241Y-52603631D02*
X93469572Y-52628465D01*
X87877845Y-53303927D02*
X87883554Y-53328084D01*
X85071819Y-51926502D02*
X85088351Y-51911167D01*
X91180740Y-53093374D02*
X91207178Y-53127250D01*
X91484923Y-52558148D02*
X91490989Y-52546141D01*
X88760069Y-53329980D02*
X88751437Y-53340085D01*
X94116251Y-53110069D02*
X94125885Y-53072628D01*
X86005015Y-51088737D02*
X85963421Y-51082256D01*
X82023266Y-52431379D02*
X82013728Y-52440600D01*
X88320488Y-52997182D02*
X88328145Y-52986264D01*
X89086029Y-53585664D02*
X89110250Y-53552800D01*
X86786039Y-52472742D02*
X86796004Y-52463988D01*
X86998731Y-52955897D02*
X86984788Y-52956973D01*
X87883554Y-53328084D02*
X87890079Y-53351905D01*
X84111173Y-53089482D02*
X84121094Y-53127811D01*
X82459853Y-51959239D02*
X82440595Y-51917763D01*
X87984357Y-52755561D02*
X87968278Y-52780079D01*
X92605874Y-51746750D02*
X92630700Y-51748100D01*
X85678679Y-53670995D02*
X85653093Y-53670077D01*
X88768223Y-53319459D02*
X88760069Y-53329980D01*
X81594266Y-52090102D02*
X81601410Y-52078803D01*
X87173914Y-52866083D02*
X87164821Y-52875756D01*
X88971651Y-53700931D02*
X89002708Y-53674703D01*
X84930899Y-54115845D02*
X84966704Y-54133470D01*
X91470186Y-52761654D02*
X91466485Y-52748441D01*
X84236686Y-51945119D02*
X84219460Y-51980200D01*
X91952481Y-52512262D02*
X91960138Y-52523180D01*
X85195512Y-51828830D02*
X85214716Y-51816724D01*
X87245267Y-52678860D02*
X87244909Y-52693186D01*
X94142400Y-52996701D02*
X94149281Y-52958211D01*
X87134944Y-52901999D02*
X87124177Y-52909765D01*
X89143813Y-52806499D02*
X89132404Y-52787115D01*
X87862133Y-53178689D02*
X87863510Y-53204277D01*
X86028206Y-51746979D02*
X86050113Y-51755939D01*
X91088815Y-52435978D02*
X91081565Y-52456750D01*
X91463418Y-52734970D02*
X91461002Y-52721259D01*
X94054321Y-52059103D02*
X94039258Y-52024115D01*
X88783024Y-53297242D02*
X88775880Y-53308541D01*
X91459255Y-52707325D02*
X91458194Y-52693186D01*
X91458194Y-52693186D02*
X91457837Y-52678860D01*
X86214063Y-51845471D02*
X86232950Y-51858652D01*
X81959980Y-52479339D02*
X81948140Y-52485490D01*
X93009888Y-51851981D02*
X93029275Y-51862523D01*
X82091362Y-52317277D02*
X82087044Y-52330215D01*
X87863510Y-53204277D02*
X87865787Y-53229611D01*
X92348063Y-52987268D02*
X92358182Y-52965607D01*
X92841720Y-51784288D02*
X92863803Y-51790956D01*
X87614411Y-52921218D02*
X87623160Y-52895836D01*
X86699220Y-52636461D02*
X86701636Y-52622750D01*
X85828635Y-53663837D02*
X85804298Y-53666524D01*
X93259651Y-53307579D02*
X93245764Y-53323904D01*
X88795703Y-53032150D02*
X88801204Y-53044485D01*
X88466541Y-53418814D02*
X88453783Y-53414435D01*
X93912381Y-53557874D02*
X93932800Y-53526735D01*
X84778135Y-52497163D02*
X84782141Y-52473224D01*
X81814979Y-52512596D02*
X81801036Y-52511520D01*
X90220650Y-54234178D02*
X90926446Y-54234178D01*
X88245328Y-52527757D02*
X88219426Y-52541404D01*
X82513982Y-52186012D02*
X82509137Y-52138435D01*
X93989472Y-53429750D02*
X94006833Y-53396232D01*
X86447412Y-53292618D02*
X86430453Y-53316018D01*
X86206361Y-51136030D02*
X86166973Y-51124589D01*
X87168007Y-53402774D02*
X87184185Y-53369316D01*
X93345492Y-52180514D02*
X93356126Y-52199992D01*
X92896085Y-54204294D02*
X92936745Y-54196339D01*
X85274667Y-51783185D02*
X85295435Y-51772934D01*
X88078853Y-52644701D02*
X88058170Y-52665209D01*
X81263702Y-52629405D02*
X81290313Y-52665913D01*
X94171301Y-52629049D02*
X94169924Y-52588486D01*
X84094786Y-52354872D02*
X84087557Y-52394211D01*
X93457627Y-52861943D02*
X93453658Y-52885568D01*
X82102294Y-52206018D02*
X82103354Y-52220156D01*
X84333861Y-51777923D02*
X84312950Y-51810263D01*
X88576254Y-53429899D02*
X88562312Y-53430975D01*
X86786039Y-52884977D02*
X86776501Y-52875756D01*
X93457627Y-52506729D02*
X93461071Y-52530590D01*
X81554858Y-52248810D02*
X81554500Y-52234483D01*
X94155245Y-52919370D02*
X94160291Y-52880176D01*
X93201681Y-53370719D02*
X93186196Y-53385504D01*
X93798843Y-53704675D02*
X93823075Y-53676500D01*
X88756451Y-53816441D02*
X88795351Y-53802574D01*
X93231471Y-52022305D02*
X93245764Y-52038339D01*
X84064412Y-52637199D02*
X84063929Y-52678860D01*
X82275084Y-51705208D02*
X82240177Y-51676849D01*
X88336299Y-52975743D02*
X88344931Y-52965638D01*
X81400350Y-51690746D02*
X81383129Y-51705208D01*
X86696055Y-52678860D02*
X86696413Y-52664533D01*
X84080937Y-52932787D02*
X84087079Y-52972465D01*
X92175967Y-53210245D02*
X92193543Y-53194614D01*
X93846544Y-51705649D02*
X93823074Y-51676953D01*
X93403156Y-53063393D02*
X93394570Y-53084272D01*
X92703512Y-53602863D02*
X92679518Y-53605677D01*
X91557786Y-52893731D02*
X91547821Y-52884977D01*
X93201681Y-51991435D02*
X93216775Y-52006666D01*
X84068181Y-52811753D02*
X84071488Y-52852430D01*
X86758776Y-52855978D02*
X86750622Y-52845458D01*
X86299812Y-52827508D02*
X86308410Y-52863068D01*
X83684156Y-53612051D02*
X82165060Y-53612051D01*
X91990380Y-52583128D02*
X91994698Y-52596066D01*
X88169625Y-52571875D02*
X88145784Y-52588641D01*
X82063946Y-52378863D02*
X82056802Y-52390162D01*
X88712466Y-52929722D02*
X88722841Y-52937990D01*
X86817145Y-52447954D02*
X86828287Y-52440710D01*
X94171301Y-52719840D02*
X94171759Y-52678860D01*
X88534057Y-52874748D02*
X88548184Y-52874386D01*
X87623808Y-52463842D02*
X87605720Y-52413926D01*
X84774664Y-52521291D02*
X84778135Y-52497163D01*
X84825132Y-52311072D02*
X84833410Y-52288697D01*
X94149281Y-52391134D02*
X94142400Y-52352762D01*
X92007047Y-52678860D02*
X92006690Y-52693186D01*
X87868946Y-53254675D02*
X87872971Y-53279452D01*
X87096610Y-53531562D02*
X87115460Y-53500120D01*
X87155283Y-52884977D02*
X87145318Y-52893731D01*
X82098131Y-52178373D02*
X82100547Y-52192084D01*
X92990111Y-53518962D02*
X92969944Y-53528420D01*
X93579183Y-51446504D02*
X93548741Y-51424342D01*
X88344931Y-52965638D02*
X88354025Y-52955966D01*
X91590069Y-52440710D02*
X91601568Y-52434003D01*
X86701636Y-52622750D02*
X86704703Y-52609279D01*
X91979961Y-52558148D02*
X91985462Y-52570483D01*
X88562312Y-52874748D02*
X88576254Y-52875824D01*
X81263702Y-51839561D02*
X81251268Y-51858484D01*
X84881629Y-52181691D02*
X84892526Y-52161273D01*
X86704703Y-52609279D02*
X86708405Y-52596066D01*
X93449165Y-52459737D02*
X93453658Y-52483112D01*
X85203562Y-53525378D02*
X85184459Y-53512665D01*
X88373527Y-52937990D02*
X88383901Y-52929722D01*
X84825132Y-53039865D02*
X84817388Y-53017051D01*
X86984788Y-52400746D02*
X86998731Y-52401822D01*
X87388257Y-52126235D02*
X87346174Y-52095958D01*
X86863790Y-52935445D02*
X86851627Y-52929867D01*
X84832515Y-51300042D02*
X84799096Y-51320650D01*
X82513982Y-52282954D02*
X82515209Y-52258823D01*
X88795703Y-53273573D02*
X88789638Y-53285580D01*
X93029275Y-51862523D02*
X93048272Y-51873494D01*
X81581587Y-52113771D02*
X81587652Y-52101764D01*
X85320913Y-51104679D02*
X85280451Y-51114138D01*
X81560081Y-52178373D02*
X81563148Y-52164902D01*
X85520769Y-54285448D02*
X85563723Y-54288937D01*
X94094232Y-53183913D02*
X94105700Y-53147164D01*
X81143004Y-52210143D02*
X81142592Y-52234483D01*
X91470186Y-52596066D02*
X91474505Y-52583128D01*
X93102921Y-53452824D02*
X93085095Y-53464961D01*
X91490989Y-52546141D02*
X91497602Y-52534479D01*
X91967282Y-52534479D02*
X91973895Y-52546141D01*
X85578075Y-53663645D02*
X85553651Y-53660271D01*
X86318408Y-52461159D02*
X86308153Y-52495798D01*
X91547821Y-52472742D02*
X91557786Y-52463988D01*
X91704373Y-52955897D02*
X91690633Y-52954126D01*
X81576086Y-52342860D02*
X81571168Y-52330215D01*
X87012471Y-52403593D02*
X87025991Y-52406043D01*
X86284147Y-52678860D02*
X86285151Y-52716880D01*
X91074951Y-52477820D02*
X91068984Y-52499174D01*
X86696413Y-52664533D02*
X86697473Y-52650395D01*
X86468641Y-51242464D02*
X86432885Y-51224841D01*
X91479423Y-52570483D02*
X91484923Y-52558148D01*
X88453783Y-53414435D02*
X88441313Y-53409447D01*
X93245519Y-54098953D02*
X93281800Y-54082996D01*
X87582674Y-52994531D02*
X87594147Y-52970587D01*
X93171121Y-54128775D02*
X93208594Y-54114197D01*
X87198357Y-52834539D02*
X87190700Y-52845458D01*
X93245518Y-51256576D02*
X93208593Y-51241450D01*
X88810440Y-53070068D02*
X88814142Y-53083281D01*
X88603514Y-53425678D02*
X88589994Y-53428128D01*
X85184459Y-53512665D02*
X85165712Y-53499512D01*
X85946727Y-53641445D02*
X85923588Y-53647117D01*
X87957280Y-53507941D02*
X87969759Y-53528508D01*
X84729500Y-53995428D02*
X84761472Y-54017248D01*
X84833410Y-52288697D02*
X84842219Y-52266641D01*
X85060708Y-53411291D02*
X85044454Y-53395025D01*
X81829106Y-52512958D02*
X81814979Y-52512596D01*
X93411280Y-53042243D02*
X93403156Y-53063393D01*
X81698232Y-51989626D02*
X81710072Y-51983475D01*
X85449744Y-51716477D02*
X85472965Y-51710778D01*
X87914398Y-53421203D02*
X87924031Y-53443525D01*
X81290313Y-52665913D02*
X81319160Y-52700547D01*
X88274997Y-53181327D02*
X88273936Y-53167188D01*
X85458893Y-53640605D02*
X85435941Y-53634141D01*
X93356126Y-53164306D02*
X93345492Y-53183442D01*
X85923588Y-53647117D02*
X85900209Y-53652193D01*
X91367275Y-51123541D02*
X91367275Y-52089320D01*
X81557665Y-52192084D02*
X81560081Y-52178373D01*
X85643757Y-51687625D02*
X85669334Y-51686720D01*
X92080565Y-53279028D02*
X92100597Y-53266573D01*
X92605874Y-53611033D02*
X92580768Y-53611796D01*
X84940290Y-52082897D02*
X84953275Y-52064129D01*
X93453658Y-52885568D02*
X93449165Y-52908881D01*
X88363562Y-52946744D02*
X88373527Y-52937990D01*
X93386765Y-51324103D02*
X93352423Y-51306167D01*
X81587652Y-52367202D02*
X81581587Y-52355195D01*
X84851513Y-53106986D02*
X84842236Y-53084928D01*
X81563148Y-52304064D02*
X81560081Y-52290593D01*
X84866587Y-51280164D02*
X84832515Y-51300042D01*
X84396901Y-53680337D02*
X84420720Y-53710049D01*
X84219460Y-51980200D02*
X84202968Y-52015825D01*
X84936678Y-51242593D02*
X84901308Y-51261015D01*
X87244909Y-52664533D02*
X87245267Y-52678860D01*
X81454746Y-51650799D02*
X81436172Y-51663528D01*
X88817209Y-53208972D02*
X88814142Y-53222443D01*
X88642585Y-52891288D02*
X88655055Y-52896276D01*
X94160291Y-52468980D02*
X94155245Y-52429874D01*
X81587652Y-52101764D02*
X81594266Y-52090102D01*
X88276744Y-53110463D02*
X88279159Y-53096752D01*
X81181769Y-52466813D02*
X81198359Y-52509727D01*
X86701636Y-52734970D02*
X86699220Y-52721259D01*
X92193543Y-53194614D02*
X92210583Y-53178394D01*
X86505876Y-52166346D02*
X86480952Y-52190819D01*
X87528344Y-53084872D02*
X87543151Y-53063145D01*
X86292943Y-52567207D02*
X86288090Y-52603872D01*
X92358182Y-52392111D02*
X92337238Y-52349204D01*
X85368872Y-53611024D02*
X85347114Y-53602073D01*
X91885958Y-52909765D02*
X91874816Y-52917009D01*
X88405810Y-52914712D02*
X88417310Y-52908005D01*
X85520291Y-51701168D02*
X85544395Y-51697260D01*
X86503776Y-51260784D02*
X86468641Y-51242464D01*
X86927571Y-51588567D02*
X86902292Y-51561526D01*
X81198359Y-52509727D02*
X81217617Y-52551203D01*
X88732805Y-52946744D02*
X88742343Y-52955966D01*
X88276744Y-53195261D02*
X88274997Y-53181327D01*
X93298880Y-53256486D02*
X93286210Y-53273869D01*
X87655008Y-52623136D02*
X87648616Y-52568613D01*
X85046667Y-51191679D02*
X85009359Y-51207927D01*
X82091362Y-52151689D02*
X82095064Y-52164902D01*
X86697473Y-52707325D02*
X86696413Y-52693186D01*
X82184469Y-52830292D02*
X82203467Y-52818167D01*
X87236619Y-52748441D02*
X87232917Y-52761654D01*
X81625853Y-52047259D02*
X81634947Y-52037587D01*
X93137402Y-53427221D02*
X93120356Y-53440244D01*
X94160291Y-52880176D02*
X94164419Y-52840627D01*
X88453783Y-52891288D02*
X88466541Y-52886909D01*
X93694413Y-53811417D02*
X93721581Y-53785654D01*
X92813385Y-51140149D02*
X92771346Y-51135076D01*
X87145318Y-52893731D02*
X87134944Y-52901999D01*
X93425981Y-52999024D02*
X93418888Y-53020787D01*
X91960138Y-52523180D02*
X91967282Y-52534479D01*
X91105175Y-52395372D02*
X91096689Y-52415515D01*
X86723142Y-52799572D02*
X86717641Y-52787237D01*
X93273133Y-52071577D02*
X93286210Y-52088778D01*
X84637397Y-53925753D02*
X84667463Y-53949681D01*
X85122547Y-51881877D02*
X85140214Y-51867923D01*
X92287187Y-53089015D02*
X92300682Y-53069593D01*
X87064326Y-51762369D02*
X87043308Y-51732025D01*
X86538287Y-51279799D02*
X86503776Y-51260784D01*
X93952455Y-53495001D02*
X93971346Y-53462673D01*
X85593487Y-51691241D02*
X85618475Y-51689133D01*
X85105260Y-51896291D02*
X85122547Y-51881877D01*
X85783419Y-54291431D02*
X85826889Y-54288937D01*
X93444150Y-52436605D02*
X93449165Y-52459737D01*
X87584061Y-52365881D02*
X87558994Y-52319873D01*
X91760512Y-52955897D02*
X91746570Y-52956973D01*
X81217617Y-52551203D02*
X81239434Y-52591132D01*
X86194814Y-51832731D02*
X86214063Y-51845471D01*
X87039275Y-52409153D02*
X87052305Y-52412907D01*
X94006833Y-51955850D02*
X93989472Y-51922573D01*
X87968278Y-52780079D02*
X87953209Y-52805310D01*
X88814142Y-53083281D02*
X88817209Y-53096752D01*
X92414951Y-52754483D02*
X92417166Y-52729514D01*
X87025991Y-52406043D02*
X87039275Y-52409153D01*
X93420460Y-51342742D02*
X93386765Y-51324103D01*
X85869933Y-54285448D02*
X85912550Y-54280966D01*
X84612326Y-51459698D02*
X84583501Y-51485452D01*
X86984788Y-52956973D02*
X86970661Y-52957335D01*
X82240177Y-52792117D02*
X82257863Y-52778220D01*
X87638161Y-52515460D02*
X87623808Y-52463842D01*
X93029275Y-53498702D02*
X93009888Y-53509056D01*
X82308078Y-51735767D02*
X82275084Y-51705208D01*
X91331844Y-52113470D02*
X91298026Y-52139755D01*
X92039182Y-53612049D02*
X92039182Y-53301875D01*
X87191636Y-51990260D02*
X87175569Y-51956043D01*
X85505683Y-53651674D02*
X85482140Y-53646449D01*
X93281799Y-51272404D02*
X93245518Y-51256576D01*
X94167631Y-52800722D02*
X94169924Y-52760460D01*
X93548742Y-53929861D02*
X93579184Y-53907561D01*
X93394570Y-53084272D02*
X93385573Y-53104803D01*
X86287430Y-51900840D02*
X86304861Y-51915786D01*
X93386766Y-54030860D02*
X93420461Y-54012067D01*
X85607115Y-54291431D02*
X85650943Y-54292929D01*
X92630700Y-53609761D02*
X92605874Y-53611033D01*
X91156379Y-53057837D02*
X91180740Y-53093374D01*
X91051816Y-52770511D02*
X91059036Y-52815028D01*
X88285928Y-53235656D02*
X88282226Y-53222443D01*
X88814142Y-53222443D02*
X88810440Y-53235656D01*
X81734705Y-51972909D02*
X81747463Y-51968530D01*
X87206997Y-52025033D02*
X87191636Y-51990260D01*
X87939177Y-52831225D02*
X87926212Y-52857792D01*
X94094232Y-52166437D02*
X94081846Y-52130285D01*
X93273133Y-53290900D02*
X93259651Y-53307579D01*
X86359156Y-52362133D02*
X86343961Y-52394274D01*
X84786680Y-52449476D02*
X84791754Y-52425920D01*
X82418778Y-52591132D02*
X82430000Y-52571368D01*
X81576086Y-52126106D02*
X81581587Y-52113771D01*
X93208594Y-54114197D02*
X93245519Y-54098953D01*
X85304417Y-53582395D02*
X85283534Y-53571860D01*
X81383129Y-52763758D02*
X81418035Y-52792117D01*
X84782141Y-52876458D02*
X84778135Y-52852399D01*
X81566850Y-52317277D02*
X81563148Y-52304064D01*
X85819741Y-51694143D02*
X85843904Y-51697542D01*
X85176695Y-51841399D02*
X85195512Y-51828830D01*
X86344618Y-52965075D02*
X86359988Y-52997348D01*
X93055982Y-54166814D02*
X93094816Y-54155082D01*
X94125885Y-53072628D02*
X94134601Y-53034839D01*
X86285151Y-52716880D02*
X86288132Y-52754363D01*
X92273063Y-53107943D02*
X92287187Y-53089015D01*
X88806122Y-53057130D02*
X88810440Y-53070068D01*
X91497602Y-52534479D02*
X91504746Y-52523180D01*
X85627796Y-53668547D02*
X85602790Y-53666403D01*
X86396510Y-51207912D02*
X86359516Y-51191679D01*
X85088351Y-51911167D02*
X85105260Y-51896291D01*
X91677112Y-52951676D02*
X91663829Y-52948566D01*
X86436598Y-53116415D02*
X86459276Y-53143418D01*
X88383901Y-52929722D02*
X88394668Y-52921957D01*
X92358182Y-52965607D02*
X92367579Y-52943544D01*
X86708405Y-52761654D02*
X86704703Y-52748441D01*
X81493152Y-52841798D02*
X81493152Y-54234178D01*
X85240418Y-51124589D02*
X85200814Y-51136030D01*
X84972695Y-51224898D02*
X84936678Y-51242593D01*
X86114215Y-51786168D02*
X86134904Y-51797150D01*
X84882048Y-53170979D02*
X84871419Y-53150009D01*
X86806378Y-52901999D02*
X86796004Y-52893731D01*
X87205501Y-52823240D02*
X87198357Y-52834539D01*
X92949386Y-53537428D02*
X92928438Y-53545985D01*
X87652233Y-52762806D02*
X87654965Y-52735125D01*
X86443981Y-52068730D02*
X86460528Y-52092284D01*
X84761472Y-54017248D02*
X84794080Y-54038366D01*
X87043308Y-51732025D02*
X87021580Y-51702232D01*
X86483263Y-53169211D02*
X86508505Y-53193744D01*
X87056913Y-53592943D02*
X87077094Y-53562503D01*
X85852733Y-53660553D02*
X85828635Y-53663837D01*
X86787057Y-53898076D02*
X86815892Y-53872293D01*
X91774252Y-52403593D02*
X91787773Y-52406043D01*
X87867785Y-53059562D02*
X87864407Y-53090286D01*
X86432885Y-51224841D02*
X86396510Y-51207912D01*
X88989014Y-51093916D02*
X88412927Y-52470003D01*
X89120400Y-52768143D02*
X89107814Y-52749597D01*
X82032359Y-52047259D02*
X82040991Y-52057364D01*
X82367899Y-52665913D02*
X82381491Y-52647886D01*
X91677112Y-52406043D02*
X91690633Y-52403593D01*
X89291664Y-51921938D02*
X89699483Y-52930673D01*
X86359516Y-51191679D02*
X86321886Y-51176285D01*
X85914897Y-51711446D02*
X85938061Y-51717317D01*
X86806378Y-52455720D02*
X86817145Y-52447954D01*
X86463701Y-53268691D02*
X86447412Y-53292618D01*
X86915331Y-52406043D02*
X86928851Y-52403593D01*
X84871150Y-52202437D02*
X84881629Y-52181691D01*
X92685883Y-51127695D02*
X92642458Y-51125388D01*
X84064402Y-52729410D02*
X84065819Y-52770746D01*
X81350134Y-51735767D02*
X81334388Y-51751838D01*
X85804298Y-53666524D02*
X85779721Y-53668614D01*
X93009888Y-53509056D02*
X92990111Y-53518962D01*
X81644484Y-52028365D02*
X81654449Y-52019611D01*
X86742965Y-52834539D02*
X86735821Y-52823240D01*
X87479327Y-53146324D02*
X87496411Y-53126483D01*
X86876259Y-52940433D02*
X86863790Y-52935445D01*
X81686732Y-51996333D02*
X81698232Y-51989626D01*
X94149281Y-52958211D02*
X94155245Y-52919370D01*
X91466485Y-52609279D02*
X91470186Y-52596066D01*
D11*
X79513773Y-56384819D02*
X79513773Y-55384819D01*
X79513773Y-55384819D02*
X79894725Y-55384819D01*
X79894725Y-55384819D02*
X79989963Y-55432438D01*
X79989963Y-55432438D02*
X80037582Y-55480057D01*
X80037582Y-55480057D02*
X80085201Y-55575295D01*
X80085201Y-55575295D02*
X80085201Y-55718152D01*
X80085201Y-55718152D02*
X80037582Y-55813390D01*
X80037582Y-55813390D02*
X79989963Y-55861009D01*
X79989963Y-55861009D02*
X79894725Y-55908628D01*
X79894725Y-55908628D02*
X79513773Y-55908628D01*
X80513773Y-56384819D02*
X80513773Y-55718152D01*
X80513773Y-55908628D02*
X80561392Y-55813390D01*
X80561392Y-55813390D02*
X80609011Y-55765771D01*
X80609011Y-55765771D02*
X80704249Y-55718152D01*
X80704249Y-55718152D02*
X80799487Y-55718152D01*
X81275678Y-56384819D02*
X81180440Y-56337200D01*
X81180440Y-56337200D02*
X81132821Y-56289580D01*
X81132821Y-56289580D02*
X81085202Y-56194342D01*
X81085202Y-56194342D02*
X81085202Y-55908628D01*
X81085202Y-55908628D02*
X81132821Y-55813390D01*
X81132821Y-55813390D02*
X81180440Y-55765771D01*
X81180440Y-55765771D02*
X81275678Y-55718152D01*
X81275678Y-55718152D02*
X81418535Y-55718152D01*
X81418535Y-55718152D02*
X81513773Y-55765771D01*
X81513773Y-55765771D02*
X81561392Y-55813390D01*
X81561392Y-55813390D02*
X81609011Y-55908628D01*
X81609011Y-55908628D02*
X81609011Y-56194342D01*
X81609011Y-56194342D02*
X81561392Y-56289580D01*
X81561392Y-56289580D02*
X81513773Y-56337200D01*
X81513773Y-56337200D02*
X81418535Y-56384819D01*
X81418535Y-56384819D02*
X81275678Y-56384819D01*
X82466154Y-55718152D02*
X82466154Y-56384819D01*
X82037583Y-55718152D02*
X82037583Y-56241961D01*
X82037583Y-56241961D02*
X82085202Y-56337200D01*
X82085202Y-56337200D02*
X82180440Y-56384819D01*
X82180440Y-56384819D02*
X82323297Y-56384819D01*
X82323297Y-56384819D02*
X82418535Y-56337200D01*
X82418535Y-56337200D02*
X82466154Y-56289580D01*
X83370916Y-56384819D02*
X83370916Y-55384819D01*
X83370916Y-56337200D02*
X83275678Y-56384819D01*
X83275678Y-56384819D02*
X83085202Y-56384819D01*
X83085202Y-56384819D02*
X82989964Y-56337200D01*
X82989964Y-56337200D02*
X82942345Y-56289580D01*
X82942345Y-56289580D02*
X82894726Y-56194342D01*
X82894726Y-56194342D02*
X82894726Y-55908628D01*
X82894726Y-55908628D02*
X82942345Y-55813390D01*
X82942345Y-55813390D02*
X82989964Y-55765771D01*
X82989964Y-55765771D02*
X83085202Y-55718152D01*
X83085202Y-55718152D02*
X83275678Y-55718152D01*
X83275678Y-55718152D02*
X83370916Y-55765771D01*
X83989964Y-56384819D02*
X83894726Y-56337200D01*
X83894726Y-56337200D02*
X83847107Y-56241961D01*
X83847107Y-56241961D02*
X83847107Y-55384819D01*
X84275679Y-55718152D02*
X84513774Y-56384819D01*
X84751869Y-55718152D02*
X84513774Y-56384819D01*
X84513774Y-56384819D02*
X84418536Y-56622914D01*
X84418536Y-56622914D02*
X84370917Y-56670533D01*
X84370917Y-56670533D02*
X84275679Y-56718152D01*
X85894727Y-56384819D02*
X85894727Y-55718152D01*
X85894727Y-55813390D02*
X85942346Y-55765771D01*
X85942346Y-55765771D02*
X86037584Y-55718152D01*
X86037584Y-55718152D02*
X86180441Y-55718152D01*
X86180441Y-55718152D02*
X86275679Y-55765771D01*
X86275679Y-55765771D02*
X86323298Y-55861009D01*
X86323298Y-55861009D02*
X86323298Y-56384819D01*
X86323298Y-55861009D02*
X86370917Y-55765771D01*
X86370917Y-55765771D02*
X86466155Y-55718152D01*
X86466155Y-55718152D02*
X86609012Y-55718152D01*
X86609012Y-55718152D02*
X86704251Y-55765771D01*
X86704251Y-55765771D02*
X86751870Y-55861009D01*
X86751870Y-55861009D02*
X86751870Y-56384819D01*
X87656631Y-56384819D02*
X87656631Y-55861009D01*
X87656631Y-55861009D02*
X87609012Y-55765771D01*
X87609012Y-55765771D02*
X87513774Y-55718152D01*
X87513774Y-55718152D02*
X87323298Y-55718152D01*
X87323298Y-55718152D02*
X87228060Y-55765771D01*
X87656631Y-56337200D02*
X87561393Y-56384819D01*
X87561393Y-56384819D02*
X87323298Y-56384819D01*
X87323298Y-56384819D02*
X87228060Y-56337200D01*
X87228060Y-56337200D02*
X87180441Y-56241961D01*
X87180441Y-56241961D02*
X87180441Y-56146723D01*
X87180441Y-56146723D02*
X87228060Y-56051485D01*
X87228060Y-56051485D02*
X87323298Y-56003866D01*
X87323298Y-56003866D02*
X87561393Y-56003866D01*
X87561393Y-56003866D02*
X87656631Y-55956247D01*
X88561393Y-56384819D02*
X88561393Y-55384819D01*
X88561393Y-56337200D02*
X88466155Y-56384819D01*
X88466155Y-56384819D02*
X88275679Y-56384819D01*
X88275679Y-56384819D02*
X88180441Y-56337200D01*
X88180441Y-56337200D02*
X88132822Y-56289580D01*
X88132822Y-56289580D02*
X88085203Y-56194342D01*
X88085203Y-56194342D02*
X88085203Y-55908628D01*
X88085203Y-55908628D02*
X88132822Y-55813390D01*
X88132822Y-55813390D02*
X88180441Y-55765771D01*
X88180441Y-55765771D02*
X88275679Y-55718152D01*
X88275679Y-55718152D02*
X88466155Y-55718152D01*
X88466155Y-55718152D02*
X88561393Y-55765771D01*
X89418536Y-56337200D02*
X89323298Y-56384819D01*
X89323298Y-56384819D02*
X89132822Y-56384819D01*
X89132822Y-56384819D02*
X89037584Y-56337200D01*
X89037584Y-56337200D02*
X88989965Y-56241961D01*
X88989965Y-56241961D02*
X88989965Y-55861009D01*
X88989965Y-55861009D02*
X89037584Y-55765771D01*
X89037584Y-55765771D02*
X89132822Y-55718152D01*
X89132822Y-55718152D02*
X89323298Y-55718152D01*
X89323298Y-55718152D02*
X89418536Y-55765771D01*
X89418536Y-55765771D02*
X89466155Y-55861009D01*
X89466155Y-55861009D02*
X89466155Y-55956247D01*
X89466155Y-55956247D02*
X88989965Y-56051485D01*
X90799489Y-56384819D02*
X90704251Y-56337200D01*
X90704251Y-56337200D02*
X90656632Y-56289580D01*
X90656632Y-56289580D02*
X90609013Y-56194342D01*
X90609013Y-56194342D02*
X90609013Y-55908628D01*
X90609013Y-55908628D02*
X90656632Y-55813390D01*
X90656632Y-55813390D02*
X90704251Y-55765771D01*
X90704251Y-55765771D02*
X90799489Y-55718152D01*
X90799489Y-55718152D02*
X90942346Y-55718152D01*
X90942346Y-55718152D02*
X91037584Y-55765771D01*
X91037584Y-55765771D02*
X91085203Y-55813390D01*
X91085203Y-55813390D02*
X91132822Y-55908628D01*
X91132822Y-55908628D02*
X91132822Y-56194342D01*
X91132822Y-56194342D02*
X91085203Y-56289580D01*
X91085203Y-56289580D02*
X91037584Y-56337200D01*
X91037584Y-56337200D02*
X90942346Y-56384819D01*
X90942346Y-56384819D02*
X90799489Y-56384819D01*
X91561394Y-55718152D02*
X91561394Y-56384819D01*
X91561394Y-55813390D02*
X91609013Y-55765771D01*
X91609013Y-55765771D02*
X91704251Y-55718152D01*
X91704251Y-55718152D02*
X91847108Y-55718152D01*
X91847108Y-55718152D02*
X91942346Y-55765771D01*
X91942346Y-55765771D02*
X91989965Y-55861009D01*
X91989965Y-55861009D02*
X91989965Y-56384819D01*
X93228061Y-55861009D02*
X93561394Y-55861009D01*
X93704251Y-56384819D02*
X93228061Y-56384819D01*
X93228061Y-56384819D02*
X93228061Y-55384819D01*
X93228061Y-55384819D02*
X93704251Y-55384819D01*
X94561394Y-56384819D02*
X94561394Y-55861009D01*
X94561394Y-55861009D02*
X94513775Y-55765771D01*
X94513775Y-55765771D02*
X94418537Y-55718152D01*
X94418537Y-55718152D02*
X94228061Y-55718152D01*
X94228061Y-55718152D02*
X94132823Y-55765771D01*
X94561394Y-56337200D02*
X94466156Y-56384819D01*
X94466156Y-56384819D02*
X94228061Y-56384819D01*
X94228061Y-56384819D02*
X94132823Y-56337200D01*
X94132823Y-56337200D02*
X94085204Y-56241961D01*
X94085204Y-56241961D02*
X94085204Y-56146723D01*
X94085204Y-56146723D02*
X94132823Y-56051485D01*
X94132823Y-56051485D02*
X94228061Y-56003866D01*
X94228061Y-56003866D02*
X94466156Y-56003866D01*
X94466156Y-56003866D02*
X94561394Y-55956247D01*
X95037585Y-56384819D02*
X95037585Y-55718152D01*
X95037585Y-55908628D02*
X95085204Y-55813390D01*
X95085204Y-55813390D02*
X95132823Y-55765771D01*
X95132823Y-55765771D02*
X95228061Y-55718152D01*
X95228061Y-55718152D02*
X95323299Y-55718152D01*
X95513776Y-55718152D02*
X95894728Y-55718152D01*
X95656633Y-55384819D02*
X95656633Y-56241961D01*
X95656633Y-56241961D02*
X95704252Y-56337200D01*
X95704252Y-56337200D02*
X95799490Y-56384819D01*
X95799490Y-56384819D02*
X95894728Y-56384819D01*
X96228062Y-56384819D02*
X96228062Y-55384819D01*
X96656633Y-56384819D02*
X96656633Y-55861009D01*
X96656633Y-55861009D02*
X96609014Y-55765771D01*
X96609014Y-55765771D02*
X96513776Y-55718152D01*
X96513776Y-55718152D02*
X96370919Y-55718152D01*
X96370919Y-55718152D02*
X96275681Y-55765771D01*
X96275681Y-55765771D02*
X96228062Y-55813390D01*
X59913232Y-50894819D02*
X59913232Y-51704342D01*
X59913232Y-51704342D02*
X59960851Y-51799580D01*
X59960851Y-51799580D02*
X60008470Y-51847200D01*
X60008470Y-51847200D02*
X60103708Y-51894819D01*
X60103708Y-51894819D02*
X60294184Y-51894819D01*
X60294184Y-51894819D02*
X60389422Y-51847200D01*
X60389422Y-51847200D02*
X60437041Y-51799580D01*
X60437041Y-51799580D02*
X60484660Y-51704342D01*
X60484660Y-51704342D02*
X60484660Y-50894819D01*
X61294184Y-51371009D02*
X61437041Y-51418628D01*
X61437041Y-51418628D02*
X61484660Y-51466247D01*
X61484660Y-51466247D02*
X61532279Y-51561485D01*
X61532279Y-51561485D02*
X61532279Y-51704342D01*
X61532279Y-51704342D02*
X61484660Y-51799580D01*
X61484660Y-51799580D02*
X61437041Y-51847200D01*
X61437041Y-51847200D02*
X61341803Y-51894819D01*
X61341803Y-51894819D02*
X60960851Y-51894819D01*
X60960851Y-51894819D02*
X60960851Y-50894819D01*
X60960851Y-50894819D02*
X61294184Y-50894819D01*
X61294184Y-50894819D02*
X61389422Y-50942438D01*
X61389422Y-50942438D02*
X61437041Y-50990057D01*
X61437041Y-50990057D02*
X61484660Y-51085295D01*
X61484660Y-51085295D02*
X61484660Y-51180533D01*
X61484660Y-51180533D02*
X61437041Y-51275771D01*
X61437041Y-51275771D02*
X61389422Y-51323390D01*
X61389422Y-51323390D02*
X61294184Y-51371009D01*
X61294184Y-51371009D02*
X60960851Y-51371009D01*
X61960851Y-51894819D02*
X61960851Y-50894819D01*
X61960851Y-50894819D02*
X62341803Y-50894819D01*
X62341803Y-50894819D02*
X62437041Y-50942438D01*
X62437041Y-50942438D02*
X62484660Y-50990057D01*
X62484660Y-50990057D02*
X62532279Y-51085295D01*
X62532279Y-51085295D02*
X62532279Y-51228152D01*
X62532279Y-51228152D02*
X62484660Y-51323390D01*
X62484660Y-51323390D02*
X62437041Y-51371009D01*
X62437041Y-51371009D02*
X62341803Y-51418628D01*
X62341803Y-51418628D02*
X61960851Y-51418628D01*
X62960851Y-51371009D02*
X63294184Y-51371009D01*
X63437041Y-51894819D02*
X62960851Y-51894819D01*
X62960851Y-51894819D02*
X62960851Y-50894819D01*
X62960851Y-50894819D02*
X63437041Y-50894819D01*
X64579899Y-50990057D02*
X64627518Y-50942438D01*
X64627518Y-50942438D02*
X64722756Y-50894819D01*
X64722756Y-50894819D02*
X64960851Y-50894819D01*
X64960851Y-50894819D02*
X65056089Y-50942438D01*
X65056089Y-50942438D02*
X65103708Y-50990057D01*
X65103708Y-50990057D02*
X65151327Y-51085295D01*
X65151327Y-51085295D02*
X65151327Y-51180533D01*
X65151327Y-51180533D02*
X65103708Y-51323390D01*
X65103708Y-51323390D02*
X64532280Y-51894819D01*
X64532280Y-51894819D02*
X65151327Y-51894819D01*
X65770375Y-50894819D02*
X65865613Y-50894819D01*
X65865613Y-50894819D02*
X65960851Y-50942438D01*
X65960851Y-50942438D02*
X66008470Y-50990057D01*
X66008470Y-50990057D02*
X66056089Y-51085295D01*
X66056089Y-51085295D02*
X66103708Y-51275771D01*
X66103708Y-51275771D02*
X66103708Y-51513866D01*
X66103708Y-51513866D02*
X66056089Y-51704342D01*
X66056089Y-51704342D02*
X66008470Y-51799580D01*
X66008470Y-51799580D02*
X65960851Y-51847200D01*
X65960851Y-51847200D02*
X65865613Y-51894819D01*
X65865613Y-51894819D02*
X65770375Y-51894819D01*
X65770375Y-51894819D02*
X65675137Y-51847200D01*
X65675137Y-51847200D02*
X65627518Y-51799580D01*
X65627518Y-51799580D02*
X65579899Y-51704342D01*
X65579899Y-51704342D02*
X65532280Y-51513866D01*
X65532280Y-51513866D02*
X65532280Y-51275771D01*
X65532280Y-51275771D02*
X65579899Y-51085295D01*
X65579899Y-51085295D02*
X65627518Y-50990057D01*
X65627518Y-50990057D02*
X65675137Y-50942438D01*
X65675137Y-50942438D02*
X65770375Y-50894819D01*
X66484661Y-50990057D02*
X66532280Y-50942438D01*
X66532280Y-50942438D02*
X66627518Y-50894819D01*
X66627518Y-50894819D02*
X66865613Y-50894819D01*
X66865613Y-50894819D02*
X66960851Y-50942438D01*
X66960851Y-50942438D02*
X67008470Y-50990057D01*
X67008470Y-50990057D02*
X67056089Y-51085295D01*
X67056089Y-51085295D02*
X67056089Y-51180533D01*
X67056089Y-51180533D02*
X67008470Y-51323390D01*
X67008470Y-51323390D02*
X66437042Y-51894819D01*
X66437042Y-51894819D02*
X67056089Y-51894819D01*
X67389423Y-50894819D02*
X68008470Y-50894819D01*
X68008470Y-50894819D02*
X67675137Y-51275771D01*
X67675137Y-51275771D02*
X67817994Y-51275771D01*
X67817994Y-51275771D02*
X67913232Y-51323390D01*
X67913232Y-51323390D02*
X67960851Y-51371009D01*
X67960851Y-51371009D02*
X68008470Y-51466247D01*
X68008470Y-51466247D02*
X68008470Y-51704342D01*
X68008470Y-51704342D02*
X67960851Y-51799580D01*
X67960851Y-51799580D02*
X67913232Y-51847200D01*
X67913232Y-51847200D02*
X67817994Y-51894819D01*
X67817994Y-51894819D02*
X67532280Y-51894819D01*
X67532280Y-51894819D02*
X67437042Y-51847200D01*
X67437042Y-51847200D02*
X67389423Y-51799580D01*
X61317993Y-53504819D02*
X61317993Y-52504819D01*
X61317993Y-52504819D02*
X61698945Y-52504819D01*
X61698945Y-52504819D02*
X61794183Y-52552438D01*
X61794183Y-52552438D02*
X61841802Y-52600057D01*
X61841802Y-52600057D02*
X61889421Y-52695295D01*
X61889421Y-52695295D02*
X61889421Y-52838152D01*
X61889421Y-52838152D02*
X61841802Y-52933390D01*
X61841802Y-52933390D02*
X61794183Y-52981009D01*
X61794183Y-52981009D02*
X61698945Y-53028628D01*
X61698945Y-53028628D02*
X61317993Y-53028628D01*
X62317993Y-53504819D02*
X62317993Y-52838152D01*
X62317993Y-53028628D02*
X62365612Y-52933390D01*
X62365612Y-52933390D02*
X62413231Y-52885771D01*
X62413231Y-52885771D02*
X62508469Y-52838152D01*
X62508469Y-52838152D02*
X62603707Y-52838152D01*
X63317993Y-53457200D02*
X63222755Y-53504819D01*
X63222755Y-53504819D02*
X63032279Y-53504819D01*
X63032279Y-53504819D02*
X62937041Y-53457200D01*
X62937041Y-53457200D02*
X62889422Y-53361961D01*
X62889422Y-53361961D02*
X62889422Y-52981009D01*
X62889422Y-52981009D02*
X62937041Y-52885771D01*
X62937041Y-52885771D02*
X63032279Y-52838152D01*
X63032279Y-52838152D02*
X63222755Y-52838152D01*
X63222755Y-52838152D02*
X63317993Y-52885771D01*
X63317993Y-52885771D02*
X63365612Y-52981009D01*
X63365612Y-52981009D02*
X63365612Y-53076247D01*
X63365612Y-53076247D02*
X62889422Y-53171485D01*
X63746565Y-53457200D02*
X63841803Y-53504819D01*
X63841803Y-53504819D02*
X64032279Y-53504819D01*
X64032279Y-53504819D02*
X64127517Y-53457200D01*
X64127517Y-53457200D02*
X64175136Y-53361961D01*
X64175136Y-53361961D02*
X64175136Y-53314342D01*
X64175136Y-53314342D02*
X64127517Y-53219104D01*
X64127517Y-53219104D02*
X64032279Y-53171485D01*
X64032279Y-53171485D02*
X63889422Y-53171485D01*
X63889422Y-53171485D02*
X63794184Y-53123866D01*
X63794184Y-53123866D02*
X63746565Y-53028628D01*
X63746565Y-53028628D02*
X63746565Y-52981009D01*
X63746565Y-52981009D02*
X63794184Y-52885771D01*
X63794184Y-52885771D02*
X63889422Y-52838152D01*
X63889422Y-52838152D02*
X64032279Y-52838152D01*
X64032279Y-52838152D02*
X64127517Y-52885771D01*
X64556089Y-53457200D02*
X64651327Y-53504819D01*
X64651327Y-53504819D02*
X64841803Y-53504819D01*
X64841803Y-53504819D02*
X64937041Y-53457200D01*
X64937041Y-53457200D02*
X64984660Y-53361961D01*
X64984660Y-53361961D02*
X64984660Y-53314342D01*
X64984660Y-53314342D02*
X64937041Y-53219104D01*
X64937041Y-53219104D02*
X64841803Y-53171485D01*
X64841803Y-53171485D02*
X64698946Y-53171485D01*
X64698946Y-53171485D02*
X64603708Y-53123866D01*
X64603708Y-53123866D02*
X64556089Y-53028628D01*
X64556089Y-53028628D02*
X64556089Y-52981009D01*
X64556089Y-52981009D02*
X64603708Y-52885771D01*
X64603708Y-52885771D02*
X64698946Y-52838152D01*
X64698946Y-52838152D02*
X64841803Y-52838152D01*
X64841803Y-52838152D02*
X64937041Y-52885771D01*
X65841803Y-52838152D02*
X65841803Y-53504819D01*
X65413232Y-52838152D02*
X65413232Y-53361961D01*
X65413232Y-53361961D02*
X65460851Y-53457200D01*
X65460851Y-53457200D02*
X65556089Y-53504819D01*
X65556089Y-53504819D02*
X65698946Y-53504819D01*
X65698946Y-53504819D02*
X65794184Y-53457200D01*
X65794184Y-53457200D02*
X65841803Y-53409580D01*
X66317994Y-53504819D02*
X66317994Y-52838152D01*
X66317994Y-53028628D02*
X66365613Y-52933390D01*
X66365613Y-52933390D02*
X66413232Y-52885771D01*
X66413232Y-52885771D02*
X66508470Y-52838152D01*
X66508470Y-52838152D02*
X66603708Y-52838152D01*
X67317994Y-53457200D02*
X67222756Y-53504819D01*
X67222756Y-53504819D02*
X67032280Y-53504819D01*
X67032280Y-53504819D02*
X66937042Y-53457200D01*
X66937042Y-53457200D02*
X66889423Y-53361961D01*
X66889423Y-53361961D02*
X66889423Y-52981009D01*
X66889423Y-52981009D02*
X66937042Y-52885771D01*
X66937042Y-52885771D02*
X67032280Y-52838152D01*
X67032280Y-52838152D02*
X67222756Y-52838152D01*
X67222756Y-52838152D02*
X67317994Y-52885771D01*
X67317994Y-52885771D02*
X67365613Y-52981009D01*
X67365613Y-52981009D02*
X67365613Y-53076247D01*
X67365613Y-53076247D02*
X66889423Y-53171485D01*
X61008470Y-55067200D02*
X61151327Y-55114819D01*
X61151327Y-55114819D02*
X61389422Y-55114819D01*
X61389422Y-55114819D02*
X61484660Y-55067200D01*
X61484660Y-55067200D02*
X61532279Y-55019580D01*
X61532279Y-55019580D02*
X61579898Y-54924342D01*
X61579898Y-54924342D02*
X61579898Y-54829104D01*
X61579898Y-54829104D02*
X61532279Y-54733866D01*
X61532279Y-54733866D02*
X61484660Y-54686247D01*
X61484660Y-54686247D02*
X61389422Y-54638628D01*
X61389422Y-54638628D02*
X61198946Y-54591009D01*
X61198946Y-54591009D02*
X61103708Y-54543390D01*
X61103708Y-54543390D02*
X61056089Y-54495771D01*
X61056089Y-54495771D02*
X61008470Y-54400533D01*
X61008470Y-54400533D02*
X61008470Y-54305295D01*
X61008470Y-54305295D02*
X61056089Y-54210057D01*
X61056089Y-54210057D02*
X61103708Y-54162438D01*
X61103708Y-54162438D02*
X61198946Y-54114819D01*
X61198946Y-54114819D02*
X61437041Y-54114819D01*
X61437041Y-54114819D02*
X61579898Y-54162438D01*
X62008470Y-55114819D02*
X62008470Y-54114819D01*
X62008470Y-54114819D02*
X62341803Y-54829104D01*
X62341803Y-54829104D02*
X62675136Y-54114819D01*
X62675136Y-54114819D02*
X62675136Y-55114819D01*
X63151327Y-55114819D02*
X63151327Y-54114819D01*
X63151327Y-54114819D02*
X63389422Y-54114819D01*
X63389422Y-54114819D02*
X63532279Y-54162438D01*
X63532279Y-54162438D02*
X63627517Y-54257676D01*
X63627517Y-54257676D02*
X63675136Y-54352914D01*
X63675136Y-54352914D02*
X63722755Y-54543390D01*
X63722755Y-54543390D02*
X63722755Y-54686247D01*
X63722755Y-54686247D02*
X63675136Y-54876723D01*
X63675136Y-54876723D02*
X63627517Y-54971961D01*
X63627517Y-54971961D02*
X63532279Y-55067200D01*
X63532279Y-55067200D02*
X63389422Y-55114819D01*
X63389422Y-55114819D02*
X63151327Y-55114819D01*
X64817994Y-54448152D02*
X65056089Y-55114819D01*
X65056089Y-55114819D02*
X65294184Y-54448152D01*
X66198946Y-55114819D02*
X65627518Y-55114819D01*
X65913232Y-55114819D02*
X65913232Y-54114819D01*
X65913232Y-54114819D02*
X65817994Y-54257676D01*
X65817994Y-54257676D02*
X65722756Y-54352914D01*
X65722756Y-54352914D02*
X65627518Y-54400533D01*
X66627518Y-55019580D02*
X66675137Y-55067200D01*
X66675137Y-55067200D02*
X66627518Y-55114819D01*
X66627518Y-55114819D02*
X66579899Y-55067200D01*
X66579899Y-55067200D02*
X66627518Y-55019580D01*
X66627518Y-55019580D02*
X66627518Y-55114819D01*
X67294184Y-54114819D02*
X67389422Y-54114819D01*
X67389422Y-54114819D02*
X67484660Y-54162438D01*
X67484660Y-54162438D02*
X67532279Y-54210057D01*
X67532279Y-54210057D02*
X67579898Y-54305295D01*
X67579898Y-54305295D02*
X67627517Y-54495771D01*
X67627517Y-54495771D02*
X67627517Y-54733866D01*
X67627517Y-54733866D02*
X67579898Y-54924342D01*
X67579898Y-54924342D02*
X67532279Y-55019580D01*
X67532279Y-55019580D02*
X67484660Y-55067200D01*
X67484660Y-55067200D02*
X67389422Y-55114819D01*
X67389422Y-55114819D02*
X67294184Y-55114819D01*
X67294184Y-55114819D02*
X67198946Y-55067200D01*
X67198946Y-55067200D02*
X67151327Y-55019580D01*
X67151327Y-55019580D02*
X67103708Y-54924342D01*
X67103708Y-54924342D02*
X67056089Y-54733866D01*
X67056089Y-54733866D02*
X67056089Y-54495771D01*
X67056089Y-54495771D02*
X67103708Y-54305295D01*
X67103708Y-54305295D02*
X67151327Y-54210057D01*
X67151327Y-54210057D02*
X67198946Y-54162438D01*
X67198946Y-54162438D02*
X67294184Y-54114819D01*
D12*
X90253708Y-23176726D02*
X90253708Y-22462441D01*
X90253708Y-22462441D02*
X90301327Y-22319584D01*
X90301327Y-22319584D02*
X90396565Y-22224346D01*
X90396565Y-22224346D02*
X90539422Y-22176726D01*
X90539422Y-22176726D02*
X90634660Y-22176726D01*
X89253708Y-22176726D02*
X89825136Y-22176726D01*
X89539422Y-22176726D02*
X89539422Y-23176726D01*
X89539422Y-23176726D02*
X89634660Y-23033869D01*
X89634660Y-23033869D02*
X89729898Y-22938631D01*
X89729898Y-22938631D02*
X89825136Y-22891012D01*
D11*
X97171327Y-41126580D02*
X97123708Y-41174200D01*
X97123708Y-41174200D02*
X96980851Y-41221819D01*
X96980851Y-41221819D02*
X96885613Y-41221819D01*
X96885613Y-41221819D02*
X96742756Y-41174200D01*
X96742756Y-41174200D02*
X96647518Y-41078961D01*
X96647518Y-41078961D02*
X96599899Y-40983723D01*
X96599899Y-40983723D02*
X96552280Y-40793247D01*
X96552280Y-40793247D02*
X96552280Y-40650390D01*
X96552280Y-40650390D02*
X96599899Y-40459914D01*
X96599899Y-40459914D02*
X96647518Y-40364676D01*
X96647518Y-40364676D02*
X96742756Y-40269438D01*
X96742756Y-40269438D02*
X96885613Y-40221819D01*
X96885613Y-40221819D02*
X96980851Y-40221819D01*
X96980851Y-40221819D02*
X97123708Y-40269438D01*
X97123708Y-40269438D02*
X97171327Y-40317057D01*
X97647518Y-41221819D02*
X97837994Y-41221819D01*
X97837994Y-41221819D02*
X97933232Y-41174200D01*
X97933232Y-41174200D02*
X97980851Y-41126580D01*
X97980851Y-41126580D02*
X98076089Y-40983723D01*
X98076089Y-40983723D02*
X98123708Y-40793247D01*
X98123708Y-40793247D02*
X98123708Y-40412295D01*
X98123708Y-40412295D02*
X98076089Y-40317057D01*
X98076089Y-40317057D02*
X98028470Y-40269438D01*
X98028470Y-40269438D02*
X97933232Y-40221819D01*
X97933232Y-40221819D02*
X97742756Y-40221819D01*
X97742756Y-40221819D02*
X97647518Y-40269438D01*
X97647518Y-40269438D02*
X97599899Y-40317057D01*
X97599899Y-40317057D02*
X97552280Y-40412295D01*
X97552280Y-40412295D02*
X97552280Y-40650390D01*
X97552280Y-40650390D02*
X97599899Y-40745628D01*
X97599899Y-40745628D02*
X97647518Y-40793247D01*
X97647518Y-40793247D02*
X97742756Y-40840866D01*
X97742756Y-40840866D02*
X97933232Y-40840866D01*
X97933232Y-40840866D02*
X98028470Y-40793247D01*
X98028470Y-40793247D02*
X98076089Y-40745628D01*
X98076089Y-40745628D02*
X98123708Y-40650390D01*
X97298327Y-47730580D02*
X97250708Y-47778200D01*
X97250708Y-47778200D02*
X97107851Y-47825819D01*
X97107851Y-47825819D02*
X97012613Y-47825819D01*
X97012613Y-47825819D02*
X96869756Y-47778200D01*
X96869756Y-47778200D02*
X96774518Y-47682961D01*
X96774518Y-47682961D02*
X96726899Y-47587723D01*
X96726899Y-47587723D02*
X96679280Y-47397247D01*
X96679280Y-47397247D02*
X96679280Y-47254390D01*
X96679280Y-47254390D02*
X96726899Y-47063914D01*
X96726899Y-47063914D02*
X96774518Y-46968676D01*
X96774518Y-46968676D02*
X96869756Y-46873438D01*
X96869756Y-46873438D02*
X97012613Y-46825819D01*
X97012613Y-46825819D02*
X97107851Y-46825819D01*
X97107851Y-46825819D02*
X97250708Y-46873438D01*
X97250708Y-46873438D02*
X97298327Y-46921057D01*
X97869756Y-47254390D02*
X97774518Y-47206771D01*
X97774518Y-47206771D02*
X97726899Y-47159152D01*
X97726899Y-47159152D02*
X97679280Y-47063914D01*
X97679280Y-47063914D02*
X97679280Y-47016295D01*
X97679280Y-47016295D02*
X97726899Y-46921057D01*
X97726899Y-46921057D02*
X97774518Y-46873438D01*
X97774518Y-46873438D02*
X97869756Y-46825819D01*
X97869756Y-46825819D02*
X98060232Y-46825819D01*
X98060232Y-46825819D02*
X98155470Y-46873438D01*
X98155470Y-46873438D02*
X98203089Y-46921057D01*
X98203089Y-46921057D02*
X98250708Y-47016295D01*
X98250708Y-47016295D02*
X98250708Y-47063914D01*
X98250708Y-47063914D02*
X98203089Y-47159152D01*
X98203089Y-47159152D02*
X98155470Y-47206771D01*
X98155470Y-47206771D02*
X98060232Y-47254390D01*
X98060232Y-47254390D02*
X97869756Y-47254390D01*
X97869756Y-47254390D02*
X97774518Y-47302009D01*
X97774518Y-47302009D02*
X97726899Y-47349628D01*
X97726899Y-47349628D02*
X97679280Y-47444866D01*
X97679280Y-47444866D02*
X97679280Y-47635342D01*
X97679280Y-47635342D02*
X97726899Y-47730580D01*
X97726899Y-47730580D02*
X97774518Y-47778200D01*
X97774518Y-47778200D02*
X97869756Y-47825819D01*
X97869756Y-47825819D02*
X98060232Y-47825819D01*
X98060232Y-47825819D02*
X98155470Y-47778200D01*
X98155470Y-47778200D02*
X98203089Y-47730580D01*
X98203089Y-47730580D02*
X98250708Y-47635342D01*
X98250708Y-47635342D02*
X98250708Y-47444866D01*
X98250708Y-47444866D02*
X98203089Y-47349628D01*
X98203089Y-47349628D02*
X98155470Y-47302009D01*
X98155470Y-47302009D02*
X98060232Y-47254390D01*
X71517327Y-35919580D02*
X71469708Y-35967200D01*
X71469708Y-35967200D02*
X71326851Y-36014819D01*
X71326851Y-36014819D02*
X71231613Y-36014819D01*
X71231613Y-36014819D02*
X71088756Y-35967200D01*
X71088756Y-35967200D02*
X70993518Y-35871961D01*
X70993518Y-35871961D02*
X70945899Y-35776723D01*
X70945899Y-35776723D02*
X70898280Y-35586247D01*
X70898280Y-35586247D02*
X70898280Y-35443390D01*
X70898280Y-35443390D02*
X70945899Y-35252914D01*
X70945899Y-35252914D02*
X70993518Y-35157676D01*
X70993518Y-35157676D02*
X71088756Y-35062438D01*
X71088756Y-35062438D02*
X71231613Y-35014819D01*
X71231613Y-35014819D02*
X71326851Y-35014819D01*
X71326851Y-35014819D02*
X71469708Y-35062438D01*
X71469708Y-35062438D02*
X71517327Y-35110057D01*
X72469708Y-36014819D02*
X71898280Y-36014819D01*
X72183994Y-36014819D02*
X72183994Y-35014819D01*
X72183994Y-35014819D02*
X72088756Y-35157676D01*
X72088756Y-35157676D02*
X71993518Y-35252914D01*
X71993518Y-35252914D02*
X71898280Y-35300533D01*
X86125327Y-40364580D02*
X86077708Y-40412200D01*
X86077708Y-40412200D02*
X85934851Y-40459819D01*
X85934851Y-40459819D02*
X85839613Y-40459819D01*
X85839613Y-40459819D02*
X85696756Y-40412200D01*
X85696756Y-40412200D02*
X85601518Y-40316961D01*
X85601518Y-40316961D02*
X85553899Y-40221723D01*
X85553899Y-40221723D02*
X85506280Y-40031247D01*
X85506280Y-40031247D02*
X85506280Y-39888390D01*
X85506280Y-39888390D02*
X85553899Y-39697914D01*
X85553899Y-39697914D02*
X85601518Y-39602676D01*
X85601518Y-39602676D02*
X85696756Y-39507438D01*
X85696756Y-39507438D02*
X85839613Y-39459819D01*
X85839613Y-39459819D02*
X85934851Y-39459819D01*
X85934851Y-39459819D02*
X86077708Y-39507438D01*
X86077708Y-39507438D02*
X86125327Y-39555057D01*
X86982470Y-39459819D02*
X86791994Y-39459819D01*
X86791994Y-39459819D02*
X86696756Y-39507438D01*
X86696756Y-39507438D02*
X86649137Y-39555057D01*
X86649137Y-39555057D02*
X86553899Y-39697914D01*
X86553899Y-39697914D02*
X86506280Y-39888390D01*
X86506280Y-39888390D02*
X86506280Y-40269342D01*
X86506280Y-40269342D02*
X86553899Y-40364580D01*
X86553899Y-40364580D02*
X86601518Y-40412200D01*
X86601518Y-40412200D02*
X86696756Y-40459819D01*
X86696756Y-40459819D02*
X86887232Y-40459819D01*
X86887232Y-40459819D02*
X86982470Y-40412200D01*
X86982470Y-40412200D02*
X87030089Y-40364580D01*
X87030089Y-40364580D02*
X87077708Y-40269342D01*
X87077708Y-40269342D02*
X87077708Y-40031247D01*
X87077708Y-40031247D02*
X87030089Y-39936009D01*
X87030089Y-39936009D02*
X86982470Y-39888390D01*
X86982470Y-39888390D02*
X86887232Y-39840771D01*
X86887232Y-39840771D02*
X86696756Y-39840771D01*
X86696756Y-39840771D02*
X86601518Y-39888390D01*
X86601518Y-39888390D02*
X86553899Y-39936009D01*
X86553899Y-39936009D02*
X86506280Y-40031247D01*
X79307089Y-35268819D02*
X79307089Y-36078342D01*
X79307089Y-36078342D02*
X79354708Y-36173580D01*
X79354708Y-36173580D02*
X79402327Y-36221200D01*
X79402327Y-36221200D02*
X79497565Y-36268819D01*
X79497565Y-36268819D02*
X79688041Y-36268819D01*
X79688041Y-36268819D02*
X79783279Y-36221200D01*
X79783279Y-36221200D02*
X79830898Y-36173580D01*
X79830898Y-36173580D02*
X79878517Y-36078342D01*
X79878517Y-36078342D02*
X79878517Y-35268819D01*
X80878517Y-36268819D02*
X80307089Y-36268819D01*
X80592803Y-36268819D02*
X80592803Y-35268819D01*
X80592803Y-35268819D02*
X80497565Y-35411676D01*
X80497565Y-35411676D02*
X80402327Y-35506914D01*
X80402327Y-35506914D02*
X80307089Y-35554533D01*
X72533327Y-46841580D02*
X72485708Y-46889200D01*
X72485708Y-46889200D02*
X72342851Y-46936819D01*
X72342851Y-46936819D02*
X72247613Y-46936819D01*
X72247613Y-46936819D02*
X72104756Y-46889200D01*
X72104756Y-46889200D02*
X72009518Y-46793961D01*
X72009518Y-46793961D02*
X71961899Y-46698723D01*
X71961899Y-46698723D02*
X71914280Y-46508247D01*
X71914280Y-46508247D02*
X71914280Y-46365390D01*
X71914280Y-46365390D02*
X71961899Y-46174914D01*
X71961899Y-46174914D02*
X72009518Y-46079676D01*
X72009518Y-46079676D02*
X72104756Y-45984438D01*
X72104756Y-45984438D02*
X72247613Y-45936819D01*
X72247613Y-45936819D02*
X72342851Y-45936819D01*
X72342851Y-45936819D02*
X72485708Y-45984438D01*
X72485708Y-45984438D02*
X72533327Y-46032057D01*
X72866661Y-45936819D02*
X73485708Y-45936819D01*
X73485708Y-45936819D02*
X73152375Y-46317771D01*
X73152375Y-46317771D02*
X73295232Y-46317771D01*
X73295232Y-46317771D02*
X73390470Y-46365390D01*
X73390470Y-46365390D02*
X73438089Y-46413009D01*
X73438089Y-46413009D02*
X73485708Y-46508247D01*
X73485708Y-46508247D02*
X73485708Y-46746342D01*
X73485708Y-46746342D02*
X73438089Y-46841580D01*
X73438089Y-46841580D02*
X73390470Y-46889200D01*
X73390470Y-46889200D02*
X73295232Y-46936819D01*
X73295232Y-46936819D02*
X73009518Y-46936819D01*
X73009518Y-46936819D02*
X72914280Y-46889200D01*
X72914280Y-46889200D02*
X72866661Y-46841580D01*
X61347327Y-47730580D02*
X61299708Y-47778200D01*
X61299708Y-47778200D02*
X61156851Y-47825819D01*
X61156851Y-47825819D02*
X61061613Y-47825819D01*
X61061613Y-47825819D02*
X60918756Y-47778200D01*
X60918756Y-47778200D02*
X60823518Y-47682961D01*
X60823518Y-47682961D02*
X60775899Y-47587723D01*
X60775899Y-47587723D02*
X60728280Y-47397247D01*
X60728280Y-47397247D02*
X60728280Y-47254390D01*
X60728280Y-47254390D02*
X60775899Y-47063914D01*
X60775899Y-47063914D02*
X60823518Y-46968676D01*
X60823518Y-46968676D02*
X60918756Y-46873438D01*
X60918756Y-46873438D02*
X61061613Y-46825819D01*
X61061613Y-46825819D02*
X61156851Y-46825819D01*
X61156851Y-46825819D02*
X61299708Y-46873438D01*
X61299708Y-46873438D02*
X61347327Y-46921057D01*
X61680661Y-46825819D02*
X62347327Y-46825819D01*
X62347327Y-46825819D02*
X61918756Y-47825819D01*
X75959327Y-46561580D02*
X75911708Y-46609200D01*
X75911708Y-46609200D02*
X75768851Y-46656819D01*
X75768851Y-46656819D02*
X75673613Y-46656819D01*
X75673613Y-46656819D02*
X75530756Y-46609200D01*
X75530756Y-46609200D02*
X75435518Y-46513961D01*
X75435518Y-46513961D02*
X75387899Y-46418723D01*
X75387899Y-46418723D02*
X75340280Y-46228247D01*
X75340280Y-46228247D02*
X75340280Y-46085390D01*
X75340280Y-46085390D02*
X75387899Y-45894914D01*
X75387899Y-45894914D02*
X75435518Y-45799676D01*
X75435518Y-45799676D02*
X75530756Y-45704438D01*
X75530756Y-45704438D02*
X75673613Y-45656819D01*
X75673613Y-45656819D02*
X75768851Y-45656819D01*
X75768851Y-45656819D02*
X75911708Y-45704438D01*
X75911708Y-45704438D02*
X75959327Y-45752057D01*
X76340280Y-45752057D02*
X76387899Y-45704438D01*
X76387899Y-45704438D02*
X76483137Y-45656819D01*
X76483137Y-45656819D02*
X76721232Y-45656819D01*
X76721232Y-45656819D02*
X76816470Y-45704438D01*
X76816470Y-45704438D02*
X76864089Y-45752057D01*
X76864089Y-45752057D02*
X76911708Y-45847295D01*
X76911708Y-45847295D02*
X76911708Y-45942533D01*
X76911708Y-45942533D02*
X76864089Y-46085390D01*
X76864089Y-46085390D02*
X76292661Y-46656819D01*
X76292661Y-46656819D02*
X76911708Y-46656819D01*
X67262899Y-42364819D02*
X67262899Y-41364819D01*
X67262899Y-41364819D02*
X67500994Y-41364819D01*
X67500994Y-41364819D02*
X67643851Y-41412438D01*
X67643851Y-41412438D02*
X67739089Y-41507676D01*
X67739089Y-41507676D02*
X67786708Y-41602914D01*
X67786708Y-41602914D02*
X67834327Y-41793390D01*
X67834327Y-41793390D02*
X67834327Y-41936247D01*
X67834327Y-41936247D02*
X67786708Y-42126723D01*
X67786708Y-42126723D02*
X67739089Y-42221961D01*
X67739089Y-42221961D02*
X67643851Y-42317200D01*
X67643851Y-42317200D02*
X67500994Y-42364819D01*
X67500994Y-42364819D02*
X67262899Y-42364819D01*
X68215280Y-41460057D02*
X68262899Y-41412438D01*
X68262899Y-41412438D02*
X68358137Y-41364819D01*
X68358137Y-41364819D02*
X68596232Y-41364819D01*
X68596232Y-41364819D02*
X68691470Y-41412438D01*
X68691470Y-41412438D02*
X68739089Y-41460057D01*
X68739089Y-41460057D02*
X68786708Y-41555295D01*
X68786708Y-41555295D02*
X68786708Y-41650533D01*
X68786708Y-41650533D02*
X68739089Y-41793390D01*
X68739089Y-41793390D02*
X68167661Y-42364819D01*
X68167661Y-42364819D02*
X68786708Y-42364819D01*
D12*
X65582827Y-29947962D02*
X64773304Y-29947962D01*
X64773304Y-29947962D02*
X64678066Y-29995581D01*
X64678066Y-29995581D02*
X64630447Y-30043200D01*
X64630447Y-30043200D02*
X64582827Y-30138438D01*
X64582827Y-30138438D02*
X64582827Y-30328914D01*
X64582827Y-30328914D02*
X64630447Y-30424152D01*
X64630447Y-30424152D02*
X64678066Y-30471771D01*
X64678066Y-30471771D02*
X64773304Y-30519390D01*
X64773304Y-30519390D02*
X65582827Y-30519390D01*
X65582827Y-30900343D02*
X65582827Y-31519390D01*
X65582827Y-31519390D02*
X65201875Y-31186057D01*
X65201875Y-31186057D02*
X65201875Y-31328914D01*
X65201875Y-31328914D02*
X65154256Y-31424152D01*
X65154256Y-31424152D02*
X65106637Y-31471771D01*
X65106637Y-31471771D02*
X65011399Y-31519390D01*
X65011399Y-31519390D02*
X64773304Y-31519390D01*
X64773304Y-31519390D02*
X64678066Y-31471771D01*
X64678066Y-31471771D02*
X64630447Y-31424152D01*
X64630447Y-31424152D02*
X64582827Y-31328914D01*
X64582827Y-31328914D02*
X64582827Y-31043200D01*
X64582827Y-31043200D02*
X64630447Y-30947962D01*
X64630447Y-30947962D02*
X64678066Y-30900343D01*
D11*
X92305660Y-33363819D02*
X92305660Y-34078104D01*
X92305660Y-34078104D02*
X92258041Y-34220961D01*
X92258041Y-34220961D02*
X92162803Y-34316200D01*
X92162803Y-34316200D02*
X92019946Y-34363819D01*
X92019946Y-34363819D02*
X91924708Y-34363819D01*
X92734232Y-33459057D02*
X92781851Y-33411438D01*
X92781851Y-33411438D02*
X92877089Y-33363819D01*
X92877089Y-33363819D02*
X93115184Y-33363819D01*
X93115184Y-33363819D02*
X93210422Y-33411438D01*
X93210422Y-33411438D02*
X93258041Y-33459057D01*
X93258041Y-33459057D02*
X93305660Y-33554295D01*
X93305660Y-33554295D02*
X93305660Y-33649533D01*
X93305660Y-33649533D02*
X93258041Y-33792390D01*
X93258041Y-33792390D02*
X92686613Y-34363819D01*
X92686613Y-34363819D02*
X93305660Y-34363819D01*
X83371089Y-47587819D02*
X83371089Y-48397342D01*
X83371089Y-48397342D02*
X83418708Y-48492580D01*
X83418708Y-48492580D02*
X83466327Y-48540200D01*
X83466327Y-48540200D02*
X83561565Y-48587819D01*
X83561565Y-48587819D02*
X83752041Y-48587819D01*
X83752041Y-48587819D02*
X83847279Y-48540200D01*
X83847279Y-48540200D02*
X83894898Y-48492580D01*
X83894898Y-48492580D02*
X83942517Y-48397342D01*
X83942517Y-48397342D02*
X83942517Y-47587819D01*
X84371089Y-47683057D02*
X84418708Y-47635438D01*
X84418708Y-47635438D02*
X84513946Y-47587819D01*
X84513946Y-47587819D02*
X84752041Y-47587819D01*
X84752041Y-47587819D02*
X84847279Y-47635438D01*
X84847279Y-47635438D02*
X84894898Y-47683057D01*
X84894898Y-47683057D02*
X84942517Y-47778295D01*
X84942517Y-47778295D02*
X84942517Y-47873533D01*
X84942517Y-47873533D02*
X84894898Y-48016390D01*
X84894898Y-48016390D02*
X84323470Y-48587819D01*
X84323470Y-48587819D02*
X84942517Y-48587819D01*
X80173327Y-25854819D02*
X79839994Y-25378628D01*
X79601899Y-25854819D02*
X79601899Y-24854819D01*
X79601899Y-24854819D02*
X79982851Y-24854819D01*
X79982851Y-24854819D02*
X80078089Y-24902438D01*
X80078089Y-24902438D02*
X80125708Y-24950057D01*
X80125708Y-24950057D02*
X80173327Y-25045295D01*
X80173327Y-25045295D02*
X80173327Y-25188152D01*
X80173327Y-25188152D02*
X80125708Y-25283390D01*
X80125708Y-25283390D02*
X80078089Y-25331009D01*
X80078089Y-25331009D02*
X79982851Y-25378628D01*
X79982851Y-25378628D02*
X79601899Y-25378628D01*
X81125708Y-25854819D02*
X80554280Y-25854819D01*
X80839994Y-25854819D02*
X80839994Y-24854819D01*
X80839994Y-24854819D02*
X80744756Y-24997676D01*
X80744756Y-24997676D02*
X80649518Y-25092914D01*
X80649518Y-25092914D02*
X80554280Y-25140533D01*
X97298327Y-44396819D02*
X96822137Y-44396819D01*
X96822137Y-44396819D02*
X96822137Y-43396819D01*
X98155470Y-44396819D02*
X97584042Y-44396819D01*
X97869756Y-44396819D02*
X97869756Y-43396819D01*
X97869756Y-43396819D02*
X97774518Y-43539676D01*
X97774518Y-43539676D02*
X97679280Y-43634914D01*
X97679280Y-43634914D02*
X97584042Y-43682533D01*
X72311136Y-27918580D02*
X72263517Y-27966200D01*
X72263517Y-27966200D02*
X72120660Y-28013819D01*
X72120660Y-28013819D02*
X72025422Y-28013819D01*
X72025422Y-28013819D02*
X71882565Y-27966200D01*
X71882565Y-27966200D02*
X71787327Y-27870961D01*
X71787327Y-27870961D02*
X71739708Y-27775723D01*
X71739708Y-27775723D02*
X71692089Y-27585247D01*
X71692089Y-27585247D02*
X71692089Y-27442390D01*
X71692089Y-27442390D02*
X71739708Y-27251914D01*
X71739708Y-27251914D02*
X71787327Y-27156676D01*
X71787327Y-27156676D02*
X71882565Y-27061438D01*
X71882565Y-27061438D02*
X72025422Y-27013819D01*
X72025422Y-27013819D02*
X72120660Y-27013819D01*
X72120660Y-27013819D02*
X72263517Y-27061438D01*
X72263517Y-27061438D02*
X72311136Y-27109057D01*
X73263517Y-28013819D02*
X72692089Y-28013819D01*
X72977803Y-28013819D02*
X72977803Y-27013819D01*
X72977803Y-27013819D02*
X72882565Y-27156676D01*
X72882565Y-27156676D02*
X72787327Y-27251914D01*
X72787327Y-27251914D02*
X72692089Y-27299533D01*
X73882565Y-27013819D02*
X73977803Y-27013819D01*
X73977803Y-27013819D02*
X74073041Y-27061438D01*
X74073041Y-27061438D02*
X74120660Y-27109057D01*
X74120660Y-27109057D02*
X74168279Y-27204295D01*
X74168279Y-27204295D02*
X74215898Y-27394771D01*
X74215898Y-27394771D02*
X74215898Y-27632866D01*
X74215898Y-27632866D02*
X74168279Y-27823342D01*
X74168279Y-27823342D02*
X74120660Y-27918580D01*
X74120660Y-27918580D02*
X74073041Y-27966200D01*
X74073041Y-27966200D02*
X73977803Y-28013819D01*
X73977803Y-28013819D02*
X73882565Y-28013819D01*
X73882565Y-28013819D02*
X73787327Y-27966200D01*
X73787327Y-27966200D02*
X73739708Y-27918580D01*
X73739708Y-27918580D02*
X73692089Y-27823342D01*
X73692089Y-27823342D02*
X73644470Y-27632866D01*
X73644470Y-27632866D02*
X73644470Y-27394771D01*
X73644470Y-27394771D02*
X73692089Y-27204295D01*
X73692089Y-27204295D02*
X73739708Y-27109057D01*
X73739708Y-27109057D02*
X73787327Y-27061438D01*
X73787327Y-27061438D02*
X73882565Y-27013819D01*
X77232327Y-30934819D02*
X76898994Y-30458628D01*
X76660899Y-30934819D02*
X76660899Y-29934819D01*
X76660899Y-29934819D02*
X77041851Y-29934819D01*
X77041851Y-29934819D02*
X77137089Y-29982438D01*
X77137089Y-29982438D02*
X77184708Y-30030057D01*
X77184708Y-30030057D02*
X77232327Y-30125295D01*
X77232327Y-30125295D02*
X77232327Y-30268152D01*
X77232327Y-30268152D02*
X77184708Y-30363390D01*
X77184708Y-30363390D02*
X77137089Y-30411009D01*
X77137089Y-30411009D02*
X77041851Y-30458628D01*
X77041851Y-30458628D02*
X76660899Y-30458628D01*
X77613280Y-30030057D02*
X77660899Y-29982438D01*
X77660899Y-29982438D02*
X77756137Y-29934819D01*
X77756137Y-29934819D02*
X77994232Y-29934819D01*
X77994232Y-29934819D02*
X78089470Y-29982438D01*
X78089470Y-29982438D02*
X78137089Y-30030057D01*
X78137089Y-30030057D02*
X78184708Y-30125295D01*
X78184708Y-30125295D02*
X78184708Y-30220533D01*
X78184708Y-30220533D02*
X78137089Y-30363390D01*
X78137089Y-30363390D02*
X77565661Y-30934819D01*
X77565661Y-30934819D02*
X78184708Y-30934819D01*
X83264899Y-31569819D02*
X83264899Y-30569819D01*
X83264899Y-30569819D02*
X83502994Y-30569819D01*
X83502994Y-30569819D02*
X83645851Y-30617438D01*
X83645851Y-30617438D02*
X83741089Y-30712676D01*
X83741089Y-30712676D02*
X83788708Y-30807914D01*
X83788708Y-30807914D02*
X83836327Y-30998390D01*
X83836327Y-30998390D02*
X83836327Y-31141247D01*
X83836327Y-31141247D02*
X83788708Y-31331723D01*
X83788708Y-31331723D02*
X83741089Y-31426961D01*
X83741089Y-31426961D02*
X83645851Y-31522200D01*
X83645851Y-31522200D02*
X83502994Y-31569819D01*
X83502994Y-31569819D02*
X83264899Y-31569819D01*
X84788708Y-31569819D02*
X84217280Y-31569819D01*
X84502994Y-31569819D02*
X84502994Y-30569819D01*
X84502994Y-30569819D02*
X84407756Y-30712676D01*
X84407756Y-30712676D02*
X84312518Y-30807914D01*
X84312518Y-30807914D02*
X84217280Y-30855533D01*
X86630327Y-37316580D02*
X86582708Y-37364200D01*
X86582708Y-37364200D02*
X86439851Y-37411819D01*
X86439851Y-37411819D02*
X86344613Y-37411819D01*
X86344613Y-37411819D02*
X86201756Y-37364200D01*
X86201756Y-37364200D02*
X86106518Y-37268961D01*
X86106518Y-37268961D02*
X86058899Y-37173723D01*
X86058899Y-37173723D02*
X86011280Y-36983247D01*
X86011280Y-36983247D02*
X86011280Y-36840390D01*
X86011280Y-36840390D02*
X86058899Y-36649914D01*
X86058899Y-36649914D02*
X86106518Y-36554676D01*
X86106518Y-36554676D02*
X86201756Y-36459438D01*
X86201756Y-36459438D02*
X86344613Y-36411819D01*
X86344613Y-36411819D02*
X86439851Y-36411819D01*
X86439851Y-36411819D02*
X86582708Y-36459438D01*
X86582708Y-36459438D02*
X86630327Y-36507057D01*
X87487470Y-36745152D02*
X87487470Y-37411819D01*
X87249375Y-36364200D02*
X87011280Y-37078485D01*
X87011280Y-37078485D02*
X87630327Y-37078485D01*
X86884327Y-48365580D02*
X86836708Y-48413200D01*
X86836708Y-48413200D02*
X86693851Y-48460819D01*
X86693851Y-48460819D02*
X86598613Y-48460819D01*
X86598613Y-48460819D02*
X86455756Y-48413200D01*
X86455756Y-48413200D02*
X86360518Y-48317961D01*
X86360518Y-48317961D02*
X86312899Y-48222723D01*
X86312899Y-48222723D02*
X86265280Y-48032247D01*
X86265280Y-48032247D02*
X86265280Y-47889390D01*
X86265280Y-47889390D02*
X86312899Y-47698914D01*
X86312899Y-47698914D02*
X86360518Y-47603676D01*
X86360518Y-47603676D02*
X86455756Y-47508438D01*
X86455756Y-47508438D02*
X86598613Y-47460819D01*
X86598613Y-47460819D02*
X86693851Y-47460819D01*
X86693851Y-47460819D02*
X86836708Y-47508438D01*
X86836708Y-47508438D02*
X86884327Y-47556057D01*
X87789089Y-47460819D02*
X87312899Y-47460819D01*
X87312899Y-47460819D02*
X87265280Y-47937009D01*
X87265280Y-47937009D02*
X87312899Y-47889390D01*
X87312899Y-47889390D02*
X87408137Y-47841771D01*
X87408137Y-47841771D02*
X87646232Y-47841771D01*
X87646232Y-47841771D02*
X87741470Y-47889390D01*
X87741470Y-47889390D02*
X87789089Y-47937009D01*
X87789089Y-47937009D02*
X87836708Y-48032247D01*
X87836708Y-48032247D02*
X87836708Y-48270342D01*
X87836708Y-48270342D02*
X87789089Y-48365580D01*
X87789089Y-48365580D02*
X87741470Y-48413200D01*
X87741470Y-48413200D02*
X87646232Y-48460819D01*
X87646232Y-48460819D02*
X87408137Y-48460819D01*
X87408137Y-48460819D02*
X87312899Y-48413200D01*
X87312899Y-48413200D02*
X87265280Y-48365580D01*
D13*
%TO.C,J1*%
X96547052Y-29006413D02*
X95887104Y-29008262D01*
X96547052Y-21235010D02*
X96547052Y-29006413D01*
X95887104Y-29008262D02*
X94293849Y-29009028D01*
X94293849Y-29009028D02*
X86323621Y-29009028D01*
X94293849Y-21232395D02*
X96547052Y-21235010D01*
D14*
X93455875Y-31716340D02*
X93451126Y-31716644D01*
X93455875Y-27225083D02*
X93455875Y-31716340D01*
X93451126Y-31716644D02*
X93437506Y-31716928D01*
X93437506Y-31716928D02*
X93387414Y-31717408D01*
X93437506Y-27224495D02*
X93455875Y-27225083D01*
X93387414Y-31717408D02*
X93313117Y-31717732D01*
X93387414Y-27224014D02*
X93437506Y-27224495D01*
X93313117Y-31717732D02*
X93222136Y-31717851D01*
D15*
X93306903Y-31418073D02*
X93303248Y-31418235D01*
X93306903Y-31418073D02*
X93303248Y-31418235D01*
X93306903Y-29023350D02*
X93306903Y-31418073D01*
X93306903Y-29023350D02*
X93306903Y-31418073D01*
X93303248Y-31418235D02*
X93292763Y-31418386D01*
X93303248Y-31418235D02*
X93292763Y-31418386D01*
X93292763Y-31418386D02*
X93254202Y-31418643D01*
X93292763Y-31418386D02*
X93254202Y-31418643D01*
X93254202Y-31418643D02*
X93126971Y-31418879D01*
X93254202Y-31418643D02*
X93126971Y-31418879D01*
X93254202Y-29022780D02*
X93306903Y-29023350D01*
X93254202Y-29022780D02*
X93306903Y-29023350D01*
D14*
X93222136Y-31717851D02*
X92395335Y-31717851D01*
X93222136Y-27223572D02*
X93387414Y-27224014D01*
D15*
X93126971Y-31418879D02*
X92490501Y-31418879D01*
X93126971Y-31418879D02*
X92490501Y-31418879D01*
X93126971Y-29022544D02*
X93254202Y-29022780D01*
X93126971Y-29022544D02*
X93254202Y-29022780D01*
X92490501Y-31418879D02*
X92363270Y-31418643D01*
X92490501Y-31418879D02*
X92363270Y-31418643D01*
X92490501Y-29022544D02*
X93126971Y-29022544D01*
X92490501Y-29022544D02*
X93126971Y-29022544D01*
D14*
X92395335Y-31717851D02*
X92230057Y-31717408D01*
X92395335Y-27223572D02*
X93222136Y-27223572D01*
D15*
X92363270Y-31418643D02*
X92310569Y-31418073D01*
X92363270Y-31418643D02*
X92310569Y-31418073D01*
X92363270Y-29022780D02*
X92490501Y-29022544D01*
X92363270Y-29022780D02*
X92490501Y-29022544D01*
X92324709Y-29023036D02*
X92363270Y-29022780D01*
X92324709Y-29023036D02*
X92363270Y-29022780D01*
X92314225Y-29023188D02*
X92324709Y-29023036D01*
X92314225Y-29023188D02*
X92324709Y-29023036D01*
X92310569Y-31418073D02*
X92310569Y-29023350D01*
X92310569Y-31418073D02*
X92310569Y-29023350D01*
X92310569Y-29023350D02*
X92314225Y-29023188D01*
X92310569Y-29023350D02*
X92314225Y-29023188D01*
D14*
X92304354Y-27223691D02*
X92395335Y-27223572D01*
X92230057Y-31717408D02*
X92179965Y-31716928D01*
X92230057Y-27224014D02*
X92304354Y-27223691D01*
X92179965Y-31716928D02*
X92161596Y-31716340D01*
X92179965Y-27224495D02*
X92230057Y-27224014D01*
X92166345Y-27224779D02*
X92179965Y-27224495D01*
X92161596Y-31716340D02*
X92161596Y-27225083D01*
X92161596Y-27225083D02*
X92166345Y-27224779D01*
X90955875Y-31716340D02*
X90951126Y-31716644D01*
X90955875Y-27225083D02*
X90955875Y-31716340D01*
X90951126Y-31716644D02*
X90937506Y-31716928D01*
X90937506Y-31716928D02*
X90887414Y-31717408D01*
X90937506Y-27224495D02*
X90955875Y-27225083D01*
X90887414Y-31717408D02*
X90813117Y-31717732D01*
X90887414Y-27224014D02*
X90937506Y-27224495D01*
X90813117Y-31717732D02*
X90722136Y-31717851D01*
D15*
X90806903Y-31418073D02*
X90803248Y-31418235D01*
X90806903Y-31418073D02*
X90803248Y-31418235D01*
X90806903Y-29023350D02*
X90806903Y-31418073D01*
X90806903Y-29023350D02*
X90806903Y-31418073D01*
X90803248Y-31418235D02*
X90792763Y-31418386D01*
X90803248Y-31418235D02*
X90792763Y-31418386D01*
X90792763Y-31418386D02*
X90754202Y-31418643D01*
X90792763Y-31418386D02*
X90754202Y-31418643D01*
X90754202Y-31418643D02*
X90626971Y-31418879D01*
X90754202Y-31418643D02*
X90626971Y-31418879D01*
X90754202Y-29022780D02*
X90806903Y-29023350D01*
X90754202Y-29022780D02*
X90806903Y-29023350D01*
D14*
X90722136Y-31717851D02*
X89895333Y-31717851D01*
X90722136Y-27223572D02*
X90887414Y-27224014D01*
D15*
X90626971Y-31418879D02*
X89990501Y-31418879D01*
X90626971Y-31418879D02*
X89990501Y-31418879D01*
X90626971Y-29022544D02*
X90754202Y-29022780D01*
X90626971Y-29022544D02*
X90754202Y-29022780D01*
X89990501Y-31418879D02*
X89863270Y-31418643D01*
X89990501Y-31418879D02*
X89863270Y-31418643D01*
X89990501Y-29022544D02*
X90626971Y-29022544D01*
X89990501Y-29022544D02*
X90626971Y-29022544D01*
D14*
X89895333Y-31717851D02*
X89730056Y-31717408D01*
X89895333Y-27223572D02*
X90722136Y-27223572D01*
D15*
X89863270Y-31418643D02*
X89810569Y-31418073D01*
X89863270Y-31418643D02*
X89810569Y-31418073D01*
X89863270Y-29022780D02*
X89990501Y-29022544D01*
X89863270Y-29022780D02*
X89990501Y-29022544D01*
X89824709Y-29023036D02*
X89863270Y-29022780D01*
X89824709Y-29023036D02*
X89863270Y-29022780D01*
X89814225Y-29023188D02*
X89824709Y-29023036D01*
X89814225Y-29023188D02*
X89824709Y-29023036D01*
X89810569Y-31418073D02*
X89810569Y-29023350D01*
X89810569Y-31418073D02*
X89810569Y-29023350D01*
X89810569Y-29023350D02*
X89814225Y-29023188D01*
X89810569Y-29023350D02*
X89814225Y-29023188D01*
D14*
X89804352Y-27223691D02*
X89895333Y-27223572D01*
X89730056Y-31717408D02*
X89679964Y-31716928D01*
X89730056Y-27224014D02*
X89804352Y-27223691D01*
X89679964Y-31716928D02*
X89661596Y-31716340D01*
X89679964Y-27224495D02*
X89730056Y-27224014D01*
X89666344Y-27224779D02*
X89679964Y-27224495D01*
X89661596Y-31716340D02*
X89661596Y-27225083D01*
X89661596Y-27225083D02*
X89666344Y-27224779D01*
X88455875Y-31716340D02*
X88451126Y-31716644D01*
X88455875Y-27225083D02*
X88455875Y-31716340D01*
X88451126Y-31716644D02*
X88437506Y-31716928D01*
X88437506Y-31716928D02*
X88387414Y-31717408D01*
X88437506Y-27224495D02*
X88455875Y-27225083D01*
X88387414Y-31717408D02*
X88313118Y-31717732D01*
X88387414Y-27224014D02*
X88437506Y-27224495D01*
X88313118Y-31717732D02*
X88222137Y-31717851D01*
D15*
X88306903Y-31418073D02*
X88303247Y-31418235D01*
X88306903Y-31418073D02*
X88303247Y-31418235D01*
X88306903Y-29023350D02*
X88306903Y-31418073D01*
X88306903Y-29023350D02*
X88306903Y-31418073D01*
X88303247Y-31418235D02*
X88292763Y-31418386D01*
X88303247Y-31418235D02*
X88292763Y-31418386D01*
X88292763Y-31418386D02*
X88254202Y-31418643D01*
X88292763Y-31418386D02*
X88254202Y-31418643D01*
X88254202Y-31418643D02*
X88126971Y-31418879D01*
X88254202Y-31418643D02*
X88126971Y-31418879D01*
X88254202Y-29022780D02*
X88306903Y-29023350D01*
X88254202Y-29022780D02*
X88306903Y-29023350D01*
D14*
X88222137Y-31717851D02*
X87395333Y-31717851D01*
X88222137Y-27223572D02*
X88387414Y-27224014D01*
D15*
X88126971Y-31418879D02*
X87490501Y-31418879D01*
X88126971Y-31418879D02*
X87490501Y-31418879D01*
X88126971Y-29022544D02*
X88254202Y-29022780D01*
X88126971Y-29022544D02*
X88254202Y-29022780D01*
X87490501Y-31418879D02*
X87363270Y-31418643D01*
X87490501Y-31418879D02*
X87363270Y-31418643D01*
X87490501Y-29022544D02*
X88126971Y-29022544D01*
X87490501Y-29022544D02*
X88126971Y-29022544D01*
D14*
X87395333Y-31717851D02*
X87230056Y-31717408D01*
X87395333Y-27223572D02*
X88222137Y-27223572D01*
D15*
X87363270Y-31418643D02*
X87310569Y-31418073D01*
X87363270Y-31418643D02*
X87310569Y-31418073D01*
X87363270Y-29022780D02*
X87490501Y-29022544D01*
X87363270Y-29022780D02*
X87490501Y-29022544D01*
X87324709Y-29023036D02*
X87363270Y-29022780D01*
X87324709Y-29023036D02*
X87363270Y-29022780D01*
X87314225Y-29023188D02*
X87324709Y-29023036D01*
X87314225Y-29023188D02*
X87324709Y-29023036D01*
X87310569Y-31418073D02*
X87310569Y-29023350D01*
X87310569Y-31418073D02*
X87310569Y-29023350D01*
X87310569Y-29023350D02*
X87314225Y-29023188D01*
X87310569Y-29023350D02*
X87314225Y-29023188D01*
D14*
X87304352Y-27223691D02*
X87395333Y-27223572D01*
X87230056Y-31717408D02*
X87179964Y-31716928D01*
X87230056Y-27224014D02*
X87304352Y-27223691D01*
X87179964Y-31716928D02*
X87161596Y-31716340D01*
X87179964Y-27224495D02*
X87230056Y-27224014D01*
X87166344Y-27224779D02*
X87179964Y-27224495D01*
X87161596Y-31716340D02*
X87161596Y-27225083D01*
X87161596Y-27225083D02*
X87166344Y-27224779D01*
D13*
X86323621Y-29009028D02*
X84070419Y-29006413D01*
X86323621Y-21232395D02*
X94293849Y-21232395D01*
X84730366Y-21233161D02*
X86323621Y-21232395D01*
X84070419Y-29006413D02*
X84070419Y-21235010D01*
X84070419Y-21235010D02*
X84730366Y-21233161D01*
D16*
X83738013Y-20724646D02*
X83807435Y-20724230D01*
D17*
%TO.C,C9*%
X94575746Y-40921000D02*
X94053242Y-40921000D01*
X94575746Y-42391000D02*
X94053242Y-42391000D01*
%TO.C,C8*%
X94053242Y-49249000D02*
X94575746Y-49249000D01*
X94053242Y-47779000D02*
X94575746Y-47779000D01*
%TO.C,C1*%
X72970994Y-35338000D02*
X72970994Y-39723000D01*
X75990994Y-35338000D02*
X72970994Y-35338000D01*
X75990994Y-39723000D02*
X75990994Y-35338000D01*
%TO.C,C6*%
X88479746Y-41048000D02*
X87957242Y-41048000D01*
X88479746Y-42518000D02*
X87957242Y-42518000D01*
%TO.C,U1*%
X81146994Y-41803000D02*
X79196994Y-41803000D01*
X81146994Y-41803000D02*
X83096994Y-41803000D01*
X81146994Y-36683000D02*
X77696994Y-36683000D01*
X81146994Y-36683000D02*
X83096994Y-36683000D01*
%TO.C,C3*%
X75215994Y-43927752D02*
X75215994Y-43405248D01*
X73745994Y-43927752D02*
X73745994Y-43405248D01*
%TO.C,C7*%
X67099994Y-42740000D02*
X60164994Y-42740000D01*
X67099994Y-46160000D02*
X67099994Y-42740000D01*
X60164994Y-46160000D02*
X67099994Y-46160000D01*
%TO.C,C2*%
X77539994Y-42805000D02*
X77539994Y-47190000D01*
X80559994Y-42805000D02*
X77539994Y-42805000D01*
X80559994Y-47190000D02*
X80559994Y-42805000D01*
%TO.C,D2*%
X70640994Y-45475000D02*
X70640994Y-43015000D01*
X69170994Y-45475000D02*
X70640994Y-45475000D01*
X69170994Y-43015000D02*
X69170994Y-45475000D01*
D18*
%TO.C,U3*%
X61140726Y-22001890D02*
X61140726Y-24615312D01*
X63582796Y-22001890D02*
X63582796Y-24615312D01*
X66024874Y-22001890D02*
X66024874Y-24615312D01*
X68466944Y-22001890D02*
X68466944Y-24615312D01*
X60190119Y-22002721D02*
X61142168Y-22002721D01*
X62632189Y-22002721D02*
X63584231Y-22002721D01*
X65074267Y-22002721D02*
X66026308Y-22002721D01*
X67516337Y-22002721D02*
X68468382Y-22002721D01*
X60190706Y-22003313D02*
X60190706Y-24616735D01*
X62632776Y-22003313D02*
X62632776Y-24616735D01*
X65074854Y-22003313D02*
X65074854Y-24616735D01*
X67516924Y-22003313D02*
X67516924Y-24616735D01*
X69935267Y-24664850D02*
X58723299Y-24664850D01*
X58722254Y-24665746D02*
X58524119Y-24695497D01*
X70095591Y-24694345D02*
X69874247Y-24664667D01*
X58524119Y-24695497D02*
X58354479Y-24814847D01*
X70285097Y-24813398D02*
X70095591Y-24694345D01*
X58354479Y-24814847D02*
X58241503Y-24994050D01*
X70411306Y-24992155D02*
X70285097Y-24813398D01*
X58241503Y-24994050D02*
X58213343Y-25203359D01*
X70442766Y-25200944D02*
X70411306Y-24992155D01*
X58212366Y-25204374D02*
X58212366Y-36387605D01*
X70446165Y-25204381D02*
X70446165Y-36387605D01*
X51758165Y-27332376D02*
X55076548Y-26923151D01*
X58164240Y-27343065D02*
X55130877Y-27343065D01*
X51751932Y-29724321D02*
X51751932Y-27336244D01*
X58162294Y-29724641D02*
X55128931Y-29724641D01*
X51755633Y-29732164D02*
X55076662Y-30137536D01*
X55083063Y-30137193D02*
X55083063Y-26923376D01*
X51794779Y-31839082D02*
X55074679Y-31425722D01*
X58163797Y-31845651D02*
X55130434Y-31845651D01*
X51795046Y-34226907D02*
X51795046Y-31838830D01*
X58161852Y-34227228D02*
X55128489Y-34227228D01*
X51798731Y-34230615D02*
X55074823Y-34640169D01*
X55082621Y-34639780D02*
X55082621Y-31425958D01*
X58212328Y-36387598D02*
X58240595Y-36586175D01*
X58240595Y-36586175D02*
X58354021Y-36756479D01*
X70417894Y-36586175D02*
X70446165Y-36387605D01*
X58354021Y-36756479D02*
X58524332Y-36870241D01*
X70304468Y-36756479D02*
X70417894Y-36586175D01*
X58524332Y-36870241D02*
X58723253Y-36898508D01*
X70134157Y-36870241D02*
X70304468Y-36756479D01*
X69935232Y-36898508D02*
X70134157Y-36870241D01*
X69935270Y-36898523D02*
X58723299Y-36898523D01*
X62632860Y-39548410D02*
X62632860Y-36934999D01*
X60190790Y-39548425D02*
X60190790Y-36934999D01*
X65074938Y-39548425D02*
X65074938Y-36934999D01*
X67517008Y-39548425D02*
X67517008Y-36934999D01*
X60190203Y-39549013D02*
X61142252Y-39549013D01*
X62632273Y-39549013D02*
X63584314Y-39549013D01*
X65074350Y-39549013D02*
X66026392Y-39549013D01*
X67516420Y-39549013D02*
X68468374Y-39549013D01*
X61140810Y-39549844D02*
X61140810Y-36936418D01*
X63582880Y-39549844D02*
X63582880Y-36936418D01*
X66024958Y-39549844D02*
X66024958Y-36936418D01*
X68467028Y-39549844D02*
X68467028Y-36936418D01*
D17*
%TO.C,J2*%
X96638994Y-37652000D02*
X96638994Y-34992000D01*
X93528994Y-37652000D02*
X96638994Y-37652000D01*
X92008994Y-37652000D02*
X92008994Y-39172000D01*
X91438994Y-37652000D02*
X92008994Y-37652000D01*
X91438994Y-37652000D02*
X91438994Y-34992000D01*
X96068994Y-34992000D02*
X96638994Y-34992000D01*
X91438994Y-34992000D02*
X94548994Y-34992000D01*
%TO.C,U2*%
X85753994Y-45036500D02*
X85753994Y-45686500D01*
X85753994Y-45036500D02*
X85753994Y-44386500D01*
X82633994Y-45036500D02*
X82633994Y-46711500D01*
X82633994Y-45036500D02*
X82633994Y-44386500D01*
%TO.C,R1*%
X79731994Y-28077936D02*
X79731994Y-28532064D01*
X81201994Y-28077936D02*
X81201994Y-28532064D01*
%TO.C,L1*%
X94040742Y-45795000D02*
X94563246Y-45795000D01*
X94040742Y-44375000D02*
X94563246Y-44375000D01*
%TO.C,C10*%
X72218994Y-29986248D02*
X72218994Y-30508752D01*
X73688994Y-29986248D02*
X73688994Y-30508752D01*
%TO.C,R2*%
X77044930Y-32993000D02*
X77499058Y-32993000D01*
X77044930Y-31523000D02*
X77499058Y-31523000D01*
%TO.C,D1*%
X83270994Y-32376000D02*
X83270994Y-34836000D01*
X84740994Y-32376000D02*
X83270994Y-32376000D01*
X84740994Y-34836000D02*
X84740994Y-32376000D01*
%TO.C,C4*%
X90020994Y-39863500D02*
X90020994Y-35778500D01*
X88150994Y-39863500D02*
X90020994Y-39863500D01*
X88150994Y-35778500D02*
X88150994Y-39863500D01*
%TO.C,C5*%
X88477994Y-45712748D02*
X88477994Y-46235252D01*
X89947994Y-45712748D02*
X89947994Y-46235252D01*
%TD*%
M02*
