%TF.GenerationSoftware,KiCad,Pcbnew,7.0.9*%
%TF.CreationDate,2023-11-10T13:40:12+01:00*%
%TF.ProjectId,MPX5100DP-SMD-board,4d505835-3130-4304-9450-2d534d442d62,1.1*%
%TF.SameCoordinates,Original*%
%TF.FileFunction,Drillmap*%
%TF.FilePolarity,Positive*%
%FSLAX45Y45*%
G04 Gerber Fmt 4.5, Leading zero omitted, Abs format (unit mm)*
G04 Created by KiCad (PCBNEW 7.0.9) date 2023-11-10 13:40:12*
%MOMM*%
%LPD*%
G01*
G04 APERTURE LIST*
%ADD10C,0.100000*%
%ADD11C,0.200000*%
%ADD12C,0.320000*%
G04 APERTURE END LIST*
D10*
X9848399Y-5676900D02*
X5809799Y-5676900D01*
X5809799Y-5384800D01*
X5809799Y-3543300D01*
X5809799Y-1981200D01*
X9848399Y-1981200D01*
X9848399Y-5676900D01*
D11*
D12*
X7224299Y-2176800D02*
X7544299Y-2496800D01*
X7544299Y-2176800D02*
X7224299Y-2496800D01*
X7224299Y-5110500D02*
X7544299Y-5430500D01*
X7544299Y-5110500D02*
X7224299Y-5430500D01*
D11*
X6065576Y-5993384D02*
X6065576Y-5793384D01*
X6065576Y-5793384D02*
X6113195Y-5793384D01*
X6113195Y-5793384D02*
X6141767Y-5802908D01*
X6141767Y-5802908D02*
X6160814Y-5821955D01*
X6160814Y-5821955D02*
X6170338Y-5841003D01*
X6170338Y-5841003D02*
X6179862Y-5879098D01*
X6179862Y-5879098D02*
X6179862Y-5907669D01*
X6179862Y-5907669D02*
X6170338Y-5945765D01*
X6170338Y-5945765D02*
X6160814Y-5964812D01*
X6160814Y-5964812D02*
X6141767Y-5983860D01*
X6141767Y-5983860D02*
X6113195Y-5993384D01*
X6113195Y-5993384D02*
X6065576Y-5993384D01*
X6265576Y-5993384D02*
X6265576Y-5860050D01*
X6265576Y-5898146D02*
X6275100Y-5879098D01*
X6275100Y-5879098D02*
X6284624Y-5869574D01*
X6284624Y-5869574D02*
X6303671Y-5860050D01*
X6303671Y-5860050D02*
X6322719Y-5860050D01*
X6389386Y-5993384D02*
X6389386Y-5860050D01*
X6389386Y-5793384D02*
X6379862Y-5802908D01*
X6379862Y-5802908D02*
X6389386Y-5812431D01*
X6389386Y-5812431D02*
X6398909Y-5802908D01*
X6398909Y-5802908D02*
X6389386Y-5793384D01*
X6389386Y-5793384D02*
X6389386Y-5812431D01*
X6513195Y-5993384D02*
X6494148Y-5983860D01*
X6494148Y-5983860D02*
X6484624Y-5964812D01*
X6484624Y-5964812D02*
X6484624Y-5793384D01*
X6617957Y-5993384D02*
X6598909Y-5983860D01*
X6598909Y-5983860D02*
X6589386Y-5964812D01*
X6589386Y-5964812D02*
X6589386Y-5793384D01*
X6846529Y-5993384D02*
X6846529Y-5793384D01*
X6846529Y-5793384D02*
X6913195Y-5936241D01*
X6913195Y-5936241D02*
X6979862Y-5793384D01*
X6979862Y-5793384D02*
X6979862Y-5993384D01*
X7160814Y-5993384D02*
X7160814Y-5888622D01*
X7160814Y-5888622D02*
X7151290Y-5869574D01*
X7151290Y-5869574D02*
X7132243Y-5860050D01*
X7132243Y-5860050D02*
X7094148Y-5860050D01*
X7094148Y-5860050D02*
X7075100Y-5869574D01*
X7160814Y-5983860D02*
X7141767Y-5993384D01*
X7141767Y-5993384D02*
X7094148Y-5993384D01*
X7094148Y-5993384D02*
X7075100Y-5983860D01*
X7075100Y-5983860D02*
X7065576Y-5964812D01*
X7065576Y-5964812D02*
X7065576Y-5945765D01*
X7065576Y-5945765D02*
X7075100Y-5926717D01*
X7075100Y-5926717D02*
X7094148Y-5917193D01*
X7094148Y-5917193D02*
X7141767Y-5917193D01*
X7141767Y-5917193D02*
X7160814Y-5907669D01*
X7256052Y-5860050D02*
X7256052Y-6060050D01*
X7256052Y-5869574D02*
X7275100Y-5860050D01*
X7275100Y-5860050D02*
X7313195Y-5860050D01*
X7313195Y-5860050D02*
X7332243Y-5869574D01*
X7332243Y-5869574D02*
X7341767Y-5879098D01*
X7341767Y-5879098D02*
X7351290Y-5898146D01*
X7351290Y-5898146D02*
X7351290Y-5955288D01*
X7351290Y-5955288D02*
X7341767Y-5974336D01*
X7341767Y-5974336D02*
X7332243Y-5983860D01*
X7332243Y-5983860D02*
X7313195Y-5993384D01*
X7313195Y-5993384D02*
X7275100Y-5993384D01*
X7275100Y-5993384D02*
X7256052Y-5983860D01*
X7437005Y-5974336D02*
X7446529Y-5983860D01*
X7446529Y-5983860D02*
X7437005Y-5993384D01*
X7437005Y-5993384D02*
X7427481Y-5983860D01*
X7427481Y-5983860D02*
X7437005Y-5974336D01*
X7437005Y-5974336D02*
X7437005Y-5993384D01*
X7437005Y-5869574D02*
X7446529Y-5879098D01*
X7446529Y-5879098D02*
X7437005Y-5888622D01*
X7437005Y-5888622D02*
X7427481Y-5879098D01*
X7427481Y-5879098D02*
X7437005Y-5869574D01*
X7437005Y-5869574D02*
X7437005Y-5888622D01*
X5604799Y-6221900D02*
X5804799Y-6421900D01*
X5804799Y-6221900D02*
X5604799Y-6421900D01*
X6046529Y-6213384D02*
X6170338Y-6213384D01*
X6170338Y-6213384D02*
X6103671Y-6289574D01*
X6103671Y-6289574D02*
X6132243Y-6289574D01*
X6132243Y-6289574D02*
X6151290Y-6299098D01*
X6151290Y-6299098D02*
X6160814Y-6308622D01*
X6160814Y-6308622D02*
X6170338Y-6327669D01*
X6170338Y-6327669D02*
X6170338Y-6375288D01*
X6170338Y-6375288D02*
X6160814Y-6394336D01*
X6160814Y-6394336D02*
X6151290Y-6403860D01*
X6151290Y-6403860D02*
X6132243Y-6413384D01*
X6132243Y-6413384D02*
X6075100Y-6413384D01*
X6075100Y-6413384D02*
X6056052Y-6403860D01*
X6056052Y-6403860D02*
X6046529Y-6394336D01*
X6256052Y-6394336D02*
X6265576Y-6403860D01*
X6265576Y-6403860D02*
X6256052Y-6413384D01*
X6256052Y-6413384D02*
X6246529Y-6403860D01*
X6246529Y-6403860D02*
X6256052Y-6394336D01*
X6256052Y-6394336D02*
X6256052Y-6413384D01*
X6341767Y-6232431D02*
X6351290Y-6222908D01*
X6351290Y-6222908D02*
X6370338Y-6213384D01*
X6370338Y-6213384D02*
X6417957Y-6213384D01*
X6417957Y-6213384D02*
X6437005Y-6222908D01*
X6437005Y-6222908D02*
X6446529Y-6232431D01*
X6446529Y-6232431D02*
X6456052Y-6251479D01*
X6456052Y-6251479D02*
X6456052Y-6270527D01*
X6456052Y-6270527D02*
X6446529Y-6299098D01*
X6446529Y-6299098D02*
X6332243Y-6413384D01*
X6332243Y-6413384D02*
X6456052Y-6413384D01*
X6579862Y-6213384D02*
X6598910Y-6213384D01*
X6598910Y-6213384D02*
X6617957Y-6222908D01*
X6617957Y-6222908D02*
X6627481Y-6232431D01*
X6627481Y-6232431D02*
X6637005Y-6251479D01*
X6637005Y-6251479D02*
X6646529Y-6289574D01*
X6646529Y-6289574D02*
X6646529Y-6337193D01*
X6646529Y-6337193D02*
X6637005Y-6375288D01*
X6637005Y-6375288D02*
X6627481Y-6394336D01*
X6627481Y-6394336D02*
X6617957Y-6403860D01*
X6617957Y-6403860D02*
X6598910Y-6413384D01*
X6598910Y-6413384D02*
X6579862Y-6413384D01*
X6579862Y-6413384D02*
X6560814Y-6403860D01*
X6560814Y-6403860D02*
X6551290Y-6394336D01*
X6551290Y-6394336D02*
X6541767Y-6375288D01*
X6541767Y-6375288D02*
X6532243Y-6337193D01*
X6532243Y-6337193D02*
X6532243Y-6289574D01*
X6532243Y-6289574D02*
X6541767Y-6251479D01*
X6541767Y-6251479D02*
X6551290Y-6232431D01*
X6551290Y-6232431D02*
X6560814Y-6222908D01*
X6560814Y-6222908D02*
X6579862Y-6213384D01*
X6770338Y-6213384D02*
X6789386Y-6213384D01*
X6789386Y-6213384D02*
X6808433Y-6222908D01*
X6808433Y-6222908D02*
X6817957Y-6232431D01*
X6817957Y-6232431D02*
X6827481Y-6251479D01*
X6827481Y-6251479D02*
X6837005Y-6289574D01*
X6837005Y-6289574D02*
X6837005Y-6337193D01*
X6837005Y-6337193D02*
X6827481Y-6375288D01*
X6827481Y-6375288D02*
X6817957Y-6394336D01*
X6817957Y-6394336D02*
X6808433Y-6403860D01*
X6808433Y-6403860D02*
X6789386Y-6413384D01*
X6789386Y-6413384D02*
X6770338Y-6413384D01*
X6770338Y-6413384D02*
X6751290Y-6403860D01*
X6751290Y-6403860D02*
X6741767Y-6394336D01*
X6741767Y-6394336D02*
X6732243Y-6375288D01*
X6732243Y-6375288D02*
X6722719Y-6337193D01*
X6722719Y-6337193D02*
X6722719Y-6289574D01*
X6722719Y-6289574D02*
X6732243Y-6251479D01*
X6732243Y-6251479D02*
X6741767Y-6232431D01*
X6741767Y-6232431D02*
X6751290Y-6222908D01*
X6751290Y-6222908D02*
X6770338Y-6213384D01*
X6922719Y-6413384D02*
X6922719Y-6280050D01*
X6922719Y-6299098D02*
X6932243Y-6289574D01*
X6932243Y-6289574D02*
X6951290Y-6280050D01*
X6951290Y-6280050D02*
X6979862Y-6280050D01*
X6979862Y-6280050D02*
X6998910Y-6289574D01*
X6998910Y-6289574D02*
X7008433Y-6308622D01*
X7008433Y-6308622D02*
X7008433Y-6413384D01*
X7008433Y-6308622D02*
X7017957Y-6289574D01*
X7017957Y-6289574D02*
X7037005Y-6280050D01*
X7037005Y-6280050D02*
X7065576Y-6280050D01*
X7065576Y-6280050D02*
X7084624Y-6289574D01*
X7084624Y-6289574D02*
X7094148Y-6308622D01*
X7094148Y-6308622D02*
X7094148Y-6413384D01*
X7189386Y-6413384D02*
X7189386Y-6280050D01*
X7189386Y-6299098D02*
X7198910Y-6289574D01*
X7198910Y-6289574D02*
X7217957Y-6280050D01*
X7217957Y-6280050D02*
X7246529Y-6280050D01*
X7246529Y-6280050D02*
X7265576Y-6289574D01*
X7265576Y-6289574D02*
X7275100Y-6308622D01*
X7275100Y-6308622D02*
X7275100Y-6413384D01*
X7275100Y-6308622D02*
X7284624Y-6289574D01*
X7284624Y-6289574D02*
X7303671Y-6280050D01*
X7303671Y-6280050D02*
X7332243Y-6280050D01*
X7332243Y-6280050D02*
X7351291Y-6289574D01*
X7351291Y-6289574D02*
X7360814Y-6308622D01*
X7360814Y-6308622D02*
X7360814Y-6413384D01*
X7751291Y-6203860D02*
X7579862Y-6461003D01*
X8008433Y-6213384D02*
X8027481Y-6213384D01*
X8027481Y-6213384D02*
X8046529Y-6222908D01*
X8046529Y-6222908D02*
X8056053Y-6232431D01*
X8056053Y-6232431D02*
X8065576Y-6251479D01*
X8065576Y-6251479D02*
X8075100Y-6289574D01*
X8075100Y-6289574D02*
X8075100Y-6337193D01*
X8075100Y-6337193D02*
X8065576Y-6375288D01*
X8065576Y-6375288D02*
X8056053Y-6394336D01*
X8056053Y-6394336D02*
X8046529Y-6403860D01*
X8046529Y-6403860D02*
X8027481Y-6413384D01*
X8027481Y-6413384D02*
X8008433Y-6413384D01*
X8008433Y-6413384D02*
X7989386Y-6403860D01*
X7989386Y-6403860D02*
X7979862Y-6394336D01*
X7979862Y-6394336D02*
X7970338Y-6375288D01*
X7970338Y-6375288D02*
X7960814Y-6337193D01*
X7960814Y-6337193D02*
X7960814Y-6289574D01*
X7960814Y-6289574D02*
X7970338Y-6251479D01*
X7970338Y-6251479D02*
X7979862Y-6232431D01*
X7979862Y-6232431D02*
X7989386Y-6222908D01*
X7989386Y-6222908D02*
X8008433Y-6213384D01*
X8160814Y-6394336D02*
X8170338Y-6403860D01*
X8170338Y-6403860D02*
X8160814Y-6413384D01*
X8160814Y-6413384D02*
X8151291Y-6403860D01*
X8151291Y-6403860D02*
X8160814Y-6394336D01*
X8160814Y-6394336D02*
X8160814Y-6413384D01*
X8360814Y-6413384D02*
X8246529Y-6413384D01*
X8303672Y-6413384D02*
X8303672Y-6213384D01*
X8303672Y-6213384D02*
X8284624Y-6241955D01*
X8284624Y-6241955D02*
X8265576Y-6261003D01*
X8265576Y-6261003D02*
X8246529Y-6270527D01*
X8437005Y-6232431D02*
X8446529Y-6222908D01*
X8446529Y-6222908D02*
X8465576Y-6213384D01*
X8465576Y-6213384D02*
X8513196Y-6213384D01*
X8513196Y-6213384D02*
X8532243Y-6222908D01*
X8532243Y-6222908D02*
X8541767Y-6232431D01*
X8541767Y-6232431D02*
X8551291Y-6251479D01*
X8551291Y-6251479D02*
X8551291Y-6270527D01*
X8551291Y-6270527D02*
X8541767Y-6299098D01*
X8541767Y-6299098D02*
X8427481Y-6413384D01*
X8427481Y-6413384D02*
X8551291Y-6413384D01*
X8722719Y-6213384D02*
X8684624Y-6213384D01*
X8684624Y-6213384D02*
X8665576Y-6222908D01*
X8665576Y-6222908D02*
X8656053Y-6232431D01*
X8656053Y-6232431D02*
X8637005Y-6261003D01*
X8637005Y-6261003D02*
X8627481Y-6299098D01*
X8627481Y-6299098D02*
X8627481Y-6375288D01*
X8627481Y-6375288D02*
X8637005Y-6394336D01*
X8637005Y-6394336D02*
X8646529Y-6403860D01*
X8646529Y-6403860D02*
X8665576Y-6413384D01*
X8665576Y-6413384D02*
X8703672Y-6413384D01*
X8703672Y-6413384D02*
X8722719Y-6403860D01*
X8722719Y-6403860D02*
X8732243Y-6394336D01*
X8732243Y-6394336D02*
X8741767Y-6375288D01*
X8741767Y-6375288D02*
X8741767Y-6327669D01*
X8741767Y-6327669D02*
X8732243Y-6308622D01*
X8732243Y-6308622D02*
X8722719Y-6299098D01*
X8722719Y-6299098D02*
X8703672Y-6289574D01*
X8703672Y-6289574D02*
X8665576Y-6289574D01*
X8665576Y-6289574D02*
X8646529Y-6299098D01*
X8646529Y-6299098D02*
X8637005Y-6308622D01*
X8637005Y-6308622D02*
X8627481Y-6327669D01*
X8865576Y-6213384D02*
X8884624Y-6213384D01*
X8884624Y-6213384D02*
X8903672Y-6222908D01*
X8903672Y-6222908D02*
X8913196Y-6232431D01*
X8913196Y-6232431D02*
X8922719Y-6251479D01*
X8922719Y-6251479D02*
X8932243Y-6289574D01*
X8932243Y-6289574D02*
X8932243Y-6337193D01*
X8932243Y-6337193D02*
X8922719Y-6375288D01*
X8922719Y-6375288D02*
X8913196Y-6394336D01*
X8913196Y-6394336D02*
X8903672Y-6403860D01*
X8903672Y-6403860D02*
X8884624Y-6413384D01*
X8884624Y-6413384D02*
X8865576Y-6413384D01*
X8865576Y-6413384D02*
X8846529Y-6403860D01*
X8846529Y-6403860D02*
X8837005Y-6394336D01*
X8837005Y-6394336D02*
X8827481Y-6375288D01*
X8827481Y-6375288D02*
X8817957Y-6337193D01*
X8817957Y-6337193D02*
X8817957Y-6289574D01*
X8817957Y-6289574D02*
X8827481Y-6251479D01*
X8827481Y-6251479D02*
X8837005Y-6232431D01*
X8837005Y-6232431D02*
X8846529Y-6222908D01*
X8846529Y-6222908D02*
X8865576Y-6213384D01*
X9008434Y-6213384D02*
X9008434Y-6251479D01*
X9084624Y-6213384D02*
X9084624Y-6251479D01*
X9379862Y-6489574D02*
X9370338Y-6480050D01*
X9370338Y-6480050D02*
X9351291Y-6451479D01*
X9351291Y-6451479D02*
X9341767Y-6432431D01*
X9341767Y-6432431D02*
X9332243Y-6403860D01*
X9332243Y-6403860D02*
X9322719Y-6356241D01*
X9322719Y-6356241D02*
X9322719Y-6318146D01*
X9322719Y-6318146D02*
X9332243Y-6270527D01*
X9332243Y-6270527D02*
X9341767Y-6241955D01*
X9341767Y-6241955D02*
X9351291Y-6222908D01*
X9351291Y-6222908D02*
X9370338Y-6194336D01*
X9370338Y-6194336D02*
X9379862Y-6184812D01*
X9446529Y-6232431D02*
X9456053Y-6222908D01*
X9456053Y-6222908D02*
X9475100Y-6213384D01*
X9475100Y-6213384D02*
X9522719Y-6213384D01*
X9522719Y-6213384D02*
X9541767Y-6222908D01*
X9541767Y-6222908D02*
X9551291Y-6232431D01*
X9551291Y-6232431D02*
X9560815Y-6251479D01*
X9560815Y-6251479D02*
X9560815Y-6270527D01*
X9560815Y-6270527D02*
X9551291Y-6299098D01*
X9551291Y-6299098D02*
X9437005Y-6413384D01*
X9437005Y-6413384D02*
X9560815Y-6413384D01*
X9798910Y-6413384D02*
X9798910Y-6213384D01*
X9884624Y-6413384D02*
X9884624Y-6308622D01*
X9884624Y-6308622D02*
X9875100Y-6289574D01*
X9875100Y-6289574D02*
X9856053Y-6280050D01*
X9856053Y-6280050D02*
X9827481Y-6280050D01*
X9827481Y-6280050D02*
X9808434Y-6289574D01*
X9808434Y-6289574D02*
X9798910Y-6299098D01*
X10008434Y-6413384D02*
X9989386Y-6403860D01*
X9989386Y-6403860D02*
X9979862Y-6394336D01*
X9979862Y-6394336D02*
X9970339Y-6375288D01*
X9970339Y-6375288D02*
X9970339Y-6318146D01*
X9970339Y-6318146D02*
X9979862Y-6299098D01*
X9979862Y-6299098D02*
X9989386Y-6289574D01*
X9989386Y-6289574D02*
X10008434Y-6280050D01*
X10008434Y-6280050D02*
X10037005Y-6280050D01*
X10037005Y-6280050D02*
X10056053Y-6289574D01*
X10056053Y-6289574D02*
X10065577Y-6299098D01*
X10065577Y-6299098D02*
X10075100Y-6318146D01*
X10075100Y-6318146D02*
X10075100Y-6375288D01*
X10075100Y-6375288D02*
X10065577Y-6394336D01*
X10065577Y-6394336D02*
X10056053Y-6403860D01*
X10056053Y-6403860D02*
X10037005Y-6413384D01*
X10037005Y-6413384D02*
X10008434Y-6413384D01*
X10189386Y-6413384D02*
X10170339Y-6403860D01*
X10170339Y-6403860D02*
X10160815Y-6384812D01*
X10160815Y-6384812D02*
X10160815Y-6213384D01*
X10341767Y-6403860D02*
X10322720Y-6413384D01*
X10322720Y-6413384D02*
X10284624Y-6413384D01*
X10284624Y-6413384D02*
X10265577Y-6403860D01*
X10265577Y-6403860D02*
X10256053Y-6384812D01*
X10256053Y-6384812D02*
X10256053Y-6308622D01*
X10256053Y-6308622D02*
X10265577Y-6289574D01*
X10265577Y-6289574D02*
X10284624Y-6280050D01*
X10284624Y-6280050D02*
X10322720Y-6280050D01*
X10322720Y-6280050D02*
X10341767Y-6289574D01*
X10341767Y-6289574D02*
X10351291Y-6308622D01*
X10351291Y-6308622D02*
X10351291Y-6327669D01*
X10351291Y-6327669D02*
X10256053Y-6346717D01*
X10427481Y-6403860D02*
X10446529Y-6413384D01*
X10446529Y-6413384D02*
X10484624Y-6413384D01*
X10484624Y-6413384D02*
X10503672Y-6403860D01*
X10503672Y-6403860D02*
X10513196Y-6384812D01*
X10513196Y-6384812D02*
X10513196Y-6375288D01*
X10513196Y-6375288D02*
X10503672Y-6356241D01*
X10503672Y-6356241D02*
X10484624Y-6346717D01*
X10484624Y-6346717D02*
X10456053Y-6346717D01*
X10456053Y-6346717D02*
X10437005Y-6337193D01*
X10437005Y-6337193D02*
X10427481Y-6318146D01*
X10427481Y-6318146D02*
X10427481Y-6308622D01*
X10427481Y-6308622D02*
X10437005Y-6289574D01*
X10437005Y-6289574D02*
X10456053Y-6280050D01*
X10456053Y-6280050D02*
X10484624Y-6280050D01*
X10484624Y-6280050D02*
X10503672Y-6289574D01*
X10579862Y-6489574D02*
X10589386Y-6480050D01*
X10589386Y-6480050D02*
X10608434Y-6451479D01*
X10608434Y-6451479D02*
X10617958Y-6432431D01*
X10617958Y-6432431D02*
X10627481Y-6403860D01*
X10627481Y-6403860D02*
X10637005Y-6356241D01*
X10637005Y-6356241D02*
X10637005Y-6318146D01*
X10637005Y-6318146D02*
X10627481Y-6270527D01*
X10627481Y-6270527D02*
X10617958Y-6241955D01*
X10617958Y-6241955D02*
X10608434Y-6222908D01*
X10608434Y-6222908D02*
X10589386Y-6194336D01*
X10589386Y-6194336D02*
X10579862Y-6184812D01*
X10941767Y-6489574D02*
X10932243Y-6480050D01*
X10932243Y-6480050D02*
X10913196Y-6451479D01*
X10913196Y-6451479D02*
X10903672Y-6432431D01*
X10903672Y-6432431D02*
X10894148Y-6403860D01*
X10894148Y-6403860D02*
X10884624Y-6356241D01*
X10884624Y-6356241D02*
X10884624Y-6318146D01*
X10884624Y-6318146D02*
X10894148Y-6270527D01*
X10894148Y-6270527D02*
X10903672Y-6241955D01*
X10903672Y-6241955D02*
X10913196Y-6222908D01*
X10913196Y-6222908D02*
X10932243Y-6194336D01*
X10932243Y-6194336D02*
X10941767Y-6184812D01*
X11017958Y-6280050D02*
X11017958Y-6413384D01*
X11017958Y-6299098D02*
X11027481Y-6289574D01*
X11027481Y-6289574D02*
X11046529Y-6280050D01*
X11046529Y-6280050D02*
X11075101Y-6280050D01*
X11075101Y-6280050D02*
X11094148Y-6289574D01*
X11094148Y-6289574D02*
X11103672Y-6308622D01*
X11103672Y-6308622D02*
X11103672Y-6413384D01*
X11227481Y-6413384D02*
X11208434Y-6403860D01*
X11208434Y-6403860D02*
X11198910Y-6394336D01*
X11198910Y-6394336D02*
X11189386Y-6375288D01*
X11189386Y-6375288D02*
X11189386Y-6318146D01*
X11189386Y-6318146D02*
X11198910Y-6299098D01*
X11198910Y-6299098D02*
X11208434Y-6289574D01*
X11208434Y-6289574D02*
X11227481Y-6280050D01*
X11227481Y-6280050D02*
X11256053Y-6280050D01*
X11256053Y-6280050D02*
X11275100Y-6289574D01*
X11275100Y-6289574D02*
X11284624Y-6299098D01*
X11284624Y-6299098D02*
X11294148Y-6318146D01*
X11294148Y-6318146D02*
X11294148Y-6375288D01*
X11294148Y-6375288D02*
X11284624Y-6394336D01*
X11284624Y-6394336D02*
X11275100Y-6403860D01*
X11275100Y-6403860D02*
X11256053Y-6413384D01*
X11256053Y-6413384D02*
X11227481Y-6413384D01*
X11351291Y-6280050D02*
X11427481Y-6280050D01*
X11379862Y-6213384D02*
X11379862Y-6384812D01*
X11379862Y-6384812D02*
X11389386Y-6403860D01*
X11389386Y-6403860D02*
X11408434Y-6413384D01*
X11408434Y-6413384D02*
X11427481Y-6413384D01*
X11646529Y-6280050D02*
X11646529Y-6480050D01*
X11646529Y-6289574D02*
X11665577Y-6280050D01*
X11665577Y-6280050D02*
X11703672Y-6280050D01*
X11703672Y-6280050D02*
X11722720Y-6289574D01*
X11722720Y-6289574D02*
X11732243Y-6299098D01*
X11732243Y-6299098D02*
X11741767Y-6318146D01*
X11741767Y-6318146D02*
X11741767Y-6375288D01*
X11741767Y-6375288D02*
X11732243Y-6394336D01*
X11732243Y-6394336D02*
X11722720Y-6403860D01*
X11722720Y-6403860D02*
X11703672Y-6413384D01*
X11703672Y-6413384D02*
X11665577Y-6413384D01*
X11665577Y-6413384D02*
X11646529Y-6403860D01*
X11856053Y-6413384D02*
X11837005Y-6403860D01*
X11837005Y-6403860D02*
X11827481Y-6384812D01*
X11827481Y-6384812D02*
X11827481Y-6213384D01*
X12017958Y-6413384D02*
X12017958Y-6308622D01*
X12017958Y-6308622D02*
X12008434Y-6289574D01*
X12008434Y-6289574D02*
X11989386Y-6280050D01*
X11989386Y-6280050D02*
X11951291Y-6280050D01*
X11951291Y-6280050D02*
X11932243Y-6289574D01*
X12017958Y-6403860D02*
X11998910Y-6413384D01*
X11998910Y-6413384D02*
X11951291Y-6413384D01*
X11951291Y-6413384D02*
X11932243Y-6403860D01*
X11932243Y-6403860D02*
X11922720Y-6384812D01*
X11922720Y-6384812D02*
X11922720Y-6365765D01*
X11922720Y-6365765D02*
X11932243Y-6346717D01*
X11932243Y-6346717D02*
X11951291Y-6337193D01*
X11951291Y-6337193D02*
X11998910Y-6337193D01*
X11998910Y-6337193D02*
X12017958Y-6327669D01*
X12084624Y-6280050D02*
X12160815Y-6280050D01*
X12113196Y-6213384D02*
X12113196Y-6384812D01*
X12113196Y-6384812D02*
X12122720Y-6403860D01*
X12122720Y-6403860D02*
X12141767Y-6413384D01*
X12141767Y-6413384D02*
X12160815Y-6413384D01*
X12303672Y-6403860D02*
X12284624Y-6413384D01*
X12284624Y-6413384D02*
X12246529Y-6413384D01*
X12246529Y-6413384D02*
X12227481Y-6403860D01*
X12227481Y-6403860D02*
X12217958Y-6384812D01*
X12217958Y-6384812D02*
X12217958Y-6308622D01*
X12217958Y-6308622D02*
X12227481Y-6289574D01*
X12227481Y-6289574D02*
X12246529Y-6280050D01*
X12246529Y-6280050D02*
X12284624Y-6280050D01*
X12284624Y-6280050D02*
X12303672Y-6289574D01*
X12303672Y-6289574D02*
X12313196Y-6308622D01*
X12313196Y-6308622D02*
X12313196Y-6327669D01*
X12313196Y-6327669D02*
X12217958Y-6346717D01*
X12484624Y-6413384D02*
X12484624Y-6213384D01*
X12484624Y-6403860D02*
X12465577Y-6413384D01*
X12465577Y-6413384D02*
X12427481Y-6413384D01*
X12427481Y-6413384D02*
X12408434Y-6403860D01*
X12408434Y-6403860D02*
X12398910Y-6394336D01*
X12398910Y-6394336D02*
X12389386Y-6375288D01*
X12389386Y-6375288D02*
X12389386Y-6318146D01*
X12389386Y-6318146D02*
X12398910Y-6299098D01*
X12398910Y-6299098D02*
X12408434Y-6289574D01*
X12408434Y-6289574D02*
X12427481Y-6280050D01*
X12427481Y-6280050D02*
X12465577Y-6280050D01*
X12465577Y-6280050D02*
X12484624Y-6289574D01*
X12560815Y-6489574D02*
X12570339Y-6480050D01*
X12570339Y-6480050D02*
X12589386Y-6451479D01*
X12589386Y-6451479D02*
X12598910Y-6432431D01*
X12598910Y-6432431D02*
X12608434Y-6403860D01*
X12608434Y-6403860D02*
X12617958Y-6356241D01*
X12617958Y-6356241D02*
X12617958Y-6318146D01*
X12617958Y-6318146D02*
X12608434Y-6270527D01*
X12608434Y-6270527D02*
X12598910Y-6241955D01*
X12598910Y-6241955D02*
X12589386Y-6222908D01*
X12589386Y-6222908D02*
X12570339Y-6194336D01*
X12570339Y-6194336D02*
X12560815Y-6184812D01*
M02*
