%TF.GenerationSoftware,KiCad,Pcbnew,7.0.9*%
%TF.CreationDate,2023-12-11T11:25:51+01:00*%
%TF.ProjectId,3v3To5vPowerSupply,33763354-6f35-4765-906f-776572537570,1.1*%
%TF.SameCoordinates,Original*%
%TF.FileFunction,Copper,L1,Top*%
%TF.FilePolarity,Positive*%
%FSLAX46Y46*%
G04 Gerber Fmt 4.6, Leading zero omitted, Abs format (unit mm)*
G04 Created by KiCad (PCBNEW 7.0.9) date 2023-12-11 11:25:51*
%MOMM*%
%LPD*%
G01*
G04 APERTURE LIST*
G04 Aperture macros list*
%AMRoundRect*
0 Rectangle with rounded corners*
0 $1 Rounding radius*
0 $2 $3 $4 $5 $6 $7 $8 $9 X,Y pos of 4 corners*
0 Add a 4 corners polygon primitive as box body*
4,1,4,$2,$3,$4,$5,$6,$7,$8,$9,$2,$3,0*
0 Add four circle primitives for the rounded corners*
1,1,$1+$1,$2,$3*
1,1,$1+$1,$4,$5*
1,1,$1+$1,$6,$7*
1,1,$1+$1,$8,$9*
0 Add four rect primitives between the rounded corners*
20,1,$1+$1,$2,$3,$4,$5,0*
20,1,$1+$1,$4,$5,$6,$7,0*
20,1,$1+$1,$6,$7,$8,$9,0*
20,1,$1+$1,$8,$9,$2,$3,0*%
G04 Aperture macros list end*
%TA.AperFunction,ComponentPad*%
%ADD10R,1.100000X1.800000*%
%TD*%
%TA.AperFunction,ComponentPad*%
%ADD11RoundRect,0.275000X-0.275000X-0.625000X0.275000X-0.625000X0.275000X0.625000X-0.275000X0.625000X0*%
%TD*%
%TA.AperFunction,ComponentPad*%
%ADD12O,1.700000X1.700000*%
%TD*%
%TA.AperFunction,ComponentPad*%
%ADD13R,1.700000X1.700000*%
%TD*%
%TA.AperFunction,ComponentPad*%
%ADD14RoundRect,0.250000X-0.725000X0.600000X-0.725000X-0.600000X0.725000X-0.600000X0.725000X0.600000X0*%
%TD*%
%TA.AperFunction,ComponentPad*%
%ADD15O,1.950000X1.700000*%
%TD*%
%TA.AperFunction,ComponentPad*%
%ADD16C,1.600000*%
%TD*%
%TA.AperFunction,ComponentPad*%
%ADD17R,1.600000X1.600000*%
%TD*%
%TA.AperFunction,ComponentPad*%
%ADD18R,2.000000X2.000000*%
%TD*%
%TA.AperFunction,ComponentPad*%
%ADD19O,2.000000X2.000000*%
%TD*%
%TA.AperFunction,ComponentPad*%
%ADD20O,1.600000X1.600000*%
%TD*%
G04 APERTURE END LIST*
D10*
%TO.P,U3,1,GND*%
%TO.N,GND*%
X74803000Y-27451000D03*
D11*
%TO.P,U3,2,VI*%
%TO.N,Net-(D2-K)*%
X76073000Y-25381000D03*
%TO.P,U3,3,VO*%
%TO.N,Net-(J2-Pin_1)*%
X77343000Y-27451000D03*
%TD*%
D12*
%TO.P,J2,2,Pin_2*%
%TO.N,Net-(J2-Pin_2)*%
X57785000Y-25273000D03*
D13*
%TO.P,J2,1,Pin_1*%
%TO.N,Net-(J2-Pin_1)*%
X57785000Y-22733000D03*
%TD*%
D14*
%TO.P,J3,1,Pin_1*%
%TO.N,GND*%
X58207144Y-30648144D03*
D15*
%TO.P,J3,2,Pin_2*%
%TO.N,Net-(J1-Signal)*%
X58207144Y-33148144D03*
%TO.P,J3,3,Pin_3*%
%TO.N,Net-(J2-Pin_2)*%
X58207144Y-35648144D03*
%TD*%
D16*
%TO.P,C9,1*%
%TO.N,Net-(J2-Pin_2)*%
X71882000Y-34417000D03*
%TO.P,C9,2*%
%TO.N,GND*%
X71882000Y-39417000D03*
%TD*%
%TO.P,C8,1*%
%TO.N,Net-(J2-Pin_2)*%
X69963544Y-30216344D03*
%TO.P,C8,2*%
%TO.N,GND*%
X64963544Y-30216344D03*
%TD*%
D17*
%TO.P,C1,1*%
%TO.N,Net-(D1-K)*%
X79756000Y-44109000D03*
D16*
%TO.P,C1,2*%
%TO.N,Net-(U1-CAP+)*%
X79756000Y-46609000D03*
%TD*%
%TO.P,C6,1*%
%TO.N,Net-(J2-Pin_1)*%
X69770000Y-25908000D03*
%TO.P,C6,2*%
%TO.N,GND*%
X64770000Y-25908000D03*
%TD*%
%TO.P,C3,1*%
%TO.N,Net-(D2-K)*%
X80391000Y-22606000D03*
%TO.P,C3,2*%
%TO.N,GND*%
X85391000Y-22606000D03*
%TD*%
D17*
%TO.P,C7,1*%
%TO.N,Net-(J2-Pin_2)*%
X65532000Y-35624888D03*
D16*
%TO.P,C7,2*%
%TO.N,GND*%
X65532000Y-38124888D03*
%TD*%
D17*
%TO.P,C2,1*%
%TO.N,Net-(D2-K)*%
X72729856Y-20574000D03*
D16*
%TO.P,C2,2*%
%TO.N,GND*%
X70229856Y-20574000D03*
%TD*%
D18*
%TO.P,D2,1,K*%
%TO.N,Net-(D2-K)*%
X80457544Y-31587944D03*
D19*
%TO.P,D2,2,A*%
%TO.N,Net-(D1-K)*%
X80457544Y-36667944D03*
%TD*%
D14*
%TO.P,J1,1,GND*%
%TO.N,GND*%
X58207144Y-42205144D03*
D15*
%TO.P,J1,2,Signal*%
%TO.N,Net-(J1-Signal)*%
X58207144Y-44705144D03*
%TO.P,J1,3,3.3V*%
%TO.N,+3.3V*%
X58207144Y-47205144D03*
%TD*%
D17*
%TO.P,U1,1,NC*%
%TO.N,unconnected-(U1-NC-Pad1)*%
X65796000Y-50155000D03*
D20*
%TO.P,U1,2,CAP+*%
%TO.N,Net-(U1-CAP+)*%
X68336000Y-50155000D03*
%TO.P,U1,3,GND*%
%TO.N,GND*%
X70876000Y-50155000D03*
%TO.P,U1,4,CAP-*%
%TO.N,unconnected-(U1-CAP--Pad4)*%
X73416000Y-50155000D03*
%TO.P,U1,5,VOUT*%
%TO.N,GND*%
X73416000Y-42535000D03*
%TO.P,U1,6,LV*%
X70876000Y-42535000D03*
%TO.P,U1,7,OSC*%
%TO.N,unconnected-(U1-OSC-Pad7)*%
X68336000Y-42535000D03*
%TO.P,U1,8,V+*%
%TO.N,+3.3V*%
X65796000Y-42535000D03*
%TD*%
D18*
%TO.P,D1,1,K*%
%TO.N,Net-(D1-K)*%
X76037944Y-32400744D03*
D19*
%TO.P,D1,2,A*%
%TO.N,+3.3V*%
X76037944Y-37480744D03*
%TD*%
D17*
%TO.P,C4,1*%
%TO.N,Net-(J2-Pin_1)*%
X64262000Y-19391000D03*
D16*
%TO.P,C4,2*%
%TO.N,GND*%
X64262000Y-16891000D03*
%TD*%
%TO.P,C5,1*%
%TO.N,Net-(J2-Pin_1)*%
X73827000Y-15748000D03*
%TO.P,C5,2*%
%TO.N,GND*%
X78827000Y-15748000D03*
%TD*%
M02*
