%TF.GenerationSoftware,KiCad,Pcbnew,7.0.9*%
%TF.CreationDate,2023-12-11T11:25:51+01:00*%
%TF.ProjectId,3v3To5vPowerSupply,33763354-6f35-4765-906f-776572537570,1.1*%
%TF.SameCoordinates,Original*%
%TF.FileFunction,Copper,L2,Bot*%
%TF.FilePolarity,Positive*%
%FSLAX46Y46*%
G04 Gerber Fmt 4.6, Leading zero omitted, Abs format (unit mm)*
G04 Created by KiCad (PCBNEW 7.0.9) date 2023-12-11 11:25:51*
%MOMM*%
%LPD*%
G01*
G04 APERTURE LIST*
G04 Aperture macros list*
%AMRoundRect*
0 Rectangle with rounded corners*
0 $1 Rounding radius*
0 $2 $3 $4 $5 $6 $7 $8 $9 X,Y pos of 4 corners*
0 Add a 4 corners polygon primitive as box body*
4,1,4,$2,$3,$4,$5,$6,$7,$8,$9,$2,$3,0*
0 Add four circle primitives for the rounded corners*
1,1,$1+$1,$2,$3*
1,1,$1+$1,$4,$5*
1,1,$1+$1,$6,$7*
1,1,$1+$1,$8,$9*
0 Add four rect primitives between the rounded corners*
20,1,$1+$1,$2,$3,$4,$5,0*
20,1,$1+$1,$4,$5,$6,$7,0*
20,1,$1+$1,$6,$7,$8,$9,0*
20,1,$1+$1,$8,$9,$2,$3,0*%
G04 Aperture macros list end*
%TA.AperFunction,ComponentPad*%
%ADD10R,1.100000X1.800000*%
%TD*%
%TA.AperFunction,ComponentPad*%
%ADD11RoundRect,0.275000X-0.275000X-0.625000X0.275000X-0.625000X0.275000X0.625000X-0.275000X0.625000X0*%
%TD*%
%TA.AperFunction,ComponentPad*%
%ADD12O,1.700000X1.700000*%
%TD*%
%TA.AperFunction,ComponentPad*%
%ADD13R,1.700000X1.700000*%
%TD*%
%TA.AperFunction,ComponentPad*%
%ADD14RoundRect,0.250000X-0.725000X0.600000X-0.725000X-0.600000X0.725000X-0.600000X0.725000X0.600000X0*%
%TD*%
%TA.AperFunction,ComponentPad*%
%ADD15O,1.950000X1.700000*%
%TD*%
%TA.AperFunction,ComponentPad*%
%ADD16C,1.600000*%
%TD*%
%TA.AperFunction,ComponentPad*%
%ADD17R,1.600000X1.600000*%
%TD*%
%TA.AperFunction,ComponentPad*%
%ADD18R,2.000000X2.000000*%
%TD*%
%TA.AperFunction,ComponentPad*%
%ADD19O,2.000000X2.000000*%
%TD*%
%TA.AperFunction,ComponentPad*%
%ADD20O,1.600000X1.600000*%
%TD*%
%TA.AperFunction,SMDPad,CuDef*%
%ADD21RoundRect,0.250001X0.462499X0.624999X-0.462499X0.624999X-0.462499X-0.624999X0.462499X-0.624999X0*%
%TD*%
%TA.AperFunction,Conductor*%
%ADD22C,0.250000*%
%TD*%
%TA.AperFunction,Conductor*%
%ADD23C,0.800000*%
%TD*%
G04 APERTURE END LIST*
D10*
%TO.P,U3,1,GND*%
%TO.N,GND*%
X74803000Y-27451000D03*
D11*
%TO.P,U3,2,VI*%
%TO.N,Net-(D2-K)*%
X76073000Y-25381000D03*
%TO.P,U3,3,VO*%
%TO.N,Net-(J2-Pin_1)*%
X77343000Y-27451000D03*
%TD*%
D12*
%TO.P,J2,2,Pin_2*%
%TO.N,Net-(J2-Pin_2)*%
X57785000Y-25273000D03*
D13*
%TO.P,J2,1,Pin_1*%
%TO.N,Net-(J2-Pin_1)*%
X57785000Y-22733000D03*
%TD*%
D14*
%TO.P,J3,1,Pin_1*%
%TO.N,GND*%
X58207144Y-30648144D03*
D15*
%TO.P,J3,2,Pin_2*%
%TO.N,Net-(J1-Signal)*%
X58207144Y-33148144D03*
%TO.P,J3,3,Pin_3*%
%TO.N,Net-(J2-Pin_2)*%
X58207144Y-35648144D03*
%TD*%
D16*
%TO.P,C9,1*%
%TO.N,Net-(J2-Pin_2)*%
X71882000Y-34417000D03*
%TO.P,C9,2*%
%TO.N,GND*%
X71882000Y-39417000D03*
%TD*%
%TO.P,C8,1*%
%TO.N,Net-(J2-Pin_2)*%
X69963544Y-30216344D03*
%TO.P,C8,2*%
%TO.N,GND*%
X64963544Y-30216344D03*
%TD*%
D17*
%TO.P,C1,1*%
%TO.N,Net-(D1-K)*%
X79756000Y-44109000D03*
D16*
%TO.P,C1,2*%
%TO.N,Net-(U1-CAP+)*%
X79756000Y-46609000D03*
%TD*%
%TO.P,C6,1*%
%TO.N,Net-(J2-Pin_1)*%
X69770000Y-25908000D03*
%TO.P,C6,2*%
%TO.N,GND*%
X64770000Y-25908000D03*
%TD*%
%TO.P,C3,1*%
%TO.N,Net-(D2-K)*%
X80391000Y-22606000D03*
%TO.P,C3,2*%
%TO.N,GND*%
X85391000Y-22606000D03*
%TD*%
D17*
%TO.P,C7,1*%
%TO.N,Net-(J2-Pin_2)*%
X65532000Y-35624888D03*
D16*
%TO.P,C7,2*%
%TO.N,GND*%
X65532000Y-38124888D03*
%TD*%
D17*
%TO.P,C2,1*%
%TO.N,Net-(D2-K)*%
X72729856Y-20574000D03*
D16*
%TO.P,C2,2*%
%TO.N,GND*%
X70229856Y-20574000D03*
%TD*%
D18*
%TO.P,D2,1,K*%
%TO.N,Net-(D2-K)*%
X80457544Y-31587944D03*
D19*
%TO.P,D2,2,A*%
%TO.N,Net-(D1-K)*%
X80457544Y-36667944D03*
%TD*%
D14*
%TO.P,J1,1,GND*%
%TO.N,GND*%
X58207144Y-42205144D03*
D15*
%TO.P,J1,2,Signal*%
%TO.N,Net-(J1-Signal)*%
X58207144Y-44705144D03*
%TO.P,J1,3,3.3V*%
%TO.N,+3.3V*%
X58207144Y-47205144D03*
%TD*%
D17*
%TO.P,U1,1,NC*%
%TO.N,unconnected-(U1-NC-Pad1)*%
X65796000Y-50155000D03*
D20*
%TO.P,U1,2,CAP+*%
%TO.N,Net-(U1-CAP+)*%
X68336000Y-50155000D03*
%TO.P,U1,3,GND*%
%TO.N,GND*%
X70876000Y-50155000D03*
%TO.P,U1,4,CAP-*%
%TO.N,unconnected-(U1-CAP--Pad4)*%
X73416000Y-50155000D03*
%TO.P,U1,5,VOUT*%
%TO.N,GND*%
X73416000Y-42535000D03*
%TO.P,U1,6,LV*%
X70876000Y-42535000D03*
%TO.P,U1,7,OSC*%
%TO.N,unconnected-(U1-OSC-Pad7)*%
X68336000Y-42535000D03*
%TO.P,U1,8,V+*%
%TO.N,+3.3V*%
X65796000Y-42535000D03*
%TD*%
D18*
%TO.P,D1,1,K*%
%TO.N,Net-(D1-K)*%
X76037944Y-32400744D03*
D19*
%TO.P,D1,2,A*%
%TO.N,+3.3V*%
X76037944Y-37480744D03*
%TD*%
D17*
%TO.P,C4,1*%
%TO.N,Net-(J2-Pin_1)*%
X64262000Y-19391000D03*
D16*
%TO.P,C4,2*%
%TO.N,GND*%
X64262000Y-16891000D03*
%TD*%
%TO.P,C5,1*%
%TO.N,Net-(J2-Pin_1)*%
X73827000Y-15748000D03*
%TO.P,C5,2*%
%TO.N,GND*%
X78827000Y-15748000D03*
%TD*%
D21*
%TO.P,L1,1*%
%TO.N,Net-(J2-Pin_1)*%
X66167000Y-22352000D03*
%TO.P,L1,2*%
%TO.N,Net-(J2-Pin_2)*%
X63192000Y-22352000D03*
%TD*%
D22*
%TO.N,Net-(D2-K)*%
X80457544Y-31587944D02*
X80457544Y-27117544D01*
X80457544Y-27117544D02*
X78994000Y-25654000D01*
X76073000Y-25654000D02*
X76073000Y-20574000D01*
X78994000Y-25654000D02*
X76073000Y-25654000D01*
%TO.N,Net-(J2-Pin_1)*%
X69770000Y-25908000D02*
X73453000Y-29591000D01*
X77343000Y-29083000D02*
X77343000Y-27940000D01*
X73453000Y-29591000D02*
X76835000Y-29591000D01*
X76835000Y-29591000D02*
X77343000Y-29083000D01*
%TO.N,Net-(D2-K)*%
X72729856Y-20574000D02*
X78359000Y-20574000D01*
X78359000Y-20574000D02*
X80391000Y-22606000D01*
%TO.N,Net-(D1-K)*%
X79756000Y-37369488D02*
X80457544Y-36667944D01*
X79756000Y-44109000D02*
X79756000Y-37369488D01*
X76037944Y-32400744D02*
X80305144Y-36667944D01*
%TO.N,Net-(U1-CAP+)*%
X68662288Y-46863000D02*
X76835000Y-46863000D01*
X77343000Y-47371000D02*
X78994000Y-47371000D01*
X78994000Y-47371000D02*
X79756000Y-46609000D01*
X76835000Y-46863000D02*
X77343000Y-47371000D01*
X68336000Y-50155000D02*
X68336000Y-47189288D01*
X68336000Y-47189288D02*
X68662288Y-46863000D01*
D23*
%TO.N,+3.3V*%
X60363856Y-47205144D02*
X65034000Y-42535000D01*
X65796000Y-42535000D02*
X65796000Y-43698000D01*
X65034000Y-42535000D02*
X65796000Y-42535000D01*
X65796000Y-43698000D02*
X66675000Y-44577000D01*
X73970237Y-44577000D02*
X76037944Y-42509293D01*
X66675000Y-44577000D02*
X73970237Y-44577000D01*
X76037944Y-42509293D02*
X76037944Y-37480744D01*
X58207144Y-47205144D02*
X60363856Y-47205144D01*
D22*
%TO.N,Net-(J1-Signal)*%
X55921144Y-43475144D02*
X57024144Y-44578144D01*
X58501144Y-33148144D02*
X58207144Y-33148144D01*
X57024144Y-44578144D02*
X58080144Y-44578144D01*
X55921144Y-35434144D02*
X55921144Y-43475144D01*
X58207144Y-33148144D02*
X55921144Y-35434144D01*
%TO.N,Net-(J2-Pin_2)*%
X59690000Y-25273000D02*
X62484000Y-22479000D01*
X59309000Y-28448000D02*
X57785000Y-26924000D01*
X69963544Y-30847544D02*
X71882000Y-32766000D01*
X57785000Y-26924000D02*
X57785000Y-25273000D01*
X68961000Y-34417000D02*
X71882000Y-34417000D01*
X71882000Y-32766000D02*
X71882000Y-34417000D01*
X62484000Y-29083000D02*
X61849000Y-28448000D01*
X61849000Y-28448000D02*
X59309000Y-28448000D01*
X58207144Y-35648144D02*
X67729856Y-35648144D01*
X65532000Y-35560000D02*
X62484000Y-32512000D01*
X62484000Y-22479000D02*
X63373000Y-22479000D01*
X66217800Y-35661600D02*
X65568712Y-35661600D01*
X65568712Y-35661600D02*
X65532000Y-35624888D01*
X69963544Y-30216344D02*
X69963544Y-30847544D01*
X65532000Y-35624888D02*
X65532000Y-35560000D01*
X57785000Y-25273000D02*
X59690000Y-25273000D01*
X62484000Y-32512000D02*
X62484000Y-29083000D01*
X67729856Y-35648144D02*
X68961000Y-34417000D01*
%TO.N,Net-(J2-Pin_1)*%
X57912000Y-22606000D02*
X57531000Y-22987000D01*
X65532000Y-19391000D02*
X64135000Y-19391000D01*
X63286000Y-19391000D02*
X60071000Y-22606000D01*
X60071000Y-22606000D02*
X57912000Y-22606000D01*
X66167000Y-22352000D02*
X69723000Y-25908000D01*
X69723000Y-25908000D02*
X69770000Y-25908000D01*
X73827000Y-15748000D02*
X69175000Y-15748000D01*
X69175000Y-15748000D02*
X65532000Y-19391000D01*
X65532000Y-19391000D02*
X63286000Y-19391000D01*
X66167000Y-22352000D02*
X66167000Y-20026000D01*
X66167000Y-20026000D02*
X65532000Y-19391000D01*
%TD*%
%TA.AperFunction,Conductor*%
%TO.N,GND*%
G36*
X73584296Y-14251929D02*
G01*
X73630051Y-14304733D01*
X73639995Y-14373891D01*
X73610970Y-14437447D01*
X73552192Y-14475221D01*
X73549350Y-14476019D01*
X73380511Y-14521258D01*
X73380502Y-14521261D01*
X73174267Y-14617431D01*
X73174265Y-14617432D01*
X72987858Y-14747954D01*
X72826954Y-14908858D01*
X72714387Y-15069623D01*
X72659811Y-15113248D01*
X72612812Y-15122500D01*
X69257743Y-15122500D01*
X69242122Y-15120775D01*
X69242096Y-15121061D01*
X69234334Y-15120327D01*
X69234333Y-15120327D01*
X69165186Y-15122500D01*
X69135649Y-15122500D01*
X69128766Y-15123369D01*
X69122949Y-15123826D01*
X69076373Y-15125290D01*
X69057129Y-15130881D01*
X69038079Y-15134825D01*
X69018211Y-15137334D01*
X68974884Y-15154488D01*
X68969358Y-15156379D01*
X68924614Y-15169379D01*
X68924610Y-15169381D01*
X68907366Y-15179579D01*
X68889905Y-15188133D01*
X68871274Y-15195510D01*
X68871262Y-15195517D01*
X68833570Y-15222902D01*
X68828687Y-15226109D01*
X68788580Y-15249829D01*
X68774414Y-15263995D01*
X68759624Y-15276627D01*
X68743414Y-15288404D01*
X68743411Y-15288407D01*
X68713710Y-15324309D01*
X68709777Y-15328631D01*
X65685733Y-18352674D01*
X65624410Y-18386159D01*
X65554718Y-18381175D01*
X65498785Y-18339304D01*
X65419546Y-18233454D01*
X65396709Y-18216358D01*
X65304335Y-18147206D01*
X65304328Y-18147202D01*
X65169482Y-18096908D01*
X65169483Y-18096908D01*
X65109883Y-18090501D01*
X65109881Y-18090500D01*
X65109873Y-18090500D01*
X65109864Y-18090500D01*
X65106548Y-18090322D01*
X65106627Y-18088847D01*
X65045215Y-18070815D01*
X64999460Y-18018011D01*
X64991969Y-17974522D01*
X64306401Y-17288953D01*
X64387148Y-17276165D01*
X64500045Y-17218641D01*
X64589641Y-17129045D01*
X64647165Y-17016148D01*
X64659953Y-16935400D01*
X65341025Y-17616472D01*
X65392136Y-17543478D01*
X65488264Y-17337331D01*
X65488269Y-17337317D01*
X65547139Y-17117610D01*
X65547141Y-17117599D01*
X65566966Y-16891002D01*
X65566966Y-16890997D01*
X65547141Y-16664400D01*
X65547139Y-16664389D01*
X65488269Y-16444682D01*
X65488265Y-16444673D01*
X65392133Y-16238516D01*
X65392131Y-16238512D01*
X65341026Y-16165526D01*
X65341025Y-16165526D01*
X64659953Y-16846598D01*
X64647165Y-16765852D01*
X64589641Y-16652955D01*
X64500045Y-16563359D01*
X64387148Y-16505835D01*
X64306400Y-16493046D01*
X64987472Y-15811974D01*
X64987471Y-15811973D01*
X64914483Y-15760866D01*
X64914481Y-15760865D01*
X64708326Y-15664734D01*
X64708317Y-15664730D01*
X64488610Y-15605860D01*
X64488599Y-15605858D01*
X64262002Y-15586034D01*
X64261998Y-15586034D01*
X64035400Y-15605858D01*
X64035389Y-15605860D01*
X63815682Y-15664730D01*
X63815673Y-15664734D01*
X63609513Y-15760868D01*
X63536527Y-15811972D01*
X63536526Y-15811973D01*
X64217600Y-16493046D01*
X64136852Y-16505835D01*
X64023955Y-16563359D01*
X63934359Y-16652955D01*
X63876835Y-16765852D01*
X63864046Y-16846599D01*
X63182973Y-16165526D01*
X63182972Y-16165527D01*
X63131868Y-16238513D01*
X63035734Y-16444673D01*
X63035730Y-16444682D01*
X62976860Y-16664389D01*
X62976858Y-16664400D01*
X62957034Y-16890997D01*
X62957034Y-16891002D01*
X62976858Y-17117599D01*
X62976860Y-17117610D01*
X63035730Y-17337317D01*
X63035734Y-17337326D01*
X63131865Y-17543481D01*
X63131866Y-17543483D01*
X63182973Y-17616471D01*
X63182974Y-17616472D01*
X63864046Y-16935399D01*
X63876835Y-17016148D01*
X63934359Y-17129045D01*
X64023955Y-17218641D01*
X64136852Y-17276165D01*
X64217599Y-17288953D01*
X63531351Y-17975200D01*
X63521505Y-18024194D01*
X63472889Y-18074376D01*
X63417367Y-18089048D01*
X63417423Y-18090099D01*
X63417429Y-18090146D01*
X63417426Y-18090146D01*
X63417436Y-18090324D01*
X63414123Y-18090501D01*
X63354516Y-18096908D01*
X63219671Y-18147202D01*
X63219664Y-18147206D01*
X63104455Y-18233452D01*
X63104452Y-18233455D01*
X63018206Y-18348664D01*
X63018202Y-18348671D01*
X62967908Y-18483517D01*
X62961501Y-18543116D01*
X62961500Y-18543135D01*
X62961500Y-18785482D01*
X62941815Y-18852521D01*
X62905401Y-18887609D01*
X62905743Y-18888049D01*
X62901652Y-18891222D01*
X62900626Y-18892211D01*
X62899580Y-18892829D01*
X62885414Y-18906995D01*
X62870624Y-18919627D01*
X62854414Y-18931404D01*
X62854411Y-18931407D01*
X62824710Y-18967309D01*
X62820777Y-18971631D01*
X59848228Y-21944181D01*
X59786905Y-21977666D01*
X59760547Y-21980500D01*
X59259499Y-21980500D01*
X59192460Y-21960815D01*
X59146705Y-21908011D01*
X59135499Y-21856500D01*
X59135499Y-21835129D01*
X59135498Y-21835123D01*
X59135497Y-21835116D01*
X59129091Y-21775517D01*
X59125861Y-21766858D01*
X59078797Y-21640671D01*
X59078793Y-21640664D01*
X58992547Y-21525455D01*
X58992544Y-21525452D01*
X58877335Y-21439206D01*
X58877328Y-21439202D01*
X58742482Y-21388908D01*
X58742483Y-21388908D01*
X58682883Y-21382501D01*
X58682881Y-21382500D01*
X58682873Y-21382500D01*
X58682864Y-21382500D01*
X56887129Y-21382500D01*
X56887123Y-21382501D01*
X56827516Y-21388908D01*
X56692671Y-21439202D01*
X56692664Y-21439206D01*
X56577455Y-21525452D01*
X56577452Y-21525455D01*
X56491206Y-21640664D01*
X56491202Y-21640671D01*
X56440908Y-21775517D01*
X56436363Y-21817796D01*
X56434501Y-21835123D01*
X56434500Y-21835135D01*
X56434500Y-23630870D01*
X56434501Y-23630876D01*
X56440908Y-23690483D01*
X56491202Y-23825328D01*
X56491206Y-23825335D01*
X56577452Y-23940544D01*
X56577455Y-23940547D01*
X56692664Y-24026793D01*
X56692671Y-24026797D01*
X56824081Y-24075810D01*
X56880015Y-24117681D01*
X56904432Y-24183145D01*
X56889580Y-24251418D01*
X56868430Y-24279673D01*
X56746503Y-24401600D01*
X56610965Y-24595169D01*
X56610964Y-24595171D01*
X56511098Y-24809335D01*
X56511094Y-24809344D01*
X56449938Y-25037586D01*
X56449936Y-25037596D01*
X56429341Y-25272999D01*
X56429341Y-25273000D01*
X56449936Y-25508403D01*
X56449938Y-25508413D01*
X56511094Y-25736655D01*
X56511096Y-25736659D01*
X56511097Y-25736663D01*
X56590994Y-25908002D01*
X56610965Y-25950830D01*
X56610967Y-25950834D01*
X56680091Y-26049552D01*
X56746501Y-26144396D01*
X56746506Y-26144402D01*
X56913597Y-26311493D01*
X56913603Y-26311498D01*
X56946036Y-26334208D01*
X57106624Y-26446653D01*
X57150248Y-26501228D01*
X57159500Y-26548226D01*
X57159500Y-26841255D01*
X57157775Y-26856872D01*
X57158061Y-26856899D01*
X57157326Y-26864665D01*
X57159500Y-26933814D01*
X57159500Y-26963343D01*
X57159501Y-26963360D01*
X57160368Y-26970231D01*
X57160826Y-26976050D01*
X57162290Y-27022624D01*
X57162291Y-27022627D01*
X57167880Y-27041867D01*
X57171824Y-27060911D01*
X57173140Y-27071325D01*
X57174336Y-27080791D01*
X57191490Y-27124119D01*
X57193382Y-27129647D01*
X57201268Y-27156790D01*
X57206382Y-27174390D01*
X57213601Y-27186598D01*
X57216580Y-27191634D01*
X57225136Y-27209100D01*
X57226866Y-27213468D01*
X57232514Y-27227732D01*
X57259898Y-27265423D01*
X57263106Y-27270307D01*
X57286827Y-27310416D01*
X57286833Y-27310424D01*
X57300990Y-27324580D01*
X57313628Y-27339376D01*
X57325405Y-27355586D01*
X57325406Y-27355587D01*
X57361309Y-27385288D01*
X57365620Y-27389210D01*
X58538985Y-28562576D01*
X58808197Y-28831788D01*
X58818022Y-28844051D01*
X58818243Y-28843869D01*
X58823214Y-28849878D01*
X58849217Y-28874295D01*
X58873635Y-28897226D01*
X58894529Y-28918120D01*
X58900011Y-28922373D01*
X58904443Y-28926157D01*
X58938418Y-28958062D01*
X58955976Y-28967714D01*
X58972235Y-28978395D01*
X58988064Y-28990673D01*
X59030838Y-29009182D01*
X59036056Y-29011738D01*
X59076908Y-29034197D01*
X59096316Y-29039180D01*
X59114717Y-29045480D01*
X59133104Y-29053437D01*
X59176488Y-29060308D01*
X59179119Y-29060725D01*
X59184839Y-29061909D01*
X59229981Y-29073500D01*
X59250016Y-29073500D01*
X59269414Y-29075026D01*
X59289194Y-29078159D01*
X59289195Y-29078160D01*
X59289195Y-29078159D01*
X59289196Y-29078160D01*
X59335584Y-29073775D01*
X59341422Y-29073500D01*
X61538548Y-29073500D01*
X61605587Y-29093185D01*
X61626229Y-29109819D01*
X61822181Y-29305771D01*
X61855666Y-29367094D01*
X61858500Y-29393452D01*
X61858500Y-32429255D01*
X61856775Y-32444872D01*
X61857061Y-32444899D01*
X61856326Y-32452665D01*
X61858500Y-32521814D01*
X61858500Y-32551343D01*
X61858501Y-32551360D01*
X61859368Y-32558231D01*
X61859826Y-32564050D01*
X61861290Y-32610624D01*
X61861291Y-32610627D01*
X61866880Y-32629867D01*
X61870824Y-32648911D01*
X61873336Y-32668792D01*
X61883881Y-32695426D01*
X61890490Y-32712119D01*
X61892382Y-32717647D01*
X61905381Y-32762388D01*
X61915580Y-32779634D01*
X61924136Y-32797100D01*
X61931514Y-32815732D01*
X61938489Y-32825333D01*
X61958898Y-32853423D01*
X61962106Y-32858307D01*
X61985827Y-32898416D01*
X61985833Y-32898424D01*
X61999990Y-32912580D01*
X62012628Y-32927376D01*
X62024405Y-32943586D01*
X62024406Y-32943587D01*
X62060309Y-32973288D01*
X62064620Y-32977210D01*
X63463053Y-34375644D01*
X63898372Y-34810963D01*
X63931857Y-34872286D01*
X63926873Y-34941978D01*
X63885001Y-34997911D01*
X63819537Y-35022328D01*
X63810691Y-35022644D01*
X59607371Y-35022644D01*
X59540332Y-35002959D01*
X59505796Y-34969767D01*
X59370638Y-34776741D01*
X59203547Y-34609650D01*
X59147331Y-34570288D01*
X59046545Y-34499717D01*
X59002922Y-34445143D01*
X58995728Y-34375644D01*
X59027250Y-34313289D01*
X59046542Y-34296572D01*
X59203545Y-34186639D01*
X59370639Y-34019545D01*
X59506179Y-33825974D01*
X59606047Y-33611807D01*
X59667207Y-33383552D01*
X59687803Y-33148144D01*
X59667207Y-32912736D01*
X59613942Y-32713945D01*
X59606049Y-32684488D01*
X59606048Y-32684487D01*
X59606047Y-32684481D01*
X59506179Y-32470315D01*
X59506178Y-32470313D01*
X59370638Y-32276741D01*
X59223076Y-32129179D01*
X59189591Y-32067856D01*
X59194575Y-31998164D01*
X59236447Y-31942231D01*
X59245660Y-31935959D01*
X59400489Y-31840459D01*
X59524459Y-31716489D01*
X59616500Y-31567268D01*
X59616502Y-31567263D01*
X59671649Y-31400841D01*
X59671650Y-31400834D01*
X59682143Y-31298130D01*
X59682144Y-31298117D01*
X59682144Y-30898144D01*
X58611113Y-30898144D01*
X58643663Y-30847495D01*
X58682144Y-30716439D01*
X58682144Y-30579849D01*
X58643663Y-30448793D01*
X58611113Y-30398144D01*
X59682143Y-30398144D01*
X59682143Y-29998172D01*
X59682142Y-29998157D01*
X59671649Y-29895446D01*
X59616502Y-29729024D01*
X59616500Y-29729019D01*
X59524459Y-29579798D01*
X59400489Y-29455828D01*
X59251268Y-29363787D01*
X59251263Y-29363785D01*
X59084841Y-29308638D01*
X59084834Y-29308637D01*
X58982130Y-29298144D01*
X58457144Y-29298144D01*
X58457144Y-30240125D01*
X58342343Y-30187698D01*
X58241119Y-30173144D01*
X58173169Y-30173144D01*
X58071945Y-30187698D01*
X57957144Y-30240125D01*
X57957144Y-29298144D01*
X57432172Y-29298144D01*
X57432156Y-29298145D01*
X57329446Y-29308638D01*
X57163024Y-29363785D01*
X57163019Y-29363787D01*
X57013798Y-29455828D01*
X56889828Y-29579798D01*
X56797787Y-29729019D01*
X56797785Y-29729024D01*
X56742638Y-29895446D01*
X56742637Y-29895453D01*
X56732144Y-29998157D01*
X56732144Y-30398144D01*
X57803175Y-30398144D01*
X57770625Y-30448793D01*
X57732144Y-30579849D01*
X57732144Y-30716439D01*
X57770625Y-30847495D01*
X57803175Y-30898144D01*
X56732145Y-30898144D01*
X56732145Y-31298130D01*
X56742638Y-31400841D01*
X56797785Y-31567263D01*
X56797787Y-31567268D01*
X56889828Y-31716489D01*
X57013798Y-31840459D01*
X57168628Y-31935959D01*
X57215352Y-31987907D01*
X57226575Y-32056870D01*
X57198731Y-32120952D01*
X57191213Y-32129179D01*
X57043645Y-32276747D01*
X57043645Y-32276748D01*
X56908111Y-32470309D01*
X56908109Y-32470313D01*
X56808242Y-32684479D01*
X56808238Y-32684488D01*
X56747082Y-32912730D01*
X56747080Y-32912740D01*
X56726485Y-33148143D01*
X56726485Y-33148144D01*
X56747080Y-33383547D01*
X56747082Y-33383557D01*
X56800415Y-33582600D01*
X56798752Y-33652450D01*
X56768321Y-33702374D01*
X55537352Y-34933343D01*
X55525095Y-34943164D01*
X55525278Y-34943385D01*
X55519267Y-34948357D01*
X55471916Y-34998780D01*
X55451033Y-35019663D01*
X55451021Y-35019676D01*
X55446765Y-35025161D01*
X55442981Y-35029591D01*
X55411081Y-35063562D01*
X55411080Y-35063564D01*
X55401428Y-35081120D01*
X55390754Y-35097370D01*
X55378473Y-35113205D01*
X55378468Y-35113212D01*
X55359959Y-35155982D01*
X55357389Y-35161228D01*
X55334947Y-35202050D01*
X55329966Y-35221451D01*
X55323665Y-35239854D01*
X55315706Y-35258246D01*
X55315705Y-35258249D01*
X55308415Y-35304271D01*
X55307231Y-35309990D01*
X55295645Y-35355116D01*
X55295644Y-35355126D01*
X55295644Y-35375160D01*
X55294117Y-35394559D01*
X55290984Y-35414338D01*
X55290984Y-35414339D01*
X55295369Y-35460727D01*
X55295644Y-35466565D01*
X55295644Y-43392399D01*
X55293919Y-43408016D01*
X55294205Y-43408043D01*
X55293470Y-43415809D01*
X55295644Y-43484958D01*
X55295644Y-43514487D01*
X55295645Y-43514504D01*
X55296512Y-43521375D01*
X55296970Y-43527194D01*
X55298434Y-43573768D01*
X55298435Y-43573771D01*
X55304024Y-43593011D01*
X55307968Y-43612055D01*
X55310480Y-43631936D01*
X55327634Y-43675263D01*
X55329526Y-43680791D01*
X55342525Y-43725532D01*
X55352724Y-43742778D01*
X55361282Y-43760247D01*
X55368658Y-43778876D01*
X55396042Y-43816567D01*
X55399250Y-43821451D01*
X55422971Y-43861560D01*
X55422977Y-43861568D01*
X55437134Y-43875724D01*
X55449772Y-43890520D01*
X55461549Y-43906730D01*
X55461550Y-43906731D01*
X55497453Y-43936432D01*
X55501764Y-43940354D01*
X56031140Y-44469730D01*
X56523338Y-44961928D01*
X56533163Y-44974192D01*
X56533384Y-44974010D01*
X56538354Y-44980017D01*
X56538357Y-44980020D01*
X56538358Y-44980021D01*
X56588795Y-45027385D01*
X56609674Y-45048264D01*
X56615148Y-45052510D01*
X56619586Y-45056300D01*
X56653562Y-45088206D01*
X56653566Y-45088208D01*
X56671117Y-45097857D01*
X56687375Y-45108536D01*
X56703208Y-45120818D01*
X56745997Y-45139333D01*
X56751217Y-45141891D01*
X56768388Y-45151331D01*
X56775507Y-45155245D01*
X56824770Y-45204792D01*
X56828149Y-45211500D01*
X56908108Y-45382972D01*
X56908109Y-45382974D01*
X57043649Y-45576546D01*
X57210741Y-45743638D01*
X57367739Y-45853569D01*
X57411364Y-45908146D01*
X57418558Y-45977644D01*
X57387035Y-46039999D01*
X57367739Y-46056719D01*
X57210741Y-46166649D01*
X57043650Y-46333741D01*
X57043645Y-46333748D01*
X56908111Y-46527309D01*
X56908109Y-46527313D01*
X56808242Y-46741479D01*
X56808238Y-46741488D01*
X56747082Y-46969730D01*
X56747080Y-46969740D01*
X56726485Y-47205143D01*
X56726485Y-47205144D01*
X56747080Y-47440547D01*
X56747082Y-47440557D01*
X56808238Y-47668799D01*
X56808240Y-47668803D01*
X56808241Y-47668807D01*
X56856769Y-47772875D01*
X56908108Y-47882972D01*
X56908109Y-47882974D01*
X57043649Y-48076546D01*
X57210741Y-48243638D01*
X57404313Y-48379178D01*
X57404315Y-48379179D01*
X57618481Y-48479047D01*
X57846736Y-48540207D01*
X58023178Y-48555644D01*
X58391110Y-48555644D01*
X58567552Y-48540207D01*
X58795807Y-48479047D01*
X59009973Y-48379179D01*
X59203545Y-48243639D01*
X59305222Y-48141961D01*
X59366543Y-48108478D01*
X59392902Y-48105644D01*
X60283229Y-48105644D01*
X60302628Y-48107171D01*
X60316468Y-48109363D01*
X60385815Y-48105728D01*
X60389059Y-48105644D01*
X60411047Y-48105644D01*
X60411048Y-48105644D01*
X60427844Y-48103878D01*
X60432920Y-48103345D01*
X60436140Y-48103091D01*
X60505502Y-48099457D01*
X60519043Y-48095827D01*
X60538169Y-48092282D01*
X60552112Y-48090818D01*
X60618162Y-48069356D01*
X60621224Y-48068448D01*
X60688344Y-48050464D01*
X60700832Y-48044100D01*
X60718806Y-48036654D01*
X60732140Y-48032323D01*
X60792332Y-47997569D01*
X60795078Y-47996078D01*
X60857005Y-47964527D01*
X60867887Y-47955713D01*
X60883939Y-47944681D01*
X60896072Y-47937677D01*
X60947703Y-47891187D01*
X60950116Y-47889126D01*
X60967236Y-47875263D01*
X60982785Y-47859712D01*
X60985126Y-47857491D01*
X61036744Y-47811015D01*
X61044986Y-47799669D01*
X61057616Y-47784881D01*
X64784055Y-44058442D01*
X64845376Y-44024959D01*
X64915068Y-44029943D01*
X64971001Y-44071815D01*
X64979121Y-44084125D01*
X65003536Y-44126413D01*
X65005085Y-44129266D01*
X65026992Y-44172259D01*
X65036617Y-44191149D01*
X65036619Y-44191151D01*
X65036620Y-44191153D01*
X65045438Y-44202043D01*
X65056454Y-44218070D01*
X65063465Y-44230213D01*
X65063470Y-44230220D01*
X65109939Y-44281831D01*
X65112043Y-44284295D01*
X65125882Y-44301382D01*
X65141423Y-44316922D01*
X65143657Y-44319277D01*
X65190128Y-44370887D01*
X65201468Y-44379126D01*
X65216265Y-44391764D01*
X65981236Y-45156736D01*
X65993871Y-45171529D01*
X66002110Y-45182869D01*
X66002112Y-45182871D01*
X66053730Y-45229348D01*
X66056068Y-45231568D01*
X66071620Y-45247120D01*
X66088716Y-45260964D01*
X66091168Y-45263058D01*
X66113887Y-45283514D01*
X66142784Y-45309533D01*
X66150633Y-45314065D01*
X66154920Y-45316540D01*
X66170952Y-45327557D01*
X66181851Y-45336383D01*
X66243714Y-45367903D01*
X66246569Y-45369453D01*
X66306707Y-45404174D01*
X66306712Y-45404177D01*
X66306713Y-45404177D01*
X66306716Y-45404179D01*
X66320050Y-45408511D01*
X66338022Y-45415956D01*
X66350512Y-45422320D01*
X66350514Y-45422320D01*
X66350515Y-45422321D01*
X66368928Y-45427254D01*
X66417601Y-45440296D01*
X66420682Y-45441209D01*
X66486744Y-45462674D01*
X66500688Y-45464139D01*
X66519814Y-45467685D01*
X66529441Y-45470264D01*
X66533355Y-45471313D01*
X66602720Y-45474947D01*
X66605935Y-45475200D01*
X66627808Y-45477500D01*
X66649798Y-45477500D01*
X66653041Y-45477584D01*
X66722388Y-45481219D01*
X66736228Y-45479027D01*
X66755627Y-45477500D01*
X73889610Y-45477500D01*
X73909009Y-45479027D01*
X73922849Y-45481219D01*
X73992196Y-45477584D01*
X73995440Y-45477500D01*
X74017428Y-45477500D01*
X74017429Y-45477500D01*
X74034225Y-45475734D01*
X74039301Y-45475201D01*
X74042521Y-45474947D01*
X74111883Y-45471313D01*
X74125424Y-45467683D01*
X74144550Y-45464138D01*
X74158493Y-45462674D01*
X74224543Y-45441212D01*
X74227605Y-45440304D01*
X74294725Y-45422320D01*
X74307213Y-45415956D01*
X74325187Y-45408510D01*
X74338521Y-45404179D01*
X74398713Y-45369425D01*
X74401459Y-45367934D01*
X74463386Y-45336383D01*
X74474268Y-45327569D01*
X74490320Y-45316537D01*
X74502453Y-45309533D01*
X74554084Y-45263043D01*
X74556497Y-45260982D01*
X74573617Y-45247119D01*
X74589166Y-45231568D01*
X74591507Y-45229347D01*
X74643125Y-45182871D01*
X74651367Y-45171525D01*
X74663999Y-45156736D01*
X76617681Y-43203053D01*
X76632469Y-43190423D01*
X76643815Y-43182181D01*
X76690291Y-43130563D01*
X76692514Y-43128221D01*
X76696472Y-43124263D01*
X76708063Y-43112673D01*
X76721926Y-43095553D01*
X76723993Y-43093134D01*
X76770477Y-43041509D01*
X76777482Y-43029373D01*
X76788514Y-43013324D01*
X76797325Y-43002444D01*
X76797327Y-43002442D01*
X76807999Y-42981496D01*
X76828878Y-42940515D01*
X76830369Y-42937769D01*
X76865123Y-42877577D01*
X76869453Y-42864249D01*
X76876904Y-42846262D01*
X76883263Y-42833783D01*
X76883264Y-42833781D01*
X76888320Y-42814909D01*
X76901241Y-42766683D01*
X76902145Y-42763630D01*
X76923618Y-42697549D01*
X76925083Y-42683600D01*
X76928628Y-42664476D01*
X76932256Y-42650939D01*
X76935891Y-42581577D01*
X76936144Y-42578364D01*
X76938444Y-42556485D01*
X76938444Y-42534489D01*
X76938529Y-42531243D01*
X76942163Y-42461905D01*
X76939971Y-42448065D01*
X76938444Y-42428666D01*
X76938444Y-38741913D01*
X76958129Y-38674874D01*
X76986282Y-38644059D01*
X77057688Y-38588482D01*
X77226108Y-38405529D01*
X77362117Y-38197351D01*
X77462007Y-37969625D01*
X77523052Y-37728565D01*
X77527195Y-37678570D01*
X77543587Y-37480749D01*
X77543587Y-37480738D01*
X77523053Y-37232931D01*
X77523051Y-37232919D01*
X77462007Y-36991862D01*
X77362117Y-36764137D01*
X77226110Y-36555961D01*
X77192587Y-36519546D01*
X77057688Y-36373006D01*
X76861453Y-36220270D01*
X76861451Y-36220269D01*
X76861450Y-36220268D01*
X76642755Y-36101916D01*
X76642746Y-36101913D01*
X76407560Y-36021173D01*
X76162279Y-35980244D01*
X75913609Y-35980244D01*
X75668327Y-36021173D01*
X75433141Y-36101913D01*
X75433132Y-36101916D01*
X75214437Y-36220268D01*
X75018201Y-36373005D01*
X74849777Y-36555961D01*
X74713770Y-36764137D01*
X74613880Y-36991862D01*
X74552836Y-37232919D01*
X74552834Y-37232931D01*
X74532301Y-37480738D01*
X74532301Y-37480749D01*
X74552834Y-37728556D01*
X74552836Y-37728568D01*
X74613880Y-37969625D01*
X74713770Y-38197350D01*
X74849777Y-38405526D01*
X74849780Y-38405529D01*
X75018200Y-38588482D01*
X75089606Y-38644059D01*
X75130419Y-38700770D01*
X75137444Y-38741913D01*
X75137444Y-42084931D01*
X75117759Y-42151970D01*
X75101125Y-42172612D01*
X74908841Y-42364895D01*
X74847518Y-42398380D01*
X74777826Y-42393396D01*
X74721893Y-42351524D01*
X74701385Y-42309307D01*
X74642269Y-42088682D01*
X74642265Y-42088673D01*
X74546134Y-41882517D01*
X74415657Y-41696179D01*
X74254820Y-41535342D01*
X74068482Y-41404865D01*
X73862328Y-41308734D01*
X73666000Y-41256127D01*
X73666000Y-42219314D01*
X73654045Y-42207359D01*
X73541148Y-42149835D01*
X73447481Y-42135000D01*
X73384519Y-42135000D01*
X73290852Y-42149835D01*
X73177955Y-42207359D01*
X73166000Y-42219314D01*
X73166000Y-41256127D01*
X72969671Y-41308734D01*
X72763517Y-41404865D01*
X72577179Y-41535342D01*
X72416342Y-41696179D01*
X72285865Y-41882517D01*
X72258382Y-41941457D01*
X72212210Y-41993896D01*
X72145016Y-42013048D01*
X72078135Y-41992832D01*
X72033618Y-41941457D01*
X72006134Y-41882517D01*
X71875657Y-41696179D01*
X71714820Y-41535342D01*
X71528482Y-41404865D01*
X71322328Y-41308734D01*
X71126000Y-41256127D01*
X71126000Y-42219314D01*
X71114045Y-42207359D01*
X71001148Y-42149835D01*
X70907481Y-42135000D01*
X70844519Y-42135000D01*
X70750852Y-42149835D01*
X70637955Y-42207359D01*
X70626000Y-42219314D01*
X70626000Y-41256127D01*
X70429671Y-41308734D01*
X70223517Y-41404865D01*
X70037179Y-41535342D01*
X69876342Y-41696179D01*
X69745867Y-41882515D01*
X69718657Y-41940867D01*
X69672484Y-41993306D01*
X69605290Y-42012457D01*
X69538409Y-41992241D01*
X69493893Y-41940865D01*
X69488420Y-41929129D01*
X69466568Y-41882266D01*
X69336047Y-41695861D01*
X69336045Y-41695858D01*
X69175141Y-41534954D01*
X68988734Y-41404432D01*
X68988732Y-41404431D01*
X68782497Y-41308261D01*
X68782488Y-41308258D01*
X68562697Y-41249366D01*
X68562693Y-41249365D01*
X68562692Y-41249365D01*
X68562691Y-41249364D01*
X68562686Y-41249364D01*
X68336002Y-41229532D01*
X68335998Y-41229532D01*
X68109313Y-41249364D01*
X68109302Y-41249366D01*
X67889511Y-41308258D01*
X67889502Y-41308261D01*
X67683267Y-41404431D01*
X67683265Y-41404432D01*
X67496858Y-41534954D01*
X67335954Y-41695858D01*
X67205432Y-41882265D01*
X67205431Y-41882267D01*
X67178382Y-41940275D01*
X67132209Y-41992714D01*
X67065016Y-42011866D01*
X66998135Y-41991650D01*
X66953618Y-41940275D01*
X66926568Y-41882266D01*
X66796047Y-41695861D01*
X66796045Y-41695858D01*
X66635141Y-41534954D01*
X66448734Y-41404432D01*
X66448732Y-41404431D01*
X66242497Y-41308261D01*
X66242488Y-41308258D01*
X66022697Y-41249366D01*
X66022693Y-41249365D01*
X66022692Y-41249365D01*
X66022691Y-41249364D01*
X66022686Y-41249364D01*
X65796002Y-41229532D01*
X65795998Y-41229532D01*
X65569313Y-41249364D01*
X65569302Y-41249366D01*
X65349511Y-41308258D01*
X65349502Y-41308261D01*
X65143267Y-41404431D01*
X65143265Y-41404432D01*
X64956858Y-41534954D01*
X64861968Y-41629843D01*
X64812605Y-41660092D01*
X64779693Y-41670786D01*
X64776581Y-41671707D01*
X64709518Y-41689677D01*
X64697020Y-41696045D01*
X64679053Y-41703487D01*
X64665713Y-41707821D01*
X64605592Y-41742533D01*
X64602740Y-41744082D01*
X64540853Y-41775616D01*
X64540837Y-41775626D01*
X64529948Y-41784444D01*
X64513923Y-41795458D01*
X64501785Y-41802466D01*
X64501781Y-41802469D01*
X64450172Y-41848936D01*
X64447710Y-41851039D01*
X64430627Y-41864875D01*
X64430610Y-41864890D01*
X64415065Y-41880435D01*
X64412713Y-41882666D01*
X64361114Y-41929126D01*
X64352869Y-41940474D01*
X64340236Y-41955263D01*
X60027176Y-46268325D01*
X59965853Y-46301810D01*
X59939495Y-46304644D01*
X59392902Y-46304644D01*
X59325863Y-46284959D01*
X59305225Y-46268329D01*
X59203545Y-46166649D01*
X59203544Y-46166648D01*
X59203543Y-46166647D01*
X59132092Y-46116617D01*
X59046545Y-46056717D01*
X59002922Y-46002143D01*
X58995728Y-45932644D01*
X59027250Y-45870289D01*
X59046542Y-45853572D01*
X59203545Y-45743639D01*
X59370639Y-45576545D01*
X59506179Y-45382974D01*
X59606047Y-45168807D01*
X59667207Y-44940552D01*
X59687803Y-44705144D01*
X59667207Y-44469736D01*
X59606047Y-44241481D01*
X59506179Y-44027315D01*
X59504530Y-44024959D01*
X59370638Y-43833741D01*
X59223076Y-43686179D01*
X59189591Y-43624856D01*
X59194575Y-43555164D01*
X59236447Y-43499231D01*
X59245660Y-43492959D01*
X59400489Y-43397459D01*
X59524459Y-43273489D01*
X59616500Y-43124268D01*
X59616502Y-43124263D01*
X59671649Y-42957841D01*
X59671650Y-42957834D01*
X59682143Y-42855130D01*
X59682144Y-42855117D01*
X59682144Y-42455144D01*
X58611113Y-42455144D01*
X58643663Y-42404495D01*
X58682144Y-42273439D01*
X58682144Y-42136849D01*
X58643663Y-42005793D01*
X58611113Y-41955144D01*
X59682143Y-41955144D01*
X59682143Y-41555172D01*
X59682142Y-41555157D01*
X59671649Y-41452446D01*
X59616502Y-41286024D01*
X59616500Y-41286019D01*
X59524459Y-41136798D01*
X59400489Y-41012828D01*
X59251268Y-40920787D01*
X59251263Y-40920785D01*
X59084841Y-40865638D01*
X59084834Y-40865637D01*
X58982130Y-40855144D01*
X58457144Y-40855144D01*
X58457144Y-41797125D01*
X58342343Y-41744698D01*
X58241119Y-41730144D01*
X58173169Y-41730144D01*
X58071945Y-41744698D01*
X57957144Y-41797125D01*
X57957144Y-40855144D01*
X57432172Y-40855144D01*
X57432156Y-40855145D01*
X57329446Y-40865638D01*
X57163024Y-40920785D01*
X57163019Y-40920787D01*
X57013798Y-41012828D01*
X56889828Y-41136798D01*
X56797787Y-41286019D01*
X56797785Y-41286024D01*
X56788350Y-41314499D01*
X56748577Y-41371944D01*
X56684061Y-41398767D01*
X56615285Y-41386452D01*
X56564086Y-41338909D01*
X56546644Y-41275495D01*
X56546644Y-36077387D01*
X56566329Y-36010348D01*
X56619133Y-35964593D01*
X56688291Y-35954649D01*
X56751847Y-35983674D01*
X56789621Y-36042452D01*
X56790419Y-36045294D01*
X56808238Y-36111799D01*
X56808240Y-36111803D01*
X56808241Y-36111807D01*
X56836889Y-36173242D01*
X56908108Y-36325972D01*
X56908109Y-36325974D01*
X57043649Y-36519546D01*
X57210741Y-36686638D01*
X57404313Y-36822178D01*
X57404315Y-36822179D01*
X57618481Y-36922047D01*
X57618487Y-36922048D01*
X57618488Y-36922049D01*
X57636477Y-36926869D01*
X57846736Y-36983207D01*
X58023178Y-36998644D01*
X58391110Y-36998644D01*
X58567552Y-36983207D01*
X58795807Y-36922047D01*
X59009973Y-36822179D01*
X59203545Y-36686639D01*
X59370639Y-36519545D01*
X59505796Y-36326521D01*
X59560373Y-36282896D01*
X59607371Y-36273644D01*
X64107501Y-36273644D01*
X64174540Y-36293329D01*
X64220295Y-36346133D01*
X64231501Y-36397644D01*
X64231501Y-36472764D01*
X64237908Y-36532371D01*
X64288202Y-36667216D01*
X64288206Y-36667223D01*
X64374452Y-36782432D01*
X64374455Y-36782435D01*
X64489664Y-36868681D01*
X64489671Y-36868685D01*
X64534618Y-36885449D01*
X64624517Y-36918979D01*
X64684127Y-36925388D01*
X64684153Y-36925387D01*
X64687453Y-36925566D01*
X64687372Y-36927071D01*
X64748672Y-36945000D01*
X64794483Y-36997755D01*
X64802016Y-37041351D01*
X65487600Y-37726934D01*
X65406852Y-37739723D01*
X65293955Y-37797247D01*
X65204359Y-37886843D01*
X65146835Y-37999740D01*
X65134046Y-38080487D01*
X64452973Y-37399414D01*
X64452972Y-37399415D01*
X64401868Y-37472401D01*
X64305734Y-37678561D01*
X64305730Y-37678570D01*
X64246860Y-37898277D01*
X64246858Y-37898288D01*
X64227034Y-38124885D01*
X64227034Y-38124890D01*
X64246858Y-38351487D01*
X64246860Y-38351498D01*
X64305730Y-38571205D01*
X64305734Y-38571214D01*
X64401865Y-38777369D01*
X64401866Y-38777371D01*
X64452973Y-38850359D01*
X64452974Y-38850360D01*
X65134046Y-38169287D01*
X65146835Y-38250036D01*
X65204359Y-38362933D01*
X65293955Y-38452529D01*
X65406852Y-38510053D01*
X65487599Y-38522841D01*
X64806526Y-39203913D01*
X64806526Y-39203914D01*
X64879512Y-39255019D01*
X64879516Y-39255021D01*
X65085673Y-39351153D01*
X65085682Y-39351157D01*
X65305389Y-39410027D01*
X65305400Y-39410029D01*
X65531998Y-39429854D01*
X65532002Y-39429854D01*
X65678899Y-39417002D01*
X70577034Y-39417002D01*
X70596858Y-39643599D01*
X70596860Y-39643610D01*
X70655730Y-39863317D01*
X70655734Y-39863326D01*
X70751865Y-40069481D01*
X70751866Y-40069483D01*
X70802973Y-40142471D01*
X70802974Y-40142472D01*
X71484046Y-39461399D01*
X71496835Y-39542148D01*
X71554359Y-39655045D01*
X71643955Y-39744641D01*
X71756852Y-39802165D01*
X71837599Y-39814953D01*
X71156526Y-40496025D01*
X71156526Y-40496026D01*
X71229512Y-40547131D01*
X71229516Y-40547133D01*
X71435673Y-40643265D01*
X71435682Y-40643269D01*
X71655389Y-40702139D01*
X71655400Y-40702141D01*
X71881998Y-40721966D01*
X71882002Y-40721966D01*
X72108599Y-40702141D01*
X72108610Y-40702139D01*
X72328317Y-40643269D01*
X72328331Y-40643264D01*
X72534478Y-40547136D01*
X72607472Y-40496025D01*
X71926401Y-39814953D01*
X72007148Y-39802165D01*
X72120045Y-39744641D01*
X72209641Y-39655045D01*
X72267165Y-39542148D01*
X72279953Y-39461400D01*
X72961025Y-40142472D01*
X73012136Y-40069478D01*
X73108264Y-39863331D01*
X73108269Y-39863317D01*
X73167139Y-39643610D01*
X73167141Y-39643599D01*
X73186966Y-39417002D01*
X73186966Y-39416997D01*
X73167141Y-39190400D01*
X73167139Y-39190389D01*
X73108269Y-38970682D01*
X73108265Y-38970673D01*
X73012133Y-38764516D01*
X73012131Y-38764512D01*
X72961026Y-38691526D01*
X72961025Y-38691526D01*
X72279953Y-39372598D01*
X72267165Y-39291852D01*
X72209641Y-39178955D01*
X72120045Y-39089359D01*
X72007148Y-39031835D01*
X71926400Y-39019046D01*
X72607472Y-38337974D01*
X72607471Y-38337973D01*
X72534483Y-38286866D01*
X72534481Y-38286865D01*
X72328326Y-38190734D01*
X72328317Y-38190730D01*
X72108610Y-38131860D01*
X72108599Y-38131858D01*
X71882002Y-38112034D01*
X71881998Y-38112034D01*
X71655400Y-38131858D01*
X71655389Y-38131860D01*
X71435682Y-38190730D01*
X71435673Y-38190734D01*
X71229513Y-38286868D01*
X71156527Y-38337972D01*
X71156526Y-38337973D01*
X71837600Y-39019046D01*
X71756852Y-39031835D01*
X71643955Y-39089359D01*
X71554359Y-39178955D01*
X71496835Y-39291852D01*
X71484046Y-39372599D01*
X70802973Y-38691526D01*
X70802972Y-38691527D01*
X70751868Y-38764513D01*
X70655734Y-38970673D01*
X70655730Y-38970682D01*
X70596860Y-39190389D01*
X70596858Y-39190400D01*
X70577034Y-39416997D01*
X70577034Y-39417002D01*
X65678899Y-39417002D01*
X65758599Y-39410029D01*
X65758610Y-39410027D01*
X65978317Y-39351157D01*
X65978331Y-39351152D01*
X66184478Y-39255024D01*
X66257472Y-39203913D01*
X65576401Y-38522841D01*
X65657148Y-38510053D01*
X65770045Y-38452529D01*
X65859641Y-38362933D01*
X65917165Y-38250036D01*
X65929953Y-38169288D01*
X66611025Y-38850360D01*
X66662136Y-38777366D01*
X66758264Y-38571219D01*
X66758269Y-38571205D01*
X66817139Y-38351498D01*
X66817141Y-38351487D01*
X66836966Y-38124890D01*
X66836966Y-38124885D01*
X66817141Y-37898288D01*
X66817139Y-37898277D01*
X66758269Y-37678570D01*
X66758265Y-37678561D01*
X66662133Y-37472404D01*
X66662131Y-37472400D01*
X66611026Y-37399414D01*
X66611025Y-37399414D01*
X65929953Y-38080486D01*
X65917165Y-37999740D01*
X65859641Y-37886843D01*
X65770045Y-37797247D01*
X65657148Y-37739723D01*
X65576400Y-37726934D01*
X66262646Y-37040687D01*
X66272492Y-36991695D01*
X66321107Y-36941512D01*
X66376633Y-36926869D01*
X66376576Y-36925788D01*
X66376571Y-36925742D01*
X66376573Y-36925741D01*
X66376564Y-36925564D01*
X66379857Y-36925387D01*
X66379872Y-36925387D01*
X66439483Y-36918979D01*
X66574331Y-36868684D01*
X66689546Y-36782434D01*
X66775796Y-36667219D01*
X66826091Y-36532371D01*
X66832500Y-36472761D01*
X66832500Y-36397644D01*
X66852185Y-36330605D01*
X66904989Y-36284850D01*
X66956500Y-36273644D01*
X67647113Y-36273644D01*
X67662733Y-36275368D01*
X67662760Y-36275083D01*
X67670516Y-36275815D01*
X67670523Y-36275817D01*
X67739670Y-36273644D01*
X67769206Y-36273644D01*
X67776084Y-36272774D01*
X67781897Y-36272316D01*
X67828483Y-36270853D01*
X67847725Y-36265261D01*
X67866768Y-36261318D01*
X67886648Y-36258808D01*
X67929978Y-36241651D01*
X67935502Y-36239761D01*
X67939252Y-36238671D01*
X67980246Y-36226762D01*
X67997485Y-36216566D01*
X68014959Y-36208006D01*
X68033583Y-36200632D01*
X68033583Y-36200631D01*
X68033588Y-36200630D01*
X68071305Y-36173226D01*
X68076161Y-36170036D01*
X68116276Y-36146314D01*
X68130445Y-36132143D01*
X68145235Y-36119512D01*
X68161443Y-36107738D01*
X68191155Y-36071820D01*
X68195068Y-36067520D01*
X69183771Y-35078819D01*
X69245094Y-35045334D01*
X69271452Y-35042500D01*
X70667812Y-35042500D01*
X70734851Y-35062185D01*
X70769387Y-35095377D01*
X70881954Y-35256141D01*
X71042858Y-35417045D01*
X71042861Y-35417047D01*
X71229266Y-35547568D01*
X71435504Y-35643739D01*
X71435509Y-35643740D01*
X71435511Y-35643741D01*
X71488415Y-35657916D01*
X71655308Y-35702635D01*
X71817230Y-35716801D01*
X71881998Y-35722468D01*
X71882000Y-35722468D01*
X71882002Y-35722468D01*
X71938673Y-35717509D01*
X72108692Y-35702635D01*
X72328496Y-35643739D01*
X72534734Y-35547568D01*
X72721139Y-35417047D01*
X72882047Y-35256139D01*
X73012568Y-35069734D01*
X73108739Y-34863496D01*
X73167635Y-34643692D01*
X73187468Y-34417000D01*
X73184326Y-34381092D01*
X73177643Y-34304703D01*
X73167635Y-34190308D01*
X73108739Y-33970504D01*
X73012568Y-33764266D01*
X72882047Y-33577861D01*
X72882045Y-33577858D01*
X72721140Y-33416953D01*
X72560377Y-33304386D01*
X72516752Y-33249809D01*
X72507500Y-33202811D01*
X72507500Y-32848737D01*
X72509224Y-32833123D01*
X72508938Y-32833096D01*
X72509672Y-32825333D01*
X72507500Y-32756202D01*
X72507500Y-32726651D01*
X72507500Y-32726650D01*
X72506629Y-32719759D01*
X72506172Y-32713945D01*
X72505246Y-32684481D01*
X72504709Y-32667372D01*
X72499120Y-32648137D01*
X72495174Y-32629084D01*
X72492664Y-32609208D01*
X72475501Y-32565859D01*
X72473614Y-32560346D01*
X72471003Y-32551360D01*
X72460617Y-32515610D01*
X72450421Y-32498369D01*
X72441860Y-32480893D01*
X72437672Y-32470315D01*
X72434486Y-32462268D01*
X72434486Y-32462267D01*
X72420447Y-32442945D01*
X72407083Y-32424550D01*
X72403900Y-32419705D01*
X72380170Y-32379579D01*
X72380165Y-32379573D01*
X72366005Y-32365413D01*
X72353370Y-32350620D01*
X72341593Y-32334412D01*
X72305693Y-32304713D01*
X72301381Y-32300790D01*
X71075251Y-31074660D01*
X71041766Y-31013337D01*
X71046750Y-30943645D01*
X71061355Y-30915859D01*
X71094112Y-30869078D01*
X71190283Y-30662840D01*
X71249179Y-30443036D01*
X71268865Y-30218027D01*
X71269012Y-30216345D01*
X71269012Y-30216342D01*
X71255803Y-30065362D01*
X71249179Y-29989652D01*
X71190283Y-29769848D01*
X71094112Y-29563610D01*
X70963591Y-29377205D01*
X70963589Y-29377202D01*
X70802685Y-29216298D01*
X70616278Y-29085776D01*
X70616276Y-29085775D01*
X70410041Y-28989605D01*
X70410032Y-28989602D01*
X70190241Y-28930710D01*
X70190237Y-28930709D01*
X70190236Y-28930709D01*
X70190235Y-28930708D01*
X70190230Y-28930708D01*
X69963546Y-28910876D01*
X69963542Y-28910876D01*
X69736857Y-28930708D01*
X69736846Y-28930710D01*
X69517055Y-28989602D01*
X69517046Y-28989605D01*
X69310811Y-29085775D01*
X69310809Y-29085776D01*
X69124402Y-29216298D01*
X68963498Y-29377202D01*
X68832976Y-29563609D01*
X68832975Y-29563611D01*
X68736805Y-29769846D01*
X68736802Y-29769855D01*
X68677910Y-29989646D01*
X68677908Y-29989657D01*
X68658076Y-30216342D01*
X68658076Y-30216345D01*
X68677908Y-30443030D01*
X68677910Y-30443041D01*
X68736802Y-30662832D01*
X68736805Y-30662841D01*
X68832975Y-30869076D01*
X68832976Y-30869078D01*
X68963498Y-31055485D01*
X69124402Y-31216389D01*
X69124405Y-31216391D01*
X69310810Y-31346912D01*
X69517048Y-31443083D01*
X69700028Y-31492111D01*
X69755615Y-31524205D01*
X71220181Y-32988771D01*
X71253666Y-33050094D01*
X71256500Y-33076452D01*
X71256500Y-33202811D01*
X71236815Y-33269850D01*
X71203623Y-33304386D01*
X71042859Y-33416953D01*
X70881954Y-33577858D01*
X70769387Y-33738623D01*
X70714811Y-33782248D01*
X70667812Y-33791500D01*
X69043743Y-33791500D01*
X69028122Y-33789775D01*
X69028095Y-33790061D01*
X69020333Y-33789326D01*
X68951172Y-33791500D01*
X68921649Y-33791500D01*
X68914778Y-33792367D01*
X68908959Y-33792825D01*
X68862374Y-33794289D01*
X68862368Y-33794290D01*
X68843126Y-33799880D01*
X68824087Y-33803823D01*
X68804217Y-33806334D01*
X68804203Y-33806337D01*
X68760883Y-33823488D01*
X68755358Y-33825380D01*
X68710613Y-33838380D01*
X68710610Y-33838381D01*
X68693366Y-33848579D01*
X68675905Y-33857133D01*
X68657274Y-33864510D01*
X68657262Y-33864517D01*
X68619570Y-33891902D01*
X68614687Y-33895109D01*
X68574580Y-33918829D01*
X68560414Y-33932995D01*
X68545624Y-33945627D01*
X68529414Y-33957404D01*
X68529411Y-33957407D01*
X68499710Y-33993309D01*
X68495777Y-33997631D01*
X67507084Y-34986325D01*
X67445761Y-35019810D01*
X67419403Y-35022644D01*
X66956499Y-35022644D01*
X66889460Y-35002959D01*
X66843705Y-34950155D01*
X66832499Y-34898644D01*
X66832499Y-34777017D01*
X66832498Y-34777011D01*
X66832469Y-34776743D01*
X66826091Y-34717405D01*
X66775796Y-34582557D01*
X66775795Y-34582556D01*
X66775793Y-34582552D01*
X66689547Y-34467343D01*
X66689544Y-34467340D01*
X66574335Y-34381094D01*
X66574328Y-34381090D01*
X66439482Y-34330796D01*
X66439483Y-34330796D01*
X66379883Y-34324389D01*
X66379881Y-34324388D01*
X66379873Y-34324388D01*
X66379865Y-34324388D01*
X65232340Y-34324388D01*
X65165301Y-34304703D01*
X65144659Y-34288069D01*
X63145819Y-32289228D01*
X63112334Y-32227905D01*
X63109500Y-32201547D01*
X63109500Y-30216346D01*
X63658578Y-30216346D01*
X63678402Y-30442943D01*
X63678404Y-30442954D01*
X63737274Y-30662661D01*
X63737278Y-30662670D01*
X63833409Y-30868825D01*
X63833410Y-30868827D01*
X63884517Y-30941815D01*
X63884518Y-30941816D01*
X64565590Y-30260743D01*
X64578379Y-30341492D01*
X64635903Y-30454389D01*
X64725499Y-30543985D01*
X64838396Y-30601509D01*
X64919143Y-30614297D01*
X64238070Y-31295369D01*
X64238070Y-31295370D01*
X64311056Y-31346475D01*
X64311060Y-31346477D01*
X64517217Y-31442609D01*
X64517226Y-31442613D01*
X64736933Y-31501483D01*
X64736944Y-31501485D01*
X64963542Y-31521310D01*
X64963546Y-31521310D01*
X65190143Y-31501485D01*
X65190154Y-31501483D01*
X65409861Y-31442613D01*
X65409875Y-31442608D01*
X65616022Y-31346480D01*
X65689016Y-31295369D01*
X65007945Y-30614297D01*
X65088692Y-30601509D01*
X65201589Y-30543985D01*
X65291185Y-30454389D01*
X65348709Y-30341492D01*
X65361497Y-30260744D01*
X66042569Y-30941816D01*
X66093680Y-30868822D01*
X66189808Y-30662675D01*
X66189813Y-30662661D01*
X66248683Y-30442954D01*
X66248685Y-30442943D01*
X66268510Y-30216346D01*
X66268510Y-30216341D01*
X66248685Y-29989744D01*
X66248683Y-29989733D01*
X66189813Y-29770026D01*
X66189809Y-29770017D01*
X66093677Y-29563860D01*
X66093675Y-29563856D01*
X66042570Y-29490870D01*
X66042569Y-29490870D01*
X65361497Y-30171942D01*
X65348709Y-30091196D01*
X65291185Y-29978299D01*
X65201589Y-29888703D01*
X65088692Y-29831179D01*
X65007944Y-29818390D01*
X65689016Y-29137318D01*
X65689015Y-29137317D01*
X65616027Y-29086210D01*
X65616025Y-29086209D01*
X65409870Y-28990078D01*
X65409861Y-28990074D01*
X65190154Y-28931204D01*
X65190143Y-28931202D01*
X64963546Y-28911378D01*
X64963542Y-28911378D01*
X64736944Y-28931202D01*
X64736933Y-28931204D01*
X64517226Y-28990074D01*
X64517217Y-28990078D01*
X64311057Y-29086212D01*
X64238071Y-29137316D01*
X64238070Y-29137317D01*
X64919144Y-29818390D01*
X64838396Y-29831179D01*
X64725499Y-29888703D01*
X64635903Y-29978299D01*
X64578379Y-30091196D01*
X64565590Y-30171943D01*
X63884517Y-29490870D01*
X63884516Y-29490871D01*
X63833412Y-29563857D01*
X63737278Y-29770017D01*
X63737274Y-29770026D01*
X63678404Y-29989733D01*
X63678402Y-29989744D01*
X63658578Y-30216341D01*
X63658578Y-30216346D01*
X63109500Y-30216346D01*
X63109500Y-29165742D01*
X63111224Y-29150122D01*
X63110939Y-29150095D01*
X63111673Y-29142333D01*
X63109500Y-29073172D01*
X63109500Y-29043656D01*
X63109500Y-29043650D01*
X63108631Y-29036779D01*
X63108173Y-29030952D01*
X63106710Y-28984373D01*
X63101119Y-28965130D01*
X63097173Y-28946078D01*
X63094664Y-28926208D01*
X63077504Y-28882867D01*
X63075624Y-28877379D01*
X63062618Y-28832610D01*
X63061355Y-28830475D01*
X63052423Y-28815371D01*
X63043861Y-28797894D01*
X63036487Y-28779270D01*
X63032034Y-28773141D01*
X63009079Y-28741545D01*
X63005888Y-28736686D01*
X63005000Y-28735185D01*
X62982170Y-28696580D01*
X62982168Y-28696578D01*
X62982165Y-28696574D01*
X62968006Y-28682415D01*
X62955368Y-28667619D01*
X62943594Y-28651413D01*
X62907688Y-28621709D01*
X62903376Y-28617786D01*
X62349803Y-28064212D01*
X62339980Y-28051950D01*
X62339759Y-28052134D01*
X62334786Y-28046123D01*
X62284364Y-27998773D01*
X62273919Y-27988328D01*
X62263475Y-27977883D01*
X62257986Y-27973625D01*
X62253561Y-27969847D01*
X62219582Y-27937938D01*
X62219580Y-27937936D01*
X62219577Y-27937935D01*
X62202029Y-27928288D01*
X62185763Y-27917604D01*
X62169933Y-27905325D01*
X62127168Y-27886818D01*
X62121922Y-27884248D01*
X62081093Y-27861803D01*
X62081092Y-27861802D01*
X62061693Y-27856822D01*
X62043281Y-27850518D01*
X62024898Y-27842562D01*
X62024892Y-27842560D01*
X61978874Y-27835272D01*
X61973152Y-27834087D01*
X61928021Y-27822500D01*
X61928019Y-27822500D01*
X61907984Y-27822500D01*
X61888586Y-27820973D01*
X61881162Y-27819797D01*
X61868805Y-27817840D01*
X61868804Y-27817840D01*
X61822416Y-27822225D01*
X61816578Y-27822500D01*
X59619453Y-27822500D01*
X59552414Y-27802815D01*
X59531772Y-27786181D01*
X58446819Y-26701228D01*
X58413334Y-26639905D01*
X58410500Y-26613547D01*
X58410500Y-26548226D01*
X58430185Y-26481187D01*
X58463374Y-26446654D01*
X58656401Y-26311495D01*
X58823495Y-26144401D01*
X58958652Y-25951377D01*
X59012916Y-25908002D01*
X63465034Y-25908002D01*
X63484858Y-26134599D01*
X63484860Y-26134610D01*
X63543730Y-26354317D01*
X63543734Y-26354326D01*
X63639865Y-26560481D01*
X63639866Y-26560483D01*
X63690973Y-26633471D01*
X63690974Y-26633472D01*
X64372046Y-25952399D01*
X64384835Y-26033148D01*
X64442359Y-26146045D01*
X64531955Y-26235641D01*
X64644852Y-26293165D01*
X64725599Y-26305953D01*
X64044526Y-26987025D01*
X64044526Y-26987026D01*
X64117512Y-27038131D01*
X64117516Y-27038133D01*
X64323673Y-27134265D01*
X64323682Y-27134269D01*
X64543389Y-27193139D01*
X64543400Y-27193141D01*
X64769998Y-27212966D01*
X64770002Y-27212966D01*
X64996599Y-27193141D01*
X64996610Y-27193139D01*
X65216317Y-27134269D01*
X65216331Y-27134264D01*
X65422478Y-27038136D01*
X65495472Y-26987025D01*
X64814401Y-26305953D01*
X64895148Y-26293165D01*
X65008045Y-26235641D01*
X65097641Y-26146045D01*
X65155165Y-26033148D01*
X65167953Y-25952400D01*
X65849025Y-26633472D01*
X65900136Y-26560478D01*
X65996264Y-26354331D01*
X65996269Y-26354317D01*
X66055139Y-26134610D01*
X66055141Y-26134599D01*
X66074966Y-25908002D01*
X66074966Y-25907997D01*
X66055141Y-25681400D01*
X66055139Y-25681389D01*
X65996269Y-25461682D01*
X65996265Y-25461673D01*
X65900133Y-25255516D01*
X65900131Y-25255512D01*
X65849026Y-25182526D01*
X65849025Y-25182526D01*
X65167953Y-25863598D01*
X65155165Y-25782852D01*
X65097641Y-25669955D01*
X65008045Y-25580359D01*
X64895148Y-25522835D01*
X64814400Y-25510046D01*
X65495472Y-24828974D01*
X65495471Y-24828973D01*
X65422483Y-24777866D01*
X65422481Y-24777865D01*
X65216326Y-24681734D01*
X65216317Y-24681730D01*
X64996610Y-24622860D01*
X64996599Y-24622858D01*
X64770002Y-24603034D01*
X64769998Y-24603034D01*
X64543400Y-24622858D01*
X64543389Y-24622860D01*
X64323682Y-24681730D01*
X64323673Y-24681734D01*
X64117513Y-24777868D01*
X64044527Y-24828972D01*
X64044526Y-24828973D01*
X64725600Y-25510046D01*
X64644852Y-25522835D01*
X64531955Y-25580359D01*
X64442359Y-25669955D01*
X64384835Y-25782852D01*
X64372046Y-25863599D01*
X63690973Y-25182526D01*
X63690972Y-25182527D01*
X63639868Y-25255513D01*
X63543734Y-25461673D01*
X63543730Y-25461682D01*
X63484860Y-25681389D01*
X63484858Y-25681400D01*
X63465034Y-25907997D01*
X63465034Y-25908002D01*
X59012916Y-25908002D01*
X59013229Y-25907752D01*
X59060227Y-25898500D01*
X59607257Y-25898500D01*
X59622877Y-25900224D01*
X59622904Y-25899939D01*
X59630660Y-25900671D01*
X59630667Y-25900673D01*
X59699814Y-25898500D01*
X59729350Y-25898500D01*
X59736228Y-25897630D01*
X59742041Y-25897172D01*
X59788627Y-25895709D01*
X59807869Y-25890117D01*
X59826912Y-25886174D01*
X59846792Y-25883664D01*
X59890122Y-25866507D01*
X59895646Y-25864617D01*
X59899396Y-25863527D01*
X59940390Y-25851618D01*
X59957629Y-25841422D01*
X59975103Y-25832862D01*
X59993727Y-25825488D01*
X59993727Y-25825487D01*
X59993732Y-25825486D01*
X60031449Y-25798082D01*
X60036305Y-25794892D01*
X60076420Y-25771170D01*
X60090586Y-25757003D01*
X60105381Y-25744368D01*
X60108619Y-25742014D01*
X60121587Y-25732594D01*
X60151302Y-25696674D01*
X60155202Y-25692387D01*
X62202052Y-23645536D01*
X62263373Y-23612053D01*
X62333065Y-23617037D01*
X62354825Y-23627679D01*
X62410166Y-23661814D01*
X62576703Y-23716999D01*
X62679492Y-23727500D01*
X62679497Y-23727500D01*
X63704503Y-23727500D01*
X63704508Y-23727500D01*
X63807297Y-23716999D01*
X63973834Y-23661814D01*
X64123155Y-23569711D01*
X64247211Y-23445655D01*
X64339314Y-23296334D01*
X64394499Y-23129797D01*
X64405000Y-23027008D01*
X64405000Y-21676992D01*
X64394499Y-21574203D01*
X64339314Y-21407666D01*
X64327744Y-21388909D01*
X64247213Y-21258348D01*
X64247210Y-21258344D01*
X64123155Y-21134289D01*
X64123151Y-21134286D01*
X63973837Y-21042187D01*
X63973835Y-21042186D01*
X63887670Y-21013634D01*
X63807297Y-20987001D01*
X63807295Y-20987000D01*
X63704515Y-20976500D01*
X63704508Y-20976500D01*
X62884451Y-20976500D01*
X62817412Y-20956815D01*
X62771657Y-20904011D01*
X62761713Y-20834853D01*
X62790738Y-20771297D01*
X62796770Y-20764819D01*
X62876498Y-20685091D01*
X62976202Y-20585386D01*
X63037523Y-20551903D01*
X63107214Y-20556887D01*
X63138190Y-20573801D01*
X63180811Y-20605707D01*
X63219669Y-20634796D01*
X63219671Y-20634797D01*
X63354517Y-20685091D01*
X63354516Y-20685091D01*
X63361444Y-20685835D01*
X63414127Y-20691500D01*
X65109872Y-20691499D01*
X65169483Y-20685091D01*
X65304331Y-20634796D01*
X65343189Y-20605706D01*
X65408652Y-20581289D01*
X65476925Y-20596140D01*
X65526331Y-20645544D01*
X65541500Y-20704973D01*
X65541500Y-20900840D01*
X65521815Y-20967879D01*
X65469011Y-21013634D01*
X65456505Y-21018545D01*
X65385173Y-21042182D01*
X65385160Y-21042188D01*
X65235845Y-21134288D01*
X65111789Y-21258344D01*
X65111786Y-21258348D01*
X65019687Y-21407662D01*
X65019686Y-21407664D01*
X64964501Y-21574203D01*
X64964500Y-21574204D01*
X64954000Y-21676984D01*
X64954000Y-23027015D01*
X64964500Y-23129795D01*
X64964501Y-23129796D01*
X65019686Y-23296335D01*
X65019687Y-23296337D01*
X65111786Y-23445651D01*
X65111789Y-23445655D01*
X65235844Y-23569710D01*
X65235848Y-23569713D01*
X65385162Y-23661812D01*
X65385164Y-23661813D01*
X65385166Y-23661814D01*
X65551703Y-23716999D01*
X65654492Y-23727500D01*
X66606548Y-23727500D01*
X66673587Y-23747185D01*
X66694229Y-23763819D01*
X68460654Y-25530245D01*
X68494139Y-25591568D01*
X68492749Y-25650016D01*
X68484366Y-25681304D01*
X68484364Y-25681313D01*
X68464532Y-25907999D01*
X68464532Y-25908001D01*
X68484364Y-26134686D01*
X68484366Y-26134697D01*
X68543258Y-26354488D01*
X68543261Y-26354497D01*
X68639431Y-26560732D01*
X68639432Y-26560734D01*
X68769954Y-26747141D01*
X68930858Y-26908045D01*
X68940375Y-26914709D01*
X69117266Y-27038568D01*
X69323504Y-27134739D01*
X69543308Y-27193635D01*
X69700780Y-27207412D01*
X69769998Y-27213468D01*
X69770000Y-27213468D01*
X69770002Y-27213468D01*
X69839220Y-27207412D01*
X69996692Y-27193635D01*
X70065048Y-27175319D01*
X70134896Y-27176980D01*
X70184822Y-27207412D01*
X72952194Y-29974784D01*
X72962019Y-29987048D01*
X72962240Y-29986866D01*
X72967210Y-29992873D01*
X72967213Y-29992876D01*
X72967214Y-29992877D01*
X73017651Y-30040241D01*
X73038530Y-30061120D01*
X73044004Y-30065366D01*
X73048442Y-30069156D01*
X73082418Y-30101062D01*
X73082422Y-30101064D01*
X73099973Y-30110713D01*
X73116231Y-30121392D01*
X73132064Y-30133674D01*
X73154015Y-30143172D01*
X73174837Y-30152183D01*
X73180081Y-30154752D01*
X73220908Y-30177197D01*
X73240312Y-30182179D01*
X73258710Y-30188478D01*
X73277105Y-30196438D01*
X73323129Y-30203726D01*
X73328832Y-30204907D01*
X73373981Y-30216500D01*
X73394016Y-30216500D01*
X73413413Y-30218026D01*
X73433196Y-30221160D01*
X73479584Y-30216775D01*
X73485422Y-30216500D01*
X76752257Y-30216500D01*
X76767877Y-30218224D01*
X76767904Y-30217939D01*
X76775660Y-30218671D01*
X76775667Y-30218673D01*
X76844814Y-30216500D01*
X76874350Y-30216500D01*
X76881228Y-30215630D01*
X76887041Y-30215172D01*
X76933627Y-30213709D01*
X76952869Y-30208117D01*
X76971912Y-30204174D01*
X76991792Y-30201664D01*
X77035122Y-30184507D01*
X77040646Y-30182617D01*
X77044396Y-30181527D01*
X77085390Y-30169618D01*
X77102629Y-30159422D01*
X77120103Y-30150862D01*
X77138727Y-30143488D01*
X77138727Y-30143487D01*
X77138732Y-30143486D01*
X77176449Y-30116082D01*
X77181305Y-30112892D01*
X77221420Y-30089170D01*
X77235589Y-30074999D01*
X77250379Y-30062368D01*
X77266587Y-30050594D01*
X77296299Y-30014676D01*
X77300212Y-30010376D01*
X77726785Y-29583803D01*
X77739041Y-29573987D01*
X77738858Y-29573765D01*
X77744875Y-29568787D01*
X77744874Y-29568787D01*
X77744877Y-29568786D01*
X77769251Y-29542829D01*
X77792227Y-29518364D01*
X77802671Y-29507918D01*
X77813120Y-29497471D01*
X77817379Y-29491978D01*
X77821152Y-29487561D01*
X77853062Y-29453582D01*
X77862713Y-29436024D01*
X77873396Y-29419761D01*
X77885673Y-29403936D01*
X77904185Y-29361153D01*
X77906738Y-29355941D01*
X77929197Y-29315092D01*
X77934180Y-29295680D01*
X77940481Y-29277280D01*
X77948437Y-29258896D01*
X77955729Y-29212852D01*
X77956906Y-29207171D01*
X77968500Y-29162019D01*
X77968500Y-29141983D01*
X77970027Y-29122582D01*
X77973160Y-29102804D01*
X77968775Y-29056418D01*
X77968500Y-29050580D01*
X77968500Y-28840180D01*
X77988185Y-28773141D01*
X78026524Y-28735189D01*
X78104576Y-28686147D01*
X78228147Y-28562576D01*
X78321122Y-28414606D01*
X78378841Y-28249657D01*
X78393500Y-28119552D01*
X78393500Y-26782448D01*
X78378841Y-26652343D01*
X78346785Y-26560734D01*
X78321122Y-26487393D01*
X78309860Y-26469470D01*
X78290861Y-26402233D01*
X78311230Y-26335399D01*
X78364498Y-26290185D01*
X78414855Y-26279500D01*
X78683548Y-26279500D01*
X78750587Y-26299185D01*
X78771229Y-26315819D01*
X79795725Y-27340315D01*
X79829210Y-27401638D01*
X79832044Y-27427996D01*
X79832044Y-29963444D01*
X79812359Y-30030483D01*
X79759555Y-30076238D01*
X79708044Y-30087444D01*
X79409674Y-30087444D01*
X79409667Y-30087445D01*
X79350060Y-30093852D01*
X79215215Y-30144146D01*
X79215208Y-30144150D01*
X79099999Y-30230396D01*
X79099996Y-30230399D01*
X79013750Y-30345608D01*
X79013746Y-30345615D01*
X78963452Y-30480461D01*
X78957045Y-30540060D01*
X78957045Y-30540067D01*
X78957044Y-30540079D01*
X78957044Y-32635814D01*
X78957045Y-32635820D01*
X78963452Y-32695427D01*
X79013746Y-32830272D01*
X79013750Y-32830279D01*
X79099996Y-32945488D01*
X79099999Y-32945491D01*
X79215208Y-33031737D01*
X79215215Y-33031741D01*
X79350061Y-33082035D01*
X79350060Y-33082035D01*
X79356988Y-33082779D01*
X79409671Y-33088444D01*
X81505416Y-33088443D01*
X81565027Y-33082035D01*
X81699875Y-33031740D01*
X81815090Y-32945490D01*
X81901340Y-32830275D01*
X81951635Y-32695427D01*
X81958044Y-32635817D01*
X81958043Y-30540072D01*
X81951635Y-30480461D01*
X81937678Y-30443041D01*
X81901341Y-30345615D01*
X81901337Y-30345608D01*
X81815091Y-30230399D01*
X81815088Y-30230396D01*
X81699879Y-30144150D01*
X81699872Y-30144146D01*
X81565026Y-30093852D01*
X81565027Y-30093852D01*
X81505427Y-30087445D01*
X81505425Y-30087444D01*
X81505417Y-30087444D01*
X81505409Y-30087444D01*
X81207044Y-30087444D01*
X81140005Y-30067759D01*
X81094250Y-30014955D01*
X81083044Y-29963444D01*
X81083044Y-27200286D01*
X81084768Y-27184666D01*
X81084483Y-27184639D01*
X81085217Y-27176877D01*
X81083044Y-27107716D01*
X81083044Y-27078200D01*
X81083044Y-27078194D01*
X81082175Y-27071323D01*
X81081717Y-27065496D01*
X81081269Y-27051233D01*
X81080254Y-27018917D01*
X81074663Y-26999674D01*
X81070717Y-26980622D01*
X81068208Y-26960752D01*
X81051048Y-26917411D01*
X81049168Y-26911923D01*
X81036162Y-26867154D01*
X81034691Y-26864667D01*
X81025967Y-26849915D01*
X81017405Y-26832438D01*
X81010031Y-26813814D01*
X81010030Y-26813812D01*
X80982623Y-26776089D01*
X80979432Y-26771230D01*
X80976836Y-26766841D01*
X80955714Y-26731124D01*
X80955712Y-26731122D01*
X80955709Y-26731118D01*
X80941550Y-26716959D01*
X80928912Y-26702163D01*
X80928233Y-26701228D01*
X80917138Y-26685957D01*
X80881232Y-26656253D01*
X80876920Y-26652330D01*
X79494803Y-25270212D01*
X79484980Y-25257950D01*
X79484759Y-25258134D01*
X79479786Y-25252123D01*
X79429364Y-25204773D01*
X79418919Y-25194328D01*
X79408475Y-25183883D01*
X79402986Y-25179625D01*
X79398561Y-25175847D01*
X79364582Y-25143938D01*
X79364580Y-25143936D01*
X79364577Y-25143935D01*
X79347029Y-25134288D01*
X79330763Y-25123604D01*
X79314933Y-25111325D01*
X79272168Y-25092818D01*
X79266922Y-25090248D01*
X79226093Y-25067803D01*
X79226092Y-25067802D01*
X79206693Y-25062822D01*
X79188281Y-25056518D01*
X79169898Y-25048562D01*
X79169892Y-25048560D01*
X79123874Y-25041272D01*
X79118152Y-25040087D01*
X79073021Y-25028500D01*
X79073019Y-25028500D01*
X79052984Y-25028500D01*
X79033586Y-25026973D01*
X79026162Y-25025797D01*
X79013805Y-25023840D01*
X79013804Y-25023840D01*
X78967416Y-25028225D01*
X78961578Y-25028500D01*
X77247500Y-25028500D01*
X77180461Y-25008815D01*
X77134706Y-24956011D01*
X77123500Y-24904500D01*
X77123500Y-24712445D01*
X77123499Y-24712441D01*
X77118620Y-24669141D01*
X77108841Y-24582343D01*
X77051122Y-24417394D01*
X76958147Y-24269424D01*
X76834576Y-24145853D01*
X76756528Y-24096812D01*
X76710237Y-24044477D01*
X76698500Y-23991818D01*
X76698500Y-21323500D01*
X76718185Y-21256461D01*
X76770989Y-21210706D01*
X76822500Y-21199500D01*
X78048548Y-21199500D01*
X78115587Y-21219185D01*
X78136229Y-21235819D01*
X79091586Y-22191177D01*
X79125071Y-22252500D01*
X79123680Y-22310949D01*
X79105367Y-22379296D01*
X79105364Y-22379313D01*
X79085532Y-22605999D01*
X79085532Y-22606001D01*
X79105364Y-22832686D01*
X79105366Y-22832697D01*
X79164258Y-23052488D01*
X79164261Y-23052497D01*
X79260431Y-23258732D01*
X79260432Y-23258734D01*
X79390954Y-23445141D01*
X79551858Y-23606045D01*
X79587321Y-23630876D01*
X79738266Y-23736568D01*
X79944504Y-23832739D01*
X80164308Y-23891635D01*
X80326230Y-23905801D01*
X80390998Y-23911468D01*
X80391000Y-23911468D01*
X80391002Y-23911468D01*
X80447673Y-23906509D01*
X80617692Y-23891635D01*
X80837496Y-23832739D01*
X81043734Y-23736568D01*
X81230139Y-23606047D01*
X81391047Y-23445139D01*
X81521568Y-23258734D01*
X81617739Y-23052496D01*
X81676635Y-22832692D01*
X81696468Y-22606002D01*
X84086034Y-22606002D01*
X84105858Y-22832599D01*
X84105860Y-22832610D01*
X84164730Y-23052317D01*
X84164734Y-23052326D01*
X84260865Y-23258481D01*
X84260866Y-23258483D01*
X84311973Y-23331471D01*
X84311974Y-23331472D01*
X84993046Y-22650399D01*
X85005835Y-22731148D01*
X85063359Y-22844045D01*
X85152955Y-22933641D01*
X85265852Y-22991165D01*
X85346599Y-23003953D01*
X84665526Y-23685025D01*
X84665526Y-23685026D01*
X84738512Y-23736131D01*
X84738516Y-23736133D01*
X84944673Y-23832265D01*
X84944682Y-23832269D01*
X85164389Y-23891139D01*
X85164400Y-23891141D01*
X85390998Y-23910966D01*
X85391002Y-23910966D01*
X85617599Y-23891141D01*
X85617610Y-23891139D01*
X85837317Y-23832269D01*
X85837331Y-23832264D01*
X86043478Y-23736136D01*
X86116472Y-23685025D01*
X85435401Y-23003953D01*
X85516148Y-22991165D01*
X85629045Y-22933641D01*
X85718641Y-22844045D01*
X85776165Y-22731148D01*
X85788953Y-22650400D01*
X86470025Y-23331472D01*
X86521136Y-23258478D01*
X86617264Y-23052331D01*
X86617269Y-23052317D01*
X86676139Y-22832610D01*
X86676141Y-22832599D01*
X86695966Y-22606002D01*
X86695966Y-22605997D01*
X86676141Y-22379400D01*
X86676139Y-22379389D01*
X86617269Y-22159682D01*
X86617265Y-22159673D01*
X86521133Y-21953516D01*
X86521131Y-21953512D01*
X86470026Y-21880526D01*
X86470025Y-21880526D01*
X85788953Y-22561598D01*
X85776165Y-22480852D01*
X85718641Y-22367955D01*
X85629045Y-22278359D01*
X85516148Y-22220835D01*
X85435400Y-22208046D01*
X86116472Y-21526974D01*
X86116471Y-21526973D01*
X86043483Y-21475866D01*
X86043481Y-21475865D01*
X85837326Y-21379734D01*
X85837317Y-21379730D01*
X85617610Y-21320860D01*
X85617599Y-21320858D01*
X85391002Y-21301034D01*
X85390998Y-21301034D01*
X85164400Y-21320858D01*
X85164389Y-21320860D01*
X84944682Y-21379730D01*
X84944673Y-21379734D01*
X84738513Y-21475868D01*
X84665527Y-21526972D01*
X84665526Y-21526973D01*
X85346600Y-22208046D01*
X85265852Y-22220835D01*
X85152955Y-22278359D01*
X85063359Y-22367955D01*
X85005835Y-22480852D01*
X84993046Y-22561599D01*
X84311973Y-21880526D01*
X84311972Y-21880527D01*
X84260868Y-21953513D01*
X84164734Y-22159673D01*
X84164730Y-22159682D01*
X84105860Y-22379389D01*
X84105858Y-22379400D01*
X84086034Y-22605997D01*
X84086034Y-22606002D01*
X81696468Y-22606002D01*
X81696468Y-22606000D01*
X81676635Y-22379308D01*
X81617739Y-22159504D01*
X81521568Y-21953266D01*
X81391047Y-21766861D01*
X81391045Y-21766858D01*
X81230141Y-21605954D01*
X81043734Y-21475432D01*
X81043732Y-21475431D01*
X80837497Y-21379261D01*
X80837488Y-21379258D01*
X80617697Y-21320366D01*
X80617693Y-21320365D01*
X80617692Y-21320365D01*
X80617691Y-21320364D01*
X80617686Y-21320364D01*
X80391002Y-21300532D01*
X80390999Y-21300532D01*
X80164313Y-21320364D01*
X80164296Y-21320367D01*
X80095949Y-21338680D01*
X80026099Y-21337016D01*
X79976177Y-21306586D01*
X78859803Y-20190212D01*
X78849980Y-20177950D01*
X78849759Y-20178134D01*
X78844786Y-20172123D01*
X78794364Y-20124773D01*
X78783919Y-20114328D01*
X78773475Y-20103883D01*
X78767986Y-20099625D01*
X78763561Y-20095847D01*
X78729582Y-20063938D01*
X78729580Y-20063936D01*
X78729577Y-20063935D01*
X78712029Y-20054288D01*
X78695763Y-20043604D01*
X78679933Y-20031325D01*
X78637168Y-20012818D01*
X78631922Y-20010248D01*
X78591093Y-19987803D01*
X78591092Y-19987802D01*
X78571693Y-19982822D01*
X78553281Y-19976518D01*
X78534898Y-19968562D01*
X78534892Y-19968560D01*
X78488874Y-19961272D01*
X78483152Y-19960087D01*
X78438021Y-19948500D01*
X78438019Y-19948500D01*
X78417984Y-19948500D01*
X78398586Y-19946973D01*
X78384695Y-19944773D01*
X78378805Y-19943840D01*
X78378804Y-19943840D01*
X78332416Y-19948225D01*
X78326578Y-19948500D01*
X76143847Y-19948500D01*
X76120615Y-19946304D01*
X76112588Y-19944773D01*
X76112586Y-19944773D01*
X76103633Y-19945336D01*
X76055275Y-19948378D01*
X76051403Y-19948500D01*
X74154355Y-19948500D01*
X74087316Y-19928815D01*
X74041561Y-19876011D01*
X74030355Y-19824500D01*
X74030355Y-19726129D01*
X74030354Y-19726123D01*
X74030353Y-19726116D01*
X74023947Y-19666517D01*
X74013901Y-19639583D01*
X73973653Y-19531671D01*
X73973649Y-19531664D01*
X73887403Y-19416455D01*
X73887400Y-19416452D01*
X73772191Y-19330206D01*
X73772184Y-19330202D01*
X73637338Y-19279908D01*
X73637339Y-19279908D01*
X73577739Y-19273501D01*
X73577737Y-19273500D01*
X73577729Y-19273500D01*
X73577720Y-19273500D01*
X71881985Y-19273500D01*
X71881979Y-19273501D01*
X71822372Y-19279908D01*
X71687527Y-19330202D01*
X71687520Y-19330206D01*
X71572311Y-19416452D01*
X71572308Y-19416455D01*
X71486062Y-19531664D01*
X71486058Y-19531671D01*
X71435764Y-19666517D01*
X71429357Y-19726116D01*
X71429357Y-19726123D01*
X71429178Y-19729452D01*
X71427703Y-19729372D01*
X71409671Y-19790783D01*
X71356867Y-19836538D01*
X71313379Y-19844028D01*
X70627809Y-20529598D01*
X70615021Y-20448852D01*
X70557497Y-20335955D01*
X70467901Y-20246359D01*
X70355004Y-20188835D01*
X70274256Y-20176046D01*
X70955328Y-19494974D01*
X70955327Y-19494973D01*
X70882339Y-19443866D01*
X70882337Y-19443865D01*
X70676182Y-19347734D01*
X70676173Y-19347730D01*
X70456466Y-19288860D01*
X70456455Y-19288858D01*
X70229858Y-19269034D01*
X70229854Y-19269034D01*
X70003256Y-19288858D01*
X70003245Y-19288860D01*
X69783538Y-19347730D01*
X69783529Y-19347734D01*
X69577369Y-19443868D01*
X69504383Y-19494972D01*
X69504382Y-19494973D01*
X70185456Y-20176046D01*
X70104708Y-20188835D01*
X69991811Y-20246359D01*
X69902215Y-20335955D01*
X69844691Y-20448852D01*
X69831902Y-20529599D01*
X69150829Y-19848526D01*
X69150828Y-19848527D01*
X69099724Y-19921513D01*
X69003590Y-20127673D01*
X69003586Y-20127682D01*
X68944716Y-20347389D01*
X68944714Y-20347400D01*
X68924890Y-20573997D01*
X68924890Y-20574002D01*
X68944714Y-20800599D01*
X68944716Y-20800610D01*
X69003586Y-21020317D01*
X69003590Y-21020326D01*
X69099721Y-21226481D01*
X69099722Y-21226483D01*
X69150829Y-21299471D01*
X69150830Y-21299472D01*
X69831902Y-20618399D01*
X69844691Y-20699148D01*
X69902215Y-20812045D01*
X69991811Y-20901641D01*
X70104708Y-20959165D01*
X70185455Y-20971953D01*
X69504382Y-21653025D01*
X69504382Y-21653026D01*
X69577368Y-21704131D01*
X69577372Y-21704133D01*
X69783529Y-21800265D01*
X69783538Y-21800269D01*
X70003245Y-21859139D01*
X70003256Y-21859141D01*
X70229854Y-21878966D01*
X70229858Y-21878966D01*
X70456455Y-21859141D01*
X70456466Y-21859139D01*
X70676173Y-21800269D01*
X70676187Y-21800264D01*
X70882334Y-21704136D01*
X70955328Y-21653025D01*
X70274257Y-20971953D01*
X70355004Y-20959165D01*
X70467901Y-20901641D01*
X70557497Y-20812045D01*
X70615021Y-20699148D01*
X70627809Y-20618400D01*
X71314055Y-21304646D01*
X71363048Y-21314492D01*
X71413231Y-21363107D01*
X71427905Y-21418632D01*
X71428955Y-21418576D01*
X71429002Y-21418571D01*
X71429002Y-21418573D01*
X71429180Y-21418564D01*
X71429357Y-21421876D01*
X71435764Y-21481483D01*
X71486058Y-21616328D01*
X71486062Y-21616335D01*
X71572308Y-21731544D01*
X71572311Y-21731547D01*
X71687520Y-21817793D01*
X71687527Y-21817797D01*
X71822373Y-21868091D01*
X71822372Y-21868091D01*
X71829300Y-21868835D01*
X71881983Y-21874500D01*
X73577728Y-21874499D01*
X73637339Y-21868091D01*
X73772187Y-21817796D01*
X73887402Y-21731546D01*
X73973652Y-21616331D01*
X74023947Y-21481483D01*
X74030356Y-21421873D01*
X74030356Y-21323500D01*
X74050041Y-21256461D01*
X74102845Y-21210706D01*
X74154356Y-21199500D01*
X75323500Y-21199500D01*
X75390539Y-21219185D01*
X75436294Y-21271989D01*
X75447500Y-21323500D01*
X75447500Y-23991818D01*
X75427815Y-24058857D01*
X75389472Y-24096812D01*
X75311423Y-24145853D01*
X75187853Y-24269423D01*
X75094877Y-24417395D01*
X75037159Y-24582341D01*
X75037157Y-24582351D01*
X75022500Y-24712441D01*
X75022500Y-26049558D01*
X75037157Y-26179648D01*
X75037158Y-26179655D01*
X75037159Y-26179657D01*
X75046041Y-26205041D01*
X75053000Y-26245994D01*
X75053000Y-26770382D01*
X74983948Y-26716637D01*
X74865576Y-26676000D01*
X74771927Y-26676000D01*
X74679554Y-26691414D01*
X74569486Y-26750981D01*
X74553000Y-26768889D01*
X74553000Y-26051000D01*
X74205155Y-26051000D01*
X74145627Y-26057401D01*
X74145620Y-26057403D01*
X74010913Y-26107645D01*
X74010906Y-26107649D01*
X73895812Y-26193809D01*
X73895809Y-26193812D01*
X73809649Y-26308906D01*
X73809645Y-26308913D01*
X73759403Y-26443620D01*
X73759401Y-26443627D01*
X73753000Y-26503155D01*
X73753000Y-27201000D01*
X74454148Y-27201000D01*
X74454837Y-27203719D01*
X74523289Y-27308492D01*
X74622052Y-27385363D01*
X74740424Y-27426000D01*
X74834073Y-27426000D01*
X74926446Y-27410586D01*
X75036514Y-27351019D01*
X75121278Y-27258941D01*
X75146693Y-27201000D01*
X75853000Y-27201000D01*
X75853000Y-26905500D01*
X75872685Y-26838461D01*
X75925489Y-26792706D01*
X75977000Y-26781500D01*
X76168500Y-26781500D01*
X76235539Y-26801185D01*
X76281294Y-26853989D01*
X76292500Y-26905500D01*
X76292500Y-28119558D01*
X76307157Y-28249648D01*
X76307159Y-28249658D01*
X76364877Y-28414604D01*
X76364878Y-28414606D01*
X76457853Y-28562576D01*
X76581424Y-28686147D01*
X76617937Y-28709089D01*
X76664226Y-28761421D01*
X76674876Y-28830475D01*
X76646501Y-28894324D01*
X76639647Y-28901762D01*
X76612227Y-28929181D01*
X76550907Y-28962666D01*
X76524547Y-28965500D01*
X75739023Y-28965500D01*
X75671984Y-28945815D01*
X75626229Y-28893011D01*
X75616285Y-28823853D01*
X75645310Y-28760297D01*
X75664711Y-28742234D01*
X75710190Y-28708187D01*
X75796350Y-28593093D01*
X75796354Y-28593086D01*
X75846596Y-28458379D01*
X75846598Y-28458372D01*
X75852999Y-28398844D01*
X75853000Y-28398827D01*
X75853000Y-27701000D01*
X73753000Y-27701000D01*
X73753000Y-28398844D01*
X73759401Y-28458372D01*
X73759403Y-28458379D01*
X73809645Y-28593086D01*
X73809649Y-28593093D01*
X73895809Y-28708187D01*
X73941289Y-28742234D01*
X73983159Y-28798168D01*
X73988143Y-28867860D01*
X73954657Y-28929182D01*
X73893333Y-28962667D01*
X73866977Y-28965500D01*
X73763452Y-28965500D01*
X73696413Y-28945815D01*
X73675771Y-28929181D01*
X71069413Y-26322822D01*
X71035928Y-26261499D01*
X71037319Y-26203048D01*
X71039794Y-26193812D01*
X71055635Y-26134692D01*
X71075468Y-25908000D01*
X71073665Y-25887397D01*
X71060122Y-25732594D01*
X71055635Y-25681308D01*
X70996739Y-25461504D01*
X70900568Y-25255266D01*
X70786822Y-25092818D01*
X70770045Y-25068858D01*
X70609141Y-24907954D01*
X70422734Y-24777432D01*
X70422732Y-24777431D01*
X70216497Y-24681261D01*
X70216488Y-24681258D01*
X69996697Y-24622366D01*
X69996693Y-24622365D01*
X69996692Y-24622365D01*
X69996691Y-24622364D01*
X69996686Y-24622364D01*
X69770002Y-24602532D01*
X69769999Y-24602532D01*
X69543313Y-24622364D01*
X69543309Y-24622364D01*
X69543308Y-24622365D01*
X69543303Y-24622366D01*
X69543300Y-24622367D01*
X69437882Y-24650612D01*
X69368032Y-24648948D01*
X69318109Y-24618518D01*
X67416319Y-22716728D01*
X67382834Y-22655405D01*
X67380000Y-22629047D01*
X67380000Y-21676997D01*
X67379999Y-21676984D01*
X67377551Y-21653026D01*
X67369499Y-21574203D01*
X67314314Y-21407666D01*
X67302744Y-21388909D01*
X67222213Y-21258348D01*
X67222210Y-21258344D01*
X67098154Y-21134288D01*
X66948839Y-21042188D01*
X66948826Y-21042182D01*
X66877495Y-21018545D01*
X66820050Y-20978772D01*
X66793228Y-20914256D01*
X66792500Y-20900840D01*
X66792500Y-20108742D01*
X66794224Y-20093122D01*
X66793939Y-20093095D01*
X66794673Y-20085333D01*
X66792500Y-20016172D01*
X66792500Y-19986656D01*
X66792500Y-19986650D01*
X66791631Y-19979779D01*
X66791173Y-19973952D01*
X66791004Y-19968560D01*
X66789710Y-19927373D01*
X66784119Y-19908130D01*
X66780173Y-19889078D01*
X66777664Y-19869208D01*
X66760504Y-19825867D01*
X66758624Y-19820379D01*
X66745618Y-19775610D01*
X66735422Y-19758370D01*
X66726861Y-19740894D01*
X66719487Y-19722270D01*
X66719486Y-19722268D01*
X66692079Y-19684545D01*
X66688888Y-19679686D01*
X66665172Y-19639583D01*
X66665165Y-19639574D01*
X66651006Y-19625415D01*
X66638368Y-19610619D01*
X66626594Y-19594413D01*
X66590688Y-19564709D01*
X66586376Y-19560786D01*
X66504269Y-19478678D01*
X66470785Y-19417357D01*
X66475769Y-19347665D01*
X66504268Y-19303320D01*
X68467827Y-17339763D01*
X82092787Y-17339763D01*
X82122413Y-17609013D01*
X82122415Y-17609024D01*
X82190926Y-17871082D01*
X82190928Y-17871088D01*
X82296870Y-18120390D01*
X82365873Y-18233455D01*
X82437979Y-18351605D01*
X82437986Y-18351615D01*
X82611253Y-18559819D01*
X82611259Y-18559824D01*
X82812998Y-18740582D01*
X83038910Y-18890044D01*
X83284176Y-19005020D01*
X83284183Y-19005022D01*
X83284185Y-19005023D01*
X83543557Y-19083057D01*
X83543564Y-19083058D01*
X83543569Y-19083060D01*
X83811561Y-19122500D01*
X83811566Y-19122500D01*
X84014636Y-19122500D01*
X84066133Y-19118730D01*
X84217156Y-19107677D01*
X84329758Y-19082593D01*
X84481546Y-19048782D01*
X84481548Y-19048781D01*
X84481553Y-19048780D01*
X84734558Y-18952014D01*
X84970777Y-18819441D01*
X85185177Y-18653888D01*
X85373186Y-18458881D01*
X85530799Y-18238579D01*
X85606931Y-18090501D01*
X85654649Y-17997690D01*
X85654651Y-17997684D01*
X85654656Y-17997675D01*
X85742118Y-17741305D01*
X85791319Y-17474933D01*
X85801212Y-17204235D01*
X85771586Y-16934982D01*
X85703072Y-16672912D01*
X85597130Y-16423610D01*
X85456018Y-16192390D01*
X85406731Y-16133165D01*
X85282746Y-15984180D01*
X85282740Y-15984175D01*
X85081002Y-15803418D01*
X84855092Y-15653957D01*
X84788739Y-15622852D01*
X84609824Y-15538980D01*
X84609819Y-15538978D01*
X84609814Y-15538976D01*
X84350442Y-15460942D01*
X84350428Y-15460939D01*
X84234791Y-15443921D01*
X84082439Y-15421500D01*
X83879369Y-15421500D01*
X83879364Y-15421500D01*
X83676844Y-15436323D01*
X83676831Y-15436325D01*
X83412453Y-15495217D01*
X83412446Y-15495220D01*
X83159439Y-15591987D01*
X82923226Y-15724557D01*
X82923224Y-15724558D01*
X82923223Y-15724559D01*
X82876201Y-15760868D01*
X82708822Y-15890112D01*
X82520822Y-16085109D01*
X82520816Y-16085116D01*
X82363202Y-16305419D01*
X82363199Y-16305424D01*
X82239350Y-16546309D01*
X82239343Y-16546327D01*
X82151884Y-16802685D01*
X82151881Y-16802699D01*
X82102681Y-17069068D01*
X82102680Y-17069075D01*
X82092787Y-17339763D01*
X68467827Y-17339763D01*
X69397772Y-16409819D01*
X69459095Y-16376334D01*
X69485453Y-16373500D01*
X72612812Y-16373500D01*
X72679851Y-16393185D01*
X72714387Y-16426377D01*
X72826954Y-16587141D01*
X72987858Y-16748045D01*
X72987861Y-16748047D01*
X73174266Y-16878568D01*
X73380504Y-16974739D01*
X73600308Y-17033635D01*
X73762230Y-17047801D01*
X73826998Y-17053468D01*
X73827000Y-17053468D01*
X73827002Y-17053468D01*
X73883673Y-17048509D01*
X74053692Y-17033635D01*
X74273496Y-16974739D01*
X74479734Y-16878568D01*
X74666139Y-16748047D01*
X74827047Y-16587139D01*
X74957568Y-16400734D01*
X75053739Y-16194496D01*
X75112635Y-15974692D01*
X75131342Y-15760866D01*
X75132468Y-15748001D01*
X75132468Y-15747998D01*
X75120032Y-15605858D01*
X75112635Y-15521308D01*
X75053739Y-15301504D01*
X74957568Y-15095266D01*
X74827047Y-14908861D01*
X74827045Y-14908858D01*
X74666141Y-14747954D01*
X74479734Y-14617432D01*
X74479732Y-14617431D01*
X74273497Y-14521261D01*
X74273488Y-14521258D01*
X74104650Y-14476019D01*
X74044989Y-14439654D01*
X74014460Y-14376807D01*
X74022755Y-14307432D01*
X74067240Y-14253554D01*
X74133792Y-14232279D01*
X74136743Y-14232244D01*
X78519188Y-14232244D01*
X78586227Y-14251929D01*
X78631982Y-14304733D01*
X78641926Y-14373891D01*
X78612901Y-14437447D01*
X78554123Y-14475221D01*
X78551281Y-14476019D01*
X78380682Y-14521730D01*
X78380673Y-14521734D01*
X78174513Y-14617868D01*
X78101527Y-14668972D01*
X78101526Y-14668973D01*
X78782600Y-15350046D01*
X78701852Y-15362835D01*
X78588955Y-15420359D01*
X78499359Y-15509955D01*
X78441835Y-15622852D01*
X78429046Y-15703599D01*
X77747973Y-15022526D01*
X77747972Y-15022527D01*
X77696868Y-15095513D01*
X77600734Y-15301673D01*
X77600730Y-15301682D01*
X77541860Y-15521389D01*
X77541858Y-15521400D01*
X77522034Y-15747997D01*
X77522034Y-15748002D01*
X77541858Y-15974599D01*
X77541860Y-15974610D01*
X77600730Y-16194317D01*
X77600734Y-16194326D01*
X77696865Y-16400481D01*
X77696866Y-16400483D01*
X77747973Y-16473471D01*
X77747974Y-16473472D01*
X78429046Y-15792399D01*
X78441835Y-15873148D01*
X78499359Y-15986045D01*
X78588955Y-16075641D01*
X78701852Y-16133165D01*
X78782599Y-16145953D01*
X78101526Y-16827025D01*
X78101526Y-16827026D01*
X78174512Y-16878131D01*
X78174516Y-16878133D01*
X78380673Y-16974265D01*
X78380682Y-16974269D01*
X78600389Y-17033139D01*
X78600400Y-17033141D01*
X78826998Y-17052966D01*
X78827002Y-17052966D01*
X79053599Y-17033141D01*
X79053610Y-17033139D01*
X79273317Y-16974269D01*
X79273331Y-16974264D01*
X79479478Y-16878136D01*
X79552472Y-16827025D01*
X78871401Y-16145953D01*
X78952148Y-16133165D01*
X79065045Y-16075641D01*
X79154641Y-15986045D01*
X79212165Y-15873148D01*
X79224953Y-15792400D01*
X79906025Y-16473472D01*
X79957136Y-16400478D01*
X80053264Y-16194331D01*
X80053269Y-16194317D01*
X80112139Y-15974610D01*
X80112141Y-15974599D01*
X80131966Y-15748002D01*
X80131966Y-15747997D01*
X80112141Y-15521400D01*
X80112139Y-15521389D01*
X80053269Y-15301682D01*
X80053265Y-15301673D01*
X79957133Y-15095516D01*
X79957131Y-15095512D01*
X79906026Y-15022526D01*
X79906025Y-15022526D01*
X79224953Y-15703598D01*
X79212165Y-15622852D01*
X79154641Y-15509955D01*
X79065045Y-15420359D01*
X78952148Y-15362835D01*
X78871400Y-15350046D01*
X79552472Y-14668974D01*
X79552471Y-14668973D01*
X79479483Y-14617866D01*
X79479481Y-14617865D01*
X79273326Y-14521734D01*
X79273317Y-14521730D01*
X79102719Y-14476019D01*
X79043058Y-14439654D01*
X79012529Y-14376807D01*
X79020824Y-14307431D01*
X79065309Y-14253554D01*
X79131861Y-14232279D01*
X79134812Y-14232244D01*
X86995844Y-14232244D01*
X87062883Y-14251929D01*
X87108638Y-14304733D01*
X87119844Y-14356244D01*
X87119844Y-57328644D01*
X87100159Y-57395683D01*
X87047355Y-57441438D01*
X86995844Y-57452644D01*
X54767644Y-57452644D01*
X54700605Y-57432959D01*
X54654850Y-57380155D01*
X54643644Y-57328644D01*
X54643644Y-54296763D01*
X56057787Y-54296763D01*
X56087413Y-54566013D01*
X56087415Y-54566024D01*
X56155926Y-54828082D01*
X56155928Y-54828088D01*
X56261870Y-55077390D01*
X56333998Y-55195575D01*
X56402979Y-55308605D01*
X56402986Y-55308615D01*
X56576253Y-55516819D01*
X56576259Y-55516824D01*
X56777998Y-55697582D01*
X57003910Y-55847044D01*
X57249176Y-55962020D01*
X57249183Y-55962022D01*
X57249185Y-55962023D01*
X57508557Y-56040057D01*
X57508564Y-56040058D01*
X57508569Y-56040060D01*
X57776561Y-56079500D01*
X57776566Y-56079500D01*
X57979636Y-56079500D01*
X58031133Y-56075730D01*
X58182156Y-56064677D01*
X58294758Y-56039593D01*
X58446546Y-56005782D01*
X58446548Y-56005781D01*
X58446553Y-56005780D01*
X58699558Y-55909014D01*
X58935777Y-55776441D01*
X59150177Y-55610888D01*
X59338186Y-55415881D01*
X59495799Y-55195579D01*
X59569787Y-55051669D01*
X59619649Y-54954690D01*
X59619651Y-54954684D01*
X59619656Y-54954675D01*
X59707118Y-54698305D01*
X59756319Y-54431933D01*
X59761259Y-54296763D01*
X82092787Y-54296763D01*
X82122413Y-54566013D01*
X82122415Y-54566024D01*
X82190926Y-54828082D01*
X82190928Y-54828088D01*
X82296870Y-55077390D01*
X82368998Y-55195575D01*
X82437979Y-55308605D01*
X82437986Y-55308615D01*
X82611253Y-55516819D01*
X82611259Y-55516824D01*
X82812998Y-55697582D01*
X83038910Y-55847044D01*
X83284176Y-55962020D01*
X83284183Y-55962022D01*
X83284185Y-55962023D01*
X83543557Y-56040057D01*
X83543564Y-56040058D01*
X83543569Y-56040060D01*
X83811561Y-56079500D01*
X83811566Y-56079500D01*
X84014636Y-56079500D01*
X84066133Y-56075730D01*
X84217156Y-56064677D01*
X84329758Y-56039593D01*
X84481546Y-56005782D01*
X84481548Y-56005781D01*
X84481553Y-56005780D01*
X84734558Y-55909014D01*
X84970777Y-55776441D01*
X85185177Y-55610888D01*
X85373186Y-55415881D01*
X85530799Y-55195579D01*
X85604787Y-55051669D01*
X85654649Y-54954690D01*
X85654651Y-54954684D01*
X85654656Y-54954675D01*
X85742118Y-54698305D01*
X85791319Y-54431933D01*
X85801212Y-54161235D01*
X85771586Y-53891982D01*
X85703072Y-53629912D01*
X85597130Y-53380610D01*
X85456018Y-53149390D01*
X85366747Y-53042119D01*
X85282746Y-52941180D01*
X85282740Y-52941175D01*
X85081002Y-52760418D01*
X84855092Y-52610957D01*
X84855090Y-52610956D01*
X84609824Y-52495980D01*
X84609819Y-52495978D01*
X84609814Y-52495976D01*
X84350442Y-52417942D01*
X84350428Y-52417939D01*
X84234791Y-52400921D01*
X84082439Y-52378500D01*
X83879369Y-52378500D01*
X83879364Y-52378500D01*
X83676844Y-52393323D01*
X83676831Y-52393325D01*
X83412453Y-52452217D01*
X83412446Y-52452220D01*
X83159439Y-52548987D01*
X82923226Y-52681557D01*
X82708822Y-52847112D01*
X82520822Y-53042109D01*
X82520816Y-53042116D01*
X82363202Y-53262419D01*
X82363199Y-53262424D01*
X82239350Y-53503309D01*
X82239343Y-53503327D01*
X82151884Y-53759685D01*
X82151881Y-53759699D01*
X82102681Y-54026068D01*
X82102680Y-54026075D01*
X82092787Y-54296763D01*
X59761259Y-54296763D01*
X59766212Y-54161235D01*
X59736586Y-53891982D01*
X59668072Y-53629912D01*
X59562130Y-53380610D01*
X59421018Y-53149390D01*
X59331747Y-53042119D01*
X59247746Y-52941180D01*
X59247740Y-52941175D01*
X59046002Y-52760418D01*
X58820092Y-52610957D01*
X58820090Y-52610956D01*
X58574824Y-52495980D01*
X58574819Y-52495978D01*
X58574814Y-52495976D01*
X58315442Y-52417942D01*
X58315428Y-52417939D01*
X58199791Y-52400921D01*
X58047439Y-52378500D01*
X57844369Y-52378500D01*
X57844364Y-52378500D01*
X57641844Y-52393323D01*
X57641831Y-52393325D01*
X57377453Y-52452217D01*
X57377446Y-52452220D01*
X57124439Y-52548987D01*
X56888226Y-52681557D01*
X56673822Y-52847112D01*
X56485822Y-53042109D01*
X56485816Y-53042116D01*
X56328202Y-53262419D01*
X56328199Y-53262424D01*
X56204350Y-53503309D01*
X56204343Y-53503327D01*
X56116884Y-53759685D01*
X56116881Y-53759699D01*
X56067681Y-54026068D01*
X56067680Y-54026075D01*
X56057787Y-54296763D01*
X54643644Y-54296763D01*
X54643644Y-51002870D01*
X64495500Y-51002870D01*
X64495501Y-51002876D01*
X64501908Y-51062483D01*
X64552202Y-51197328D01*
X64552206Y-51197335D01*
X64638452Y-51312544D01*
X64638455Y-51312547D01*
X64753664Y-51398793D01*
X64753671Y-51398797D01*
X64888517Y-51449091D01*
X64888516Y-51449091D01*
X64895444Y-51449835D01*
X64948127Y-51455500D01*
X66643872Y-51455499D01*
X66703483Y-51449091D01*
X66838331Y-51398796D01*
X66953546Y-51312546D01*
X67039796Y-51197331D01*
X67090091Y-51062483D01*
X67093862Y-51027401D01*
X67120599Y-50962855D01*
X67177990Y-50923006D01*
X67247816Y-50920511D01*
X67307905Y-50956163D01*
X67318726Y-50969536D01*
X67335956Y-50994143D01*
X67496858Y-51155045D01*
X67496861Y-51155047D01*
X67683266Y-51285568D01*
X67889504Y-51381739D01*
X68109308Y-51440635D01*
X68271230Y-51454801D01*
X68335998Y-51460468D01*
X68336000Y-51460468D01*
X68336002Y-51460468D01*
X68392807Y-51455498D01*
X68562692Y-51440635D01*
X68782496Y-51381739D01*
X68988734Y-51285568D01*
X69175139Y-51155047D01*
X69336047Y-50994139D01*
X69466568Y-50807734D01*
X69493895Y-50749129D01*
X69540064Y-50696695D01*
X69607257Y-50677542D01*
X69674139Y-50697757D01*
X69718657Y-50749133D01*
X69745865Y-50807482D01*
X69876342Y-50993820D01*
X70037179Y-51154657D01*
X70223517Y-51285134D01*
X70429673Y-51381265D01*
X70429682Y-51381269D01*
X70625999Y-51433872D01*
X70626000Y-51433871D01*
X70626000Y-50470686D01*
X70637955Y-50482641D01*
X70750852Y-50540165D01*
X70844519Y-50555000D01*
X70907481Y-50555000D01*
X71001148Y-50540165D01*
X71114045Y-50482641D01*
X71126000Y-50470686D01*
X71126000Y-51433872D01*
X71322317Y-51381269D01*
X71322326Y-51381265D01*
X71528482Y-51285134D01*
X71714820Y-51154657D01*
X71875657Y-50993820D01*
X72006132Y-50807484D01*
X72033341Y-50749134D01*
X72079513Y-50696695D01*
X72146707Y-50677542D01*
X72213588Y-50697757D01*
X72258106Y-50749133D01*
X72285431Y-50807732D01*
X72285432Y-50807734D01*
X72415954Y-50994141D01*
X72576858Y-51155045D01*
X72576861Y-51155047D01*
X72763266Y-51285568D01*
X72969504Y-51381739D01*
X73189308Y-51440635D01*
X73351230Y-51454801D01*
X73415998Y-51460468D01*
X73416000Y-51460468D01*
X73416002Y-51460468D01*
X73472807Y-51455498D01*
X73642692Y-51440635D01*
X73862496Y-51381739D01*
X74068734Y-51285568D01*
X74255139Y-51155047D01*
X74416047Y-50994139D01*
X74546568Y-50807734D01*
X74642739Y-50601496D01*
X74701635Y-50381692D01*
X74721468Y-50155000D01*
X74701635Y-49928308D01*
X74642739Y-49708504D01*
X74546568Y-49502266D01*
X74416047Y-49315861D01*
X74416045Y-49315858D01*
X74255141Y-49154954D01*
X74068734Y-49024432D01*
X74068732Y-49024431D01*
X73862497Y-48928261D01*
X73862488Y-48928258D01*
X73642697Y-48869366D01*
X73642693Y-48869365D01*
X73642692Y-48869365D01*
X73642691Y-48869364D01*
X73642686Y-48869364D01*
X73416002Y-48849532D01*
X73415998Y-48849532D01*
X73189313Y-48869364D01*
X73189302Y-48869366D01*
X72969511Y-48928258D01*
X72969502Y-48928261D01*
X72763267Y-49024431D01*
X72763265Y-49024432D01*
X72576858Y-49154954D01*
X72415954Y-49315858D01*
X72285433Y-49502264D01*
X72285432Y-49502266D01*
X72285315Y-49502518D01*
X72258106Y-49560867D01*
X72211933Y-49613306D01*
X72144739Y-49632457D01*
X72077858Y-49612241D01*
X72033342Y-49560865D01*
X72006135Y-49502520D01*
X72006134Y-49502518D01*
X71875657Y-49316179D01*
X71714820Y-49155342D01*
X71528482Y-49024865D01*
X71322328Y-48928734D01*
X71126000Y-48876127D01*
X71126000Y-49839314D01*
X71114045Y-49827359D01*
X71001148Y-49769835D01*
X70907481Y-49755000D01*
X70844519Y-49755000D01*
X70750852Y-49769835D01*
X70637955Y-49827359D01*
X70626000Y-49839314D01*
X70626000Y-48876127D01*
X70429671Y-48928734D01*
X70223517Y-49024865D01*
X70037179Y-49155342D01*
X69876342Y-49316179D01*
X69745867Y-49502515D01*
X69718657Y-49560867D01*
X69672484Y-49613306D01*
X69605290Y-49632457D01*
X69538409Y-49612241D01*
X69493893Y-49560865D01*
X69466685Y-49502518D01*
X69466568Y-49502266D01*
X69336047Y-49315861D01*
X69336045Y-49315858D01*
X69175140Y-49154953D01*
X69014377Y-49042386D01*
X68970752Y-48987809D01*
X68961500Y-48940811D01*
X68961500Y-47612500D01*
X68981185Y-47545461D01*
X69033989Y-47499706D01*
X69085500Y-47488500D01*
X76524548Y-47488500D01*
X76591587Y-47508185D01*
X76612229Y-47524819D01*
X76842194Y-47754784D01*
X76852017Y-47767045D01*
X76852239Y-47766863D01*
X76857212Y-47772875D01*
X76857213Y-47772876D01*
X76857214Y-47772877D01*
X76877343Y-47791780D01*
X76907636Y-47820227D01*
X76928523Y-47841115D01*
X76928527Y-47841118D01*
X76928529Y-47841120D01*
X76934011Y-47845373D01*
X76938443Y-47849157D01*
X76972418Y-47881062D01*
X76989976Y-47890714D01*
X77006235Y-47901395D01*
X77022064Y-47913673D01*
X77064838Y-47932182D01*
X77070056Y-47934738D01*
X77110908Y-47957197D01*
X77130316Y-47962180D01*
X77148717Y-47968480D01*
X77167104Y-47976437D01*
X77210488Y-47983308D01*
X77213119Y-47983725D01*
X77218839Y-47984909D01*
X77263981Y-47996500D01*
X77284016Y-47996500D01*
X77303415Y-47998027D01*
X77323196Y-48001160D01*
X77363434Y-47997356D01*
X77369582Y-47996775D01*
X77375420Y-47996500D01*
X78911257Y-47996500D01*
X78926877Y-47998224D01*
X78926904Y-47997939D01*
X78934660Y-47998671D01*
X78934667Y-47998673D01*
X79003814Y-47996500D01*
X79033350Y-47996500D01*
X79040228Y-47995630D01*
X79046041Y-47995172D01*
X79092627Y-47993709D01*
X79111869Y-47988117D01*
X79130912Y-47984174D01*
X79150792Y-47981664D01*
X79194122Y-47964507D01*
X79199646Y-47962617D01*
X79203396Y-47961527D01*
X79244390Y-47949618D01*
X79261629Y-47939422D01*
X79279103Y-47930862D01*
X79297727Y-47923488D01*
X79297727Y-47923487D01*
X79297732Y-47923486D01*
X79335449Y-47896082D01*
X79340305Y-47892892D01*
X79352349Y-47885770D01*
X79420071Y-47868591D01*
X79447553Y-47872729D01*
X79529308Y-47894635D01*
X79691230Y-47908801D01*
X79755998Y-47914468D01*
X79756000Y-47914468D01*
X79756002Y-47914468D01*
X79812673Y-47909509D01*
X79982692Y-47894635D01*
X80202496Y-47835739D01*
X80408734Y-47739568D01*
X80595139Y-47609047D01*
X80756047Y-47448139D01*
X80886568Y-47261734D01*
X80982739Y-47055496D01*
X81041635Y-46835692D01*
X81061468Y-46609000D01*
X81041635Y-46382308D01*
X80982739Y-46162504D01*
X80886568Y-45956266D01*
X80756047Y-45769861D01*
X80756045Y-45769858D01*
X80598913Y-45612726D01*
X80565428Y-45551403D01*
X80570412Y-45481711D01*
X80612284Y-45425778D01*
X80658078Y-45404368D01*
X80663480Y-45403091D01*
X80663483Y-45403091D01*
X80798331Y-45352796D01*
X80913546Y-45266546D01*
X80999796Y-45151331D01*
X81050091Y-45016483D01*
X81056500Y-44956873D01*
X81056499Y-43261128D01*
X81050091Y-43201517D01*
X81044950Y-43187734D01*
X80999797Y-43066671D01*
X80999793Y-43066664D01*
X80913547Y-42951455D01*
X80913544Y-42951452D01*
X80798335Y-42865206D01*
X80798328Y-42865202D01*
X80663482Y-42814908D01*
X80663483Y-42814908D01*
X80603883Y-42808501D01*
X80603881Y-42808500D01*
X80603873Y-42808500D01*
X80603865Y-42808500D01*
X80505500Y-42808500D01*
X80438461Y-42788815D01*
X80392706Y-42736011D01*
X80381500Y-42684500D01*
X80381500Y-38292444D01*
X80401185Y-38225405D01*
X80453989Y-38179650D01*
X80505500Y-38168444D01*
X80581879Y-38168444D01*
X80827158Y-38127515D01*
X81062354Y-38046772D01*
X81281053Y-37928418D01*
X81477288Y-37775682D01*
X81645708Y-37592729D01*
X81781717Y-37384551D01*
X81881607Y-37156825D01*
X81942652Y-36915765D01*
X81946553Y-36868685D01*
X81963187Y-36667949D01*
X81963187Y-36667938D01*
X81942653Y-36420131D01*
X81942651Y-36420119D01*
X81881607Y-36179062D01*
X81781717Y-35951337D01*
X81645710Y-35743161D01*
X81599749Y-35693234D01*
X81477288Y-35560206D01*
X81281053Y-35407470D01*
X81281051Y-35407469D01*
X81281050Y-35407468D01*
X81062355Y-35289116D01*
X81062346Y-35289113D01*
X80827160Y-35208373D01*
X80581879Y-35167444D01*
X80333209Y-35167444D01*
X80087927Y-35208373D01*
X79894807Y-35274672D01*
X79825008Y-35277822D01*
X79766863Y-35245072D01*
X77574762Y-33052971D01*
X77541277Y-32991648D01*
X77538443Y-32965290D01*
X77538443Y-31352873D01*
X77538442Y-31352867D01*
X77538441Y-31352860D01*
X77532035Y-31293261D01*
X77503364Y-31216391D01*
X77481741Y-31158415D01*
X77481737Y-31158408D01*
X77395491Y-31043199D01*
X77395488Y-31043196D01*
X77280279Y-30956950D01*
X77280272Y-30956946D01*
X77145426Y-30906652D01*
X77145427Y-30906652D01*
X77085827Y-30900245D01*
X77085825Y-30900244D01*
X77085817Y-30900244D01*
X77085808Y-30900244D01*
X74990073Y-30900244D01*
X74990067Y-30900245D01*
X74930460Y-30906652D01*
X74795615Y-30956946D01*
X74795608Y-30956950D01*
X74680399Y-31043196D01*
X74680396Y-31043199D01*
X74594150Y-31158408D01*
X74594146Y-31158415D01*
X74543852Y-31293261D01*
X74537445Y-31352860D01*
X74537445Y-31352867D01*
X74537444Y-31352879D01*
X74537444Y-33448614D01*
X74537445Y-33448620D01*
X74543852Y-33508227D01*
X74594146Y-33643072D01*
X74594150Y-33643079D01*
X74680396Y-33758288D01*
X74680399Y-33758291D01*
X74795608Y-33844537D01*
X74795615Y-33844541D01*
X74930461Y-33894835D01*
X74930460Y-33894835D01*
X74933009Y-33895109D01*
X74990071Y-33901244D01*
X76602490Y-33901243D01*
X76669529Y-33920928D01*
X76690171Y-33937562D01*
X78963087Y-36210478D01*
X78996572Y-36271801D01*
X78995612Y-36328598D01*
X78972435Y-36420124D01*
X78951901Y-36667938D01*
X78951901Y-36667949D01*
X78972434Y-36915756D01*
X78972436Y-36915768D01*
X79033480Y-37156825D01*
X79119957Y-37353971D01*
X79129846Y-37392064D01*
X79130223Y-37396051D01*
X79130500Y-37401890D01*
X79130500Y-42684500D01*
X79110815Y-42751539D01*
X79058011Y-42797294D01*
X79006501Y-42808500D01*
X78908130Y-42808500D01*
X78908123Y-42808501D01*
X78848516Y-42814908D01*
X78713671Y-42865202D01*
X78713664Y-42865206D01*
X78598455Y-42951452D01*
X78598452Y-42951455D01*
X78512206Y-43066664D01*
X78512202Y-43066671D01*
X78461908Y-43201517D01*
X78455501Y-43261116D01*
X78455501Y-43261123D01*
X78455500Y-43261135D01*
X78455500Y-44956870D01*
X78455501Y-44956876D01*
X78461908Y-45016483D01*
X78512202Y-45151328D01*
X78512206Y-45151335D01*
X78598452Y-45266544D01*
X78598455Y-45266547D01*
X78713664Y-45352793D01*
X78713671Y-45352797D01*
X78754173Y-45367903D01*
X78848517Y-45403091D01*
X78848527Y-45403092D01*
X78853913Y-45404365D01*
X78914631Y-45438935D01*
X78947021Y-45500843D01*
X78940799Y-45570435D01*
X78913088Y-45612725D01*
X78755951Y-45769862D01*
X78625432Y-45956265D01*
X78625431Y-45956267D01*
X78529261Y-46162502D01*
X78529258Y-46162511D01*
X78470366Y-46382302D01*
X78470364Y-46382313D01*
X78450532Y-46608998D01*
X78450532Y-46609000D01*
X78450680Y-46610692D01*
X78450532Y-46611428D01*
X78450532Y-46614414D01*
X78449932Y-46614414D01*
X78436914Y-46679192D01*
X78388299Y-46729375D01*
X78327152Y-46745500D01*
X77653453Y-46745500D01*
X77586414Y-46725815D01*
X77565772Y-46709181D01*
X77335803Y-46479212D01*
X77325980Y-46466950D01*
X77325759Y-46467134D01*
X77320786Y-46461123D01*
X77302162Y-46443634D01*
X77270364Y-46413773D01*
X77259919Y-46403328D01*
X77249475Y-46392883D01*
X77243986Y-46388625D01*
X77239561Y-46384847D01*
X77205582Y-46352938D01*
X77205580Y-46352936D01*
X77205577Y-46352935D01*
X77188029Y-46343288D01*
X77171763Y-46332604D01*
X77155933Y-46320325D01*
X77113168Y-46301818D01*
X77107922Y-46299248D01*
X77067093Y-46276803D01*
X77067092Y-46276802D01*
X77047693Y-46271822D01*
X77029281Y-46265518D01*
X77010898Y-46257562D01*
X77010892Y-46257560D01*
X76964874Y-46250272D01*
X76959152Y-46249087D01*
X76914021Y-46237500D01*
X76914019Y-46237500D01*
X76893984Y-46237500D01*
X76874586Y-46235973D01*
X76867162Y-46234797D01*
X76854805Y-46232840D01*
X76854804Y-46232840D01*
X76808416Y-46237225D01*
X76802578Y-46237500D01*
X68745031Y-46237500D01*
X68729410Y-46235775D01*
X68729384Y-46236061D01*
X68721622Y-46235327D01*
X68721621Y-46235327D01*
X68652474Y-46237500D01*
X68622937Y-46237500D01*
X68616054Y-46238369D01*
X68610237Y-46238826D01*
X68563661Y-46240290D01*
X68544417Y-46245881D01*
X68525367Y-46249825D01*
X68505499Y-46252334D01*
X68462172Y-46269488D01*
X68456646Y-46271379D01*
X68411902Y-46284379D01*
X68411898Y-46284381D01*
X68394654Y-46294579D01*
X68377193Y-46303133D01*
X68358562Y-46310510D01*
X68358550Y-46310517D01*
X68320858Y-46337902D01*
X68315975Y-46341109D01*
X68275868Y-46364829D01*
X68261703Y-46378994D01*
X68246911Y-46391628D01*
X68230700Y-46403405D01*
X68200994Y-46439312D01*
X68197062Y-46443634D01*
X67952211Y-46688485D01*
X67939948Y-46698310D01*
X67940131Y-46698532D01*
X67934120Y-46703503D01*
X67886771Y-46753925D01*
X67865889Y-46774807D01*
X67865877Y-46774820D01*
X67861621Y-46780305D01*
X67857837Y-46784735D01*
X67825937Y-46818706D01*
X67825936Y-46818708D01*
X67816284Y-46836264D01*
X67805610Y-46852514D01*
X67793329Y-46868349D01*
X67793324Y-46868356D01*
X67774815Y-46911126D01*
X67772245Y-46916372D01*
X67749803Y-46957194D01*
X67744822Y-46976595D01*
X67738521Y-46994998D01*
X67730562Y-47013390D01*
X67730561Y-47013393D01*
X67723271Y-47059415D01*
X67722087Y-47065134D01*
X67710501Y-47110260D01*
X67710500Y-47110270D01*
X67710500Y-47130304D01*
X67708973Y-47149703D01*
X67705840Y-47169482D01*
X67705840Y-47169483D01*
X67710225Y-47215871D01*
X67710500Y-47221709D01*
X67710500Y-48940811D01*
X67690815Y-49007850D01*
X67657623Y-49042386D01*
X67496859Y-49154953D01*
X67335954Y-49315858D01*
X67318725Y-49340464D01*
X67264147Y-49384088D01*
X67194648Y-49391280D01*
X67132294Y-49359757D01*
X67096882Y-49299526D01*
X67093861Y-49282591D01*
X67090091Y-49247516D01*
X67039797Y-49112671D01*
X67039793Y-49112664D01*
X66953547Y-48997455D01*
X66953544Y-48997452D01*
X66838335Y-48911206D01*
X66838328Y-48911202D01*
X66703482Y-48860908D01*
X66703483Y-48860908D01*
X66643883Y-48854501D01*
X66643881Y-48854500D01*
X66643873Y-48854500D01*
X66643864Y-48854500D01*
X64948129Y-48854500D01*
X64948123Y-48854501D01*
X64888516Y-48860908D01*
X64753671Y-48911202D01*
X64753664Y-48911206D01*
X64638455Y-48997452D01*
X64638452Y-48997455D01*
X64552206Y-49112664D01*
X64552202Y-49112671D01*
X64501908Y-49247517D01*
X64495501Y-49307116D01*
X64495500Y-49307135D01*
X64495500Y-51002870D01*
X54643644Y-51002870D01*
X54643644Y-17339763D01*
X55930787Y-17339763D01*
X55960413Y-17609013D01*
X55960415Y-17609024D01*
X56028926Y-17871082D01*
X56028928Y-17871088D01*
X56134870Y-18120390D01*
X56203873Y-18233455D01*
X56275979Y-18351605D01*
X56275986Y-18351615D01*
X56449253Y-18559819D01*
X56449259Y-18559824D01*
X56650998Y-18740582D01*
X56876910Y-18890044D01*
X57122176Y-19005020D01*
X57122183Y-19005022D01*
X57122185Y-19005023D01*
X57381557Y-19083057D01*
X57381564Y-19083058D01*
X57381569Y-19083060D01*
X57649561Y-19122500D01*
X57649566Y-19122500D01*
X57852636Y-19122500D01*
X57904133Y-19118730D01*
X58055156Y-19107677D01*
X58167758Y-19082593D01*
X58319546Y-19048782D01*
X58319548Y-19048781D01*
X58319553Y-19048780D01*
X58572558Y-18952014D01*
X58808777Y-18819441D01*
X59023177Y-18653888D01*
X59211186Y-18458881D01*
X59368799Y-18238579D01*
X59444931Y-18090501D01*
X59492649Y-17997690D01*
X59492651Y-17997684D01*
X59492656Y-17997675D01*
X59580118Y-17741305D01*
X59629319Y-17474933D01*
X59639212Y-17204235D01*
X59609586Y-16934982D01*
X59541072Y-16672912D01*
X59435130Y-16423610D01*
X59294018Y-16192390D01*
X59244731Y-16133165D01*
X59120746Y-15984180D01*
X59120740Y-15984175D01*
X58919002Y-15803418D01*
X58693092Y-15653957D01*
X58626739Y-15622852D01*
X58447824Y-15538980D01*
X58447819Y-15538978D01*
X58447814Y-15538976D01*
X58188442Y-15460942D01*
X58188428Y-15460939D01*
X58072791Y-15443921D01*
X57920439Y-15421500D01*
X57717369Y-15421500D01*
X57717364Y-15421500D01*
X57514844Y-15436323D01*
X57514831Y-15436325D01*
X57250453Y-15495217D01*
X57250446Y-15495220D01*
X56997439Y-15591987D01*
X56761226Y-15724557D01*
X56761224Y-15724558D01*
X56761223Y-15724559D01*
X56714201Y-15760868D01*
X56546822Y-15890112D01*
X56358822Y-16085109D01*
X56358816Y-16085116D01*
X56201202Y-16305419D01*
X56201199Y-16305424D01*
X56077350Y-16546309D01*
X56077343Y-16546327D01*
X55989884Y-16802685D01*
X55989881Y-16802699D01*
X55940681Y-17069068D01*
X55940680Y-17069075D01*
X55930787Y-17339763D01*
X54643644Y-17339763D01*
X54643644Y-14356244D01*
X54663329Y-14289205D01*
X54716133Y-14243450D01*
X54767644Y-14232244D01*
X73517257Y-14232244D01*
X73584296Y-14251929D01*
G37*
%TD.AperFunction*%
%TA.AperFunction,Conductor*%
G36*
X73088359Y-42296955D02*
G01*
X73030835Y-42409852D01*
X73011014Y-42535000D01*
X73030835Y-42660148D01*
X73088359Y-42773045D01*
X73100314Y-42785000D01*
X71191686Y-42785000D01*
X71203641Y-42773045D01*
X71261165Y-42660148D01*
X71280986Y-42535000D01*
X71261165Y-42409852D01*
X71203641Y-42296955D01*
X71191686Y-42285000D01*
X73100314Y-42285000D01*
X73088359Y-42296955D01*
G37*
%TD.AperFunction*%
%TD*%
M02*
