M48
; DRILL file {KiCad 7.0.9} date Monday, December 11, 2023 at 11:26:02 AM
; FORMAT={-:-/ absolute / inch / decimal}
; #@! TF.CreationDate,2023-12-11T11:26:02+01:00
; #@! TF.GenerationSoftware,Kicad,Pcbnew,7.0.9
; #@! TF.FileFunction,Plated,1,2,PTH
FMAT,2
INCH
; #@! TA.AperFunction,Plated,PTH,ComponentDrill
T1C0.0295
; #@! TA.AperFunction,Plated,PTH,ComponentDrill
T2C0.0315
; #@! TA.AperFunction,Plated,PTH,ComponentDrill
T3C0.0374
; #@! TA.AperFunction,Plated,PTH,ComponentDrill
T4C0.0394
%
G90
G05
T1
X2.945Y-1.065
X2.995Y-1.015
X3.045Y-1.065
T2
X2.53Y-0.665
X2.53Y-0.7634
X2.55Y-1.02
X2.5576Y-1.1896
X2.58Y-1.4026
X2.58Y-1.501
X2.5904Y-1.6746
X2.5904Y-1.9746
X2.6904Y-1.6746
X2.6904Y-1.9746
X2.7469Y-1.02
X2.7545Y-1.1896
X2.765Y-0.81
X2.7904Y-1.6746
X2.7904Y-1.9746
X2.83Y-1.355
X2.83Y-1.5519
X2.8634Y-0.81
X2.8904Y-1.6746
X2.8904Y-1.9746
X2.9066Y-0.62
X3.1034Y-0.62
X3.14Y-1.7366
X3.14Y-1.835
X3.165Y-0.89
X3.3619Y-0.89
T3
X2.2916Y-1.2066
X2.2916Y-1.305
X2.2916Y-1.4035
X2.2916Y-1.6616
X2.2916Y-1.76
X2.2916Y-1.8585
T4
X2.275Y-0.895
X2.275Y-0.995
X2.9936Y-1.2756
X2.9936Y-1.4756
X3.1676Y-1.2436
X3.1676Y-1.4436
T0
M30
