%TF.GenerationSoftware,KiCad,Pcbnew,7.0.9*%
%TF.CreationDate,2023-12-11T11:25:51+01:00*%
%TF.ProjectId,3v3To5vPowerSupply,33763354-6f35-4765-906f-776572537570,1.1*%
%TF.SameCoordinates,Original*%
%TF.FileFunction,Soldermask,Top*%
%TF.FilePolarity,Negative*%
%FSLAX46Y46*%
G04 Gerber Fmt 4.6, Leading zero omitted, Abs format (unit mm)*
G04 Created by KiCad (PCBNEW 7.0.9) date 2023-12-11 11:25:51*
%MOMM*%
%LPD*%
G01*
G04 APERTURE LIST*
G04 Aperture macros list*
%AMRoundRect*
0 Rectangle with rounded corners*
0 $1 Rounding radius*
0 $2 $3 $4 $5 $6 $7 $8 $9 X,Y pos of 4 corners*
0 Add a 4 corners polygon primitive as box body*
4,1,4,$2,$3,$4,$5,$6,$7,$8,$9,$2,$3,0*
0 Add four circle primitives for the rounded corners*
1,1,$1+$1,$2,$3*
1,1,$1+$1,$4,$5*
1,1,$1+$1,$6,$7*
1,1,$1+$1,$8,$9*
0 Add four rect primitives between the rounded corners*
20,1,$1+$1,$2,$3,$4,$5,0*
20,1,$1+$1,$4,$5,$6,$7,0*
20,1,$1+$1,$6,$7,$8,$9,0*
20,1,$1+$1,$8,$9,$2,$3,0*%
G04 Aperture macros list end*
%ADD10R,1.100000X1.800000*%
%ADD11RoundRect,0.275000X-0.275000X-0.625000X0.275000X-0.625000X0.275000X0.625000X-0.275000X0.625000X0*%
%ADD12O,1.700000X1.700000*%
%ADD13R,1.700000X1.700000*%
%ADD14RoundRect,0.250000X-0.725000X0.600000X-0.725000X-0.600000X0.725000X-0.600000X0.725000X0.600000X0*%
%ADD15O,1.950000X1.700000*%
%ADD16C,1.600000*%
%ADD17C,3.200000*%
%ADD18R,1.600000X1.600000*%
%ADD19R,2.000000X2.000000*%
%ADD20O,2.000000X2.000000*%
%ADD21O,1.600000X1.600000*%
G04 APERTURE END LIST*
D10*
%TO.C,U3*%
X74803000Y-27451000D03*
D11*
X76073000Y-25381000D03*
X77343000Y-27451000D03*
%TD*%
D12*
%TO.C,J2*%
X57785000Y-25273000D03*
D13*
X57785000Y-22733000D03*
%TD*%
D14*
%TO.C,J3*%
X58207144Y-30648144D03*
D15*
X58207144Y-33148144D03*
X58207144Y-35648144D03*
%TD*%
D16*
%TO.C,C9*%
X71882000Y-34417000D03*
X71882000Y-39417000D03*
%TD*%
%TO.C,C8*%
X69963544Y-30216344D03*
X64963544Y-30216344D03*
%TD*%
D17*
%TO.C,REF\u002A\u002A*%
X57912000Y-54229000D03*
%TD*%
D18*
%TO.C,C1*%
X79756000Y-44109000D03*
D16*
X79756000Y-46609000D03*
%TD*%
%TO.C,C6*%
X69770000Y-25908000D03*
X64770000Y-25908000D03*
%TD*%
%TO.C,C3*%
X80391000Y-22606000D03*
X85391000Y-22606000D03*
%TD*%
D18*
%TO.C,C7*%
X65532000Y-35624888D03*
D16*
X65532000Y-38124888D03*
%TD*%
D18*
%TO.C,C2*%
X72729856Y-20574000D03*
D16*
X70229856Y-20574000D03*
%TD*%
D19*
%TO.C,D2*%
X80457544Y-31587944D03*
D20*
X80457544Y-36667944D03*
%TD*%
D14*
%TO.C,J1*%
X58207144Y-42205144D03*
D15*
X58207144Y-44705144D03*
X58207144Y-47205144D03*
%TD*%
D17*
%TO.C,REF\u002A\u002A*%
X57785000Y-17272000D03*
%TD*%
%TO.C,REF\u002A\u002A*%
X83947000Y-54229000D03*
%TD*%
D18*
%TO.C,U1*%
X65796000Y-50155000D03*
D21*
X68336000Y-50155000D03*
X70876000Y-50155000D03*
X73416000Y-50155000D03*
X73416000Y-42535000D03*
X70876000Y-42535000D03*
X68336000Y-42535000D03*
X65796000Y-42535000D03*
%TD*%
D17*
%TO.C,REF\u002A\u002A*%
X83947000Y-17272000D03*
%TD*%
D19*
%TO.C,D1*%
X76037944Y-32400744D03*
D20*
X76037944Y-37480744D03*
%TD*%
D18*
%TO.C,C4*%
X64262000Y-19391000D03*
D16*
X64262000Y-16891000D03*
%TD*%
%TO.C,C5*%
X73827000Y-15748000D03*
X78827000Y-15748000D03*
%TD*%
M02*
