%TF.GenerationSoftware,KiCad,Pcbnew,7.0.9*%
%TF.CreationDate,2023-12-11T11:26:03+01:00*%
%TF.ProjectId,3v3To5vPowerSupply,33763354-6f35-4765-906f-776572537570,1.1*%
%TF.SameCoordinates,Original*%
%TF.FileFunction,Drillmap*%
%TF.FilePolarity,Positive*%
%FSLAX45Y45*%
G04 Gerber Fmt 4.5, Leading zero omitted, Abs format (unit mm)*
G04 Created by KiCad (PCBNEW 7.0.9) date 2023-12-11 11:26:03*
%MOMM*%
%LPD*%
G01*
G04 APERTURE LIST*
%ADD10C,0.100000*%
%ADD11C,0.200000*%
%ADD12C,0.320000*%
G04 APERTURE END LIST*
D10*
X5414314Y-1373174D02*
X8762034Y-1373174D01*
X8762034Y-5795314D01*
X5414314Y-5795314D01*
X5414314Y-1373174D01*
D11*
D12*
X5618500Y-1567200D02*
X5938500Y-1887200D01*
X5938500Y-1567200D02*
X5618500Y-1887200D01*
X5631200Y-5262900D02*
X5951200Y-5582900D01*
X5951200Y-5262900D02*
X5631200Y-5582900D01*
X8234700Y-1567200D02*
X8554700Y-1887200D01*
X8554700Y-1567200D02*
X8234700Y-1887200D01*
X8234700Y-5262900D02*
X8554700Y-5582900D01*
X8554700Y-5262900D02*
X8234700Y-5582900D01*
D11*
X5670091Y-6111798D02*
X5670091Y-5911798D01*
X5670091Y-5911798D02*
X5717710Y-5911798D01*
X5717710Y-5911798D02*
X5746282Y-5921322D01*
X5746282Y-5921322D02*
X5765329Y-5940370D01*
X5765329Y-5940370D02*
X5774853Y-5959417D01*
X5774853Y-5959417D02*
X5784377Y-5997512D01*
X5784377Y-5997512D02*
X5784377Y-6026084D01*
X5784377Y-6026084D02*
X5774853Y-6064179D01*
X5774853Y-6064179D02*
X5765329Y-6083227D01*
X5765329Y-6083227D02*
X5746282Y-6102274D01*
X5746282Y-6102274D02*
X5717710Y-6111798D01*
X5717710Y-6111798D02*
X5670091Y-6111798D01*
X5870091Y-6111798D02*
X5870091Y-5978465D01*
X5870091Y-6016560D02*
X5879615Y-5997512D01*
X5879615Y-5997512D02*
X5889139Y-5987989D01*
X5889139Y-5987989D02*
X5908186Y-5978465D01*
X5908186Y-5978465D02*
X5927234Y-5978465D01*
X5993901Y-6111798D02*
X5993901Y-5978465D01*
X5993901Y-5911798D02*
X5984377Y-5921322D01*
X5984377Y-5921322D02*
X5993901Y-5930846D01*
X5993901Y-5930846D02*
X6003424Y-5921322D01*
X6003424Y-5921322D02*
X5993901Y-5911798D01*
X5993901Y-5911798D02*
X5993901Y-5930846D01*
X6117710Y-6111798D02*
X6098663Y-6102274D01*
X6098663Y-6102274D02*
X6089139Y-6083227D01*
X6089139Y-6083227D02*
X6089139Y-5911798D01*
X6222472Y-6111798D02*
X6203424Y-6102274D01*
X6203424Y-6102274D02*
X6193901Y-6083227D01*
X6193901Y-6083227D02*
X6193901Y-5911798D01*
X6451044Y-6111798D02*
X6451044Y-5911798D01*
X6451044Y-5911798D02*
X6517710Y-6054655D01*
X6517710Y-6054655D02*
X6584377Y-5911798D01*
X6584377Y-5911798D02*
X6584377Y-6111798D01*
X6765329Y-6111798D02*
X6765329Y-6007036D01*
X6765329Y-6007036D02*
X6755805Y-5987989D01*
X6755805Y-5987989D02*
X6736758Y-5978465D01*
X6736758Y-5978465D02*
X6698663Y-5978465D01*
X6698663Y-5978465D02*
X6679615Y-5987989D01*
X6765329Y-6102274D02*
X6746282Y-6111798D01*
X6746282Y-6111798D02*
X6698663Y-6111798D01*
X6698663Y-6111798D02*
X6679615Y-6102274D01*
X6679615Y-6102274D02*
X6670091Y-6083227D01*
X6670091Y-6083227D02*
X6670091Y-6064179D01*
X6670091Y-6064179D02*
X6679615Y-6045131D01*
X6679615Y-6045131D02*
X6698663Y-6035608D01*
X6698663Y-6035608D02*
X6746282Y-6035608D01*
X6746282Y-6035608D02*
X6765329Y-6026084D01*
X6860567Y-5978465D02*
X6860567Y-6178465D01*
X6860567Y-5987989D02*
X6879615Y-5978465D01*
X6879615Y-5978465D02*
X6917710Y-5978465D01*
X6917710Y-5978465D02*
X6936758Y-5987989D01*
X6936758Y-5987989D02*
X6946282Y-5997512D01*
X6946282Y-5997512D02*
X6955805Y-6016560D01*
X6955805Y-6016560D02*
X6955805Y-6073703D01*
X6955805Y-6073703D02*
X6946282Y-6092750D01*
X6946282Y-6092750D02*
X6936758Y-6102274D01*
X6936758Y-6102274D02*
X6917710Y-6111798D01*
X6917710Y-6111798D02*
X6879615Y-6111798D01*
X6879615Y-6111798D02*
X6860567Y-6102274D01*
X7041520Y-6092750D02*
X7051044Y-6102274D01*
X7051044Y-6102274D02*
X7041520Y-6111798D01*
X7041520Y-6111798D02*
X7031996Y-6102274D01*
X7031996Y-6102274D02*
X7041520Y-6092750D01*
X7041520Y-6092750D02*
X7041520Y-6111798D01*
X7041520Y-5987989D02*
X7051044Y-5997512D01*
X7051044Y-5997512D02*
X7041520Y-6007036D01*
X7041520Y-6007036D02*
X7031996Y-5997512D01*
X7031996Y-5997512D02*
X7041520Y-5987989D01*
X7041520Y-5987989D02*
X7041520Y-6007036D01*
X5209314Y-6340314D02*
X5409314Y-6540314D01*
X5409314Y-6340314D02*
X5209314Y-6540314D01*
X5651044Y-6331798D02*
X5774853Y-6331798D01*
X5774853Y-6331798D02*
X5708186Y-6407989D01*
X5708186Y-6407989D02*
X5736758Y-6407989D01*
X5736758Y-6407989D02*
X5755805Y-6417512D01*
X5755805Y-6417512D02*
X5765329Y-6427036D01*
X5765329Y-6427036D02*
X5774853Y-6446084D01*
X5774853Y-6446084D02*
X5774853Y-6493703D01*
X5774853Y-6493703D02*
X5765329Y-6512750D01*
X5765329Y-6512750D02*
X5755805Y-6522274D01*
X5755805Y-6522274D02*
X5736758Y-6531798D01*
X5736758Y-6531798D02*
X5679615Y-6531798D01*
X5679615Y-6531798D02*
X5660567Y-6522274D01*
X5660567Y-6522274D02*
X5651044Y-6512750D01*
X5860567Y-6512750D02*
X5870091Y-6522274D01*
X5870091Y-6522274D02*
X5860567Y-6531798D01*
X5860567Y-6531798D02*
X5851044Y-6522274D01*
X5851044Y-6522274D02*
X5860567Y-6512750D01*
X5860567Y-6512750D02*
X5860567Y-6531798D01*
X5946282Y-6350846D02*
X5955805Y-6341322D01*
X5955805Y-6341322D02*
X5974853Y-6331798D01*
X5974853Y-6331798D02*
X6022472Y-6331798D01*
X6022472Y-6331798D02*
X6041520Y-6341322D01*
X6041520Y-6341322D02*
X6051044Y-6350846D01*
X6051044Y-6350846D02*
X6060567Y-6369893D01*
X6060567Y-6369893D02*
X6060567Y-6388941D01*
X6060567Y-6388941D02*
X6051044Y-6417512D01*
X6051044Y-6417512D02*
X5936758Y-6531798D01*
X5936758Y-6531798D02*
X6060567Y-6531798D01*
X6184377Y-6331798D02*
X6203425Y-6331798D01*
X6203425Y-6331798D02*
X6222472Y-6341322D01*
X6222472Y-6341322D02*
X6231996Y-6350846D01*
X6231996Y-6350846D02*
X6241520Y-6369893D01*
X6241520Y-6369893D02*
X6251044Y-6407989D01*
X6251044Y-6407989D02*
X6251044Y-6455608D01*
X6251044Y-6455608D02*
X6241520Y-6493703D01*
X6241520Y-6493703D02*
X6231996Y-6512750D01*
X6231996Y-6512750D02*
X6222472Y-6522274D01*
X6222472Y-6522274D02*
X6203425Y-6531798D01*
X6203425Y-6531798D02*
X6184377Y-6531798D01*
X6184377Y-6531798D02*
X6165329Y-6522274D01*
X6165329Y-6522274D02*
X6155805Y-6512750D01*
X6155805Y-6512750D02*
X6146282Y-6493703D01*
X6146282Y-6493703D02*
X6136758Y-6455608D01*
X6136758Y-6455608D02*
X6136758Y-6407989D01*
X6136758Y-6407989D02*
X6146282Y-6369893D01*
X6146282Y-6369893D02*
X6155805Y-6350846D01*
X6155805Y-6350846D02*
X6165329Y-6341322D01*
X6165329Y-6341322D02*
X6184377Y-6331798D01*
X6374853Y-6331798D02*
X6393901Y-6331798D01*
X6393901Y-6331798D02*
X6412948Y-6341322D01*
X6412948Y-6341322D02*
X6422472Y-6350846D01*
X6422472Y-6350846D02*
X6431996Y-6369893D01*
X6431996Y-6369893D02*
X6441520Y-6407989D01*
X6441520Y-6407989D02*
X6441520Y-6455608D01*
X6441520Y-6455608D02*
X6431996Y-6493703D01*
X6431996Y-6493703D02*
X6422472Y-6512750D01*
X6422472Y-6512750D02*
X6412948Y-6522274D01*
X6412948Y-6522274D02*
X6393901Y-6531798D01*
X6393901Y-6531798D02*
X6374853Y-6531798D01*
X6374853Y-6531798D02*
X6355805Y-6522274D01*
X6355805Y-6522274D02*
X6346282Y-6512750D01*
X6346282Y-6512750D02*
X6336758Y-6493703D01*
X6336758Y-6493703D02*
X6327234Y-6455608D01*
X6327234Y-6455608D02*
X6327234Y-6407989D01*
X6327234Y-6407989D02*
X6336758Y-6369893D01*
X6336758Y-6369893D02*
X6346282Y-6350846D01*
X6346282Y-6350846D02*
X6355805Y-6341322D01*
X6355805Y-6341322D02*
X6374853Y-6331798D01*
X6527234Y-6531798D02*
X6527234Y-6398465D01*
X6527234Y-6417512D02*
X6536758Y-6407989D01*
X6536758Y-6407989D02*
X6555805Y-6398465D01*
X6555805Y-6398465D02*
X6584377Y-6398465D01*
X6584377Y-6398465D02*
X6603425Y-6407989D01*
X6603425Y-6407989D02*
X6612948Y-6427036D01*
X6612948Y-6427036D02*
X6612948Y-6531798D01*
X6612948Y-6427036D02*
X6622472Y-6407989D01*
X6622472Y-6407989D02*
X6641520Y-6398465D01*
X6641520Y-6398465D02*
X6670091Y-6398465D01*
X6670091Y-6398465D02*
X6689139Y-6407989D01*
X6689139Y-6407989D02*
X6698663Y-6427036D01*
X6698663Y-6427036D02*
X6698663Y-6531798D01*
X6793901Y-6531798D02*
X6793901Y-6398465D01*
X6793901Y-6417512D02*
X6803425Y-6407989D01*
X6803425Y-6407989D02*
X6822472Y-6398465D01*
X6822472Y-6398465D02*
X6851044Y-6398465D01*
X6851044Y-6398465D02*
X6870091Y-6407989D01*
X6870091Y-6407989D02*
X6879615Y-6427036D01*
X6879615Y-6427036D02*
X6879615Y-6531798D01*
X6879615Y-6427036D02*
X6889139Y-6407989D01*
X6889139Y-6407989D02*
X6908186Y-6398465D01*
X6908186Y-6398465D02*
X6936758Y-6398465D01*
X6936758Y-6398465D02*
X6955806Y-6407989D01*
X6955806Y-6407989D02*
X6965329Y-6427036D01*
X6965329Y-6427036D02*
X6965329Y-6531798D01*
X7355806Y-6322274D02*
X7184377Y-6579417D01*
X7612948Y-6331798D02*
X7631996Y-6331798D01*
X7631996Y-6331798D02*
X7651044Y-6341322D01*
X7651044Y-6341322D02*
X7660568Y-6350846D01*
X7660568Y-6350846D02*
X7670091Y-6369893D01*
X7670091Y-6369893D02*
X7679615Y-6407989D01*
X7679615Y-6407989D02*
X7679615Y-6455608D01*
X7679615Y-6455608D02*
X7670091Y-6493703D01*
X7670091Y-6493703D02*
X7660568Y-6512750D01*
X7660568Y-6512750D02*
X7651044Y-6522274D01*
X7651044Y-6522274D02*
X7631996Y-6531798D01*
X7631996Y-6531798D02*
X7612948Y-6531798D01*
X7612948Y-6531798D02*
X7593901Y-6522274D01*
X7593901Y-6522274D02*
X7584377Y-6512750D01*
X7584377Y-6512750D02*
X7574853Y-6493703D01*
X7574853Y-6493703D02*
X7565329Y-6455608D01*
X7565329Y-6455608D02*
X7565329Y-6407989D01*
X7565329Y-6407989D02*
X7574853Y-6369893D01*
X7574853Y-6369893D02*
X7584377Y-6350846D01*
X7584377Y-6350846D02*
X7593901Y-6341322D01*
X7593901Y-6341322D02*
X7612948Y-6331798D01*
X7765329Y-6512750D02*
X7774853Y-6522274D01*
X7774853Y-6522274D02*
X7765329Y-6531798D01*
X7765329Y-6531798D02*
X7755806Y-6522274D01*
X7755806Y-6522274D02*
X7765329Y-6512750D01*
X7765329Y-6512750D02*
X7765329Y-6531798D01*
X7965329Y-6531798D02*
X7851044Y-6531798D01*
X7908187Y-6531798D02*
X7908187Y-6331798D01*
X7908187Y-6331798D02*
X7889139Y-6360370D01*
X7889139Y-6360370D02*
X7870091Y-6379417D01*
X7870091Y-6379417D02*
X7851044Y-6388941D01*
X8041520Y-6350846D02*
X8051044Y-6341322D01*
X8051044Y-6341322D02*
X8070091Y-6331798D01*
X8070091Y-6331798D02*
X8117710Y-6331798D01*
X8117710Y-6331798D02*
X8136758Y-6341322D01*
X8136758Y-6341322D02*
X8146282Y-6350846D01*
X8146282Y-6350846D02*
X8155806Y-6369893D01*
X8155806Y-6369893D02*
X8155806Y-6388941D01*
X8155806Y-6388941D02*
X8146282Y-6417512D01*
X8146282Y-6417512D02*
X8031996Y-6531798D01*
X8031996Y-6531798D02*
X8155806Y-6531798D01*
X8327234Y-6331798D02*
X8289139Y-6331798D01*
X8289139Y-6331798D02*
X8270091Y-6341322D01*
X8270091Y-6341322D02*
X8260568Y-6350846D01*
X8260568Y-6350846D02*
X8241520Y-6379417D01*
X8241520Y-6379417D02*
X8231996Y-6417512D01*
X8231996Y-6417512D02*
X8231996Y-6493703D01*
X8231996Y-6493703D02*
X8241520Y-6512750D01*
X8241520Y-6512750D02*
X8251044Y-6522274D01*
X8251044Y-6522274D02*
X8270091Y-6531798D01*
X8270091Y-6531798D02*
X8308187Y-6531798D01*
X8308187Y-6531798D02*
X8327234Y-6522274D01*
X8327234Y-6522274D02*
X8336758Y-6512750D01*
X8336758Y-6512750D02*
X8346282Y-6493703D01*
X8346282Y-6493703D02*
X8346282Y-6446084D01*
X8346282Y-6446084D02*
X8336758Y-6427036D01*
X8336758Y-6427036D02*
X8327234Y-6417512D01*
X8327234Y-6417512D02*
X8308187Y-6407989D01*
X8308187Y-6407989D02*
X8270091Y-6407989D01*
X8270091Y-6407989D02*
X8251044Y-6417512D01*
X8251044Y-6417512D02*
X8241520Y-6427036D01*
X8241520Y-6427036D02*
X8231996Y-6446084D01*
X8470091Y-6331798D02*
X8489139Y-6331798D01*
X8489139Y-6331798D02*
X8508187Y-6341322D01*
X8508187Y-6341322D02*
X8517711Y-6350846D01*
X8517711Y-6350846D02*
X8527234Y-6369893D01*
X8527234Y-6369893D02*
X8536758Y-6407989D01*
X8536758Y-6407989D02*
X8536758Y-6455608D01*
X8536758Y-6455608D02*
X8527234Y-6493703D01*
X8527234Y-6493703D02*
X8517711Y-6512750D01*
X8517711Y-6512750D02*
X8508187Y-6522274D01*
X8508187Y-6522274D02*
X8489139Y-6531798D01*
X8489139Y-6531798D02*
X8470091Y-6531798D01*
X8470091Y-6531798D02*
X8451044Y-6522274D01*
X8451044Y-6522274D02*
X8441520Y-6512750D01*
X8441520Y-6512750D02*
X8431996Y-6493703D01*
X8431996Y-6493703D02*
X8422472Y-6455608D01*
X8422472Y-6455608D02*
X8422472Y-6407989D01*
X8422472Y-6407989D02*
X8431996Y-6369893D01*
X8431996Y-6369893D02*
X8441520Y-6350846D01*
X8441520Y-6350846D02*
X8451044Y-6341322D01*
X8451044Y-6341322D02*
X8470091Y-6331798D01*
X8612949Y-6331798D02*
X8612949Y-6369893D01*
X8689139Y-6331798D02*
X8689139Y-6369893D01*
X8984377Y-6607989D02*
X8974853Y-6598465D01*
X8974853Y-6598465D02*
X8955806Y-6569893D01*
X8955806Y-6569893D02*
X8946282Y-6550846D01*
X8946282Y-6550846D02*
X8936758Y-6522274D01*
X8936758Y-6522274D02*
X8927234Y-6474655D01*
X8927234Y-6474655D02*
X8927234Y-6436560D01*
X8927234Y-6436560D02*
X8936758Y-6388941D01*
X8936758Y-6388941D02*
X8946282Y-6360370D01*
X8946282Y-6360370D02*
X8955806Y-6341322D01*
X8955806Y-6341322D02*
X8974853Y-6312750D01*
X8974853Y-6312750D02*
X8984377Y-6303227D01*
X9146282Y-6398465D02*
X9146282Y-6531798D01*
X9098663Y-6322274D02*
X9051044Y-6465131D01*
X9051044Y-6465131D02*
X9174853Y-6465131D01*
X9403425Y-6531798D02*
X9403425Y-6331798D01*
X9489139Y-6531798D02*
X9489139Y-6427036D01*
X9489139Y-6427036D02*
X9479615Y-6407989D01*
X9479615Y-6407989D02*
X9460568Y-6398465D01*
X9460568Y-6398465D02*
X9431996Y-6398465D01*
X9431996Y-6398465D02*
X9412949Y-6407989D01*
X9412949Y-6407989D02*
X9403425Y-6417512D01*
X9612949Y-6531798D02*
X9593901Y-6522274D01*
X9593901Y-6522274D02*
X9584377Y-6512750D01*
X9584377Y-6512750D02*
X9574854Y-6493703D01*
X9574854Y-6493703D02*
X9574854Y-6436560D01*
X9574854Y-6436560D02*
X9584377Y-6417512D01*
X9584377Y-6417512D02*
X9593901Y-6407989D01*
X9593901Y-6407989D02*
X9612949Y-6398465D01*
X9612949Y-6398465D02*
X9641520Y-6398465D01*
X9641520Y-6398465D02*
X9660568Y-6407989D01*
X9660568Y-6407989D02*
X9670092Y-6417512D01*
X9670092Y-6417512D02*
X9679615Y-6436560D01*
X9679615Y-6436560D02*
X9679615Y-6493703D01*
X9679615Y-6493703D02*
X9670092Y-6512750D01*
X9670092Y-6512750D02*
X9660568Y-6522274D01*
X9660568Y-6522274D02*
X9641520Y-6531798D01*
X9641520Y-6531798D02*
X9612949Y-6531798D01*
X9793901Y-6531798D02*
X9774854Y-6522274D01*
X9774854Y-6522274D02*
X9765330Y-6503227D01*
X9765330Y-6503227D02*
X9765330Y-6331798D01*
X9946282Y-6522274D02*
X9927235Y-6531798D01*
X9927235Y-6531798D02*
X9889139Y-6531798D01*
X9889139Y-6531798D02*
X9870092Y-6522274D01*
X9870092Y-6522274D02*
X9860568Y-6503227D01*
X9860568Y-6503227D02*
X9860568Y-6427036D01*
X9860568Y-6427036D02*
X9870092Y-6407989D01*
X9870092Y-6407989D02*
X9889139Y-6398465D01*
X9889139Y-6398465D02*
X9927235Y-6398465D01*
X9927235Y-6398465D02*
X9946282Y-6407989D01*
X9946282Y-6407989D02*
X9955806Y-6427036D01*
X9955806Y-6427036D02*
X9955806Y-6446084D01*
X9955806Y-6446084D02*
X9860568Y-6465131D01*
X10031996Y-6522274D02*
X10051044Y-6531798D01*
X10051044Y-6531798D02*
X10089139Y-6531798D01*
X10089139Y-6531798D02*
X10108187Y-6522274D01*
X10108187Y-6522274D02*
X10117711Y-6503227D01*
X10117711Y-6503227D02*
X10117711Y-6493703D01*
X10117711Y-6493703D02*
X10108187Y-6474655D01*
X10108187Y-6474655D02*
X10089139Y-6465131D01*
X10089139Y-6465131D02*
X10060568Y-6465131D01*
X10060568Y-6465131D02*
X10041520Y-6455608D01*
X10041520Y-6455608D02*
X10031996Y-6436560D01*
X10031996Y-6436560D02*
X10031996Y-6427036D01*
X10031996Y-6427036D02*
X10041520Y-6407989D01*
X10041520Y-6407989D02*
X10060568Y-6398465D01*
X10060568Y-6398465D02*
X10089139Y-6398465D01*
X10089139Y-6398465D02*
X10108187Y-6407989D01*
X10184377Y-6607989D02*
X10193901Y-6598465D01*
X10193901Y-6598465D02*
X10212949Y-6569893D01*
X10212949Y-6569893D02*
X10222473Y-6550846D01*
X10222473Y-6550846D02*
X10231996Y-6522274D01*
X10231996Y-6522274D02*
X10241520Y-6474655D01*
X10241520Y-6474655D02*
X10241520Y-6436560D01*
X10241520Y-6436560D02*
X10231996Y-6388941D01*
X10231996Y-6388941D02*
X10222473Y-6360370D01*
X10222473Y-6360370D02*
X10212949Y-6341322D01*
X10212949Y-6341322D02*
X10193901Y-6312750D01*
X10193901Y-6312750D02*
X10184377Y-6303227D01*
X10546282Y-6607989D02*
X10536758Y-6598465D01*
X10536758Y-6598465D02*
X10517711Y-6569893D01*
X10517711Y-6569893D02*
X10508187Y-6550846D01*
X10508187Y-6550846D02*
X10498663Y-6522274D01*
X10498663Y-6522274D02*
X10489139Y-6474655D01*
X10489139Y-6474655D02*
X10489139Y-6436560D01*
X10489139Y-6436560D02*
X10498663Y-6388941D01*
X10498663Y-6388941D02*
X10508187Y-6360370D01*
X10508187Y-6360370D02*
X10517711Y-6341322D01*
X10517711Y-6341322D02*
X10536758Y-6312750D01*
X10536758Y-6312750D02*
X10546282Y-6303227D01*
X10622473Y-6398465D02*
X10622473Y-6531798D01*
X10622473Y-6417512D02*
X10631996Y-6407989D01*
X10631996Y-6407989D02*
X10651044Y-6398465D01*
X10651044Y-6398465D02*
X10679616Y-6398465D01*
X10679616Y-6398465D02*
X10698663Y-6407989D01*
X10698663Y-6407989D02*
X10708187Y-6427036D01*
X10708187Y-6427036D02*
X10708187Y-6531798D01*
X10831996Y-6531798D02*
X10812949Y-6522274D01*
X10812949Y-6522274D02*
X10803425Y-6512750D01*
X10803425Y-6512750D02*
X10793901Y-6493703D01*
X10793901Y-6493703D02*
X10793901Y-6436560D01*
X10793901Y-6436560D02*
X10803425Y-6417512D01*
X10803425Y-6417512D02*
X10812949Y-6407989D01*
X10812949Y-6407989D02*
X10831996Y-6398465D01*
X10831996Y-6398465D02*
X10860568Y-6398465D01*
X10860568Y-6398465D02*
X10879616Y-6407989D01*
X10879616Y-6407989D02*
X10889139Y-6417512D01*
X10889139Y-6417512D02*
X10898663Y-6436560D01*
X10898663Y-6436560D02*
X10898663Y-6493703D01*
X10898663Y-6493703D02*
X10889139Y-6512750D01*
X10889139Y-6512750D02*
X10879616Y-6522274D01*
X10879616Y-6522274D02*
X10860568Y-6531798D01*
X10860568Y-6531798D02*
X10831996Y-6531798D01*
X10955806Y-6398465D02*
X11031996Y-6398465D01*
X10984377Y-6331798D02*
X10984377Y-6503227D01*
X10984377Y-6503227D02*
X10993901Y-6522274D01*
X10993901Y-6522274D02*
X11012949Y-6531798D01*
X11012949Y-6531798D02*
X11031996Y-6531798D01*
X11251044Y-6398465D02*
X11251044Y-6598465D01*
X11251044Y-6407989D02*
X11270092Y-6398465D01*
X11270092Y-6398465D02*
X11308187Y-6398465D01*
X11308187Y-6398465D02*
X11327235Y-6407989D01*
X11327235Y-6407989D02*
X11336758Y-6417512D01*
X11336758Y-6417512D02*
X11346282Y-6436560D01*
X11346282Y-6436560D02*
X11346282Y-6493703D01*
X11346282Y-6493703D02*
X11336758Y-6512750D01*
X11336758Y-6512750D02*
X11327235Y-6522274D01*
X11327235Y-6522274D02*
X11308187Y-6531798D01*
X11308187Y-6531798D02*
X11270092Y-6531798D01*
X11270092Y-6531798D02*
X11251044Y-6522274D01*
X11460568Y-6531798D02*
X11441520Y-6522274D01*
X11441520Y-6522274D02*
X11431996Y-6503227D01*
X11431996Y-6503227D02*
X11431996Y-6331798D01*
X11622473Y-6531798D02*
X11622473Y-6427036D01*
X11622473Y-6427036D02*
X11612949Y-6407989D01*
X11612949Y-6407989D02*
X11593901Y-6398465D01*
X11593901Y-6398465D02*
X11555806Y-6398465D01*
X11555806Y-6398465D02*
X11536758Y-6407989D01*
X11622473Y-6522274D02*
X11603425Y-6531798D01*
X11603425Y-6531798D02*
X11555806Y-6531798D01*
X11555806Y-6531798D02*
X11536758Y-6522274D01*
X11536758Y-6522274D02*
X11527235Y-6503227D01*
X11527235Y-6503227D02*
X11527235Y-6484179D01*
X11527235Y-6484179D02*
X11536758Y-6465131D01*
X11536758Y-6465131D02*
X11555806Y-6455608D01*
X11555806Y-6455608D02*
X11603425Y-6455608D01*
X11603425Y-6455608D02*
X11622473Y-6446084D01*
X11689139Y-6398465D02*
X11765330Y-6398465D01*
X11717711Y-6331798D02*
X11717711Y-6503227D01*
X11717711Y-6503227D02*
X11727235Y-6522274D01*
X11727235Y-6522274D02*
X11746282Y-6531798D01*
X11746282Y-6531798D02*
X11765330Y-6531798D01*
X11908187Y-6522274D02*
X11889139Y-6531798D01*
X11889139Y-6531798D02*
X11851044Y-6531798D01*
X11851044Y-6531798D02*
X11831996Y-6522274D01*
X11831996Y-6522274D02*
X11822473Y-6503227D01*
X11822473Y-6503227D02*
X11822473Y-6427036D01*
X11822473Y-6427036D02*
X11831996Y-6407989D01*
X11831996Y-6407989D02*
X11851044Y-6398465D01*
X11851044Y-6398465D02*
X11889139Y-6398465D01*
X11889139Y-6398465D02*
X11908187Y-6407989D01*
X11908187Y-6407989D02*
X11917711Y-6427036D01*
X11917711Y-6427036D02*
X11917711Y-6446084D01*
X11917711Y-6446084D02*
X11822473Y-6465131D01*
X12089139Y-6531798D02*
X12089139Y-6331798D01*
X12089139Y-6522274D02*
X12070092Y-6531798D01*
X12070092Y-6531798D02*
X12031996Y-6531798D01*
X12031996Y-6531798D02*
X12012949Y-6522274D01*
X12012949Y-6522274D02*
X12003425Y-6512750D01*
X12003425Y-6512750D02*
X11993901Y-6493703D01*
X11993901Y-6493703D02*
X11993901Y-6436560D01*
X11993901Y-6436560D02*
X12003425Y-6417512D01*
X12003425Y-6417512D02*
X12012949Y-6407989D01*
X12012949Y-6407989D02*
X12031996Y-6398465D01*
X12031996Y-6398465D02*
X12070092Y-6398465D01*
X12070092Y-6398465D02*
X12089139Y-6407989D01*
X12165330Y-6607989D02*
X12174854Y-6598465D01*
X12174854Y-6598465D02*
X12193901Y-6569893D01*
X12193901Y-6569893D02*
X12203425Y-6550846D01*
X12203425Y-6550846D02*
X12212949Y-6522274D01*
X12212949Y-6522274D02*
X12222473Y-6474655D01*
X12222473Y-6474655D02*
X12222473Y-6436560D01*
X12222473Y-6436560D02*
X12212949Y-6388941D01*
X12212949Y-6388941D02*
X12203425Y-6360370D01*
X12203425Y-6360370D02*
X12193901Y-6341322D01*
X12193901Y-6341322D02*
X12174854Y-6312750D01*
X12174854Y-6312750D02*
X12165330Y-6303227D01*
M02*
